<svg id="svg" version="1.1" xmlns="http://www.w3.org/2000/svg" xmlns:xlink="http://www.w3.org/1999/xlink" width="400" height="390.0571428571429" viewBox="0, 0, 400,390.0571428571429"><g id="svgg"><path id="path0" d="M0.000 195.000 L 0.000 390.000 200.000 390.000 L 400.000 390.000 400.000 195.000 L 400.000 0.000 200.000 0.000 L 0.000 0.000 0.000 195.000 M383.333 195.000 L 383.333 373.333 200.000 373.333 L 16.667 373.333 16.667 195.000 L 16.667 16.667 200.000 16.667 L 383.333 16.667 383.333 195.000 M120.724 89.563 C 120.310 89.920,120.258 90.084,120.213 91.188 C 120.025 95.803,119.688 99.411,119.226 101.745 C 119.081 102.476,108.209 140.715,95.065 186.720 C 81.470 234.302,71.167 270.649,71.167 271.024 C 71.167 271.500,71.280 271.795,71.576 272.091 L 71.985 272.500 85.081 272.500 C 99.561 272.500,99.106 272.532,99.570 271.468 C 99.703 271.165,100.153 269.604,100.572 268.000 C 101.427 264.722,104.851 251.791,108.603 237.667 C 110.066 232.159,111.473 226.849,112.256 223.875 L 113.057 220.833 139.685 220.833 C 154.331 220.833,166.353 220.897,166.401 220.974 C 166.473 221.092,168.035 226.703,170.166 234.500 C 170.429 235.463,171.255 238.463,172.000 241.167 C 172.745 243.871,173.570 246.871,173.833 247.833 C 174.096 248.796,174.921 251.796,175.666 254.500 C 176.411 257.204,177.657 261.742,178.435 264.583 C 180.551 272.307,180.338 271.736,181.283 272.224 C 182.172 272.683,210.621 272.642,211.190 272.181 C 211.908 271.600,211.853 271.343,208.918 261.500 C 208.522 260.171,207.632 257.171,206.942 254.833 C 206.252 252.496,204.887 247.883,203.909 244.583 C 202.932 241.283,201.837 237.571,201.476 236.333 C 201.115 235.096,200.528 233.108,200.171 231.917 C 199.814 230.725,198.837 227.425,198.000 224.583 C 197.163 221.742,196.188 218.442,195.833 217.250 C 195.479 216.058,194.504 212.758,193.665 209.917 C 192.827 207.075,191.740 203.400,191.250 201.750 C 190.318 198.615,188.882 193.761,187.070 187.625 C 184.158 177.762,182.745 172.985,179.910 163.417 C 178.932 160.117,177.837 156.404,177.476 155.167 C 177.115 153.929,176.528 151.942,176.171 150.750 C 175.814 149.558,174.837 146.258,174.000 143.417 C 173.163 140.575,172.188 137.275,171.833 136.083 C 171.479 134.892,170.504 131.592,169.665 128.750 C 168.827 125.908,167.740 122.233,167.250 120.583 C 166.760 118.933,165.859 115.896,165.249 113.833 C 164.639 111.771,163.740 108.733,163.251 107.083 C 162.762 105.433,161.711 101.871,160.914 99.167 C 158.147 89.771,158.204 89.944,157.744 89.542 L 157.315 89.167 139.250 89.167 L 121.185 89.167 120.724 89.563 M140.306 118.042 C 141.698 124.406,144.967 137.532,148.412 150.583 C 148.629 151.408,149.044 152.983,149.333 154.083 C 149.846 156.037,151.475 162.174,152.142 164.667 C 152.669 166.639,157.267 183.910,157.732 185.667 C 158.513 188.619,159.833 193.711,159.833 193.772 C 159.833 193.806,150.871 193.833,139.917 193.833 C 128.962 193.833,120.000 193.810,120.000 193.782 C 120.000 193.754,121.091 189.648,122.424 184.657 C 123.757 179.667,125.113 174.571,125.439 173.333 C 125.765 172.096,126.427 169.583,126.911 167.750 C 129.973 156.146,130.586 153.769,132.651 145.500 C 134.113 139.643,134.842 136.654,135.984 131.833 C 136.815 128.324,137.877 123.433,138.589 119.833 C 139.015 117.679,139.392 115.823,139.427 115.708 C 139.592 115.162,139.794 115.699,140.306 118.042 M271.083 134.841 C 243.458 136.943,224.094 158.823,219.761 192.833 C 219.158 197.565,219.085 199.006,219.084 206.167 C 219.079 249.951,241.105 274.976,279.667 274.998 C 292.491 275.005,304.000 272.926,311.827 269.188 C 314.720 267.806,314.574 268.523,314.633 255.388 C 314.695 241.530,314.953 242.471,311.472 243.855 C 296.174 249.938,277.342 250.164,266.167 244.398 C 255.415 238.851,249.210 226.832,249.168 211.474 L 249.167 210.864 278.375 210.787 C 316.760 210.684,321.351 210.455,322.234 208.593 C 324.044 204.780,324.523 187.573,323.073 178.504 C 318.452 149.607,298.397 132.763,271.083 134.841 M276.321 159.173 C 285.406 160.106,291.897 166.184,294.496 176.194 C 295.760 181.060,296.011 187.446,294.951 187.730 C 294.214 187.928,249.500 187.845,249.500 187.646 C 249.500 187.064,250.086 183.610,250.506 181.713 C 253.962 166.124,263.437 157.851,276.321 159.173 " stroke="none" fill="#d3a4ff" fill-rule="evenodd"></path><path id="path1" d="M16.667 195.000 L 16.667 373.333 200.000 373.333 L 383.333 373.333 383.333 195.000 L 383.333 16.667 200.000 16.667 L 16.667 16.667 16.667 195.000 M157.744 89.542 C 158.204 89.944,158.147 89.771,160.914 99.167 C 161.711 101.871,162.762 105.433,163.251 107.083 C 163.740 108.733,164.639 111.771,165.249 113.833 C 165.859 115.896,166.760 118.933,167.250 120.583 C 167.740 122.233,168.827 125.908,169.665 128.750 C 170.504 131.592,171.479 134.892,171.833 136.083 C 172.188 137.275,173.163 140.575,174.000 143.417 C 174.837 146.258,175.814 149.558,176.171 150.750 C 176.528 151.942,177.115 153.929,177.476 155.167 C 177.837 156.404,178.932 160.117,179.910 163.417 C 182.745 172.985,184.158 177.762,187.070 187.625 C 188.882 193.761,190.318 198.615,191.250 201.750 C 191.740 203.400,192.827 207.075,193.665 209.917 C 194.504 212.758,195.479 216.058,195.833 217.250 C 196.188 218.442,197.163 221.742,198.000 224.583 C 198.837 227.425,199.814 230.725,200.171 231.917 C 200.528 233.108,201.115 235.096,201.476 236.333 C 201.837 237.571,202.932 241.283,203.909 244.583 C 204.887 247.883,206.252 252.496,206.942 254.833 C 207.632 257.171,208.522 260.171,208.918 261.500 C 211.853 271.343,211.908 271.600,211.190 272.181 C 210.621 272.642,182.172 272.683,181.283 272.224 C 180.338 271.736,180.551 272.307,178.435 264.583 C 177.657 261.742,176.411 257.204,175.666 254.500 C 174.921 251.796,174.096 248.796,173.833 247.833 C 173.570 246.871,172.745 243.871,172.000 241.167 C 171.255 238.463,170.429 235.463,170.166 234.500 C 168.035 226.703,166.473 221.092,166.401 220.974 C 166.353 220.897,154.331 220.833,139.685 220.833 L 113.057 220.833 112.256 223.875 C 111.473 226.849,110.066 232.159,108.603 237.667 C 104.851 251.791,101.427 264.722,100.572 268.000 C 100.153 269.604,99.703 271.165,99.570 271.468 C 99.106 272.532,99.561 272.500,85.081 272.500 L 71.985 272.500 71.576 272.091 C 71.280 271.795,71.167 271.500,71.167 271.024 C 71.167 270.649,81.470 234.302,95.065 186.720 C 108.209 140.715,119.081 102.476,119.226 101.745 C 119.688 99.411,120.025 95.803,120.213 91.188 C 120.258 90.084,120.310 89.920,120.724 89.563 L 121.185 89.167 139.250 89.167 L 157.315 89.167 157.744 89.542 M139.427 115.708 C 139.392 115.823,139.015 117.679,138.589 119.833 C 137.877 123.433,136.815 128.324,135.984 131.833 C 134.842 136.654,134.113 139.643,132.651 145.500 C 130.586 153.769,129.973 156.146,126.911 167.750 C 126.427 169.583,125.765 172.096,125.439 173.333 C 125.113 174.571,123.757 179.667,122.424 184.657 C 121.091 189.648,120.000 193.754,120.000 193.782 C 120.000 193.810,128.962 193.833,139.917 193.833 C 150.871 193.833,159.833 193.806,159.833 193.772 C 159.833 193.711,158.513 188.619,157.732 185.667 C 157.267 183.910,152.669 166.639,152.142 164.667 C 151.475 162.174,149.846 156.037,149.333 154.083 C 149.044 152.983,148.629 151.408,148.412 150.583 C 144.967 137.532,141.698 124.406,140.306 118.042 C 139.794 115.699,139.592 115.162,139.427 115.708 M280.833 135.001 C 304.835 137.383,320.293 154.546,323.613 182.500 C 324.476 189.771,323.638 205.634,322.234 208.593 C 321.351 210.455,316.760 210.684,278.375 210.787 L 249.167 210.864 249.168 211.474 C 249.210 226.832,255.415 238.851,266.167 244.398 C 277.342 250.164,296.174 249.938,311.472 243.855 C 314.953 242.471,314.695 241.530,314.633 255.388 C 314.574 268.523,314.720 267.806,311.827 269.188 C 305.103 272.399,296.558 274.231,285.500 274.832 C 246.287 276.963,223.260 256.382,219.302 215.667 C 219.006 212.622,219.005 199.686,219.301 196.833 C 223.570 155.644,247.414 131.684,280.833 135.001 M271.833 159.117 C 261.178 159.955,253.535 168.054,250.506 181.713 C 250.086 183.610,249.500 187.064,249.500 187.646 C 249.500 187.845,294.214 187.928,294.951 187.730 C 296.011 187.446,295.760 181.060,294.496 176.194 C 291.471 164.544,283.093 158.231,271.833 159.117 " stroke="none" fill="#100027" fill-rule="evenodd"></path><path id="path0" d="M0.000 195.000 L 0.000 390.000 200.000 390.000 L 400.000 390.000 400.000 195.000 L 400.000 0.000 200.000 0.000 L 0.000 0.000 0.000 195.000 M383.333 195.000 L 383.333 373.333 200.000 373.333 L 16.667 373.333 16.667 195.000 L 16.667 16.667 200.000 16.667 L 383.333 16.667 383.333 195.000 M120.724 89.563 C 120.310 89.920,120.258 90.084,120.213 91.188 C 120.025 95.803,119.688 99.411,119.226 101.745 C 119.081 102.476,108.209 140.715,95.065 186.720 C 81.470 234.302,71.167 270.649,71.167 271.024 C 71.167 271.500,71.280 271.795,71.576 272.091 L 71.985 272.500 85.081 272.500 C 99.561 272.500,99.106 272.532,99.570 271.468 C 99.703 271.165,100.153 269.604,100.572 268.000 C 101.427 264.722,104.851 251.791,108.603 237.667 C 110.066 232.159,111.473 226.849,112.256 223.875 L 113.057 220.833 139.685 220.833 C 154.331 220.833,166.353 220.897,166.401 220.974 C 166.473 221.092,168.035 226.703,170.166 234.500 C 170.429 235.463,171.255 238.463,172.000 241.167 C 172.745 243.871,173.570 246.871,173.833 247.833 C 174.096 248.796,174.921 251.796,175.666 254.500 C 176.411 257.204,177.657 261.742,178.435 264.583 C 180.551 272.307,180.338 271.736,181.283 272.224 C 182.172 272.683,210.621 272.642,211.190 272.181 C 211.908 271.600,211.853 271.343,208.918 261.500 C 208.522 260.171,207.632 257.171,206.942 254.833 C 206.252 252.496,204.887 247.883,203.909 244.583 C 202.932 241.283,201.837 237.571,201.476 236.333 C 201.115 235.096,200.528 233.108,200.171 231.917 C 199.814 230.725,198.837 227.425,198.000 224.583 C 197.163 221.742,196.188 218.442,195.833 217.250 C 195.479 216.058,194.504 212.758,193.665 209.917 C 192.827 207.075,191.740 203.400,191.250 201.750 C 190.318 198.615,188.882 193.761,187.070 187.625 C 184.158 177.762,182.745 172.985,179.910 163.417 C 178.932 160.117,177.837 156.404,177.476 155.167 C 177.115 153.929,176.528 151.942,176.171 150.750 C 175.814 149.558,174.837 146.258,174.000 143.417 C 173.163 140.575,172.188 137.275,171.833 136.083 C 171.479 134.892,170.504 131.592,169.665 128.750 C 168.827 125.908,167.740 122.233,167.250 120.583 C 166.760 118.933,165.859 115.896,165.249 113.833 C 164.639 111.771,163.740 108.733,163.251 107.083 C 162.762 105.433,161.711 101.871,160.914 99.167 C 158.147 89.771,158.204 89.944,157.744 89.542 L 157.315 89.167 139.250 89.167 L 121.185 89.167 120.724 89.563 M140.306 118.042 C 141.698 124.406,144.967 137.532,148.412 150.583 C 148.629 151.408,149.044 152.983,149.333 154.083 C 149.846 156.037,151.475 162.174,152.142 164.667 C 152.669 166.639,157.267 183.910,157.732 185.667 C 158.513 188.619,159.833 193.711,159.833 193.772 C 159.833 193.806,150.871 193.833,139.917 193.833 C 128.962 193.833,120.000 193.810,120.000 193.782 C 120.000 193.754,121.091 189.648,122.424 184.657 C 123.757 179.667,125.113 174.571,125.439 173.333 C 125.765 172.096,126.427 169.583,126.911 167.750 C 129.973 156.146,130.586 153.769,132.651 145.500 C 134.113 139.643,134.842 136.654,135.984 131.833 C 136.815 128.324,137.877 123.433,138.589 119.833 C 139.015 117.679,139.392 115.823,139.427 115.708 C 139.592 115.162,139.794 115.699,140.306 118.042 M271.083 134.841 C 243.458 136.943,224.094 158.823,219.761 192.833 C 219.158 197.565,219.085 199.006,219.084 206.167 C 219.079 249.951,241.105 274.976,279.667 274.998 C 292.491 275.005,304.000 272.926,311.827 269.188 C 314.720 267.806,314.574 268.523,314.633 255.388 C 314.695 241.530,314.953 242.471,311.472 243.855 C 296.174 249.938,277.342 250.164,266.167 244.398 C 255.415 238.851,249.210 226.832,249.168 211.474 L 249.167 210.864 278.375 210.787 C 316.760 210.684,321.351 210.455,322.234 208.593 C 324.044 204.780,324.523 187.573,323.073 178.504 C 318.452 149.607,298.397 132.763,271.083 134.841 M276.321 159.173 C 285.406 160.106,291.897 166.184,294.496 176.194 C 295.760 181.060,296.011 187.446,294.951 187.730 C 294.214 187.928,249.500 187.845,249.500 187.646 C 249.500 187.064,250.086 183.610,250.506 181.713 C 253.962 166.124,263.437 157.851,276.321 159.173 " stroke="none" fill="#d3a4ff" fill-rule="evenodd"></path><path id="path1" d="M16.667 195.000 L 16.667 373.333 200.000 373.333 L 383.333 373.333 383.333 195.000 L 383.333 16.667 200.000 16.667 L 16.667 16.667 16.667 195.000 M157.744 89.542 C 158.204 89.944,158.147 89.771,160.914 99.167 C 161.711 101.871,162.762 105.433,163.251 107.083 C 163.740 108.733,164.639 111.771,165.249 113.833 C 165.859 115.896,166.760 118.933,167.250 120.583 C 167.740 122.233,168.827 125.908,169.665 128.750 C 170.504 131.592,171.479 134.892,171.833 136.083 C 172.188 137.275,173.163 140.575,174.000 143.417 C 174.837 146.258,175.814 149.558,176.171 150.750 C 176.528 151.942,177.115 153.929,177.476 155.167 C 177.837 156.404,178.932 160.117,179.910 163.417 C 182.745 172.985,184.158 177.762,187.070 187.625 C 188.882 193.761,190.318 198.615,191.250 201.750 C 191.740 203.400,192.827 207.075,193.665 209.917 C 194.504 212.758,195.479 216.058,195.833 217.250 C 196.188 218.442,197.163 221.742,198.000 224.583 C 198.837 227.425,199.814 230.725,200.171 231.917 C 200.528 233.108,201.115 235.096,201.476 236.333 C 201.837 237.571,202.932 241.283,203.909 244.583 C 204.887 247.883,206.252 252.496,206.942 254.833 C 207.632 257.171,208.522 260.171,208.918 261.500 C 211.853 271.343,211.908 271.600,211.190 272.181 C 210.621 272.642,182.172 272.683,181.283 272.224 C 180.338 271.736,180.551 272.307,178.435 264.583 C 177.657 261.742,176.411 257.204,175.666 254.500 C 174.921 251.796,174.096 248.796,173.833 247.833 C 173.570 246.871,172.745 243.871,172.000 241.167 C 171.255 238.463,170.429 235.463,170.166 234.500 C 168.035 226.703,166.473 221.092,166.401 220.974 C 166.353 220.897,154.331 220.833,139.685 220.833 L 113.057 220.833 112.256 223.875 C 111.473 226.849,110.066 232.159,108.603 237.667 C 104.851 251.791,101.427 264.722,100.572 268.000 C 100.153 269.604,99.703 271.165,99.570 271.468 C 99.106 272.532,99.561 272.500,85.081 272.500 L 71.985 272.500 71.576 272.091 C 71.280 271.795,71.167 271.500,71.167 271.024 C 71.167 270.649,81.470 234.302,95.065 186.720 C 108.209 140.715,119.081 102.476,119.226 101.745 C 119.688 99.411,120.025 95.803,120.213 91.188 C 120.258 90.084,120.310 89.920,120.724 89.563 L 121.185 89.167 139.250 89.167 L 157.315 89.167 157.744 89.542 M139.427 115.708 C 139.392 115.823,139.015 117.679,138.589 119.833 C 137.877 123.433,136.815 128.324,135.984 131.833 C 134.842 136.654,134.113 139.643,132.651 145.500 C 130.586 153.769,129.973 156.146,126.911 167.750 C 126.427 169.583,125.765 172.096,125.439 173.333 C 125.113 174.571,123.757 179.667,122.424 184.657 C 121.091 189.648,120.000 193.754,120.000 193.782 C 120.000 193.810,128.962 193.833,139.917 193.833 C 150.871 193.833,159.833 193.806,159.833 193.772 C 159.833 193.711,158.513 188.619,157.732 185.667 C 157.267 183.910,152.669 166.639,152.142 164.667 C 151.475 162.174,149.846 156.037,149.333 154.083 C 149.044 152.983,148.629 151.408,148.412 150.583 C 144.967 137.532,141.698 124.406,140.306 118.042 C 139.794 115.699,139.592 115.162,139.427 115.708 M280.833 135.001 C 304.835 137.383,320.293 154.546,323.613 182.500 C 324.476 189.771,323.638 205.634,322.234 208.593 C 321.351 210.455,316.760 210.684,278.375 210.787 L 249.167 210.864 249.168 211.474 C 249.210 226.832,255.415 238.851,266.167 244.398 C 277.342 250.164,296.174 249.938,311.472 243.855 C 314.953 242.471,314.695 241.530,314.633 255.388 C 314.574 268.523,314.720 267.806,311.827 269.188 C 305.103 272.399,296.558 274.231,285.500 274.832 C 246.287 276.963,223.260 256.382,219.302 215.667 C 219.006 212.622,219.005 199.686,219.301 196.833 C 223.570 155.644,247.414 131.684,280.833 135.001 M271.833 159.117 C 261.178 159.955,253.535 168.054,250.506 181.713 C 250.086 183.610,249.500 187.064,249.500 187.646 C 249.500 187.845,294.214 187.928,294.951 187.730 C 296.011 187.446,295.760 181.060,294.496 176.194 C 291.471 164.544,283.093 158.231,271.833 159.117 " stroke="none" fill="#100027" fill-rule="evenodd"></path></g></svg>