<svg id="svg" version="1.1" xmlns="http://www.w3.org/2000/svg" xmlns:xlink="http://www.w3.org/1999/xlink" width="400" height="390.0571428571429" viewBox="0, 0, 400,390.0571428571429"><g id="svgg"><path id="path1" d="M16.667 195.000 L 16.667 373.333 200.000 373.333 L 383.333 373.333 383.333 195.000 L 383.333 16.667 200.000 16.667 L 16.667 16.667 16.667 195.000 M281.030 84.424 C 290.130 86.069,295.518 94.250,294.089 104.250 C 292.844 112.960,286.451 118.167,277.000 118.167 C 267.380 118.167,261.270 112.658,260.316 103.125 C 259.080 90.784,268.612 82.178,281.030 84.424 M183.572 89.154 C 183.732 89.331,184.235 90.737,184.690 92.279 C 185.146 93.822,186.006 96.733,186.602 98.750 C 187.199 100.767,188.315 104.554,189.084 107.167 C 189.852 109.779,191.092 113.979,191.838 116.500 C 192.585 119.021,193.558 122.321,194.002 123.833 C 194.446 125.346,195.420 128.646,196.166 131.167 C 196.911 133.688,198.073 137.625,198.747 139.917 C 199.421 142.208,200.459 145.733,201.055 147.750 C 204.211 158.439,206.530 166.299,209.806 177.417 C 211.184 182.092,212.921 187.979,213.667 190.500 C 215.751 197.544,217.428 203.228,218.584 207.167 C 219.162 209.137,220.123 212.400,220.719 214.417 C 223.772 224.745,224.943 228.713,225.834 231.750 C 226.372 233.583,227.421 237.146,228.167 239.667 C 228.912 242.188,230.086 246.162,230.776 248.500 C 231.466 250.838,232.507 254.362,233.089 256.333 C 237.883 272.566,237.602 271.413,236.924 272.091 L 236.515 272.500 222.002 272.500 C 206.780 272.500,206.789 272.500,206.197 271.787 C 206.076 271.641,205.540 269.923,205.006 267.969 C 203.915 263.980,200.800 252.599,196.916 238.417 C 195.486 233.192,193.818 227.098,193.212 224.874 L 192.108 220.832 165.431 220.874 L 138.754 220.917 138.042 223.583 C 137.651 225.050,137.003 227.487,136.604 229.000 C 136.204 230.512,135.529 233.063,135.105 234.667 C 134.680 236.271,133.434 240.996,132.336 245.167 C 131.238 249.338,130.196 253.275,130.020 253.917 C 129.845 254.558,128.789 258.571,127.673 262.833 C 126.558 267.096,125.529 270.910,125.386 271.309 C 124.937 272.560,125.676 272.500,110.831 272.500 L 97.652 272.500 97.221 272.069 C 96.556 271.405,96.581 271.300,101.810 253.000 C 104.469 243.696,110.667 221.983,115.584 204.750 C 120.501 187.517,128.988 157.779,134.444 138.667 C 146.138 97.704,145.451 100.446,145.744 93.583 C 145.890 90.185,145.980 89.520,146.347 89.153 C 146.849 88.651,183.117 88.652,183.572 89.154 M165.086 115.875 C 165.038 116.081,164.705 117.750,164.345 119.583 C 163.670 123.025,161.942 130.926,160.939 135.167 C 159.498 141.251,158.995 143.301,156.911 151.583 C 154.598 160.778,154.425 161.451,152.105 170.333 C 150.264 177.380,149.976 178.470,147.818 186.577 C 146.818 190.332,146.000 193.501,146.000 193.619 C 146.000 193.793,149.721 193.833,165.583 193.833 C 178.340 193.833,185.167 193.776,185.167 193.669 C 185.167 193.507,183.682 187.685,182.360 182.667 C 181.986 181.246,181.376 178.921,181.005 177.500 C 180.125 174.129,178.728 168.792,177.581 164.417 C 177.076 162.492,176.216 159.192,175.670 157.083 C 175.123 154.975,174.335 151.938,173.918 150.333 C 170.617 137.632,165.500 116.512,165.500 115.590 C 165.500 115.322,165.160 115.556,165.086 115.875 M291.490 137.458 C 291.688 137.619,291.919 138.050,292.004 138.417 C 292.228 139.384,292.217 270.562,291.993 271.370 C 291.658 272.574,292.622 272.500,277.363 272.500 C 262.335 272.500,262.828 272.532,262.315 271.534 C 262.071 271.059,261.851 140.889,262.091 138.853 C 262.164 138.228,262.316 137.835,262.591 137.561 L 262.985 137.167 277.057 137.167 C 290.211 137.167,291.153 137.186,291.490 137.458 " stroke="none" fill="#1c0a00" fill-rule="evenodd"></path><path id="path0" d="M0.000 195.000 L 0.000 390.000 200.000 390.000 L 400.000 390.000 400.000 195.000 L 400.000 0.000 200.000 0.000 L 0.000 0.000 0.000 195.000 M383.333 195.000 L 383.333 373.333 200.000 373.333 L 16.667 373.333 16.667 195.000 L 16.667 16.667 200.000 16.667 L 383.333 16.667 383.333 195.000 M275.417 84.196 C 265.690 84.889,259.292 92.908,260.316 103.125 C 261.270 112.658,267.380 118.167,277.000 118.167 C 287.568 118.167,294.314 111.548,294.329 101.167 C 294.345 90.336,286.614 83.399,275.417 84.196 M146.347 89.153 C 145.980 89.520,145.890 90.185,145.744 93.583 C 145.451 100.446,146.138 97.704,134.444 138.667 C 128.988 157.779,120.501 187.517,115.584 204.750 C 110.667 221.983,104.469 243.696,101.810 253.000 C 96.581 271.300,96.556 271.405,97.221 272.069 L 97.652 272.500 110.831 272.500 C 125.676 272.500,124.937 272.560,125.386 271.309 C 125.529 270.910,126.558 267.096,127.673 262.833 C 128.789 258.571,129.845 254.558,130.020 253.917 C 130.196 253.275,131.238 249.338,132.336 245.167 C 133.434 240.996,134.680 236.271,135.105 234.667 C 135.529 233.063,136.204 230.512,136.604 229.000 C 137.003 227.487,137.651 225.050,138.042 223.583 L 138.754 220.917 165.431 220.874 L 192.108 220.832 193.212 224.874 C 193.818 227.098,195.486 233.192,196.916 238.417 C 200.800 252.599,203.915 263.980,205.006 267.969 C 205.540 269.923,206.076 271.641,206.197 271.787 C 206.789 272.500,206.780 272.500,222.002 272.500 L 236.515 272.500 236.924 272.091 C 237.602 271.413,237.883 272.566,233.089 256.333 C 232.507 254.362,231.466 250.838,230.776 248.500 C 230.086 246.162,228.912 242.188,228.167 239.667 C 227.421 237.146,226.372 233.583,225.834 231.750 C 224.943 228.713,223.772 224.745,220.719 214.417 C 220.123 212.400,219.162 209.137,218.584 207.167 C 217.428 203.228,215.751 197.544,213.667 190.500 C 212.921 187.979,211.184 182.092,209.806 177.417 C 206.530 166.299,204.211 158.439,201.055 147.750 C 200.459 145.733,199.421 142.208,198.747 139.917 C 198.073 137.625,196.911 133.688,196.166 131.167 C 195.420 128.646,194.446 125.346,194.002 123.833 C 193.558 122.321,192.585 119.021,191.838 116.500 C 191.092 113.979,189.852 109.779,189.084 107.167 C 188.315 104.554,187.199 100.767,186.602 98.750 C 186.006 96.733,185.146 93.822,184.690 92.279 C 184.235 90.737,183.732 89.331,183.572 89.154 C 183.117 88.652,146.849 88.651,146.347 89.153 M165.500 115.590 C 165.500 116.512,170.617 137.632,173.918 150.333 C 174.335 151.938,175.123 154.975,175.670 157.083 C 176.216 159.192,177.076 162.492,177.581 164.417 C 178.728 168.792,180.125 174.129,181.005 177.500 C 181.376 178.921,181.986 181.246,182.360 182.667 C 183.682 187.685,185.167 193.507,185.167 193.669 C 185.167 193.776,178.340 193.833,165.583 193.833 C 149.721 193.833,146.000 193.793,146.000 193.619 C 146.000 193.501,146.818 190.332,147.818 186.577 C 150.156 177.797,151.716 171.860,154.104 162.667 C 157.272 150.470,160.675 136.518,162.601 127.833 C 163.200 125.129,163.985 121.417,164.345 119.583 C 165.168 115.390,165.141 115.500,165.337 115.500 C 165.426 115.500,165.500 115.541,165.500 115.590 M262.591 137.561 C 262.316 137.835,262.164 138.228,262.091 138.853 C 261.851 140.889,262.071 271.059,262.315 271.534 C 262.828 272.532,262.335 272.500,277.363 272.500 C 292.622 272.500,291.658 272.574,291.993 271.370 C 292.217 270.562,292.228 139.384,292.004 138.417 C 291.692 137.068,292.867 137.167,277.057 137.167 L 262.985 137.167 262.591 137.561 " stroke="none" fill="#ff7f18" fill-rule="evenodd"></path><path id="path1" d="M16.667 195.000 L 16.667 373.333 200.000 373.333 L 383.333 373.333 383.333 195.000 L 383.333 16.667 200.000 16.667 L 16.667 16.667 16.667 195.000 M281.030 84.424 C 290.130 86.069,295.518 94.250,294.089 104.250 C 292.844 112.960,286.451 118.167,277.000 118.167 C 267.380 118.167,261.270 112.658,260.316 103.125 C 259.080 90.784,268.612 82.178,281.030 84.424 M183.572 89.154 C 183.732 89.331,184.235 90.737,184.690 92.279 C 185.146 93.822,186.006 96.733,186.602 98.750 C 187.199 100.767,188.315 104.554,189.084 107.167 C 189.852 109.779,191.092 113.979,191.838 116.500 C 192.585 119.021,193.558 122.321,194.002 123.833 C 194.446 125.346,195.420 128.646,196.166 131.167 C 196.911 133.688,198.073 137.625,198.747 139.917 C 199.421 142.208,200.459 145.733,201.055 147.750 C 204.211 158.439,206.530 166.299,209.806 177.417 C 211.184 182.092,212.921 187.979,213.667 190.500 C 215.751 197.544,217.428 203.228,218.584 207.167 C 219.162 209.137,220.123 212.400,220.719 214.417 C 223.772 224.745,224.943 228.713,225.834 231.750 C 226.372 233.583,227.421 237.146,228.167 239.667 C 228.912 242.188,230.086 246.162,230.776 248.500 C 231.466 250.838,232.507 254.362,233.089 256.333 C 237.883 272.566,237.602 271.413,236.924 272.091 L 236.515 272.500 222.002 272.500 C 206.780 272.500,206.789 272.500,206.197 271.787 C 206.076 271.641,205.540 269.923,205.006 267.969 C 203.915 263.980,200.800 252.599,196.916 238.417 C 195.486 233.192,193.818 227.098,193.212 224.874 L 192.108 220.832 165.431 220.874 L 138.754 220.917 138.042 223.583 C 137.651 225.050,137.003 227.487,136.604 229.000 C 136.204 230.512,135.529 233.063,135.105 234.667 C 134.680 236.271,133.434 240.996,132.336 245.167 C 131.238 249.338,130.196 253.275,130.020 253.917 C 129.845 254.558,128.789 258.571,127.673 262.833 C 126.558 267.096,125.529 270.910,125.386 271.309 C 124.937 272.560,125.676 272.500,110.831 272.500 L 97.652 272.500 97.221 272.069 C 96.556 271.405,96.581 271.300,101.810 253.000 C 104.469 243.696,110.667 221.983,115.584 204.750 C 120.501 187.517,128.988 157.779,134.444 138.667 C 146.138 97.704,145.451 100.446,145.744 93.583 C 145.890 90.185,145.980 89.520,146.347 89.153 C 146.849 88.651,183.117 88.652,183.572 89.154 M165.086 115.875 C 165.038 116.081,164.705 117.750,164.345 119.583 C 163.670 123.025,161.942 130.926,160.939 135.167 C 159.498 141.251,158.995 143.301,156.911 151.583 C 154.598 160.778,154.425 161.451,152.105 170.333 C 150.264 177.380,149.976 178.470,147.818 186.577 C 146.818 190.332,146.000 193.501,146.000 193.619 C 146.000 193.793,149.721 193.833,165.583 193.833 C 178.340 193.833,185.167 193.776,185.167 193.669 C 185.167 193.507,183.682 187.685,182.360 182.667 C 181.986 181.246,181.376 178.921,181.005 177.500 C 180.125 174.129,178.728 168.792,177.581 164.417 C 177.076 162.492,176.216 159.192,175.670 157.083 C 175.123 154.975,174.335 151.938,173.918 150.333 C 170.617 137.632,165.500 116.512,165.500 115.590 C 165.500 115.322,165.160 115.556,165.086 115.875 M291.490 137.458 C 291.688 137.619,291.919 138.050,292.004 138.417 C 292.228 139.384,292.217 270.562,291.993 271.370 C 291.658 272.574,292.622 272.500,277.363 272.500 C 262.335 272.500,262.828 272.532,262.315 271.534 C 262.071 271.059,261.851 140.889,262.091 138.853 C 262.164 138.228,262.316 137.835,262.591 137.561 L 262.985 137.167 277.057 137.167 C 290.211 137.167,291.153 137.186,291.490 137.458 " stroke="none" fill="#1c0a00" fill-rule="evenodd"></path></g></svg>