<svg id="svg" version="1.1" xmlns="http://www.w3.org/2000/svg" xmlns:xlink="http://www.w3.org/1999/xlink" width="400" height="225" viewBox="0, 0, 400,225"><g id="svgg"><path id="path0" d="M94.552 13.495 C 94.372 13.608,94.144 13.651,94.046 13.590 C 93.947 13.529,93.866 13.587,93.866 13.718 C 93.866 13.849,93.708 13.956,93.514 13.956 C 92.871 13.956,90.757 16.341,90.475 17.384 C 89.909 19.479,90.563 22.892,91.679 23.661 C 91.789 23.736,91.847 23.838,91.807 23.886 C 91.719 23.993,93.867 27.755,94.107 27.914 C 94.203 27.978,94.352 28.315,94.440 28.664 C 94.528 29.013,94.732 29.350,94.894 29.412 C 95.056 29.475,95.254 29.821,95.333 30.182 C 95.413 30.543,95.564 30.838,95.670 30.838 C 95.776 30.838,95.991 31.193,96.148 31.626 C 96.304 32.060,96.488 32.415,96.556 32.415 C 96.624 32.415,96.984 32.997,97.355 33.707 C 97.727 34.418,98.157 35.134,98.311 35.298 C 98.466 35.462,98.654 35.843,98.730 36.144 C 98.805 36.445,98.957 36.691,99.068 36.691 C 99.178 36.691,99.268 36.846,99.268 37.036 C 99.268 37.225,99.411 37.435,99.586 37.502 C 99.760 37.569,99.969 37.887,100.050 38.209 C 100.131 38.531,100.393 39.044,100.633 39.349 C 100.873 39.654,101.069 40.041,101.069 40.210 C 101.069 40.379,101.150 40.518,101.249 40.518 C 101.348 40.518,101.557 40.872,101.714 41.306 C 101.871 41.739,102.083 42.093,102.185 42.093 C 102.287 42.093,102.435 42.347,102.512 42.656 C 102.590 42.966,102.759 43.219,102.888 43.219 C 103.016 43.219,103.059 43.320,102.983 43.444 C 102.906 43.568,102.951 43.669,103.082 43.669 C 103.213 43.669,103.320 43.814,103.320 43.991 C 103.320 44.168,103.447 44.446,103.602 44.610 C 103.756 44.773,104.035 45.211,104.220 45.582 C 104.406 45.954,104.610 46.308,104.675 46.370 C 104.740 46.432,104.916 46.736,105.068 47.046 C 105.219 47.355,105.439 47.760,105.557 47.946 C 105.675 48.132,106.204 49.043,106.733 49.972 C 107.262 50.900,107.749 51.711,107.815 51.773 C 107.881 51.835,108.235 52.468,108.602 53.180 C 108.969 53.891,109.329 54.474,109.401 54.474 C 109.473 54.474,109.661 54.828,109.817 55.262 C 109.974 55.695,110.189 56.050,110.295 56.050 C 110.401 56.050,110.554 56.353,110.636 56.725 C 110.717 57.096,110.865 57.400,110.964 57.400 C 111.063 57.400,111.279 57.729,111.443 58.132 C 111.608 58.534,111.848 58.986,111.977 59.137 C 112.536 59.789,112.691 60.002,112.761 60.214 C 112.936 60.745,113.349 61.585,113.560 61.838 C 113.685 61.988,113.919 62.268,114.080 62.460 C 114.241 62.651,114.311 62.908,114.236 63.030 C 114.160 63.153,114.206 63.253,114.337 63.253 C 114.468 63.253,114.575 63.408,114.575 63.597 C 114.575 63.787,114.718 63.997,114.892 64.064 C 115.067 64.131,115.276 64.449,115.357 64.771 C 115.437 65.092,115.700 65.605,115.940 65.910 C 116.180 66.215,116.376 66.603,116.376 66.772 C 116.376 66.941,116.452 67.079,116.546 67.079 C 116.640 67.079,116.859 67.409,117.035 67.811 C 117.210 68.213,117.412 68.593,117.483 68.655 C 117.683 68.827,118.362 70.044,118.644 70.737 C 118.783 71.078,118.987 71.356,119.099 71.356 C 119.619 71.356,119.196 71.789,118.120 72.357 C 117.470 72.700,116.432 73.276,115.813 73.638 C 115.194 73.999,114.510 74.354,114.294 74.427 C 114.077 74.500,113.900 74.650,113.900 74.759 C 113.900 74.868,113.760 74.958,113.590 74.958 C 113.419 74.958,113.154 75.109,113.001 75.293 C 112.849 75.477,112.634 75.573,112.524 75.505 C 112.414 75.437,112.324 75.489,112.324 75.620 C 112.324 75.751,112.177 75.858,111.998 75.858 C 111.818 75.858,111.590 75.991,111.491 76.153 C 111.392 76.315,110.982 76.580,110.580 76.743 C 110.177 76.905,109.848 77.127,109.848 77.236 C 109.848 77.345,109.701 77.434,109.522 77.434 C 109.342 77.434,109.114 77.561,109.015 77.716 C 108.916 77.871,108.531 78.149,108.160 78.334 C 107.788 78.520,107.434 78.722,107.372 78.785 C 107.310 78.847,106.804 79.202,106.246 79.573 C 105.689 79.944,105.200 80.324,105.159 80.416 C 105.117 80.509,104.965 80.588,104.821 80.591 C 104.676 80.595,103.986 81.025,103.287 81.548 C 102.588 82.071,101.788 82.651,101.511 82.836 C 101.234 83.022,100.727 83.402,100.386 83.680 C 100.045 83.959,99.663 84.187,99.536 84.187 C 99.410 84.187,99.272 84.272,99.231 84.375 C 99.190 84.479,98.729 84.871,98.207 85.246 C 97.685 85.621,97.310 85.980,97.373 86.043 C 97.437 86.107,97.234 86.223,96.922 86.301 C 96.610 86.379,96.247 86.645,96.116 86.891 C 95.984 87.137,95.764 87.338,95.627 87.338 C 95.490 87.338,95.088 87.642,94.733 88.014 C 94.378 88.385,94.011 88.689,93.918 88.689 C 93.734 88.689,92.224 89.946,91.012 91.109 C 90.593 91.511,90.162 91.840,90.055 91.840 C 89.948 91.840,89.561 92.181,89.195 92.598 C 88.829 93.016,88.360 93.452,88.153 93.567 C 86.865 94.288,76.295 104.861,73.904 107.820 C 73.555 108.252,72.991 108.844,72.651 109.134 C 72.310 109.425,72.032 109.781,72.032 109.926 C 72.032 110.070,71.677 110.484,71.244 110.845 C 70.810 111.206,70.456 111.614,70.456 111.751 C 70.456 111.887,70.279 112.154,70.062 112.343 C 69.845 112.532,69.465 112.968,69.218 113.311 C 68.970 113.654,68.537 114.205,68.255 114.536 C 67.973 114.867,67.669 115.239,67.579 115.363 C 67.490 115.487,67.163 115.903,66.854 116.288 C 66.545 116.673,66.140 117.214,65.954 117.490 C 65.768 117.766,65.385 118.261,65.103 118.591 C 64.335 119.488,64.239 119.621,63.926 120.217 C 63.767 120.518,63.500 120.846,63.332 120.945 C 63.165 121.044,63.028 121.272,63.028 121.452 C 63.028 121.631,62.924 121.778,62.798 121.778 C 62.671 121.778,62.445 122.057,62.296 122.397 C 62.146 122.738,61.895 123.097,61.738 123.196 C 61.581 123.295,61.452 123.523,61.452 123.703 C 61.452 123.882,61.348 124.029,61.221 124.029 C 61.094 124.029,60.894 124.282,60.777 124.592 C 60.659 124.902,60.459 125.155,60.332 125.155 C 60.205 125.155,60.101 125.258,60.101 125.385 C 60.101 125.634,59.040 127.333,58.582 127.816 C 58.427 127.979,58.301 128.253,58.301 128.424 C 58.301 128.594,58.172 128.815,58.014 128.914 C 57.857 129.013,57.603 129.347,57.449 129.657 C 57.296 129.966,56.969 130.523,56.722 130.895 C 56.475 131.266,56.121 131.899,55.933 132.302 C 55.746 132.704,55.501 133.033,55.389 133.033 C 55.277 133.033,55.118 133.337,55.037 133.708 C 54.955 134.080,54.793 134.384,54.675 134.384 C 54.459 134.384,53.921 135.483,53.987 135.791 C 54.007 135.884,53.944 135.959,53.847 135.959 C 53.750 135.959,53.370 136.542,53.003 137.254 C 52.636 137.966,52.259 138.582,52.167 138.623 C 52.074 138.664,51.998 138.801,51.998 138.926 C 51.998 139.051,51.808 139.423,51.577 139.751 C 51.346 140.080,51.079 140.597,50.985 140.901 C 50.890 141.205,50.674 141.592,50.505 141.761 C 50.336 141.931,50.197 142.214,50.197 142.391 C 50.197 142.568,50.112 142.712,50.007 142.712 C 49.903 142.712,49.697 143.118,49.548 143.613 C 49.400 144.108,49.181 144.513,49.062 144.513 C 48.944 144.513,48.846 144.630,48.846 144.773 C 48.846 145.095,47.720 147.511,47.498 147.665 C 47.409 147.727,47.209 148.167,47.054 148.643 C 46.898 149.119,46.631 149.778,46.460 150.106 C 46.288 150.435,46.147 150.830,46.147 150.985 C 46.146 151.140,46.044 151.266,45.919 151.266 C 45.795 151.266,45.571 151.722,45.422 152.279 C 45.273 152.836,45.071 153.292,44.973 153.292 C 44.875 153.292,44.795 153.387,44.795 153.503 C 44.795 153.618,44.676 153.998,44.532 154.347 C 44.388 154.695,44.253 155.031,44.232 155.093 C 44.211 155.155,44.076 155.491,43.932 155.839 C 43.787 156.188,43.669 156.618,43.669 156.796 C 43.669 156.973,43.578 157.119,43.466 157.119 C 43.355 157.119,43.142 157.625,42.994 158.244 C 42.845 158.863,42.642 159.370,42.541 159.370 C 42.440 159.370,42.290 159.775,42.206 160.270 C 42.122 160.765,41.972 161.171,41.871 161.171 C 41.770 161.171,41.562 161.702,41.408 162.352 C 41.254 163.002,41.065 163.585,40.988 163.647 C 40.796 163.801,39.617 167.378,39.617 167.805 C 39.617 167.994,39.522 168.149,39.406 168.149 C 39.290 168.149,39.126 168.606,39.042 169.164 C 38.959 169.723,38.807 170.232,38.705 170.295 C 38.603 170.357,38.559 170.612,38.606 170.860 C 38.654 171.109,38.609 171.260,38.505 171.196 C 38.402 171.132,38.249 171.532,38.166 172.085 C 38.083 172.638,37.929 173.144,37.824 173.209 C 37.718 173.274,37.505 174.036,37.351 174.902 C 37.196 175.768,36.996 176.477,36.906 176.477 C 36.816 176.477,36.673 177.034,36.588 177.715 C 36.503 178.396,36.356 178.953,36.261 178.953 C 36.166 178.953,35.954 179.814,35.791 180.867 C 35.627 181.919,35.420 182.780,35.330 182.780 C 35.241 182.780,35.095 183.362,35.007 184.074 C 34.919 184.786,34.766 185.470,34.667 185.594 C 34.568 185.718,34.356 186.781,34.194 187.957 C 34.033 189.133,33.833 190.146,33.751 190.208 C 33.669 190.270,33.485 191.131,33.343 192.122 C 33.202 193.112,33.037 194.226,32.978 194.598 C 32.918 194.969,32.753 196.286,32.611 197.524 C 32.469 198.762,32.280 199.826,32.191 199.887 C 32.102 199.949,31.962 200.912,31.880 202.026 C 31.798 203.140,31.669 204.736,31.593 205.571 L 31.456 207.091 203.798 207.091 L 376.140 207.091 376.140 206.190 C 376.140 205.695,376.059 205.290,375.961 205.290 C 375.864 205.290,375.653 203.645,375.495 201.635 C 375.336 199.625,375.126 197.928,375.029 197.865 C 374.931 197.801,374.778 196.888,374.688 195.836 C 374.598 194.783,374.447 193.821,374.353 193.697 C 374.259 193.573,374.053 192.409,373.895 191.109 C 373.738 189.809,373.535 188.644,373.446 188.520 C 373.356 188.396,373.156 187.408,373.000 186.324 C 372.844 185.240,372.635 184.303,372.537 184.242 C 372.438 184.181,372.287 183.523,372.200 182.780 C 372.114 182.037,371.965 181.429,371.868 181.429 C 371.772 181.429,371.567 180.619,371.412 179.629 C 371.258 178.638,371.056 177.828,370.964 177.828 C 370.871 177.828,370.729 177.325,370.647 176.712 C 370.566 176.098,370.418 175.545,370.319 175.484 C 370.219 175.422,370.003 174.659,369.839 173.786 C 369.674 172.914,369.466 172.200,369.376 172.200 C 369.286 172.200,369.144 171.745,369.061 171.187 C 368.977 170.630,368.834 170.174,368.743 170.174 C 368.651 170.174,368.448 169.555,368.292 168.798 C 368.136 168.041,367.920 167.256,367.813 167.054 C 367.706 166.851,367.332 165.824,366.983 164.772 C 366.634 163.720,366.286 162.808,366.211 162.746 C 366.136 162.684,365.939 162.102,365.775 161.452 C 365.610 160.802,365.404 160.270,365.317 160.270 C 365.231 160.270,365.093 159.916,365.012 159.482 C 364.931 159.049,364.784 158.694,364.685 158.694 C 364.587 158.694,364.373 158.137,364.209 157.456 C 364.046 156.775,363.832 156.218,363.733 156.218 C 363.635 156.218,363.488 155.864,363.407 155.431 C 363.325 154.997,363.180 154.643,363.083 154.643 C 362.987 154.643,362.838 154.366,362.753 154.027 C 362.668 153.689,362.353 152.875,362.053 152.220 C 361.754 151.564,361.508 150.929,361.508 150.809 C 361.508 150.689,361.418 150.591,361.308 150.591 C 361.198 150.591,361.042 150.236,360.960 149.803 C 360.879 149.370,360.732 149.015,360.633 149.015 C 360.535 149.015,360.333 148.610,360.184 148.115 C 360.036 147.620,359.825 147.214,359.716 147.214 C 359.607 147.214,359.451 146.911,359.370 146.539 C 359.288 146.168,359.144 145.864,359.050 145.864 C 358.955 145.864,358.757 145.459,358.608 144.963 C 358.460 144.468,358.250 144.063,358.141 144.063 C 358.032 144.063,357.876 143.759,357.794 143.388 C 357.712 143.016,357.569 142.712,357.475 142.712 C 357.380 142.712,357.170 142.307,357.006 141.812 C 356.843 141.317,356.644 140.912,356.565 140.912 C 356.486 140.912,356.293 140.557,356.136 140.124 C 355.980 139.690,355.765 139.336,355.659 139.336 C 355.553 139.336,355.400 139.032,355.318 138.661 C 355.236 138.289,355.087 137.985,354.987 137.985 C 354.886 137.985,354.745 137.751,354.673 137.464 C 354.601 137.177,354.337 136.706,354.086 136.417 C 353.835 136.127,353.630 135.754,353.630 135.587 C 353.630 135.421,353.553 135.284,353.460 135.284 C 353.366 135.284,353.146 134.955,352.971 134.553 C 352.796 134.150,352.594 133.770,352.522 133.708 C 352.373 133.580,351.892 132.760,351.433 131.851 C 351.261 131.511,351.047 131.232,350.957 131.232 C 350.867 131.232,350.666 130.878,350.509 130.445 C 350.352 130.011,350.129 129.657,350.014 129.657 C 349.898 129.657,349.803 129.502,349.803 129.312 C 349.803 129.122,349.660 128.913,349.486 128.846 C 349.311 128.779,349.108 128.485,349.035 128.193 C 348.962 127.901,348.776 127.526,348.621 127.359 C 348.103 126.800,347.327 125.626,347.327 125.400 C 347.327 125.277,347.200 125.096,347.045 124.997 C 346.890 124.898,346.627 124.552,346.461 124.229 C 346.294 123.905,345.940 123.399,345.673 123.103 C 345.407 122.808,345.052 122.301,344.886 121.978 C 344.719 121.654,344.364 121.148,344.098 120.852 C 343.831 120.557,343.320 119.885,342.963 119.358 C 342.606 118.832,342.226 118.402,342.119 118.402 C 342.012 118.402,341.925 118.260,341.925 118.088 C 341.925 117.915,341.673 117.535,341.366 117.244 C 341.058 116.952,340.805 116.609,340.803 116.482 C 340.801 116.355,340.622 116.091,340.405 115.896 C 340.189 115.700,339.838 115.298,339.627 115.002 C 338.921 114.012,338.441 113.423,337.704 112.641 C 337.302 112.215,336.972 111.791,336.972 111.699 C 336.972 111.608,336.618 111.208,336.185 110.810 C 335.751 110.412,335.395 110.008,335.393 109.911 C 335.389 109.722,334.589 108.820,331.165 105.137 C 327.444 101.136,324.929 98.672,318.643 92.865 C 318.033 92.301,317.447 91.840,317.342 91.840 C 317.236 91.840,316.839 91.486,316.458 91.052 C 316.078 90.619,315.678 90.264,315.569 90.264 C 315.460 90.264,315.025 89.935,314.603 89.533 C 314.181 89.131,313.564 88.605,313.234 88.365 C 312.904 88.125,312.442 87.771,312.209 87.577 C 311.975 87.384,311.523 87.023,311.204 86.775 C 310.886 86.528,310.501 86.220,310.349 86.092 C 310.197 85.964,309.668 85.559,309.173 85.192 C 308.678 84.825,308.156 84.423,308.013 84.299 C 307.365 83.736,303.749 81.296,303.566 81.298 C 303.453 81.300,303.271 81.140,303.160 80.943 C 303.050 80.746,302.824 80.585,302.658 80.585 C 302.491 80.585,302.297 80.433,302.226 80.248 C 302.155 80.062,301.941 79.910,301.752 79.910 C 301.562 79.910,301.407 79.803,301.407 79.673 C 301.407 79.543,301.103 79.330,300.732 79.201 C 300.360 79.071,300.056 78.886,300.056 78.790 C 300.056 78.693,299.752 78.488,299.381 78.334 C 299.010 78.180,298.706 77.967,298.706 77.861 C 298.706 77.755,298.452 77.604,298.143 77.526 C 297.833 77.449,297.580 77.307,297.580 77.212 C 297.580 77.116,297.251 76.905,296.849 76.743 C 296.446 76.580,296.036 76.315,295.937 76.153 C 295.838 75.991,295.610 75.858,295.431 75.858 C 295.251 75.858,295.104 75.751,295.104 75.620 C 295.104 75.489,295.014 75.437,294.905 75.505 C 294.795 75.573,294.580 75.477,294.427 75.293 C 294.274 75.109,294.009 74.958,293.839 74.958 C 293.668 74.958,293.528 74.882,293.528 74.789 C 293.527 74.696,292.946 74.316,292.235 73.945 C 291.525 73.573,290.809 73.143,290.645 72.989 C 290.480 72.834,290.099 72.646,289.799 72.570 C 289.498 72.495,289.252 72.343,289.252 72.232 C 289.252 72.122,289.106 72.032,288.927 72.032 C 288.320 72.032,288.382 70.845,289.022 70.231 C 289.229 70.032,289.696 69.242,290.152 68.317 C 290.600 67.409,291.070 66.611,291.278 66.404 C 291.340 66.342,291.542 65.988,291.728 65.616 C 291.913 65.245,292.117 64.890,292.182 64.828 C 292.247 64.766,292.429 64.463,292.587 64.153 C 293.251 62.856,293.607 62.233,293.745 62.127 C 293.826 62.065,294.025 61.685,294.188 61.283 C 294.350 60.881,294.572 60.551,294.681 60.551 C 294.790 60.551,294.879 60.413,294.879 60.244 C 294.879 60.075,295.075 59.687,295.315 59.382 C 295.555 59.077,295.819 58.557,295.902 58.226 C 295.985 57.896,296.147 57.625,296.261 57.625 C 296.375 57.625,296.537 57.448,296.619 57.231 C 296.702 57.015,297.661 55.300,298.751 53.421 C 299.840 51.542,300.732 49.896,300.732 49.763 C 300.732 49.630,300.821 49.522,300.929 49.522 C 301.038 49.522,301.260 49.192,301.423 48.790 C 301.586 48.388,301.775 48.008,301.844 47.946 C 302.064 47.749,302.530 46.957,302.891 46.169 C 303.084 45.748,303.385 45.260,303.562 45.084 C 303.738 44.907,303.944 44.517,304.020 44.216 C 304.095 43.915,304.231 43.669,304.321 43.669 C 304.411 43.669,304.777 43.087,305.134 42.375 C 305.491 41.663,305.912 40.947,306.071 40.783 C 306.229 40.619,306.359 40.341,306.359 40.164 C 306.359 39.987,306.436 39.842,306.529 39.842 C 306.623 39.842,306.843 39.513,307.018 39.111 C 307.193 38.708,307.397 38.329,307.471 38.267 C 307.545 38.205,307.736 37.901,307.894 37.591 C 308.557 36.294,308.913 35.672,309.051 35.566 C 309.132 35.504,309.331 35.124,309.494 34.721 C 309.657 34.319,309.879 33.990,309.988 33.990 C 310.097 33.990,310.186 33.852,310.186 33.683 C 310.186 33.514,310.382 33.126,310.622 32.821 C 310.862 32.516,311.124 32.003,311.205 31.681 C 311.286 31.359,311.495 31.041,311.669 30.974 C 311.844 30.907,311.986 30.698,311.986 30.508 C 311.986 30.318,312.080 30.163,312.194 30.163 C 312.308 30.163,312.469 29.852,312.553 29.473 C 312.636 29.093,312.847 28.728,313.021 28.661 C 313.195 28.594,313.337 28.444,313.337 28.326 C 313.337 28.209,313.945 27.061,314.688 25.774 C 315.431 24.487,316.038 23.371,316.038 23.293 C 316.038 23.216,316.190 23.001,316.376 22.815 C 316.561 22.630,316.777 22.080,316.855 21.593 C 316.933 21.107,317.085 20.709,317.193 20.709 C 317.301 20.709,317.389 20.101,317.389 19.358 C 317.389 18.616,317.309 18.008,317.210 18.008 C 317.112 18.008,316.912 17.558,316.765 17.008 C 316.467 15.894,315.011 14.271,314.107 14.044 C 313.807 13.969,313.562 13.820,313.562 13.714 C 313.562 13.607,313.420 13.574,313.247 13.641 C 313.074 13.707,312.866 13.653,312.784 13.521 C 312.610 13.240,309.961 13.191,309.961 13.468 C 309.961 13.571,309.733 13.638,309.454 13.616 C 308.445 13.537,305.615 16.110,305.341 17.354 C 305.262 17.714,305.112 18.008,305.007 18.008 C 304.902 18.008,304.552 18.565,304.230 19.246 C 303.908 19.927,303.557 20.484,303.451 20.484 C 303.344 20.484,303.194 20.734,303.117 21.039 C 303.041 21.344,302.690 22.028,302.339 22.558 C 301.987 23.089,301.406 24.076,301.047 24.753 C 300.688 25.430,300.267 26.121,300.113 26.288 C 299.958 26.456,299.770 26.839,299.695 27.140 C 299.619 27.441,299.492 27.687,299.412 27.687 C 299.331 27.687,299.123 28.016,298.947 28.419 C 298.772 28.821,298.570 29.201,298.499 29.263 C 298.278 29.453,297.814 30.237,297.446 31.040 C 297.254 31.461,296.952 31.949,296.776 32.125 C 296.599 32.302,296.455 32.591,296.455 32.768 C 296.455 32.945,296.361 33.089,296.247 33.089 C 296.133 33.089,295.922 33.444,295.779 33.877 C 295.636 34.311,295.428 34.665,295.316 34.665 C 295.204 34.665,295.049 34.918,294.971 35.228 C 294.894 35.537,294.759 35.791,294.672 35.791 C 294.584 35.791,294.374 36.145,294.204 36.579 C 294.034 37.012,293.823 37.366,293.736 37.366 C 293.649 37.366,293.515 37.613,293.440 37.913 C 293.364 38.214,293.176 38.598,293.022 38.766 C 292.656 39.163,292.029 40.243,291.711 41.024 C 291.572 41.365,291.367 41.643,291.255 41.643 C 291.144 41.643,291.052 41.781,291.052 41.951 C 291.052 42.120,290.856 42.507,290.616 42.812 C 290.376 43.117,290.112 43.638,290.029 43.968 C 289.946 44.299,289.785 44.569,289.672 44.569 C 289.487 44.569,289.110 45.304,289.061 45.759 C 289.051 45.857,288.912 46.081,288.753 46.258 C 288.103 46.981,287.948 47.217,287.785 47.738 C 287.691 48.038,287.425 48.525,287.195 48.820 C 286.964 49.116,286.775 49.496,286.775 49.665 C 286.775 49.834,286.686 49.972,286.578 49.972 C 286.469 49.972,286.245 50.301,286.081 50.703 C 285.916 51.106,285.651 51.569,285.491 51.732 C 285.331 51.896,285.200 52.175,285.200 52.351 C 285.200 52.528,285.111 52.673,285.002 52.673 C 284.893 52.673,284.671 53.002,284.508 53.405 C 284.346 53.807,284.147 54.187,284.067 54.249 C 283.877 54.396,282.598 56.626,282.145 57.602 C 281.950 58.022,281.645 58.511,281.469 58.687 C 281.292 58.864,281.148 59.153,281.148 59.330 C 281.148 59.506,281.055 59.651,280.940 59.651 C 280.826 59.651,280.616 60.006,280.473 60.439 C 280.330 60.872,280.121 61.227,280.009 61.227 C 279.897 61.227,279.742 61.480,279.665 61.790 C 279.587 62.099,279.427 62.352,279.310 62.352 C 279.192 62.352,279.151 62.442,279.219 62.552 C 279.287 62.662,279.191 62.877,279.007 63.030 C 278.823 63.183,278.672 63.439,278.672 63.599 C 278.672 63.759,278.596 63.924,278.503 63.965 C 278.292 64.059,277.561 65.258,277.394 65.785 C 277.267 66.185,276.646 66.346,276.646 65.979 C 276.646 65.869,276.190 65.644,275.633 65.479 C 275.076 65.315,274.620 65.101,274.620 65.004 C 274.620 64.908,274.494 64.825,274.339 64.821 C 274.184 64.817,273.652 64.617,273.157 64.378 C 272.662 64.139,272.175 63.940,272.075 63.936 C 271.868 63.927,269.980 63.123,269.377 62.787 C 269.156 62.663,268.877 62.622,268.758 62.696 C 268.640 62.769,268.542 62.733,268.542 62.616 C 268.542 62.498,268.188 62.336,267.755 62.255 C 267.321 62.173,266.967 62.026,266.967 61.928 C 266.967 61.829,266.410 61.624,265.729 61.472 C 265.048 61.319,264.491 61.109,264.491 61.005 C 264.491 60.901,264.086 60.748,263.590 60.664 C 263.095 60.580,262.690 60.431,262.690 60.331 C 262.690 60.232,262.032 60.019,261.227 59.859 C 260.422 59.699,259.764 59.497,259.764 59.410 C 259.764 59.322,259.385 59.180,258.921 59.093 C 258.458 59.006,257.977 58.871,257.852 58.793 C 257.585 58.626,257.533 58.611,255.993 58.274 C 255.343 58.132,254.811 57.937,254.811 57.842 C 254.811 57.746,254.305 57.598,253.686 57.513 C 253.067 57.428,252.502 57.262,252.429 57.145 C 252.357 57.028,252.103 56.993,251.866 57.068 C 251.629 57.144,251.435 57.101,251.435 56.973 C 251.435 56.845,250.929 56.673,250.310 56.591 C 249.690 56.509,249.184 56.370,249.184 56.282 C 249.184 56.194,248.323 55.988,247.271 55.824 C 246.218 55.661,245.357 55.453,245.357 55.364 C 245.357 55.274,244.775 55.129,244.063 55.041 C 243.351 54.953,242.667 54.800,242.544 54.702 C 242.420 54.603,241.356 54.394,240.180 54.237 C 239.004 54.081,237.991 53.881,237.929 53.794 C 237.809 53.624,234.768 53.136,233.371 53.063 C 232.907 53.038,232.527 52.950,232.527 52.867 C 232.527 52.783,231.564 52.643,230.388 52.555 C 229.212 52.467,228.250 52.318,228.250 52.225 C 228.250 52.023,223.072 51.509,221.173 51.522 C 220.437 51.527,219.716 51.433,219.571 51.312 C 219.422 51.188,216.525 51.028,212.964 50.946 C 209.476 50.865,206.569 50.715,206.505 50.611 C 206.353 50.364,201.075 50.364,200.923 50.611 C 200.859 50.715,197.950 50.867,194.460 50.950 C 190.969 51.032,187.996 51.197,187.853 51.316 C 187.710 51.434,186.991 51.526,186.256 51.519 C 184.454 51.502,179.851 51.965,179.291 52.219 C 179.043 52.331,177.878 52.528,176.702 52.657 C 175.526 52.785,174.311 52.919,174.001 52.955 C 173.692 52.990,173.337 53.082,173.213 53.160 C 173.089 53.238,172.203 53.375,171.244 53.464 C 170.284 53.553,169.499 53.699,169.499 53.789 C 169.499 53.878,168.485 54.080,167.246 54.238 C 166.006 54.396,164.939 54.610,164.875 54.714 C 164.811 54.818,164.154 54.972,163.415 55.055 C 162.676 55.139,162.071 55.277,162.071 55.363 C 162.071 55.448,161.259 55.650,160.266 55.811 C 159.274 55.972,158.413 56.184,158.353 56.281 C 158.293 56.378,157.737 56.527,157.118 56.612 C 156.500 56.697,155.993 56.866,155.993 56.986 C 155.993 57.107,155.799 57.144,155.562 57.068 C 155.325 56.993,155.071 57.028,154.999 57.145 C 154.927 57.262,154.361 57.428,153.742 57.513 C 153.123 57.598,152.617 57.746,152.617 57.842 C 152.617 57.937,152.085 58.132,151.435 58.274 C 149.895 58.611,149.843 58.626,149.576 58.793 C 149.451 58.871,148.970 59.006,148.507 59.093 C 148.044 59.180,147.665 59.327,147.665 59.420 C 147.665 59.513,147.057 59.719,146.314 59.876 C 145.571 60.034,144.963 60.250,144.963 60.357 C 144.963 60.464,144.755 60.551,144.501 60.551 C 144.246 60.551,143.613 60.745,143.094 60.981 C 142.575 61.218,141.770 61.482,141.306 61.569 C 140.841 61.656,140.461 61.813,140.461 61.917 C 140.461 62.021,140.107 62.173,139.674 62.255 C 139.240 62.336,138.886 62.492,138.886 62.602 C 138.886 62.712,138.810 62.782,138.717 62.756 C 138.496 62.696,136.980 63.216,136.219 63.614 C 135.891 63.785,135.495 63.926,135.340 63.927 C 135.186 63.927,135.059 64.034,135.059 64.163 C 135.059 64.292,134.932 64.376,134.778 64.349 C 134.496 64.300,133.245 64.814,133.033 65.066 C 132.971 65.139,132.440 65.332,131.851 65.493 C 131.263 65.655,130.782 65.875,130.782 65.983 C 130.782 66.432,130.186 66.132,129.939 65.560 C 129.793 65.219,129.574 64.789,129.452 64.603 C 129.330 64.418,128.804 63.506,128.281 62.577 C 127.759 61.649,127.272 60.838,127.200 60.777 C 127.127 60.715,126.768 60.082,126.401 59.370 C 126.034 58.658,125.674 58.075,125.602 58.075 C 125.529 58.075,125.342 57.721,125.185 57.288 C 125.029 56.854,124.814 56.500,124.708 56.500 C 124.602 56.500,124.448 56.196,124.367 55.824 C 124.285 55.453,124.132 55.149,124.026 55.149 C 123.920 55.149,123.705 54.795,123.548 54.361 C 123.392 53.928,123.208 53.573,123.140 53.573 C 123.072 53.572,122.712 52.991,122.341 52.280 C 121.970 51.570,121.539 50.854,121.385 50.690 C 121.230 50.525,121.042 50.144,120.966 49.844 C 120.891 49.543,120.739 49.297,120.628 49.297 C 120.518 49.297,120.428 49.141,120.428 48.952 C 120.428 48.762,120.285 48.552,120.110 48.485 C 119.936 48.418,119.727 48.100,119.646 47.779 C 119.565 47.457,119.303 46.944,119.063 46.639 C 118.823 46.334,118.627 45.946,118.627 45.777 C 118.627 45.608,118.550 45.470,118.457 45.470 C 118.363 45.470,118.143 45.141,117.968 44.738 C 117.793 44.336,117.589 43.956,117.515 43.894 C 117.441 43.832,117.250 43.528,117.092 43.219 C 116.453 41.969,116.074 41.300,115.947 41.193 C 115.873 41.131,115.661 40.777,115.476 40.405 C 115.290 40.034,115.088 39.679,115.026 39.617 C 114.818 39.410,114.348 38.612,113.900 37.704 C 113.407 36.706,112.960 35.962,112.748 35.791 C 112.672 35.729,112.539 35.451,112.452 35.173 C 112.366 34.895,112.175 34.537,112.028 34.377 C 111.881 34.218,111.461 33.508,111.094 32.800 C 110.727 32.093,110.367 31.514,110.295 31.514 C 110.223 31.514,110.035 31.159,109.879 30.726 C 109.722 30.293,109.507 29.938,109.401 29.938 C 109.295 29.938,109.144 29.643,109.064 29.282 C 108.985 28.921,108.787 28.574,108.625 28.512 C 108.463 28.450,108.262 28.125,108.178 27.791 C 108.094 27.456,107.903 27.046,107.755 26.880 C 107.118 26.166,106.968 25.935,106.810 25.419 C 106.718 25.119,106.521 24.721,106.370 24.536 C 106.220 24.350,105.811 23.692,105.460 23.073 C 105.109 22.454,104.746 21.895,104.652 21.832 C 104.558 21.769,104.410 21.432,104.322 21.083 C 104.234 20.733,104.030 20.397,103.868 20.334 C 103.706 20.272,103.508 19.926,103.429 19.565 C 103.349 19.204,103.210 18.908,103.119 18.908 C 103.028 18.908,102.815 18.554,102.645 18.120 C 102.475 17.687,102.253 17.333,102.153 17.333 C 102.052 17.333,101.970 17.196,101.970 17.029 C 101.970 16.437,99.848 14.222,99.101 14.035 C 98.822 13.965,98.593 13.820,98.593 13.714 C 98.593 13.607,98.451 13.574,98.278 13.641 C 98.105 13.707,97.897 13.653,97.815 13.521 C 97.634 13.228,95.007 13.207,94.552 13.495 M128.274 130.280 C 128.354 130.410,128.799 130.587,129.263 130.674 C 129.727 130.761,130.107 130.909,130.107 131.003 C 130.107 131.097,130.563 131.302,131.120 131.458 C 131.677 131.613,132.133 131.832,132.133 131.944 C 132.133 132.056,132.288 132.207,132.478 132.279 C 132.910 132.445,134.035 133.384,134.864 134.271 C 135.211 134.643,135.701 135.160,135.952 135.420 C 136.204 135.681,136.410 135.995,136.410 136.118 C 136.410 136.240,136.612 136.574,136.860 136.860 C 137.107 137.145,137.310 137.515,137.310 137.682 C 137.310 137.849,137.392 137.985,137.493 137.985 C 137.593 137.985,137.809 138.517,137.972 139.167 C 138.135 139.817,138.382 140.491,138.521 140.665 C 138.860 141.089,138.860 147.175,138.521 147.394 C 138.386 147.481,138.150 148.084,137.996 148.734 C 137.841 149.384,137.632 149.916,137.531 149.916 C 137.429 149.916,137.279 150.219,137.198 150.591 C 137.116 150.962,136.953 151.266,136.835 151.266 C 136.717 151.266,136.555 151.443,136.474 151.660 C 136.307 152.109,135.532 153.023,134.384 154.127 C 133.017 155.441,132.889 155.543,132.613 155.543 C 132.465 155.543,132.288 155.689,132.219 155.867 C 132.151 156.045,131.800 156.256,131.439 156.335 C 131.078 156.414,130.782 156.562,130.782 156.664 C 130.782 156.766,130.250 156.975,129.600 157.129 C 128.950 157.283,128.346 157.521,128.258 157.658 C 128.040 157.995,121.375 158.001,121.151 157.665 C 121.063 157.532,120.484 157.286,119.865 157.119 C 119.246 156.951,118.689 156.748,118.627 156.666 C 118.565 156.584,118.008 156.225,117.389 155.868 C 116.294 155.237,114.132 153.215,113.450 152.185 C 113.264 151.904,112.935 151.466,112.718 151.211 C 112.501 150.956,112.324 150.618,112.324 150.460 C 112.324 150.302,112.191 150.039,112.028 149.875 C 111.866 149.712,111.598 148.942,111.433 148.164 C 111.269 147.387,111.048 146.697,110.941 146.632 C 110.835 146.566,110.748 145.360,110.748 143.950 C 110.748 142.541,110.835 141.335,110.941 141.269 C 111.048 141.204,111.264 140.539,111.422 139.793 C 111.581 139.046,111.787 138.436,111.880 138.436 C 111.974 138.436,112.118 138.165,112.201 137.834 C 112.284 137.504,112.523 137.009,112.732 136.735 C 112.941 136.461,113.264 136.007,113.450 135.726 C 114.228 134.549,116.908 132.133,117.435 132.133 C 117.595 132.133,117.727 132.049,117.727 131.946 C 117.727 131.722,120.273 130.557,120.761 130.557 C 120.949 130.557,121.103 130.462,121.103 130.346 C 121.103 129.875,127.985 129.812,128.274 130.280 M286.159 130.300 C 286.300 130.442,286.626 130.557,286.883 130.557 C 287.140 130.557,287.550 130.691,287.795 130.855 C 288.039 131.018,288.593 131.293,289.026 131.464 C 289.460 131.636,289.929 131.882,290.068 132.011 C 290.208 132.140,290.556 132.397,290.843 132.583 C 291.731 133.159,294.869 136.410,294.537 136.410 C 294.474 136.410,294.669 136.799,294.969 137.274 C 295.269 137.750,295.645 138.586,295.805 139.131 C 295.965 139.677,296.201 140.196,296.331 140.284 C 296.767 140.581,296.633 146.965,296.171 147.928 C 295.954 148.382,295.713 149.066,295.637 149.447 C 295.560 149.829,295.416 150.141,295.316 150.141 C 295.216 150.141,295.063 150.366,294.975 150.642 C 294.583 151.877,292.018 154.786,290.715 155.474 C 290.343 155.671,289.989 155.894,289.927 155.971 C 289.694 156.262,287.236 157.344,286.808 157.344 C 286.563 157.344,286.321 157.470,286.269 157.625 C 286.150 157.982,279.419 158.032,279.170 157.678 C 279.082 157.552,278.503 157.318,277.884 157.158 C 277.265 156.999,276.725 156.772,276.684 156.656 C 276.642 156.539,276.472 156.443,276.306 156.443 C 276.139 156.443,275.867 156.308,275.701 156.141 C 275.535 155.975,275.154 155.708,274.855 155.548 C 274.114 155.152,273.833 154.918,272.685 153.742 C 271.305 152.330,271.128 152.104,270.772 151.300 C 270.600 150.910,270.390 150.591,270.306 150.591 C 270.222 150.591,270.087 150.287,270.006 149.916 C 269.924 149.544,269.778 149.240,269.681 149.240 C 269.584 149.240,269.382 148.607,269.232 147.833 C 269.083 147.060,268.866 146.251,268.751 146.036 C 268.467 145.504,268.481 142.037,268.768 142.037 C 268.891 142.037,268.993 141.792,268.993 141.492 C 268.993 140.693,269.492 138.661,269.689 138.661 C 269.781 138.661,269.924 138.357,270.006 137.985 C 270.087 137.614,270.235 137.310,270.334 137.310 C 270.433 137.310,270.648 136.981,270.811 136.579 C 270.975 136.176,271.291 135.715,271.514 135.553 C 271.737 135.391,271.919 135.166,271.919 135.054 C 271.919 134.832,273.426 133.258,273.638 133.258 C 273.709 133.258,274.086 133.004,274.475 132.692 C 274.864 132.381,275.291 132.039,275.423 131.934 C 275.556 131.828,276.037 131.607,276.493 131.442 C 276.948 131.277,277.321 131.070,277.321 130.982 C 277.321 130.894,277.727 130.753,278.222 130.670 C 278.717 130.586,279.122 130.432,279.122 130.326 C 279.122 129.851,285.685 129.827,286.159 130.300 " stroke="none" fill="#34dc84" fill-rule="evenodd"></path><path id="path1" d="M186.663 51.478 C 186.880 51.534,187.234 51.534,187.451 51.478 C 187.667 51.421,187.490 51.375,187.057 51.375 C 186.624 51.375,186.446 51.421,186.663 51.478 M219.977 51.478 C 220.194 51.534,220.549 51.534,220.765 51.478 C 220.982 51.421,220.805 51.375,220.371 51.375 C 219.938 51.375,219.761 51.421,219.977 51.478 " stroke="none" fill="#38dc84" fill-rule="evenodd"></path></g></svg>