<?xml version="1.0" encoding="UTF-8"?>
<!DOCTYPE svg PUBLIC "-//W3C//DTD SVG 1.1//EN" "http://www.w3.org/Graphics/SVG/1.1/DTD/svg11.dtd">
<svg xmlns="http://www.w3.org/2000/svg" version="1.1" width="1100px" height="2203px" style="shape-rendering:geometricPrecision; text-rendering:geometricPrecision; image-rendering:optimizeQuality; fill-rule:evenodd; clip-rule:evenodd" xmlns:xlink="http://www.w3.org/1999/xlink">
<g><path style="opacity:0.995" fill="#f69922" d="M 961.5,-0.5 C 963.833,-0.5 966.167,-0.5 968.5,-0.5C 993.035,89.9751 1018.04,180.308 1043.5,270.5C 978.53,280.997 913.197,288.33 847.5,292.5C 873.835,252.377 901.001,213.044 929,174.5C 897.793,211.937 868.293,250.604 840.5,290.5C 818.928,251.027 797.595,211.361 776.5,171.5C 813.1,126.056 852.433,82.8897 894.5,42C 907.307,30.1879 920.974,19.5212 935.5,10C 943.769,5.19568 952.436,1.69568 961.5,-0.5 Z M 932.5,170.5 C 932.573,172.027 931.906,173.027 930.5,173.5C 930.427,171.973 931.094,170.973 932.5,170.5 Z"/></g>
<g><path style="opacity:0.999" fill="#f49323" d="M 968.5,-0.5 C 974.167,-0.5 979.833,-0.5 985.5,-0.5C 990.838,0.840071 996.172,2.50674 1001.5,4.5C 1001.2,5.14987 1000.86,5.81654 1000.5,6.5C 1024.66,92.8018 1048.66,179.135 1072.5,265.5C 1062.88,267.269 1053.22,268.936 1043.5,270.5C 1018.04,180.308 993.035,89.9751 968.5,-0.5 Z"/></g>
<g><path style="opacity:0.999" fill="#f39023" d="M 1001.5,4.5 C 1008.15,6.82051 1014.15,10.1538 1019.5,14.5C 1018.9,14.7352 1018.57,15.2352 1018.5,16C 1041.58,98.4962 1064.58,180.996 1087.5,263.5C 1082.53,264.353 1077.53,265.02 1072.5,265.5C 1048.66,179.135 1024.66,92.8018 1000.5,6.5C 1000.86,5.81654 1001.2,5.14987 1001.5,4.5 Z"/></g>
<g><path style="opacity:0.989" fill="#f18d24" d="M 1019.5,14.5 C 1055.59,39.3073 1079.43,72.9739 1091,115.5C 1094.94,131.789 1097.77,148.122 1099.5,164.5C 1099.5,182.167 1099.5,199.833 1099.5,217.5C 1097.99,232.951 1095.65,248.284 1092.5,263.5C 1091,262.506 1089.33,262.506 1087.5,263.5C 1064.58,180.996 1041.58,98.4962 1018.5,16C 1018.57,15.2352 1018.9,14.7352 1019.5,14.5 Z"/></g>
<g><path style="opacity:0.995" fill="#e97725" d="M 776.5,171.5 C 797.595,211.361 818.928,251.027 840.5,290.5C 840.167,291.5 839.5,292.167 838.5,292.5C 799.981,274.739 761.648,256.739 723.5,238.5C 740.455,215.582 758.122,193.249 776.5,171.5 Z"/></g>
<g><path style="opacity:0.996" fill="#e77226" d="M 723.5,238.5 C 761.648,256.739 799.981,274.739 838.5,292.5C 831.326,304.187 823.659,315.521 815.5,326.5C 811.461,322.965 806.794,320.131 801.5,318C 767.354,302.426 733.354,286.593 699.5,270.5C 707.147,259.527 715.147,248.86 723.5,238.5 Z"/></g>
<g><path style="opacity:0.997" fill="#e97725" d="M 1092.5,263.5 C 1083.74,312.438 1068.41,359.105 1046.5,403.5C 977.167,371.5 907.833,339.5 838.5,307.5C 841.075,302.255 844.075,297.255 847.5,292.5C 913.197,288.33 978.53,280.997 1043.5,270.5C 1053.22,268.936 1062.88,267.269 1072.5,265.5C 1077.53,265.02 1082.53,264.353 1087.5,263.5C 1089.33,262.506 1091,262.506 1092.5,263.5 Z"/></g>
<g><path style="opacity:0.996" fill="#e56d27" d="M 699.5,270.5 C 733.354,286.593 767.354,302.426 801.5,318C 806.794,320.131 811.461,322.965 815.5,326.5C 808.833,336.833 802.167,347.167 795.5,357.5C 757.84,341.172 720.507,324.006 683.5,306C 680.904,304.864 678.237,304.031 675.5,303.5C 682.769,291.96 690.769,280.96 699.5,270.5 Z"/></g>
<g><path style="opacity:0.995" fill="#e36628" d="M 675.5,303.5 C 678.237,304.031 680.904,304.864 683.5,306C 720.507,324.006 757.84,341.172 795.5,357.5C 786.82,370.87 778.153,384.203 769.5,397.5C 729.629,377.734 689.296,358.734 648.5,340.5C 657.145,327.863 666.145,315.529 675.5,303.5 Z"/></g>
<g><path style="opacity:0.998" fill="#e87426" d="M 838.5,307.5 C 907.833,339.5 977.167,371.5 1046.5,403.5C 1044.35,409.794 1041.68,415.794 1038.5,421.5C 968.735,389.452 899.068,357.118 829.5,324.5C 828.702,324.043 828.369,323.376 828.5,322.5C 831.102,316.947 834.436,311.947 838.5,307.5 Z"/></g>
<g><path style="opacity:0.997" fill="#e77127" d="M 828.5,322.5 C 828.369,323.376 828.702,324.043 829.5,324.5C 899.068,357.118 968.735,389.452 1038.5,421.5C 1035.83,427.5 1033.17,433.5 1030.5,439.5C 959.625,406.229 888.625,373.229 817.5,340.5C 820.668,334.158 824.335,328.158 828.5,322.5 Z"/></g>
<g><path style="opacity:0.996" fill="#e1602a" d="M 648.5,340.5 C 689.296,358.734 729.629,377.734 769.5,397.5C 764.333,407.174 758.666,416.508 752.5,425.5C 744.637,422.905 736.97,419.738 729.5,416C 695.954,400.392 662.621,384.558 629.5,368.5C 635.328,358.849 641.662,349.516 648.5,340.5 Z"/></g>
<g><path style="opacity:0.997" fill="#e56d27" d="M 817.5,340.5 C 888.625,373.229 959.625,406.229 1030.5,439.5C 1024.99,451.185 1018.99,462.518 1012.5,473.5C 945.068,442.619 877.735,411.452 810.5,380C 805.777,377.978 801.443,375.478 797.5,372.5C 803.68,361.461 810.347,350.794 817.5,340.5 Z"/></g>
<g><path style="opacity:0.997" fill="#df5b2a" d="M 629.5,368.5 C 662.621,384.558 695.954,400.392 729.5,416C 736.97,419.738 744.637,422.905 752.5,425.5C 746.403,436.036 740.07,446.37 733.5,456.5C 692.167,436.833 650.833,417.167 609.5,397.5C 615.439,387.274 622.106,377.607 629.5,368.5 Z"/></g>
<g><path style="opacity:0.997" fill="#e36728" d="M 797.5,372.5 C 801.443,375.478 805.777,377.978 810.5,380C 877.735,411.452 945.068,442.619 1012.5,473.5C 1006.18,487.483 998.845,500.817 990.5,513.5C 918.735,480.452 847.068,447.118 775.5,413.5C 774.702,413.043 774.369,412.376 774.5,411.5C 781.776,398.235 789.443,385.235 797.5,372.5 Z"/></g>
<g><path style="opacity:0.997" fill="#dd552c" d="M 609.5,397.5 C 650.833,417.167 692.167,436.833 733.5,456.5C 726.253,470.667 718.253,484.334 709.5,497.5C 667.86,478.014 626.193,458.514 584.5,439C 583.748,438.329 583.414,437.496 583.5,436.5C 591.932,423.291 600.598,410.291 609.5,397.5 Z"/></g>
<g><path style="opacity:0.998" fill="#e1602a" d="M 774.5,411.5 C 774.369,412.376 774.702,413.043 775.5,413.5C 847.068,447.118 918.735,480.452 990.5,513.5C 985.254,524.333 979.254,534.666 972.5,544.5C 905.196,512.185 837.53,480.352 769.5,449C 764.777,446.978 760.443,444.478 756.5,441.5C 762.515,431.464 768.515,421.464 774.5,411.5 Z"/></g>
<g><path style="opacity:0.996" fill="#db4e2d" d="M 583.5,436.5 C 583.414,437.496 583.748,438.329 584.5,439C 626.193,458.514 667.86,478.014 709.5,497.5C 702.596,511.07 695.263,524.404 687.5,537.5C 644.86,517.514 602.193,497.514 559.5,477.5C 558.702,477.043 558.369,476.376 558.5,475.5C 566.088,461.983 574.421,448.983 583.5,436.5 Z"/></g>
<g><path style="opacity:0.998" fill="#df5b2b" d="M 756.5,441.5 C 760.443,444.478 764.777,446.978 769.5,449C 837.53,480.352 905.196,512.185 972.5,544.5C 966.736,554.37 960.736,564.037 954.5,573.5C 882.648,540.072 810.981,506.406 739.5,472.5C 744.9,462.033 750.567,451.7 756.5,441.5 Z"/></g>
<g><path style="opacity:0.996" fill="#d9472e" d="M 558.5,475.5 C 558.369,476.376 558.702,477.043 559.5,477.5C 602.193,497.514 644.86,517.514 687.5,537.5C 681.151,548.868 674.818,560.202 668.5,571.5C 624.519,550.342 580.185,530.008 535.5,510.5C 542.807,498.54 550.474,486.873 558.5,475.5 Z"/></g>
<g><path style="opacity:0.998" fill="#dd552c" d="M 739.5,472.5 C 810.981,506.406 882.648,540.072 954.5,573.5C 946.24,587.023 937.24,600.023 927.5,612.5C 856.833,580.167 786.167,547.833 715.5,515.5C 723.262,500.97 731.262,486.637 739.5,472.5 Z"/></g>
<g><path style="opacity:0.996" fill="#d7412f" d="M 535.5,510.5 C 580.185,530.008 624.519,550.342 668.5,571.5C 662.513,582.806 656.513,594.14 650.5,605.5C 608.5,586.167 566.5,566.833 524.5,547.5C 522.76,544.362 520.76,541.362 518.5,538.5C 524.167,529.167 529.833,519.833 535.5,510.5 Z"/></g>
<g><path style="opacity:0.998" fill="#db4e2d" d="M 715.5,515.5 C 786.167,547.833 856.833,580.167 927.5,612.5C 917.5,625.833 905.833,637.5 892.5,647.5C 826.435,616.466 760.435,585.466 694.5,554.5C 701.249,541.333 708.249,528.333 715.5,515.5 Z"/></g>
<g><path style="opacity:0.998" fill="#d53b30" d="M 524.5,547.5 C 566.5,566.833 608.5,586.167 650.5,605.5C 642.738,620.693 634.738,635.693 626.5,650.5C 604.81,639.657 582.81,629.324 560.5,619.5C 556.928,613.359 553.595,607.026 550.5,600.5C 541.542,582.919 532.876,565.252 524.5,547.5 Z"/></g>
<g><path style="opacity:0.997" fill="#d9472e" d="M 694.5,554.5 C 760.435,585.466 826.435,616.466 892.5,647.5C 881.068,657.058 868.735,665.392 855.5,672.5C 795.5,644.833 735.5,617.167 675.5,589.5C 681.595,577.639 687.928,565.972 694.5,554.5 Z"/></g>
<g><path style="opacity:0.994" fill="#ce2734" d="M 518.5,538.5 C 520.76,541.362 522.76,544.362 524.5,547.5C 532.876,565.252 541.542,582.919 550.5,600.5C 532.372,592.853 514.539,584.52 497,575.5C 496.617,576.056 496.117,576.389 495.5,576.5C 502.667,563.493 510.334,550.826 518.5,538.5 Z"/></g>
<g><path style="opacity:0.996" fill="#ca2136" d="M 550.5,600.5 C 553.595,607.026 556.928,613.359 560.5,619.5C 573.915,646.663 587.582,673.663 601.5,700.5C 566.043,771.411 531.71,842.744 498.5,914.5C 497.85,914.804 497.183,915.137 496.5,915.5C 451.046,894.607 405.713,873.44 360.5,852C 356.332,849.911 351.998,848.411 347.5,847.5C 393.039,754.73 442.372,664.396 495.5,576.5C 496.117,576.389 496.617,576.056 497,575.5C 514.539,584.52 532.372,592.853 550.5,600.5 Z"/></g>
<g><path style="opacity:0.996" fill="#d7412f" d="M 675.5,589.5 C 735.5,617.167 795.5,644.833 855.5,672.5C 846.453,678.024 837.12,683.024 827.5,687.5C 827.167,687.5 826.833,687.5 826.5,687.5C 825.833,687.5 825.5,687.833 825.5,688.5C 817.896,689.646 810.229,690.312 802.5,690.5C 754.167,668.5 705.833,646.5 657.5,624.5C 663.755,612.99 669.755,601.323 675.5,589.5 Z"/></g>
<g><path style="opacity:0.994" fill="#d23332" d="M 560.5,619.5 C 582.81,629.324 604.81,639.657 626.5,650.5C 618.18,667.14 609.847,683.807 601.5,700.5C 587.582,673.663 573.915,646.663 560.5,619.5 Z"/></g>
<g><path style="opacity:0.998" fill="#d53b30" d="M 657.5,624.5 C 705.833,646.5 754.167,668.5 802.5,690.5C 787.132,692.237 771.799,694.237 756.5,696.5C 739.456,697.801 722.456,699.468 705.5,701.5C 682.473,689.988 659.14,678.988 635.5,668.5C 642.833,653.833 650.167,639.167 657.5,624.5 Z"/></g>
<g><path style="opacity:0.992" fill="#d23432" d="M 635.5,668.5 C 659.14,678.988 682.473,689.988 705.5,701.5C 675.222,704.92 644.888,708.254 614.5,711.5C 621.23,697.039 628.23,682.706 635.5,668.5 Z"/></g>
<g><path style="opacity:0.987" fill="#d12f32" d="M 909.5,724.5 C 884.747,713.625 860.08,702.459 835.5,691C 833.456,690.502 832.122,689.335 831.5,687.5C 856.894,682.483 881.561,674.983 905.5,665C 914.651,660.927 923.318,656.094 931.5,650.5C 931.833,651 932.167,651.5 932.5,652C 926.931,676.873 919.264,701.039 909.5,724.5 Z"/></g>
<g><path style="opacity:0.997" fill="#ce2834" d="M 826.5,687.5 C 826.833,687.5 827.167,687.5 827.5,687.5C 828.833,687.5 830.167,687.5 831.5,687.5C 832.122,689.335 833.456,690.502 835.5,691C 860.08,702.459 884.747,713.625 909.5,724.5C 904.347,737.467 898.68,750.134 892.5,762.5C 892.586,761.504 892.252,760.671 891.5,760C 846.409,738.785 801.409,717.618 756.5,696.5C 771.799,694.237 787.132,692.237 802.5,690.5C 810.229,690.312 817.896,689.646 825.5,688.5C 826.167,688.5 826.5,688.167 826.5,687.5 Z"/></g>
<g><path style="opacity:0.997" fill="#ca2136" d="M 756.5,696.5 C 801.409,717.618 846.409,738.785 891.5,760C 892.252,760.671 892.586,761.504 892.5,762.5C 865.442,827.058 819.775,873.225 755.5,901C 791.194,895.656 823.861,882.656 853.5,862C 854.332,861.312 854.998,861.479 855.5,862.5C 837.164,900.339 812.83,933.839 782.5,963C 760.296,982.945 735.296,998.612 707.5,1010C 735.793,1006.72 762.626,998.55 788,985.5C 782.26,1005.89 775.427,1025.89 767.5,1045.5C 767.719,1044.32 767.386,1043.32 766.5,1042.5C 682.971,1002.21 598.971,962.877 514.5,924.5C 546.502,852.832 579.835,781.832 614.5,711.5C 644.888,708.254 675.222,704.92 705.5,701.5C 722.456,699.468 739.456,697.801 756.5,696.5 Z"/></g>
<g><path style="opacity:0.997" fill="#c4203b" d="M 347.5,847.5 C 351.998,848.411 356.332,849.911 360.5,852C 405.713,873.44 451.046,894.607 496.5,915.5C 497.183,915.137 497.85,914.804 498.5,914.5C 486.165,942.505 473.832,970.505 461.5,998.5C 411.058,975.78 360.725,952.78 310.5,929.5C 322.279,901.94 334.612,874.607 347.5,847.5 Z"/></g>
<g><path style="opacity:0.998" fill="#c41f3b" d="M 514.5,924.5 C 598.971,962.877 682.971,1002.21 766.5,1042.5C 767.386,1043.32 767.719,1044.32 767.5,1045.5C 758.28,1072.61 747.947,1099.27 736.5,1125.5C 735.417,1125.54 734.417,1125.87 733.5,1126.5C 648.827,1086.33 563.827,1047 478.5,1008.5C 489.946,980.274 501.946,952.274 514.5,924.5 Z"/></g>
<g><path style="opacity:0.997" fill="#be2041" d="M 310.5,929.5 C 360.725,952.78 411.058,975.78 461.5,998.5C 449.344,1026.99 437.011,1055.32 424.5,1083.5C 375.621,1059.81 326.455,1036.48 277,1013.5C 276.517,1012.55 276.351,1011.55 276.5,1010.5C 286.682,982.936 298.016,955.936 310.5,929.5 Z"/></g>
<g><path style="opacity:0.999" fill="#c2203e" d="M 478.5,1008.5 C 563.827,1047 648.827,1086.33 733.5,1126.5C 734.417,1125.87 735.417,1125.54 736.5,1125.5C 735.345,1128.33 734.011,1130.99 732.5,1133.5C 732.631,1132.62 732.298,1131.96 731.5,1131.5C 646.594,1091.55 561.594,1051.88 476.5,1012.5C 476.66,1010.85 477.326,1009.51 478.5,1008.5 Z"/></g>
<g><path style="opacity:0.998" fill="#bc1f44" d="M 276.5,1010.5 C 276.351,1011.55 276.517,1012.55 277,1013.5C 326.455,1036.48 375.621,1059.81 424.5,1083.5C 423.537,1086.74 422.204,1089.74 420.5,1092.5C 419.878,1090.66 418.544,1089.5 416.5,1089C 368.289,1066.72 320.289,1044.22 272.5,1021.5C 273.065,1017.46 274.399,1013.8 276.5,1010.5 Z"/></g>
<g><path style="opacity:0.999" fill="#be1f41" d="M 476.5,1012.5 C 561.594,1051.88 646.594,1091.55 731.5,1131.5C 732.298,1131.96 732.631,1132.62 732.5,1133.5C 721.845,1159.14 709.845,1184.14 696.5,1208.5C 612.5,1169.83 528.5,1131.17 444.5,1092.5C 444.737,1091.21 444.404,1090.21 443.5,1089.5C 454.261,1063.65 465.261,1037.99 476.5,1012.5 Z"/></g>
<g><path style="opacity:0.997" fill="#b81f47" d="M 272.5,1021.5 C 320.289,1044.22 368.289,1066.72 416.5,1089C 418.544,1089.5 419.878,1090.66 420.5,1092.5C 410.685,1117.45 400.352,1142.12 389.5,1166.5C 345.646,1145.74 301.646,1125.24 257.5,1105C 252.777,1102.98 248.443,1100.48 244.5,1097.5C 252.757,1071.67 262.09,1046.34 272.5,1021.5 Z"/></g>
<g><path style="opacity:0.999" fill="#bb1f45" d="M 443.5,1089.5 C 444.404,1090.21 444.737,1091.21 444.5,1092.5C 528.5,1131.17 612.5,1169.83 696.5,1208.5C 694.988,1212.2 692.988,1215.53 690.5,1218.5C 689.177,1216.31 687.177,1214.81 684.5,1214C 602.851,1176.06 521.185,1138.23 439.5,1100.5C 440.558,1096.72 441.891,1093.05 443.5,1089.5 Z"/></g>
<g><path style="opacity:0.998" fill="#b5204b" d="M 244.5,1097.5 C 248.443,1100.48 252.777,1102.98 257.5,1105C 301.646,1125.24 345.646,1145.74 389.5,1166.5C 388.368,1170.56 387.035,1174.56 385.5,1178.5C 384.127,1178.66 382.793,1178.49 381.5,1178C 334.18,1155.73 286.846,1133.56 239.5,1111.5C 240.796,1106.61 242.462,1101.94 244.5,1097.5 Z"/></g>
<g><path style="opacity:0.998" fill="#b81f47" d="M 439.5,1100.5 C 521.185,1138.23 602.851,1176.06 684.5,1214C 687.177,1214.81 689.177,1216.31 690.5,1218.5C 677.916,1242.68 663.583,1265.68 647.5,1287.5C 568.262,1249.41 488.595,1212.08 408.5,1175.5C 418.267,1150.18 428.6,1125.18 439.5,1100.5 Z"/></g>
<g><path style="opacity:0.997" fill="#b21f4e" d="M 239.5,1111.5 C 286.846,1133.56 334.18,1155.73 381.5,1178C 382.793,1178.49 384.127,1178.66 385.5,1178.5C 373.442,1207.01 361.776,1235.67 350.5,1264.5C 304.489,1243.49 258.489,1222.49 212.5,1201.5C 220.292,1171.13 229.292,1141.13 239.5,1111.5 Z"/></g>
<g><path style="opacity:0.999" fill="#b5204a" d="M 408.5,1175.5 C 488.595,1212.08 568.262,1249.41 647.5,1287.5C 645.183,1291.15 642.516,1294.48 639.5,1297.5C 560.558,1261.36 481.891,1224.69 403.5,1187.5C 405.167,1183.5 406.833,1179.5 408.5,1175.5 Z"/></g>
<g><path style="opacity:0.998" fill="#b21f4e" d="M 403.5,1187.5 C 481.891,1224.69 560.558,1261.36 639.5,1297.5C 620.759,1323.59 599.426,1347.59 575.5,1369.5C 506.833,1337.83 438.167,1306.17 369.5,1274.5C 380.439,1245.35 391.773,1216.35 403.5,1187.5 Z"/></g>
<g><path style="opacity:0.998" fill="#af1f52" d="M 212.5,1201.5 C 258.489,1222.49 304.489,1243.49 350.5,1264.5C 348.362,1270.25 346.029,1275.91 343.5,1281.5C 298.305,1261.71 253.472,1241.04 209,1219.5C 208.617,1220.06 208.117,1220.39 207.5,1220.5C 208.701,1214.03 210.368,1207.69 212.5,1201.5 Z"/></g>
<g><path style="opacity:0.996" fill="#ac2055" d="M 343.5,1281.5 C 334.871,1304.4 325.871,1327.07 316.5,1349.5C 274.5,1329.83 232.5,1310.17 190.5,1290.5C 195.251,1266.83 200.917,1243.5 207.5,1220.5C 208.117,1220.39 208.617,1220.06 209,1219.5C 253.472,1241.04 298.305,1261.71 343.5,1281.5 Z"/></g>
<g><path style="opacity:0.998" fill="#af2052" d="M 369.5,1274.5 C 438.167,1306.17 506.833,1337.83 575.5,1369.5C 570.821,1374.18 565.821,1378.51 560.5,1382.5C 558.436,1382.31 556.436,1381.81 554.5,1381C 490.594,1350.88 426.594,1321.05 362.5,1291.5C 364.267,1285.51 366.6,1279.85 369.5,1274.5 Z"/></g>
<g><path style="opacity:0.997" fill="#a92058" d="M 190.5,1290.5 C 232.5,1310.17 274.5,1329.83 316.5,1349.5C 314.204,1356.73 311.538,1363.73 308.5,1370.5C 268.5,1352.17 228.5,1333.83 188.5,1315.5C 187.488,1314.13 186.488,1312.8 185.5,1311.5C 187.294,1304.53 188.961,1297.53 190.5,1290.5 Z"/></g>
<g><path style="opacity:0.997" fill="#ac2055" d="M 362.5,1291.5 C 426.594,1321.05 490.594,1350.88 554.5,1381C 556.436,1381.81 558.436,1382.31 560.5,1382.5C 538.913,1400.74 515.913,1417.08 491.5,1431.5C 440.832,1407.17 389.832,1383.34 338.5,1360C 337.748,1359.33 337.414,1358.5 337.5,1357.5C 345.046,1335.2 353.379,1313.2 362.5,1291.5 Z"/></g>
<g><path style="opacity:0.997" fill="#a6205a" d="M 188.5,1315.5 C 228.5,1333.83 268.5,1352.17 308.5,1370.5C 300.5,1391.83 292.5,1413.17 284.5,1434.5C 269.162,1427.5 253.829,1420.5 238.5,1413.5C 221.341,1381.18 204.675,1348.52 188.5,1315.5 Z"/></g>
<g><path style="opacity:0.997" fill="#a91f58" d="M 337.5,1357.5 C 337.414,1358.5 337.748,1359.33 338.5,1360C 389.832,1383.34 440.832,1407.17 491.5,1431.5C 483.328,1436.42 474.995,1441.09 466.5,1445.5C 420.806,1423.32 374.806,1401.65 328.5,1380.5C 330.933,1372.52 333.933,1364.85 337.5,1357.5 Z"/></g>
<g><path style="opacity:0.997" fill="#8c2471" d="M 185.5,1311.5 C 186.488,1312.8 187.488,1314.13 188.5,1315.5C 204.675,1348.52 221.341,1381.18 238.5,1413.5C 247.23,1431.96 256.23,1450.29 265.5,1468.5C 263.436,1468.31 261.436,1467.81 259.5,1467C 228.931,1452.55 198.265,1438.38 167.5,1424.5C 172.308,1386.65 178.308,1348.99 185.5,1311.5 Z"/></g>
<g><path style="opacity:0.995" fill="#a6205a" d="M 328.5,1380.5 C 374.806,1401.65 420.806,1423.32 466.5,1445.5C 438.892,1460.37 409.892,1471.7 379.5,1479.5C 354.689,1467.6 329.689,1455.93 304.5,1444.5C 311.987,1422.88 319.987,1401.55 328.5,1380.5 Z"/></g>
<g><path style="opacity:0.99" fill="#872575" d="M 167.5,1424.5 C 198.265,1438.38 228.931,1452.55 259.5,1467C 261.436,1467.81 263.436,1468.31 265.5,1468.5C 266.773,1470.71 267.773,1473.05 268.5,1475.5C 262.559,1492.99 256.225,1510.32 249.5,1527.5C 203.047,1506.44 156.714,1485.11 110.5,1463.5C 97.148,1441.31 83.148,1419.47 68.5,1398C 71.2551,1398.34 73.9217,1399.34 76.5,1401C 102.346,1417.17 126.179,1436 148,1457.5C 153.241,1463.65 158.241,1469.98 163,1476.5C 164.302,1459.14 165.802,1441.81 167.5,1424.5 Z"/></g>
<g><path style="opacity:0.993" fill="#a3205e" d="M 238.5,1413.5 C 253.829,1420.5 269.162,1427.5 284.5,1434.5C 279.405,1448.34 274.072,1462.01 268.5,1475.5C 267.773,1473.05 266.773,1470.71 265.5,1468.5C 256.23,1450.29 247.23,1431.96 238.5,1413.5 Z"/></g>
<g><path style="opacity:0.981" fill="#90236e" d="M 563.5,1465.5 C 556.046,1461.61 548.379,1457.94 540.5,1454.5C 539.702,1454.04 539.369,1453.38 539.5,1452.5C 560.367,1439.48 579.367,1423.98 596.5,1406C 597.167,1405.33 597.833,1405.33 598.5,1406C 588.194,1426.8 576.527,1446.63 563.5,1465.5 Z"/></g>
<g><path style="opacity:0.994" fill="#a3205e" d="M 304.5,1444.5 C 329.689,1455.93 354.689,1467.6 379.5,1479.5C 370.771,1481.64 362.105,1483.64 353.5,1485.5C 336.751,1487.18 320.085,1489.18 303.5,1491.5C 297.819,1491.63 292.152,1491.97 286.5,1492.5C 292.303,1476.42 298.303,1460.42 304.5,1444.5 Z"/></g>
<g><path style="opacity:0.989" fill="#8b2472" d="M 539.5,1452.5 C 539.369,1453.38 539.702,1454.04 540.5,1454.5C 548.379,1457.94 556.046,1461.61 563.5,1465.5C 551.432,1484.91 536.766,1502.25 519.5,1517.5C 497.19,1507.68 475.19,1497.34 453.5,1486.5C 484.103,1480.2 512.77,1468.87 539.5,1452.5 Z"/></g>
<g><path style="opacity:0.996" fill="#842677" d="M 110.5,1463.5 C 156.714,1485.11 203.047,1506.44 249.5,1527.5C 246.499,1535.5 243.499,1543.5 240.5,1551.5C 203.62,1534.23 166.62,1517.23 129.5,1500.5C 122.915,1488.33 116.582,1476 110.5,1463.5 Z"/></g>
<g><path style="opacity:0.995" fill="#872575" d="M 353.5,1485.5 C 371.393,1488.22 389.393,1489.89 407.5,1490.5C 422.907,1489.91 438.241,1488.58 453.5,1486.5C 475.19,1497.34 497.19,1507.68 519.5,1517.5C 499.767,1535.22 478.101,1550.22 454.5,1562.5C 404.081,1539.03 353.748,1515.36 303.5,1491.5C 320.085,1489.18 336.751,1487.18 353.5,1485.5 Z"/></g>
<g><path style="opacity:0.997" fill="#842677" d="M 303.5,1491.5 C 353.748,1515.36 404.081,1539.03 454.5,1562.5C 443.763,1569.2 432.43,1574.87 420.5,1579.5C 419.177,1577.31 417.177,1575.81 414.5,1575C 369.478,1554.15 324.478,1533.32 279.5,1512.5C 281.437,1505.69 283.77,1499.02 286.5,1492.5C 292.152,1491.97 297.819,1491.63 303.5,1491.5 Z"/></g>
<g><path style="opacity:0.99" fill="#802779" d="M 129.5,1500.5 C 166.62,1517.23 203.62,1534.23 240.5,1551.5C 230.007,1580.98 219.341,1610.32 208.5,1639.5C 187.981,1630.07 167.647,1620.41 147.5,1610.5C 151.842,1610.26 156.176,1609.93 160.5,1609.5C 157.957,1582.33 151.79,1555.99 142,1530.5C 138.097,1520.36 133.93,1510.36 129.5,1500.5 Z"/></g>
<g><path style="opacity:0.995" fill="#802779" d="M 279.5,1512.5 C 324.478,1533.32 369.478,1554.15 414.5,1575C 417.177,1575.81 419.177,1577.31 420.5,1579.5C 418.727,1580.89 416.727,1582.06 414.5,1583C 421.158,1583.5 427.825,1583.67 434.5,1583.5C 448.435,1591.05 462.768,1598.05 477.5,1604.5C 478.298,1604.96 478.631,1605.62 478.5,1606.5C 446.379,1638.2 408.046,1658.86 363.5,1668.5C 324.355,1649.66 285.022,1630.99 245.5,1612.5C 244.702,1612.04 244.369,1611.38 244.5,1610.5C 255.398,1577.47 267.065,1544.8 279.5,1512.5 Z"/></g>
<g><path style="opacity:0.981" fill="#852676" d="M 478.5,1606.5 C 478.631,1605.62 478.298,1604.96 477.5,1604.5C 462.768,1598.05 448.435,1591.05 434.5,1583.5C 469.323,1583.86 497.656,1570.69 519.5,1544C 520.167,1543.33 520.833,1543.33 521.5,1544C 511.229,1567.74 496.896,1588.57 478.5,1606.5 Z"/></g>
<g><path style="opacity:0.98" fill="#79297e" d="M 147.5,1610.5 C 167.647,1620.41 187.981,1630.07 208.5,1639.5C 198.504,1668.49 188.504,1697.49 178.5,1726.5C 171.177,1722.34 163.511,1719 155.5,1716.5C 159.7,1704.57 163.7,1692.57 167.5,1680.5C 146.769,1677.59 126.102,1678.09 105.5,1682C 93.3408,1684.37 81.3408,1687.37 69.5,1691C 53.3913,1696.41 37.3913,1701.74 21.5,1707C 40.9708,1692.09 61.3041,1678.43 82.5,1666C 100.782,1656.02 120.115,1649.02 140.5,1645C 108.581,1633.38 80.5813,1615.72 56.5,1592C 72.6767,1596.83 89.01,1601.5 105.5,1606C 119.31,1609.31 133.31,1610.81 147.5,1610.5 Z"/></g>
<g><path style="opacity:0.982" fill="#7a297e" d="M 244.5,1610.5 C 244.369,1611.38 244.702,1612.04 245.5,1612.5C 285.022,1630.99 324.355,1649.66 363.5,1668.5C 343.992,1674.03 323.992,1677.53 303.5,1679C 280.852,1680.16 258.185,1680.83 235.5,1681C 261.344,1705.19 274.844,1735.03 276,1770.5C 264.837,1749.67 251.337,1730.5 235.5,1713C 229.386,1707.55 222.72,1702.89 215.5,1699C 214.941,1698.28 214.608,1697.44 214.5,1696.5C 223.938,1667.52 233.938,1638.85 244.5,1610.5 Z"/></g>
<g><path style="opacity:0.989" fill="#722a84" d="M 155.5,1716.5 C 163.511,1719 171.177,1722.34 178.5,1726.5C 168.636,1754.09 158.969,1781.76 149.5,1809.5C 148.85,1809.8 148.183,1810.14 147.5,1810.5C 140.925,1807.63 134.425,1804.63 128,1801.5C 127.617,1802.06 127.117,1802.39 126.5,1802.5C 135.769,1773.69 145.436,1745.03 155.5,1716.5 Z"/></g>
<g><path style="opacity:0.98" fill="#6d2c87" d="M 149.5,1809.5 C 141.735,1834.13 133.401,1858.46 124.5,1882.5C 116.924,1879.71 109.591,1876.38 102.5,1872.5C 110.325,1849.02 118.325,1825.69 126.5,1802.5C 127.117,1802.39 127.617,1802.06 128,1801.5C 134.425,1804.63 140.925,1807.63 147.5,1810.5C 148.183,1810.14 148.85,1809.8 149.5,1809.5 Z"/></g>
<g><path style="opacity:0.976" fill="#682d8b" d="M 102.5,1872.5 C 109.591,1876.38 116.924,1879.71 124.5,1882.5C 117.204,1906.05 109.537,1929.39 101.5,1952.5C 93.884,1950.3 86.884,1946.97 80.5,1942.5C 87.6312,1919.11 94.9645,1895.77 102.5,1872.5 Z"/></g>
<g><path style="opacity:0.971" fill="#5c2c86" d="M 80.5,1942.5 C 86.884,1946.97 93.884,1950.3 101.5,1952.5C 99.5371,1960.05 97.2038,1967.38 94.5,1974.5C 87.7116,1970.79 80.7116,1967.46 73.5,1964.5C 75.0594,1956.83 77.3927,1949.49 80.5,1942.5 Z"/></g>
<g><path style="opacity:0.983" fill="#4f2b7d" d="M 73.5,1964.5 C 80.7116,1967.46 87.7116,1970.79 94.5,1974.5C 92.7387,1981.78 90.4054,1988.78 87.5,1995.5C 79.884,1993.3 72.884,1989.97 66.5,1985.5C 68.2613,1978.22 70.5946,1971.22 73.5,1964.5 Z"/></g>
<g><path style="opacity:0.978" fill="#432974" d="M 66.5,1985.5 C 72.884,1989.97 79.884,1993.3 87.5,1995.5C 85.9406,2003.17 83.6073,2010.51 80.5,2017.5C 73.4499,2014.03 66.4499,2010.36 59.5,2006.5C 61.6641,1999.34 63.9974,1992.34 66.5,1985.5 Z"/></g>
<g><path style="opacity:0.977" fill="#36276b" d="M 59.5,2006.5 C 66.4499,2010.36 73.4499,2014.03 80.5,2017.5C 78.7673,2025.12 76.434,2032.45 73.5,2039.5C 66.3786,2036.44 59.3786,2033.11 52.5,2029.5C 54.6311,2021.77 56.9645,2014.11 59.5,2006.5 Z"/></g>
<g><path style="opacity:0.971" fill="#282562" d="M 52.5,2029.5 C 59.3786,2033.11 66.3786,2036.44 73.5,2039.5C 59.6391,2085.25 45.4724,2130.92 31,2176.5C 24.7799,2188.89 15.2799,2197.56 2.5,2202.5C 1.5,2202.5 0.5,2202.5 -0.5,2202.5C -0.5,2201.17 -0.5,2199.83 -0.5,2198.5C 16.996,2142.2 34.6627,2085.87 52.5,2029.5 Z"/></g>
</svg>
