<svg id="svg" version="1.1" xmlns="http://www.w3.org/2000/svg" xmlns:xlink="http://www.w3.org/1999/xlink" width="400" height="84.375" viewBox="0, 0, 400,84.375"><g id="svgg"><path id="path0" d="M151.292 64.958 C 154.156 64.984,158.844 64.984,161.708 64.958 C 164.573 64.933,162.229 64.912,156.500 64.912 C 150.771 64.912,148.427 64.933,151.292 64.958 " stroke="none" fill="#fc6c1c" fill-rule="evenodd"></path><path id="path1" d="M70.167 0.114 C 69.620 0.204,68.167 0.876,68.167 1.039 C 68.167 1.109,68.089 1.167,67.993 1.167 C 67.597 1.167,65.500 3.264,65.500 3.660 C 65.500 3.755,65.427 3.833,65.337 3.833 C 65.173 3.833,64.500 5.166,64.500 5.491 C 64.500 5.588,64.432 5.667,64.350 5.667 C 64.267 5.667,64.147 6.117,64.083 6.667 C 64.019 7.217,63.908 7.667,63.836 7.667 C 63.764 7.667,63.662 7.873,63.610 8.125 C 63.521 8.560,63.247 9.669,62.820 11.333 C 62.714 11.746,62.570 12.199,62.501 12.340 C 62.431 12.481,62.321 12.987,62.255 13.465 C 62.189 13.942,62.071 14.373,61.992 14.422 C 61.913 14.470,61.798 14.958,61.736 15.505 C 61.674 16.052,61.558 16.500,61.478 16.500 C 61.399 16.500,61.333 16.683,61.333 16.907 C 61.333 17.131,61.252 17.364,61.153 17.425 C 61.054 17.486,61.018 17.716,61.073 17.935 C 61.129 18.160,61.099 18.333,61.003 18.333 C 60.910 18.333,60.833 18.554,60.833 18.823 C 60.833 19.093,60.763 19.357,60.676 19.411 C 60.590 19.464,60.468 19.862,60.405 20.296 C 60.343 20.729,60.236 21.158,60.168 21.250 C 60.101 21.342,59.994 21.750,59.932 22.158 C 59.870 22.566,59.756 22.979,59.680 23.075 C 59.604 23.171,59.501 23.475,59.452 23.750 C 59.302 24.584,58.986 25.733,58.824 26.036 C 58.740 26.193,58.622 26.739,58.562 27.249 C 58.502 27.759,58.391 28.215,58.315 28.262 C 58.239 28.309,58.127 28.719,58.067 29.174 C 58.006 29.628,57.901 30.000,57.833 30.000 C 57.765 30.000,57.659 30.450,57.597 31.000 C 57.534 31.550,57.412 32.000,57.325 32.000 C 57.238 32.000,57.167 32.225,57.167 32.500 C 57.167 32.775,57.083 33.000,56.981 33.000 C 56.870 33.000,56.825 33.200,56.869 33.500 C 56.909 33.775,56.880 34.000,56.804 34.000 C 56.729 34.000,56.667 34.188,56.667 34.417 C 56.667 34.646,56.599 34.833,56.516 34.833 C 56.434 34.833,56.314 35.283,56.250 35.833 C 56.186 36.383,56.073 36.833,55.999 36.833 C 55.925 36.833,55.812 37.227,55.747 37.708 C 55.682 38.190,55.572 38.658,55.502 38.750 C 55.432 38.842,55.335 39.142,55.285 39.417 C 55.143 40.209,54.823 41.393,54.676 41.673 C 54.602 41.814,54.487 42.321,54.421 42.798 C 54.356 43.276,54.241 43.667,54.167 43.667 C 54.093 43.667,53.981 44.117,53.917 44.667 C 53.853 45.217,53.738 45.667,53.662 45.667 C 53.586 45.667,53.472 46.079,53.409 46.583 C 53.346 47.088,53.237 47.500,53.166 47.500 C 53.052 47.500,52.889 48.176,52.794 49.042 C 52.776 49.202,52.703 49.333,52.631 49.333 C 52.559 49.333,52.500 49.554,52.500 49.823 C 52.500 50.093,52.435 50.354,52.355 50.403 C 52.276 50.452,52.161 50.866,52.100 51.323 C 52.040 51.779,51.926 52.193,51.848 52.241 C 51.770 52.289,51.652 52.754,51.587 53.275 C 51.522 53.795,51.408 54.340,51.333 54.485 C 51.098 54.945,50.667 56.522,50.667 56.926 C 50.667 57.139,50.596 57.357,50.510 57.411 C 50.423 57.464,50.301 57.862,50.239 58.296 C 50.176 58.729,50.069 59.158,50.000 59.250 C 49.931 59.342,49.824 59.771,49.761 60.204 C 49.699 60.638,49.584 61.031,49.507 61.079 C 49.429 61.127,49.314 61.616,49.250 62.166 C 49.186 62.717,49.066 63.167,48.984 63.167 C 48.901 63.167,48.833 63.339,48.833 63.550 C 48.833 63.761,48.767 64.005,48.685 64.092 C 48.604 64.179,48.458 64.662,48.363 65.167 C 48.163 66.212,47.851 67.427,47.656 67.917 C 47.583 68.100,47.476 68.606,47.418 69.042 C 47.360 69.477,47.243 69.833,47.156 69.833 C 47.070 69.833,47.000 70.083,47.000 70.389 C 47.000 70.694,46.944 71.001,46.875 71.069 C 46.806 71.138,46.743 71.244,46.734 71.306 C 46.606 72.177,46.432 72.833,46.328 72.833 C 46.257 72.833,46.147 73.283,46.083 73.833 C 46.019 74.383,45.905 74.833,45.829 74.833 C 45.753 74.833,45.639 75.246,45.576 75.750 C 45.513 76.254,45.404 76.667,45.333 76.667 C 45.263 76.667,45.154 77.079,45.091 77.583 C 45.028 78.088,44.916 78.500,44.843 78.500 C 44.729 78.500,44.614 78.982,44.437 80.205 C 44.414 80.363,44.344 80.545,44.281 80.608 C 44.218 80.671,44.167 80.893,44.167 81.101 C 44.167 81.310,44.099 81.522,44.016 81.573 C 43.934 81.624,43.814 82.116,43.750 82.666 C 43.686 83.217,43.566 83.667,43.484 83.667 C 43.401 83.667,43.333 83.819,43.333 84.006 C 43.333 84.343,43.380 84.344,52.292 84.297 L 61.250 84.250 62.225 83.786 C 62.788 83.518,63.236 83.189,63.283 83.006 C 63.333 82.817,63.461 82.726,63.603 82.781 C 64.071 82.960,66.500 80.112,66.500 79.384 C 66.500 79.173,66.574 79.000,66.665 79.000 C 66.755 79.000,66.878 78.698,66.937 78.330 C 66.996 77.961,67.109 77.619,67.189 77.570 C 67.268 77.521,67.334 77.241,67.334 76.948 C 67.335 76.656,67.447 76.202,67.584 75.939 C 67.721 75.677,67.833 75.287,67.833 75.074 C 67.833 74.861,67.900 74.645,67.981 74.595 C 68.061 74.545,68.179 74.091,68.243 73.586 C 68.306 73.080,68.420 72.667,68.496 72.667 C 68.572 72.667,68.686 72.217,68.750 71.667 C 68.814 71.117,68.928 70.667,69.004 70.667 C 69.080 70.667,69.194 70.254,69.257 69.750 C 69.320 69.246,69.430 68.833,69.501 68.833 C 69.572 68.833,69.670 68.590,69.718 68.292 C 69.822 67.649,70.156 66.385,70.346 65.917 C 70.420 65.733,70.529 65.265,70.588 64.876 C 70.647 64.487,70.761 64.128,70.840 64.079 C 70.920 64.030,71.035 63.542,71.097 62.995 C 71.159 62.448,71.270 62.000,71.343 62.000 C 71.416 62.000,71.528 61.587,71.591 61.083 C 71.654 60.579,71.771 60.167,71.853 60.167 C 71.934 60.167,72.000 59.946,72.000 59.677 C 72.000 59.407,72.071 59.143,72.157 59.089 C 72.243 59.036,72.365 58.638,72.428 58.204 C 72.491 57.771,72.597 57.342,72.665 57.250 C 72.733 57.158,72.839 56.750,72.901 56.342 C 72.964 55.934,73.084 55.516,73.169 55.414 C 73.254 55.312,73.374 54.783,73.437 54.239 C 73.499 53.695,73.596 53.212,73.651 53.167 C 73.829 53.019,74.161 51.924,74.271 51.117 C 74.330 50.686,74.438 50.333,74.511 50.333 C 74.583 50.333,74.694 49.921,74.757 49.417 C 74.820 48.913,74.929 48.500,75.000 48.500 C 75.071 48.500,75.180 48.087,75.243 47.583 C 75.306 47.079,75.420 46.667,75.496 46.667 C 75.572 46.667,75.686 46.217,75.750 45.667 C 75.814 45.117,75.934 44.667,76.016 44.667 C 76.099 44.667,76.168 44.535,76.169 44.375 C 76.171 44.215,76.280 43.783,76.412 43.417 C 76.544 43.050,76.655 42.512,76.659 42.222 C 76.663 41.932,76.743 41.669,76.836 41.638 C 76.930 41.607,77.053 41.188,77.110 40.707 C 77.167 40.227,77.268 39.833,77.335 39.833 C 77.402 39.833,77.508 39.452,77.570 38.985 C 77.631 38.519,77.744 38.013,77.821 37.860 C 77.999 37.504,78.274 36.576,78.422 35.833 C 78.486 35.512,78.598 35.175,78.670 35.083 C 78.742 34.992,78.855 34.484,78.920 33.956 C 78.985 33.428,79.101 32.957,79.177 32.911 C 79.252 32.864,79.365 32.471,79.428 32.038 C 79.491 31.605,79.598 31.175,79.667 31.083 C 79.735 30.992,79.843 30.560,79.906 30.125 C 79.969 29.690,80.091 29.333,80.177 29.333 C 80.263 29.333,80.333 29.071,80.333 28.750 C 80.333 28.429,80.400 28.167,80.481 28.167 C 80.562 28.167,80.680 27.754,80.743 27.250 C 80.806 26.746,80.920 26.333,80.996 26.333 C 81.072 26.333,81.186 25.883,81.250 25.333 C 81.314 24.783,81.428 24.333,81.504 24.333 C 81.580 24.333,81.694 23.921,81.757 23.417 C 81.820 22.912,81.938 22.500,82.019 22.500 C 82.100 22.500,82.167 22.289,82.167 22.032 C 82.167 20.925,81.846 20.968,89.638 21.029 C 94.504 21.066,96.716 21.140,96.798 21.266 C 96.863 21.366,97.142 21.500,97.417 21.562 C 98.046 21.706,99.667 22.526,99.667 22.702 C 99.667 22.774,99.741 22.833,99.832 22.833 C 99.998 22.833,101.343 23.811,101.720 24.206 C 102.212 24.721,103.000 25.814,103.000 25.982 C 103.000 26.084,103.074 26.167,103.163 26.167 C 103.253 26.167,103.374 26.354,103.432 26.583 C 103.489 26.813,103.603 27.000,103.685 27.000 C 103.766 27.000,103.833 27.082,103.833 27.183 C 103.833 27.284,103.943 27.603,104.077 27.891 C 104.900 29.660,104.962 35.500,104.159 35.500 C 104.088 35.500,103.979 35.800,103.917 36.167 C 103.855 36.533,103.737 36.833,103.655 36.833 C 103.573 36.833,103.459 37.021,103.402 37.250 C 103.344 37.479,103.230 37.667,103.149 37.667 C 103.067 37.667,103.000 37.747,103.000 37.846 C 103.000 37.945,102.794 38.244,102.542 38.510 C 102.290 38.777,101.889 39.202,101.652 39.456 C 101.415 39.709,100.968 40.104,100.660 40.333 C 100.352 40.563,99.965 40.881,99.800 41.042 C 99.635 41.202,99.444 41.336,99.375 41.339 C 99.306 41.342,98.950 41.490,98.583 41.667 C 98.217 41.844,97.792 41.991,97.639 41.994 C 97.486 41.997,97.336 42.070,97.306 42.155 C 97.183 42.499,94.697 42.721,90.292 42.781 C 87.748 42.815,85.667 42.909,85.667 42.989 C 85.667 43.070,85.525 43.098,85.352 43.053 C 85.179 43.008,84.987 43.052,84.926 43.152 C 84.864 43.252,84.637 43.333,84.421 43.333 C 84.205 43.333,84.003 43.390,83.972 43.458 C 83.942 43.527,83.583 43.763,83.176 43.982 C 82.769 44.201,82.334 44.464,82.209 44.565 C 81.630 45.038,80.667 46.041,80.667 46.171 C 80.667 46.251,80.478 46.520,80.247 46.769 C 80.016 47.018,79.699 47.584,79.541 48.027 C 79.384 48.471,79.201 48.833,79.136 48.833 C 79.070 48.833,78.966 49.283,78.903 49.833 C 78.841 50.383,78.730 50.833,78.657 50.833 C 78.584 50.833,78.472 51.247,78.409 51.752 C 78.346 52.258,78.228 52.712,78.147 52.762 C 78.066 52.812,78.000 53.074,78.000 53.343 C 78.000 53.613,77.916 53.833,77.814 53.833 C 77.710 53.833,77.666 53.980,77.715 54.167 C 77.763 54.350,77.734 54.500,77.651 54.500 C 77.568 54.500,77.500 54.721,77.500 54.990 C 77.500 55.260,77.434 55.521,77.353 55.571 C 77.272 55.621,77.154 56.076,77.091 56.581 C 77.028 57.087,76.915 57.500,76.841 57.500 C 76.766 57.500,76.652 57.931,76.586 58.458 C 76.521 58.985,76.409 59.492,76.338 59.583 C 76.266 59.675,76.076 60.313,75.916 61.000 C 75.756 61.688,75.569 62.365,75.500 62.505 C 75.432 62.646,75.322 63.007,75.256 63.308 L 75.136 63.854 87.657 63.802 C 96.732 63.764,100.212 63.698,100.298 63.562 C 100.363 63.458,100.886 63.320,101.459 63.254 C 102.032 63.188,102.542 63.066,102.593 62.984 C 102.645 62.901,102.888 62.833,103.135 62.832 C 103.382 62.832,103.798 62.719,104.061 62.582 C 104.323 62.445,104.643 62.333,104.771 62.333 C 104.900 62.333,105.135 62.269,105.294 62.191 C 106.215 61.739,106.807 61.499,107.250 61.397 C 107.525 61.334,107.787 61.235,107.833 61.178 C 107.879 61.121,108.254 60.931,108.667 60.756 C 109.079 60.581,109.535 60.339,109.680 60.219 C 109.825 60.098,110.031 60.000,110.138 60.000 C 110.245 60.000,110.333 59.925,110.333 59.833 C 110.333 59.742,110.448 59.667,110.589 59.667 C 110.729 59.667,110.887 59.554,110.940 59.417 C 110.992 59.279,111.172 59.167,111.339 59.167 C 111.506 59.167,111.742 59.072,111.863 58.956 C 111.984 58.840,112.308 58.604,112.583 58.430 C 112.858 58.256,113.143 58.014,113.217 57.890 C 113.290 57.767,113.427 57.667,113.520 57.667 C 113.614 57.667,113.790 57.573,113.911 57.458 C 114.033 57.344,114.374 57.063,114.670 56.833 C 115.424 56.250,117.785 53.903,118.583 52.943 C 118.950 52.502,119.344 52.040,119.458 51.916 C 119.573 51.792,119.667 51.618,119.667 51.530 C 119.667 51.441,119.779 51.326,119.917 51.273 C 120.054 51.220,120.167 51.062,120.167 50.922 C 120.167 50.782,120.224 50.667,120.295 50.667 C 120.366 50.667,120.610 50.310,120.837 49.875 C 121.064 49.440,121.344 49.023,121.458 48.950 C 121.573 48.877,121.667 48.708,121.667 48.575 C 121.667 48.442,121.724 48.333,121.794 48.333 C 121.928 48.333,122.500 47.117,122.500 46.832 C 122.500 46.741,122.569 46.667,122.653 46.667 C 122.738 46.667,122.856 46.442,122.917 46.167 C 122.977 45.892,123.092 45.667,123.172 45.667 C 123.253 45.667,123.370 45.385,123.433 45.042 C 123.496 44.698,123.603 44.379,123.671 44.333 C 123.859 44.206,124.833 41.313,124.833 40.881 C 124.833 40.672,124.900 40.500,124.981 40.500 C 125.062 40.500,125.180 40.087,125.243 39.583 C 125.306 39.079,125.422 38.667,125.501 38.667 C 125.579 38.667,125.696 38.067,125.760 37.333 C 125.824 36.600,125.934 36.000,126.005 36.000 C 126.243 36.000,126.369 34.275,126.369 31.000 C 126.369 27.725,126.243 26.000,126.005 26.000 C 125.934 26.000,125.824 25.400,125.760 24.667 C 125.696 23.933,125.582 23.333,125.507 23.333 C 125.433 23.333,125.318 22.977,125.253 22.542 C 125.189 22.106,125.077 21.675,125.006 21.583 C 124.935 21.492,124.826 21.135,124.764 20.792 C 124.702 20.448,124.580 20.167,124.492 20.167 C 124.405 20.167,124.333 20.019,124.333 19.839 C 124.333 19.514,123.845 18.326,123.646 18.167 C 123.589 18.121,123.489 17.840,123.424 17.542 C 123.360 17.244,123.246 17.000,123.171 17.000 C 123.097 17.000,122.985 16.795,122.922 16.543 C 122.858 16.292,122.757 16.048,122.695 16.002 C 122.527 15.874,122.170 15.288,122.059 14.958 C 122.005 14.798,121.895 14.667,121.814 14.667 C 121.733 14.667,121.667 14.552,121.667 14.411 C 121.667 14.271,121.561 14.116,121.432 14.066 C 121.302 14.016,121.151 13.794,121.095 13.571 C 121.039 13.349,120.920 13.167,120.830 13.167 C 120.740 13.167,120.667 13.069,120.667 12.949 C 120.667 12.723,120.088 11.958,119.292 11.131 C 119.040 10.869,118.833 10.599,118.833 10.530 C 118.833 10.376,116.435 7.988,115.758 7.467 C 115.487 7.259,115.067 6.900,114.824 6.670 C 114.581 6.439,114.212 6.138,114.004 6.000 C 113.796 5.862,113.528 5.656,113.408 5.542 C 113.288 5.427,113.110 5.333,113.012 5.333 C 112.914 5.333,112.833 5.266,112.833 5.183 C 112.833 5.101,112.515 4.868,112.125 4.665 C 111.735 4.463,111.379 4.249,111.333 4.190 C 111.287 4.131,110.875 3.896,110.417 3.667 C 109.958 3.438,109.546 3.212,109.500 3.167 C 109.454 3.121,109.154 2.963,108.833 2.815 C 108.513 2.667,108.051 2.452,107.808 2.337 C 107.564 2.222,107.271 2.185,107.157 2.256 C 107.022 2.339,106.991 2.317,107.067 2.192 C 107.138 2.078,107.080 2.000,106.927 2.000 C 106.784 2.000,106.667 1.932,106.667 1.849 C 106.667 1.766,106.292 1.646,105.833 1.583 C 105.375 1.520,105.000 1.409,105.000 1.336 C 105.000 1.263,104.794 1.145,104.542 1.075 C 104.290 1.005,103.971 0.915,103.833 0.876 C 103.696 0.836,103.321 0.764,103.000 0.715 C 102.679 0.667,102.337 0.563,102.239 0.486 C 101.726 0.076,72.459 -0.263,70.167 0.114 M364.061 0.156 C 363.195 0.367,360.833 2.319,360.833 2.824 C 360.833 2.921,360.759 3.000,360.669 3.000 C 360.578 3.000,360.456 3.300,360.397 3.667 C 360.339 4.033,360.234 4.333,360.165 4.333 C 360.095 4.333,359.987 4.746,359.924 5.250 C 359.861 5.754,359.748 6.167,359.673 6.167 C 359.598 6.167,359.499 6.410,359.453 6.708 C 359.327 7.520,359.183 8.106,358.920 8.883 C 358.790 9.268,358.631 9.921,358.569 10.333 C 358.506 10.746,358.387 11.169,358.305 11.274 C 358.222 11.379,358.110 11.848,358.054 12.316 C 357.999 12.784,357.898 13.167,357.829 13.167 C 357.761 13.167,357.654 13.579,357.591 14.083 C 357.528 14.588,357.406 15.000,357.321 15.000 C 357.236 15.000,357.167 15.221,357.167 15.490 C 357.167 15.760,357.086 16.030,356.986 16.092 C 356.887 16.153,356.851 16.382,356.906 16.602 C 356.963 16.826,356.932 17.000,356.837 17.000 C 356.743 17.000,356.667 17.183,356.667 17.407 C 356.667 17.631,356.595 17.858,356.508 17.912 C 356.420 17.966,356.298 18.458,356.236 19.005 C 356.174 19.552,356.063 20.000,355.989 20.000 C 355.914 20.000,355.808 20.356,355.752 20.792 C 355.696 21.227,355.578 21.714,355.491 21.873 C 355.404 22.032,355.333 22.346,355.333 22.571 C 355.333 22.796,355.257 23.027,355.164 23.085 C 355.071 23.143,355.035 23.254,355.083 23.333 C 355.132 23.412,355.096 23.524,355.003 23.582 C 354.910 23.639,354.833 23.944,354.833 24.260 C 354.833 24.575,354.767 24.833,354.686 24.833 C 354.605 24.833,354.487 25.246,354.424 25.750 C 354.361 26.254,354.247 26.667,354.171 26.667 C 354.095 26.667,353.979 27.135,353.913 27.708 C 353.847 28.281,353.725 28.793,353.642 28.846 C 353.559 28.899,353.445 29.330,353.389 29.804 C 353.333 30.279,353.222 30.667,353.143 30.667 C 353.065 30.667,353.000 30.887,353.000 31.157 C 353.000 31.426,352.923 31.695,352.829 31.753 C 352.735 31.811,352.672 31.947,352.689 32.054 C 352.727 32.285,352.534 33.111,352.332 33.583 C 352.254 33.767,352.142 34.273,352.085 34.708 C 352.027 35.144,351.917 35.500,351.839 35.500 C 351.762 35.500,351.646 35.969,351.580 36.542 C 351.514 37.115,351.407 37.621,351.343 37.667 C 351.186 37.778,350.667 39.676,350.667 40.136 C 350.667 40.336,350.597 40.500,350.512 40.500 C 350.427 40.500,350.306 40.913,350.243 41.419 C 350.179 41.924,350.069 42.374,349.996 42.419 C 349.924 42.464,349.813 42.875,349.750 43.334 C 349.687 43.792,349.575 44.167,349.501 44.167 C 349.428 44.167,349.314 44.692,349.250 45.333 C 349.186 45.975,349.057 46.500,348.964 46.500 C 348.871 46.500,348.835 46.655,348.884 46.844 C 348.937 47.046,348.883 47.222,348.752 47.272 C 348.622 47.322,348.482 47.766,348.415 48.345 C 348.352 48.889,348.238 49.333,348.162 49.333 C 348.086 49.333,347.972 49.747,347.909 50.252 C 347.846 50.758,347.735 51.208,347.663 51.252 C 347.590 51.297,347.480 51.709,347.417 52.167 C 347.354 52.625,347.242 53.000,347.169 53.000 C 347.096 53.000,346.997 53.244,346.949 53.542 C 346.786 54.548,346.487 55.748,346.329 56.036 C 346.242 56.193,346.122 56.737,346.063 57.244 C 346.003 57.752,345.895 58.167,345.822 58.167 C 345.750 58.167,345.639 58.579,345.576 59.083 C 345.513 59.588,345.404 60.000,345.333 60.000 C 345.263 60.000,345.154 60.413,345.091 60.917 C 345.028 61.421,344.906 61.833,344.821 61.833 C 344.736 61.833,344.667 62.054,344.667 62.323 C 344.667 62.593,344.585 62.864,344.485 62.926 C 344.386 62.987,344.344 63.188,344.392 63.371 C 344.440 63.555,344.409 63.846,344.323 64.019 C 344.237 64.192,344.099 64.471,344.015 64.640 C 343.932 64.808,343.811 65.371,343.746 65.890 C 343.681 66.409,343.567 66.833,343.493 66.833 C 343.418 66.833,343.306 67.247,343.243 67.752 C 343.179 68.258,343.061 68.712,342.981 68.762 C 342.900 68.812,342.833 69.061,342.833 69.315 C 342.833 69.570,342.781 69.830,342.717 69.894 C 342.585 70.026,342.540 70.183,342.395 71.000 C 342.338 71.321,342.235 71.658,342.167 71.750 C 342.098 71.842,341.991 72.271,341.928 72.704 C 341.865 73.138,341.751 73.531,341.673 73.579 C 341.596 73.627,341.481 74.116,341.417 74.666 C 341.353 75.217,341.238 75.667,341.162 75.667 C 341.086 75.667,340.972 76.079,340.909 76.583 C 340.846 77.087,340.737 77.500,340.666 77.500 C 340.552 77.500,340.389 78.176,340.294 79.042 C 340.276 79.202,340.203 79.333,340.131 79.333 C 340.059 79.333,340.000 79.554,340.000 79.823 C 340.000 80.093,339.936 80.353,339.857 80.402 C 339.779 80.451,339.669 80.875,339.613 81.346 C 339.557 81.817,339.442 82.288,339.358 82.393 C 339.273 82.498,339.151 82.977,339.086 83.458 L 338.969 84.333 340.859 84.332 C 343.014 84.330,345.668 84.065,345.906 83.827 C 345.994 83.739,346.231 83.667,346.431 83.667 C 346.908 83.667,348.500 83.151,348.500 82.996 C 348.500 82.930,348.790 82.830,349.145 82.773 C 349.499 82.716,350.005 82.557,350.270 82.419 C 350.534 82.281,350.844 82.168,350.958 82.168 C 351.073 82.167,351.167 82.098,351.167 82.013 C 351.167 81.929,351.392 81.810,351.667 81.750 C 351.942 81.690,352.167 81.571,352.167 81.487 C 352.167 81.402,352.273 81.333,352.403 81.333 C 352.533 81.333,352.664 81.277,352.694 81.208 C 352.725 81.140,353.125 80.896,353.583 80.667 C 354.042 80.438,354.454 80.209,354.500 80.158 C 354.546 80.107,354.846 79.904,355.167 79.706 C 355.951 79.222,356.759 78.498,356.710 78.322 C 356.689 78.243,356.774 78.218,356.901 78.267 C 357.144 78.360,361.000 74.639,361.000 74.311 C 361.000 74.212,361.188 73.984,361.417 73.804 C 361.646 73.623,361.833 73.369,361.833 73.238 C 361.833 73.107,361.893 73.000,361.966 73.000 C 362.040 73.000,362.283 72.702,362.508 72.338 C 362.733 71.974,362.981 71.674,363.059 71.671 C 363.138 71.669,363.159 71.554,363.106 71.417 C 363.054 71.279,363.083 71.167,363.172 71.167 C 363.261 71.167,363.333 71.089,363.333 70.993 C 363.333 70.898,363.480 70.662,363.658 70.471 C 363.837 70.279,364.031 69.907,364.088 69.644 C 364.146 69.382,364.256 69.167,364.333 69.167 C 364.410 69.167,364.526 68.923,364.591 68.625 C 364.656 68.327,364.772 68.043,364.850 67.993 C 364.928 67.943,365.012 67.718,365.038 67.493 C 365.063 67.268,365.165 67.008,365.265 66.917 C 365.476 66.722,366.000 65.106,366.000 64.648 C 366.000 64.475,366.068 64.333,366.150 64.333 C 366.233 64.333,366.353 63.883,366.417 63.333 C 366.481 62.783,366.595 62.333,366.671 62.333 C 366.747 62.333,366.861 61.921,366.924 61.417 C 366.987 60.912,367.096 60.500,367.167 60.500 C 367.237 60.500,367.346 60.087,367.409 59.583 C 367.472 59.079,367.594 58.667,367.679 58.667 C 367.764 58.667,367.833 58.446,367.833 58.177 C 367.833 57.907,367.898 57.646,367.978 57.597 C 368.058 57.548,368.172 57.134,368.233 56.677 C 368.293 56.221,368.408 55.807,368.488 55.757 C 368.568 55.708,368.686 55.217,368.750 54.667 C 368.814 54.117,368.928 53.667,369.004 53.667 C 369.080 53.667,369.194 53.254,369.257 52.750 C 369.320 52.246,369.430 51.833,369.501 51.833 C 369.572 51.833,369.670 51.590,369.718 51.292 C 369.822 50.649,370.156 49.385,370.346 48.917 C 370.420 48.733,370.529 48.265,370.588 47.876 C 370.647 47.487,370.757 47.131,370.831 47.085 C 370.906 47.038,371.021 46.532,371.087 45.959 C 371.153 45.386,371.275 44.874,371.358 44.821 C 371.441 44.768,371.555 44.337,371.611 43.862 C 371.667 43.388,371.778 43.000,371.857 43.000 C 371.935 43.000,372.000 42.775,372.000 42.500 C 372.000 42.225,372.070 42.000,372.155 42.000 C 372.240 42.000,372.361 41.588,372.424 41.083 C 372.487 40.579,372.596 40.167,372.667 40.167 C 372.737 40.167,372.846 39.754,372.909 39.250 C 372.972 38.746,373.086 38.333,373.162 38.333 C 373.238 38.333,373.353 37.883,373.417 37.333 C 373.481 36.783,373.592 36.333,373.664 36.333 C 373.736 36.333,373.838 36.127,373.891 35.875 C 374.143 34.662,374.429 33.566,374.536 33.401 C 374.601 33.300,374.705 32.888,374.767 32.484 C 374.828 32.080,374.934 31.675,375.002 31.583 C 375.069 31.492,375.176 31.062,375.239 30.629 C 375.301 30.196,375.416 29.802,375.493 29.754 C 375.571 29.706,375.686 29.217,375.750 28.667 C 375.814 28.117,375.934 27.667,376.016 27.667 C 376.099 27.667,376.167 27.484,376.167 27.260 C 376.167 27.036,376.233 26.812,376.314 26.762 C 376.395 26.712,376.513 26.255,376.577 25.747 C 376.640 25.239,376.798 24.619,376.928 24.370 C 377.058 24.121,377.165 23.747,377.166 23.539 C 377.166 23.332,377.238 23.032,377.325 22.873 C 377.412 22.714,377.529 22.227,377.585 21.792 C 377.641 21.356,377.757 21.000,377.844 21.000 C 377.930 21.000,378.000 20.737,378.000 20.417 C 378.000 20.096,378.066 19.833,378.147 19.833 C 378.229 19.833,378.346 19.421,378.409 18.917 C 378.472 18.413,378.586 18.000,378.662 18.000 C 378.738 18.000,378.853 17.550,378.917 17.000 C 378.981 16.450,379.095 16.000,379.171 16.000 C 379.247 16.000,379.361 15.588,379.424 15.083 C 379.487 14.579,379.596 14.167,379.667 14.167 C 379.737 14.167,379.846 13.754,379.909 13.250 C 379.972 12.746,380.094 12.333,380.179 12.333 C 380.264 12.333,380.333 12.113,380.333 11.843 C 380.333 11.574,380.401 11.311,380.484 11.260 C 380.567 11.208,380.687 10.791,380.750 10.333 C 380.813 9.875,380.929 9.461,381.008 9.412 C 381.087 9.363,381.202 8.875,381.264 8.328 C 381.326 7.781,381.436 7.333,381.510 7.333 C 381.583 7.333,381.694 6.921,381.757 6.417 C 381.820 5.912,381.938 5.500,382.019 5.500 C 382.224 5.500,382.206 2.544,382.000 2.417 C 381.908 2.360,381.831 2.187,381.828 2.032 C 381.825 1.877,381.450 1.375,380.994 0.917 L 380.165 0.083 372.374 0.056 C 368.089 0.041,364.348 0.087,364.061 0.156 M390.500 0.149 C 389.217 0.439,386.348 2.605,386.337 3.292 C 386.335 3.406,386.258 3.500,386.167 3.500 C 386.075 3.500,386.000 3.594,385.999 3.708 C 385.998 3.823,385.868 4.142,385.708 4.417 C 385.468 4.831,385.418 5.345,385.418 7.417 C 385.418 9.489,385.468 10.002,385.708 10.417 C 385.868 10.692,385.998 11.010,385.999 11.125 C 386.000 11.240,386.075 11.333,386.167 11.333 C 386.258 11.333,386.333 11.417,386.333 11.520 C 386.333 12.315,389.688 14.667,390.823 14.667 C 391.104 14.667,391.333 14.742,391.333 14.833 C 391.333 14.931,391.913 15.000,392.740 15.000 C 393.514 15.000,394.193 14.925,394.250 14.833 C 394.307 14.742,394.547 14.667,394.785 14.667 C 396.036 14.667,398.674 12.569,399.500 10.917 C 399.894 10.129,399.917 9.933,399.917 7.333 L 399.917 4.583 399.336 3.625 C 399.017 3.098,398.698 2.667,398.628 2.667 C 398.557 2.667,398.500 2.565,398.500 2.440 C 398.500 2.315,398.304 2.072,398.065 1.898 C 397.826 1.725,397.529 1.487,397.405 1.370 C 396.286 0.307,392.646 -0.336,390.500 0.149 M394.657 1.817 C 394.710 1.903,394.959 2.025,395.210 2.088 C 395.461 2.151,395.667 2.270,395.667 2.351 C 395.667 2.433,395.773 2.500,395.902 2.500 C 396.178 2.500,397.217 3.471,397.493 3.987 C 397.598 4.182,397.754 4.299,397.840 4.246 C 397.926 4.193,397.955 4.256,397.905 4.387 C 397.855 4.517,397.931 4.741,398.074 4.883 C 398.217 5.026,398.333 5.298,398.333 5.488 C 398.333 5.678,398.390 5.833,398.458 5.833 C 398.527 5.833,398.583 6.546,398.583 7.417 C 398.583 8.287,398.527 9.000,398.458 9.000 C 398.390 9.000,398.333 9.188,398.333 9.417 C 398.333 9.646,398.275 9.833,398.205 9.833 C 398.134 9.833,397.931 10.101,397.755 10.429 C 397.439 11.016,396.942 11.667,396.810 11.667 C 396.773 11.667,396.557 11.312,396.330 10.878 C 396.103 10.444,395.842 9.997,395.750 9.884 C 395.658 9.771,395.490 9.566,395.375 9.429 C 395.260 9.293,395.167 9.090,395.167 8.978 C 395.167 8.867,395.045 8.642,394.897 8.478 C 394.646 8.201,394.663 8.145,395.147 7.661 C 395.433 7.375,395.667 7.034,395.667 6.904 C 395.667 6.773,395.742 6.667,395.833 6.667 C 395.926 6.667,396.000 6.221,396.000 5.663 C 396.000 4.583,395.418 3.333,394.915 3.333 C 394.778 3.333,394.667 3.275,394.667 3.203 C 394.667 3.031,392.312 2.667,391.196 2.667 C 389.575 2.667,389.667 2.382,389.667 7.423 L 389.667 11.833 390.750 11.833 L 391.833 11.833 391.833 10.167 C 391.833 8.839,391.881 8.500,392.070 8.500 C 392.489 8.500,392.833 8.696,392.833 8.934 C 392.833 9.062,392.902 9.167,392.987 9.167 C 393.071 9.167,393.190 9.392,393.250 9.667 C 393.310 9.942,393.429 10.167,393.513 10.167 C 393.598 10.167,393.667 10.274,393.667 10.405 C 393.667 10.536,393.769 10.745,393.895 10.871 C 394.020 10.996,394.175 11.264,394.239 11.466 C 394.343 11.794,394.469 11.833,395.428 11.833 C 396.504 11.833,396.862 12.069,396.083 12.265 C 395.854 12.322,395.667 12.430,395.667 12.505 C 395.667 12.579,395.443 12.689,395.169 12.750 C 394.895 12.810,394.628 12.928,394.575 13.013 C 394.523 13.097,394.302 13.167,394.083 13.167 C 393.865 13.167,393.647 13.230,393.600 13.307 C 393.483 13.496,391.833 13.504,391.833 13.315 C 391.833 13.234,391.650 13.167,391.427 13.167 C 391.203 13.167,390.979 13.100,390.928 13.019 C 390.878 12.938,390.574 12.822,390.252 12.761 C 389.930 12.701,389.667 12.582,389.667 12.497 C 389.667 12.413,389.383 12.180,389.037 11.981 C 388.410 11.620,387.441 10.236,387.232 9.403 C 387.176 9.181,387.064 9.000,386.982 9.000 C 386.900 9.000,386.833 8.287,386.833 7.417 C 386.833 6.546,386.900 5.833,386.982 5.833 C 387.064 5.833,387.179 5.640,387.239 5.403 C 387.388 4.806,388.120 3.660,388.645 3.198 C 389.614 2.348,389.840 2.167,389.934 2.167 C 389.989 2.167,390.269 2.059,390.558 1.926 C 391.497 1.497,394.411 1.419,394.657 1.817 M393.167 4.647 C 393.167 4.728,393.317 4.834,393.500 4.882 C 394.488 5.140,393.682 6.667,392.558 6.667 L 391.833 6.667 391.833 5.583 L 391.833 4.500 392.500 4.500 C 392.867 4.500,393.167 4.566,393.167 4.647 M27.840 20.624 C 27.247 20.657,26.685 20.748,26.590 20.826 C 26.495 20.904,25.910 21.021,25.292 21.086 C 24.673 21.152,24.167 21.272,24.167 21.353 C 24.167 21.434,23.904 21.500,23.583 21.500 C 23.262 21.500,23.000 21.568,23.000 21.651 C 23.000 21.734,22.850 21.763,22.667 21.715 C 22.480 21.666,22.333 21.710,22.333 21.814 C 22.333 21.916,22.150 22.000,21.927 22.000 C 21.703 22.000,21.479 22.065,21.430 22.145 C 21.381 22.224,21.039 22.338,20.670 22.397 C 20.302 22.456,20.000 22.571,20.000 22.654 C 20.000 22.737,19.700 22.855,19.333 22.917 C 18.967 22.979,18.667 23.092,18.667 23.168 C 18.667 23.244,18.442 23.356,18.167 23.417 C 17.892 23.477,17.667 23.596,17.667 23.680 C 17.667 23.764,17.560 23.833,17.430 23.833 C 17.191 23.833,16.154 24.331,16.000 24.519 C 15.954 24.576,15.748 24.674,15.542 24.739 C 15.335 24.803,15.167 24.926,15.167 25.011 C 15.167 25.097,15.069 25.167,14.950 25.167 C 14.769 25.167,13.452 26.025,13.167 26.328 C 13.121 26.377,12.821 26.599,12.500 26.821 C 12.179 27.043,11.857 27.325,11.783 27.446 C 11.710 27.567,11.573 27.667,11.479 27.667 C 11.338 27.667,9.488 29.353,8.778 30.129 C 8.671 30.246,8.265 30.680,7.875 31.094 C 7.485 31.508,7.167 31.918,7.167 32.006 C 7.167 32.095,7.079 32.167,6.972 32.167 C 6.865 32.167,6.820 32.209,6.871 32.260 C 6.923 32.311,6.780 32.555,6.554 32.802 C 6.328 33.048,6.036 33.369,5.905 33.514 C 5.774 33.659,5.667 33.865,5.667 33.972 C 5.667 34.079,5.592 34.167,5.500 34.167 C 5.408 34.167,5.333 34.268,5.333 34.391 C 5.333 34.514,5.144 34.833,4.912 35.099 C 4.681 35.365,4.448 35.752,4.394 35.958 C 4.341 36.165,4.236 36.333,4.162 36.333 C 4.087 36.333,3.977 36.558,3.917 36.833 C 3.856 37.108,3.743 37.333,3.665 37.333 C 3.586 37.333,3.473 37.502,3.413 37.708 C 3.206 38.418,2.918 39.000,2.775 39.000 C 2.696 39.000,2.674 39.112,2.727 39.250 C 2.780 39.388,2.762 39.500,2.689 39.500 C 2.615 39.500,2.411 39.931,2.236 40.458 C 2.061 40.985,1.869 41.454,1.809 41.500 C 1.749 41.546,1.644 41.958,1.577 42.417 C 1.509 42.875,1.404 43.288,1.344 43.333 C 1.163 43.470,0.667 45.170,0.667 45.652 C 0.667 45.899,0.597 46.171,0.512 46.258 C -0.019 46.803,-0.170 58.013,0.330 59.750 C 0.436 60.117,0.594 60.717,0.681 61.083 C 0.768 61.450,0.866 61.825,0.899 61.917 C 0.931 62.008,1.014 62.327,1.083 62.625 C 1.152 62.923,1.264 63.167,1.333 63.167 C 1.401 63.167,1.504 63.457,1.560 63.811 C 1.617 64.166,1.776 64.672,1.914 64.936 C 2.052 65.200,2.165 65.548,2.166 65.708 C 2.166 65.869,2.242 66.000,2.333 66.000 C 2.425 66.000,2.500 66.145,2.500 66.321 C 2.500 66.498,2.612 66.755,2.750 66.893 C 2.887 67.030,3.000 67.254,3.000 67.391 C 3.000 67.527,3.056 67.664,3.125 67.694 C 3.194 67.725,3.475 68.190,3.750 68.728 C 4.557 70.306,4.573 70.333,4.706 70.333 C 4.776 70.333,4.833 70.414,4.833 70.512 C 4.833 70.610,4.927 70.795,5.042 70.923 C 5.533 71.471,5.667 71.662,5.667 71.818 C 5.667 71.909,5.762 72.043,5.879 72.117 C 5.996 72.190,6.211 72.438,6.357 72.667 C 6.503 72.896,6.933 73.411,7.311 73.812 C 7.690 74.213,8.000 74.607,8.000 74.687 C 8.000 74.768,8.112 74.833,8.250 74.833 C 8.387 74.833,8.501 74.927,8.502 75.042 C 8.502 75.156,8.737 75.435,9.024 75.661 C 9.310 75.888,9.863 76.382,10.252 76.761 C 10.642 77.139,11.213 77.626,11.522 77.841 C 11.831 78.057,12.143 78.331,12.217 78.450 C 12.290 78.569,12.441 78.667,12.552 78.667 C 12.663 78.667,12.956 78.854,13.203 79.083 C 13.450 79.313,13.730 79.500,13.826 79.500 C 13.922 79.500,14.000 79.575,14.000 79.667 C 14.000 79.758,14.082 79.833,14.182 79.833 C 14.282 79.833,14.555 79.983,14.788 80.167 C 15.021 80.350,15.352 80.500,15.522 80.500 C 15.693 80.500,15.833 80.574,15.833 80.663 C 15.833 80.753,16.021 80.874,16.250 80.932 C 16.479 80.989,16.667 81.103,16.667 81.185 C 16.667 81.266,16.785 81.333,16.929 81.333 C 17.073 81.333,17.303 81.446,17.440 81.583 C 17.578 81.721,17.835 81.833,18.012 81.833 C 18.189 81.833,18.333 81.905,18.333 81.992 C 18.333 82.080,18.596 82.201,18.917 82.261 C 19.237 82.321,19.500 82.432,19.500 82.508 C 19.500 82.584,19.837 82.697,20.250 82.759 C 20.662 82.821,21.000 82.938,21.000 83.019 C 21.000 83.100,21.173 83.167,21.383 83.167 C 21.594 83.167,21.841 83.241,21.932 83.332 C 22.023 83.423,22.469 83.547,22.923 83.607 C 23.378 83.668,23.789 83.777,23.837 83.850 C 24.046 84.164,27.890 84.348,33.250 84.301 L 38.917 84.250 39.069 83.292 C 39.152 82.765,39.278 82.333,39.348 82.333 C 39.419 82.333,39.528 81.921,39.591 81.417 C 39.654 80.912,39.763 80.500,39.833 80.500 C 39.904 80.500,40.013 80.087,40.076 79.583 C 40.139 79.079,40.252 78.667,40.327 78.667 C 40.402 78.667,40.503 78.423,40.551 78.125 C 40.705 77.178,41.034 75.923,41.175 75.746 C 41.250 75.652,41.364 75.164,41.428 74.663 C 41.492 74.161,41.606 73.671,41.682 73.575 C 41.757 73.479,41.870 73.066,41.932 72.658 C 41.994 72.250,42.103 71.842,42.174 71.750 C 42.244 71.658,42.355 71.227,42.420 70.792 C 42.485 70.356,42.604 70.000,42.686 70.000 C 42.767 70.000,42.833 69.779,42.833 69.510 C 42.833 69.240,42.908 68.973,43.000 68.917 C 43.092 68.860,43.167 68.298,43.167 67.667 C 43.167 67.036,43.092 66.473,43.000 66.417 C 42.908 66.360,42.833 66.202,42.833 66.066 C 42.833 65.809,42.745 65.684,41.917 64.768 C 41.370 64.163,40.525 63.667,40.042 63.667 C 39.872 63.667,39.662 63.597,39.575 63.512 C 39.487 63.425,37.151 63.333,34.300 63.303 C 30.488 63.264,29.130 63.197,28.975 63.042 C 28.860 62.927,28.655 62.833,28.518 62.833 C 28.180 62.833,26.167 61.810,26.167 61.638 C 26.167 61.562,26.061 61.500,25.933 61.500 C 25.473 61.500,22.833 58.667,22.833 58.173 C 22.833 58.078,22.758 58.000,22.667 58.000 C 22.575 58.000,22.500 57.864,22.500 57.699 C 22.500 57.533,22.390 57.251,22.255 57.074 C 22.121 56.896,22.008 56.619,22.005 56.458 C 22.002 56.298,21.930 56.167,21.845 56.167 C 21.760 56.167,21.639 55.754,21.576 55.250 C 21.513 54.746,21.395 54.333,21.314 54.333 C 21.117 54.333,21.124 51.046,21.322 50.924 C 21.407 50.871,21.528 50.417,21.591 49.914 C 21.654 49.411,21.753 48.999,21.811 48.998 C 21.869 48.997,22.065 48.678,22.246 48.290 C 22.662 47.398,23.496 46.010,23.829 45.654 C 23.969 45.505,24.272 45.165,24.502 44.900 C 24.733 44.634,25.295 44.158,25.752 43.842 C 26.209 43.526,26.622 43.213,26.668 43.147 C 26.715 43.081,26.959 42.975,27.210 42.912 C 27.461 42.849,27.667 42.739,27.667 42.667 C 27.667 42.596,27.948 42.485,28.292 42.420 C 28.635 42.356,29.022 42.216,29.150 42.110 C 29.318 41.971,31.507 41.903,36.900 41.867 C 41.361 41.837,44.481 41.753,44.575 41.659 C 44.662 41.571,44.989 41.500,45.301 41.500 C 46.777 41.500,50.364 39.051,50.772 37.765 C 50.828 37.588,51.015 37.291,51.187 37.106 C 51.359 36.922,51.500 36.691,51.501 36.594 C 51.502 36.496,51.618 36.195,51.759 35.924 C 51.900 35.653,52.060 35.109,52.114 34.716 C 52.168 34.322,52.266 34.000,52.333 34.000 C 52.399 34.000,52.499 33.617,52.554 33.149 C 52.610 32.681,52.723 32.212,52.807 32.107 C 52.890 32.002,53.000 31.692,53.050 31.417 C 53.264 30.258,53.524 29.231,53.671 28.964 C 53.758 28.807,53.878 28.263,53.937 27.756 C 53.997 27.248,54.106 26.833,54.179 26.833 C 54.253 26.833,54.359 26.477,54.415 26.042 C 54.471 25.606,54.579 25.135,54.655 24.993 C 54.730 24.852,54.846 24.346,54.912 23.868 C 54.978 23.391,55.099 23.000,55.182 23.000 C 55.265 23.000,55.333 22.779,55.333 22.510 C 55.333 22.240,55.408 21.973,55.500 21.917 C 55.592 21.860,55.667 21.518,55.667 21.157 L 55.667 20.500 42.292 20.532 C 34.935 20.550,28.432 20.591,27.840 20.624 M133.000 20.996 C 133.000 21.273,132.925 21.500,132.833 21.500 C 132.742 21.500,132.667 21.744,132.667 22.042 C 132.668 22.565,132.290 23.930,131.972 24.552 C 131.887 24.718,131.862 24.993,131.916 25.163 C 131.969 25.333,131.936 25.520,131.840 25.579 C 131.745 25.638,131.667 25.869,131.667 26.093 C 131.667 26.317,131.600 26.500,131.519 26.500 C 131.438 26.500,131.318 26.931,131.253 27.458 C 131.188 27.985,131.048 28.522,130.942 28.651 C 130.664 28.990,130.678 33.032,130.958 33.125 C 131.073 33.163,131.167 33.374,131.167 33.594 C 131.167 34.074,131.649 35.333,131.833 35.333 C 131.905 35.333,132.012 35.525,132.071 35.758 C 132.197 36.262,134.216 38.333,134.580 38.333 C 134.719 38.333,134.833 38.402,134.833 38.485 C 134.833 38.711,136.490 39.494,137.212 39.610 C 137.558 39.665,137.881 39.776,137.930 39.855 C 137.980 39.936,146.142 40.000,156.314 40.000 L 174.609 40.000 174.989 40.405 C 175.369 40.810,175.381 42.833,175.003 42.833 C 174.931 42.833,174.820 43.246,174.757 43.750 C 174.694 44.254,174.580 44.667,174.504 44.667 C 174.428 44.667,174.314 45.117,174.250 45.667 C 174.186 46.217,174.066 46.667,173.984 46.667 C 173.901 46.667,173.833 46.850,173.833 47.073 C 173.833 47.297,173.752 47.530,173.653 47.592 C 173.554 47.653,173.518 47.882,173.573 48.102 C 173.629 48.326,173.599 48.500,173.503 48.500 C 173.410 48.500,173.333 48.762,173.333 49.083 C 173.333 49.404,173.263 49.667,173.177 49.667 C 173.091 49.667,172.969 50.023,172.906 50.458 C 172.843 50.894,172.736 51.325,172.668 51.417 C 172.601 51.508,172.494 51.917,172.432 52.325 C 172.370 52.733,172.256 53.146,172.180 53.242 C 172.104 53.338,172.000 53.642,171.949 53.917 C 171.898 54.192,171.731 54.867,171.576 55.417 C 171.422 55.967,171.213 56.810,171.112 57.292 C 171.011 57.773,170.875 58.167,170.809 58.167 C 170.744 58.167,170.639 58.579,170.576 59.083 C 170.513 59.587,170.404 60.000,170.333 60.000 C 170.263 60.000,170.154 60.412,170.091 60.917 C 170.028 61.421,169.915 61.833,169.840 61.833 C 169.765 61.833,169.669 62.077,169.628 62.375 C 169.492 63.358,169.459 63.411,168.337 64.372 C 168.146 64.537,165.584 64.593,156.645 64.628 L 145.199 64.673 144.683 64.157 C 144.399 63.873,144.167 63.534,144.167 63.404 C 144.167 63.273,144.092 63.167,144.000 63.167 C 143.908 63.167,143.833 62.979,143.833 62.750 C 143.833 62.521,143.900 62.333,143.982 62.333 C 144.064 62.333,144.180 62.137,144.240 61.897 C 144.579 60.546,144.790 60.514,153.820 60.462 C 159.961 60.427,161.738 60.370,161.792 60.208 C 161.830 60.094,162.042 60.000,162.264 60.000 C 162.485 60.000,162.667 59.925,162.667 59.833 C 162.667 59.742,162.811 59.667,162.988 59.667 C 163.165 59.667,163.422 59.554,163.560 59.417 C 163.697 59.279,163.879 59.167,163.964 59.167 C 164.225 59.167,166.500 56.851,166.500 56.585 C 166.500 56.446,166.561 56.333,166.635 56.333 C 166.794 56.333,167.500 54.775,167.500 54.425 C 167.500 54.294,167.575 54.140,167.667 54.083 C 167.758 54.027,167.833 53.764,167.833 53.500 C 167.833 53.236,167.901 52.978,167.984 52.926 C 168.067 52.875,168.187 52.458,168.250 52.000 C 168.313 51.542,168.427 51.128,168.504 51.081 C 168.581 51.034,168.696 50.565,168.761 50.039 C 168.826 49.513,168.945 49.040,169.027 48.987 C 169.109 48.935,169.221 48.503,169.278 48.029 C 169.334 47.555,169.444 47.167,169.523 47.167 C 169.602 47.167,169.667 46.829,169.667 46.417 L 169.667 45.667 153.917 45.667 C 145.254 45.667,138.167 45.731,138.167 45.809 C 138.167 45.888,137.626 46.002,136.965 46.064 C 136.305 46.125,135.724 46.241,135.674 46.321 C 135.624 46.402,135.227 46.521,134.792 46.586 C 134.356 46.651,134.000 46.771,134.000 46.852 C 134.000 46.934,133.887 47.000,133.750 47.000 C 133.612 47.000,133.500 47.079,133.500 47.177 C 133.500 47.274,133.431 47.310,133.346 47.258 C 133.204 47.170,132.362 47.460,132.167 47.663 C 132.121 47.711,131.708 47.938,131.250 48.167 C 130.792 48.396,130.357 48.677,130.283 48.792 C 130.210 48.906,130.046 49.000,129.918 49.000 C 129.790 49.000,129.588 49.133,129.468 49.295 C 129.348 49.457,129.048 49.718,128.801 49.875 C 128.032 50.366,125.882 52.680,125.683 53.231 C 125.646 53.333,125.449 53.574,125.244 53.766 C 125.040 53.958,124.821 54.276,124.758 54.474 C 124.696 54.672,124.580 54.833,124.502 54.833 C 124.424 54.833,124.310 55.058,124.250 55.333 C 124.190 55.608,124.090 55.834,124.028 55.835 C 123.858 55.837,123.497 56.694,123.598 56.857 C 123.646 56.936,123.607 57.000,123.510 57.000 C 123.413 57.000,123.333 57.146,123.333 57.323 C 123.333 57.501,123.265 57.689,123.181 57.741 C 123.097 57.793,122.976 58.153,122.912 58.543 C 122.848 58.932,122.738 59.325,122.666 59.417 C 122.595 59.508,122.484 59.977,122.420 60.458 C 122.355 60.940,122.242 61.333,122.169 61.333 C 121.919 61.333,121.798 62.743,121.789 65.750 C 121.781 68.699,121.917 70.333,122.173 70.333 C 122.244 70.333,122.354 70.708,122.417 71.167 C 122.480 71.625,122.593 72.000,122.668 72.000 C 122.743 72.000,122.855 72.300,122.917 72.667 C 122.979 73.033,123.088 73.333,123.160 73.333 C 123.233 73.333,123.333 73.540,123.384 73.792 C 123.435 74.044,123.632 74.416,123.822 74.618 C 124.012 74.820,124.167 75.096,124.167 75.231 C 124.167 75.366,124.269 75.579,124.395 75.704 C 124.520 75.830,124.675 76.097,124.739 76.299 C 124.803 76.501,124.926 76.667,125.011 76.667 C 125.097 76.667,125.167 76.770,125.167 76.897 C 125.167 77.024,125.467 77.399,125.833 77.730 C 126.200 78.061,126.500 78.399,126.500 78.480 C 126.500 78.623,127.007 79.097,128.482 80.333 C 128.864 80.654,129.269 80.993,129.380 81.087 C 129.827 81.461,131.291 82.333,131.473 82.333 C 131.579 82.333,131.667 82.405,131.667 82.492 C 131.667 82.580,131.948 82.703,132.292 82.766 C 132.635 82.830,132.954 82.927,133.000 82.982 C 133.189 83.211,133.832 83.484,134.438 83.594 C 134.793 83.658,135.161 83.771,135.255 83.845 C 136.199 84.587,179.218 84.571,179.472 83.829 C 179.503 83.740,179.679 83.667,179.863 83.667 C 180.183 83.667,181.156 83.207,181.335 82.972 C 181.382 82.910,181.626 82.808,181.877 82.745 C 182.128 82.682,182.333 82.569,182.333 82.493 C 182.333 82.418,182.502 82.303,182.708 82.238 C 182.915 82.173,183.249 81.943,183.450 81.727 C 183.652 81.510,183.859 81.333,183.910 81.333 C 184.170 81.333,186.000 79.533,186.000 79.277 C 186.000 79.168,186.188 78.938,186.417 78.766 C 186.646 78.594,186.833 78.351,186.833 78.227 C 186.833 78.102,186.907 78.000,186.997 78.000 C 187.087 78.000,187.207 77.813,187.265 77.583 C 187.322 77.354,187.430 77.167,187.505 77.167 C 187.579 77.167,187.690 76.942,187.750 76.667 C 187.810 76.392,187.928 76.167,188.011 76.167 C 188.095 76.167,188.211 75.867,188.269 75.500 C 188.328 75.133,188.441 74.833,188.521 74.833 C 188.601 74.833,188.667 74.650,188.667 74.427 C 188.667 74.203,188.736 73.977,188.822 73.924 C 188.907 73.871,189.028 73.416,189.091 72.912 C 189.154 72.408,189.270 71.956,189.348 71.908 C 189.426 71.859,189.540 71.448,189.600 70.993 C 189.660 70.539,189.766 70.167,189.836 70.167 C 189.905 70.167,190.013 69.754,190.076 69.250 C 190.139 68.746,190.252 68.333,190.327 68.333 C 190.402 68.333,190.502 68.090,190.548 67.792 C 190.595 67.494,190.758 66.800,190.912 66.250 C 191.065 65.700,191.279 64.837,191.387 64.333 C 191.495 63.829,191.637 63.335,191.702 63.234 C 191.768 63.134,191.872 62.721,191.933 62.317 C 191.995 61.914,192.101 61.508,192.168 61.417 C 192.236 61.325,192.343 60.895,192.405 60.462 C 192.468 60.029,192.590 59.631,192.676 59.577 C 192.763 59.524,192.833 59.264,192.833 59.000 C 192.833 58.736,192.898 58.479,192.978 58.430 C 193.058 58.381,193.172 57.967,193.233 57.511 C 193.293 57.054,193.408 56.640,193.488 56.590 C 193.568 56.541,193.686 56.050,193.750 55.500 C 193.814 54.950,193.928 54.500,194.004 54.500 C 194.080 54.500,194.194 54.088,194.257 53.583 C 194.320 53.079,194.430 52.667,194.501 52.667 C 194.572 52.667,194.670 52.423,194.718 52.125 C 194.834 51.408,195.172 50.151,195.339 49.816 C 195.412 49.669,195.525 49.200,195.589 48.772 C 195.653 48.345,195.768 47.957,195.845 47.910 C 195.922 47.862,196.035 47.375,196.097 46.828 C 196.159 46.281,196.272 45.833,196.349 45.833 C 196.426 45.833,196.538 45.457,196.600 44.996 C 196.661 44.536,196.776 44.119,196.855 44.070 C 196.935 44.021,197.000 43.775,197.000 43.523 C 197.000 43.272,197.080 42.987,197.178 42.889 C 197.276 42.791,197.399 42.139,197.452 41.439 C 197.505 40.739,197.612 40.167,197.691 40.167 C 197.769 40.167,197.833 39.304,197.833 38.250 C 197.833 37.196,197.769 36.333,197.691 36.333 C 197.612 36.333,197.505 35.761,197.452 35.061 C 197.399 34.361,197.276 33.709,197.178 33.611 C 197.080 33.513,197.000 33.265,197.000 33.060 C 197.000 32.854,196.925 32.640,196.833 32.583 C 196.742 32.527,196.667 32.328,196.667 32.141 C 196.667 31.954,196.557 31.602,196.424 31.359 C 196.290 31.116,196.017 30.542,195.818 30.083 C 195.491 29.332,194.836 28.310,193.789 26.924 C 192.963 25.830,190.750 23.802,189.981 23.433 C 189.808 23.350,189.667 23.225,189.667 23.154 C 189.667 23.084,189.442 22.977,189.167 22.917 C 188.892 22.856,188.667 22.743,188.667 22.665 C 188.667 22.586,188.498 22.470,188.292 22.405 C 188.085 22.341,187.879 22.242,187.833 22.186 C 187.640 21.947,186.671 21.500,186.349 21.500 C 186.157 21.500,186.000 21.435,186.000 21.355 C 186.000 21.275,185.685 21.159,185.300 21.097 C 184.915 21.036,184.491 20.895,184.358 20.784 C 184.171 20.630,178.208 20.573,158.558 20.538 L 133.000 20.493 133.000 20.996 M207.589 21.032 C 207.529 21.335,207.416 21.733,207.337 21.917 C 207.197 22.241,206.958 23.081,206.911 23.417 C 206.809 24.140,206.607 24.833,206.498 24.833 C 206.425 24.833,206.312 25.302,206.246 25.875 C 206.180 26.448,206.059 26.960,205.976 27.013 C 205.892 27.065,205.779 27.497,205.722 27.971 C 205.666 28.445,205.564 28.833,205.495 28.833 C 205.426 28.833,205.330 29.077,205.282 29.375 C 205.180 30.007,204.847 31.271,204.656 31.750 C 204.584 31.933,204.474 32.383,204.414 32.750 C 204.353 33.117,204.240 33.493,204.163 33.587 C 204.085 33.681,203.980 34.201,203.929 34.743 C 203.877 35.286,203.765 35.773,203.678 35.826 C 203.592 35.879,203.470 36.315,203.406 36.795 C 203.342 37.274,203.225 37.667,203.145 37.667 C 203.065 37.667,203.000 37.887,203.000 38.157 C 203.000 38.426,202.918 38.697,202.819 38.759 C 202.719 38.821,202.675 39.012,202.720 39.185 C 202.765 39.358,202.734 39.500,202.651 39.500 C 202.568 39.500,202.500 39.725,202.500 40.000 C 202.500 40.275,202.434 40.500,202.353 40.500 C 202.271 40.500,202.154 40.911,202.091 41.414 C 202.028 41.917,201.914 42.367,201.837 42.414 C 201.761 42.462,201.649 42.894,201.590 43.375 C 201.530 43.856,201.420 44.400,201.345 44.583 C 201.270 44.767,201.127 45.120,201.027 45.368 C 200.928 45.617,200.796 46.198,200.735 46.660 C 200.674 47.122,200.564 47.500,200.491 47.500 C 200.417 47.500,200.306 47.913,200.243 48.419 C 200.179 48.924,200.069 49.374,199.996 49.419 C 199.924 49.464,199.813 49.875,199.750 50.334 C 199.687 50.792,199.576 51.167,199.504 51.167 C 199.431 51.167,199.318 51.598,199.253 52.125 C 199.188 52.652,199.082 53.158,199.019 53.250 C 198.788 53.582,198.481 54.668,198.576 54.821 C 198.629 54.907,198.596 55.024,198.503 55.082 C 198.410 55.139,198.333 55.392,198.333 55.643 C 198.333 55.894,198.256 56.177,198.162 56.271 C 198.068 56.365,197.945 56.830,197.889 57.304 C 197.833 57.779,197.731 58.167,197.663 58.167 C 197.594 58.167,197.487 58.579,197.424 59.083 C 197.361 59.587,197.248 60.000,197.173 60.000 C 197.098 60.000,196.997 60.244,196.950 60.542 C 196.902 60.840,196.833 61.196,196.795 61.333 C 196.758 61.471,196.667 61.846,196.594 62.167 C 196.521 62.487,196.402 62.825,196.330 62.917 C 196.258 63.008,196.145 63.515,196.080 64.042 C 196.015 64.569,195.901 65.000,195.826 65.000 C 195.752 65.000,195.639 65.412,195.576 65.917 C 195.513 66.421,195.405 66.833,195.336 66.833 C 195.266 66.833,195.158 67.225,195.094 67.704 C 195.031 68.183,194.918 68.652,194.844 68.746 C 194.769 68.840,194.660 69.179,194.600 69.500 C 194.366 70.757,194.155 71.538,193.993 71.750 C 193.923 71.842,193.812 72.348,193.747 72.875 C 193.682 73.402,193.567 73.833,193.493 73.833 C 193.418 73.833,193.306 74.246,193.243 74.750 C 193.180 75.254,193.070 75.667,192.999 75.667 C 192.928 75.667,192.830 75.910,192.782 76.208 C 192.662 76.951,192.325 78.171,192.115 78.628 C 191.648 79.641,192.073 82.833,192.674 82.833 C 192.762 82.833,192.833 82.914,192.833 83.012 C 192.833 83.212,193.246 83.667,193.428 83.667 C 193.493 83.667,193.643 83.798,193.760 83.958 C 194.212 84.578,210.833 84.444,210.833 83.821 C 210.833 83.736,210.932 83.667,211.053 83.667 C 211.174 83.667,211.522 83.444,211.826 83.173 C 212.131 82.901,212.425 82.658,212.481 82.631 C 212.696 82.531,213.333 81.502,213.333 81.257 C 213.333 81.116,213.390 81.000,213.459 81.000 C 213.654 81.000,213.974 80.165,214.099 79.333 C 214.161 78.921,214.274 78.505,214.349 78.408 C 214.424 78.312,214.536 77.900,214.599 77.492 C 214.661 77.084,214.767 76.675,214.835 76.583 C 214.903 76.492,215.009 76.062,215.072 75.629 C 215.135 75.196,215.257 74.797,215.343 74.744 C 215.429 74.691,215.500 74.431,215.500 74.167 C 215.500 73.902,215.565 73.646,215.645 73.597 C 215.724 73.548,215.839 73.134,215.900 72.677 C 215.960 72.221,216.075 71.807,216.155 71.757 C 216.235 71.708,216.353 71.217,216.417 70.667 C 216.480 70.117,216.595 69.667,216.671 69.667 C 216.747 69.667,216.861 69.254,216.924 68.750 C 216.987 68.246,217.096 67.833,217.167 67.833 C 217.237 67.833,217.346 67.421,217.409 66.917 C 217.472 66.412,217.585 66.000,217.660 66.000 C 217.735 66.000,217.836 65.756,217.885 65.458 C 218.035 64.527,218.366 63.257,218.503 63.083 C 218.575 62.992,218.688 62.484,218.753 61.956 C 218.819 61.428,218.936 60.956,219.015 60.908 C 219.093 60.859,219.207 60.446,219.267 59.989 C 219.328 59.533,219.442 59.119,219.522 59.070 C 219.602 59.021,219.667 58.764,219.667 58.500 C 219.667 58.236,219.737 57.976,219.824 57.923 C 219.910 57.869,220.032 57.471,220.095 57.038 C 220.157 56.605,220.265 56.175,220.333 56.083 C 220.402 55.992,220.509 55.562,220.572 55.129 C 220.635 54.696,220.749 54.302,220.827 54.254 C 220.904 54.206,221.019 53.717,221.083 53.167 C 221.147 52.617,221.262 52.167,221.338 52.167 C 221.414 52.167,221.528 51.754,221.591 51.250 C 221.654 50.746,221.763 50.333,221.834 50.333 C 221.905 50.333,222.003 50.090,222.051 49.792 C 222.138 49.255,222.462 47.982,222.635 47.500 C 222.808 47.017,223.191 45.406,223.379 44.375 C 223.483 43.802,223.628 43.333,223.701 43.333 C 223.774 43.333,223.833 43.198,223.833 43.033 C 223.833 42.868,223.927 42.528,224.042 42.278 L 224.250 41.822 231.350 41.869 C 236.430 41.903,238.516 41.972,238.683 42.110 C 238.811 42.216,239.198 42.356,239.542 42.420 C 239.885 42.485,240.167 42.604,240.167 42.685 C 240.167 42.767,240.254 42.833,240.360 42.833 C 240.618 42.833,242.134 43.801,242.703 44.329 C 242.952 44.561,243.252 44.833,243.370 44.933 C 243.487 45.034,243.783 45.372,244.027 45.683 C 244.271 45.995,244.628 46.430,244.819 46.651 C 245.010 46.871,245.167 47.152,245.167 47.276 C 245.167 47.399,245.242 47.500,245.333 47.500 C 245.425 47.500,245.500 47.645,245.500 47.821 C 245.500 47.998,245.606 48.249,245.736 48.379 C 245.866 48.508,246.026 48.983,246.092 49.432 C 246.159 49.882,246.292 50.301,246.389 50.363 C 246.638 50.524,246.639 54.381,246.390 54.683 C 246.285 54.812,246.145 55.348,246.080 55.875 C 246.015 56.402,245.901 56.833,245.826 56.833 C 245.752 56.833,245.639 57.246,245.576 57.750 C 245.513 58.254,245.406 58.667,245.337 58.667 C 245.269 58.667,245.167 59.060,245.110 59.541 C 245.053 60.021,244.930 60.440,244.836 60.471 C 244.743 60.502,244.667 60.780,244.667 61.087 C 244.667 61.395,244.588 61.696,244.492 61.755 C 244.396 61.814,244.333 61.987,244.352 62.140 C 244.393 62.468,244.174 63.347,243.993 63.583 C 243.923 63.675,243.812 64.181,243.747 64.708 C 243.682 65.235,243.567 65.667,243.493 65.667 C 243.418 65.667,243.306 66.079,243.243 66.583 C 243.180 67.087,243.062 67.500,242.981 67.500 C 242.900 67.500,242.833 67.727,242.833 68.005 C 242.833 68.283,242.721 68.780,242.583 69.109 C 242.446 69.438,242.333 69.871,242.333 70.070 C 242.333 70.270,242.263 70.505,242.178 70.592 C 242.092 70.679,241.993 71.063,241.959 71.446 C 241.924 71.828,241.815 72.241,241.716 72.362 C 241.618 72.484,241.483 72.996,241.417 73.500 C 241.350 74.004,241.227 74.502,241.142 74.607 C 241.058 74.712,240.943 75.181,240.888 75.649 C 240.832 76.117,240.731 76.500,240.662 76.500 C 240.551 76.500,240.388 77.185,240.294 78.042 C 240.276 78.202,240.203 78.333,240.131 78.333 C 240.059 78.333,240.000 78.554,240.000 78.823 C 240.000 79.093,239.925 79.360,239.833 79.417 C 239.742 79.473,239.667 79.965,239.667 80.510 C 239.667 81.059,239.741 81.500,239.833 81.500 C 239.925 81.500,240.000 81.682,240.000 81.905 C 240.000 82.127,240.112 82.422,240.250 82.560 C 240.387 82.697,240.500 82.858,240.500 82.918 C 240.500 83.180,241.546 84.036,242.039 84.178 C 243.635 84.636,258.667 84.306,258.667 83.814 C 258.667 83.733,258.769 83.667,258.895 83.667 C 259.207 83.667,261.000 81.893,261.000 81.583 C 261.000 81.446,261.067 81.333,261.149 81.333 C 261.365 81.333,261.833 80.077,261.833 79.497 C 261.833 79.223,261.903 79.000,261.988 79.000 C 262.073 79.000,262.194 78.587,262.257 78.083 C 262.320 77.579,262.429 77.167,262.500 77.167 C 262.571 77.167,262.680 76.754,262.743 76.250 C 262.806 75.746,262.918 75.333,262.993 75.333 C 263.067 75.333,263.182 74.902,263.247 74.375 C 263.313 73.848,263.415 73.342,263.474 73.250 C 263.699 72.898,263.999 71.884,264.103 71.121 C 264.162 70.684,264.271 70.288,264.346 70.242 C 264.420 70.196,264.532 69.804,264.595 69.371 C 264.657 68.938,264.766 68.508,264.836 68.417 C 264.906 68.325,265.016 67.856,265.080 67.375 C 265.145 66.894,265.266 66.500,265.349 66.500 C 265.432 66.500,265.500 66.279,265.500 66.010 C 265.500 65.740,265.565 65.479,265.645 65.430 C 265.724 65.381,265.839 64.967,265.900 64.511 C 265.960 64.054,266.075 63.640,266.155 63.590 C 266.235 63.541,266.353 63.050,266.417 62.500 C 266.480 61.950,266.595 61.500,266.671 61.500 C 266.747 61.500,266.861 61.087,266.924 60.583 C 266.987 60.079,267.097 59.667,267.169 59.667 C 267.241 59.667,267.352 59.142,267.417 58.500 C 267.481 57.858,267.601 57.333,267.684 57.333 C 267.766 57.333,267.833 56.925,267.833 56.427 C 267.833 55.928,267.908 55.473,268.000 55.417 C 268.103 55.353,268.167 53.918,268.167 51.667 C 268.167 49.415,268.103 47.980,268.000 47.917 C 267.908 47.860,267.833 47.406,267.833 46.907 C 267.833 46.408,267.766 46.000,267.684 46.000 C 267.601 46.000,267.481 45.475,267.417 44.833 C 267.352 44.192,267.242 43.667,267.171 43.667 C 267.101 43.667,266.993 43.292,266.932 42.833 C 266.872 42.375,266.758 42.000,266.680 42.000 C 266.602 42.000,266.487 41.662,266.425 41.250 C 266.364 40.837,266.251 40.500,266.175 40.500 C 266.098 40.500,265.988 40.294,265.930 40.042 C 265.803 39.493,264.969 37.773,264.792 37.694 C 264.723 37.664,264.667 37.528,264.667 37.393 C 264.667 37.104,263.895 35.658,263.612 35.416 C 263.505 35.325,263.231 34.893,263.003 34.458 C 262.776 34.023,262.532 33.667,262.462 33.667 C 262.391 33.667,262.333 33.552,262.333 33.411 C 262.333 33.271,262.221 33.113,262.083 33.060 C 261.946 33.008,261.833 32.892,261.833 32.804 C 261.833 32.715,261.740 32.542,261.625 32.419 C 261.510 32.295,261.117 31.841,260.750 31.410 C 259.472 29.905,256.620 27.196,256.129 27.020 C 255.960 26.959,255.361 26.480,254.906 26.042 C 254.788 25.927,254.622 25.833,254.537 25.833 C 254.453 25.833,254.211 25.683,254.000 25.500 C 253.789 25.317,253.515 25.167,253.391 25.167 C 253.268 25.167,253.166 25.110,253.165 25.042 C 253.164 24.973,252.658 24.654,252.040 24.333 C 251.422 24.012,250.878 23.700,250.832 23.638 C 250.785 23.577,250.541 23.475,250.290 23.412 C 250.039 23.349,249.833 23.237,249.833 23.163 C 249.833 23.090,249.533 22.979,249.167 22.917 C 248.800 22.855,248.500 22.737,248.500 22.654 C 248.500 22.571,248.200 22.456,247.833 22.397 C 247.467 22.339,247.167 22.225,247.167 22.145 C 247.167 22.065,246.946 22.000,246.677 22.000 C 246.407 22.000,246.139 21.924,246.082 21.831 C 246.024 21.737,245.912 21.701,245.833 21.750 C 245.754 21.799,245.643 21.763,245.585 21.669 C 245.527 21.576,245.264 21.500,245.000 21.500 C 244.736 21.500,244.479 21.434,244.429 21.353 C 244.379 21.272,243.831 21.152,243.211 21.086 C 242.591 21.019,242.030 20.879,241.964 20.774 C 241.877 20.633,237.375 20.570,224.772 20.532 L 207.698 20.480 207.589 21.032 M296.917 20.620 C 296.367 20.656,295.845 20.756,295.758 20.842 C 295.671 20.929,295.386 21.000,295.123 21.000 C 294.861 21.000,294.684 21.059,294.728 21.132 C 294.773 21.204,294.553 21.234,294.238 21.197 C 293.891 21.156,293.667 21.203,293.667 21.315 C 293.667 21.417,293.460 21.500,293.208 21.501 C 292.956 21.502,292.535 21.614,292.273 21.751 C 292.010 21.888,291.691 22.000,291.564 22.000 C 291.437 22.000,291.333 22.065,291.333 22.145 C 291.333 22.225,291.033 22.339,290.667 22.397 C 290.300 22.456,290.000 22.572,290.000 22.655 C 290.000 22.739,289.775 22.856,289.500 22.917 C 289.225 22.977,288.999 23.077,288.998 23.138 C 288.998 23.200,288.660 23.398,288.248 23.579 C 287.837 23.760,287.500 23.949,287.500 23.999 C 287.500 24.049,287.162 24.275,286.750 24.500 C 286.337 24.725,286.000 24.968,286.000 25.038 C 286.000 25.109,285.904 25.167,285.787 25.167 C 285.670 25.167,285.455 25.298,285.310 25.458 C 285.165 25.619,284.804 25.938,284.509 26.167 C 283.692 26.802,282.836 27.655,281.917 28.753 C 281.458 29.300,280.990 29.847,280.875 29.969 C 280.760 30.091,280.667 30.290,280.667 30.411 C 280.667 30.532,280.554 30.674,280.417 30.727 C 280.279 30.780,280.167 30.938,280.167 31.078 C 280.167 31.218,280.109 31.333,280.039 31.333 C 279.855 31.333,278.833 33.085,278.833 33.401 C 278.833 33.547,278.773 33.667,278.699 33.667 C 278.551 33.667,278.000 34.828,278.000 35.139 C 278.000 35.246,277.917 35.333,277.816 35.333 C 277.714 35.333,277.674 35.446,277.727 35.583 C 277.780 35.721,277.750 35.833,277.661 35.833 C 277.573 35.833,277.500 36.021,277.500 36.250 C 277.500 36.479,277.425 36.667,277.333 36.667 C 277.242 36.667,277.167 36.838,277.167 37.047 C 277.167 37.257,277.017 37.855,276.833 38.377 C 276.650 38.898,276.500 39.515,276.500 39.748 C 276.500 39.981,276.427 40.301,276.339 40.461 C 276.049 40.980,275.667 42.334,275.667 42.839 C 275.667 43.111,275.583 43.333,275.481 43.333 C 275.370 43.333,275.325 43.532,275.368 43.825 C 275.407 44.095,275.378 44.278,275.303 44.231 C 275.228 44.185,275.167 44.376,275.167 44.657 C 275.167 44.937,275.100 45.167,275.019 45.167 C 274.938 45.167,274.820 45.579,274.757 46.083 C 274.694 46.587,274.582 47.000,274.507 47.000 C 274.433 47.000,274.319 47.425,274.254 47.943 C 274.189 48.462,274.077 49.006,274.004 49.152 C 273.571 50.022,273.472 50.320,273.566 50.473 C 273.625 50.567,273.596 50.691,273.503 50.748 C 273.410 50.806,273.333 51.105,273.333 51.413 C 273.333 51.720,273.257 51.998,273.164 52.029 C 273.070 52.060,272.947 52.479,272.890 52.959 C 272.833 53.440,272.731 53.833,272.663 53.833 C 272.594 53.833,272.487 54.246,272.424 54.750 C 272.361 55.254,272.248 55.667,272.173 55.667 C 272.098 55.667,271.999 55.910,271.954 56.208 C 271.908 56.506,271.818 56.938,271.754 57.167 C 271.690 57.396,271.596 57.771,271.546 58.000 C 271.496 58.229,271.399 58.492,271.330 58.583 C 271.261 58.675,271.150 59.163,271.083 59.667 C 271.017 60.171,270.905 60.658,270.834 60.750 C 270.656 60.980,270.342 62.334,270.110 63.862 C 270.004 64.566,269.860 65.197,269.792 65.265 C 269.615 65.440,269.635 68.628,269.814 68.738 C 269.894 68.788,270.013 69.392,270.078 70.080 C 270.142 70.768,270.255 71.368,270.328 71.414 C 270.402 71.459,270.512 71.834,270.574 72.248 C 270.636 72.662,270.748 73.000,270.822 73.000 C 270.897 73.000,271.005 73.300,271.064 73.667 C 271.123 74.033,271.226 74.334,271.294 74.335 C 271.361 74.336,271.565 74.673,271.746 75.085 C 271.927 75.497,272.125 75.833,272.186 75.833 C 272.247 75.833,272.344 76.021,272.402 76.250 C 272.459 76.479,272.580 76.667,272.670 76.667 C 272.760 76.667,272.833 76.750,272.833 76.851 C 272.833 77.134,273.800 78.301,275.000 79.466 C 276.517 80.940,276.588 81.000,276.806 81.000 C 276.913 81.000,277.000 81.068,277.000 81.152 C 277.000 81.304,279.047 82.663,279.288 82.670 C 279.359 82.672,279.867 82.896,280.417 83.167 C 280.967 83.438,281.579 83.661,281.778 83.663 C 281.976 83.665,282.164 83.738,282.194 83.826 C 282.357 84.292,285.066 84.342,307.583 84.297 L 330.583 84.250 331.527 83.729 C 332.973 82.930,335.000 81.056,335.000 80.518 C 335.000 80.417,335.075 80.333,335.167 80.333 C 335.258 80.333,335.333 80.226,335.333 80.095 C 335.333 79.964,335.434 79.756,335.558 79.633 C 335.681 79.509,335.838 79.111,335.906 78.747 C 335.974 78.383,336.079 78.010,336.139 77.918 C 336.365 77.567,336.665 76.553,336.769 75.788 C 336.829 75.350,336.940 74.954,337.017 74.906 C 337.094 74.859,337.206 74.448,337.267 73.993 C 337.327 73.539,337.433 73.167,337.502 73.167 C 337.572 73.167,337.680 72.755,337.742 72.253 C 337.805 71.750,337.923 71.298,338.004 71.248 C 338.085 71.197,338.202 70.709,338.264 70.162 C 338.326 69.614,338.442 69.167,338.522 69.167 C 338.601 69.167,338.667 68.984,338.667 68.760 C 338.667 68.536,338.738 68.309,338.826 68.255 C 338.913 68.201,339.035 67.709,339.097 67.162 C 339.159 66.614,339.280 66.167,339.365 66.167 C 339.451 66.167,339.498 65.923,339.469 65.625 L 339.417 65.083 317.000 65.000 C 304.087 64.952,294.442 64.852,294.250 64.765 C 293.665 64.499,292.833 63.417,292.833 62.923 C 292.833 62.782,292.758 62.667,292.667 62.667 C 292.575 62.667,292.500 62.479,292.500 62.250 C 292.500 62.021,292.567 61.833,292.648 61.833 C 292.730 61.833,292.836 61.590,292.885 61.292 C 293.047 60.286,293.346 59.085,293.505 58.797 C 293.591 58.640,293.711 58.096,293.771 57.589 C 293.830 57.082,293.939 56.667,294.011 56.667 C 294.083 56.667,294.194 56.254,294.257 55.750 C 294.320 55.246,294.438 54.833,294.519 54.833 C 294.600 54.833,294.667 54.617,294.667 54.352 C 294.667 54.088,294.779 53.657,294.916 53.394 C 295.053 53.131,295.165 52.673,295.166 52.375 C 295.166 52.077,295.233 51.833,295.314 51.833 C 295.395 51.833,295.513 51.421,295.576 50.917 C 295.639 50.412,295.752 50.000,295.826 50.000 C 295.901 50.000,296.015 49.569,296.080 49.042 C 296.145 48.515,296.269 47.998,296.355 47.893 C 296.441 47.788,296.557 47.319,296.612 46.851 C 296.668 46.383,296.778 46.000,296.857 46.000 C 296.935 46.000,297.000 45.737,297.000 45.417 C 297.000 45.096,297.070 44.833,297.156 44.833 C 297.243 44.833,297.364 44.495,297.426 44.081 C 297.488 43.668,297.605 43.288,297.686 43.238 C 297.767 43.188,297.833 43.026,297.833 42.879 C 297.833 42.732,297.942 42.493,298.076 42.347 C 299.195 41.128,299.713 40.703,300.247 40.569 C 300.478 40.511,300.667 40.397,300.667 40.315 C 300.667 40.065,322.146 40.124,322.408 40.375 C 322.528 40.490,322.785 40.694,322.980 40.828 C 323.174 40.963,323.333 41.170,323.333 41.287 C 323.333 41.404,323.390 41.500,323.458 41.500 C 323.617 41.500,323.611 42.944,323.452 43.103 C 323.387 43.169,323.333 43.386,323.333 43.586 C 323.333 44.275,322.473 45.667,322.046 45.667 C 321.929 45.667,321.833 45.738,321.833 45.826 C 321.833 45.924,318.766 46.004,313.827 46.034 C 308.259 46.068,305.785 46.139,305.702 46.266 C 305.637 46.366,305.289 46.495,304.930 46.552 C 304.571 46.608,304.233 46.722,304.180 46.805 C 304.127 46.888,303.915 47.008,303.708 47.072 C 303.502 47.136,303.333 47.259,303.333 47.345 C 303.333 47.430,303.227 47.500,303.096 47.500 C 302.801 47.500,300.667 49.624,300.667 49.917 C 300.667 50.035,300.554 50.174,300.417 50.227 C 300.279 50.280,300.167 50.475,300.167 50.661 C 300.167 50.848,300.096 51.000,300.010 51.000 C 299.924 51.000,299.803 51.337,299.741 51.750 C 299.679 52.163,299.570 52.500,299.497 52.500 C 299.425 52.500,299.314 52.950,299.250 53.500 C 299.186 54.050,299.066 54.500,298.984 54.500 C 298.901 54.500,298.833 54.683,298.833 54.907 C 298.833 55.131,298.752 55.364,298.653 55.425 C 298.554 55.486,298.518 55.716,298.573 55.935 C 298.629 56.160,298.599 56.333,298.503 56.333 C 298.410 56.333,298.333 56.554,298.333 56.823 C 298.333 57.093,298.261 57.359,298.171 57.414 C 298.082 57.469,297.960 57.886,297.900 58.340 C 297.840 58.795,297.725 59.167,297.645 59.167 C 297.565 59.167,297.500 59.542,297.500 60.000 L 297.500 60.833 314.667 60.833 C 324.154 60.833,331.833 60.769,331.833 60.690 C 331.833 60.611,332.292 60.505,332.853 60.454 C 333.413 60.403,333.953 60.280,334.053 60.181 C 334.152 60.081,334.406 60.000,334.617 60.000 C 334.827 60.000,335.000 59.925,335.000 59.833 C 335.000 59.742,335.145 59.667,335.321 59.667 C 335.498 59.667,335.755 59.554,335.893 59.417 C 336.030 59.279,336.233 59.167,336.343 59.167 C 336.582 59.167,337.726 58.488,337.806 58.299 C 337.836 58.226,337.933 58.167,338.021 58.167 C 338.386 58.167,341.500 55.110,341.500 54.752 C 341.500 54.614,341.574 54.500,341.663 54.500 C 341.753 54.500,341.874 54.313,341.932 54.083 C 341.989 53.854,342.097 53.667,342.171 53.667 C 342.246 53.667,342.356 53.442,342.417 53.167 C 342.477 52.892,342.577 52.667,342.639 52.667 C 342.774 52.667,343.104 51.934,343.259 51.290 C 343.320 51.037,343.432 50.792,343.507 50.746 C 343.582 50.699,343.695 50.231,343.759 49.706 C 343.822 49.180,343.943 48.664,344.026 48.559 C 344.110 48.454,344.224 47.986,344.279 47.518 C 344.334 47.050,344.444 46.667,344.523 46.667 C 344.602 46.667,344.667 46.446,344.667 46.177 C 344.667 45.907,344.739 45.641,344.829 45.586 C 344.918 45.531,345.040 45.114,345.100 44.660 C 345.160 44.205,345.266 43.833,345.336 43.833 C 345.405 43.833,345.515 43.402,345.580 42.875 C 345.645 42.348,345.781 41.817,345.881 41.695 C 346.132 41.389,346.133 35.019,345.882 34.863 C 345.782 34.801,345.647 34.318,345.581 33.789 C 345.515 33.261,345.395 32.788,345.314 32.738 C 345.233 32.688,345.166 32.520,345.166 32.365 C 345.165 32.210,345.053 31.869,344.916 31.606 C 344.779 31.343,344.667 31.025,344.667 30.898 C 344.667 30.771,344.600 30.667,344.518 30.667 C 344.436 30.667,344.322 30.479,344.265 30.250 C 344.207 30.021,344.093 29.833,344.010 29.833 C 343.927 29.833,343.810 29.608,343.750 29.333 C 343.690 29.058,343.571 28.833,343.487 28.833 C 343.402 28.833,343.333 28.737,343.333 28.620 C 343.333 28.381,342.878 27.761,342.000 26.806 C 341.679 26.456,341.335 26.076,341.234 25.960 C 341.063 25.763,339.582 24.436,338.683 23.673 C 338.463 23.486,338.181 23.333,338.058 23.333 C 337.934 23.333,337.833 23.264,337.833 23.180 C 337.833 23.096,337.608 22.977,337.333 22.917 C 337.058 22.856,336.833 22.739,336.833 22.657 C 336.833 22.574,336.646 22.459,336.417 22.402 C 336.188 22.344,336.000 22.230,336.000 22.149 C 336.000 22.067,335.850 22.000,335.667 22.000 C 335.483 22.000,335.333 21.917,335.333 21.816 C 335.333 21.714,335.221 21.674,335.083 21.727 C 334.946 21.780,334.833 21.750,334.833 21.661 C 334.833 21.573,334.688 21.500,334.510 21.500 C 334.332 21.500,334.145 21.434,334.095 21.353 C 334.045 21.271,333.647 21.152,333.210 21.087 C 332.774 21.022,332.311 20.882,332.183 20.776 C 331.959 20.592,299.575 20.449,296.917 20.620 M161.708 64.958 C 158.844 64.984,154.156 64.984,151.292 64.958 C 148.427 64.933,150.771 64.912,156.500 64.912 C 162.229 64.912,164.573 64.933,161.708 64.958 " stroke="none" fill="#ff691a" fill-rule="evenodd"></path></g></svg>