<svg id="svg" version="1.1" xmlns="http://www.w3.org/2000/svg" xmlns:xlink="http://www.w3.org/1999/xlink" width="400" height="400" viewBox="0, 0, 400,400"><g id="svgg"><path id="path0" d="M123.497 109.188 C 123.493 110.433,125.760 141.036,125.886 141.438 C 125.964 141.686,137.680 141.750,183.367 141.750 C 229.105 141.750,240.751 141.813,240.753 142.063 C 240.761 142.844,238.459 173.939,238.357 174.438 L 238.240 175.000 199.995 175.000 L 161.750 175.000 161.751 175.938 C 161.752 176.453,162.089 183.400,162.500 191.375 C 162.911 199.350,163.248 206.409,163.249 207.063 L 163.250 208.250 199.875 208.250 L 236.500 208.250 236.504 209.313 C 236.511 211.386,234.194 245.628,234.036 245.784 C 233.947 245.871,226.247 248.541,216.924 251.717 L 199.972 257.491 183.049 251.727 C 173.741 248.557,166.052 245.888,165.962 245.794 C 165.872 245.701,165.675 242.363,165.524 238.375 C 165.372 234.387,165.177 229.747,165.090 228.063 L 164.932 225.000 148.341 225.000 L 131.750 225.000 131.756 225.813 C 131.767 227.476,134.201 270.783,134.286 270.841 C 134.335 270.874,149.145 275.764,167.197 281.707 L 200.019 292.514 232.822 281.721 C 250.864 275.784,265.672 270.887,265.729 270.839 C 265.787 270.790,266.938 252.665,268.288 230.562 C 269.638 208.459,271.870 172.262,273.248 150.125 C 274.626 127.987,275.753 109.509,275.752 109.063 L 275.750 108.250 199.625 108.250 L 123.500 108.250 123.497 109.188 " stroke="none" fill="#f4f5f5" fill-rule="evenodd"></path><path id="path1" d="M200.000 87.500 L 200.000 108.250 237.875 108.250 L 275.750 108.250 275.750 109.119 C 275.750 109.597,274.630 127.963,273.261 149.932 C 271.892 171.901,269.697 207.650,268.383 229.375 C 267.068 251.100,265.935 269.325,265.865 269.875 L 265.738 270.876 233.107 281.618 C 215.160 287.526,200.368 292.427,200.236 292.508 C 200.086 292.601,200.021 300.066,200.061 312.542 L 200.125 332.428 246.625 319.144 L 293.125 305.859 293.313 304.992 C 293.503 304.117,314.003 68.715,314.001 67.438 L 314.000 66.750 257.000 66.750 L 200.000 66.750 200.000 87.500 M123.308 109.000 C 123.308 109.481,123.359 109.678,123.422 109.438 C 123.485 109.197,123.485 108.803,123.422 108.563 C 123.359 108.322,123.308 108.519,123.308 109.000 M200.000 158.375 L 200.000 175.000 219.120 175.000 L 238.240 175.000 238.357 174.438 C 238.459 173.939,240.761 142.844,240.753 142.063 C 240.751 141.815,236.507 141.750,220.375 141.750 L 200.000 141.750 200.000 158.375 M161.813 179.875 C 161.816 180.425,161.867 180.621,161.927 180.310 C 161.987 179.999,161.984 179.549,161.922 179.310 C 161.859 179.071,161.810 179.325,161.813 179.875 M162.063 184.875 C 162.066 185.425,162.117 185.621,162.177 185.310 C 162.237 184.999,162.234 184.549,162.172 184.310 C 162.109 184.071,162.060 184.325,162.063 184.875 M162.313 189.875 C 162.316 190.425,162.367 190.621,162.427 190.310 C 162.487 189.999,162.484 189.549,162.422 189.310 C 162.359 189.071,162.310 189.325,162.313 189.875 M162.563 194.625 C 162.566 195.175,162.617 195.371,162.677 195.060 C 162.737 194.749,162.734 194.299,162.672 194.060 C 162.609 193.821,162.560 194.075,162.563 194.625 M162.813 199.625 C 162.816 200.175,162.867 200.371,162.927 200.060 C 162.987 199.749,162.984 199.299,162.922 199.060 C 162.859 198.821,162.810 199.075,162.813 199.625 M163.063 204.625 C 163.066 205.175,163.117 205.371,163.177 205.060 C 163.237 204.749,163.234 204.299,163.172 204.060 C 163.109 203.821,163.060 204.075,163.063 204.625 M181.563 208.437 L 200.000 208.503 200.000 232.856 C 200.000 252.104,199.934 257.235,199.688 257.334 C 199.485 257.416,199.476 257.468,199.660 257.480 C 200.012 257.505,233.813 246.004,234.036 245.784 C 234.194 245.628,236.511 211.386,236.504 209.313 L 236.500 208.250 199.813 208.311 C 179.634 208.344,171.422 208.401,181.563 208.437 M165.072 227.375 C 165.073 228.063,165.122 228.314,165.179 227.934 C 165.237 227.554,165.235 226.992,165.176 226.684 C 165.117 226.377,165.070 226.688,165.072 227.375 M131.808 229.250 C 131.808 229.731,131.859 229.928,131.922 229.688 C 131.985 229.447,131.985 229.053,131.922 228.813 C 131.859 228.572,131.808 228.769,131.808 229.250 M165.322 233.625 C 165.323 234.313,165.372 234.564,165.429 234.184 C 165.487 233.804,165.485 233.242,165.426 232.934 C 165.367 232.627,165.320 232.938,165.322 233.625 M132.063 233.875 C 132.066 234.425,132.117 234.621,132.177 234.310 C 132.237 233.999,132.234 233.549,132.172 233.310 C 132.109 233.071,132.060 233.325,132.063 233.875 M132.313 238.375 C 132.316 238.925,132.367 239.121,132.427 238.810 C 132.487 238.499,132.484 238.049,132.422 237.810 C 132.359 237.571,132.310 237.825,132.313 238.375 M165.572 240.125 C 165.573 240.813,165.622 241.064,165.679 240.684 C 165.737 240.304,165.735 239.742,165.676 239.434 C 165.617 239.127,165.570 239.438,165.572 240.125 M132.563 242.875 C 132.566 243.425,132.617 243.621,132.677 243.310 C 132.737 242.999,132.734 242.549,132.672 242.310 C 132.609 242.071,132.560 242.325,132.563 242.875 M132.808 247.500 C 132.808 247.981,132.859 248.178,132.922 247.938 C 132.985 247.697,132.985 247.303,132.922 247.063 C 132.859 246.822,132.808 247.019,132.808 247.500 M133.063 252.125 C 133.066 252.675,133.117 252.871,133.177 252.560 C 133.237 252.249,133.234 251.799,133.172 251.560 C 133.109 251.321,133.060 251.575,133.063 252.125 M133.313 256.625 C 133.316 257.175,133.367 257.371,133.427 257.060 C 133.487 256.749,133.484 256.299,133.422 256.060 C 133.359 255.821,133.310 256.075,133.313 256.625 M133.558 261.250 C 133.558 261.731,133.609 261.928,133.672 261.688 C 133.735 261.447,133.735 261.053,133.672 260.813 C 133.609 260.572,133.558 260.769,133.558 261.250 M133.808 265.750 C 133.808 266.231,133.859 266.428,133.922 266.188 C 133.985 265.947,133.985 265.553,133.922 265.313 C 133.859 265.072,133.808 265.269,133.808 265.750 " stroke="none" fill="#049ce4" fill-rule="evenodd"></path><path id="path2" d="M58.358 42.938 C 58.444 43.728,64.079 107.481,70.880 184.610 C 77.680 261.738,83.330 324.918,83.435 325.008 C 83.930 325.434,199.774 358.302,200.421 358.200 C 201.443 358.038,316.339 325.203,316.565 325.008 C 316.670 324.918,322.320 261.738,329.120 184.610 C 335.921 107.481,341.556 43.728,341.642 42.938 L 341.799 41.500 200.000 41.500 L 58.201 41.500 58.358 42.938 M314.001 67.438 C 314.003 68.715,293.503 304.117,293.313 304.992 L 293.125 305.859 246.625 319.144 L 200.125 332.428 200.061 312.511 L 199.997 292.593 167.186 281.781 C 149.140 275.834,134.307 270.892,134.223 270.797 C 134.140 270.702,133.547 260.725,132.905 248.625 C 132.264 236.525,131.693 226.259,131.636 225.813 L 131.531 225.000 148.242 225.000 L 164.953 225.000 165.095 226.188 C 165.172 226.841,165.372 231.403,165.537 236.325 C 165.723 241.852,165.941 245.408,166.107 245.621 C 166.337 245.918,199.143 257.250,199.772 257.250 C 199.908 257.250,200.000 247.425,200.000 232.875 L 200.000 208.500 181.625 208.500 C 165.358 208.500,163.250 208.456,163.250 208.120 C 163.250 207.275,161.761 178.012,161.645 176.563 L 161.519 175.000 180.759 175.000 L 200.000 175.000 200.000 158.375 L 200.000 141.750 162.875 141.750 C 142.456 141.750,125.750 141.660,125.750 141.550 C 125.750 141.100,123.507 111.257,123.364 109.813 L 123.210 108.250 161.605 108.250 L 200.000 108.250 200.000 87.500 L 200.000 66.750 257.000 66.750 L 314.000 66.750 314.001 67.438 " stroke="none" fill="#0474bc" fill-rule="evenodd"></path></g></svg>