<svg id="svg" version="1.1" xmlns="http://www.w3.org/2000/svg" xmlns:xlink="http://www.w3.org/1999/xlink" width="400" height="400" viewBox="0, 0, 400,400"><g id="svgg"><path id="path0" d="M188.800 17.023 C 98.828 22.511,25.769 93.175,17.508 182.700 C 6.890 297.775,103.278 393.680,218.200 382.386 C 322.234 372.162,396.784 276.354,381.283 172.800 C 367.238 78.968,283.554 11.242,188.800 17.023 M210.834 32.607 C 313.857 39.558,386.076 136.046,363.668 236.800 C 351.508 291.476,311.963 337.025,259.400 356.899 C 252.947 359.339,240.561 363.115,239.530 362.957 C 239.177 362.903,235.771 356.552,227.593 340.707 C 225.289 336.241,225.217 336.130,224.999 336.707 C 223.367 341.025,203.337 343.959,196.924 340.818 L 195.748 340.243 192.624 341.953 C 176.196 350.944,165.414 355.162,162.980 353.550 C 160.281 351.763,158.395 340.524,157.586 321.400 C 157.280 314.160,157.416 298.703,157.793 297.945 C 159.666 294.179,171.933 297.533,192.900 307.544 C 198.666 310.298,198.223 310.154,199.037 309.542 C 200.857 308.174,205.081 306.615,209.197 305.793 C 210.350 305.562,211.325 305.341,211.365 305.302 C 211.404 305.263,210.896 303.716,210.235 301.865 C 203.763 283.736,200.401 265.960,201.182 254.000 C 201.471 249.579,201.603 248.614,201.901 248.728 C 202.195 248.841,202.553 245.054,202.270 244.819 C 202.177 244.742,201.441 244.151,200.636 243.505 C 193.393 237.700,188.908 228.104,190.201 221.177 C 191.606 213.650,208.138 201.611,221.046 198.716 C 223.029 198.272,224.668 198.113,231.646 197.693 C 243.174 196.999,246.900 196.529,253.992 194.875 C 255.583 194.504,256.948 194.200,257.025 194.200 C 257.227 194.200,257.920 191.054,258.327 188.287 C 261.692 165.395,247.190 125.651,228.477 106.485 C 222.596 100.460,213.267 95.936,202.300 93.788 C 201.154 93.564,201.055 93.496,200.100 92.262 C 185.894 73.923,149.441 62.536,120.866 67.512 C 119.218 67.799,114.004 69.374,114.645 69.391 C 115.397 69.411,130.739 75.697,131.276 76.205 C 131.447 76.368,129.719 76.943,126.500 77.796 C 125.620 78.029,124.090 78.480,123.100 78.798 C 122.110 79.116,120.493 79.615,119.507 79.908 C 116.593 80.773,114.373 83.493,113.498 87.274 C 113.109 88.957,112.922 88.827,115.412 88.594 C 128.130 87.403,147.153 88.835,159.417 91.908 C 163.378 92.900,163.380 92.902,161.600 93.187 C 122.445 99.454,103.706 120.399,103.701 157.900 C 103.700 168.559,104.106 171.438,109.278 197.400 C 114.048 221.348,128.352 289.765,142.184 354.800 C 142.500 356.285,142.722 357.538,142.677 357.585 C 142.567 357.701,138.181 356.033,134.723 354.561 C 53.686 320.058,13.066 229.705,41.090 146.292 C 65.192 74.555,135.423 27.519,210.834 32.607 M233.100 127.087 C 236.579 128.001,239.974 130.505,241.645 133.389 C 242.578 134.998,242.628 134.976,240.381 133.919 C 231.993 129.975,222.416 130.423,217.429 134.994 C 216.333 135.998,216.374 135.594,217.631 133.017 C 220.153 127.847,226.594 125.378,233.100 127.087 M148.100 131.500 C 149.887 131.987,152.338 133.245,153.750 134.397 C 154.944 135.373,155.435 136.047,154.640 135.622 C 152.350 134.396,145.665 133.997,142.219 134.879 C 135.252 136.664,127.727 143.595,127.584 148.359 L 127.567 148.900 127.289 148.265 C 126.316 146.043,126.551 141.875,127.788 139.423 C 130.753 133.550,140.987 129.558,148.100 131.500 M238.100 154.301 C 247.165 156.204,249.869 167.801,242.567 173.458 C 235.482 178.948,225.200 173.882,225.200 164.900 C 225.200 158.037,231.447 152.904,238.100 154.301 M239.284 158.977 C 236.961 160.394,238.049 163.999,240.800 163.999 C 241.929 163.999,242.827 163.469,243.266 162.543 C 244.183 160.610,242.927 158.601,240.800 158.601 C 240.271 158.601,239.646 158.757,239.284 158.977 M154.678 160.194 C 164.131 162.612,167.377 174.385,160.493 181.289 C 153.901 187.901,142.478 185.211,139.580 176.366 C 136.500 166.962,145.104 157.746,154.678 160.194 M155.584 165.455 C 154.548 166.153,154.000 167.102,154.000 168.200 C 154.000 169.298,154.548 170.247,155.584 170.945 C 156.978 171.884,158.884 171.391,159.945 169.816 C 160.884 168.422,160.391 166.516,158.816 165.455 C 158.351 165.142,157.847 165.000,157.200 165.000 C 156.553 165.000,156.049 165.142,155.584 165.455 M201.889 247.689 C 201.814 248.090,201.712 248.379,201.663 248.330 C 201.614 248.281,201.636 247.912,201.711 247.511 C 201.786 247.110,201.888 246.821,201.937 246.870 C 201.986 246.919,201.964 247.288,201.889 247.689 " stroke="none" fill="#f9f9fa" fill-rule="evenodd"></path><path id="path1" d="M188.500 0.209 C 69.072 7.604,-17.172 115.899,2.708 233.505 C 24.419 361.939,161.987 435.711,281.300 382.902 C 387.620 335.844,431.468 206.804,375.898 104.509 C 343.482 44.837,284.098 6.344,215.400 0.477 C 211.091 0.109,193.026 -0.071,188.500 0.209 M213.752 17.087 C 265.176 21.220,311.064 45.420,343.095 85.300 C 386.151 138.906,395.563 212.815,367.293 275.313 C 326.865 364.691,223.299 406.638,132.287 370.498 C 41.631 334.500,-5.000 233.507,26.312 140.982 C 49.975 71.060,114.440 21.571,187.800 17.008 C 189.725 16.888,191.795 16.758,192.400 16.718 C 195.135 16.540,210.175 16.800,213.752 17.087 M190.800 32.620 C 93.001 38.066,20.840 125.521,33.915 222.758 C 41.943 282.466,82.050 333.571,138.422 355.924 C 142.568 357.568,142.651 357.589,142.503 356.950 C 142.014 354.840,122.095 260.287,118.097 241.100 C 103.846 172.696,102.631 165.247,103.579 152.100 C 106.056 117.760,124.550 98.970,161.700 93.049 L 162.700 92.889 160.600 92.343 C 154.307 90.707,147.851 89.644,139.600 88.885 C 132.986 88.276,115.610 88.308,113.520 88.933 C 112.476 89.244,113.798 85.075,115.497 82.694 C 116.673 81.045,117.658 80.324,119.475 79.781 C 120.259 79.547,121.575 79.142,122.400 78.882 C 123.225 78.622,125.025 78.102,126.400 77.726 C 130.564 76.588,131.247 76.366,131.070 76.208 C 130.495 75.696,116.046 69.807,114.604 69.498 C 112.939 69.140,119.525 67.466,125.300 66.779 C 148.675 63.998,174.707 70.917,192.388 84.610 C 195.255 86.829,200.204 91.790,201.120 93.361 C 201.140 93.395,202.313 93.683,203.728 94.000 C 219.786 97.605,228.102 103.495,237.897 118.200 C 253.371 141.429,261.756 172.130,257.885 191.377 C 257.611 192.739,257.432 193.898,257.487 193.953 C 257.601 194.068,270.370 190.904,278.738 188.688 C 290.467 185.582,300.131 182.645,304.142 180.969 C 307.997 179.357,312.511 178.920,318.200 179.606 C 333.343 181.434,337.175 187.834,327.112 194.492 C 318.850 199.957,293.194 210.282,268.200 218.199 C 256.565 221.884,251.888 222.237,239.100 220.397 C 228.901 218.930,225.639 219.788,222.917 224.657 C 217.563 234.231,225.704 242.345,243.200 244.872 C 256.249 246.757,269.512 245.502,292.600 240.198 C 310.402 236.109,314.247 236.033,315.943 239.737 C 318.037 244.312,311.476 250.218,298.700 255.256 C 284.875 260.708,269.695 263.085,258.600 261.536 C 241.958 259.212,215.945 251.793,204.762 246.181 C 203.687 245.641,202.768 245.200,202.720 245.200 C 202.587 245.200,202.438 246.127,202.296 247.838 C 202.202 248.965,202.100 249.349,201.913 249.277 C 201.576 249.148,201.429 250.605,201.271 255.600 C 200.908 267.145,203.449 281.116,208.890 297.500 C 211.479 305.293,211.531 305.422,212.064 305.304 C 214.250 304.822,220.540 304.647,222.761 305.008 C 225.441 305.443,225.792 305.736,226.486 308.121 L 226.900 309.541 230.800 306.760 C 249.301 293.563,260.805 287.661,263.470 290.000 C 269.822 295.577,270.875 341.484,264.698 343.569 C 261.514 344.644,248.630 341.131,230.846 334.338 L 227.993 333.249 227.583 333.824 C 227.358 334.140,226.766 334.637,226.269 334.929 C 225.496 335.381,225.375 335.538,225.442 335.993 C 225.499 336.385,238.948 362.540,239.312 362.968 C 239.576 363.279,252.663 359.302,258.300 357.198 C 334.670 328.691,379.555 249.753,364.889 169.742 C 349.694 86.839,274.912 27.937,190.800 32.620 " stroke="none" fill="#dc5c34" fill-rule="evenodd"></path><path id="path2" d="M259.357 289.812 C 254.387 291.230,243.583 297.642,230.800 306.760 L 226.900 309.541 226.486 308.121 C 225.924 306.189,225.737 305.898,224.817 305.530 C 219.701 303.483,204.250 305.853,199.239 309.453 L 198.251 310.163 193.776 308.007 C 173.312 298.150,160.890 294.518,158.118 297.580 C 157.500 298.263,157.354 301.553,157.472 312.100 C 157.733 335.407,159.865 351.530,162.954 353.554 C 165.314 355.100,175.249 351.249,191.530 342.477 L 195.760 340.198 196.730 340.700 C 201.607 343.225,218.986 341.720,223.606 338.373 C 224.164 337.969,224.610 337.391,224.996 336.575 C 225.425 335.669,225.780 335.236,226.438 334.819 C 226.918 334.514,227.462 334.035,227.646 333.754 L 227.980 333.244 230.840 334.336 C 248.631 341.131,261.513 344.644,264.698 343.569 C 270.854 341.491,269.825 295.580,263.497 290.024 C 262.635 289.267,261.474 289.208,259.357 289.812 " stroke="none" fill="#5aaa4e" fill-rule="evenodd"></path><path id="path3" d="M309.078 179.596 C 307.333 179.844,306.319 180.140,304.517 180.928 C 299.465 183.138,284.787 187.365,265.400 192.193 C 247.515 196.648,245.504 196.977,231.200 197.800 C 223.559 198.240,221.709 198.485,218.300 199.511 C 207.445 202.775,194.172 212.290,190.973 219.100 C 187.333 226.849,194.561 240.963,204.800 246.100 C 218.411 252.928,250.222 261.307,264.877 261.924 C 285.095 262.776,316.183 250.429,316.198 241.542 C 316.207 236.106,311.853 235.876,292.600 240.296 C 269.338 245.637,257.512 246.807,244.100 245.093 C 226.409 242.833,217.571 234.631,222.565 225.106 C 225.371 219.755,228.976 218.766,239.783 220.384 C 254.316 222.560,258.974 221.730,285.700 212.203 C 321.939 199.285,335.288 191.672,332.281 185.637 C 330.275 181.612,317.783 178.360,309.078 179.596 " stroke="none" fill="#fbd30c" fill-rule="evenodd"></path><path id="path4" d="M225.500 126.916 C 221.961 127.702,219.167 129.867,217.631 133.017 C 216.374 135.594,216.333 135.998,217.429 134.994 C 222.416 130.423,231.993 129.975,240.381 133.919 C 242.628 134.976,242.578 134.998,241.645 133.389 C 238.732 128.361,231.698 125.541,225.500 126.916 M140.666 131.284 C 130.393 133.239,124.168 141.140,127.289 148.265 L 127.567 148.900 127.584 148.359 C 127.727 143.595,135.252 136.664,142.219 134.879 C 145.665 133.997,152.350 134.396,154.640 135.622 C 155.435 136.047,154.944 135.373,153.750 134.397 C 150.382 131.647,145.216 130.418,140.666 131.284 M233.700 154.332 C 225.464 156.094,222.322 166.421,228.200 172.410 C 233.453 177.762,242.242 176.422,245.622 169.752 C 249.699 161.705,242.537 152.441,233.700 154.332 M242.316 158.977 C 244.639 160.394,243.551 163.999,240.800 163.999 C 239.671 163.999,238.773 163.469,238.334 162.543 C 237.417 160.610,238.673 158.601,240.800 158.601 C 241.329 158.601,241.954 158.757,242.316 158.977 M149.098 160.003 C 139.372 161.937,135.673 173.881,142.530 181.211 C 147.976 187.034,158.278 185.863,162.364 178.956 C 167.930 169.550,159.763 157.883,149.098 160.003 M158.816 165.455 C 159.852 166.153,160.400 167.102,160.400 168.200 C 160.400 169.298,159.852 170.247,158.816 170.945 C 157.422 171.884,155.516 171.391,154.455 169.816 C 153.516 168.422,154.009 166.516,155.584 165.455 C 156.049 165.142,156.553 165.000,157.200 165.000 C 157.847 165.000,158.351 165.142,158.816 165.455 " stroke="none" fill="#4e61aa" fill-rule="evenodd"></path><path id="path5" d="M197.350 16.749 C 198.808 16.784,201.192 16.784,202.650 16.749 C 204.108 16.715,202.915 16.687,200.000 16.687 C 197.085 16.687,195.893 16.715,197.350 16.749 M190.150 16.941 C 190.398 16.989,190.803 16.989,191.050 16.941 C 191.298 16.893,191.095 16.854,190.600 16.854 C 190.105 16.854,189.903 16.893,190.150 16.941 M208.952 16.941 C 209.201 16.989,209.561 16.987,209.752 16.937 C 209.944 16.887,209.740 16.848,209.300 16.850 C 208.860 16.853,208.704 16.894,208.952 16.941 M186.850 17.138 C 187.043 17.188,187.358 17.188,187.550 17.138 C 187.743 17.088,187.585 17.046,187.200 17.046 C 186.815 17.046,186.658 17.088,186.850 17.138 M197.961 32.349 C 199.094 32.385,200.894 32.385,201.961 32.349 C 203.027 32.313,202.100 32.284,199.900 32.284 C 197.700 32.284,196.827 32.314,197.961 32.349 M191.150 32.541 C 191.398 32.589,191.803 32.589,192.050 32.541 C 192.298 32.493,192.095 32.454,191.600 32.454 C 191.105 32.454,190.903 32.493,191.150 32.541 M207.952 32.541 C 208.201 32.589,208.561 32.587,208.752 32.537 C 208.944 32.487,208.740 32.448,208.300 32.450 C 207.860 32.453,207.704 32.494,207.952 32.541 M187.850 32.738 C 188.043 32.788,188.358 32.788,188.550 32.738 C 188.743 32.688,188.585 32.646,188.200 32.646 C 187.815 32.646,187.658 32.688,187.850 32.738 M132.346 66.344 C 132.701 66.389,133.331 66.389,133.746 66.346 C 134.160 66.303,133.870 66.267,133.100 66.266 C 132.330 66.265,131.990 66.300,132.346 66.344 M138.350 66.345 C 138.708 66.389,139.292 66.389,139.650 66.345 C 140.008 66.300,139.715 66.264,139.000 66.264 C 138.285 66.264,137.993 66.300,138.350 66.345 M73.193 67.550 L 72.100 68.700 73.250 67.607 C 74.318 66.591,74.492 66.400,74.343 66.400 C 74.312 66.400,73.794 66.918,73.193 67.550 M326.600 67.500 C 327.197 68.105,327.731 68.600,327.786 68.600 C 327.841 68.600,327.397 68.105,326.800 67.500 C 326.203 66.895,325.669 66.400,325.614 66.400 C 325.559 66.400,326.003 66.895,326.600 67.500 M67.393 73.350 L 66.300 74.500 67.450 73.407 C 68.083 72.806,68.600 72.288,68.600 72.257 C 68.600 72.108,68.409 72.282,67.393 73.350 M332.400 73.300 C 332.997 73.905,333.531 74.400,333.586 74.400 C 333.641 74.400,333.197 73.905,332.600 73.300 C 332.003 72.695,331.469 72.200,331.414 72.200 C 331.359 72.200,331.803 72.695,332.400 73.300 M85.887 77.050 L 85.300 77.700 85.950 77.113 C 86.556 76.565,86.692 76.400,86.537 76.400 C 86.503 76.400,86.210 76.692,85.887 77.050 M313.400 76.463 C 313.400 76.497,313.693 76.790,314.050 77.113 L 314.700 77.700 314.113 77.050 C 313.565 76.444,313.400 76.308,313.400 76.463 M81.295 81.450 L 79.700 83.100 81.350 81.505 C 82.258 80.627,83.000 79.885,83.000 79.855 C 83.000 79.709,82.777 79.918,81.295 81.450 M318.500 81.400 C 319.375 82.280,320.136 83.000,320.191 83.000 C 320.246 83.000,319.575 82.280,318.700 81.400 C 317.825 80.520,317.064 79.800,317.009 79.800 C 316.954 79.800,317.625 80.520,318.500 81.400 M76.887 86.050 L 76.300 86.700 76.950 86.113 C 77.556 85.565,77.692 85.400,77.537 85.400 C 77.503 85.400,77.210 85.692,76.887 86.050 M322.400 85.463 C 322.400 85.497,322.693 85.790,323.050 86.113 L 323.700 86.700 323.113 86.050 C 322.565 85.444,322.400 85.308,322.400 85.463 M197.000 88.900 C 197.930 89.835,198.736 90.600,198.791 90.600 C 198.846 90.600,198.130 89.835,197.200 88.900 C 196.270 87.965,195.464 87.200,195.409 87.200 C 195.354 87.200,196.070 87.965,197.000 88.900 M121.250 88.346 C 121.663 88.389,122.338 88.389,122.750 88.346 C 123.163 88.303,122.825 88.267,122.000 88.267 C 121.175 88.267,120.838 88.303,121.250 88.346 M129.650 88.346 C 130.063 88.389,130.738 88.389,131.150 88.346 C 131.563 88.303,131.225 88.267,130.400 88.267 C 129.575 88.267,129.238 88.303,129.650 88.346 M117.050 88.538 C 117.243 88.588,117.558 88.588,117.750 88.538 C 117.942 88.488,117.785 88.446,117.400 88.446 C 117.015 88.446,116.858 88.488,117.050 88.538 M134.952 88.541 C 135.201 88.589,135.561 88.587,135.752 88.537 C 135.944 88.487,135.740 88.448,135.300 88.450 C 134.860 88.453,134.704 88.494,134.952 88.541 M229.400 107.500 C 229.773 107.885,230.123 108.200,230.178 108.200 C 230.233 108.200,229.973 107.885,229.600 107.500 C 229.227 107.115,228.877 106.800,228.822 106.800 C 228.767 106.800,229.027 107.115,229.400 107.500 M121.491 110.050 L 120.700 110.900 121.550 110.109 C 122.340 109.374,122.492 109.200,122.341 109.200 C 122.308 109.200,121.925 109.583,121.491 110.050 M118.989 112.550 L 118.300 113.300 119.050 112.611 C 119.748 111.969,119.892 111.800,119.739 111.800 C 119.706 111.800,119.368 112.138,118.989 112.550 M103.646 151.600 C 103.646 151.985,103.688 152.143,103.738 151.950 C 103.788 151.758,103.788 151.442,103.738 151.250 C 103.688 151.058,103.646 151.215,103.646 151.600 M103.480 157.800 C 103.480 159.505,103.511 160.203,103.549 159.350 C 103.586 158.498,103.586 157.103,103.549 156.250 C 103.511 155.398,103.480 156.095,103.480 157.800 M103.646 164.200 C 103.646 164.585,103.688 164.743,103.738 164.550 C 103.788 164.358,103.788 164.043,103.738 163.850 C 103.688 163.658,103.646 163.815,103.646 164.200 M258.650 177.100 C 258.653 177.540,258.694 177.696,258.741 177.448 C 258.789 177.199,258.787 176.839,258.737 176.648 C 258.687 176.456,258.648 176.660,258.650 177.100 M258.646 184.600 C 258.646 184.985,258.688 185.143,258.738 184.950 C 258.788 184.758,258.788 184.442,258.738 184.250 C 258.688 184.058,258.646 184.215,258.646 184.600 M382.846 187.200 C 382.846 187.585,382.888 187.743,382.938 187.550 C 382.988 187.358,382.988 187.043,382.938 186.850 C 382.888 186.658,382.846 186.815,382.846 187.200 M367.246 188.200 C 367.246 188.585,367.288 188.743,367.338 188.550 C 367.388 188.358,367.388 188.043,367.338 187.850 C 367.288 187.658,367.246 187.815,367.246 188.200 M383.054 190.600 C 383.054 191.095,383.093 191.298,383.141 191.050 C 383.189 190.803,383.189 190.398,383.141 190.150 C 383.093 189.903,383.054 190.105,383.054 190.600 M16.850 190.700 C 16.853 191.140,16.894 191.296,16.941 191.048 C 16.989 190.799,16.987 190.439,16.937 190.248 C 16.887 190.056,16.848 190.260,16.850 190.700 M367.454 191.600 C 367.454 192.095,367.493 192.298,367.541 192.050 C 367.589 191.803,367.589 191.398,367.541 191.150 C 367.493 190.903,367.454 191.105,367.454 191.600 M32.450 191.700 C 32.453 192.140,32.494 192.296,32.541 192.048 C 32.589 191.799,32.587 191.439,32.537 191.248 C 32.487 191.056,32.448 191.260,32.450 191.700 M16.687 200.000 C 16.687 202.915,16.715 204.108,16.749 202.650 C 16.784 201.192,16.784 198.808,16.749 197.350 C 16.715 195.893,16.687 197.085,16.687 200.000 M383.287 200.000 C 383.287 202.915,383.315 204.108,383.349 202.650 C 383.384 201.192,383.384 198.808,383.349 197.350 C 383.315 195.893,383.287 197.085,383.287 200.000 M367.684 199.900 C 367.684 202.100,367.713 203.027,367.749 201.961 C 367.785 200.894,367.785 199.094,367.749 197.961 C 367.714 196.827,367.684 197.700,367.684 199.900 M32.284 200.100 C 32.284 202.300,32.313 203.227,32.349 202.161 C 32.385 201.094,32.385 199.294,32.349 198.161 C 32.314 197.027,32.284 197.900,32.284 200.100 M235.352 197.541 C 235.601 197.589,235.961 197.587,236.152 197.537 C 236.344 197.487,236.140 197.448,235.700 197.450 C 235.260 197.453,235.104 197.494,235.352 197.541 M231.952 197.741 C 232.201 197.789,232.561 197.787,232.752 197.737 C 232.944 197.687,232.740 197.648,232.300 197.650 C 231.860 197.653,231.704 197.694,231.952 197.741 M228.352 197.941 C 228.601 197.989,228.961 197.987,229.152 197.937 C 229.344 197.887,229.140 197.848,228.700 197.850 C 228.260 197.853,228.104 197.894,228.352 197.941 M225.050 198.138 C 225.243 198.188,225.558 198.188,225.750 198.138 C 225.943 198.088,225.785 198.046,225.400 198.046 C 225.015 198.046,224.857 198.088,225.050 198.138 M32.454 208.400 C 32.454 208.895,32.493 209.097,32.541 208.850 C 32.589 208.603,32.589 208.197,32.541 207.950 C 32.493 207.703,32.454 207.905,32.454 208.400 M367.450 208.300 C 367.453 208.740,367.494 208.896,367.541 208.648 C 367.589 208.399,367.587 208.039,367.537 207.848 C 367.487 207.656,367.448 207.860,367.450 208.300 M16.854 209.400 C 16.854 209.895,16.893 210.097,16.941 209.850 C 16.989 209.603,16.989 209.197,16.941 208.950 C 16.893 208.703,16.854 208.905,16.854 209.400 M383.050 209.300 C 383.053 209.740,383.094 209.896,383.141 209.648 C 383.189 209.399,383.187 209.039,383.137 208.848 C 383.087 208.656,383.048 208.860,383.050 209.300 M32.646 211.800 C 32.646 212.185,32.688 212.343,32.738 212.150 C 32.788 211.957,32.788 211.643,32.738 211.450 C 32.688 211.257,32.646 211.415,32.646 211.800 M17.046 212.800 C 17.046 213.185,17.088 213.343,17.138 213.150 C 17.188 212.957,17.188 212.643,17.138 212.450 C 17.088 212.257,17.046 212.415,17.046 212.800 M195.291 213.250 L 194.500 214.100 195.350 213.309 C 195.817 212.875,196.200 212.492,196.200 212.459 C 196.200 212.308,196.026 212.460,195.291 213.250 M201.073 257.500 C 201.074 258.600,201.107 259.024,201.148 258.443 C 201.188 257.862,201.188 256.962,201.147 256.443 C 201.106 255.924,201.073 256.400,201.073 257.500 M201.246 262.800 C 201.246 263.185,201.288 263.343,201.338 263.150 C 201.388 262.957,201.388 262.643,201.338 262.450 C 201.288 262.257,201.246 262.415,201.246 262.800 M76.400 313.463 C 76.400 313.497,76.692 313.790,77.050 314.113 L 77.700 314.700 77.113 314.050 C 76.565 313.444,76.400 313.308,76.400 313.463 M322.887 314.050 L 322.300 314.700 322.950 314.113 C 323.556 313.565,323.692 313.400,323.537 313.400 C 323.503 313.400,323.210 313.693,322.887 314.050 M81.300 318.600 C 82.175 319.480,82.936 320.200,82.991 320.200 C 83.046 320.200,82.375 319.480,81.500 318.600 C 80.625 317.720,79.864 317.000,79.809 317.000 C 79.754 317.000,80.425 317.720,81.300 318.600 M318.495 318.650 L 316.900 320.300 318.550 318.705 C 320.082 317.223,320.291 317.000,320.145 317.000 C 320.115 317.000,319.373 317.743,318.495 318.650 M157.457 318.300 C 157.459 318.850,157.498 319.051,157.544 318.747 C 157.589 318.443,157.588 317.993,157.541 317.747 C 157.493 317.501,157.456 317.750,157.457 318.300 M85.400 322.463 C 85.400 322.497,85.692 322.790,86.050 323.113 L 86.700 323.700 86.113 323.050 C 85.565 322.444,85.400 322.308,85.400 322.463 M313.887 323.050 L 313.300 323.700 313.950 323.113 C 314.556 322.565,314.692 322.400,314.537 322.400 C 314.503 322.400,314.210 322.693,313.887 323.050 M157.646 323.600 C 157.646 323.985,157.688 324.143,157.738 323.950 C 157.788 323.757,157.788 323.443,157.738 323.250 C 157.688 323.058,157.646 323.215,157.646 323.600 M67.400 326.700 C 67.997 327.305,68.531 327.800,68.586 327.800 C 68.641 327.800,68.197 327.305,67.600 326.700 C 67.003 326.095,66.469 325.600,66.414 325.600 C 66.359 325.600,66.803 326.095,67.400 326.700 M332.393 326.750 L 331.300 327.900 332.450 326.807 C 333.082 326.206,333.600 325.688,333.600 325.657 C 333.600 325.508,333.409 325.682,332.393 326.750 M73.200 332.500 C 73.797 333.105,74.331 333.600,74.386 333.600 C 74.441 333.600,73.997 333.105,73.400 332.500 C 72.803 331.895,72.269 331.400,72.214 331.400 C 72.159 331.400,72.603 331.895,73.200 332.500 M326.593 332.550 L 325.500 333.700 326.650 332.607 C 327.718 331.591,327.892 331.400,327.743 331.400 C 327.712 331.400,327.194 331.918,326.593 332.550 M212.450 382.938 C 212.643 382.988,212.957 382.988,213.150 382.938 C 213.343 382.888,213.185 382.846,212.800 382.846 C 212.415 382.846,212.257 382.888,212.450 382.938 M190.352 383.141 C 190.601 383.189,190.961 383.187,191.152 383.137 C 191.344 383.087,191.140 383.048,190.700 383.050 C 190.260 383.053,190.104 383.094,190.352 383.141 M208.950 383.141 C 209.197 383.189,209.603 383.189,209.850 383.141 C 210.097 383.093,209.895 383.054,209.400 383.054 C 208.905 383.054,208.703 383.093,208.950 383.141 M197.350 383.349 C 198.808 383.384,201.192 383.384,202.650 383.349 C 204.108 383.315,202.915 383.287,200.000 383.287 C 197.085 383.287,195.893 383.315,197.350 383.349 " stroke="none" fill="#e89782" fill-rule="evenodd"></path><path id="path6" d="M316.250 179.538 C 316.443 179.588,316.757 179.588,316.950 179.538 C 317.143 179.488,316.985 179.446,316.600 179.446 C 316.215 179.446,316.058 179.488,316.250 179.538 M246.552 221.341 C 246.801 221.389,247.161 221.387,247.352 221.337 C 247.544 221.287,247.340 221.248,246.900 221.250 C 246.460 221.253,246.304 221.294,246.552 221.341 M254.152 221.341 C 254.401 221.389,254.761 221.387,254.952 221.337 C 255.144 221.287,254.940 221.248,254.500 221.250 C 254.060 221.253,253.904 221.294,254.152 221.341 M224.392 237.450 C 225.220 238.333,225.400 238.492,225.400 238.342 C 225.400 238.310,224.972 237.882,224.450 237.392 L 223.500 236.500 224.392 237.450 M309.350 237.145 C 309.707 237.189,310.293 237.189,310.650 237.145 C 311.007 237.100,310.715 237.064,310.000 237.064 C 309.285 237.064,308.993 237.100,309.350 237.145 M316.254 241.400 C 316.254 241.895,316.293 242.097,316.341 241.850 C 316.389 241.603,316.389 241.197,316.341 240.950 C 316.293 240.703,316.254 240.905,316.254 241.400 M264.050 245.338 C 264.243 245.388,264.558 245.388,264.750 245.338 C 264.943 245.288,264.785 245.246,264.400 245.246 C 264.015 245.246,263.858 245.288,264.050 245.338 M248.152 245.541 C 248.401 245.589,248.761 245.587,248.952 245.537 C 249.144 245.487,248.940 245.448,248.500 245.450 C 248.060 245.453,247.904 245.494,248.152 245.541 M261.350 245.541 C 261.598 245.589,262.002 245.589,262.250 245.541 C 262.498 245.493,262.295 245.454,261.800 245.454 C 261.305 245.454,261.103 245.493,261.350 245.541 M253.061 245.749 C 254.249 245.785,256.139 245.785,257.261 245.749 C 258.382 245.713,257.410 245.684,255.100 245.685 C 252.790 245.685,251.872 245.714,253.061 245.749 M262.750 261.941 C 262.998 261.989,263.403 261.989,263.650 261.941 C 263.897 261.893,263.695 261.854,263.200 261.854 C 262.705 261.854,262.502 261.893,262.750 261.941 M269.950 261.941 C 270.197 261.989,270.603 261.989,270.850 261.941 C 271.098 261.893,270.895 261.854,270.400 261.854 C 269.905 261.854,269.703 261.893,269.950 261.941 " stroke="none" fill="#ee9c1c" fill-rule="evenodd"></path><path id="path7" d="M193.752 16.741 C 194.001 16.789,194.361 16.787,194.552 16.737 C 194.744 16.687,194.540 16.648,194.100 16.650 C 193.660 16.653,193.504 16.694,193.752 16.741 M205.552 16.741 C 205.801 16.789,206.161 16.787,206.352 16.737 C 206.544 16.687,206.340 16.648,205.900 16.650 C 205.460 16.653,205.304 16.694,205.552 16.741 M192.650 32.538 C 192.843 32.588,193.158 32.588,193.350 32.538 C 193.543 32.488,193.385 32.446,193.000 32.446 C 192.615 32.446,192.458 32.488,192.650 32.538 M206.650 32.538 C 206.843 32.588,207.157 32.588,207.350 32.538 C 207.543 32.488,207.385 32.446,207.000 32.446 C 206.615 32.446,206.457 32.488,206.650 32.538 M84.589 78.350 L 83.900 79.100 84.650 78.411 C 85.063 78.032,85.400 77.694,85.400 77.661 C 85.400 77.508,85.231 77.652,84.589 78.350 M315.200 78.300 C 315.573 78.685,315.923 79.000,315.978 79.000 C 316.033 79.000,315.773 78.685,315.400 78.300 C 315.027 77.915,314.677 77.600,314.622 77.600 C 314.567 77.600,314.827 77.915,315.200 78.300 M78.189 84.750 L 77.500 85.500 78.250 84.811 C 78.663 84.432,79.000 84.094,79.000 84.061 C 79.000 83.908,78.831 84.052,78.189 84.750 M321.600 84.700 C 321.973 85.085,322.323 85.400,322.378 85.400 C 322.433 85.400,322.173 85.085,321.800 84.700 C 321.427 84.315,321.077 84.000,321.022 84.000 C 320.967 84.000,321.227 84.315,321.600 84.700 M124.750 88.349 C 125.547 88.386,126.853 88.386,127.650 88.349 C 128.447 88.311,127.795 88.279,126.200 88.279 C 124.605 88.279,123.953 88.311,124.750 88.349 M103.450 154.100 C 103.453 154.540,103.494 154.696,103.541 154.448 C 103.589 154.199,103.587 153.839,103.537 153.648 C 103.487 153.456,103.448 153.660,103.450 154.100 M103.450 161.500 C 103.453 161.940,103.494 162.096,103.541 161.848 C 103.589 161.599,103.587 161.239,103.537 161.048 C 103.487 160.856,103.448 161.060,103.450 161.500 M32.446 193.000 C 32.446 193.385,32.488 193.543,32.538 193.350 C 32.588 193.158,32.588 192.843,32.538 192.650 C 32.488 192.458,32.446 192.615,32.446 193.000 M367.446 193.000 C 367.446 193.385,367.488 193.543,367.538 193.350 C 367.588 193.158,367.588 192.843,367.538 192.650 C 367.488 192.458,367.446 192.615,367.446 193.000 M16.650 194.100 C 16.653 194.540,16.694 194.696,16.741 194.448 C 16.789 194.199,16.787 193.839,16.737 193.648 C 16.687 193.456,16.648 193.660,16.650 194.100 M383.250 194.100 C 383.253 194.540,383.294 194.696,383.341 194.448 C 383.389 194.199,383.387 193.839,383.337 193.648 C 383.287 193.456,383.248 193.660,383.250 194.100 M16.650 205.900 C 16.653 206.340,16.694 206.496,16.741 206.248 C 16.789 205.999,16.787 205.639,16.737 205.448 C 16.687 205.256,16.648 205.460,16.650 205.900 M383.250 205.900 C 383.253 206.340,383.294 206.496,383.341 206.248 C 383.389 205.999,383.387 205.639,383.337 205.448 C 383.287 205.256,383.248 205.460,383.250 205.900 M32.446 207.000 C 32.446 207.385,32.488 207.543,32.538 207.350 C 32.588 207.157,32.588 206.843,32.538 206.650 C 32.488 206.457,32.446 206.615,32.446 207.000 M367.446 207.000 C 367.446 207.385,367.488 207.543,367.538 207.350 C 367.588 207.157,367.588 206.843,367.538 206.650 C 367.488 206.457,367.446 206.615,367.446 207.000 M78.200 315.300 C 78.573 315.685,78.923 316.000,78.978 316.000 C 79.033 316.000,78.773 315.685,78.400 315.300 C 78.027 314.915,77.677 314.600,77.622 314.600 C 77.567 314.600,77.827 314.915,78.200 315.300 M321.589 315.350 L 320.900 316.100 321.650 315.411 C 322.063 315.032,322.400 314.694,322.400 314.661 C 322.400 314.508,322.231 314.652,321.589 315.350 M84.600 321.700 C 84.973 322.085,85.323 322.400,85.378 322.400 C 85.433 322.400,85.173 322.085,84.800 321.700 C 84.427 321.315,84.077 321.000,84.022 321.000 C 83.967 321.000,84.227 321.315,84.600 321.700 M315.189 321.750 L 314.500 322.500 315.250 321.811 C 315.663 321.432,316.000 321.094,316.000 321.061 C 316.000 320.908,315.831 321.052,315.189 321.750 M334.087 325.050 L 333.500 325.700 334.150 325.113 C 334.756 324.565,334.892 324.400,334.737 324.400 C 334.703 324.400,334.410 324.693,334.087 325.050 M74.400 333.663 C 74.400 333.697,74.692 333.990,75.050 334.313 L 75.700 334.900 75.113 334.250 C 74.565 333.644,74.400 333.508,74.400 333.663 M193.752 383.341 C 194.001 383.389,194.361 383.387,194.552 383.337 C 194.744 383.287,194.540 383.248,194.100 383.250 C 193.660 383.253,193.504 383.294,193.752 383.341 M205.552 383.341 C 205.801 383.389,206.161 383.387,206.352 383.337 C 206.544 383.287,206.340 383.248,205.900 383.250 C 205.460 383.253,205.304 383.294,205.552 383.341 " stroke="none" fill="#e27e60" fill-rule="evenodd"></path></g></svg>