<svg id="svg" version="1.1" xmlns="http://www.w3.org/2000/svg" xmlns:xlink="http://www.w3.org/1999/xlink" width="400" height="400" viewBox="0, 0, 400,400"><g id="svgg"><path id="path0" d="M189.000 66.424 C 185.239 67.281,182.930 67.390,182.707 66.720 C 182.588 66.365,182.188 66.409,181.173 66.888 C 180.418 67.245,178.810 67.926,177.600 68.400 C 176.390 68.874,174.860 69.509,174.200 69.811 C 173.540 70.112,170.480 71.461,167.400 72.808 C 157.542 77.119,148.563 82.198,143.860 86.123 C 142.180 87.524,141.815 87.677,141.144 87.258 C 139.569 86.274,120.608 104.798,118.403 109.473 C 117.658 111.053,116.745 112.426,116.374 112.523 C 115.640 112.715,113.908 116.119,111.037 123.011 C 109.039 127.810,107.420 130.000,105.870 130.000 C 104.804 130.000,103.050 133.141,100.400 139.800 C 100.225 140.240,99.808 141.230,99.475 142.000 C 95.873 150.309,91.930 163.626,92.251 166.400 C 92.416 167.830,92.567 178.900,92.586 191.000 C 92.622 213.912,92.750 216.102,94.586 225.415 C 96.330 234.261,97.784 239.316,101.198 248.400 C 119.338 296.664,164.588 333.801,206.080 334.477 C 214.962 334.621,214.588 334.155,204.400 332.385 C 191.770 330.190,189.191 328.956,181.664 321.498 C 177.805 317.674,177.546 317.490,177.804 318.740 C 178.066 320.006,178.030 320.064,177.141 319.795 C 175.474 319.290,172.299 317.594,170.367 316.176 C 169.333 315.417,167.477 314.333,166.243 313.768 C 163.674 312.592,163.731 312.701,164.844 311.139 C 165.308 310.487,165.623 309.919,165.544 309.877 C 165.465 309.835,164.507 309.350,163.415 308.800 C 161.117 307.642,157.210 304.157,155.981 302.170 C 155.210 300.922,154.966 300.800,153.242 300.800 C 151.074 300.800,150.388 300.231,147.697 296.200 C 145.635 293.112,144.400 290.646,144.400 289.616 C 144.400 288.775,143.439 288.490,143.000 289.200 C 142.732 289.634,138.995 284.842,134.891 278.800 C 131.889 274.380,131.452 273.423,131.983 272.432 C 132.283 271.872,132.103 271.466,131.155 270.558 C 128.829 268.333,128.241 266.993,129.016 265.681 C 129.682 264.553,129.673 264.525,127.697 261.572 C 125.040 257.604,122.426 252.241,122.912 251.754 C 122.979 251.688,123.656 252.167,124.417 252.819 C 125.737 253.950,127.096 254.637,127.404 254.330 C 127.713 254.021,125.230 248.772,123.631 246.354 C 121.550 243.207,120.611 242.491,117.915 241.998 C 115.287 241.517,113.740 239.919,112.175 236.068 C 110.276 231.394,109.954 230.065,110.628 229.688 C 111.117 229.415,110.991 228.901,109.867 226.580 C 108.546 223.854,108.527 223.738,108.869 220.600 C 109.206 217.504,109.178 217.322,108.007 215.000 C 105.131 209.294,104.889 198.297,107.197 178.200 C 107.424 176.220,107.786 172.700,108.000 170.377 C 108.497 164.994,109.035 163.502,113.951 153.860 C 118.411 145.115,118.448 144.999,116.965 144.627 C 115.768 144.327,115.834 144.173,118.947 140.000 C 129.239 126.202,144.975 113.200,151.381 113.200 C 152.336 113.200,154.281 111.421,153.711 111.069 C 153.519 110.950,153.100 111.018,152.781 111.220 C 151.129 112.265,150.647 111.596,152.022 110.166 C 156.227 105.791,160.344 103.629,166.000 102.825 C 170.270 102.218,172.383 101.674,173.045 101.012 C 173.700 100.357,173.303 99.922,172.447 100.358 C 172.091 100.540,171.125 100.792,170.300 100.919 C 168.166 101.247,168.321 100.262,170.500 99.645 C 173.372 98.831,175.399 97.898,179.155 95.660 C 184.683 92.366,190.856 90.539,195.200 90.910 C 196.410 91.013,199.110 90.856,201.200 90.561 C 214.175 88.731,232.283 91.669,243.724 97.462 C 251.682 101.491,261.045 109.847,267.730 118.888 C 273.253 126.356,277.875 135.304,279.670 142.000 C 280.684 145.783,280.907 146.890,281.396 150.587 C 281.687 152.780,282.121 154.640,282.362 154.721 C 282.981 154.927,282.951 175.107,282.326 178.747 C 281.915 181.144,281.936 181.593,282.479 182.136 C 283.603 183.260,283.007 186.568,280.488 193.200 C 278.754 197.768,278.702 197.842,276.623 198.789 C 274.461 199.774,273.600 201.558,273.600 205.054 C 273.600 208.026,273.873 207.648,267.800 213.061 C 260.120 219.905,256.263 222.800,254.822 222.800 C 253.895 222.800,253.770 222.390,254.480 221.680 C 254.763 221.397,254.791 221.200,254.550 221.200 C 254.324 221.200,253.709 221.658,253.182 222.219 C 250.231 225.360,243.069 229.193,241.237 228.612 C 240.848 228.488,239.850 228.670,239.021 229.017 C 215.683 238.768,184.342 217.130,181.786 189.502 C 181.609 187.585,181.343 186.696,180.868 186.429 C 179.113 185.441,180.722 174.204,183.564 167.600 C 192.673 146.434,219.298 136.914,238.136 148.087 C 243.120 151.044,243.419 151.156,242.100 149.566 C 228.467 133.140,197.856 135.195,185.837 153.343 C 184.650 155.134,183.015 157.230,182.204 158.000 C 180.443 159.670,178.770 162.836,176.925 167.990 C 176.178 170.075,175.137 172.550,174.612 173.491 C 172.461 177.338,172.356 189.461,174.396 198.167 C 176.947 209.047,184.387 219.110,197.193 229.000 C 198.617 230.100,200.509 231.724,201.397 232.609 C 203.149 234.354,204.531 234.928,211.500 236.804 C 234.317 242.945,257.038 236.537,275.352 218.796 C 280.286 214.015,280.400 213.938,280.400 215.376 C 280.400 215.913,280.568 216.457,280.774 216.584 C 281.251 216.878,281.766 213.552,281.415 212.448 C 281.159 211.640,282.871 207.535,284.148 205.893 C 284.821 205.028,285.712 205.315,286.411 206.621 C 287.160 208.021,287.356 207.867,287.923 205.429 C 288.200 204.235,289.234 201.614,290.219 199.605 C 293.879 192.141,295.200 188.109,295.200 184.405 C 295.200 182.662,295.329 182.291,296.000 182.116 C 296.624 181.953,296.800 181.570,296.800 180.377 C 296.800 178.360,297.332 178.104,297.953 179.821 C 298.697 181.878,299.200 181.492,299.200 178.866 C 299.200 176.846,300.049 173.276,301.166 170.600 C 302.764 166.774,302.774 166.400,301.280 166.400 C 299.495 166.400,298.150 159.210,299.654 157.706 C 299.993 157.367,299.801 156.611,298.895 154.726 C 297.519 151.861,296.348 148.186,296.699 147.835 C 297.144 147.389,297.415 147.606,298.400 149.200 C 300.132 152.003,300.373 151.396,299.236 147.093 C 298.816 145.502,298.270 142.870,298.024 141.245 C 297.513 137.877,296.290 135.661,295.366 136.428 C 294.420 137.213,293.698 136.543,293.036 134.265 C 291.834 130.130,292.229 128.936,294.726 129.152 C 295.546 129.222,296.346 129.011,296.793 128.606 C 297.838 127.661,300.221 131.369,302.703 137.800 C 303.042 138.680,303.473 139.571,303.660 139.780 C 303.847 139.989,304.000 140.574,304.000 141.080 C 304.000 141.586,304.180 142.000,304.400 142.000 C 304.620 142.000,304.800 142.450,304.800 143.000 C 304.800 143.550,304.980 144.000,305.200 144.000 C 305.726 144.000,305.772 144.227,304.400 140.065 C 303.681 137.883,303.199 135.576,303.198 134.312 C 303.197 133.150,303.004 131.509,302.769 130.664 C 302.166 128.493,303.411 126.894,304.115 128.934 C 304.204 129.190,304.203 128.860,304.115 128.200 C 304.026 127.540,303.802 126.640,303.617 126.200 C 303.433 125.760,302.978 124.680,302.608 123.800 C 297.567 111.829,287.596 98.894,276.804 90.326 C 275.152 89.014,273.458 87.663,273.041 87.324 C 271.716 86.247,266.312 82.800,265.949 82.800 C 265.406 82.800,265.531 83.160,266.400 84.092 C 266.840 84.564,267.200 85.116,267.200 85.318 C 267.200 86.525,261.355 82.290,260.068 80.151 C 258.467 77.490,255.306 76.631,251.436 77.804 C 248.560 78.677,247.486 78.554,244.398 76.999 C 239.713 74.640,236.135 73.303,225.246 69.846 C 219.855 68.134,219.508 68.100,219.675 69.300 C 219.781 70.066,219.651 70.172,218.800 70.011 C 216.905 69.651,210.591 69.853,206.721 70.397 C 203.906 70.792,202.590 70.824,201.921 70.514 L 201.000 70.087 202.200 69.576 C 203.717 68.931,200.183 68.251,195.150 68.221 C 191.844 68.201,191.411 67.737,193.817 66.793 C 197.169 65.478,194.159 65.247,189.000 66.424 M177.632 218.252 C 177.530 219.705,184.854 227.906,189.061 231.050 C 189.907 231.683,190.901 232.471,191.270 232.802 C 200.114 240.742,221.805 247.041,232.592 244.802 C 236.013 244.091,234.830 243.601,229.676 243.593 C 217.928 243.574,207.900 240.651,203.838 236.061 C 203.398 235.564,202.600 235.200,201.950 235.200 C 199.967 235.200,189.287 228.151,188.467 226.301 C 188.283 225.886,187.600 225.921,187.600 226.345 C 187.600 226.534,188.583 227.749,189.785 229.045 C 190.987 230.340,191.963 231.580,191.953 231.800 C 191.944 232.020,191.846 231.975,191.735 231.700 C 191.624 231.425,191.300 231.200,191.015 231.200 C 190.152 231.200,179.830 220.610,179.267 219.147 C 179.193 218.956,178.893 218.800,178.600 218.800 C 178.307 218.800,177.976 218.575,177.865 218.300 C 177.737 217.983,177.652 217.966,177.632 218.252 " stroke="none" fill="#fbf8f9" fill-rule="evenodd"></path><path id="path1" d="M178.500 0.275 C 176.465 0.360,174.800 0.603,174.800 0.815 C 174.800 1.027,173.464 1.200,171.824 1.200 C 170.187 1.200,168.736 1.380,168.600 1.600 C 168.464 1.820,167.463 2.000,166.376 2.000 C 165.289 2.000,164.400 2.180,164.400 2.400 C 164.400 2.620,163.410 2.800,162.200 2.800 C 160.990 2.800,160.000 2.980,160.000 3.200 C 160.000 3.420,159.291 3.600,158.424 3.600 C 157.557 3.600,156.736 3.780,156.600 4.000 C 156.464 4.220,155.553 4.400,154.576 4.400 C 153.599 4.400,152.800 4.580,152.800 4.800 C 152.800 5.020,152.080 5.200,151.200 5.200 C 150.320 5.200,149.600 5.380,149.600 5.600 C 149.600 5.820,148.981 6.000,148.224 6.000 C 147.467 6.000,146.736 6.180,146.600 6.400 C 146.464 6.620,145.823 6.800,145.176 6.800 C 144.529 6.800,144.000 6.980,144.000 7.200 C 144.000 7.420,143.370 7.600,142.600 7.600 C 141.830 7.600,141.200 7.780,141.200 8.000 C 141.200 8.220,140.762 8.400,140.228 8.400 C 139.357 8.400,134.024 9.929,131.700 10.845 C 128.213 12.220,126.654 12.866,125.905 13.247 C 125.523 13.441,124.938 13.600,124.605 13.600 C 124.272 13.600,124.000 13.780,124.000 14.000 C 124.000 14.220,123.460 14.400,122.800 14.400 C 122.140 14.400,121.600 14.580,121.600 14.800 C 121.600 15.020,121.240 15.200,120.800 15.200 C 120.360 15.200,120.000 15.380,120.000 15.600 C 120.000 15.820,119.640 16.000,119.200 16.000 C 118.760 16.000,118.400 16.180,118.400 16.400 C 118.400 16.620,118.128 16.800,117.795 16.800 C 117.462 16.800,116.787 17.008,116.295 17.262 C 114.418 18.233,113.993 18.400,113.405 18.400 C 113.072 18.400,112.800 18.580,112.800 18.800 C 112.800 19.020,112.440 19.200,112.000 19.200 C 111.560 19.200,111.200 19.346,111.200 19.525 C 111.200 19.704,110.570 20.098,109.800 20.400 C 109.030 20.702,108.400 21.096,108.400 21.275 C 108.400 21.454,108.040 21.600,107.600 21.600 C 107.160 21.600,106.800 21.780,106.800 22.000 C 106.800 22.220,106.440 22.400,106.000 22.400 C 105.560 22.400,105.200 22.580,105.200 22.800 C 105.200 23.020,104.880 23.200,104.488 23.200 C 104.097 23.200,103.517 23.560,103.200 24.000 C 102.883 24.440,102.372 24.800,102.066 24.800 C 101.415 24.800,97.463 26.859,97.267 27.300 C 97.193 27.465,96.956 27.600,96.739 27.600 C 96.522 27.600,95.559 28.140,94.600 28.800 C 93.641 29.460,92.703 30.000,92.516 30.000 C 92.329 30.000,91.917 30.360,91.600 30.800 C 91.283 31.240,90.703 31.600,90.312 31.600 C 89.920 31.600,89.600 31.750,89.600 31.932 C 89.600 32.115,89.105 32.519,88.500 32.830 C 87.895 33.140,87.109 33.711,86.753 34.097 C 86.397 34.484,85.852 34.800,85.541 34.800 C 85.231 34.800,84.717 35.160,84.400 35.600 C 84.083 36.040,83.620 36.400,83.371 36.400 C 83.122 36.400,82.354 36.940,81.663 37.600 C 80.972 38.260,80.208 38.800,79.964 38.800 C 79.720 38.800,79.017 39.340,78.400 40.000 C 77.783 40.660,77.158 41.200,77.011 41.200 C 76.863 41.200,76.492 41.425,76.185 41.700 C 75.322 42.474,74.715 42.941,73.200 43.998 C 72.430 44.535,71.170 45.616,70.400 46.400 C 69.630 47.184,68.380 48.262,67.622 48.796 C 65.828 50.058,50.058 65.828,48.796 67.622 C 48.262 68.380,47.184 69.630,46.400 70.400 C 45.616 71.170,44.535 72.430,43.998 73.200 C 42.941 74.715,42.474 75.322,41.700 76.185 C 41.425 76.492,41.200 76.863,41.200 77.011 C 41.200 77.158,40.660 77.783,40.000 78.400 C 39.340 79.017,38.800 79.720,38.800 79.964 C 38.800 80.208,38.260 80.972,37.600 81.663 C 36.940 82.354,36.400 83.122,36.400 83.371 C 36.400 83.620,36.040 84.083,35.600 84.400 C 35.160 84.717,34.800 85.231,34.800 85.541 C 34.800 85.852,34.484 86.397,34.097 86.753 C 33.711 87.109,33.140 87.895,32.830 88.500 C 32.519 89.105,32.115 89.600,31.932 89.600 C 31.750 89.600,31.600 89.920,31.600 90.312 C 31.600 90.703,31.240 91.283,30.800 91.600 C 30.360 91.917,30.000 92.329,30.000 92.516 C 30.000 92.703,29.460 93.641,28.800 94.600 C 28.140 95.559,27.600 96.522,27.600 96.739 C 27.600 96.956,27.465 97.193,27.300 97.267 C 26.859 97.463,24.800 101.415,24.800 102.066 C 24.800 102.372,24.440 102.883,24.000 103.200 C 23.560 103.517,23.200 104.097,23.200 104.488 C 23.200 104.880,23.020 105.200,22.800 105.200 C 22.580 105.200,22.400 105.560,22.400 106.000 C 22.400 106.440,22.220 106.800,22.000 106.800 C 21.780 106.800,21.600 107.160,21.600 107.600 C 21.600 108.040,21.454 108.400,21.275 108.400 C 21.096 108.400,20.702 109.030,20.400 109.800 C 20.098 110.570,19.704 111.200,19.525 111.200 C 19.346 111.200,19.200 111.560,19.200 112.000 C 19.200 112.440,19.020 112.800,18.800 112.800 C 18.580 112.800,18.400 113.072,18.400 113.405 C 18.400 113.738,18.220 114.368,18.000 114.805 C 17.780 115.242,17.420 115.958,17.200 116.395 C 16.980 116.832,16.800 117.462,16.800 117.795 C 16.800 118.128,16.620 118.400,16.400 118.400 C 16.180 118.400,16.000 118.760,16.000 119.200 C 16.000 119.640,15.820 120.000,15.600 120.000 C 15.380 120.000,15.200 120.360,15.200 120.800 C 15.200 121.240,15.020 121.600,14.800 121.600 C 14.580 121.600,14.400 122.140,14.400 122.800 C 14.400 123.460,14.220 124.000,14.000 124.000 C 13.780 124.000,13.600 124.272,13.600 124.605 C 13.600 124.938,13.441 125.523,13.247 125.905 C 13.052 126.287,12.716 127.050,12.500 127.600 C 12.284 128.150,11.879 129.140,11.600 129.800 C 10.225 133.053,8.400 139.002,8.400 140.228 C 8.400 140.762,8.220 141.200,8.000 141.200 C 7.780 141.200,7.600 141.830,7.600 142.600 C 7.600 143.370,7.420 144.000,7.200 144.000 C 6.980 144.000,6.800 144.529,6.800 145.176 C 6.800 145.823,6.620 146.464,6.400 146.600 C 6.180 146.736,6.000 147.467,6.000 148.224 C 6.000 148.981,5.820 149.600,5.600 149.600 C 5.380 149.600,5.200 150.320,5.200 151.200 C 5.200 152.080,5.020 152.800,4.800 152.800 C 4.580 152.800,4.400 153.599,4.400 154.576 C 4.400 155.553,4.220 156.464,4.000 156.600 C 3.780 156.736,3.600 157.557,3.600 158.424 C 3.600 159.291,3.420 160.000,3.200 160.000 C 2.980 160.000,2.800 160.990,2.800 162.200 C 2.800 163.410,2.620 164.400,2.400 164.400 C 2.180 164.400,2.000 165.289,2.000 166.376 C 2.000 167.463,1.820 168.464,1.600 168.600 C 1.380 168.736,1.200 170.172,1.200 171.790 C 1.200 173.789,1.040 174.787,0.700 174.900 C -0.031 175.144,-0.031 224.529,0.700 225.260 C 1.001 225.561,1.200 226.833,1.200 228.456 C 1.200 229.939,1.380 231.264,1.600 231.400 C 1.820 231.536,2.000 232.627,2.000 233.824 C 2.000 235.021,2.180 236.000,2.400 236.000 C 2.620 236.000,2.800 236.900,2.800 238.000 C 2.800 239.100,2.980 240.000,3.200 240.000 C 3.420 240.000,3.600 240.799,3.600 241.776 C 3.600 242.753,3.780 243.664,4.000 243.800 C 4.220 243.936,4.400 244.757,4.400 245.624 C 4.400 246.491,4.580 247.200,4.800 247.200 C 5.020 247.200,5.200 247.920,5.200 248.800 C 5.200 249.680,5.380 250.400,5.600 250.400 C 5.820 250.400,6.000 251.120,6.000 252.000 C 6.000 252.880,6.180 253.600,6.400 253.600 C 6.620 253.600,6.800 254.129,6.800 254.776 C 6.800 255.423,6.980 256.064,7.200 256.200 C 7.420 256.336,7.600 256.977,7.600 257.624 C 7.600 258.271,7.780 258.800,8.000 258.800 C 8.220 258.800,8.400 259.229,8.400 259.754 C 8.400 260.778,9.440 264.553,10.037 265.695 C 10.237 266.077,10.400 266.664,10.400 267.000 C 10.400 267.336,10.559 267.923,10.753 268.305 C 10.948 268.687,11.329 269.540,11.600 270.200 C 11.871 270.860,12.252 271.713,12.447 272.095 C 12.641 272.477,12.800 273.152,12.800 273.595 C 12.800 274.038,12.980 274.400,13.200 274.400 C 13.420 274.400,13.600 274.760,13.600 275.200 C 13.600 275.640,13.780 276.000,14.000 276.000 C 14.220 276.000,14.400 276.540,14.400 277.200 C 14.400 277.860,14.580 278.400,14.800 278.400 C 15.020 278.400,15.200 278.760,15.200 279.200 C 15.200 279.640,15.380 280.000,15.600 280.000 C 15.820 280.000,16.000 280.360,16.000 280.800 C 16.000 281.240,16.180 281.600,16.400 281.600 C 16.620 281.600,16.800 281.955,16.800 282.388 C 16.800 282.821,17.160 283.817,17.600 284.600 C 18.040 285.383,18.400 286.289,18.400 286.612 C 18.400 286.935,18.580 287.200,18.800 287.200 C 19.020 287.200,19.200 287.560,19.200 288.000 C 19.200 288.440,19.346 288.800,19.525 288.800 C 19.704 288.800,20.098 289.430,20.400 290.200 C 20.702 290.970,21.096 291.600,21.275 291.600 C 21.454 291.600,21.600 291.960,21.600 292.400 C 21.600 292.840,21.780 293.200,22.000 293.200 C 22.220 293.200,22.400 293.560,22.400 294.000 C 22.400 294.440,22.580 294.800,22.800 294.800 C 23.020 294.800,23.200 295.160,23.200 295.600 C 23.200 296.040,23.359 296.400,23.553 296.400 C 23.746 296.400,24.589 297.840,25.425 299.600 C 26.260 301.360,27.092 302.800,27.272 302.800 C 27.452 302.800,27.600 302.993,27.600 303.228 C 27.600 303.463,28.140 304.441,28.800 305.400 C 29.460 306.359,30.000 307.337,30.000 307.572 C 30.000 307.807,30.150 308.000,30.332 308.000 C 30.515 308.000,30.920 308.495,31.232 309.100 C 31.545 309.705,32.115 310.549,32.500 310.975 C 32.885 311.402,33.200 311.947,33.200 312.187 C 33.200 312.427,33.560 312.883,34.000 313.200 C 34.440 313.517,34.800 314.057,34.800 314.400 C 34.800 314.743,35.160 315.283,35.600 315.600 C 36.040 315.917,36.400 316.425,36.400 316.728 C 36.400 317.031,36.940 317.783,37.600 318.400 C 38.260 319.017,38.800 319.737,38.800 320.000 C 38.800 320.263,39.340 320.983,40.000 321.600 C 40.660 322.217,41.200 322.919,41.200 323.160 C 41.200 323.402,41.380 323.600,41.600 323.600 C 41.820 323.600,42.000 323.861,42.000 324.180 C 42.000 324.499,42.234 324.904,42.520 325.080 C 42.806 325.256,43.474 326.030,44.005 326.800 C 44.535 327.570,45.433 328.650,46.000 329.200 C 46.567 329.750,47.467 330.821,47.999 331.580 C 49.260 333.376,66.624 350.740,68.420 352.001 C 69.179 352.533,70.250 353.433,70.800 354.000 C 71.350 354.567,72.430 355.470,73.200 356.007 C 73.970 356.543,75.013 357.392,75.518 357.891 C 76.023 358.391,76.626 358.800,76.858 358.800 C 77.089 358.800,77.783 359.340,78.400 360.000 C 79.017 360.660,79.737 361.200,80.000 361.200 C 80.263 361.200,80.983 361.740,81.600 362.400 C 82.217 363.060,82.969 363.600,83.272 363.600 C 83.575 363.600,84.083 363.960,84.400 364.400 C 84.717 364.840,85.231 365.200,85.541 365.200 C 85.852 365.200,86.397 365.516,86.753 365.903 C 87.109 366.289,87.895 366.860,88.500 367.170 C 89.105 367.481,89.600 367.885,89.600 368.068 C 89.600 368.250,89.920 368.400,90.312 368.400 C 90.703 368.400,91.283 368.760,91.600 369.200 C 91.917 369.640,92.329 370.000,92.516 370.000 C 92.703 370.000,93.641 370.540,94.600 371.200 C 95.559 371.860,96.537 372.400,96.772 372.400 C 97.007 372.400,97.200 372.542,97.200 372.716 C 97.200 373.113,101.277 375.200,102.052 375.200 C 102.366 375.200,102.883 375.560,103.200 376.000 C 103.517 376.440,104.097 376.800,104.488 376.800 C 104.880 376.800,105.200 376.980,105.200 377.200 C 105.200 377.420,105.560 377.600,106.000 377.600 C 106.440 377.600,106.800 377.780,106.800 378.000 C 106.800 378.220,107.160 378.400,107.600 378.400 C 108.040 378.400,108.400 378.546,108.400 378.725 C 108.400 378.904,109.030 379.298,109.800 379.600 C 110.570 379.902,111.200 380.296,111.200 380.475 C 111.200 380.654,111.560 380.800,112.000 380.800 C 112.440 380.800,112.800 380.980,112.800 381.200 C 112.800 381.420,113.072 381.600,113.405 381.600 C 113.738 381.600,114.368 381.780,114.805 382.000 C 115.242 382.220,115.958 382.580,116.395 382.800 C 116.832 383.020,117.462 383.200,117.795 383.200 C 118.128 383.200,118.400 383.380,118.400 383.600 C 118.400 383.820,118.760 384.000,119.200 384.000 C 119.640 384.000,120.000 384.180,120.000 384.400 C 120.000 384.620,120.360 384.800,120.800 384.800 C 121.240 384.800,121.600 384.980,121.600 385.200 C 121.600 385.420,122.140 385.600,122.800 385.600 C 123.460 385.600,124.000 385.780,124.000 386.000 C 124.000 386.220,124.360 386.400,124.800 386.400 C 125.240 386.400,125.600 386.580,125.600 386.800 C 125.600 387.020,125.962 387.200,126.405 387.200 C 126.848 387.200,127.523 387.359,127.905 387.553 C 128.287 387.748,129.140 388.129,129.800 388.400 C 130.460 388.671,131.313 389.052,131.695 389.247 C 132.077 389.441,132.741 389.600,133.171 389.600 C 133.601 389.600,134.064 389.780,134.200 390.000 C 134.336 390.220,134.876 390.400,135.400 390.400 C 135.924 390.400,136.456 390.567,136.583 390.772 C 136.709 390.977,137.800 391.267,139.006 391.418 C 140.213 391.569,141.200 391.851,141.200 392.046 C 141.200 392.241,141.729 392.400,142.376 392.400 C 143.023 392.400,143.664 392.580,143.800 392.800 C 143.936 393.020,144.566 393.200,145.200 393.200 C 145.834 393.200,146.464 393.380,146.600 393.600 C 146.736 393.820,147.467 394.000,148.224 394.000 C 148.981 394.000,149.600 394.180,149.600 394.400 C 149.600 394.620,150.320 394.800,151.200 394.800 C 152.080 394.800,152.800 394.980,152.800 395.200 C 152.800 395.420,153.509 395.600,154.376 395.600 C 155.243 395.600,156.064 395.780,156.200 396.000 C 156.336 396.220,157.247 396.400,158.224 396.400 C 159.201 396.400,160.000 396.580,160.000 396.800 C 160.000 397.020,160.900 397.200,162.000 397.200 C 163.100 397.200,164.000 397.380,164.000 397.600 C 164.000 397.822,165.059 398.000,166.376 398.000 C 167.683 398.000,168.864 398.180,169.000 398.400 C 169.136 398.620,170.371 398.800,171.744 398.800 C 173.207 398.800,174.447 399.007,174.740 399.300 C 175.129 399.689,180.725 399.800,200.000 399.800 C 219.275 399.800,224.871 399.689,225.260 399.300 C 225.553 399.007,226.793 398.800,228.256 398.800 C 229.629 398.800,230.864 398.620,231.000 398.400 C 231.136 398.180,232.216 398.000,233.400 398.000 C 234.584 398.000,235.664 397.820,235.800 397.600 C 235.936 397.380,236.937 397.200,238.024 397.200 C 239.111 397.200,240.000 397.020,240.000 396.800 C 240.000 396.580,240.799 396.400,241.776 396.400 C 242.753 396.400,243.664 396.220,243.800 396.000 C 243.936 395.780,244.757 395.600,245.624 395.600 C 246.491 395.600,247.200 395.420,247.200 395.200 C 247.200 394.980,247.920 394.800,248.800 394.800 C 249.680 394.800,250.400 394.620,250.400 394.400 C 250.400 394.180,251.019 394.000,251.776 394.000 C 252.533 394.000,253.264 393.820,253.400 393.600 C 253.536 393.380,254.177 393.200,254.824 393.200 C 255.471 393.200,256.000 393.020,256.000 392.800 C 256.000 392.580,256.630 392.400,257.400 392.400 C 258.170 392.400,258.800 392.241,258.800 392.046 C 258.800 391.851,259.787 391.569,260.994 391.418 C 262.200 391.267,263.291 390.977,263.417 390.772 C 263.544 390.567,264.051 390.400,264.544 390.400 C 265.037 390.400,265.611 390.257,265.820 390.082 C 266.029 389.907,266.920 389.535,267.800 389.255 C 269.474 388.724,270.922 388.150,272.095 387.553 C 272.477 387.359,273.152 387.200,273.595 387.200 C 274.038 387.200,274.400 387.020,274.400 386.800 C 274.400 386.580,274.760 386.400,275.200 386.400 C 275.640 386.400,276.000 386.220,276.000 386.000 C 276.000 385.780,276.439 385.600,276.976 385.600 C 277.513 385.600,278.064 385.420,278.200 385.200 C 278.336 384.980,278.797 384.800,279.224 384.800 C 279.651 384.800,280.000 384.620,280.000 384.400 C 280.000 384.180,280.360 384.000,280.800 384.000 C 281.240 384.000,281.600 383.820,281.600 383.600 C 281.600 383.380,281.872 383.200,282.205 383.200 C 282.538 383.200,283.123 383.038,283.505 382.841 C 283.887 382.643,285.820 381.700,287.800 380.745 C 289.780 379.789,291.460 378.871,291.533 378.704 C 291.607 378.537,292.012 378.400,292.433 378.400 C 292.855 378.400,293.200 378.220,293.200 378.000 C 293.200 377.780,293.560 377.600,294.000 377.600 C 294.440 377.600,294.800 377.420,294.800 377.200 C 294.800 376.980,295.036 376.800,295.325 376.800 C 295.613 376.800,296.204 376.469,296.638 376.065 C 297.072 375.661,297.950 375.199,298.589 375.039 C 299.228 374.878,300.240 374.399,300.837 373.973 C 301.435 373.548,302.121 373.200,302.362 373.200 C 302.603 373.200,302.800 373.020,302.800 372.800 C 302.800 372.580,302.993 372.400,303.228 372.400 C 303.463 372.400,304.441 371.860,305.400 371.200 C 306.359 370.540,307.297 370.000,307.484 370.000 C 307.671 370.000,308.083 369.640,308.400 369.200 C 308.717 368.760,309.257 368.400,309.600 368.400 C 309.943 368.400,310.483 368.040,310.800 367.600 C 311.117 367.160,311.657 366.800,312.000 366.800 C 312.343 366.800,312.883 366.440,313.200 366.000 C 313.517 365.560,314.057 365.200,314.400 365.200 C 314.743 365.200,315.283 364.840,315.600 364.400 C 315.917 363.960,316.380 363.600,316.629 363.600 C 316.878 363.600,317.646 363.060,318.337 362.400 C 319.028 361.740,319.792 361.200,320.036 361.200 C 320.280 361.200,320.983 360.660,321.600 360.000 C 322.217 359.340,322.874 358.800,323.061 358.800 C 323.247 358.800,324.188 358.080,325.151 357.200 C 326.113 356.320,327.046 355.600,327.224 355.600 C 327.401 355.600,328.471 354.700,329.600 353.600 C 330.729 352.500,331.818 351.600,332.018 351.600 C 332.496 351.600,351.600 332.496,351.600 332.018 C 351.600 331.818,352.500 330.729,353.600 329.600 C 354.700 328.471,355.600 327.401,355.600 327.224 C 355.600 327.046,356.320 326.113,357.200 325.151 C 358.080 324.188,358.800 323.247,358.800 323.061 C 358.800 322.874,359.340 322.217,360.000 321.600 C 360.660 320.983,361.200 320.280,361.200 320.036 C 361.200 319.792,361.740 319.028,362.400 318.337 C 363.060 317.646,363.600 316.878,363.600 316.629 C 363.600 316.380,363.960 315.917,364.400 315.600 C 364.840 315.283,365.200 314.743,365.200 314.400 C 365.200 314.057,365.560 313.517,366.000 313.200 C 366.440 312.883,366.800 312.343,366.800 312.000 C 366.800 311.657,367.160 311.117,367.600 310.800 C 368.040 310.483,368.400 309.943,368.400 309.600 C 368.400 309.257,368.760 308.717,369.200 308.400 C 369.640 308.083,370.000 307.671,370.000 307.484 C 370.000 307.297,370.540 306.359,371.200 305.400 C 371.860 304.441,372.400 303.463,372.400 303.228 C 372.400 302.993,372.580 302.800,372.800 302.800 C 373.020 302.800,373.200 302.603,373.200 302.362 C 373.200 302.121,373.548 301.435,373.973 300.837 C 374.399 300.240,374.878 299.228,375.039 298.589 C 375.199 297.950,375.661 297.072,376.065 296.638 C 376.469 296.204,376.800 295.613,376.800 295.325 C 376.800 295.036,376.980 294.800,377.200 294.800 C 377.420 294.800,377.600 294.440,377.600 294.000 C 377.600 293.560,377.780 293.200,378.000 293.200 C 378.220 293.200,378.400 292.855,378.400 292.433 C 378.400 292.012,378.537 291.607,378.704 291.533 C 378.871 291.460,379.789 289.780,380.745 287.800 C 381.700 285.820,382.643 283.887,382.841 283.505 C 383.038 283.123,383.200 282.538,383.200 282.205 C 383.200 281.872,383.380 281.600,383.600 281.600 C 383.820 281.600,384.000 281.240,384.000 280.800 C 384.000 280.360,384.180 280.000,384.400 280.000 C 384.620 280.000,384.800 279.651,384.800 279.224 C 384.800 278.797,384.980 278.336,385.200 278.200 C 385.420 278.064,385.600 277.513,385.600 276.976 C 385.600 276.439,385.780 276.000,386.000 276.000 C 386.220 276.000,386.400 275.640,386.400 275.200 C 386.400 274.760,386.580 274.400,386.800 274.400 C 387.020 274.400,387.200 274.038,387.200 273.595 C 387.200 273.152,387.359 272.477,387.553 272.095 C 388.029 271.160,388.618 269.693,389.200 268.000 C 389.464 267.230,389.823 266.240,389.997 265.800 C 390.715 263.982,391.600 260.645,391.600 259.754 C 391.600 259.229,391.780 258.800,392.000 258.800 C 392.220 258.800,392.400 258.170,392.400 257.400 C 392.400 256.630,392.580 256.000,392.800 256.000 C 393.020 256.000,393.200 255.471,393.200 254.824 C 393.200 254.177,393.380 253.536,393.600 253.400 C 393.820 253.264,394.000 252.533,394.000 251.776 C 394.000 251.019,394.180 250.400,394.400 250.400 C 394.620 250.400,394.800 249.680,394.800 248.800 C 394.800 247.920,394.980 247.200,395.200 247.200 C 395.420 247.200,395.600 246.401,395.600 245.424 C 395.600 244.447,395.780 243.536,396.000 243.400 C 396.220 243.264,396.400 242.443,396.400 241.576 C 396.400 240.709,396.580 240.000,396.800 240.000 C 397.020 240.000,397.200 239.111,397.200 238.024 C 397.200 236.937,397.380 235.936,397.600 235.800 C 397.820 235.664,398.000 234.584,398.000 233.400 C 398.000 232.216,398.180 231.136,398.400 231.000 C 398.620 230.864,398.800 229.518,398.800 228.010 C 398.800 226.171,398.965 225.212,399.300 225.100 C 399.693 224.969,399.800 219.591,399.800 200.000 C 399.800 180.409,399.693 175.031,399.300 174.900 C 398.965 174.788,398.800 173.829,398.800 171.990 C 398.800 170.482,398.620 169.136,398.400 169.000 C 398.180 168.864,398.000 167.784,398.000 166.600 C 398.000 165.416,397.820 164.336,397.600 164.200 C 397.380 164.064,397.200 163.063,397.200 161.976 C 397.200 160.889,397.020 160.000,396.800 160.000 C 396.580 160.000,396.400 159.291,396.400 158.424 C 396.400 157.557,396.220 156.736,396.000 156.600 C 395.780 156.464,395.600 155.553,395.600 154.576 C 395.600 153.599,395.420 152.800,395.200 152.800 C 394.980 152.800,394.800 152.080,394.800 151.200 C 394.800 150.320,394.620 149.600,394.400 149.600 C 394.180 149.600,394.000 148.981,394.000 148.224 C 394.000 147.467,393.820 146.736,393.600 146.600 C 393.380 146.464,393.200 145.823,393.200 145.176 C 393.200 144.529,393.020 144.000,392.800 144.000 C 392.580 144.000,392.400 143.370,392.400 142.600 C 392.400 141.830,392.220 141.200,392.000 141.200 C 391.780 141.200,391.600 140.771,391.600 140.246 C 391.600 139.355,390.715 136.018,389.997 134.200 C 389.823 133.760,389.464 132.770,389.200 132.000 C 388.618 130.307,388.029 128.840,387.553 127.905 C 387.359 127.523,387.200 126.848,387.200 126.405 C 387.200 125.962,387.020 125.600,386.800 125.600 C 386.580 125.600,386.400 125.240,386.400 124.800 C 386.400 124.360,386.220 124.000,386.000 124.000 C 385.780 124.000,385.600 123.561,385.600 123.024 C 385.600 122.487,385.420 121.936,385.200 121.800 C 384.980 121.664,384.800 121.203,384.800 120.776 C 384.800 120.349,384.620 120.000,384.400 120.000 C 384.180 120.000,384.000 119.640,384.000 119.200 C 384.000 118.760,383.820 118.400,383.600 118.400 C 383.380 118.400,383.200 118.128,383.200 117.795 C 383.200 117.462,383.038 116.877,382.841 116.495 C 382.643 116.113,381.700 114.180,380.745 112.200 C 379.789 110.220,378.871 108.540,378.704 108.467 C 378.537 108.393,378.400 107.988,378.400 107.567 C 378.400 107.145,378.220 106.800,378.000 106.800 C 377.780 106.800,377.600 106.440,377.600 106.000 C 377.600 105.560,377.420 105.200,377.200 105.200 C 376.980 105.200,376.800 104.964,376.800 104.675 C 376.800 104.387,376.440 103.764,376.000 103.292 C 375.560 102.820,375.200 102.225,375.200 101.971 C 375.200 101.389,373.105 97.447,372.700 97.267 C 372.535 97.193,372.400 96.956,372.400 96.739 C 372.400 96.522,371.860 95.559,371.200 94.600 C 370.540 93.641,370.000 92.703,370.000 92.516 C 370.000 92.329,369.640 91.917,369.200 91.600 C 368.760 91.283,368.400 90.703,368.400 90.312 C 368.400 89.920,368.250 89.600,368.068 89.600 C 367.885 89.600,367.481 89.105,367.170 88.500 C 366.860 87.895,366.289 87.109,365.903 86.753 C 365.516 86.397,365.200 85.852,365.200 85.541 C 365.200 85.231,364.840 84.717,364.400 84.400 C 363.960 84.083,363.600 83.620,363.600 83.371 C 363.600 83.122,363.060 82.354,362.400 81.663 C 361.740 80.972,361.200 80.208,361.200 79.964 C 361.200 79.720,360.660 79.017,360.000 78.400 C 359.340 77.783,358.797 77.126,358.794 76.940 C 358.790 76.753,358.073 75.790,357.200 74.800 C 356.327 73.810,355.610 72.871,355.606 72.713 C 355.603 72.556,355.012 71.836,354.293 71.113 C 353.575 70.391,352.547 69.179,352.009 68.420 C 350.725 66.607,333.359 49.248,331.580 47.999 C 330.821 47.467,329.750 46.567,329.200 46.000 C 328.650 45.433,327.570 44.532,326.800 43.998 C 326.030 43.463,325.181 42.840,324.914 42.613 C 323.489 41.402,323.212 41.200,322.977 41.200 C 322.836 41.200,322.217 40.660,321.600 40.000 C 320.983 39.340,320.280 38.800,320.036 38.800 C 319.792 38.800,319.028 38.260,318.337 37.600 C 317.646 36.940,316.878 36.400,316.629 36.400 C 316.380 36.400,315.917 36.040,315.600 35.600 C 315.283 35.160,314.769 34.800,314.459 34.800 C 314.148 34.800,313.603 34.484,313.247 34.097 C 312.891 33.711,312.105 33.140,311.500 32.830 C 310.895 32.519,310.400 32.115,310.400 31.932 C 310.400 31.750,310.080 31.600,309.688 31.600 C 309.297 31.600,308.717 31.240,308.400 30.800 C 308.083 30.360,307.671 30.000,307.484 30.000 C 307.297 30.000,306.359 29.460,305.400 28.800 C 304.441 28.140,303.478 27.600,303.261 27.600 C 303.044 27.600,302.807 27.443,302.733 27.251 C 302.565 26.809,298.604 24.800,297.902 24.800 C 297.613 24.800,297.117 24.440,296.800 24.000 C 296.483 23.560,295.903 23.200,295.512 23.200 C 295.120 23.200,294.800 23.020,294.800 22.800 C 294.800 22.580,294.440 22.400,294.000 22.400 C 293.560 22.400,293.200 22.220,293.200 22.000 C 293.200 21.780,292.840 21.600,292.400 21.600 C 291.960 21.600,291.600 21.454,291.600 21.275 C 291.600 21.096,290.970 20.702,290.200 20.400 C 289.430 20.098,288.800 19.704,288.800 19.525 C 288.800 19.346,288.440 19.200,288.000 19.200 C 287.560 19.200,287.200 19.020,287.200 18.800 C 287.200 18.580,286.928 18.400,286.595 18.400 C 286.262 18.400,285.632 18.220,285.195 18.000 C 284.758 17.780,284.042 17.420,283.605 17.200 C 283.168 16.980,282.538 16.800,282.205 16.800 C 281.872 16.800,281.600 16.620,281.600 16.400 C 281.600 16.180,281.240 16.000,280.800 16.000 C 280.360 16.000,280.000 15.820,280.000 15.600 C 280.000 15.380,279.640 15.200,279.200 15.200 C 278.760 15.200,278.400 15.020,278.400 14.800 C 278.400 14.580,277.860 14.400,277.200 14.400 C 276.540 14.400,276.000 14.220,276.000 14.000 C 276.000 13.780,275.640 13.600,275.200 13.600 C 274.760 13.600,274.400 13.420,274.400 13.200 C 274.400 12.980,274.038 12.800,273.595 12.800 C 273.152 12.800,272.477 12.641,272.095 12.447 C 271.713 12.252,270.860 11.871,270.200 11.600 C 269.540 11.329,268.687 10.948,268.305 10.753 C 267.923 10.559,267.336 10.400,267.000 10.400 C 266.664 10.400,266.077 10.237,265.695 10.037 C 264.553 9.440,260.778 8.400,259.754 8.400 C 259.229 8.400,258.800 8.220,258.800 8.000 C 258.800 7.780,258.271 7.600,257.624 7.600 C 256.977 7.600,256.336 7.420,256.200 7.200 C 256.064 6.980,255.423 6.800,254.776 6.800 C 254.129 6.800,253.600 6.620,253.600 6.400 C 253.600 6.180,252.880 6.000,252.000 6.000 C 251.120 6.000,250.400 5.820,250.400 5.600 C 250.400 5.380,249.680 5.200,248.800 5.200 C 247.920 5.200,247.200 5.020,247.200 4.800 C 247.200 4.580,246.491 4.400,245.624 4.400 C 244.757 4.400,243.936 4.220,243.800 4.000 C 243.664 3.780,242.753 3.600,241.776 3.600 C 240.799 3.600,240.000 3.420,240.000 3.200 C 240.000 2.980,239.100 2.800,238.000 2.800 C 236.900 2.800,236.000 2.620,236.000 2.400 C 236.000 2.180,235.021 2.000,233.824 2.000 C 232.627 2.000,231.536 1.820,231.400 1.600 C 231.264 1.380,229.939 1.200,228.456 1.200 C 226.856 1.200,225.560 1.000,225.268 0.708 C 224.783 0.223,187.905 -0.119,178.500 0.275 M195.200 65.925 C 195.200 66.104,194.577 66.495,193.817 66.793 C 191.411 67.737,191.844 68.201,195.150 68.221 C 200.183 68.251,203.717 68.931,202.200 69.576 L 201.000 70.087 201.921 70.514 C 202.590 70.824,203.906 70.792,206.721 70.397 C 210.591 69.853,216.905 69.651,218.800 70.011 C 219.651 70.172,219.781 70.066,219.675 69.300 C 219.508 68.100,219.855 68.134,225.246 69.846 C 236.135 73.303,239.713 74.640,244.398 76.999 C 247.486 78.554,248.560 78.677,251.436 77.804 C 255.306 76.631,258.467 77.490,260.068 80.151 C 261.355 82.290,267.200 86.525,267.200 85.318 C 267.200 85.116,266.840 84.564,266.400 84.092 C 265.531 83.160,265.406 82.800,265.949 82.800 C 266.312 82.800,271.716 86.247,273.041 87.324 C 273.458 87.663,275.152 89.014,276.804 90.326 C 287.596 98.894,297.567 111.829,302.608 123.800 C 302.978 124.680,303.433 125.760,303.617 126.200 C 303.802 126.640,304.026 127.540,304.115 128.200 C 304.203 128.860,304.204 129.190,304.115 128.934 C 303.411 126.894,302.166 128.493,302.769 130.664 C 303.004 131.509,303.197 133.150,303.198 134.312 C 303.199 135.576,303.681 137.883,304.400 140.065 C 305.772 144.227,305.726 144.000,305.200 144.000 C 304.980 144.000,304.800 143.550,304.800 143.000 C 304.800 142.450,304.620 142.000,304.400 142.000 C 304.180 142.000,304.000 141.586,304.000 141.080 C 304.000 140.574,303.847 139.989,303.660 139.780 C 303.473 139.571,303.042 138.680,302.703 137.800 C 300.221 131.369,297.838 127.661,296.793 128.606 C 296.346 129.011,295.546 129.222,294.726 129.152 C 292.229 128.936,291.834 130.130,293.036 134.265 C 293.698 136.543,294.420 137.213,295.366 136.428 C 296.290 135.661,297.513 137.877,298.024 141.245 C 298.270 142.870,298.816 145.502,299.236 147.093 C 300.373 151.396,300.132 152.003,298.400 149.200 C 295.871 145.108,296.237 149.192,298.895 154.726 C 299.801 156.611,299.993 157.367,299.654 157.706 C 298.150 159.210,299.495 166.400,301.280 166.400 C 302.774 166.400,302.764 166.774,301.166 170.600 C 300.049 173.276,299.200 176.846,299.200 178.866 C 299.200 181.492,298.697 181.878,297.953 179.821 C 297.332 178.104,296.800 178.360,296.800 180.377 C 296.800 181.570,296.624 181.953,296.000 182.116 C 295.329 182.291,295.200 182.662,295.200 184.405 C 295.200 188.109,293.879 192.141,290.219 199.605 C 289.234 201.614,288.200 204.235,287.923 205.429 C 287.356 207.867,287.160 208.021,286.411 206.621 C 285.712 205.315,284.821 205.028,284.148 205.893 C 282.871 207.535,281.159 211.640,281.415 212.448 C 281.766 213.552,281.251 216.878,280.774 216.584 C 280.568 216.457,280.400 215.913,280.400 215.376 C 280.400 213.938,280.286 214.015,275.352 218.796 C 257.038 236.537,234.317 242.945,211.500 236.804 C 204.531 234.928,203.149 234.354,201.397 232.609 C 200.509 231.724,198.617 230.100,197.193 229.000 C 184.387 219.110,176.947 209.047,174.396 198.167 C 172.356 189.461,172.461 177.338,174.612 173.491 C 175.137 172.550,176.178 170.075,176.925 167.990 C 178.770 162.836,180.443 159.670,182.204 158.000 C 183.015 157.230,184.650 155.134,185.837 153.343 C 197.856 135.195,228.467 133.140,242.100 149.566 C 243.419 151.156,243.120 151.044,238.136 148.087 C 219.298 136.914,192.673 146.434,183.564 167.600 C 180.722 174.204,179.113 185.441,180.868 186.429 C 181.343 186.696,181.609 187.585,181.786 189.502 C 184.342 217.130,215.683 238.768,239.021 229.017 C 239.850 228.670,240.848 228.488,241.237 228.612 C 243.069 229.193,250.231 225.360,253.182 222.219 C 253.709 221.658,254.324 221.200,254.550 221.200 C 254.791 221.200,254.763 221.397,254.480 221.680 C 253.770 222.390,253.895 222.800,254.822 222.800 C 256.263 222.800,260.120 219.905,267.800 213.061 C 273.873 207.648,273.600 208.026,273.600 205.054 C 273.600 201.558,274.461 199.774,276.623 198.789 C 278.702 197.842,278.754 197.768,280.488 193.200 C 283.007 186.568,283.603 183.260,282.479 182.136 C 281.936 181.593,281.915 181.144,282.326 178.747 C 282.951 175.107,282.981 154.927,282.362 154.721 C 282.121 154.640,281.687 152.780,281.396 150.587 C 280.907 146.890,280.684 145.783,279.670 142.000 C 277.875 135.304,273.253 126.356,267.730 118.888 C 261.045 109.847,251.682 101.491,243.724 97.462 C 232.283 91.669,214.175 88.731,201.200 90.561 C 199.110 90.856,196.410 91.013,195.200 90.910 C 190.856 90.539,184.683 92.366,179.155 95.660 C 175.399 97.898,173.372 98.831,170.500 99.645 C 168.321 100.262,168.166 101.247,170.300 100.919 C 171.125 100.792,172.091 100.540,172.447 100.358 C 173.303 99.922,173.700 100.357,173.045 101.012 C 172.383 101.674,170.270 102.218,166.000 102.825 C 160.344 103.629,156.227 105.791,152.022 110.166 C 150.647 111.596,151.129 112.265,152.781 111.220 C 153.100 111.018,153.519 110.950,153.711 111.069 C 154.281 111.421,152.336 113.200,151.381 113.200 C 144.975 113.200,129.239 126.202,118.947 140.000 C 115.834 144.173,115.768 144.327,116.965 144.627 C 118.448 144.999,118.411 145.115,113.951 153.860 C 109.035 163.502,108.497 164.994,108.000 170.377 C 107.786 172.700,107.424 176.220,107.197 178.200 C 104.889 198.297,105.131 209.294,108.007 215.000 C 109.178 217.322,109.206 217.504,108.869 220.600 C 108.527 223.738,108.546 223.854,109.867 226.580 C 110.991 228.901,111.117 229.415,110.628 229.688 C 109.954 230.065,110.276 231.394,112.175 236.068 C 113.740 239.919,115.287 241.517,117.915 241.998 C 120.611 242.491,121.550 243.207,123.631 246.354 C 125.230 248.772,127.713 254.021,127.404 254.330 C 127.096 254.637,125.737 253.950,124.417 252.819 C 123.656 252.167,122.979 251.688,122.912 251.754 C 122.426 252.241,125.040 257.604,127.697 261.572 C 129.673 264.525,129.682 264.553,129.016 265.681 C 128.241 266.993,128.829 268.333,131.155 270.558 C 132.103 271.466,132.283 271.872,131.983 272.432 C 131.452 273.423,131.889 274.380,134.891 278.800 C 138.995 284.842,142.732 289.634,143.000 289.200 C 143.439 288.490,144.400 288.775,144.400 289.616 C 144.400 290.646,145.635 293.112,147.697 296.200 C 150.388 300.231,151.074 300.800,153.242 300.800 C 154.966 300.800,155.210 300.922,155.981 302.170 C 157.210 304.157,161.117 307.642,163.415 308.800 C 164.507 309.350,165.465 309.835,165.544 309.877 C 165.623 309.919,165.308 310.487,164.844 311.139 C 163.731 312.701,163.674 312.592,166.243 313.768 C 167.477 314.333,169.333 315.417,170.367 316.176 C 172.299 317.594,175.474 319.290,177.141 319.795 C 178.030 320.064,178.066 320.006,177.804 318.740 C 177.546 317.490,177.805 317.674,181.664 321.498 C 189.191 328.956,191.770 330.190,204.400 332.385 C 214.588 334.155,214.962 334.621,206.080 334.477 C 167.911 333.855,126.509 302.687,105.778 258.969 C 102.763 252.611,102.898 252.924,101.198 248.400 C 97.784 239.316,96.330 234.261,94.586 225.415 C 92.750 216.102,92.622 213.912,92.586 191.000 C 92.567 178.900,92.416 167.830,92.251 166.400 C 91.930 163.626,95.873 150.309,99.475 142.000 C 99.808 141.230,100.225 140.240,100.400 139.800 C 103.050 133.141,104.804 130.000,105.870 130.000 C 107.420 130.000,109.039 127.810,111.037 123.011 C 113.908 116.119,115.640 112.715,116.374 112.523 C 116.745 112.426,117.658 111.053,118.403 109.473 C 120.608 104.798,139.569 86.274,141.144 87.258 C 141.815 87.677,142.180 87.524,143.860 86.123 C 148.563 82.198,157.542 77.119,167.400 72.808 C 170.480 71.461,173.540 70.112,174.200 69.811 C 174.860 69.509,176.390 68.874,177.600 68.400 C 178.810 67.926,180.418 67.245,181.173 66.888 C 182.188 66.409,182.588 66.365,182.707 66.720 C 182.930 67.390,185.239 67.281,189.000 66.424 C 192.482 65.629,195.200 65.411,195.200 65.925 M178.600 218.800 C 178.893 218.800,179.193 218.956,179.267 219.147 C 179.830 220.610,190.152 231.200,191.015 231.200 C 191.300 231.200,191.624 231.425,191.735 231.700 C 191.846 231.975,191.944 232.020,191.953 231.800 C 191.963 231.580,190.987 230.340,189.785 229.045 C 188.583 227.749,187.600 226.534,187.600 226.345 C 187.600 225.921,188.283 225.886,188.467 226.301 C 189.287 228.151,199.967 235.200,201.950 235.200 C 202.600 235.200,203.398 235.564,203.838 236.061 C 207.900 240.651,217.928 243.574,229.676 243.593 C 234.830 243.601,236.013 244.091,232.592 244.802 C 224.144 246.555,210.419 243.772,200.200 238.232 C 196.761 236.368,192.053 233.505,191.270 232.802 C 190.901 232.471,189.907 231.683,189.061 231.050 C 184.854 227.906,177.530 219.705,177.632 218.252 C 177.652 217.966,177.737 217.983,177.865 218.300 C 177.976 218.575,178.307 218.800,178.600 218.800 " stroke="none" fill="#d40454" fill-rule="evenodd"></path></g></svg>