<svg id="svg" version="1.1" xmlns="http://www.w3.org/2000/svg" xmlns:xlink="http://www.w3.org/1999/xlink" width="400" height="400" viewBox="0, 0, 400,400"><g id="svgg"><path id="path0" d="M177.081 55.453 C 176.942 55.591,176.819 64.681,176.807 75.653 L 176.786 95.600 197.993 95.600 L 219.200 95.600 219.200 75.400 L 219.200 55.200 198.267 55.200 C 186.753 55.200,177.220 55.314,177.081 55.453 M79.200 122.200 L 79.200 142.400 100.800 142.400 L 122.400 142.400 122.400 122.200 L 122.400 102.000 100.800 102.000 L 79.200 102.000 79.200 122.200 M127.600 122.200 L 127.600 142.400 149.200 142.400 L 170.800 142.400 170.800 122.200 L 170.800 102.000 149.200 102.000 L 127.600 102.000 127.600 122.200 M176.904 122.100 L 177.000 142.200 198.100 142.304 L 219.200 142.407 219.200 122.204 L 219.200 102.000 198.004 102.000 L 176.809 102.000 176.904 122.100 M310.482 112.501 C 310.253 112.777,310.006 113.272,309.933 113.601 C 309.860 113.931,309.485 114.435,309.100 114.723 C 308.715 115.010,308.400 115.555,308.400 115.934 C 308.400 116.313,308.040 116.883,307.600 117.200 C 307.160 117.517,306.800 118.057,306.800 118.400 C 306.800 118.743,306.440 119.283,306.000 119.600 C 305.560 119.917,305.200 120.497,305.200 120.888 C 305.200 121.280,305.020 121.600,304.800 121.600 C 304.580 121.600,304.400 121.920,304.400 122.312 C 304.400 122.703,304.040 123.283,303.600 123.600 C 303.160 123.917,302.800 124.482,302.800 124.855 C 302.800 125.228,302.665 125.593,302.500 125.667 C 302.001 125.888,300.400 129.222,300.400 130.038 C 300.400 130.457,300.220 130.800,300.000 130.800 C 299.780 130.800,299.600 131.160,299.600 131.600 C 299.600 132.040,299.420 132.400,299.200 132.400 C 298.980 132.400,298.800 132.940,298.800 133.600 C 298.800 134.260,298.620 134.800,298.400 134.800 C 298.180 134.800,298.000 135.520,298.000 136.400 C 298.000 137.280,297.820 138.000,297.600 138.000 C 297.380 138.000,297.200 138.720,297.200 139.600 C 297.200 140.480,297.020 141.200,296.800 141.200 C 296.580 141.200,296.400 141.819,296.400 142.576 C 296.400 143.333,296.220 144.064,296.000 144.200 C 295.780 144.336,295.600 145.416,295.600 146.600 C 295.600 147.784,295.420 148.864,295.200 149.000 C 294.950 149.155,294.800 153.137,294.800 159.624 C 294.800 166.275,294.944 170.000,295.200 170.000 C 295.420 170.000,295.600 170.799,295.600 171.776 C 295.600 172.753,295.780 173.664,296.000 173.800 C 296.220 173.936,296.400 174.667,296.400 175.424 C 296.400 176.181,296.580 176.800,296.800 176.800 C 297.020 176.800,297.200 177.340,297.200 178.000 C 297.200 178.660,297.380 179.200,297.600 179.200 C 297.820 179.200,298.000 179.740,298.000 180.400 C 298.000 181.060,298.180 181.600,298.400 181.600 C 298.620 181.600,298.800 181.960,298.800 182.400 C 298.800 182.840,298.980 183.200,299.200 183.200 C 299.420 183.200,299.600 183.700,299.600 184.312 C 299.600 184.965,299.930 185.661,300.400 186.000 C 300.840 186.317,301.200 186.897,301.200 187.288 C 301.200 187.680,301.380 188.000,301.600 188.000 C 301.820 188.000,302.000 188.360,302.000 188.800 C 302.000 189.333,301.733 189.600,301.200 189.600 C 300.760 189.600,300.400 189.780,300.400 190.000 C 300.400 190.220,300.040 190.400,299.600 190.400 C 299.160 190.400,298.800 190.580,298.800 190.800 C 298.800 191.020,298.271 191.200,297.624 191.200 C 296.977 191.200,296.336 191.380,296.200 191.600 C 296.064 191.820,295.513 192.000,294.976 192.000 C 294.439 192.000,294.000 192.183,294.000 192.408 C 294.000 192.643,293.577 192.709,293.000 192.564 C 292.286 192.385,292.000 192.475,292.000 192.880 C 292.000 193.288,291.552 193.424,290.400 193.365 C 289.520 193.320,288.800 193.445,288.800 193.642 C 288.800 193.839,287.900 194.000,286.800 194.000 C 285.700 194.000,284.800 194.180,284.800 194.400 C 284.800 194.635,283.408 194.800,281.424 194.800 C 279.567 194.800,277.936 194.980,277.800 195.200 C 277.636 195.465,231.120 195.600,139.548 195.600 C 10.853 195.600,1.498 195.645,0.871 196.272 C -0.011 197.155,-0.177 236.008,0.700 236.300 C 1.031 236.410,1.200 237.336,1.200 239.033 C 1.200 240.478,1.375 241.600,1.600 241.600 C 1.820 241.600,2.000 242.500,2.000 243.600 C 2.000 244.700,2.180 245.600,2.400 245.600 C 2.620 245.600,2.800 246.500,2.800 247.600 C 2.800 248.700,2.980 249.600,3.200 249.600 C 3.420 249.600,3.600 250.320,3.600 251.200 C 3.600 252.080,3.780 252.800,4.000 252.800 C 4.220 252.800,4.400 253.340,4.400 254.000 C 4.400 254.660,4.580 255.200,4.800 255.200 C 5.020 255.200,5.200 255.819,5.200 256.576 C 5.200 257.333,5.380 258.064,5.600 258.200 C 5.820 258.336,6.000 258.887,6.000 259.424 C 6.000 259.961,6.180 260.400,6.400 260.400 C 6.620 260.400,6.800 260.940,6.800 261.600 C 6.800 262.260,6.980 262.800,7.200 262.800 C 7.420 262.800,7.600 263.340,7.600 264.000 C 7.600 264.660,7.756 265.200,7.947 265.200 C 8.138 265.200,8.393 265.934,8.513 266.831 C 8.634 267.728,9.035 268.797,9.405 269.206 C 9.775 269.615,9.971 270.123,9.840 270.335 C 9.709 270.548,10.141 271.747,10.801 273.001 C 11.460 274.255,12.000 275.623,12.000 276.041 C 12.000 276.458,12.180 276.800,12.400 276.800 C 12.620 276.800,12.800 277.160,12.800 277.600 C 12.800 278.040,12.980 278.400,13.200 278.400 C 13.420 278.400,13.600 278.760,13.600 279.200 C 13.600 279.640,13.780 280.000,14.000 280.000 C 14.220 280.000,14.400 280.360,14.400 280.800 C 14.400 281.240,14.580 281.600,14.800 281.600 C 15.020 281.600,15.200 281.960,15.200 282.400 C 15.200 282.840,15.380 283.200,15.600 283.200 C 15.820 283.200,16.000 283.520,16.000 283.912 C 16.000 284.303,16.360 284.883,16.800 285.200 C 17.240 285.517,17.600 286.097,17.600 286.488 C 17.600 286.880,17.780 287.200,18.000 287.200 C 18.220 287.200,18.400 287.436,18.400 287.725 C 18.400 288.013,18.760 288.636,19.200 289.108 C 19.640 289.580,20.000 290.153,20.000 290.380 C 20.000 290.607,20.360 291.018,20.800 291.293 C 21.240 291.568,21.600 292.069,21.600 292.408 C 21.600 292.746,21.960 293.283,22.400 293.600 C 22.840 293.917,23.200 294.457,23.200 294.800 C 23.200 295.143,23.560 295.683,24.000 296.000 C 24.440 296.317,24.800 296.820,24.800 297.117 C 24.800 297.414,25.025 297.908,25.300 298.215 C 26.470 299.519,26.800 299.988,26.800 300.343 C 26.800 300.550,27.700 301.638,28.800 302.761 C 29.900 303.885,30.800 304.926,30.800 305.074 C 30.800 305.614,40.852 315.200,41.418 315.200 C 41.738 315.200,42.000 315.380,42.000 315.600 C 42.000 316.089,45.156 319.200,45.652 319.200 C 45.847 319.200,46.572 319.740,47.263 320.400 C 47.954 321.060,48.680 321.600,48.878 321.600 C 49.075 321.600,49.672 322.036,50.205 322.569 C 50.738 323.102,51.540 323.654,51.987 323.796 C 52.434 323.938,52.800 324.222,52.800 324.427 C 52.800 324.632,53.147 324.800,53.571 324.800 C 53.996 324.800,54.613 325.070,54.943 325.400 C 55.273 325.730,55.760 326.000,56.025 326.000 C 56.289 326.000,56.797 326.329,57.153 326.730 C 57.509 327.132,58.385 327.716,59.100 328.028 C 59.815 328.340,60.400 328.731,60.400 328.898 C 60.400 329.064,60.760 329.200,61.200 329.200 C 61.640 329.200,62.000 329.380,62.000 329.600 C 62.000 329.820,62.360 330.000,62.800 330.000 C 63.240 330.000,63.600 330.180,63.600 330.400 C 63.600 330.620,63.960 330.800,64.400 330.800 C 64.840 330.800,65.200 330.980,65.200 331.200 C 65.200 331.420,65.560 331.600,66.000 331.600 C 66.440 331.600,66.800 331.780,66.800 332.000 C 66.800 332.220,67.160 332.400,67.600 332.400 C 68.040 332.400,68.400 332.580,68.400 332.800 C 68.400 333.020,68.760 333.200,69.200 333.200 C 69.640 333.200,70.000 333.380,70.000 333.600 C 70.000 333.820,70.360 334.000,70.800 334.000 C 71.240 334.000,71.600 334.180,71.600 334.400 C 71.600 334.620,72.140 334.800,72.800 334.800 C 73.460 334.800,74.000 334.980,74.000 335.200 C 74.000 335.420,74.450 335.600,75.000 335.600 C 75.550 335.600,76.000 335.780,76.000 336.000 C 76.000 336.220,76.349 336.400,76.776 336.400 C 77.203 336.400,77.664 336.580,77.800 336.800 C 77.936 337.020,78.487 337.200,79.024 337.200 C 79.561 337.200,80.000 337.380,80.000 337.600 C 80.000 337.820,80.529 338.000,81.176 338.000 C 81.823 338.000,82.464 338.180,82.600 338.400 C 82.736 338.620,83.467 338.800,84.224 338.800 C 84.981 338.800,85.600 338.980,85.600 339.200 C 85.600 339.420,86.140 339.600,86.800 339.600 C 87.460 339.600,88.000 339.780,88.000 340.000 C 88.000 340.220,88.709 340.400,89.576 340.400 C 90.443 340.400,91.252 340.561,91.374 340.758 C 91.496 340.955,93.037 341.244,94.798 341.400 C 96.559 341.556,98.000 341.845,98.000 342.042 C 98.000 342.239,99.080 342.400,100.400 342.400 C 101.733 342.400,102.800 342.578,102.800 342.800 C 102.800 343.029,104.000 343.200,105.600 343.200 C 107.200 343.200,108.400 343.371,108.400 343.600 C 108.400 343.839,109.933 344.000,112.200 344.000 C 114.467 344.000,116.000 344.161,116.000 344.400 C 116.000 344.661,122.267 344.800,134.000 344.800 C 145.733 344.800,152.000 344.661,152.000 344.400 C 152.000 344.157,153.800 344.000,156.600 344.000 C 159.400 344.000,161.200 343.843,161.200 343.600 C 161.200 343.363,162.667 343.200,164.800 343.200 C 166.933 343.200,168.400 343.037,168.400 342.800 C 168.400 342.571,169.600 342.400,171.200 342.400 C 172.740 342.400,174.000 342.246,174.000 342.057 C 174.000 341.868,176.025 341.587,178.500 341.432 C 180.975 341.276,183.060 340.981,183.133 340.775 C 183.207 340.569,184.051 340.400,185.010 340.400 C 185.968 340.400,186.864 340.220,187.000 340.000 C 187.136 339.780,188.036 339.600,189.000 339.600 C 189.964 339.600,190.864 339.420,191.000 339.200 C 191.136 338.980,191.867 338.800,192.624 338.800 C 193.381 338.800,194.000 338.620,194.000 338.400 C 194.000 338.180,194.900 338.000,196.000 338.000 C 197.100 338.000,198.000 337.820,198.000 337.600 C 198.000 337.380,198.540 337.200,199.200 337.200 C 199.860 337.200,200.400 337.020,200.400 336.800 C 200.400 336.580,201.120 336.400,202.000 336.400 C 202.880 336.400,203.600 336.220,203.600 336.000 C 203.600 335.780,204.219 335.600,204.976 335.600 C 205.733 335.600,206.464 335.420,206.600 335.200 C 206.736 334.980,207.287 334.800,207.824 334.800 C 208.361 334.800,208.800 334.620,208.800 334.400 C 208.800 334.180,209.340 334.000,210.000 334.000 C 210.660 334.000,211.200 333.820,211.200 333.600 C 211.200 333.380,211.740 333.200,212.400 333.200 C 213.060 333.200,213.600 333.020,213.600 332.800 C 213.600 332.580,214.140 332.400,214.800 332.400 C 215.460 332.400,216.000 332.220,216.000 332.000 C 216.000 331.780,216.540 331.600,217.200 331.600 C 217.860 331.600,218.400 331.420,218.400 331.200 C 218.400 330.980,218.940 330.800,219.600 330.800 C 220.260 330.800,220.800 330.620,220.800 330.400 C 220.800 330.180,221.160 330.000,221.600 330.000 C 222.040 330.000,222.400 329.820,222.400 329.600 C 222.400 329.380,222.724 329.200,223.120 329.200 C 224.014 329.200,225.993 328.306,225.997 327.900 C 225.999 327.735,226.540 327.600,227.200 327.600 C 227.860 327.600,228.400 327.420,228.400 327.200 C 228.400 326.980,228.760 326.800,229.200 326.800 C 229.640 326.800,230.000 326.620,230.000 326.400 C 230.000 326.180,230.540 326.000,231.200 326.000 C 231.860 326.000,232.400 325.820,232.400 325.600 C 232.400 325.380,232.704 325.200,233.076 325.200 C 233.853 325.200,241.332 321.586,241.533 321.113 C 241.607 320.941,242.012 320.800,242.433 320.800 C 242.855 320.800,243.200 320.620,243.200 320.400 C 243.200 320.180,243.560 320.000,244.000 320.000 C 244.440 320.000,244.800 319.820,244.800 319.600 C 244.800 319.380,245.160 319.200,245.600 319.200 C 246.040 319.200,246.400 319.020,246.400 318.800 C 246.400 318.580,246.760 318.400,247.200 318.400 C 247.640 318.400,248.000 318.220,248.000 318.000 C 248.000 317.780,248.320 317.600,248.712 317.600 C 249.103 317.600,249.683 317.240,250.000 316.800 C 250.317 316.360,250.897 316.000,251.288 316.000 C 251.680 316.000,252.000 315.820,252.000 315.600 C 252.000 315.380,252.320 315.200,252.712 315.200 C 253.103 315.200,253.683 314.840,254.000 314.400 C 254.317 313.960,254.897 313.600,255.288 313.600 C 255.680 313.600,256.000 313.420,256.000 313.200 C 256.000 312.980,256.270 312.800,256.600 312.800 C 256.930 312.800,257.200 312.620,257.200 312.400 C 257.200 312.180,257.470 312.000,257.800 312.000 C 258.130 312.000,258.400 311.820,258.400 311.600 C 258.400 311.380,258.630 311.200,258.912 311.200 C 259.193 311.200,259.683 310.840,260.000 310.400 C 260.317 309.960,260.897 309.600,261.288 309.600 C 261.680 309.600,262.000 309.423,262.000 309.208 C 262.000 308.992,262.495 308.693,263.100 308.544 C 263.705 308.394,264.470 307.985,264.800 307.633 C 265.130 307.282,265.895 306.740,266.500 306.430 C 267.105 306.119,267.600 305.715,267.600 305.532 C 267.600 305.350,267.843 305.200,268.141 305.200 C 268.438 305.200,269.246 304.660,269.937 304.000 C 270.628 303.340,271.353 302.800,271.548 302.800 C 271.744 302.800,272.645 302.080,273.552 301.200 C 274.459 300.320,275.302 299.600,275.426 299.600 C 275.550 299.600,276.529 298.700,277.600 297.600 C 278.671 296.500,279.744 295.600,279.983 295.600 C 280.222 295.600,281.399 294.655,282.600 293.500 C 285.821 290.400,286.738 289.600,287.071 289.600 C 287.516 289.600,295.600 281.223,295.600 280.762 C 295.600 280.544,297.040 278.941,298.800 277.200 C 300.560 275.459,302.000 273.941,302.000 273.827 C 302.000 273.712,302.900 272.675,304.000 271.522 C 305.100 270.369,306.000 269.283,306.000 269.109 C 306.000 268.935,306.540 268.228,307.200 267.537 C 307.860 266.846,308.400 266.046,308.400 265.759 C 308.400 265.471,308.850 264.786,309.400 264.236 C 309.950 263.686,310.400 263.030,310.400 262.779 C 310.400 262.527,310.940 261.817,311.600 261.200 C 312.260 260.583,312.800 259.803,312.800 259.466 C 312.800 259.130,313.160 258.740,313.600 258.600 C 314.040 258.460,314.400 258.038,314.400 257.661 C 314.400 257.285,314.760 256.717,315.200 256.400 C 315.640 256.083,316.000 255.543,316.000 255.200 C 316.000 254.857,316.360 254.317,316.800 254.000 C 317.240 253.683,317.600 253.143,317.600 252.800 C 317.600 252.457,317.960 251.917,318.400 251.600 C 318.840 251.283,319.200 250.743,319.200 250.400 C 319.200 250.057,319.560 249.517,320.000 249.200 C 320.440 248.883,320.800 248.303,320.800 247.912 C 320.800 247.520,320.980 247.200,321.200 247.200 C 321.420 247.200,321.600 246.922,321.600 246.583 C 321.600 246.244,321.960 245.580,322.400 245.108 C 322.840 244.636,323.200 244.013,323.200 243.725 C 323.200 243.436,323.380 243.200,323.600 243.200 C 323.820 243.200,324.000 242.840,324.000 242.400 C 324.000 241.960,324.160 241.600,324.357 241.600 C 324.553 241.600,324.826 241.150,324.964 240.600 C 325.102 240.050,325.392 239.600,325.608 239.600 C 325.823 239.600,326.000 239.240,326.000 238.800 C 326.000 238.360,326.180 238.000,326.400 238.000 C 326.620 238.000,326.800 237.640,326.800 237.200 C 326.800 236.760,326.980 236.400,327.200 236.400 C 327.420 236.400,327.600 236.040,327.600 235.600 C 327.600 235.160,327.780 234.800,328.000 234.800 C 328.220 234.800,328.400 234.440,328.400 234.000 C 328.400 233.560,328.580 233.200,328.800 233.200 C 329.020 233.200,329.200 232.840,329.200 232.400 C 329.200 231.960,329.380 231.600,329.600 231.600 C 329.820 231.600,330.000 231.240,330.000 230.800 C 330.000 230.360,330.180 230.000,330.400 230.000 C 330.620 230.000,330.800 229.640,330.800 229.200 C 330.800 228.760,330.980 228.400,331.200 228.400 C 331.420 228.400,331.600 228.040,331.600 227.600 C 331.600 227.160,331.780 226.800,332.000 226.800 C 332.220 226.800,332.400 226.455,332.400 226.033 C 332.400 225.612,332.535 225.207,332.700 225.133 C 333.199 224.912,334.800 221.578,334.800 220.762 C 334.800 220.343,334.980 220.000,335.200 220.000 C 335.420 220.000,335.600 219.640,335.600 219.200 C 335.600 218.760,335.780 218.400,336.000 218.400 C 336.220 218.400,336.400 218.040,336.400 217.600 C 336.400 217.160,336.580 216.800,336.800 216.800 C 337.020 216.800,337.200 216.260,337.200 215.600 C 337.200 214.940,337.380 214.400,337.600 214.400 C 337.820 214.400,338.000 214.117,338.000 213.771 C 338.000 212.181,338.857 212.000,346.371 212.000 C 350.924 212.000,353.600 211.852,353.600 211.600 C 353.600 211.378,354.667 211.200,356.000 211.200 C 357.333 211.200,358.400 211.022,358.400 210.800 C 358.400 210.580,359.210 210.400,360.200 210.400 C 361.190 210.400,362.000 210.220,362.000 210.000 C 362.000 209.780,362.540 209.600,363.200 209.600 C 363.860 209.600,364.400 209.441,364.400 209.246 C 364.400 209.051,365.387 208.769,366.594 208.618 C 367.800 208.467,368.891 208.177,369.017 207.972 C 369.144 207.767,369.597 207.600,370.024 207.600 C 370.451 207.600,370.800 207.443,370.800 207.250 C 370.800 207.058,371.318 206.796,371.952 206.670 C 372.585 206.543,373.382 206.160,373.723 205.820 C 374.064 205.479,374.536 205.200,374.771 205.200 C 375.007 205.200,375.200 205.020,375.200 204.800 C 375.200 204.580,375.560 204.400,376.000 204.400 C 376.440 204.400,376.800 204.220,376.800 204.000 C 376.800 203.780,377.088 203.600,377.440 203.600 C 377.791 203.600,378.583 203.060,379.200 202.400 C 379.817 201.740,380.521 201.200,380.765 201.200 C 381.309 201.200,389.600 192.963,389.600 192.423 C 389.600 192.210,390.050 191.586,390.600 191.036 C 391.150 190.486,391.600 189.798,391.600 189.506 C 391.600 189.215,391.960 188.717,392.400 188.400 C 392.840 188.083,393.200 187.503,393.200 187.112 C 393.200 186.720,393.380 186.400,393.600 186.400 C 393.820 186.400,394.000 186.040,394.000 185.600 C 394.000 185.160,394.180 184.800,394.400 184.800 C 394.620 184.800,394.800 184.440,394.800 184.000 C 394.800 183.560,394.980 183.200,395.200 183.200 C 395.420 183.200,395.600 182.840,395.600 182.400 C 395.600 181.960,395.780 181.600,396.000 181.600 C 396.220 181.600,396.400 181.240,396.400 180.800 C 396.400 180.360,396.580 180.000,396.800 180.000 C 397.020 180.000,397.200 179.640,397.200 179.200 C 397.200 178.760,397.380 178.400,397.600 178.400 C 397.820 178.400,398.000 178.040,398.000 177.600 C 398.000 177.160,398.180 176.800,398.400 176.800 C 398.620 176.800,398.800 176.365,398.800 175.833 C 398.800 175.302,398.989 174.804,399.219 174.727 C 400.923 174.159,399.679 168.400,397.853 168.400 C 397.494 168.400,397.200 168.220,397.200 168.000 C 397.200 167.780,396.880 167.600,396.488 167.600 C 396.097 167.600,395.517 167.240,395.200 166.800 C 394.883 166.360,394.369 166.000,394.059 166.000 C 393.748 166.000,393.203 165.671,392.847 165.270 C 392.491 164.868,391.615 164.284,390.900 163.972 C 390.185 163.660,389.600 163.269,389.600 163.102 C 389.600 162.936,389.251 162.800,388.824 162.800 C 388.397 162.800,387.936 162.620,387.800 162.400 C 387.664 162.180,387.113 162.000,386.576 162.000 C 386.039 162.000,385.600 161.820,385.600 161.600 C 385.600 161.380,385.060 161.200,384.400 161.200 C 383.740 161.200,383.200 161.020,383.200 160.800 C 383.200 160.580,382.480 160.400,381.600 160.400 C 380.720 160.400,380.000 160.249,380.000 160.063 C 380.000 159.878,379.165 159.714,378.145 159.699 C 377.125 159.683,376.153 159.447,375.984 159.174 C 375.765 158.819,374.983 158.751,373.239 158.933 C 371.732 159.090,370.800 159.037,370.800 158.794 C 370.800 158.547,367.302 158.400,361.400 158.400 C 356.230 158.400,352.000 158.554,352.000 158.742 C 352.000 158.929,350.741 159.064,349.203 159.042 L 346.406 159.000 346.403 157.500 C 346.401 156.675,346.220 156.000,346.000 156.000 C 345.780 156.000,345.600 155.100,345.600 154.000 C 345.600 152.900,345.420 152.000,345.200 152.000 C 344.980 152.000,344.800 151.460,344.800 150.800 C 344.800 150.140,344.620 149.600,344.400 149.600 C 344.180 149.600,344.000 149.060,344.000 148.400 C 344.000 147.740,343.820 147.200,343.600 147.200 C 343.380 147.200,343.200 146.840,343.200 146.400 C 343.200 145.960,343.020 145.600,342.800 145.600 C 342.580 145.600,342.400 145.293,342.400 144.918 C 342.400 144.013,340.350 139.600,339.930 139.600 C 339.748 139.600,339.600 139.240,339.600 138.800 C 339.600 138.360,339.420 138.000,339.200 138.000 C 338.980 138.000,338.800 137.680,338.800 137.288 C 338.800 136.897,338.440 136.317,338.000 136.000 C 337.560 135.683,337.200 135.175,337.200 134.872 C 337.200 134.569,336.660 133.817,336.000 133.200 C 335.340 132.583,334.800 131.878,334.800 131.632 C 334.800 131.032,329.738 125.995,329.437 126.296 C 329.307 126.427,329.200 126.233,329.200 125.867 C 329.200 125.500,329.025 125.200,328.811 125.200 C 328.596 125.200,327.607 124.345,326.613 123.300 C 322.621 119.105,321.888 118.400,321.512 118.400 C 321.297 118.400,320.617 117.860,320.000 117.200 C 319.383 116.540,318.631 116.000,318.328 116.000 C 318.025 116.000,317.517 115.640,317.200 115.200 C 316.883 114.760,316.375 114.400,316.072 114.400 C 315.769 114.400,315.017 113.860,314.400 113.200 C 313.203 111.918,311.254 111.571,310.482 112.501 M30.096 169.100 L 30.200 189.400 51.600 189.400 L 73.000 189.400 73.104 169.100 L 73.207 148.800 51.600 148.800 L 29.993 148.800 30.096 169.100 M79.200 169.203 L 79.200 189.607 100.700 189.503 L 122.200 189.400 122.304 169.100 L 122.407 148.800 100.804 148.800 L 79.200 148.800 79.200 169.203 M127.696 169.100 L 127.800 189.400 149.300 189.503 L 170.800 189.607 170.800 169.203 L 170.800 148.800 149.196 148.800 L 127.593 148.800 127.696 169.100 M176.815 168.588 C 176.816 179.472,176.922 188.652,177.051 188.988 C 177.257 189.526,179.807 189.600,198.243 189.600 L 219.200 189.600 219.200 169.200 L 219.200 148.800 198.007 148.800 L 176.815 148.800 176.815 168.588 M225.467 149.067 C 225.133 149.400,225.110 188.101,225.443 188.967 C 225.660 189.533,227.937 189.600,247.043 189.600 L 268.400 189.600 268.400 169.200 L 268.400 148.800 247.067 148.800 C 235.333 148.800,225.613 148.920,225.467 149.067 " stroke="none" fill="#2494ec" fill-rule="evenodd"></path><path id="path1" d="" stroke="none" fill="#2894ec" fill-rule="evenodd"></path><path id="path2" d="" stroke="none" fill="#2894ec" fill-rule="evenodd"></path><path id="path3" d="" stroke="none" fill="#2894ec" fill-rule="evenodd"></path><path id="path4" d="" stroke="none" fill="#2894ec" fill-rule="evenodd"></path></g></svg>