<svg id="svg" version="1.1" xmlns="http://www.w3.org/2000/svg" xmlns:xlink="http://www.w3.org/1999/xlink" width="400" height="400" viewBox="0, 0, 400,400"><g id="svgg"><path id="path1" d="M193.750 4.765 C 177.390 5.376,162.108 7.575,148.250 11.311 C 146.600 11.756,144.837 12.215,144.333 12.332 C 141.896 12.897,130.705 16.708,127.084 18.206 C 125.526 18.851,123.500 19.669,122.583 20.024 C 121.667 20.380,120.579 20.830,120.167 21.024 C 119.754 21.218,119.079 21.523,118.667 21.700 C 114.530 23.481,102.292 29.762,100.422 31.064 C 100.150 31.253,99.287 31.753,98.505 32.175 C 97.723 32.596,96.108 33.565,94.917 34.327 C 93.725 35.089,92.150 36.072,91.417 36.512 C 90.683 36.952,89.708 37.582,89.250 37.912 C 88.792 38.241,87.479 39.141,86.333 39.912 C 83.735 41.659,78.623 45.393,77.117 46.643 C 76.494 47.160,75.662 47.808,75.267 48.083 C 74.384 48.700,73.237 49.635,71.919 50.814 C 71.368 51.307,70.536 51.994,70.071 52.339 C 69.605 52.685,68.930 53.248,68.571 53.591 C 68.211 53.934,67.354 54.706,66.667 55.306 C 63.443 58.121,56.649 64.754,53.556 68.108 C 50.487 71.435,48.722 73.409,48.232 74.061 C 47.948 74.440,47.205 75.313,46.583 76.000 C 45.960 76.688,45.037 77.813,44.531 78.500 C 44.024 79.188,43.330 80.060,42.987 80.438 C 42.644 80.817,41.369 82.467,40.153 84.105 C 38.937 85.743,37.543 87.621,37.055 88.279 C 36.566 88.937,36.167 89.513,36.167 89.559 C 36.167 89.605,35.752 90.229,35.246 90.946 C 33.568 93.322,32.322 95.170,32.199 95.462 C 32.133 95.620,31.489 96.650,30.767 97.750 C 28.473 101.250,28.341 101.459,28.176 101.858 C 28.087 102.074,27.730 102.711,27.382 103.275 C 25.888 105.698,25.275 106.766,23.573 109.917 C 20.952 114.767,18.196 120.322,16.792 123.583 C 14.270 129.438,12.392 134.056,12.090 135.145 C 11.972 135.569,11.389 137.229,10.795 138.833 C 9.627 141.986,8.167 146.450,8.167 146.866 C 8.167 147.007,8.012 147.602,7.823 148.187 C 4.645 158.006,1.718 173.705,0.478 187.583 C -0.033 193.296,-0.091 215.691,0.390 221.333 C 1.103 229.698,2.094 236.811,3.591 244.300 C 3.907 245.885,4.167 247.331,4.167 247.513 C 4.167 247.944,5.652 254.167,6.391 256.833 C 8.445 264.237,9.041 266.213,10.213 269.500 C 10.752 271.012,11.590 273.382,12.074 274.765 C 12.872 277.041,15.523 283.509,15.825 283.917 C 15.893 284.008,16.080 284.496,16.241 285.000 C 16.401 285.504,17.350 287.574,18.350 289.600 C 19.349 291.626,20.167 293.351,20.167 293.433 C 20.167 293.516,20.930 294.971,21.861 296.667 C 22.793 298.362,23.815 300.275,24.132 300.917 C 26.279 305.260,35.116 318.935,39.065 324.026 C 39.587 324.699,40.443 325.825,40.966 326.527 C 41.489 327.229,42.367 328.354,42.918 329.027 C 43.469 329.700,44.064 330.475,44.240 330.750 C 44.416 331.025,45.146 331.863,45.863 332.613 C 46.580 333.362,47.167 334.046,47.167 334.133 C 47.167 334.219,47.973 335.226,48.958 336.371 C 56.594 345.241,66.161 354.555,74.167 360.913 C 74.854 361.459,75.868 362.286,76.420 362.752 C 76.972 363.218,77.835 363.872,78.337 364.207 C 78.839 364.542,79.700 365.200,80.250 365.671 C 80.800 366.142,81.962 367.010,82.833 367.601 C 83.704 368.192,85.429 369.391,86.667 370.267 C 87.904 371.143,89.029 371.904,89.167 371.959 C 89.304 372.014,90.504 372.786,91.833 373.674 C 93.162 374.562,94.711 375.542,95.274 375.852 C 96.266 376.399,98.799 377.894,100.333 378.840 C 100.746 379.094,101.796 379.672,102.667 380.125 C 103.537 380.577,105.188 381.458,106.333 382.081 C 107.479 382.705,109.102 383.535,109.939 383.927 C 110.777 384.318,112.689 385.236,114.189 385.967 C 115.689 386.697,117.329 387.460,117.833 387.662 C 119.147 388.188,120.371 388.702,123.583 390.076 C 125.142 390.742,127.242 391.568,128.250 391.912 C 129.258 392.255,130.871 392.837,131.833 393.205 C 138.629 395.802,142.466 396.014,145.981 393.986 C 147.989 392.826,149.748 390.093,150.273 387.316 C 150.502 386.104,150.391 348.158,150.158 347.941 C 150.117 347.903,148.883 348.088,147.417 348.353 C 136.242 350.372,125.546 350.334,113.167 348.231 C 98.620 345.760,87.958 337.514,83.103 324.981 C 77.662 310.934,69.749 299.979,61.909 295.637 C 57.522 293.207,53.325 288.768,53.042 286.257 C 52.543 281.827,64.903 281.615,73.492 285.907 C 82.269 290.293,88.204 295.804,93.243 304.250 C 99.990 315.559,108.640 322.426,119.000 324.698 C 122.234 325.408,131.065 325.220,136.667 324.323 C 140.701 323.677,145.786 322.219,149.078 320.765 L 150.740 320.030 151.124 317.807 C 152.815 308.008,156.492 300.259,162.162 294.542 C 162.912 293.785,163.476 293.167,163.415 293.167 C 161.712 293.167,150.660 291.466,144.917 290.321 C 123.430 286.035,104.388 275.940,93.067 262.833 C 79.246 246.831,71.375 219.244,72.516 190.805 C 73.271 171.974,80.267 154.374,91.895 142.048 L 92.994 140.882 92.235 138.829 C 87.125 125.010,87.450 109.324,93.199 92.215 C 94.802 87.444,94.645 87.720,95.925 87.421 C 102.228 85.951,112.521 88.681,129.000 96.193 C 135.567 99.187,141.839 102.769,149.122 107.687 L 149.993 108.276 152.670 107.562 C 182.229 99.685,215.587 99.540,245.740 107.159 C 247.934 107.713,249.828 108.167,249.949 108.167 C 250.069 108.167,251.911 107.065,254.042 105.718 C 264.283 99.244,268.694 96.876,277.363 93.197 C 289.852 87.896,298.413 86.014,303.781 87.390 L 304.978 87.697 305.721 89.724 C 312.527 108.279,313.165 124.465,307.668 139.101 L 307.001 140.877 308.096 142.038 C 319.766 154.409,326.657 171.741,327.501 190.847 C 328.570 215.053,322.574 240.206,311.900 256.287 C 300.904 272.855,279.880 285.337,254.432 290.407 C 249.442 291.401,237.884 293.167,236.366 293.167 C 236.324 293.167,237.105 294.012,238.103 295.045 C 244.833 302.012,248.439 311.046,249.495 323.583 C 249.600 324.833,249.664 336.633,249.665 355.024 C 249.667 390.516,249.557 388.800,252.027 391.830 C 252.287 392.148,252.500 392.505,252.500 392.622 C 252.500 393.488,256.059 395.066,258.463 395.267 C 261.350 395.508,262.791 395.177,269.426 392.747 C 270.613 392.313,272.258 391.711,273.083 391.410 C 273.908 391.109,275.821 390.322,277.333 389.662 C 278.846 389.002,280.496 388.314,281.000 388.133 C 282.057 387.754,286.442 385.727,287.917 384.936 C 288.467 384.641,289.250 384.266,289.658 384.104 C 290.065 383.942,291.603 383.164,293.074 382.375 C 294.546 381.586,296.387 380.610,297.167 380.206 C 298.651 379.437,300.888 378.151,303.000 376.853 C 303.688 376.431,304.587 375.907,305.000 375.688 C 305.412 375.470,306.855 374.551,308.205 373.646 C 309.555 372.741,310.701 372.000,310.752 372.000 C 310.856 372.000,315.180 369.024,315.833 368.503 C 316.063 368.320,316.813 367.797,317.500 367.341 C 318.188 366.886,319.200 366.131,319.750 365.666 C 320.300 365.200,321.250 364.480,321.861 364.066 C 322.472 363.651,323.375 362.961,323.867 362.531 C 324.358 362.102,325.283 361.340,325.922 360.838 C 334.849 353.828,350.443 338.098,355.641 330.860 C 355.947 330.433,356.699 329.483,357.311 328.750 C 358.736 327.042,360.000 325.392,360.000 325.240 C 360.000 325.174,360.401 324.625,360.891 324.019 C 362.247 322.341,368.000 314.174,368.000 313.927 C 368.000 313.871,368.590 312.946,369.312 311.871 C 370.569 309.999,372.000 307.726,372.000 307.602 C 372.000 307.569,372.721 306.352,373.603 304.896 C 374.484 303.441,375.486 301.688,375.829 301.000 C 376.171 300.313,377.214 298.362,378.146 296.667 C 379.078 294.971,379.887 293.396,379.943 293.167 C 379.999 292.938,380.291 292.300,380.592 291.750 C 381.547 290.003,384.000 284.694,384.000 284.374 C 384.000 284.205,384.067 283.995,384.149 283.908 C 384.515 283.521,387.102 277.144,388.407 273.417 C 388.663 272.683,389.306 270.866,389.835 269.377 C 391.760 263.957,395.447 250.507,395.924 247.159 C 395.983 246.751,396.244 245.292,396.506 243.917 C 398.000 236.061,398.864 229.812,399.608 221.500 C 399.969 217.473,400.131 197.046,399.841 192.250 C 399.231 182.164,397.985 173.108,395.567 161.167 C 395.081 158.770,393.465 152.496,392.594 149.627 C 392.267 148.551,392.000 147.563,392.000 147.432 C 392.000 147.023,390.387 142.052,389.236 138.917 C 388.631 137.267,388.075 135.692,388.001 135.417 C 387.779 134.594,387.252 133.212,386.252 130.833 C 385.732 129.596,384.870 127.533,384.337 126.250 C 382.930 122.859,382.884 122.756,381.880 120.750 C 381.375 119.742,380.629 118.167,380.223 117.250 C 379.817 116.333,378.700 114.151,377.742 112.401 C 376.784 110.650,376.000 109.175,376.000 109.123 C 376.000 108.984,373.501 104.627,373.253 104.333 C 373.137 104.196,372.719 103.483,372.325 102.750 C 371.591 101.383,371.432 101.125,369.305 97.833 C 368.624 96.779,368.020 95.804,367.962 95.667 C 367.905 95.529,367.363 94.704,366.759 93.833 C 366.155 92.962,365.160 91.500,364.549 90.583 C 363.938 89.667,363.124 88.504,362.740 88.000 C 362.357 87.496,361.073 85.771,359.887 84.167 C 358.701 82.563,357.398 80.867,356.991 80.398 C 356.583 79.929,355.903 79.067,355.479 78.481 C 355.054 77.896,354.225 76.892,353.635 76.250 C 353.046 75.608,352.268 74.698,351.907 74.228 C 351.283 73.415,349.362 71.257,346.533 68.193 C 344.351 65.828,338.846 60.366,336.175 57.917 C 334.776 56.633,333.004 55.006,332.238 54.301 C 331.471 53.595,330.447 52.724,329.963 52.365 C 329.479 52.005,328.546 51.228,327.888 50.636 C 327.231 50.045,326.294 49.264,325.805 48.902 C 325.316 48.539,324.717 48.094,324.472 47.913 C 324.228 47.732,323.516 47.160,322.889 46.643 C 321.407 45.419,316.146 41.568,314.333 40.380 C 313.554 39.869,312.317 39.019,311.583 38.491 C 310.850 37.963,309.012 36.766,307.500 35.832 C 305.987 34.898,304.375 33.879,303.917 33.569 C 303.458 33.258,302.430 32.647,301.632 32.210 C 300.833 31.774,299.221 30.856,298.048 30.170 C 295.487 28.672,293.083 27.407,288.417 25.105 C 282.322 22.098,279.672 20.881,276.833 19.785 C 276.237 19.555,274.625 18.899,273.250 18.327 C 269.786 16.885,259.622 13.399,256.333 12.524 C 255.646 12.341,254.183 11.951,253.083 11.656 C 239.397 7.989,226.560 5.933,211.500 4.996 C 208.705 4.822,196.487 4.663,193.750 4.765 " stroke="none" fill="#333333" fill-rule="evenodd"></path><path id="path0" d="M97.417 87.170 C 94.585 87.521,94.904 87.139,93.199 92.215 C 87.450 109.324,87.125 125.010,92.235 138.829 L 92.994 140.882 91.895 142.048 C 80.267 154.374,73.271 171.974,72.516 190.805 C 71.375 219.244,79.246 246.831,93.067 262.833 C 104.388 275.940,123.430 286.035,144.917 290.321 C 150.660 291.466,161.712 293.167,163.415 293.167 C 163.476 293.167,162.912 293.785,162.162 294.542 C 156.492 300.259,152.815 308.008,151.124 317.807 L 150.740 320.030 149.078 320.765 C 139.155 325.149,123.823 326.505,115.506 323.733 C 106.669 320.788,99.221 314.270,93.243 304.250 C 88.204 295.804,82.269 290.293,73.492 285.907 C 64.903 281.615,52.543 281.827,53.042 286.257 C 53.325 288.768,57.522 293.207,61.909 295.637 C 69.749 299.979,77.662 310.934,83.103 324.981 C 87.958 337.514,98.620 345.760,113.167 348.231 C 125.546 350.334,136.242 350.372,147.417 348.353 C 148.883 348.088,150.117 347.903,150.158 347.941 C 150.354 348.123,150.515 385.792,150.325 387.000 C 150.096 388.458,149.679 389.599,148.967 390.715 C 148.339 391.697,148.213 391.602,150.563 391.911 C 151.645 392.052,153.291 392.364,154.223 392.602 C 155.913 393.035,155.923 393.036,158.625 392.826 C 163.066 392.481,167.040 392.793,171.232 393.815 L 173.183 394.291 175.550 393.869 C 180.237 393.034,186.252 393.267,191.205 394.475 L 193.149 394.950 194.700 394.652 C 199.786 393.674,205.588 393.836,210.894 395.105 C 212.839 395.570,213.027 395.570,215.917 395.088 C 219.749 394.449,224.618 394.580,229.260 395.446 L 231.603 395.883 233.927 395.443 C 237.164 394.829,239.812 394.611,242.831 394.707 L 245.417 394.790 247.118 394.149 C 248.053 393.796,249.618 393.284,250.595 393.012 C 252.724 392.419,252.595 392.526,252.023 391.824 C 249.558 388.801,249.667 390.508,249.665 355.024 C 249.664 336.633,249.600 324.833,249.495 323.583 C 248.439 311.046,244.833 302.012,238.103 295.045 C 237.105 294.012,236.324 293.167,236.366 293.167 C 237.884 293.167,249.442 291.401,254.432 290.407 C 277.648 285.782,297.352 274.911,309.026 260.287 C 326.020 238.998,332.795 195.407,323.382 167.917 C 320.172 158.543,314.320 148.636,308.096 142.038 L 307.001 140.877 307.668 139.101 C 313.165 124.465,312.527 108.279,305.721 89.724 L 304.978 87.697 303.781 87.390 C 298.413 86.014,289.852 87.896,277.363 93.197 C 268.694 96.876,264.283 99.244,254.042 105.718 C 251.911 107.065,250.069 108.167,249.949 108.167 C 249.828 108.167,247.934 107.713,245.740 107.159 C 215.587 99.540,182.229 99.685,152.670 107.562 L 149.993 108.276 149.122 107.687 C 139.551 101.224,132.886 97.666,121.793 93.096 C 109.733 88.128,102.964 86.482,97.417 87.170 M45.992 333.011 C 46.387 333.705,47.167 334.485,47.167 334.186 C 47.167 334.073,46.826 333.629,46.410 333.199 C 45.676 332.440,45.664 332.434,45.992 333.011 M398.972 389.458 C 396.516 392.437,393.558 395.188,390.947 396.922 C 389.638 397.792,388.333 399.291,388.333 399.926 C 388.333 399.967,390.958 400.000,394.167 400.000 L 400.000 400.000 400.000 394.167 C 400.000 390.958,399.977 388.333,399.950 388.333 C 399.922 388.333,399.482 388.840,398.972 389.458 " stroke="none" fill="#fbfbfb" fill-rule="evenodd"></path><path id="path1" d="M193.750 4.765 C 177.390 5.376,162.108 7.575,148.250 11.311 C 146.600 11.756,144.837 12.215,144.333 12.332 C 141.896 12.897,130.705 16.708,127.084 18.206 C 125.526 18.851,123.500 19.669,122.583 20.024 C 121.667 20.380,120.579 20.830,120.167 21.024 C 119.754 21.218,119.079 21.523,118.667 21.700 C 114.530 23.481,102.292 29.762,100.422 31.064 C 100.150 31.253,99.287 31.753,98.505 32.175 C 97.723 32.596,96.108 33.565,94.917 34.327 C 93.725 35.089,92.150 36.072,91.417 36.512 C 90.683 36.952,89.708 37.582,89.250 37.912 C 88.792 38.241,87.479 39.141,86.333 39.912 C 83.735 41.659,78.623 45.393,77.117 46.643 C 76.494 47.160,75.662 47.808,75.267 48.083 C 74.384 48.700,73.237 49.635,71.919 50.814 C 71.368 51.307,70.536 51.994,70.071 52.339 C 69.605 52.685,68.930 53.248,68.571 53.591 C 68.211 53.934,67.354 54.706,66.667 55.306 C 63.443 58.121,56.649 64.754,53.556 68.108 C 50.487 71.435,48.722 73.409,48.232 74.061 C 47.948 74.440,47.205 75.313,46.583 76.000 C 45.960 76.688,45.037 77.813,44.531 78.500 C 44.024 79.188,43.330 80.060,42.987 80.438 C 42.644 80.817,41.369 82.467,40.153 84.105 C 38.937 85.743,37.543 87.621,37.055 88.279 C 36.566 88.937,36.167 89.513,36.167 89.559 C 36.167 89.605,35.752 90.229,35.246 90.946 C 33.568 93.322,32.322 95.170,32.199 95.462 C 32.133 95.620,31.489 96.650,30.767 97.750 C 28.473 101.250,28.341 101.459,28.176 101.858 C 28.087 102.074,27.730 102.711,27.382 103.275 C 25.888 105.698,25.275 106.766,23.573 109.917 C 20.952 114.767,18.196 120.322,16.792 123.583 C 14.270 129.438,12.392 134.056,12.090 135.145 C 11.972 135.569,11.389 137.229,10.795 138.833 C 9.627 141.986,8.167 146.450,8.167 146.866 C 8.167 147.007,8.012 147.602,7.823 148.187 C 4.645 158.006,1.718 173.705,0.478 187.583 C -0.033 193.296,-0.091 215.691,0.390 221.333 C 1.103 229.698,2.094 236.811,3.591 244.300 C 3.907 245.885,4.167 247.331,4.167 247.513 C 4.167 247.944,5.652 254.167,6.391 256.833 C 8.445 264.237,9.041 266.213,10.213 269.500 C 10.752 271.012,11.590 273.382,12.074 274.765 C 12.872 277.041,15.523 283.509,15.825 283.917 C 15.893 284.008,16.080 284.496,16.241 285.000 C 16.401 285.504,17.350 287.574,18.350 289.600 C 19.349 291.626,20.167 293.351,20.167 293.433 C 20.167 293.516,20.930 294.971,21.861 296.667 C 22.793 298.362,23.815 300.275,24.132 300.917 C 26.279 305.260,35.116 318.935,39.065 324.026 C 39.587 324.699,40.443 325.825,40.966 326.527 C 41.489 327.229,42.367 328.354,42.918 329.027 C 43.469 329.700,44.064 330.475,44.240 330.750 C 44.416 331.025,45.146 331.863,45.863 332.613 C 46.580 333.362,47.167 334.046,47.167 334.133 C 47.167 334.219,47.973 335.226,48.958 336.371 C 56.594 345.241,66.161 354.555,74.167 360.913 C 74.854 361.459,75.868 362.286,76.420 362.752 C 76.972 363.218,77.835 363.872,78.337 364.207 C 78.839 364.542,79.700 365.200,80.250 365.671 C 80.800 366.142,81.962 367.010,82.833 367.601 C 83.704 368.192,85.429 369.391,86.667 370.267 C 87.904 371.143,89.029 371.904,89.167 371.959 C 89.304 372.014,90.504 372.786,91.833 373.674 C 93.162 374.562,94.711 375.542,95.274 375.852 C 96.266 376.399,98.799 377.894,100.333 378.840 C 100.746 379.094,101.796 379.672,102.667 380.125 C 103.537 380.577,105.188 381.458,106.333 382.081 C 107.479 382.705,109.102 383.535,109.939 383.927 C 110.777 384.318,112.689 385.236,114.189 385.967 C 115.689 386.697,117.329 387.460,117.833 387.662 C 119.147 388.188,120.371 388.702,123.583 390.076 C 125.142 390.742,127.242 391.568,128.250 391.912 C 129.258 392.255,130.871 392.837,131.833 393.205 C 138.629 395.802,142.466 396.014,145.981 393.986 C 147.989 392.826,149.748 390.093,150.273 387.316 C 150.502 386.104,150.391 348.158,150.158 347.941 C 150.117 347.903,148.883 348.088,147.417 348.353 C 136.242 350.372,125.546 350.334,113.167 348.231 C 98.620 345.760,87.958 337.514,83.103 324.981 C 77.662 310.934,69.749 299.979,61.909 295.637 C 57.522 293.207,53.325 288.768,53.042 286.257 C 52.543 281.827,64.903 281.615,73.492 285.907 C 82.269 290.293,88.204 295.804,93.243 304.250 C 99.990 315.559,108.640 322.426,119.000 324.698 C 122.234 325.408,131.065 325.220,136.667 324.323 C 140.701 323.677,145.786 322.219,149.078 320.765 L 150.740 320.030 151.124 317.807 C 152.815 308.008,156.492 300.259,162.162 294.542 C 162.912 293.785,163.476 293.167,163.415 293.167 C 161.712 293.167,150.660 291.466,144.917 290.321 C 123.430 286.035,104.388 275.940,93.067 262.833 C 79.246 246.831,71.375 219.244,72.516 190.805 C 73.271 171.974,80.267 154.374,91.895 142.048 L 92.994 140.882 92.235 138.829 C 87.125 125.010,87.450 109.324,93.199 92.215 C 94.802 87.444,94.645 87.720,95.925 87.421 C 102.228 85.951,112.521 88.681,129.000 96.193 C 135.567 99.187,141.839 102.769,149.122 107.687 L 149.993 108.276 152.670 107.562 C 182.229 99.685,215.587 99.540,245.740 107.159 C 247.934 107.713,249.828 108.167,249.949 108.167 C 250.069 108.167,251.911 107.065,254.042 105.718 C 264.283 99.244,268.694 96.876,277.363 93.197 C 289.852 87.896,298.413 86.014,303.781 87.390 L 304.978 87.697 305.721 89.724 C 312.527 108.279,313.165 124.465,307.668 139.101 L 307.001 140.877 308.096 142.038 C 319.766 154.409,326.657 171.741,327.501 190.847 C 328.570 215.053,322.574 240.206,311.900 256.287 C 300.904 272.855,279.880 285.337,254.432 290.407 C 249.442 291.401,237.884 293.167,236.366 293.167 C 236.324 293.167,237.105 294.012,238.103 295.045 C 244.833 302.012,248.439 311.046,249.495 323.583 C 249.600 324.833,249.664 336.633,249.665 355.024 C 249.667 390.516,249.557 388.800,252.027 391.830 C 252.287 392.148,252.500 392.505,252.500 392.622 C 252.500 393.488,256.059 395.066,258.463 395.267 C 261.350 395.508,262.791 395.177,269.426 392.747 C 270.613 392.313,272.258 391.711,273.083 391.410 C 273.908 391.109,275.821 390.322,277.333 389.662 C 278.846 389.002,280.496 388.314,281.000 388.133 C 282.057 387.754,286.442 385.727,287.917 384.936 C 288.467 384.641,289.250 384.266,289.658 384.104 C 290.065 383.942,291.603 383.164,293.074 382.375 C 294.546 381.586,296.387 380.610,297.167 380.206 C 298.651 379.437,300.888 378.151,303.000 376.853 C 303.688 376.431,304.587 375.907,305.000 375.688 C 305.412 375.470,306.855 374.551,308.205 373.646 C 309.555 372.741,310.701 372.000,310.752 372.000 C 310.856 372.000,315.180 369.024,315.833 368.503 C 316.063 368.320,316.813 367.797,317.500 367.341 C 318.188 366.886,319.200 366.131,319.750 365.666 C 320.300 365.200,321.250 364.480,321.861 364.066 C 322.472 363.651,323.375 362.961,323.867 362.531 C 324.358 362.102,325.283 361.340,325.922 360.838 C 334.849 353.828,350.443 338.098,355.641 330.860 C 355.947 330.433,356.699 329.483,357.311 328.750 C 358.736 327.042,360.000 325.392,360.000 325.240 C 360.000 325.174,360.401 324.625,360.891 324.019 C 362.247 322.341,368.000 314.174,368.000 313.927 C 368.000 313.871,368.590 312.946,369.312 311.871 C 370.569 309.999,372.000 307.726,372.000 307.602 C 372.000 307.569,372.721 306.352,373.603 304.896 C 374.484 303.441,375.486 301.688,375.829 301.000 C 376.171 300.313,377.214 298.362,378.146 296.667 C 379.078 294.971,379.887 293.396,379.943 293.167 C 379.999 292.938,380.291 292.300,380.592 291.750 C 381.547 290.003,384.000 284.694,384.000 284.374 C 384.000 284.205,384.067 283.995,384.149 283.908 C 384.515 283.521,387.102 277.144,388.407 273.417 C 388.663 272.683,389.306 270.866,389.835 269.377 C 391.760 263.957,395.447 250.507,395.924 247.159 C 395.983 246.751,396.244 245.292,396.506 243.917 C 398.000 236.061,398.864 229.812,399.608 221.500 C 399.969 217.473,400.131 197.046,399.841 192.250 C 399.231 182.164,397.985 173.108,395.567 161.167 C 395.081 158.770,393.465 152.496,392.594 149.627 C 392.267 148.551,392.000 147.563,392.000 147.432 C 392.000 147.023,390.387 142.052,389.236 138.917 C 388.631 137.267,388.075 135.692,388.001 135.417 C 387.779 134.594,387.252 133.212,386.252 130.833 C 385.732 129.596,384.870 127.533,384.337 126.250 C 382.930 122.859,382.884 122.756,381.880 120.750 C 381.375 119.742,380.629 118.167,380.223 117.250 C 379.817 116.333,378.700 114.151,377.742 112.401 C 376.784 110.650,376.000 109.175,376.000 109.123 C 376.000 108.984,373.501 104.627,373.253 104.333 C 373.137 104.196,372.719 103.483,372.325 102.750 C 371.591 101.383,371.432 101.125,369.305 97.833 C 368.624 96.779,368.020 95.804,367.962 95.667 C 367.905 95.529,367.363 94.704,366.759 93.833 C 366.155 92.962,365.160 91.500,364.549 90.583 C 363.938 89.667,363.124 88.504,362.740 88.000 C 362.357 87.496,361.073 85.771,359.887 84.167 C 358.701 82.563,357.398 80.867,356.991 80.398 C 356.583 79.929,355.903 79.067,355.479 78.481 C 355.054 77.896,354.225 76.892,353.635 76.250 C 353.046 75.608,352.268 74.698,351.907 74.228 C 351.283 73.415,349.362 71.257,346.533 68.193 C 344.351 65.828,338.846 60.366,336.175 57.917 C 334.776 56.633,333.004 55.006,332.238 54.301 C 331.471 53.595,330.447 52.724,329.963 52.365 C 329.479 52.005,328.546 51.228,327.888 50.636 C 327.231 50.045,326.294 49.264,325.805 48.902 C 325.316 48.539,324.717 48.094,324.472 47.913 C 324.228 47.732,323.516 47.160,322.889 46.643 C 321.407 45.419,316.146 41.568,314.333 40.380 C 313.554 39.869,312.317 39.019,311.583 38.491 C 310.850 37.963,309.012 36.766,307.500 35.832 C 305.987 34.898,304.375 33.879,303.917 33.569 C 303.458 33.258,302.430 32.647,301.632 32.210 C 300.833 31.774,299.221 30.856,298.048 30.170 C 295.487 28.672,293.083 27.407,288.417 25.105 C 282.322 22.098,279.672 20.881,276.833 19.785 C 276.237 19.555,274.625 18.899,273.250 18.327 C 269.786 16.885,259.622 13.399,256.333 12.524 C 255.646 12.341,254.183 11.951,253.083 11.656 C 239.397 7.989,226.560 5.933,211.500 4.996 C 208.705 4.822,196.487 4.663,193.750 4.765 " stroke="none" fill="#333333" fill-rule="evenodd"></path><path id="path0" d="M97.417 87.170 C 94.585 87.521,94.904 87.139,93.199 92.215 C 87.450 109.324,87.125 125.010,92.235 138.829 L 92.994 140.882 91.895 142.048 C 80.267 154.374,73.271 171.974,72.516 190.805 C 71.375 219.244,79.246 246.831,93.067 262.833 C 104.388 275.940,123.430 286.035,144.917 290.321 C 150.660 291.466,161.712 293.167,163.415 293.167 C 163.476 293.167,162.912 293.785,162.162 294.542 C 156.492 300.259,152.815 308.008,151.124 317.807 L 150.740 320.030 149.078 320.765 C 139.155 325.149,123.823 326.505,115.506 323.733 C 106.669 320.788,99.221 314.270,93.243 304.250 C 88.204 295.804,82.269 290.293,73.492 285.907 C 64.903 281.615,52.543 281.827,53.042 286.257 C 53.325 288.768,57.522 293.207,61.909 295.637 C 69.749 299.979,77.662 310.934,83.103 324.981 C 87.958 337.514,98.620 345.760,113.167 348.231 C 125.546 350.334,136.242 350.372,147.417 348.353 C 148.883 348.088,150.117 347.903,150.158 347.941 C 150.354 348.123,150.515 385.792,150.325 387.000 C 150.096 388.458,149.679 389.599,148.967 390.715 C 148.339 391.697,148.213 391.602,150.563 391.911 C 151.645 392.052,153.291 392.364,154.223 392.602 C 155.913 393.035,155.923 393.036,158.625 392.826 C 163.066 392.481,167.040 392.793,171.232 393.815 L 173.183 394.291 175.550 393.869 C 180.237 393.034,186.252 393.267,191.205 394.475 L 193.149 394.950 194.700 394.652 C 199.786 393.674,205.588 393.836,210.894 395.105 C 212.839 395.570,213.027 395.570,215.917 395.088 C 219.749 394.449,224.618 394.580,229.260 395.446 L 231.603 395.883 233.927 395.443 C 237.164 394.829,239.812 394.611,242.831 394.707 L 245.417 394.790 247.118 394.149 C 248.053 393.796,249.618 393.284,250.595 393.012 C 252.724 392.419,252.595 392.526,252.023 391.824 C 249.558 388.801,249.667 390.508,249.665 355.024 C 249.664 336.633,249.600 324.833,249.495 323.583 C 248.439 311.046,244.833 302.012,238.103 295.045 C 237.105 294.012,236.324 293.167,236.366 293.167 C 237.884 293.167,249.442 291.401,254.432 290.407 C 277.648 285.782,297.352 274.911,309.026 260.287 C 326.020 238.998,332.795 195.407,323.382 167.917 C 320.172 158.543,314.320 148.636,308.096 142.038 L 307.001 140.877 307.668 139.101 C 313.165 124.465,312.527 108.279,305.721 89.724 L 304.978 87.697 303.781 87.390 C 298.413 86.014,289.852 87.896,277.363 93.197 C 268.694 96.876,264.283 99.244,254.042 105.718 C 251.911 107.065,250.069 108.167,249.949 108.167 C 249.828 108.167,247.934 107.713,245.740 107.159 C 215.587 99.540,182.229 99.685,152.670 107.562 L 149.993 108.276 149.122 107.687 C 139.551 101.224,132.886 97.666,121.793 93.096 C 109.733 88.128,102.964 86.482,97.417 87.170 M45.992 333.011 C 46.387 333.705,47.167 334.485,47.167 334.186 C 47.167 334.073,46.826 333.629,46.410 333.199 C 45.676 332.440,45.664 332.434,45.992 333.011 M398.972 389.458 C 396.516 392.437,393.558 395.188,390.947 396.922 C 389.638 397.792,388.333 399.291,388.333 399.926 C 388.333 399.967,390.958 400.000,394.167 400.000 L 400.000 400.000 400.000 394.167 C 400.000 390.958,399.977 388.333,399.950 388.333 C 399.922 388.333,399.482 388.840,398.972 389.458 " stroke="none" fill="#fbfbfb" fill-rule="evenodd"></path><path id="path1" d="M193.750 4.765 C 177.390 5.376,162.108 7.575,148.250 11.311 C 146.600 11.756,144.837 12.215,144.333 12.332 C 141.896 12.897,130.705 16.708,127.084 18.206 C 125.526 18.851,123.500 19.669,122.583 20.024 C 121.667 20.380,120.579 20.830,120.167 21.024 C 119.754 21.218,119.079 21.523,118.667 21.700 C 114.530 23.481,102.292 29.762,100.422 31.064 C 100.150 31.253,99.287 31.753,98.505 32.175 C 97.723 32.596,96.108 33.565,94.917 34.327 C 93.725 35.089,92.150 36.072,91.417 36.512 C 90.683 36.952,89.708 37.582,89.250 37.912 C 88.792 38.241,87.479 39.141,86.333 39.912 C 83.735 41.659,78.623 45.393,77.117 46.643 C 76.494 47.160,75.662 47.808,75.267 48.083 C 74.384 48.700,73.237 49.635,71.919 50.814 C 71.368 51.307,70.536 51.994,70.071 52.339 C 69.605 52.685,68.930 53.248,68.571 53.591 C 68.211 53.934,67.354 54.706,66.667 55.306 C 63.443 58.121,56.649 64.754,53.556 68.108 C 50.487 71.435,48.722 73.409,48.232 74.061 C 47.948 74.440,47.205 75.313,46.583 76.000 C 45.960 76.688,45.037 77.813,44.531 78.500 C 44.024 79.188,43.330 80.060,42.987 80.438 C 42.644 80.817,41.369 82.467,40.153 84.105 C 38.937 85.743,37.543 87.621,37.055 88.279 C 36.566 88.937,36.167 89.513,36.167 89.559 C 36.167 89.605,35.752 90.229,35.246 90.946 C 33.568 93.322,32.322 95.170,32.199 95.462 C 32.133 95.620,31.489 96.650,30.767 97.750 C 28.473 101.250,28.341 101.459,28.176 101.858 C 28.087 102.074,27.730 102.711,27.382 103.275 C 25.888 105.698,25.275 106.766,23.573 109.917 C 20.952 114.767,18.196 120.322,16.792 123.583 C 14.270 129.438,12.392 134.056,12.090 135.145 C 11.972 135.569,11.389 137.229,10.795 138.833 C 9.627 141.986,8.167 146.450,8.167 146.866 C 8.167 147.007,8.012 147.602,7.823 148.187 C 4.645 158.006,1.718 173.705,0.478 187.583 C -0.033 193.296,-0.091 215.691,0.390 221.333 C 1.103 229.698,2.094 236.811,3.591 244.300 C 3.907 245.885,4.167 247.331,4.167 247.513 C 4.167 247.944,5.652 254.167,6.391 256.833 C 8.445 264.237,9.041 266.213,10.213 269.500 C 10.752 271.012,11.590 273.382,12.074 274.765 C 12.872 277.041,15.523 283.509,15.825 283.917 C 15.893 284.008,16.080 284.496,16.241 285.000 C 16.401 285.504,17.350 287.574,18.350 289.600 C 19.349 291.626,20.167 293.351,20.167 293.433 C 20.167 293.516,20.930 294.971,21.861 296.667 C 22.793 298.362,23.815 300.275,24.132 300.917 C 26.279 305.260,35.116 318.935,39.065 324.026 C 39.587 324.699,40.443 325.825,40.966 326.527 C 41.489 327.229,42.367 328.354,42.918 329.027 C 43.469 329.700,44.064 330.475,44.240 330.750 C 44.416 331.025,45.146 331.863,45.863 332.613 C 46.580 333.362,47.167 334.046,47.167 334.133 C 47.167 334.219,47.973 335.226,48.958 336.371 C 56.594 345.241,66.161 354.555,74.167 360.913 C 74.854 361.459,75.868 362.286,76.420 362.752 C 76.972 363.218,77.835 363.872,78.337 364.207 C 78.839 364.542,79.700 365.200,80.250 365.671 C 80.800 366.142,81.962 367.010,82.833 367.601 C 83.704 368.192,85.429 369.391,86.667 370.267 C 87.904 371.143,89.029 371.904,89.167 371.959 C 89.304 372.014,90.504 372.786,91.833 373.674 C 93.162 374.562,94.711 375.542,95.274 375.852 C 96.266 376.399,98.799 377.894,100.333 378.840 C 100.746 379.094,101.796 379.672,102.667 380.125 C 103.537 380.577,105.188 381.458,106.333 382.081 C 107.479 382.705,109.102 383.535,109.939 383.927 C 110.777 384.318,112.689 385.236,114.189 385.967 C 115.689 386.697,117.329 387.460,117.833 387.662 C 119.147 388.188,120.371 388.702,123.583 390.076 C 125.142 390.742,127.242 391.568,128.250 391.912 C 129.258 392.255,130.871 392.837,131.833 393.205 C 138.629 395.802,142.466 396.014,145.981 393.986 C 147.989 392.826,149.748 390.093,150.273 387.316 C 150.502 386.104,150.391 348.158,150.158 347.941 C 150.117 347.903,148.883 348.088,147.417 348.353 C 136.242 350.372,125.546 350.334,113.167 348.231 C 98.620 345.760,87.958 337.514,83.103 324.981 C 77.662 310.934,69.749 299.979,61.909 295.637 C 57.522 293.207,53.325 288.768,53.042 286.257 C 52.543 281.827,64.903 281.615,73.492 285.907 C 82.269 290.293,88.204 295.804,93.243 304.250 C 99.990 315.559,108.640 322.426,119.000 324.698 C 122.234 325.408,131.065 325.220,136.667 324.323 C 140.701 323.677,145.786 322.219,149.078 320.765 L 150.740 320.030 151.124 317.807 C 152.815 308.008,156.492 300.259,162.162 294.542 C 162.912 293.785,163.476 293.167,163.415 293.167 C 161.712 293.167,150.660 291.466,144.917 290.321 C 123.430 286.035,104.388 275.940,93.067 262.833 C 79.246 246.831,71.375 219.244,72.516 190.805 C 73.271 171.974,80.267 154.374,91.895 142.048 L 92.994 140.882 92.235 138.829 C 87.125 125.010,87.450 109.324,93.199 92.215 C 94.802 87.444,94.645 87.720,95.925 87.421 C 102.228 85.951,112.521 88.681,129.000 96.193 C 135.567 99.187,141.839 102.769,149.122 107.687 L 149.993 108.276 152.670 107.562 C 182.229 99.685,215.587 99.540,245.740 107.159 C 247.934 107.713,249.828 108.167,249.949 108.167 C 250.069 108.167,251.911 107.065,254.042 105.718 C 264.283 99.244,268.694 96.876,277.363 93.197 C 289.852 87.896,298.413 86.014,303.781 87.390 L 304.978 87.697 305.721 89.724 C 312.527 108.279,313.165 124.465,307.668 139.101 L 307.001 140.877 308.096 142.038 C 319.766 154.409,326.657 171.741,327.501 190.847 C 328.570 215.053,322.574 240.206,311.900 256.287 C 300.904 272.855,279.880 285.337,254.432 290.407 C 249.442 291.401,237.884 293.167,236.366 293.167 C 236.324 293.167,237.105 294.012,238.103 295.045 C 244.833 302.012,248.439 311.046,249.495 323.583 C 249.600 324.833,249.664 336.633,249.665 355.024 C 249.667 390.516,249.557 388.800,252.027 391.830 C 252.287 392.148,252.500 392.505,252.500 392.622 C 252.500 393.488,256.059 395.066,258.463 395.267 C 261.350 395.508,262.791 395.177,269.426 392.747 C 270.613 392.313,272.258 391.711,273.083 391.410 C 273.908 391.109,275.821 390.322,277.333 389.662 C 278.846 389.002,280.496 388.314,281.000 388.133 C 282.057 387.754,286.442 385.727,287.917 384.936 C 288.467 384.641,289.250 384.266,289.658 384.104 C 290.065 383.942,291.603 383.164,293.074 382.375 C 294.546 381.586,296.387 380.610,297.167 380.206 C 298.651 379.437,300.888 378.151,303.000 376.853 C 303.688 376.431,304.587 375.907,305.000 375.688 C 305.412 375.470,306.855 374.551,308.205 373.646 C 309.555 372.741,310.701 372.000,310.752 372.000 C 310.856 372.000,315.180 369.024,315.833 368.503 C 316.063 368.320,316.813 367.797,317.500 367.341 C 318.188 366.886,319.200 366.131,319.750 365.666 C 320.300 365.200,321.250 364.480,321.861 364.066 C 322.472 363.651,323.375 362.961,323.867 362.531 C 324.358 362.102,325.283 361.340,325.922 360.838 C 334.849 353.828,350.443 338.098,355.641 330.860 C 355.947 330.433,356.699 329.483,357.311 328.750 C 358.736 327.042,360.000 325.392,360.000 325.240 C 360.000 325.174,360.401 324.625,360.891 324.019 C 362.247 322.341,368.000 314.174,368.000 313.927 C 368.000 313.871,368.590 312.946,369.312 311.871 C 370.569 309.999,372.000 307.726,372.000 307.602 C 372.000 307.569,372.721 306.352,373.603 304.896 C 374.484 303.441,375.486 301.688,375.829 301.000 C 376.171 300.313,377.214 298.362,378.146 296.667 C 379.078 294.971,379.887 293.396,379.943 293.167 C 379.999 292.938,380.291 292.300,380.592 291.750 C 381.547 290.003,384.000 284.694,384.000 284.374 C 384.000 284.205,384.067 283.995,384.149 283.908 C 384.515 283.521,387.102 277.144,388.407 273.417 C 388.663 272.683,389.306 270.866,389.835 269.377 C 391.760 263.957,395.447 250.507,395.924 247.159 C 395.983 246.751,396.244 245.292,396.506 243.917 C 398.000 236.061,398.864 229.812,399.608 221.500 C 399.969 217.473,400.131 197.046,399.841 192.250 C 399.231 182.164,397.985 173.108,395.567 161.167 C 395.081 158.770,393.465 152.496,392.594 149.627 C 392.267 148.551,392.000 147.563,392.000 147.432 C 392.000 147.023,390.387 142.052,389.236 138.917 C 388.631 137.267,388.075 135.692,388.001 135.417 C 387.779 134.594,387.252 133.212,386.252 130.833 C 385.732 129.596,384.870 127.533,384.337 126.250 C 382.930 122.859,382.884 122.756,381.880 120.750 C 381.375 119.742,380.629 118.167,380.223 117.250 C 379.817 116.333,378.700 114.151,377.742 112.401 C 376.784 110.650,376.000 109.175,376.000 109.123 C 376.000 108.984,373.501 104.627,373.253 104.333 C 373.137 104.196,372.719 103.483,372.325 102.750 C 371.591 101.383,371.432 101.125,369.305 97.833 C 368.624 96.779,368.020 95.804,367.962 95.667 C 367.905 95.529,367.363 94.704,366.759 93.833 C 366.155 92.962,365.160 91.500,364.549 90.583 C 363.938 89.667,363.124 88.504,362.740 88.000 C 362.357 87.496,361.073 85.771,359.887 84.167 C 358.701 82.563,357.398 80.867,356.991 80.398 C 356.583 79.929,355.903 79.067,355.479 78.481 C 355.054 77.896,354.225 76.892,353.635 76.250 C 353.046 75.608,352.268 74.698,351.907 74.228 C 351.283 73.415,349.362 71.257,346.533 68.193 C 344.351 65.828,338.846 60.366,336.175 57.917 C 334.776 56.633,333.004 55.006,332.238 54.301 C 331.471 53.595,330.447 52.724,329.963 52.365 C 329.479 52.005,328.546 51.228,327.888 50.636 C 327.231 50.045,326.294 49.264,325.805 48.902 C 325.316 48.539,324.717 48.094,324.472 47.913 C 324.228 47.732,323.516 47.160,322.889 46.643 C 321.407 45.419,316.146 41.568,314.333 40.380 C 313.554 39.869,312.317 39.019,311.583 38.491 C 310.850 37.963,309.012 36.766,307.500 35.832 C 305.987 34.898,304.375 33.879,303.917 33.569 C 303.458 33.258,302.430 32.647,301.632 32.210 C 300.833 31.774,299.221 30.856,298.048 30.170 C 295.487 28.672,293.083 27.407,288.417 25.105 C 282.322 22.098,279.672 20.881,276.833 19.785 C 276.237 19.555,274.625 18.899,273.250 18.327 C 269.786 16.885,259.622 13.399,256.333 12.524 C 255.646 12.341,254.183 11.951,253.083 11.656 C 239.397 7.989,226.560 5.933,211.500 4.996 C 208.705 4.822,196.487 4.663,193.750 4.765 " stroke="none" fill="#333333" fill-rule="evenodd"></path><path id="path0" d="M97.417 87.170 C 94.585 87.521,94.904 87.139,93.199 92.215 C 87.450 109.324,87.125 125.010,92.235 138.829 L 92.994 140.882 91.895 142.048 C 80.267 154.374,73.271 171.974,72.516 190.805 C 71.375 219.244,79.246 246.831,93.067 262.833 C 104.388 275.940,123.430 286.035,144.917 290.321 C 150.660 291.466,161.712 293.167,163.415 293.167 C 163.476 293.167,162.912 293.785,162.162 294.542 C 156.492 300.259,152.815 308.008,151.124 317.807 L 150.740 320.030 149.078 320.765 C 139.155 325.149,123.823 326.505,115.506 323.733 C 106.669 320.788,99.221 314.270,93.243 304.250 C 88.204 295.804,82.269 290.293,73.492 285.907 C 64.903 281.615,52.543 281.827,53.042 286.257 C 53.325 288.768,57.522 293.207,61.909 295.637 C 69.749 299.979,77.662 310.934,83.103 324.981 C 87.958 337.514,98.620 345.760,113.167 348.231 C 125.546 350.334,136.242 350.372,147.417 348.353 C 148.883 348.088,150.117 347.903,150.158 347.941 C 150.354 348.123,150.515 385.792,150.325 387.000 C 150.096 388.458,149.679 389.599,148.967 390.715 C 148.339 391.697,148.213 391.602,150.563 391.911 C 151.645 392.052,153.291 392.364,154.223 392.602 C 155.913 393.035,155.923 393.036,158.625 392.826 C 163.066 392.481,167.040 392.793,171.232 393.815 L 173.183 394.291 175.550 393.869 C 180.237 393.034,186.252 393.267,191.205 394.475 L 193.149 394.950 194.700 394.652 C 199.786 393.674,205.588 393.836,210.894 395.105 C 212.839 395.570,213.027 395.570,215.917 395.088 C 219.749 394.449,224.618 394.580,229.260 395.446 L 231.603 395.883 233.927 395.443 C 237.164 394.829,239.812 394.611,242.831 394.707 L 245.417 394.790 247.118 394.149 C 248.053 393.796,249.618 393.284,250.595 393.012 C 252.724 392.419,252.595 392.526,252.023 391.824 C 249.558 388.801,249.667 390.508,249.665 355.024 C 249.664 336.633,249.600 324.833,249.495 323.583 C 248.439 311.046,244.833 302.012,238.103 295.045 C 237.105 294.012,236.324 293.167,236.366 293.167 C 237.884 293.167,249.442 291.401,254.432 290.407 C 277.648 285.782,297.352 274.911,309.026 260.287 C 326.020 238.998,332.795 195.407,323.382 167.917 C 320.172 158.543,314.320 148.636,308.096 142.038 L 307.001 140.877 307.668 139.101 C 313.165 124.465,312.527 108.279,305.721 89.724 L 304.978 87.697 303.781 87.390 C 298.413 86.014,289.852 87.896,277.363 93.197 C 268.694 96.876,264.283 99.244,254.042 105.718 C 251.911 107.065,250.069 108.167,249.949 108.167 C 249.828 108.167,247.934 107.713,245.740 107.159 C 215.587 99.540,182.229 99.685,152.670 107.562 L 149.993 108.276 149.122 107.687 C 139.551 101.224,132.886 97.666,121.793 93.096 C 109.733 88.128,102.964 86.482,97.417 87.170 M45.992 333.011 C 46.387 333.705,47.167 334.485,47.167 334.186 C 47.167 334.073,46.826 333.629,46.410 333.199 C 45.676 332.440,45.664 332.434,45.992 333.011 M398.972 389.458 C 396.516 392.437,393.558 395.188,390.947 396.922 C 389.638 397.792,388.333 399.291,388.333 399.926 C 388.333 399.967,390.958 400.000,394.167 400.000 L 400.000 400.000 400.000 394.167 C 400.000 390.958,399.977 388.333,399.950 388.333 C 399.922 388.333,399.482 388.840,398.972 389.458 " stroke="none" fill="#fbfbfb" fill-rule="evenodd"></path><path id="path1" d="M193.750 4.765 C 177.390 5.376,162.108 7.575,148.250 11.311 C 146.600 11.756,144.837 12.215,144.333 12.332 C 141.896 12.897,130.705 16.708,127.084 18.206 C 125.526 18.851,123.500 19.669,122.583 20.024 C 121.667 20.380,120.579 20.830,120.167 21.024 C 119.754 21.218,119.079 21.523,118.667 21.700 C 114.530 23.481,102.292 29.762,100.422 31.064 C 100.150 31.253,99.287 31.753,98.505 32.175 C 97.723 32.596,96.108 33.565,94.917 34.327 C 93.725 35.089,92.150 36.072,91.417 36.512 C 90.683 36.952,89.708 37.582,89.250 37.912 C 88.792 38.241,87.479 39.141,86.333 39.912 C 83.735 41.659,78.623 45.393,77.117 46.643 C 76.494 47.160,75.662 47.808,75.267 48.083 C 74.384 48.700,73.237 49.635,71.919 50.814 C 71.368 51.307,70.536 51.994,70.071 52.339 C 69.605 52.685,68.930 53.248,68.571 53.591 C 68.211 53.934,67.354 54.706,66.667 55.306 C 63.443 58.121,56.649 64.754,53.556 68.108 C 50.487 71.435,48.722 73.409,48.232 74.061 C 47.948 74.440,47.205 75.313,46.583 76.000 C 45.960 76.688,45.037 77.813,44.531 78.500 C 44.024 79.188,43.330 80.060,42.987 80.438 C 42.644 80.817,41.369 82.467,40.153 84.105 C 38.937 85.743,37.543 87.621,37.055 88.279 C 36.566 88.937,36.167 89.513,36.167 89.559 C 36.167 89.605,35.752 90.229,35.246 90.946 C 33.568 93.322,32.322 95.170,32.199 95.462 C 32.133 95.620,31.489 96.650,30.767 97.750 C 28.473 101.250,28.341 101.459,28.176 101.858 C 28.087 102.074,27.730 102.711,27.382 103.275 C 25.888 105.698,25.275 106.766,23.573 109.917 C 20.952 114.767,18.196 120.322,16.792 123.583 C 14.270 129.438,12.392 134.056,12.090 135.145 C 11.972 135.569,11.389 137.229,10.795 138.833 C 9.627 141.986,8.167 146.450,8.167 146.866 C 8.167 147.007,8.012 147.602,7.823 148.187 C 4.645 158.006,1.718 173.705,0.478 187.583 C -0.033 193.296,-0.091 215.691,0.390 221.333 C 1.103 229.698,2.094 236.811,3.591 244.300 C 3.907 245.885,4.167 247.331,4.167 247.513 C 4.167 247.944,5.652 254.167,6.391 256.833 C 8.445 264.237,9.041 266.213,10.213 269.500 C 10.752 271.012,11.590 273.382,12.074 274.765 C 12.872 277.041,15.523 283.509,15.825 283.917 C 15.893 284.008,16.080 284.496,16.241 285.000 C 16.401 285.504,17.350 287.574,18.350 289.600 C 19.349 291.626,20.167 293.351,20.167 293.433 C 20.167 293.516,20.930 294.971,21.861 296.667 C 22.793 298.362,23.815 300.275,24.132 300.917 C 26.279 305.260,35.116 318.935,39.065 324.026 C 39.587 324.699,40.443 325.825,40.966 326.527 C 41.489 327.229,42.367 328.354,42.918 329.027 C 43.469 329.700,44.064 330.475,44.240 330.750 C 44.416 331.025,45.146 331.863,45.863 332.613 C 46.580 333.362,47.167 334.046,47.167 334.133 C 47.167 334.219,47.973 335.226,48.958 336.371 C 56.594 345.241,66.161 354.555,74.167 360.913 C 74.854 361.459,75.868 362.286,76.420 362.752 C 76.972 363.218,77.835 363.872,78.337 364.207 C 78.839 364.542,79.700 365.200,80.250 365.671 C 80.800 366.142,81.962 367.010,82.833 367.601 C 83.704 368.192,85.429 369.391,86.667 370.267 C 87.904 371.143,89.029 371.904,89.167 371.959 C 89.304 372.014,90.504 372.786,91.833 373.674 C 93.162 374.562,94.711 375.542,95.274 375.852 C 96.266 376.399,98.799 377.894,100.333 378.840 C 100.746 379.094,101.796 379.672,102.667 380.125 C 103.537 380.577,105.188 381.458,106.333 382.081 C 107.479 382.705,109.102 383.535,109.939 383.927 C 110.777 384.318,112.689 385.236,114.189 385.967 C 115.689 386.697,117.329 387.460,117.833 387.662 C 119.147 388.188,120.371 388.702,123.583 390.076 C 125.142 390.742,127.242 391.568,128.250 391.912 C 129.258 392.255,130.871 392.837,131.833 393.205 C 138.629 395.802,142.466 396.014,145.981 393.986 C 147.989 392.826,149.748 390.093,150.273 387.316 C 150.502 386.104,150.391 348.158,150.158 347.941 C 150.117 347.903,148.883 348.088,147.417 348.353 C 136.242 350.372,125.546 350.334,113.167 348.231 C 98.620 345.760,87.958 337.514,83.103 324.981 C 77.662 310.934,69.749 299.979,61.909 295.637 C 57.522 293.207,53.325 288.768,53.042 286.257 C 52.543 281.827,64.903 281.615,73.492 285.907 C 82.269 290.293,88.204 295.804,93.243 304.250 C 99.990 315.559,108.640 322.426,119.000 324.698 C 122.234 325.408,131.065 325.220,136.667 324.323 C 140.701 323.677,145.786 322.219,149.078 320.765 L 150.740 320.030 151.124 317.807 C 152.815 308.008,156.492 300.259,162.162 294.542 C 162.912 293.785,163.476 293.167,163.415 293.167 C 161.712 293.167,150.660 291.466,144.917 290.321 C 123.430 286.035,104.388 275.940,93.067 262.833 C 79.246 246.831,71.375 219.244,72.516 190.805 C 73.271 171.974,80.267 154.374,91.895 142.048 L 92.994 140.882 92.235 138.829 C 87.125 125.010,87.450 109.324,93.199 92.215 C 94.802 87.444,94.645 87.720,95.925 87.421 C 102.228 85.951,112.521 88.681,129.000 96.193 C 135.567 99.187,141.839 102.769,149.122 107.687 L 149.993 108.276 152.670 107.562 C 182.229 99.685,215.587 99.540,245.740 107.159 C 247.934 107.713,249.828 108.167,249.949 108.167 C 250.069 108.167,251.911 107.065,254.042 105.718 C 264.283 99.244,268.694 96.876,277.363 93.197 C 289.852 87.896,298.413 86.014,303.781 87.390 L 304.978 87.697 305.721 89.724 C 312.527 108.279,313.165 124.465,307.668 139.101 L 307.001 140.877 308.096 142.038 C 319.766 154.409,326.657 171.741,327.501 190.847 C 328.570 215.053,322.574 240.206,311.900 256.287 C 300.904 272.855,279.880 285.337,254.432 290.407 C 249.442 291.401,237.884 293.167,236.366 293.167 C 236.324 293.167,237.105 294.012,238.103 295.045 C 244.833 302.012,248.439 311.046,249.495 323.583 C 249.600 324.833,249.664 336.633,249.665 355.024 C 249.667 390.516,249.557 388.800,252.027 391.830 C 252.287 392.148,252.500 392.505,252.500 392.622 C 252.500 393.488,256.059 395.066,258.463 395.267 C 261.350 395.508,262.791 395.177,269.426 392.747 C 270.613 392.313,272.258 391.711,273.083 391.410 C 273.908 391.109,275.821 390.322,277.333 389.662 C 278.846 389.002,280.496 388.314,281.000 388.133 C 282.057 387.754,286.442 385.727,287.917 384.936 C 288.467 384.641,289.250 384.266,289.658 384.104 C 290.065 383.942,291.603 383.164,293.074 382.375 C 294.546 381.586,296.387 380.610,297.167 380.206 C 298.651 379.437,300.888 378.151,303.000 376.853 C 303.688 376.431,304.587 375.907,305.000 375.688 C 305.412 375.470,306.855 374.551,308.205 373.646 C 309.555 372.741,310.701 372.000,310.752 372.000 C 310.856 372.000,315.180 369.024,315.833 368.503 C 316.063 368.320,316.813 367.797,317.500 367.341 C 318.188 366.886,319.200 366.131,319.750 365.666 C 320.300 365.200,321.250 364.480,321.861 364.066 C 322.472 363.651,323.375 362.961,323.867 362.531 C 324.358 362.102,325.283 361.340,325.922 360.838 C 334.849 353.828,350.443 338.098,355.641 330.860 C 355.947 330.433,356.699 329.483,357.311 328.750 C 358.736 327.042,360.000 325.392,360.000 325.240 C 360.000 325.174,360.401 324.625,360.891 324.019 C 362.247 322.341,368.000 314.174,368.000 313.927 C 368.000 313.871,368.590 312.946,369.312 311.871 C 370.569 309.999,372.000 307.726,372.000 307.602 C 372.000 307.569,372.721 306.352,373.603 304.896 C 374.484 303.441,375.486 301.688,375.829 301.000 C 376.171 300.313,377.214 298.362,378.146 296.667 C 379.078 294.971,379.887 293.396,379.943 293.167 C 379.999 292.938,380.291 292.300,380.592 291.750 C 381.547 290.003,384.000 284.694,384.000 284.374 C 384.000 284.205,384.067 283.995,384.149 283.908 C 384.515 283.521,387.102 277.144,388.407 273.417 C 388.663 272.683,389.306 270.866,389.835 269.377 C 391.760 263.957,395.447 250.507,395.924 247.159 C 395.983 246.751,396.244 245.292,396.506 243.917 C 398.000 236.061,398.864 229.812,399.608 221.500 C 399.969 217.473,400.131 197.046,399.841 192.250 C 399.231 182.164,397.985 173.108,395.567 161.167 C 395.081 158.770,393.465 152.496,392.594 149.627 C 392.267 148.551,392.000 147.563,392.000 147.432 C 392.000 147.023,390.387 142.052,389.236 138.917 C 388.631 137.267,388.075 135.692,388.001 135.417 C 387.779 134.594,387.252 133.212,386.252 130.833 C 385.732 129.596,384.870 127.533,384.337 126.250 C 382.930 122.859,382.884 122.756,381.880 120.750 C 381.375 119.742,380.629 118.167,380.223 117.250 C 379.817 116.333,378.700 114.151,377.742 112.401 C 376.784 110.650,376.000 109.175,376.000 109.123 C 376.000 108.984,373.501 104.627,373.253 104.333 C 373.137 104.196,372.719 103.483,372.325 102.750 C 371.591 101.383,371.432 101.125,369.305 97.833 C 368.624 96.779,368.020 95.804,367.962 95.667 C 367.905 95.529,367.363 94.704,366.759 93.833 C 366.155 92.962,365.160 91.500,364.549 90.583 C 363.938 89.667,363.124 88.504,362.740 88.000 C 362.357 87.496,361.073 85.771,359.887 84.167 C 358.701 82.563,357.398 80.867,356.991 80.398 C 356.583 79.929,355.903 79.067,355.479 78.481 C 355.054 77.896,354.225 76.892,353.635 76.250 C 353.046 75.608,352.268 74.698,351.907 74.228 C 351.283 73.415,349.362 71.257,346.533 68.193 C 344.351 65.828,338.846 60.366,336.175 57.917 C 334.776 56.633,333.004 55.006,332.238 54.301 C 331.471 53.595,330.447 52.724,329.963 52.365 C 329.479 52.005,328.546 51.228,327.888 50.636 C 327.231 50.045,326.294 49.264,325.805 48.902 C 325.316 48.539,324.717 48.094,324.472 47.913 C 324.228 47.732,323.516 47.160,322.889 46.643 C 321.407 45.419,316.146 41.568,314.333 40.380 C 313.554 39.869,312.317 39.019,311.583 38.491 C 310.850 37.963,309.012 36.766,307.500 35.832 C 305.987 34.898,304.375 33.879,303.917 33.569 C 303.458 33.258,302.430 32.647,301.632 32.210 C 300.833 31.774,299.221 30.856,298.048 30.170 C 295.487 28.672,293.083 27.407,288.417 25.105 C 282.322 22.098,279.672 20.881,276.833 19.785 C 276.237 19.555,274.625 18.899,273.250 18.327 C 269.786 16.885,259.622 13.399,256.333 12.524 C 255.646 12.341,254.183 11.951,253.083 11.656 C 239.397 7.989,226.560 5.933,211.500 4.996 C 208.705 4.822,196.487 4.663,193.750 4.765 " stroke="none" fill="#333333" fill-rule="evenodd"></path></g></svg>