<svg id="svg" version="1.1" xmlns="http://www.w3.org/2000/svg" xmlns:xlink="http://www.w3.org/1999/xlink" width="400" height="400" viewBox="0, 0, 400,400"><g id="svgg"><path id="path0" d="M25.600 4.000 C 25.600 4.220,25.330 4.400,25.000 4.400 C 24.491 4.400,24.400 5.400,24.400 11.000 C 24.400 16.600,24.491 17.600,25.000 17.600 C 25.453 17.600,25.600 18.089,25.600 19.600 C 25.600 20.700,25.780 21.600,26.000 21.600 C 26.245 21.600,26.400 23.533,26.400 26.600 C 26.400 30.778,26.499 31.600,27.000 31.600 C 27.504 31.600,27.600 32.467,27.600 37.000 C 27.600 40.333,27.753 42.400,28.000 42.400 C 28.248 42.400,28.400 44.533,28.400 48.000 C 28.400 52.711,28.495 53.600,29.000 53.600 C 29.504 53.600,29.600 54.467,29.600 59.000 C 29.600 62.333,29.753 64.400,30.000 64.400 C 30.249 64.400,30.400 66.667,30.400 70.400 C 30.400 75.467,30.493 76.400,31.000 76.400 C 31.501 76.400,31.600 77.222,31.600 81.400 C 31.600 84.467,31.755 86.400,32.000 86.400 C 32.249 86.400,32.400 88.667,32.400 92.400 C 32.400 97.467,32.493 98.400,33.000 98.400 C 33.499 98.400,33.600 99.178,33.600 103.000 C 33.600 105.800,33.757 107.600,34.000 107.600 C 34.249 107.600,34.400 109.867,34.400 113.600 C 34.400 118.667,34.493 119.600,35.000 119.600 C 35.507 119.600,35.600 120.533,35.600 125.600 C 35.600 129.333,35.751 131.600,36.000 131.600 C 36.249 131.600,36.400 133.867,36.400 137.600 C 36.400 142.667,36.493 143.600,37.000 143.600 C 37.497 143.600,37.600 144.356,37.600 148.000 C 37.600 150.667,37.758 152.400,38.000 152.400 C 38.249 152.400,38.400 154.667,38.400 158.400 C 38.400 163.467,38.493 164.400,39.000 164.400 C 39.505 164.400,39.600 165.289,39.600 170.000 C 39.600 173.467,39.752 175.600,40.000 175.600 C 40.249 175.600,40.400 177.867,40.400 181.600 C 40.400 186.667,40.493 187.600,41.000 187.600 C 41.504 187.600,41.600 188.467,41.600 193.000 C 41.600 196.333,41.753 198.400,42.000 198.400 C 42.245 198.400,42.400 200.333,42.400 203.400 C 42.400 207.578,42.499 208.400,43.000 208.400 C 43.507 208.400,43.600 209.333,43.600 214.400 C 43.600 218.133,43.751 220.400,44.000 220.400 C 44.245 220.400,44.400 222.333,44.400 225.400 C 44.400 229.578,44.499 230.400,45.000 230.400 C 45.509 230.400,45.600 231.400,45.600 237.000 C 45.600 241.133,45.749 243.600,46.000 243.600 C 46.247 243.600,46.400 245.667,46.400 249.000 C 46.400 253.533,46.496 254.400,47.000 254.400 C 47.505 254.400,47.600 255.289,47.600 260.000 C 47.600 263.467,47.752 265.600,48.000 265.600 C 48.245 265.600,48.400 267.533,48.400 270.600 C 48.400 274.778,48.499 275.600,49.000 275.600 C 49.504 275.600,49.600 276.467,49.600 281.000 C 49.600 284.333,49.753 286.400,50.000 286.400 C 50.249 286.400,50.400 288.667,50.400 292.400 C 50.400 297.467,50.493 298.400,51.000 298.400 C 51.507 298.400,51.600 299.333,51.600 304.400 C 51.600 308.133,51.751 310.400,52.000 310.400 C 52.245 310.400,52.400 312.333,52.400 315.400 C 52.400 319.578,52.499 320.400,53.000 320.400 C 53.505 320.400,53.600 321.289,53.600 326.000 C 53.600 329.467,53.752 331.600,54.000 331.600 C 54.247 331.600,54.400 333.667,54.400 337.000 C 54.400 341.533,54.496 342.400,55.000 342.400 C 55.501 342.400,55.600 343.222,55.600 347.400 C 55.600 350.467,55.755 352.400,56.000 352.400 C 56.220 352.400,56.400 352.670,56.400 353.000 C 56.400 353.373,56.778 353.600,57.400 353.600 C 57.950 353.600,58.400 353.780,58.400 354.000 C 58.400 354.220,59.120 354.400,60.000 354.400 C 61.156 354.400,61.600 354.567,61.600 355.000 C 61.600 355.453,62.089 355.600,63.600 355.600 C 64.700 355.600,65.600 355.780,65.600 356.000 C 65.600 356.220,66.500 356.400,67.600 356.400 C 69.111 356.400,69.600 356.547,69.600 357.000 C 69.600 357.419,70.022 357.600,71.000 357.600 C 71.770 357.600,72.400 357.780,72.400 358.000 C 72.400 358.220,73.300 358.400,74.400 358.400 C 75.911 358.400,76.400 358.547,76.400 359.000 C 76.400 359.433,76.844 359.600,78.000 359.600 C 78.880 359.600,79.600 359.780,79.600 360.000 C 79.600 360.220,80.500 360.400,81.600 360.400 C 83.111 360.400,83.600 360.547,83.600 361.000 C 83.600 361.419,84.022 361.600,85.000 361.600 C 85.770 361.600,86.400 361.780,86.400 362.000 C 86.400 362.220,87.300 362.400,88.400 362.400 C 89.911 362.400,90.400 362.547,90.400 363.000 C 90.400 363.433,90.844 363.600,92.000 363.600 C 92.880 363.600,93.600 363.780,93.600 364.000 C 93.600 364.220,94.230 364.400,95.000 364.400 C 95.978 364.400,96.400 364.581,96.400 365.000 C 96.400 365.453,96.889 365.600,98.400 365.600 C 99.500 365.600,100.400 365.780,100.400 366.000 C 100.400 366.220,101.300 366.400,102.400 366.400 C 103.911 366.400,104.400 366.547,104.400 367.000 C 104.400 367.433,104.844 367.600,106.000 367.600 C 106.880 367.600,107.600 367.780,107.600 368.000 C 107.600 368.220,108.500 368.400,109.600 368.400 C 111.111 368.400,111.600 368.547,111.600 369.000 C 111.600 369.419,112.022 369.600,113.000 369.600 C 113.770 369.600,114.400 369.780,114.400 370.000 C 114.400 370.220,115.300 370.400,116.400 370.400 C 117.911 370.400,118.400 370.547,118.400 371.000 C 118.400 371.433,118.844 371.600,120.000 371.600 C 120.880 371.600,121.600 371.780,121.600 372.000 C 121.600 372.220,122.500 372.400,123.600 372.400 C 125.111 372.400,125.600 372.547,125.600 373.000 C 125.600 373.419,126.022 373.600,127.000 373.600 C 127.770 373.600,128.400 373.780,128.400 374.000 C 128.400 374.220,129.120 374.400,130.000 374.400 C 131.156 374.400,131.600 374.567,131.600 375.000 C 131.600 375.453,132.089 375.600,133.600 375.600 C 134.700 375.600,135.600 375.780,135.600 376.000 C 135.600 376.220,136.500 376.400,137.600 376.400 C 139.111 376.400,139.600 376.547,139.600 377.000 C 139.600 377.419,140.022 377.600,141.000 377.600 C 141.770 377.600,142.400 377.780,142.400 378.000 C 142.400 378.220,143.300 378.400,144.400 378.400 C 145.911 378.400,146.400 378.547,146.400 379.000 C 146.400 379.433,146.844 379.600,148.000 379.600 C 148.880 379.600,149.600 379.780,149.600 380.000 C 149.600 380.220,150.500 380.400,151.600 380.400 C 153.111 380.400,153.600 380.547,153.600 381.000 C 153.600 381.419,154.022 381.600,155.000 381.600 C 155.770 381.600,156.400 381.780,156.400 382.000 C 156.400 382.220,157.300 382.400,158.400 382.400 C 159.911 382.400,160.400 382.547,160.400 383.000 C 160.400 383.433,160.844 383.600,162.000 383.600 C 162.880 383.600,163.600 383.780,163.600 384.000 C 163.600 384.220,164.500 384.400,165.600 384.400 C 167.111 384.400,167.600 384.547,167.600 385.000 C 167.600 385.419,168.022 385.600,169.000 385.600 C 169.770 385.600,170.400 385.780,170.400 386.000 C 170.400 386.220,171.300 386.400,172.400 386.400 C 173.911 386.400,174.400 386.547,174.400 387.000 C 174.400 387.433,174.844 387.600,176.000 387.600 C 176.880 387.600,177.600 387.780,177.600 388.000 C 177.600 388.220,178.500 388.400,179.600 388.400 C 181.111 388.400,181.600 388.547,181.600 389.000 C 181.600 389.419,182.022 389.600,183.000 389.600 C 183.770 389.600,184.400 389.780,184.400 390.000 C 184.400 390.220,185.300 390.400,186.400 390.400 C 187.911 390.400,188.400 390.547,188.400 391.000 C 188.400 391.453,188.889 391.600,190.400 391.600 C 191.500 391.600,192.400 391.780,192.400 392.000 C 192.400 392.240,194.000 392.400,196.400 392.400 C 198.800 392.400,200.400 392.240,200.400 392.000 C 200.400 391.780,201.300 391.600,202.400 391.600 C 203.911 391.600,204.400 391.453,204.400 391.000 C 204.400 390.567,204.844 390.400,206.000 390.400 C 206.880 390.400,207.600 390.220,207.600 390.000 C 207.600 389.780,208.500 389.600,209.600 389.600 C 211.111 389.600,211.600 389.453,211.600 389.000 C 211.600 388.581,212.022 388.400,213.000 388.400 C 213.770 388.400,214.400 388.220,214.400 388.000 C 214.400 387.780,215.300 387.600,216.400 387.600 C 217.911 387.600,218.400 387.453,218.400 387.000 C 218.400 386.547,218.889 386.400,220.400 386.400 C 221.500 386.400,222.400 386.220,222.400 386.000 C 222.400 385.780,223.120 385.600,224.000 385.600 C 225.156 385.600,225.600 385.433,225.600 385.000 C 225.600 384.547,226.089 384.400,227.600 384.400 C 228.700 384.400,229.600 384.220,229.600 384.000 C 229.600 383.780,230.230 383.600,231.000 383.600 C 231.978 383.600,232.400 383.419,232.400 383.000 C 232.400 382.547,232.889 382.400,234.400 382.400 C 235.500 382.400,236.400 382.220,236.400 382.000 C 236.400 381.780,237.120 381.600,238.000 381.600 C 239.156 381.600,239.600 381.433,239.600 381.000 C 239.600 380.547,240.089 380.400,241.600 380.400 C 242.700 380.400,243.600 380.220,243.600 380.000 C 243.600 379.780,244.230 379.600,245.000 379.600 C 245.978 379.600,246.400 379.419,246.400 379.000 C 246.400 378.567,246.844 378.400,248.000 378.400 C 248.880 378.400,249.600 378.220,249.600 378.000 C 249.600 377.780,250.500 377.600,251.600 377.600 C 253.111 377.600,253.600 377.453,253.600 377.000 C 253.600 376.547,254.089 376.400,255.600 376.400 C 256.700 376.400,257.600 376.220,257.600 376.000 C 257.600 375.780,258.230 375.600,259.000 375.600 C 259.978 375.600,260.400 375.419,260.400 375.000 C 260.400 374.547,260.889 374.400,262.400 374.400 C 263.500 374.400,264.400 374.220,264.400 374.000 C 264.400 373.780,265.120 373.600,266.000 373.600 C 267.156 373.600,267.600 373.433,267.600 373.000 C 267.600 372.547,268.089 372.400,269.600 372.400 C 270.700 372.400,271.600 372.220,271.600 372.000 C 271.600 371.780,272.230 371.600,273.000 371.600 C 273.978 371.600,274.400 371.419,274.400 371.000 C 274.400 370.547,274.889 370.400,276.400 370.400 C 277.500 370.400,278.400 370.220,278.400 370.000 C 278.400 369.780,279.120 369.600,280.000 369.600 C 281.156 369.600,281.600 369.433,281.600 369.000 C 281.600 368.547,282.089 368.400,283.600 368.400 C 284.700 368.400,285.600 368.220,285.600 368.000 C 285.600 367.780,286.230 367.600,287.000 367.600 C 287.978 367.600,288.400 367.419,288.400 367.000 C 288.400 366.547,288.889 366.400,290.400 366.400 C 291.500 366.400,292.400 366.220,292.400 366.000 C 292.400 365.780,293.300 365.600,294.400 365.600 C 295.911 365.600,296.400 365.453,296.400 365.000 C 296.400 364.567,296.844 364.400,298.000 364.400 C 298.880 364.400,299.600 364.220,299.600 364.000 C 299.600 363.780,300.230 363.600,301.000 363.600 C 301.978 363.600,302.400 363.419,302.400 363.000 C 302.400 362.547,302.889 362.400,304.400 362.400 C 305.500 362.400,306.400 362.220,306.400 362.000 C 306.400 361.780,307.300 361.600,308.400 361.600 C 309.911 361.600,310.400 361.453,310.400 361.000 C 310.400 360.567,310.844 360.400,312.000 360.400 C 312.880 360.400,313.600 360.220,313.600 360.000 C 313.600 359.780,314.500 359.600,315.600 359.600 C 317.111 359.600,317.600 359.453,317.600 359.000 C 317.600 358.581,318.022 358.400,319.000 358.400 C 319.770 358.400,320.400 358.220,320.400 358.000 C 320.400 357.780,321.300 357.600,322.400 357.600 C 323.911 357.600,324.400 357.453,324.400 357.000 C 324.400 356.567,324.844 356.400,326.000 356.400 C 326.880 356.400,327.600 356.220,327.600 356.000 C 327.600 355.780,328.500 355.600,329.600 355.600 C 331.111 355.600,331.600 355.453,331.600 355.000 C 331.600 354.581,332.022 354.400,333.000 354.400 C 333.770 354.400,334.400 354.220,334.400 354.000 C 334.400 353.780,335.120 353.600,336.000 353.600 L 337.600 353.600 337.600 349.600 C 337.600 347.200,337.760 345.600,338.000 345.600 C 338.248 345.600,338.400 343.467,338.400 340.000 C 338.400 335.289,338.495 334.400,339.000 334.400 C 339.501 334.400,339.600 333.578,339.600 329.400 C 339.600 326.333,339.755 324.400,340.000 324.400 C 340.249 324.400,340.400 322.133,340.400 318.400 C 340.400 313.333,340.493 312.400,341.000 312.400 C 341.507 312.400,341.600 311.467,341.600 306.400 C 341.600 302.667,341.751 300.400,342.000 300.400 C 342.247 300.400,342.400 298.333,342.400 295.000 C 342.400 290.467,342.496 289.600,343.000 289.600 C 343.505 289.600,343.600 288.711,343.600 284.000 C 343.600 280.533,343.752 278.400,344.000 278.400 C 344.245 278.400,344.400 276.467,344.400 273.400 C 344.400 269.222,344.499 268.400,345.000 268.400 C 345.507 268.400,345.600 267.467,345.600 262.400 C 345.600 258.667,345.751 256.400,346.000 256.400 C 346.249 256.400,346.400 254.133,346.400 250.400 C 346.400 245.333,346.493 244.400,347.000 244.400 C 347.504 244.400,347.600 243.533,347.600 239.000 C 347.600 235.667,347.753 233.600,348.000 233.600 C 348.245 233.600,348.400 231.667,348.400 228.600 C 348.400 224.422,348.499 223.600,349.000 223.600 C 349.505 223.600,349.600 222.711,349.600 218.000 C 349.600 214.533,349.752 212.400,350.000 212.400 C 350.247 212.400,350.400 210.333,350.400 207.000 C 350.400 202.467,350.496 201.600,351.000 201.600 C 351.509 201.600,351.600 200.600,351.600 195.000 C 351.600 190.867,351.749 188.400,352.000 188.400 C 352.245 188.400,352.400 186.467,352.400 183.400 C 352.400 179.222,352.499 178.400,353.000 178.400 C 353.504 178.400,353.600 177.533,353.600 173.000 C 353.600 169.667,353.753 167.600,354.000 167.600 C 354.248 167.600,354.400 165.467,354.400 162.000 C 354.400 157.289,354.495 156.400,355.000 156.400 C 355.504 156.400,355.600 155.533,355.600 151.000 C 355.600 147.667,355.753 145.600,356.000 145.600 C 356.249 145.600,356.400 143.333,356.400 139.600 C 356.400 134.533,356.493 133.600,357.000 133.600 C 357.505 133.600,357.600 132.711,357.600 128.000 C 357.600 124.533,357.752 122.400,358.000 122.400 C 358.249 122.400,358.400 120.133,358.400 116.400 C 358.400 111.333,358.493 110.400,359.000 110.400 C 359.497 110.400,359.600 109.644,359.600 106.000 C 359.600 103.333,359.758 101.600,360.000 101.600 C 360.248 101.600,360.400 99.467,360.400 96.000 C 360.400 91.289,360.495 90.400,361.000 90.400 C 361.507 90.400,361.600 89.467,361.600 84.400 C 361.600 80.667,361.751 78.400,362.000 78.400 C 362.249 78.400,362.400 76.133,362.400 72.400 C 362.400 67.333,362.493 66.400,363.000 66.400 C 363.501 66.400,363.600 65.578,363.600 61.400 C 363.600 58.333,363.755 56.400,364.000 56.400 C 364.249 56.400,364.400 54.133,364.400 50.400 C 364.400 45.333,364.493 44.400,365.000 44.400 C 365.501 44.400,365.600 43.578,365.600 39.400 C 365.600 36.333,365.755 34.400,366.000 34.400 C 366.249 34.400,366.400 32.133,366.400 28.400 C 366.400 23.333,366.493 22.400,367.000 22.400 C 367.504 22.400,367.600 21.533,367.600 17.000 C 367.600 13.667,367.753 11.600,368.000 11.600 C 368.661 11.600,368.505 4.848,367.829 4.171 C 367.119 3.462,25.600 3.291,25.600 4.000 M366.346 5.200 C 366.770 5.200,366.836 5.669,366.640 7.300 C 366.501 8.455,366.211 11.560,365.995 14.200 C 365.779 16.840,365.328 21.970,364.993 25.600 C 364.657 29.230,364.214 34.450,364.008 37.200 C 363.802 39.950,363.540 42.830,363.427 43.600 C 363.313 44.370,362.945 48.420,362.608 52.600 C 362.271 56.780,361.817 61.820,361.598 63.800 C 361.379 65.780,361.017 69.740,360.794 72.600 C 360.570 75.460,360.213 79.690,359.999 82.000 C 359.786 84.310,359.343 89.260,359.015 93.000 C 358.687 96.740,358.234 101.780,358.007 104.200 C 357.780 106.620,357.330 111.695,357.007 115.477 C 356.684 119.260,356.226 124.390,355.990 126.877 C 355.583 131.175,354.849 139.326,353.999 149.000 C 353.787 151.420,353.348 156.370,353.025 160.000 C 352.702 163.630,352.247 168.760,352.013 171.400 C 350.715 186.066,349.926 194.912,349.393 200.800 C 349.065 204.430,348.610 209.560,348.384 212.200 C 348.157 214.840,347.799 218.890,347.586 221.200 C 347.374 223.510,346.927 228.460,346.591 232.200 C 346.256 235.940,345.724 241.790,345.409 245.200 C 345.094 248.610,344.646 253.830,344.413 256.800 C 344.179 259.770,343.807 264.000,343.586 266.200 C 343.184 270.189,342.691 275.640,342.013 283.600 C 341.816 285.910,341.376 290.860,341.035 294.600 C 340.694 298.340,340.234 303.470,340.012 306.000 C 339.790 308.530,339.335 313.660,339.000 317.400 C 338.666 321.140,338.217 326.270,338.003 328.800 C 337.789 331.330,337.251 337.258,336.807 341.974 C 336.363 346.690,336.000 350.779,336.000 351.060 C 336.000 352.003,333.308 352.863,312.200 358.660 C 305.395 360.529,303.564 361.043,294.600 363.599 C 290.640 364.729,285.824 366.086,283.897 366.617 C 281.971 367.147,278.731 368.046,276.697 368.615 C 274.664 369.184,272.460 369.798,271.800 369.979 C 271.140 370.160,267.990 371.062,264.800 371.984 C 261.610 372.905,257.380 374.103,255.400 374.645 C 250.994 375.852,247.147 376.933,237.800 379.589 C 230.862 381.562,228.210 382.305,220.000 384.580 C 217.910 385.159,215.300 385.893,214.200 386.210 C 211.471 386.999,206.461 388.403,205.000 388.789 C 204.340 388.964,202.360 389.521,200.600 390.029 C 196.823 391.118,195.735 391.157,192.800 390.307 C 190.953 389.772,186.618 388.532,176.200 385.559 C 175.320 385.307,173.790 384.874,172.800 384.595 C 171.810 384.316,170.010 383.801,168.800 383.452 C 167.590 383.102,165.610 382.551,164.400 382.227 C 163.190 381.903,161.210 381.347,160.000 380.991 C 156.288 379.900,155.504 379.680,152.400 378.859 C 150.750 378.422,145.350 376.905,140.400 375.486 C 131.651 372.979,130.726 372.716,128.200 372.011 C 127.540 371.827,122.770 370.470,117.600 368.996 C 112.430 367.522,107.660 366.166,107.000 365.983 C 106.340 365.800,104.180 365.202,102.200 364.655 C 100.220 364.107,95.990 362.905,92.800 361.984 C 89.610 361.062,86.460 360.160,85.800 359.978 C 85.140 359.797,82.980 359.204,81.000 358.660 C 73.276 356.538,58.965 352.465,58.315 352.202 C 57.463 351.859,57.318 351.346,57.013 347.600 C 56.612 342.693,56.000 335.788,55.399 329.400 C 55.088 326.100,54.638 320.970,54.398 318.000 C 54.158 315.030,53.791 310.980,53.582 309.000 C 53.373 307.020,53.023 303.150,52.804 300.400 C 52.585 297.650,52.231 293.510,52.016 291.200 C 51.155 281.931,50.106 270.268,48.994 257.600 C 48.675 253.970,48.238 249.020,48.023 246.600 C 47.807 244.180,47.346 238.960,46.997 235.000 C 46.003 223.701,45.658 219.877,44.992 212.800 C 44.650 209.170,44.209 204.220,44.011 201.800 C 43.546 196.088,41.485 172.909,40.402 161.200 C 39.086 146.962,38.790 143.660,38.399 138.800 C 38.160 135.830,37.705 130.610,37.389 127.200 C 37.072 123.790,36.626 118.750,36.397 116.000 C 36.022 111.497,35.649 107.393,34.400 94.000 C 34.016 89.889,33.205 80.773,32.405 71.600 C 31.127 56.927,30.061 45.120,29.572 40.200 C 29.149 35.942,28.675 30.360,27.994 21.600 C 27.763 18.630,27.220 14.538,26.787 12.507 C 25.787 7.814,25.748 5.307,26.672 5.129 C 27.041 5.058,103.496 5.045,196.572 5.100 C 289.647 5.155,366.046 5.200,366.346 5.200 M210.900 79.865 C 210.132 80.175,210.169 226.736,210.937 227.031 C 211.428 227.219,214.687 226.713,224.000 225.000 C 225.870 224.656,229.470 224.010,232.000 223.565 C 234.530 223.119,242.090 221.763,248.800 220.550 C 255.510 219.338,261.900 218.198,263.000 218.019 C 264.100 217.839,267.768 217.202,271.151 216.604 C 277.910 215.409,278.205 215.462,277.818 217.800 C 277.709 218.460,277.429 223.410,277.197 228.800 C 276.245 250.876,276.610 249.429,271.687 250.655 C 269.769 251.132,267.120 251.819,265.800 252.180 C 264.480 252.542,261.420 253.361,259.000 254.000 C 256.580 254.639,253.520 255.453,252.200 255.808 C 250.880 256.163,248.180 256.876,246.200 257.393 C 244.220 257.909,241.160 258.717,239.400 259.189 C 233.187 260.855,230.161 261.658,226.600 262.587 C 224.620 263.103,221.920 263.822,220.600 264.185 C 219.280 264.547,216.760 265.215,215.000 265.669 C 213.240 266.122,211.483 266.660,211.096 266.863 C 210.437 267.209,210.399 268.475,210.496 286.916 C 210.615 309.419,210.107 307.080,214.600 305.803 C 215.920 305.427,218.260 304.794,219.800 304.394 C 221.340 303.995,225.480 302.914,229.000 301.993 C 232.520 301.072,236.030 300.169,236.800 299.988 C 237.570 299.806,239.820 299.214,241.800 298.672 C 247.604 297.083,264.610 292.603,267.200 291.980 C 267.970 291.795,269.680 291.350,271.000 290.992 C 272.320 290.633,274.030 290.188,274.800 290.002 C 275.570 289.816,277.190 289.374,278.400 289.021 C 279.610 288.668,281.320 288.218,282.200 288.022 C 285.078 287.381,296.631 284.339,300.519 283.198 C 302.440 282.634,302.622 282.125,302.942 276.400 C 303.083 273.870,303.373 269.730,303.586 267.200 C 303.798 264.670,304.171 259.900,304.414 256.600 C 304.657 253.300,305.034 248.620,305.251 246.200 C 305.469 243.780,305.810 239.460,306.011 236.600 C 306.211 233.740,306.655 227.980,306.997 223.800 C 307.340 219.620,307.793 213.770,308.004 210.800 C 308.216 207.830,308.666 201.980,309.005 197.800 C 311.331 169.133,311.462 171.811,307.755 172.385 C 306.460 172.585,303.060 173.035,300.200 173.384 C 297.340 173.733,293.650 174.188,292.000 174.396 C 290.350 174.604,286.660 175.057,283.800 175.404 C 275.007 176.470,264.037 177.835,259.600 178.416 C 255.800 178.914,250.139 179.604,246.872 179.967 C 242.821 180.416,243.178 183.430,243.296 149.800 L 243.400 120.200 278.892 120.098 L 314.384 119.996 314.959 119.098 C 315.274 118.604,315.645 116.760,315.783 115.000 C 315.921 113.240,316.201 109.910,316.406 107.600 C 316.610 105.290,317.060 100.070,317.405 96.000 C 317.750 91.930,318.217 86.833,318.442 84.672 C 318.751 81.712,318.735 80.604,318.377 80.172 C 317.908 79.607,212.287 79.305,210.900 79.865 M150.267 80.267 C 150.120 80.413,150.000 120.373,150.000 169.067 C 150.000 255.693,149.984 257.600,149.242 257.600 C 148.825 257.600,147.340 257.264,145.942 256.853 C 143.601 256.166,138.070 254.606,134.200 253.542 C 133.320 253.300,131.790 252.876,130.800 252.600 C 129.810 252.324,128.190 251.874,127.200 251.600 C 124.521 250.859,122.062 250.164,119.600 249.452 C 118.390 249.102,116.410 248.549,115.200 248.224 C 112.296 247.443,105.860 245.676,103.600 245.038 C 89.845 241.160,85.127 239.942,84.614 240.139 C 83.741 240.474,83.676 278.433,84.547 279.156 C 84.849 279.406,86.334 279.947,87.847 280.357 C 94.279 282.101,100.635 283.863,107.500 285.806 C 109.741 286.440,111.993 287.065,116.800 288.387 C 118.450 288.840,120.745 289.479,121.900 289.806 C 124.141 290.440,126.393 291.065,131.200 292.387 C 132.850 292.840,135.190 293.495,136.400 293.840 C 137.610 294.186,139.140 294.614,139.800 294.792 C 140.460 294.969,141.990 295.392,143.200 295.731 C 147.271 296.873,150.192 297.684,151.400 298.008 C 152.060 298.186,153.590 298.612,154.800 298.957 C 158.779 300.089,170.421 303.323,173.000 304.013 C 173.660 304.189,175.820 304.796,177.800 305.362 C 179.780 305.927,181.715 306.392,182.100 306.395 C 182.765 306.400,182.800 300.745,182.800 193.200 L 182.800 80.000 166.667 80.000 C 157.793 80.000,150.413 80.120,150.267 80.267 " stroke="none" fill="#f5f4f3" fill-rule="evenodd"></path><path id="path1" d="M26.400 6.751 C 26.400 7.604,26.668 8.943,26.995 9.726 C 27.322 10.509,27.688 12.466,27.808 14.075 C 28.489 23.190,29.282 32.135,29.617 34.477 C 29.828 35.949,29.998 37.929,29.996 38.877 C 29.994 39.825,30.267 43.390,30.604 46.800 C 31.373 54.587,31.816 59.451,32.606 68.800 C 32.950 72.870,33.402 77.910,33.610 80.000 C 34.315 87.065,35.023 95.072,35.958 106.562 C 36.392 111.886,36.926 117.532,37.591 123.800 C 37.800 125.780,38.070 128.840,38.190 130.600 C 38.310 132.360,38.591 135.870,38.814 138.400 C 39.037 140.930,39.395 144.980,39.608 147.400 C 40.403 156.423,41.236 165.516,41.604 169.200 C 41.812 171.290,42.258 176.330,42.594 180.400 C 42.930 184.470,43.378 189.510,43.588 191.600 C 43.799 193.690,44.074 196.930,44.199 198.800 C 44.323 200.670,44.605 204.000,44.824 206.200 C 45.043 208.400,45.394 211.910,45.603 214.000 C 45.812 216.090,46.262 221.130,46.602 225.200 C 46.942 229.270,47.392 234.220,47.602 236.200 C 47.812 238.180,48.263 243.310,48.604 247.600 C 48.946 251.890,49.396 257.200,49.606 259.400 C 49.815 261.600,50.262 266.460,50.599 270.200 C 50.936 273.940,51.387 278.890,51.601 281.200 C 51.815 283.510,52.263 288.550,52.598 292.400 C 52.933 296.250,53.297 300.390,53.408 301.600 C 53.518 302.810,53.875 306.860,54.200 310.600 C 54.525 314.340,54.973 319.425,55.196 321.900 C 55.418 324.375,55.768 328.335,55.974 330.700 C 56.180 333.065,56.561 337.430,56.821 340.400 C 57.082 343.370,57.499 347.123,57.749 348.741 L 58.204 351.682 59.802 352.179 C 61.425 352.684,64.896 353.670,67.800 354.452 C 68.680 354.689,70.120 355.111,71.000 355.390 C 71.880 355.668,73.410 356.112,74.400 356.376 C 75.390 356.639,77.010 357.092,78.000 357.381 C 78.990 357.670,80.610 358.122,81.600 358.386 C 83.646 358.932,87.314 359.966,88.800 360.415 C 89.881 360.742,93.740 361.811,96.000 362.408 C 100.405 363.573,102.275 364.126,102.895 364.443 C 103.277 364.640,103.901 364.800,104.281 364.800 C 104.662 364.800,105.699 365.051,106.587 365.359 C 107.474 365.666,109.010 366.138,110.000 366.408 C 110.990 366.677,112.610 367.124,113.600 367.400 C 115.554 367.945,117.284 368.420,121.000 369.433 C 122.320 369.793,123.713 370.247,124.095 370.443 C 124.477 370.640,125.101 370.800,125.481 370.800 C 125.862 370.800,126.899 371.051,127.787 371.359 C 128.674 371.666,130.210 372.128,131.200 372.386 C 132.190 372.644,133.810 373.092,134.800 373.381 C 135.790 373.670,137.410 374.126,138.400 374.394 C 139.390 374.663,140.920 375.111,141.800 375.390 C 142.680 375.668,144.210 376.112,145.200 376.376 C 146.190 376.639,147.810 377.092,148.800 377.381 C 149.790 377.670,151.410 378.120,152.400 378.381 C 153.390 378.642,155.010 379.092,156.000 379.381 C 156.990 379.670,158.610 380.131,159.600 380.405 C 160.590 380.679,162.120 381.132,163.000 381.410 C 163.880 381.689,165.410 382.131,166.400 382.392 C 168.268 382.884,171.864 383.893,173.600 384.411 C 174.150 384.576,175.770 385.017,177.200 385.393 C 178.630 385.768,180.113 386.238,180.495 386.438 C 180.877 386.637,181.501 386.800,181.881 386.800 C 182.262 386.800,183.299 387.051,184.187 387.359 C 185.074 387.666,186.610 388.127,187.600 388.383 C 190.710 389.188,193.765 390.071,194.719 390.442 C 195.882 390.895,197.017 390.898,197.905 390.450 C 198.557 390.121,200.587 389.513,204.800 388.384 C 205.790 388.119,207.410 387.676,208.400 387.400 C 209.390 387.124,211.010 386.677,212.000 386.408 C 212.990 386.138,214.526 385.666,215.413 385.359 C 216.301 385.051,217.415 384.800,217.890 384.800 C 218.364 384.800,218.864 384.620,219.000 384.400 C 219.136 384.180,219.576 384.000,219.978 384.000 C 220.379 384.000,221.674 383.716,222.854 383.369 C 224.034 383.022,225.720 382.553,226.600 382.327 C 227.480 382.102,228.920 381.689,229.800 381.410 C 230.680 381.132,232.210 380.679,233.200 380.405 C 234.190 380.131,235.810 379.670,236.800 379.381 C 237.790 379.092,239.410 378.642,240.400 378.381 C 241.390 378.120,243.010 377.670,244.000 377.381 C 244.990 377.092,246.610 376.644,247.600 376.386 C 248.590 376.128,250.120 375.689,251.000 375.410 C 251.880 375.132,253.410 374.685,254.400 374.419 C 255.390 374.152,257.100 373.691,258.200 373.394 C 259.300 373.098,261.730 372.409,263.600 371.863 C 265.470 371.318,267.810 370.654,268.800 370.389 C 269.790 370.123,271.410 369.670,272.400 369.381 C 273.390 369.092,275.010 368.642,276.000 368.381 C 276.990 368.120,278.610 367.668,279.600 367.378 C 282.900 366.409,288.580 364.780,290.200 364.338 C 291.080 364.098,292.610 363.676,293.600 363.400 C 294.590 363.124,296.210 362.674,297.200 362.400 C 298.190 362.126,299.810 361.676,300.800 361.400 C 301.790 361.124,303.410 360.675,304.400 360.403 C 305.390 360.130,306.657 359.742,307.215 359.540 C 307.774 359.338,309.574 358.823,311.215 358.396 C 315.910 357.173,321.288 355.700,322.600 355.279 C 323.260 355.067,324.610 354.670,325.600 354.398 C 336.370 351.431,335.472 351.954,335.773 348.475 C 335.900 347.004,336.177 343.820,336.389 341.400 C 336.601 338.980,337.055 333.760,337.398 329.800 C 337.741 325.840,338.190 320.890,338.395 318.800 C 338.601 316.710,339.050 311.670,339.394 307.600 C 340.184 298.251,340.627 293.387,341.396 285.600 C 341.733 282.190,342.006 278.638,342.004 277.707 C 342.002 276.777,342.177 274.797,342.392 273.307 C 342.608 271.818,343.064 267.000,343.406 262.600 C 343.748 258.200,344.201 253.160,344.414 251.400 C 344.627 249.640,344.801 247.288,344.801 246.173 C 344.800 245.059,344.974 243.169,345.186 241.973 C 345.398 240.778,345.769 237.280,346.011 234.200 C 346.533 227.537,346.607 226.650,347.405 217.600 C 347.745 213.750,348.198 209.151,348.411 207.379 C 348.625 205.608,348.797 203.358,348.794 202.379 C 348.791 201.401,349.068 197.720,349.410 194.200 C 350.599 181.958,350.767 180.158,351.390 173.000 C 351.735 169.040,352.193 164.351,352.408 162.579 C 352.624 160.808,352.801 158.288,352.803 156.979 C 352.805 155.671,352.979 153.520,353.191 152.200 C 353.552 149.953,353.847 146.585,354.805 133.826 C 355.018 130.981,355.282 128.371,355.391 128.026 C 355.579 127.432,356.089 121.698,356.782 112.400 C 357.231 106.377,357.961 98.682,358.415 95.200 C 358.630 93.550,358.808 91.120,358.811 89.800 C 358.813 88.480,358.998 86.140,359.222 84.600 C 359.603 81.966,359.983 77.624,360.776 66.800 C 360.962 64.270,361.222 61.750,361.356 61.200 C 361.574 60.299,361.837 57.363,362.786 45.200 C 363.359 37.848,364.034 30.569,364.418 27.600 C 364.631 25.950,364.806 23.700,364.806 22.600 C 364.806 21.500,365.075 18.447,365.403 15.815 C 365.731 13.184,366.000 9.719,366.000 8.115 L 366.000 5.200 196.200 5.200 L 26.400 5.200 26.400 6.751 M335.762 36.800 C 335.741 37.350,335.413 41.220,335.033 45.400 C 334.653 49.580,334.185 54.800,333.993 57.000 C 333.801 59.200,333.360 64.240,333.012 68.200 C 332.665 72.160,332.205 77.560,331.990 80.200 C 331.775 82.840,331.510 85.630,331.400 86.400 C 331.291 87.170,331.022 90.050,330.803 92.800 C 330.585 95.550,330.217 99.870,329.987 102.400 C 329.756 104.930,329.120 112.040,328.573 118.200 C 328.026 124.360,327.313 132.370,326.988 136.000 C 326.664 139.630,326.221 144.760,326.005 147.400 C 325.788 150.040,325.438 153.820,325.228 155.800 C 325.017 157.780,324.648 161.830,324.408 164.800 C 324.168 167.770,323.806 171.910,323.605 174.000 C 323.404 176.090,323.134 179.150,323.005 180.800 C 322.876 182.450,322.605 185.330,322.403 187.200 C 322.201 189.070,321.944 191.950,321.832 193.600 C 321.721 195.250,321.346 199.660,321.000 203.400 C 320.653 207.140,320.202 212.180,319.997 214.600 C 319.791 217.020,319.349 222.060,319.014 225.800 C 318.679 229.540,318.224 234.760,318.003 237.400 C 317.783 240.040,317.429 244.000,317.217 246.200 C 316.760 250.948,316.175 257.516,315.594 264.400 C 315.362 267.150,314.915 272.190,314.600 275.600 C 313.742 284.886,312.634 297.468,311.409 311.800 C 311.071 315.760,310.616 320.449,310.397 322.221 C 310.179 323.992,309.996 326.332,309.990 327.421 C 309.968 332.100,309.610 332.674,306.128 333.611 C 304.628 334.015,301.510 334.884,299.200 335.542 C 296.890 336.201,293.650 337.105,292.000 337.552 C 285.111 339.418,278.340 341.280,267.200 344.371 C 260.710 346.172,254.050 347.994,252.400 348.420 C 250.750 348.846,248.140 349.556,246.600 349.998 C 245.060 350.440,241.460 351.441,238.600 352.222 C 233.200 353.698,230.296 354.503,224.200 356.215 C 222.220 356.772,218.620 357.756,216.200 358.403 C 211.146 359.754,207.544 360.744,203.000 362.034 C 201.240 362.533,199.170 362.955,198.400 362.971 L 197.000 363.000 196.891 200.200 C 196.831 110.660,196.879 36.994,196.999 36.499 L 197.216 35.598 266.508 35.699 L 335.800 35.800 335.762 36.800 M182.426 79.614 C 183.483 80.180,183.667 306.246,182.611 306.651 C 182.007 306.883,180.524 306.536,173.200 304.452 C 170.890 303.794,167.650 302.896,166.000 302.456 C 164.350 302.015,161.020 301.084,158.600 300.386 C 156.180 299.688,151.950 298.497,149.200 297.741 C 146.450 296.984,143.030 296.036,141.600 295.632 C 140.170 295.229,137.290 294.425,135.200 293.845 C 128.540 291.997,124.257 290.799,122.200 290.208 C 119.945 289.559,113.223 287.694,111.400 287.212 C 110.280 286.915,107.877 286.245,101.000 284.312 C 97.957 283.457,93.233 282.147,88.200 280.764 C 86.440 280.280,84.775 279.708,84.500 279.493 C 83.595 278.785,83.791 239.597,84.700 239.609 C 85.498 239.620,88.512 240.414,96.800 242.796 C 99.990 243.713,103.140 244.608,103.800 244.785 C 109.908 246.421,111.669 246.902,113.400 247.410 C 116.136 248.212,123.194 250.185,131.200 252.387 C 132.850 252.840,135.190 253.495,136.400 253.840 C 137.610 254.186,139.140 254.614,139.800 254.792 C 140.460 254.969,142.080 255.419,143.400 255.792 C 147.130 256.845,148.881 257.240,149.263 257.112 C 149.463 257.046,149.610 219.515,149.604 169.890 C 149.598 121.982,149.707 82.071,149.847 81.197 L 150.101 79.609 165.550 79.500 C 174.048 79.440,181.147 79.348,181.326 79.295 C 181.506 79.243,182.001 79.386,182.426 79.614 " stroke="none" fill="#d4bb33" fill-rule="evenodd"></path><path id="path2" d="M26.056 6.907 C 26.025 7.956,26.353 10.476,26.785 12.507 C 27.216 14.538,27.650 16.920,27.749 17.800 C 27.848 18.680,27.871 17.600,27.801 15.400 C 27.730 13.200,27.447 10.860,27.171 10.200 C 26.895 9.540,26.544 8.100,26.391 7.000 L 26.113 5.000 26.056 6.907 M366.000 8.467 C 366.000 10.263,366.066 11.658,366.146 11.567 C 366.547 11.110,366.798 5.200,366.417 5.200 C 366.162 5.200,366.000 6.468,366.000 8.467 M365.285 16.674 C 364.853 20.561,364.656 26.441,364.993 25.400 C 365.259 24.577,366.110 13.329,365.944 12.831 C 365.848 12.545,365.552 14.274,365.285 16.674 M28.187 23.000 C 28.372 27.174,29.183 36.800,29.586 39.600 L 29.902 41.800 29.951 39.621 C 29.978 38.422,29.815 35.992,29.590 34.221 C 29.364 32.449,28.925 28.480,28.613 25.400 C 28.275 22.062,28.103 21.092,28.187 23.000 M364.300 27.756 C 364.135 28.832,364.023 30.722,364.051 31.956 L 364.101 34.200 364.464 31.400 C 364.922 27.870,364.777 24.647,364.300 27.756 M363.281 39.500 C 363.011 42.085,362.822 45.190,362.860 46.400 C 362.940 48.941,363.254 46.443,363.827 38.700 C 364.228 33.290,363.874 33.809,363.281 39.500 M196.999 36.499 C 196.879 36.994,196.831 110.660,196.891 200.200 L 197.000 363.000 198.400 362.971 C 199.170 362.955,201.240 362.533,203.000 362.034 C 207.544 360.744,211.146 359.754,216.200 358.403 C 218.620 357.756,222.220 356.772,224.200 356.215 C 230.296 354.503,233.200 353.698,238.600 352.222 C 241.460 351.441,245.060 350.440,246.600 349.998 C 248.140 349.556,250.750 348.846,252.400 348.420 C 254.050 347.994,260.710 346.172,267.200 344.371 C 278.340 341.280,285.111 339.418,292.000 337.552 C 293.650 337.105,296.890 336.201,299.200 335.542 C 301.510 334.884,304.628 334.015,306.128 333.611 C 309.610 332.674,309.968 332.100,309.990 327.421 C 309.996 326.332,310.179 323.992,310.397 322.221 C 310.616 320.449,311.071 315.760,311.409 311.800 C 312.634 297.468,313.742 284.886,314.600 275.600 C 314.915 272.190,315.362 267.150,315.594 264.400 C 316.175 257.516,316.760 250.948,317.217 246.200 C 317.429 244.000,317.783 240.040,318.003 237.400 C 318.224 234.760,318.679 229.540,319.014 225.800 C 319.349 222.060,319.791 217.020,319.997 214.600 C 320.202 212.180,320.653 207.140,321.000 203.400 C 321.346 199.660,321.721 195.250,321.832 193.600 C 321.944 191.950,322.201 189.070,322.403 187.200 C 322.605 185.330,322.876 182.450,323.005 180.800 C 323.134 179.150,323.404 176.090,323.605 174.000 C 323.806 171.910,324.168 167.770,324.408 164.800 C 324.648 161.830,325.017 157.780,325.228 155.800 C 325.438 153.820,325.788 150.040,326.005 147.400 C 326.221 144.760,326.664 139.630,326.988 136.000 C 327.313 132.370,328.026 124.360,328.573 118.200 C 329.120 112.040,329.756 104.930,329.987 102.400 C 330.217 99.870,330.585 95.550,330.803 92.800 C 331.022 90.050,331.291 87.170,331.400 86.400 C 331.510 85.630,331.775 82.840,331.990 80.200 C 332.205 77.560,332.665 72.160,333.012 68.200 C 333.360 64.240,333.801 59.200,333.993 57.000 C 334.185 54.800,334.653 49.580,335.033 45.400 C 335.413 41.220,335.741 37.350,335.762 36.800 L 335.800 35.800 266.508 35.699 L 197.216 35.598 196.999 36.499 M30.048 44.284 C 30.022 45.430,30.172 47.680,30.382 49.284 C 30.591 50.888,30.996 54.990,31.281 58.400 C 31.565 61.810,31.863 63.970,31.942 63.200 C 32.021 62.430,31.890 59.820,31.649 57.400 C 30.422 45.033,30.093 42.335,30.048 44.284 M362.299 50.200 C 362.139 51.080,362.031 52.970,362.058 54.400 L 362.106 57.000 362.457 53.800 C 362.866 50.057,362.761 47.654,362.299 50.200 M361.447 59.700 C 361.309 61.075,361.124 64.090,361.035 66.400 C 360.851 71.162,361.233 68.565,361.814 61.100 C 362.147 56.825,361.847 55.685,361.447 59.700 M32.197 67.800 C 32.423 72.335,33.217 81.763,33.611 84.600 C 33.938 86.944,33.942 86.925,33.812 83.800 C 33.629 79.431,32.863 70.365,32.410 67.200 L 32.037 64.600 32.197 67.800 M360.294 72.200 C 360.137 73.080,360.007 74.797,360.004 76.015 C 360.002 77.234,359.731 80.384,359.403 83.015 C 359.075 85.647,358.832 88.970,358.863 90.400 C 358.894 91.830,358.981 92.460,359.055 91.800 C 360.492 79.033,361.271 66.712,360.294 72.200 M165.500 79.500 C 156.975 79.560,150.000 79.742,150.000 79.905 C 150.000 80.067,157.380 80.151,166.400 80.091 L 182.800 79.983 182.800 193.242 L 182.800 306.502 181.100 306.282 C 179.484 306.072,179.463 306.082,180.678 306.482 C 181.380 306.714,182.235 306.795,182.578 306.664 C 183.663 306.247,183.513 80.196,182.426 79.614 C 182.001 79.386,181.506 79.243,181.326 79.295 C 181.147 79.348,174.025 79.440,165.500 79.500 M318.377 80.172 C 318.735 80.604,318.751 81.712,318.442 84.672 C 318.217 86.833,317.750 91.930,317.405 96.000 C 317.060 100.070,316.610 105.290,316.406 107.600 C 316.201 109.910,315.921 113.240,315.783 115.000 C 315.645 116.760,315.274 118.604,314.959 119.098 L 314.384 119.996 278.892 120.098 L 243.400 120.200 243.296 149.800 C 243.178 183.430,242.821 180.416,246.872 179.967 C 250.139 179.604,255.800 178.914,259.600 178.416 C 264.037 177.835,275.007 176.470,283.800 175.404 C 286.660 175.057,290.350 174.604,292.000 174.396 C 293.650 174.188,297.340 173.733,300.200 173.384 C 303.060 173.035,306.460 172.585,307.755 172.385 C 311.462 171.811,311.331 169.133,309.005 197.800 C 308.666 201.980,308.216 207.830,308.004 210.800 C 307.793 213.770,307.340 219.620,306.997 223.800 C 306.655 227.980,306.211 233.740,306.011 236.600 C 305.810 239.460,305.469 243.780,305.251 246.200 C 305.034 248.620,304.657 253.300,304.414 256.600 C 304.171 259.900,303.798 264.670,303.586 267.200 C 303.373 269.730,303.083 273.870,302.942 276.400 C 302.622 282.125,302.440 282.634,300.519 283.198 C 296.631 284.339,285.078 287.381,282.200 288.022 C 281.320 288.218,279.610 288.668,278.400 289.021 C 277.190 289.374,275.570 289.816,274.800 290.002 C 274.030 290.188,272.320 290.633,271.000 290.992 C 269.680 291.350,267.970 291.795,267.200 291.980 C 264.610 292.603,247.604 297.083,241.800 298.672 C 239.820 299.214,237.570 299.806,236.800 299.988 C 236.030 300.169,232.520 301.072,229.000 301.993 C 225.480 302.914,221.340 303.995,219.800 304.394 C 218.260 304.794,215.920 305.427,214.600 305.803 C 210.107 307.080,210.615 309.419,210.496 286.916 C 210.399 268.475,210.437 267.209,211.096 266.863 C 211.483 266.660,213.240 266.122,215.000 265.669 C 216.760 265.215,219.280 264.547,220.600 264.185 C 221.920 263.822,224.620 263.103,226.600 262.587 C 230.161 261.658,233.187 260.855,239.400 259.189 C 241.160 258.717,244.220 257.909,246.200 257.393 C 248.180 256.876,250.880 256.163,252.200 255.808 C 253.520 255.453,256.580 254.639,259.000 254.000 C 261.420 253.361,264.480 252.542,265.800 252.180 C 267.120 251.819,269.769 251.132,271.687 250.655 C 276.610 249.429,276.245 250.876,277.197 228.800 C 277.429 223.410,277.709 218.460,277.818 217.800 C 278.205 215.462,277.910 215.409,271.151 216.604 C 267.768 217.202,264.100 217.839,263.000 218.019 C 261.900 218.198,255.510 219.338,248.800 220.550 C 242.090 221.763,234.530 223.119,232.000 223.565 C 229.470 224.010,225.870 224.656,224.000 225.000 C 214.687 226.713,211.428 227.219,210.937 227.031 C 210.169 226.736,210.132 80.175,210.900 79.865 C 212.287 79.305,317.908 79.607,318.377 80.172 M149.796 168.600 C 149.796 216.560,149.843 236.239,149.900 212.332 C 149.957 188.425,149.957 149.185,149.900 125.132 C 149.843 101.079,149.796 120.640,149.796 168.600 M34.202 90.200 C 34.413 94.840,35.185 103.749,35.601 106.355 C 36.306 110.764,35.309 96.905,34.410 89.800 L 34.056 87.000 34.202 90.200 M358.271 96.000 C 358.140 97.430,357.827 100.670,357.574 103.200 C 357.322 105.730,357.063 109.510,356.999 111.600 C 356.935 113.690,356.951 114.680,357.035 113.800 C 357.119 112.920,357.363 110.670,357.577 108.800 C 358.306 102.432,358.909 94.527,358.708 93.963 C 358.598 93.653,358.401 94.570,358.271 96.000 M36.203 112.600 C 36.445 117.067,37.150 125.300,37.557 128.400 L 37.899 131.000 37.949 128.821 C 37.977 127.622,37.816 125.192,37.592 123.421 C 37.368 121.649,36.924 117.770,36.607 114.800 C 36.278 111.712,36.105 110.770,36.203 112.600 M356.300 117.756 C 356.135 118.832,356.023 120.812,356.052 122.156 L 356.104 124.600 356.461 121.600 C 356.908 117.834,356.776 114.655,356.300 117.756 M355.265 129.494 C 354.570 136.667,354.413 138.673,354.222 142.800 L 354.047 146.600 354.562 141.800 C 355.487 133.188,356.135 125.202,355.926 124.993 C 355.813 124.880,355.516 126.906,355.265 129.494 M38.210 135.000 C 38.413 140.008,39.145 148.697,39.610 151.600 C 40.239 155.532,39.335 142.449,38.408 134.200 L 38.048 131.000 38.210 135.000 M353.472 149.400 C 353.134 152.552,352.752 160.525,352.984 159.600 C 353.314 158.281,354.085 148.535,353.934 147.600 C 353.845 147.050,353.637 147.860,353.472 149.400 M40.050 156.400 C 40.018 157.390,40.181 159.910,40.412 162.000 C 40.643 164.090,41.074 168.140,41.369 171.000 C 41.720 174.402,41.922 175.447,41.953 174.021 C 41.979 172.822,41.821 170.392,41.602 168.621 C 41.382 166.849,40.957 162.970,40.656 160.000 C 40.354 157.030,40.082 155.410,40.050 156.400 M352.300 162.556 C 352.135 163.632,352.023 165.522,352.051 166.756 L 352.101 169.000 352.464 166.200 C 352.922 162.670,352.777 159.447,352.300 162.556 M351.265 174.800 C 350.996 177.770,350.609 181.910,350.404 184.000 C 349.013 198.196,348.794 200.836,348.845 202.800 C 348.909 205.323,349.389 200.895,351.016 182.754 C 351.601 176.238,352.006 170.568,351.917 170.154 C 351.827 169.739,351.534 171.830,351.265 174.800 M42.046 178.021 C 42.004 179.669,43.405 196.277,43.748 198.200 C 44.092 200.124,43.969 194.646,43.592 191.200 C 43.363 189.110,42.932 184.880,42.634 181.800 C 42.336 178.720,42.072 177.019,42.046 178.021 M44.200 202.600 C 44.381 206.991,45.547 220.046,45.807 220.600 C 46.224 221.487,45.419 210.875,44.396 202.000 L 44.051 199.000 44.200 202.600 M348.300 207.356 C 348.135 208.432,348.023 210.322,348.051 211.556 L 348.101 213.800 348.464 211.000 C 348.922 207.470,348.777 204.247,348.300 207.356 M347.300 218.618 C 347.025 221.049,346.800 223.965,346.800 225.099 C 346.800 226.233,346.611 228.043,346.379 229.122 C 346.148 230.201,346.013 232.234,346.079 233.642 C 346.179 235.744,346.292 235.166,346.717 230.400 C 347.001 227.210,347.421 222.980,347.650 221.000 C 347.879 219.020,348.007 216.680,347.933 215.800 C 347.844 214.727,347.635 215.654,347.300 218.618 M46.202 224.600 C 46.299 226.580,46.660 231.350,47.005 235.200 C 48.228 248.854,48.353 250.283,48.998 257.991 C 49.356 262.276,49.728 265.861,49.825 265.958 C 50.131 266.265,50.014 262.241,49.620 258.964 C 49.411 257.224,48.957 252.200,48.610 247.800 C 48.264 243.400,47.803 238.090,47.586 236.000 C 47.368 233.910,46.929 229.680,46.609 226.600 C 46.168 222.364,46.069 221.877,46.202 224.600 M345.427 239.500 C 345.030 243.752,344.567 249.155,344.028 255.800 C 343.779 258.880,343.400 262.835,343.187 264.590 C 342.833 267.508,342.688 273.142,342.992 272.200 C 343.063 271.980,343.326 269.460,343.576 266.600 C 343.827 263.740,344.397 257.260,344.844 252.200 C 345.895 240.301,346.159 236.400,345.914 236.400 C 345.805 236.400,345.585 237.795,345.427 239.500 M84.000 239.945 C 84.000 240.134,84.450 240.203,85.000 240.098 C 85.550 239.993,86.000 239.838,86.000 239.753 C 86.000 239.669,85.550 239.600,85.000 239.600 C 84.450 239.600,84.000 239.755,84.000 239.945 M87.000 240.400 C 87.440 240.589,88.070 240.744,88.400 240.744 C 88.778 240.744,88.704 240.617,88.200 240.400 C 87.760 240.211,87.130 240.056,86.800 240.056 C 86.422 240.056,86.496 240.183,87.000 240.400 M90.800 241.421 C 91.790 241.733,92.780 241.977,93.000 241.963 C 93.700 241.921,90.634 240.861,89.800 240.857 C 89.360 240.855,89.810 241.109,90.800 241.421 M94.200 242.400 C 94.640 242.589,95.270 242.744,95.600 242.744 C 95.978 242.744,95.904 242.617,95.400 242.400 C 94.960 242.211,94.330 242.056,94.000 242.056 C 93.622 242.056,93.696 242.183,94.200 242.400 M98.600 243.600 C 99.040 243.789,99.670 243.944,100.000 243.944 C 100.378 243.944,100.304 243.817,99.800 243.600 C 99.360 243.411,98.730 243.256,98.400 243.256 C 98.022 243.256,98.096 243.383,98.600 243.600 M108.600 246.400 C 109.040 246.589,109.670 246.744,110.000 246.744 C 110.378 246.744,110.304 246.617,109.800 246.400 C 109.360 246.211,108.730 246.056,108.400 246.056 C 108.022 246.056,108.096 246.183,108.600 246.400 M112.800 247.600 C 113.130 247.813,113.670 247.988,114.000 247.988 C 114.533 247.988,114.533 247.945,114.000 247.600 C 113.670 247.387,113.130 247.212,112.800 247.212 C 112.267 247.212,112.267 247.255,112.800 247.600 M115.800 248.400 C 116.240 248.589,116.870 248.744,117.200 248.744 C 117.578 248.744,117.504 248.617,117.000 248.400 C 116.560 248.211,115.930 248.056,115.600 248.056 C 115.222 248.056,115.296 248.183,115.800 248.400 M120.000 249.582 C 120.330 249.805,120.945 249.991,121.367 249.994 C 122.390 250.002,122.071 249.773,120.600 249.444 C 119.724 249.248,119.562 249.285,120.000 249.582 M130.800 252.600 C 131.570 252.897,132.560 253.141,133.000 253.143 C 133.440 253.145,132.990 252.891,132.000 252.579 C 129.739 251.867,128.933 251.881,130.800 252.600 M140.800 255.400 C 141.570 255.697,142.470 255.939,142.800 255.939 C 143.130 255.939,142.770 255.697,142.000 255.400 C 141.230 255.103,140.330 254.861,140.000 254.861 C 139.670 254.861,140.030 255.103,140.800 255.400 M147.200 257.206 C 148.530 257.624,150.001 257.673,149.997 257.300 C 149.996 257.135,149.141 256.976,148.097 256.946 C 146.648 256.905,146.436 256.966,147.200 257.206 M50.199 269.800 C 50.353 273.008,50.681 276.868,52.001 291.000 C 52.207 293.200,52.576 297.520,52.822 300.600 C 53.068 303.680,53.411 307.190,53.586 308.400 L 53.902 310.600 53.951 308.645 C 53.978 307.570,53.822 305.140,53.604 303.245 C 53.386 301.350,52.932 296.560,52.595 292.600 C 51.050 274.455,49.897 263.482,50.199 269.800 M342.304 274.200 C 342.142 275.080,342.029 276.970,342.053 278.400 L 342.098 281.000 342.457 278.600 C 342.654 277.280,342.767 275.390,342.708 274.400 L 342.600 272.600 342.304 274.200 M87.000 280.400 C 87.440 280.589,88.070 280.744,88.400 280.744 C 88.778 280.744,88.704 280.617,88.200 280.400 C 87.760 280.211,87.130 280.056,86.800 280.056 C 86.422 280.056,86.496 280.183,87.000 280.400 M341.295 285.800 C 340.843 290.100,340.658 295.236,340.992 294.200 C 341.287 293.287,342.080 283.306,341.946 282.200 C 341.865 281.540,341.573 283.160,341.295 285.800 M94.200 282.400 C 94.640 282.589,95.270 282.744,95.600 282.744 C 95.978 282.744,95.904 282.617,95.400 282.400 C 94.960 282.211,94.330 282.056,94.000 282.056 C 93.622 282.056,93.696 282.183,94.200 282.400 M98.400 283.600 C 98.730 283.813,99.270 283.988,99.600 283.988 C 100.133 283.988,100.133 283.945,99.600 283.600 C 99.270 283.387,98.730 283.212,98.400 283.212 C 97.867 283.212,97.867 283.255,98.400 283.600 M101.400 284.400 C 101.840 284.589,102.470 284.744,102.800 284.744 C 103.178 284.744,103.104 284.617,102.600 284.400 C 102.160 284.211,101.530 284.056,101.200 284.056 C 100.822 284.056,100.896 284.183,101.400 284.400 M104.800 285.400 C 105.570 285.697,106.470 285.939,106.800 285.939 C 107.130 285.939,106.770 285.697,106.000 285.400 C 105.230 285.103,104.330 284.861,104.000 284.861 C 103.670 284.861,104.030 285.103,104.800 285.400 M115.800 288.400 C 116.240 288.589,116.870 288.744,117.200 288.744 C 117.578 288.744,117.504 288.617,117.000 288.400 C 116.560 288.211,115.930 288.056,115.600 288.056 C 115.222 288.056,115.296 288.183,115.800 288.400 M126.400 291.421 C 127.390 291.733,128.380 291.977,128.600 291.963 C 129.300 291.921,126.234 290.861,125.400 290.857 C 124.960 290.855,125.410 291.109,126.400 291.421 M132.400 293.037 C 134.050 293.564,135.580 293.979,135.800 293.958 C 136.020 293.938,134.850 293.490,133.200 292.963 C 131.550 292.436,130.020 292.021,129.800 292.042 C 129.580 292.062,130.750 292.510,132.400 293.037 M140.800 295.421 C 141.790 295.733,142.780 295.977,143.000 295.963 C 143.700 295.921,140.634 294.861,139.800 294.857 C 139.360 294.855,139.810 295.109,140.800 295.421 M340.227 297.870 C 340.092 299.592,339.714 303.700,339.388 307.000 C 339.061 310.300,338.817 313.990,338.846 315.200 C 338.881 316.745,339.043 315.971,339.389 312.600 C 340.311 303.615,340.939 295.206,340.706 294.973 C 340.578 294.845,340.363 296.149,340.227 297.870 M144.400 296.400 C 144.730 296.613,145.270 296.788,145.600 296.788 C 146.133 296.788,146.133 296.745,145.600 296.400 C 145.270 296.187,144.730 296.012,144.400 296.012 C 143.867 296.012,143.867 296.055,144.400 296.400 M148.000 297.421 C 148.990 297.733,149.980 297.977,150.200 297.963 C 150.900 297.921,147.834 296.861,147.000 296.857 C 146.560 296.855,147.010 297.109,148.000 297.421 M150.833 298.144 C 150.925 298.223,151.540 298.408,152.200 298.556 C 153.076 298.752,153.238 298.715,152.800 298.418 C 152.260 298.053,150.432 297.798,150.833 298.144 M155.200 299.400 C 155.970 299.697,156.870 299.939,157.200 299.939 C 157.530 299.939,157.170 299.697,156.400 299.400 C 155.630 299.103,154.730 298.861,154.400 298.861 C 154.070 298.861,154.430 299.103,155.200 299.400 M158.600 300.400 C 159.040 300.589,159.670 300.744,160.000 300.744 C 160.378 300.744,160.304 300.617,159.800 300.400 C 159.360 300.211,158.730 300.056,158.400 300.056 C 158.022 300.056,158.096 300.183,158.600 300.400 M162.200 301.412 C 163.080 301.729,164.070 301.977,164.400 301.964 C 165.242 301.929,162.377 300.864,161.400 300.848 C 160.960 300.841,161.320 301.095,162.200 301.412 M165.800 302.400 C 166.240 302.589,166.870 302.744,167.200 302.744 C 167.578 302.744,167.504 302.617,167.000 302.400 C 166.560 302.211,165.930 302.056,165.600 302.056 C 165.222 302.056,165.296 302.183,165.800 302.400 M169.600 303.421 C 170.590 303.733,171.580 303.977,171.800 303.963 C 172.500 303.921,169.434 302.861,168.600 302.857 C 168.160 302.855,168.610 303.109,169.600 303.421 M172.433 304.144 C 172.525 304.223,173.140 304.408,173.800 304.556 C 174.676 304.752,174.838 304.715,174.400 304.418 C 173.860 304.053,172.032 303.798,172.433 304.144 M177.200 305.600 C 177.530 305.813,178.160 305.978,178.600 305.966 L 179.400 305.944 178.600 305.600 C 177.404 305.086,176.405 305.086,177.200 305.600 M54.053 312.400 C 53.989 314.322,54.576 321.286,55.433 328.800 C 56.097 334.610,55.928 329.793,55.181 321.600 C 54.306 311.993,54.117 310.452,54.053 312.400 M338.295 320.000 C 338.153 321.430,337.756 325.840,337.412 329.800 C 337.069 333.760,336.609 338.710,336.390 340.800 C 336.171 342.890,336.018 345.500,336.049 346.600 C 336.103 348.503,336.573 344.460,337.572 333.500 C 337.807 330.915,338.200 326.685,338.445 324.100 C 338.690 321.515,338.814 318.950,338.721 318.400 C 338.627 317.843,338.438 318.551,338.295 320.000 M56.218 337.000 C 56.444 341.559,57.148 349.934,57.399 351.049 C 57.504 351.517,58.087 352.092,58.695 352.328 C 60.714 353.113,71.692 356.041,71.887 355.847 C 71.992 355.742,71.295 355.443,70.339 355.183 C 69.383 354.923,68.150 354.571,67.600 354.400 C 67.050 354.230,65.430 353.774,64.000 353.388 C 62.570 353.003,60.680 352.461,59.800 352.185 L 58.200 351.683 57.711 348.342 C 57.442 346.504,56.956 342.390,56.631 339.200 C 56.220 335.168,56.094 334.497,56.218 337.000 M335.600 349.951 C 335.600 351.683,335.588 351.688,325.800 354.334 C 322.505 355.225,321.152 355.685,321.322 355.855 C 321.546 356.080,334.053 352.614,335.165 352.019 C 335.912 351.619,336.468 348.800,335.800 348.800 C 335.690 348.800,335.600 349.318,335.600 349.951 M73.000 356.400 C 74.196 356.914,75.195 356.914,74.400 356.400 C 74.070 356.187,73.440 356.022,73.000 356.034 L 72.200 356.056 73.000 356.400 M316.800 356.858 C 315.370 357.282,312.760 357.999,311.000 358.451 C 309.240 358.903,307.530 359.447,307.200 359.661 C 306.398 360.179,307.594 359.939,312.200 358.657 C 314.180 358.107,316.880 357.357,318.200 356.991 C 319.520 356.626,320.675 356.253,320.767 356.163 C 321.137 355.800,319.252 356.131,316.800 356.858 M77.200 357.573 C 79.645 358.376,82.725 359.026,81.400 358.460 C 79.731 357.746,76.463 356.801,75.746 356.825 C 75.336 356.839,75.990 357.176,77.200 357.573 M83.800 359.412 C 85.882 360.162,86.997 360.141,85.254 359.384 C 84.514 359.063,83.524 358.808,83.054 358.818 C 82.502 358.829,82.765 359.039,83.800 359.412 M86.843 360.176 C 87.006 360.340,95.825 362.915,100.757 364.240 C 101.943 364.559,103.004 364.729,103.114 364.619 C 103.224 364.509,103.064 364.348,102.757 364.261 C 101.476 363.897,97.298 362.752,96.000 362.408 C 92.042 361.362,89.709 360.691,88.881 360.364 C 87.939 359.991,86.527 359.861,86.843 360.176 M304.200 360.380 C 303.760 360.560,302.320 361.002,301.000 361.364 C 299.680 361.726,297.880 362.219,297.000 362.460 C 296.120 362.701,294.590 363.124,293.600 363.400 C 292.610 363.676,291.080 364.101,290.200 364.345 C 285.423 365.669,282.776 366.509,282.922 366.655 C 283.110 366.843,284.592 366.455,294.600 363.600 C 298.560 362.470,302.782 361.281,303.983 360.956 C 305.184 360.632,306.249 360.284,306.350 360.183 C 306.651 359.883,305.063 360.028,304.200 360.380 M105.000 365.412 C 107.082 366.162,108.197 366.141,106.454 365.384 C 105.714 365.063,104.724 364.808,104.254 364.818 C 103.702 364.829,103.965 365.039,105.000 365.412 M108.044 366.177 C 108.397 366.530,124.105 370.828,124.307 370.626 C 124.536 370.397,124.497 370.383,120.800 369.401 C 119.370 369.021,117.750 368.570,117.200 368.400 C 116.650 368.230,115.030 367.782,113.600 367.405 C 112.170 367.028,110.587 366.558,110.081 366.360 C 109.134 365.989,107.730 365.863,108.044 366.177 M279.400 367.414 C 277.807 368.144,278.973 368.142,281.000 367.412 C 282.236 366.966,282.373 366.839,281.600 366.850 C 281.050 366.858,280.060 367.112,279.400 367.414 M276.000 368.400 C 275.205 368.914,276.204 368.914,277.400 368.400 L 278.200 368.056 277.400 368.034 C 276.960 368.022,276.330 368.187,276.000 368.400 M272.200 369.414 C 270.607 370.144,271.773 370.142,273.800 369.412 C 275.036 368.966,275.173 368.839,274.400 368.850 C 273.850 368.858,272.860 369.112,272.200 369.414 M268.400 370.422 C 267.850 370.607,266.089 371.152,264.488 371.633 C 262.886 372.115,261.651 372.585,261.745 372.678 C 261.915 372.848,270.452 370.467,270.767 370.162 C 271.046 369.890,269.462 370.064,268.400 370.422 M126.200 371.412 C 128.282 372.162,129.397 372.141,127.654 371.384 C 126.914 371.063,125.924 370.808,125.454 370.818 C 124.902 370.829,125.165 371.039,126.200 371.412 M129.600 372.400 C 129.930 372.613,130.560 372.788,131.000 372.788 C 131.662 372.788,131.697 372.721,131.200 372.400 C 130.870 372.187,130.240 372.012,129.800 372.012 C 129.138 372.012,129.103 372.079,129.600 372.400 M132.040 372.973 C 132.360 373.293,142.489 376.044,142.672 375.861 C 142.851 375.682,141.951 375.377,138.400 374.408 C 137.410 374.138,135.874 373.666,134.987 373.359 C 133.463 372.831,131.662 372.596,132.040 372.973 M258.200 373.386 C 256.598 374.119,257.782 374.138,259.800 373.412 C 261.062 372.957,261.189 372.835,260.400 372.836 C 259.850 372.836,258.860 373.083,258.200 373.386 M254.200 374.385 C 253.760 374.566,252.634 374.943,251.698 375.222 C 250.762 375.501,250.083 375.816,250.189 375.922 C 250.359 376.092,253.002 375.398,256.000 374.397 L 257.000 374.063 256.000 374.059 C 255.450 374.056,254.640 374.203,254.200 374.385 M143.233 376.162 C 143.621 376.538,152.110 378.828,152.535 378.671 C 152.791 378.576,152.460 378.371,151.800 378.216 C 151.140 378.061,149.700 377.663,148.600 377.331 C 144.536 376.108,144.132 376.000,143.605 376.000 C 143.309 376.000,143.142 376.073,143.233 376.162 M247.600 376.400 C 246.805 376.914,247.804 376.914,249.000 376.400 L 249.800 376.056 249.000 376.034 C 248.560 376.022,247.930 376.187,247.600 376.400 M243.600 377.398 C 242.830 377.683,241.390 378.128,240.400 378.386 C 239.410 378.644,237.790 379.092,236.800 379.381 C 235.810 379.670,234.190 380.129,233.200 380.401 C 230.840 381.050,228.247 382.091,229.600 381.846 C 230.622 381.662,244.190 377.825,246.000 377.209 L 247.000 376.869 246.000 376.873 C 245.450 376.876,244.370 377.112,243.600 377.398 M154.600 379.412 C 156.682 380.162,157.797 380.141,156.054 379.384 C 155.314 379.063,154.324 378.808,153.854 378.818 C 153.302 378.829,153.565 379.039,154.600 379.412 M158.200 380.399 C 159.727 381.058,163.619 382.114,163.811 381.922 C 163.917 381.816,163.238 381.502,162.302 381.223 C 161.366 380.945,160.187 380.555,159.681 380.358 C 158.431 379.871,157.062 379.908,158.200 380.399 M165.000 382.400 C 166.196 382.914,167.195 382.914,166.400 382.400 C 166.070 382.187,165.440 382.022,165.000 382.034 L 164.200 382.056 165.000 382.400 M226.400 382.400 C 225.605 382.914,226.604 382.914,227.800 382.400 L 228.600 382.056 227.800 382.034 C 227.360 382.022,226.730 382.187,226.400 382.400 M168.600 383.412 C 170.682 384.162,171.797 384.141,170.054 383.384 C 169.314 383.063,168.324 382.808,167.854 382.818 C 167.302 382.829,167.565 383.039,168.600 383.412 M222.400 383.425 C 221.630 383.716,220.606 383.965,220.124 383.977 C 219.411 383.996,218.270 384.800,218.957 384.800 C 219.224 384.800,223.063 383.748,224.600 383.254 C 225.705 382.899,225.720 382.870,224.800 382.882 C 224.250 382.889,223.170 383.134,222.400 383.425 M173.000 384.583 C 176.638 385.765,178.015 386.118,178.213 385.920 C 178.329 385.805,177.563 385.490,176.511 385.222 C 175.460 384.953,174.187 384.568,173.681 384.367 C 173.176 384.165,172.456 384.014,172.081 384.032 C 171.707 384.049,172.120 384.297,173.000 384.583 M215.400 385.414 C 213.807 386.144,214.973 386.142,217.000 385.412 C 218.236 384.966,218.373 384.839,217.600 384.850 C 217.050 384.858,216.060 385.112,215.400 385.414 M179.400 386.400 C 180.501 386.873,180.892 386.873,180.600 386.400 C 180.464 386.180,179.958 386.013,179.476 386.028 C 178.631 386.055,178.629 386.069,179.400 386.400 M211.800 386.393 C 211.360 386.579,210.100 386.966,209.000 387.253 C 207.900 387.540,207.270 387.827,207.600 387.890 C 207.930 387.954,209.550 387.572,211.200 387.043 C 212.850 386.513,213.840 386.074,213.400 386.067 C 212.960 386.060,212.240 386.207,211.800 386.393 M182.800 387.421 C 185.120 388.152,185.778 388.133,184.054 387.384 C 183.314 387.063,182.324 386.812,181.854 386.827 C 181.374 386.842,181.788 387.102,182.800 387.421 M186.200 388.400 C 187.396 388.914,188.395 388.914,187.600 388.400 C 187.270 388.187,186.640 388.022,186.200 388.034 L 185.400 388.056 186.200 388.400 M204.800 388.400 C 204.303 388.721,204.338 388.788,205.000 388.788 C 205.440 388.788,206.070 388.613,206.400 388.400 C 206.897 388.079,206.862 388.012,206.200 388.012 C 205.760 388.012,205.130 388.187,204.800 388.400 M189.800 389.412 C 190.680 389.729,191.670 389.976,192.000 389.961 C 192.980 389.918,190.289 388.836,189.200 388.836 C 188.411 388.835,188.538 388.957,189.800 389.412 M201.000 389.414 C 199.380 390.156,200.868 390.144,202.800 389.400 C 204.014 388.932,204.067 388.861,203.200 388.863 C 202.650 388.864,201.660 389.112,201.000 389.414 M194.000 390.567 C 194.770 390.881,195.850 391.134,196.400 391.129 C 197.200 391.120,197.120 391.042,196.000 390.737 C 193.417 390.033,192.506 389.955,194.000 390.567 M197.800 390.400 C 197.508 390.873,197.899 390.873,199.000 390.400 C 199.771 390.069,199.769 390.055,198.924 390.028 C 198.442 390.013,197.936 390.180,197.800 390.400 " stroke="none" fill="#fbdb3b" fill-rule="evenodd"></path></g></svg>