<svg id="svg" version="1.1" xmlns="http://www.w3.org/2000/svg" xmlns:xlink="http://www.w3.org/1999/xlink" width="400" height="296.6292134831461" viewBox="0, 0, 400,296.6292134831461"><g id="svgg"><path id="path0" d="M36.795 9.050 L 36.795 9.792 30.712 9.792 L 24.629 9.792 24.629 11.276 L 24.629 12.760 45.697 12.760 L 66.766 12.760 66.766 13.501 L 66.766 14.243 77.151 14.243 L 87.537 14.243 87.537 14.985 L 87.537 15.727 95.104 15.727 L 102.671 15.727 102.671 16.469 L 102.671 17.211 108.605 17.211 L 114.540 17.211 114.540 17.953 L 114.540 18.694 119.881 18.694 L 125.223 18.694 125.223 19.436 L 125.223 20.178 128.932 20.178 L 132.641 20.178 132.641 20.920 L 132.641 21.662 137.092 21.662 L 141.543 21.662 141.543 22.404 L 141.543 23.145 145.252 23.145 L 148.961 23.145 148.961 23.887 L 148.961 24.629 152.077 24.629 L 155.193 24.629 155.193 25.371 L 155.193 26.113 158.160 26.113 L 161.128 26.113 161.128 26.855 L 161.128 27.596 164.095 27.596 L 167.062 27.596 167.062 28.338 C 167.062 29.080,167.064 29.080,170.010 29.080 L 172.958 29.080 173.052 29.896 C 173.143 30.693,173.197 30.714,175.278 30.799 C 177.220 30.878,177.418 30.944,177.503 31.541 C 177.588 32.137,177.787 32.204,179.729 32.283 C 181.671 32.362,181.869 32.428,181.954 33.024 C 182.043 33.645,182.208 33.684,185.089 33.764 C 188.101 33.848,188.131 33.856,188.131 34.580 C 188.131 35.260,188.235 35.312,189.614 35.312 C 190.999 35.312,191.098 35.361,191.098 36.053 C 191.098 36.779,191.147 36.795,193.323 36.795 C 195.500 36.795,195.549 36.812,195.549 37.537 C 195.549 38.262,195.598 38.279,197.774 38.279 C 199.951 38.279,200.000 38.295,200.000 39.021 L 200.000 39.763 196.291 39.763 L 192.582 39.763 192.582 39.021 L 192.582 38.279 184.273 38.279 L 175.964 38.279 175.964 37.537 L 175.964 36.795 143.769 36.795 L 111.573 36.795 111.573 37.537 L 111.573 38.279 104.154 38.279 L 96.736 38.279 96.736 39.021 L 96.736 39.763 91.395 39.763 L 86.053 39.763 86.053 40.504 L 86.053 41.246 81.602 41.246 L 77.151 41.246 77.151 41.988 L 77.151 42.730 72.700 42.730 L 68.249 42.730 68.249 43.472 L 68.249 44.214 64.572 44.214 C 60.898 44.214,60.895 44.214,60.709 44.955 C 60.526 45.685,60.473 45.697,57.561 45.697 C 54.600 45.697,54.599 45.697,54.599 46.439 L 54.599 47.181 50.890 47.181 L 47.181 47.181 47.181 47.923 L 47.181 48.665 44.214 48.665 L 41.246 48.665 41.246 49.407 L 41.246 50.148 38.279 50.148 L 35.312 50.148 35.312 50.890 C 35.312 51.616,35.262 51.632,33.086 51.632 C 30.918 51.632,30.861 51.651,30.861 52.364 C 30.861 53.088,30.831 53.096,27.819 53.180 C 24.920 53.260,24.773 53.295,24.683 53.932 C 24.594 54.556,24.444 54.599,22.383 54.599 C 20.229 54.599,20.178 54.617,20.178 55.341 L 20.178 56.083 17.211 56.083 C 14.257 56.083,14.243 56.087,14.243 56.812 C 14.243 57.511,14.155 57.544,12.092 57.628 L 9.941 57.715 9.851 59.273 L 9.761 60.831 14.228 60.831 L 18.694 60.831 18.694 59.941 L 18.694 59.050 21.662 59.050 L 24.629 59.050 24.629 58.309 L 24.629 57.567 29.228 57.567 L 33.828 57.567 33.828 56.825 L 33.828 56.083 37.537 56.083 L 41.246 56.083 41.246 55.341 L 41.246 54.599 45.697 54.599 L 50.148 54.599 50.148 53.858 L 50.148 53.116 54.599 53.116 L 59.050 53.116 59.050 52.374 L 59.050 51.632 65.134 51.632 L 71.217 51.632 71.217 50.890 L 71.217 50.148 77.151 50.148 L 83.086 50.148 83.086 49.407 L 83.086 48.665 91.395 48.665 L 99.703 48.665 99.703 47.923 L 99.703 47.181 110.831 47.181 L 121.958 47.181 121.958 46.439 L 121.958 45.697 141.543 45.697 L 161.128 45.697 161.128 46.439 L 161.128 47.181 171.513 47.181 L 181.899 47.181 181.899 47.923 L 181.899 48.665 187.982 48.665 L 194.065 48.665 194.065 49.407 L 194.065 50.148 200.742 50.148 L 207.418 50.148 207.418 51.629 L 207.418 53.109 194.733 53.187 L 182.047 53.264 181.953 53.932 C 181.858 54.595,181.823 54.599,176.686 54.599 L 171.513 54.599 171.513 55.341 L 171.513 56.083 167.062 56.083 L 162.611 56.083 162.611 56.825 L 162.611 57.567 158.902 57.567 L 155.193 57.567 155.193 58.457 L 155.193 59.347 152.077 59.347 L 148.961 59.347 148.961 60.089 L 148.961 60.831 145.994 60.831 L 143.027 60.831 143.027 61.573 L 143.027 62.315 140.059 62.315 L 137.092 62.315 137.092 63.056 C 137.092 63.782,137.043 63.798,134.866 63.798 C 132.690 63.798,132.641 63.815,132.641 64.540 L 132.641 65.282 129.674 65.282 C 126.720 65.282,126.706 65.285,126.706 66.011 C 126.706 66.716,126.628 66.744,124.407 66.827 C 122.278 66.907,122.100 66.964,122.012 67.582 C 121.923 68.206,121.773 68.249,119.712 68.249 C 117.558 68.249,117.507 68.266,117.507 68.991 C 117.507 69.716,117.458 69.733,115.282 69.733 C 113.106 69.733,113.056 69.749,113.056 70.475 C 113.056 71.200,113.007 71.217,110.831 71.217 C 108.655 71.217,108.605 71.233,108.605 71.958 C 108.605 72.684,108.556 72.700,106.380 72.700 C 104.204 72.700,104.154 72.717,104.154 73.442 C 104.154 74.135,104.055 74.184,102.671 74.184 C 101.286 74.184,101.187 74.233,101.187 74.926 C 101.187 75.651,101.137 75.668,98.961 75.668 C 96.785 75.668,96.736 75.684,96.736 76.409 C 96.736 77.102,96.637 77.151,95.252 77.151 C 93.874 77.151,93.769 77.203,93.769 77.881 C 93.769 78.585,93.690 78.613,91.469 78.697 C 89.341 78.777,89.162 78.833,89.074 79.451 C 88.991 80.040,88.808 80.119,87.516 80.119 C 86.154 80.119,86.053 80.170,86.053 80.861 C 86.053 81.553,85.955 81.602,84.570 81.602 C 83.185 81.602,83.086 81.652,83.086 82.344 C 83.086 83.037,82.987 83.086,81.602 83.086 C 80.218 83.086,80.119 83.136,80.119 83.828 C 80.119 84.520,80.020 84.570,78.635 84.570 C 77.250 84.570,77.151 84.619,77.151 85.312 C 77.151 86.004,77.052 86.053,75.668 86.053 C 74.292 86.053,74.184 86.106,74.184 86.779 C 74.184 87.434,74.047 87.513,72.774 87.595 C 71.484 87.678,71.357 87.754,71.271 88.501 C 71.183 89.269,71.090 89.318,69.713 89.318 C 68.349 89.318,68.249 89.368,68.249 90.059 C 68.249 90.752,68.150 90.801,66.766 90.801 C 65.381 90.801,65.282 90.851,65.282 91.543 C 65.282 92.235,65.183 92.285,63.798 92.285 C 62.413 92.285,62.315 92.334,62.315 93.027 C 62.315 93.728,62.226 93.769,60.682 93.769 C 59.139 93.769,59.050 93.809,59.050 94.510 C 59.050 95.203,58.952 95.252,57.567 95.252 C 56.182 95.252,56.083 95.302,56.083 95.994 C 56.083 96.588,55.935 96.736,55.341 96.736 C 54.748 96.736,54.599 96.884,54.599 97.478 C 54.599 98.170,54.500 98.220,53.116 98.220 C 51.731 98.220,51.632 98.269,51.632 98.961 C 51.632 99.654,51.533 99.703,50.148 99.703 C 48.764 99.703,48.665 99.753,48.665 100.445 C 48.665 101.039,48.516 101.187,47.923 101.187 C 47.329 101.187,47.181 101.335,47.181 101.929 C 47.181 102.621,47.082 102.671,45.697 102.671 C 44.313 102.671,44.214 102.720,44.214 103.412 C 44.214 104.006,44.065 104.154,43.472 104.154 C 42.878 104.154,42.730 104.303,42.730 104.896 C 42.730 105.490,42.582 105.638,41.988 105.638 C 41.395 105.638,41.246 105.786,41.246 106.380 C 41.246 106.973,41.098 107.122,40.504 107.122 C 39.812 107.122,39.763 107.221,39.763 108.605 L 39.763 110.089 41.246 110.089 C 42.631 110.089,42.730 110.040,42.730 109.347 C 42.730 108.655,42.829 108.605,44.214 108.605 C 45.598 108.605,45.697 108.556,45.697 107.864 C 45.697 107.171,45.796 107.122,47.181 107.122 C 48.566 107.122,48.665 107.072,48.665 106.380 C 48.665 105.687,48.764 105.638,50.148 105.638 C 51.533 105.638,51.632 105.589,51.632 104.896 C 51.632 104.204,51.731 104.154,53.116 104.154 C 54.500 104.154,54.599 104.105,54.599 103.412 C 54.599 102.720,54.698 102.671,56.083 102.671 C 57.468 102.671,57.567 102.621,57.567 101.929 C 57.567 101.236,57.666 101.187,59.050 101.187 C 60.435 101.187,60.534 101.137,60.534 100.445 C 60.534 99.744,60.623 99.703,62.166 99.703 C 63.699 99.703,63.798 99.659,63.798 98.978 C 63.798 98.323,63.935 98.243,65.208 98.162 C 66.411 98.084,66.631 97.973,66.712 97.404 C 66.801 96.780,66.951 96.736,69.012 96.736 C 71.166 96.736,71.217 96.719,71.217 95.994 C 71.217 95.302,71.316 95.252,72.700 95.252 C 74.085 95.252,74.184 95.203,74.184 94.510 C 74.184 93.785,74.233 93.769,76.409 93.769 C 78.586 93.769,78.635 93.752,78.635 93.027 C 78.635 92.334,78.734 92.285,80.119 92.285 C 81.503 92.285,81.602 92.235,81.602 91.543 C 81.602 90.818,81.652 90.801,83.828 90.801 C 86.004 90.801,86.053 90.785,86.053 90.059 C 86.053 89.367,86.152 89.318,87.537 89.318 C 88.988 89.318,89.021 89.298,89.021 88.427 L 89.021 87.537 91.395 87.537 C 93.729 87.537,93.769 87.525,93.769 86.795 C 93.769 86.070,93.818 86.053,95.994 86.053 C 98.170 86.053,98.220 86.037,98.220 85.312 C 98.220 84.586,98.269 84.570,100.445 84.570 C 102.621 84.570,102.671 84.553,102.671 83.828 C 102.671 83.103,102.720 83.086,104.896 83.086 C 107.072 83.086,107.122 83.070,107.122 82.344 C 107.122 81.619,107.171 81.602,109.347 81.602 C 111.523 81.602,111.573 81.586,111.573 80.861 C 111.573 80.135,111.622 80.119,113.798 80.119 C 115.974 80.119,116.024 80.102,116.024 79.377 C 116.024 78.652,116.073 78.635,118.249 78.635 C 120.425 78.635,120.475 78.619,120.475 77.893 L 120.475 77.151 123.591 77.151 L 126.706 77.151 126.706 76.409 L 126.706 75.668 129.674 75.668 L 132.641 75.668 132.641 74.926 L 132.641 74.184 135.608 74.184 L 138.576 74.184 138.576 73.442 L 138.576 72.700 141.543 72.700 L 144.510 72.700 144.510 71.958 L 144.510 71.217 147.478 71.217 L 150.445 71.217 150.445 70.475 L 150.445 69.733 154.303 69.733 L 158.160 69.733 158.160 68.991 L 158.160 68.249 162.611 68.249 L 167.062 68.249 167.062 67.507 L 167.062 66.766 171.513 66.766 L 175.964 66.766 175.964 66.029 L 175.964 65.293 182.715 65.213 C 189.440 65.134,189.466 65.131,189.560 64.473 L 189.654 63.813 200.094 63.731 C 212.914 63.631,211.816 63.493,211.928 65.226 C 212.004 66.402,212.119 66.632,212.673 66.710 C 213.269 66.795,213.336 66.994,213.415 68.936 C 213.494 70.890,213.557 71.076,214.169 71.163 C 214.671 71.234,214.838 71.456,214.841 72.053 C 214.849 73.559,215.162 74.184,215.910 74.184 C 216.592 74.184,216.617 74.262,216.617 76.409 C 216.617 78.586,216.634 78.635,217.359 78.635 C 218.051 78.635,218.101 78.734,218.101 80.119 C 218.101 81.503,218.051 81.602,217.359 81.602 C 216.766 81.602,216.617 81.751,216.617 82.344 C 216.617 82.929,216.467 83.086,215.908 83.086 C 215.402 83.086,215.145 83.295,215.016 83.812 C 214.859 84.436,214.636 84.550,213.426 84.628 C 212.237 84.704,212.003 84.819,211.925 85.368 C 211.868 85.772,211.588 86.052,211.184 86.109 C 210.782 86.166,210.499 86.446,210.443 86.842 C 210.387 87.231,210.068 87.552,209.627 87.663 C 209.102 87.795,208.902 88.048,208.902 88.581 C 208.902 89.169,208.752 89.318,208.160 89.318 C 207.567 89.318,207.418 89.466,207.418 90.059 C 207.418 90.752,207.319 90.801,205.935 90.801 C 204.550 90.801,204.451 90.851,204.451 91.543 C 204.451 92.136,204.303 92.285,203.709 92.285 C 203.116 92.285,202.967 92.433,202.967 93.027 C 202.967 93.620,202.819 93.769,202.226 93.769 C 201.533 93.769,201.484 93.867,201.484 95.252 C 201.484 96.637,201.434 96.736,200.742 96.736 C 200.148 96.736,200.000 96.884,200.000 97.478 C 200.000 98.071,199.852 98.220,199.258 98.220 C 198.665 98.220,198.516 98.368,198.516 98.961 C 198.516 99.555,198.368 99.703,197.774 99.703 C 197.082 99.703,197.033 99.802,197.033 101.187 C 197.033 102.572,196.983 102.671,196.291 102.671 C 195.598 102.671,195.549 102.770,195.549 104.154 C 195.549 105.539,195.500 105.638,194.807 105.638 C 194.082 105.638,194.065 105.687,194.065 107.864 C 194.065 110.040,194.049 110.089,193.323 110.089 C 192.598 110.089,192.582 110.138,192.582 112.315 C 192.582 114.491,192.565 114.540,191.840 114.540 L 191.098 114.540 191.098 119.139 L 191.098 123.739 190.356 123.739 L 189.614 123.739 189.614 131.157 L 189.614 138.576 190.356 138.576 L 191.098 138.576 191.098 141.543 L 191.098 144.510 191.840 144.510 L 192.582 144.510 192.582 147.626 L 192.582 150.742 193.323 150.742 C 194.016 150.742,194.065 150.841,194.065 152.226 C 194.065 153.610,194.115 153.709,194.807 153.709 C 195.500 153.709,195.549 153.808,195.549 155.193 C 195.549 156.578,195.598 156.677,196.291 156.677 C 196.983 156.677,197.033 156.775,197.033 158.160 C 197.033 159.545,197.082 159.644,197.774 159.644 C 198.368 159.644,198.516 159.792,198.516 160.386 C 198.516 160.979,198.665 161.128,199.258 161.128 C 199.852 161.128,200.000 161.276,200.000 161.869 C 200.000 162.463,200.148 162.611,200.742 162.611 C 201.434 162.611,201.484 162.710,201.484 164.095 C 201.484 165.480,201.533 165.579,202.226 165.579 C 202.819 165.579,202.967 165.727,202.967 166.320 C 202.967 166.914,203.116 167.062,203.709 167.062 C 204.303 167.062,204.451 167.211,204.451 167.804 C 204.451 168.398,204.599 168.546,205.193 168.546 C 205.786 168.546,205.935 168.694,205.935 169.288 C 205.935 169.881,206.083 170.030,206.677 170.030 C 207.270 170.030,207.418 170.178,207.418 170.772 C 207.418 171.464,207.517 171.513,208.902 171.513 C 210.287 171.513,210.386 171.563,210.386 172.255 C 210.386 172.849,210.534 172.997,211.128 172.997 C 211.721 172.997,211.869 173.145,211.869 173.739 C 211.869 174.332,212.018 174.481,212.611 174.481 C 213.205 174.481,213.353 174.629,213.353 175.223 C 213.353 175.924,213.442 175.964,214.985 175.964 C 216.528 175.964,216.617 176.005,216.617 176.706 C 216.617 177.399,216.716 177.448,218.101 177.448 C 219.552 177.448,219.585 177.468,219.585 178.338 C 219.585 179.090,219.700 179.228,220.326 179.228 C 220.920 179.228,221.068 179.377,221.068 179.970 C 221.068 180.696,221.118 180.712,223.294 180.712 C 225.470 180.712,225.519 180.729,225.519 181.454 C 225.519 182.179,225.569 182.196,227.745 182.196 C 229.921 182.196,229.970 182.212,229.970 182.938 L 229.970 183.680 233.680 183.680 L 237.389 183.680 237.389 184.421 L 237.389 185.163 246.439 185.163 L 255.490 185.163 255.490 185.905 L 255.490 186.647 265.870 186.647 L 276.250 186.647 276.436 187.389 L 276.622 188.131 281.783 188.131 L 286.944 188.131 286.944 188.872 L 286.944 189.614 290.653 189.614 L 294.362 189.614 294.362 190.356 C 294.362 191.081,294.411 191.098,296.588 191.098 C 298.764 191.098,298.813 191.114,298.813 191.840 C 298.813 192.565,298.863 192.582,301.039 192.582 C 303.215 192.582,303.264 192.598,303.264 193.323 C 303.264 194.053,303.304 194.065,305.638 194.065 C 307.972 194.065,308.012 194.078,308.012 194.807 C 308.012 195.532,308.061 195.549,310.237 195.549 C 312.413 195.549,312.463 195.565,312.463 196.291 C 312.463 196.983,312.562 197.033,313.947 197.033 C 315.331 197.033,315.430 197.082,315.430 197.774 C 315.430 198.467,315.529 198.516,316.914 198.516 C 318.299 198.516,318.398 198.566,318.398 199.258 C 318.398 199.951,318.497 200.000,319.881 200.000 C 321.266 200.000,321.365 200.049,321.365 200.742 C 321.365 201.335,321.513 201.484,322.107 201.484 C 322.700 201.484,322.849 201.632,322.849 202.226 C 322.849 202.819,322.997 202.967,323.591 202.967 C 324.184 202.967,324.332 203.116,324.332 203.709 C 324.332 204.402,324.431 204.451,325.816 204.451 C 327.201 204.451,327.300 204.500,327.300 205.193 C 327.300 205.786,327.448 205.935,328.042 205.935 C 328.635 205.935,328.783 206.083,328.783 206.677 C 328.783 207.265,328.933 207.418,329.506 207.418 C 330.073 207.418,330.248 207.593,330.322 208.234 C 330.388 208.811,330.606 209.078,331.065 209.143 C 331.469 209.200,331.749 209.480,331.807 209.885 C 331.864 210.289,332.144 210.569,332.549 210.627 C 332.953 210.684,333.233 210.964,333.290 211.368 C 333.348 211.773,333.628 212.053,334.032 212.110 C 334.437 212.168,334.716 212.448,334.774 212.852 C 334.832 213.257,335.111 213.536,335.516 213.594 C 335.920 213.651,336.200 213.931,336.258 214.336 C 336.316 214.747,336.595 215.020,337.018 215.080 C 337.519 215.151,337.686 215.373,337.690 215.970 C 337.697 217.476,338.011 218.101,338.759 218.101 C 339.315 218.101,339.466 218.259,339.466 218.843 C 339.466 219.436,339.614 219.585,340.208 219.585 C 340.900 219.585,340.950 219.683,340.950 221.068 C 340.950 222.453,340.999 222.552,341.691 222.552 C 342.285 222.552,342.433 222.700,342.433 223.294 C 342.433 223.887,342.582 224.036,343.175 224.036 C 343.867 224.036,343.917 224.135,343.917 225.519 C 343.917 226.904,343.966 227.003,344.659 227.003 C 345.252 227.003,345.401 227.151,345.401 227.745 C 345.401 228.338,345.549 228.487,346.142 228.487 C 346.835 228.487,346.884 228.586,346.884 229.970 C 346.884 231.355,346.934 231.454,347.626 231.454 C 348.318 231.454,348.368 231.553,348.368 232.938 C 348.368 234.314,348.421 234.421,349.094 234.421 C 349.761 234.421,349.828 234.549,349.910 235.979 C 349.988 237.336,350.086 237.549,350.668 237.632 C 351.257 237.716,351.335 237.898,351.335 239.190 C 351.335 240.553,351.386 240.653,352.077 240.653 C 352.770 240.653,352.819 240.752,352.819 242.136 C 352.819 243.521,352.868 243.620,353.561 243.620 C 354.286 243.620,354.303 243.670,354.303 245.846 C 354.303 248.022,354.319 248.071,355.045 248.071 C 355.770 248.071,355.786 248.121,355.786 250.297 C 355.786 252.473,355.803 252.522,356.528 252.522 C 357.254 252.522,357.270 252.572,357.270 254.748 C 357.270 256.924,357.287 256.973,358.012 256.973 C 358.737 256.973,358.754 257.023,358.754 259.199 C 358.754 261.366,358.773 261.424,359.485 261.424 C 360.210 261.424,360.217 261.454,360.301 264.466 C 360.382 267.365,360.417 267.512,361.053 267.602 C 361.705 267.695,361.721 267.786,361.721 271.386 L 361.721 275.074 362.463 275.074 L 363.205 275.074 363.205 281.009 L 363.205 286.944 364.688 286.944 L 366.172 286.944 366.172 273.442 L 366.172 259.941 365.430 259.941 L 364.688 259.941 364.688 256.231 L 364.688 252.522 363.947 252.522 L 363.205 252.522 363.205 249.555 L 363.205 246.588 362.463 246.588 L 361.721 246.588 361.721 243.620 L 361.721 240.653 360.979 240.653 C 360.287 240.653,360.237 240.554,360.237 239.169 C 360.237 237.784,360.188 237.685,359.496 237.685 C 358.766 237.685,358.754 237.646,358.754 235.312 C 358.754 232.977,358.741 232.938,358.012 232.938 C 357.287 232.938,357.270 232.888,357.270 230.712 C 357.270 228.536,357.254 228.487,356.528 228.487 C 355.836 228.487,355.786 228.388,355.786 227.003 C 355.786 225.618,355.737 225.519,355.045 225.519 C 354.352 225.519,354.303 225.420,354.303 224.036 C 354.303 222.651,354.253 222.552,353.561 222.552 C 352.868 222.552,352.819 222.453,352.819 221.068 C 352.819 219.683,352.770 219.585,352.077 219.585 C 351.484 219.585,351.335 219.436,351.335 218.843 C 351.335 218.249,351.187 218.101,350.593 218.101 C 349.901 218.101,349.852 218.002,349.852 216.617 C 349.852 215.232,349.802 215.134,349.110 215.134 C 348.516 215.134,348.368 214.985,348.368 214.392 C 348.368 213.798,348.220 213.650,347.626 213.650 C 346.934 213.650,346.884 213.551,346.884 212.166 C 346.884 210.781,346.835 210.682,346.142 210.682 C 345.549 210.682,345.401 210.534,345.401 209.941 C 345.401 209.347,345.252 209.199,344.659 209.199 C 344.065 209.199,343.917 209.050,343.917 208.457 C 343.917 207.868,343.768 207.715,343.191 207.715 C 342.524 207.715,342.457 207.588,342.375 206.157 C 342.297 204.814,342.195 204.587,341.635 204.507 C 341.231 204.449,340.951 204.170,340.894 203.765 C 340.836 203.361,340.556 203.081,340.152 203.023 C 339.747 202.966,339.468 202.686,339.410 202.281 C 339.345 201.823,339.078 201.604,338.501 201.538 C 337.861 201.464,337.685 201.289,337.685 200.722 C 337.685 200.150,337.532 200.000,336.944 200.000 C 336.350 200.000,336.202 199.852,336.202 199.258 C 336.202 198.665,336.053 198.516,335.460 198.516 C 334.866 198.516,334.718 198.368,334.718 197.774 C 334.718 197.082,334.619 197.033,333.234 197.033 C 331.850 197.033,331.751 196.983,331.751 196.291 C 331.751 195.697,331.602 195.549,331.009 195.549 C 330.415 195.549,330.267 195.401,330.267 194.807 C 330.267 194.214,330.119 194.065,329.525 194.065 C 328.932 194.065,328.783 193.917,328.783 193.323 C 328.783 192.631,328.882 192.582,330.267 192.582 C 331.652 192.582,331.751 192.631,331.751 193.323 C 331.751 194.016,331.850 194.065,333.234 194.065 C 334.619 194.065,334.718 194.115,334.718 194.807 C 334.718 195.497,334.819 195.549,336.170 195.549 C 337.470 195.549,337.640 195.626,337.807 196.291 C 337.985 196.999,338.093 197.033,340.213 197.033 C 342.383 197.033,342.433 197.049,342.433 197.774 C 342.433 198.368,342.582 198.516,343.175 198.516 C 343.769 198.516,343.917 198.665,343.917 199.258 C 343.917 199.951,344.016 200.000,345.401 200.000 C 346.785 200.000,346.884 200.049,346.884 200.742 C 346.884 201.434,346.983 201.484,348.368 201.484 C 349.753 201.484,349.852 201.533,349.852 202.226 C 349.852 202.819,350.000 202.967,350.593 202.967 C 351.187 202.967,351.335 203.116,351.335 203.709 C 351.335 204.303,351.484 204.451,352.077 204.451 C 352.671 204.451,352.819 204.599,352.819 205.193 C 352.819 205.885,352.918 205.935,354.303 205.935 C 355.687 205.935,355.786 205.984,355.786 206.677 C 355.786 207.265,355.936 207.418,356.508 207.418 C 357.076 207.418,357.251 207.593,357.325 208.234 C 357.391 208.811,357.609 209.078,358.068 209.143 C 358.472 209.200,358.752 209.480,358.810 209.885 C 358.867 210.289,359.147 210.569,359.551 210.627 C 359.956 210.684,360.236 210.964,360.293 211.368 C 360.351 211.773,360.631 212.053,361.035 212.110 C 361.440 212.168,361.719 212.448,361.777 212.852 C 361.835 213.263,362.115 213.536,362.537 213.596 C 363.020 213.665,363.205 213.890,363.205 214.412 C 363.205 214.978,363.360 215.134,363.926 215.134 C 364.448 215.134,364.673 215.318,364.742 215.801 C 364.802 216.224,365.075 216.503,365.486 216.561 C 365.891 216.619,366.170 216.899,366.228 217.303 C 366.286 217.708,366.565 217.987,366.970 218.045 C 367.374 218.103,367.654 218.382,367.712 218.787 C 367.777 219.246,368.044 219.464,368.620 219.530 C 369.387 219.618,369.436 219.711,369.436 221.088 C 369.436 222.452,369.487 222.552,370.178 222.552 C 370.772 222.552,370.920 222.700,370.920 223.294 C 370.920 223.887,371.068 224.036,371.662 224.036 C 372.354 224.036,372.404 224.135,372.404 225.519 C 372.404 226.904,372.453 227.003,373.145 227.003 C 373.838 227.003,373.887 227.102,373.887 228.487 C 373.887 229.871,373.937 229.970,374.629 229.970 C 375.321 229.970,375.371 230.069,375.371 231.454 C 375.371 232.839,375.420 232.938,376.113 232.938 C 376.805 232.938,376.855 233.037,376.855 234.421 C 376.855 235.806,376.904 235.905,377.596 235.905 C 378.326 235.905,378.338 235.945,378.338 238.279 C 378.338 240.613,378.351 240.653,379.080 240.653 L 379.822 240.653 379.822 243.620 L 379.822 246.588 381.306 246.588 L 382.789 246.588 382.789 239.763 L 382.789 232.938 382.047 232.938 L 381.306 232.938 381.306 229.970 L 381.306 227.003 380.564 227.003 C 379.871 227.003,379.822 226.904,379.822 225.519 C 379.822 224.135,379.773 224.036,379.080 224.036 C 378.355 224.036,378.338 223.986,378.338 221.810 C 378.338 219.634,378.322 219.585,377.596 219.585 C 377.003 219.585,376.855 219.436,376.855 218.843 C 376.855 218.249,376.706 218.101,376.113 218.101 C 375.420 218.101,375.371 218.002,375.371 216.617 C 375.371 215.232,375.321 215.134,374.629 215.134 C 373.937 215.134,373.887 215.035,373.887 213.650 C 373.887 212.265,373.838 212.166,373.145 212.166 C 372.552 212.166,372.404 212.018,372.404 211.424 C 372.404 210.831,372.255 210.682,371.662 210.682 C 371.068 210.682,370.920 210.534,370.920 209.941 C 370.920 209.347,370.772 209.199,370.178 209.199 C 369.585 209.199,369.436 209.050,369.436 208.457 C 369.436 207.831,369.298 207.715,368.546 207.715 C 367.755 207.715,367.656 207.616,367.656 206.825 C 367.656 206.073,367.540 205.935,366.914 205.935 C 366.222 205.935,366.172 205.836,366.172 204.451 L 366.172 202.967 364.688 202.967 C 363.304 202.967,363.205 202.918,363.205 202.226 C 363.205 201.632,363.056 201.484,362.463 201.484 C 361.869 201.484,361.721 201.335,361.721 200.742 C 361.721 200.148,361.573 200.000,360.979 200.000 C 360.386 200.000,360.237 199.852,360.237 199.258 C 360.237 198.665,360.089 198.516,359.496 198.516 C 358.902 198.516,358.754 198.368,358.754 197.774 C 358.754 197.181,358.605 197.033,358.012 197.033 C 357.418 197.033,357.270 196.884,357.270 196.291 C 357.270 195.598,357.171 195.549,355.786 195.549 C 354.402 195.549,354.303 195.500,354.303 194.807 C 354.303 194.214,354.154 194.065,353.561 194.065 C 352.967 194.065,352.819 193.917,352.819 193.323 C 352.819 192.631,352.720 192.582,351.335 192.582 C 349.951 192.582,349.852 192.532,349.852 191.840 C 349.852 191.147,349.753 191.098,348.368 191.098 C 346.983 191.098,346.884 191.048,346.884 190.356 C 346.884 189.664,346.785 189.614,345.401 189.614 C 344.016 189.614,343.917 189.565,343.917 188.872 C 343.917 188.180,343.818 188.131,342.433 188.131 C 341.048 188.131,340.950 188.081,340.950 187.389 C 340.950 186.687,340.861 186.647,339.318 186.647 C 337.774 186.647,337.685 186.606,337.685 185.905 C 337.685 185.180,337.636 185.163,335.460 185.163 C 333.284 185.163,333.234 185.147,333.234 184.421 C 333.234 183.729,333.136 183.680,331.751 183.680 C 330.366 183.680,330.267 183.630,330.267 182.938 L 330.267 182.196 327.300 182.196 L 324.332 182.196 324.332 181.454 C 324.332 180.729,324.283 180.712,322.107 180.712 C 319.931 180.712,319.881 180.696,319.881 179.970 L 319.881 179.228 316.914 179.228 C 313.985 179.228,313.947 179.219,313.947 178.521 C 313.947 177.569,313.397 177.457,308.680 177.452 L 304.748 177.448 304.748 176.706 L 304.748 175.964 300.297 175.964 L 295.846 175.964 295.846 175.223 L 295.846 174.481 289.190 174.481 L 282.534 174.481 282.439 173.813 L 282.344 173.145 266.712 173.069 L 251.079 172.992 250.985 172.327 C 250.893 171.683,250.771 171.659,247.107 171.579 L 243.323 171.496 243.323 170.763 C 243.323 170.032,243.314 170.030,240.356 170.030 L 237.389 170.030 237.389 169.288 C 237.389 168.562,237.339 168.546,235.163 168.546 C 232.987 168.546,232.938 168.530,232.938 167.804 C 232.938 167.112,232.839 167.062,231.454 167.062 C 230.069 167.062,229.970 167.013,229.970 166.320 C 229.970 165.628,229.871 165.579,228.487 165.579 C 227.102 165.579,227.003 165.529,227.003 164.837 C 227.003 164.243,226.855 164.095,226.261 164.095 C 225.668 164.095,225.519 163.947,225.519 163.353 C 225.519 162.661,225.420 162.611,224.036 162.611 C 222.651 162.611,222.552 162.562,222.552 161.869 C 222.552 161.276,222.404 161.128,221.810 161.128 C 221.217 161.128,221.068 160.979,221.068 160.386 C 221.068 159.792,220.920 159.644,220.326 159.644 C 219.733 159.644,219.585 159.496,219.585 158.902 C 219.585 158.309,219.436 158.160,218.843 158.160 C 218.249 158.160,218.101 158.012,218.101 157.418 C 218.101 156.825,217.953 156.677,217.359 156.677 C 216.766 156.677,216.617 156.528,216.617 155.935 C 216.617 155.308,216.479 155.193,215.727 155.193 C 214.975 155.193,214.837 155.077,214.837 154.451 C 214.837 153.858,214.688 153.709,214.095 153.709 C 213.501 153.709,213.353 153.561,213.353 152.967 C 213.353 152.374,213.205 152.226,212.611 152.226 C 211.919 152.226,211.869 152.127,211.869 150.742 C 211.869 149.357,211.820 149.258,211.128 149.258 C 210.536 149.258,210.386 149.109,210.386 148.522 C 210.386 147.984,210.186 147.736,209.644 147.600 C 208.936 147.422,208.902 147.312,208.902 145.220 C 208.902 143.078,208.885 143.027,208.160 143.027 C 207.468 143.027,207.418 142.928,207.418 141.543 C 207.418 140.158,207.369 140.059,206.677 140.059 L 205.935 140.059 205.935 137.092 L 205.935 134.125 205.193 134.125 L 204.451 134.125 204.451 128.190 L 204.451 122.255 205.193 122.255 L 205.935 122.255 205.935 119.139 L 205.935 116.024 206.677 116.024 C 207.402 116.024,207.418 115.974,207.418 113.798 C 207.418 111.622,207.435 111.573,208.160 111.573 C 208.853 111.573,208.902 111.474,208.902 110.089 C 208.902 108.704,208.952 108.605,209.644 108.605 C 210.237 108.605,210.386 108.457,210.386 107.864 C 210.386 107.270,210.534 107.122,211.128 107.122 C 211.820 107.122,211.869 107.023,211.869 105.638 C 211.869 104.253,211.919 104.154,212.611 104.154 C 213.205 104.154,213.353 104.006,213.353 103.412 C 213.353 102.819,213.501 102.671,214.095 102.671 C 214.688 102.671,214.837 102.522,214.837 101.929 C 214.837 101.302,214.975 101.187,215.727 101.187 C 216.479 101.187,216.617 101.072,216.617 100.445 C 216.617 99.852,216.766 99.703,217.359 99.703 C 217.953 99.703,218.101 99.555,218.101 98.961 C 218.101 98.269,218.200 98.220,219.585 98.220 C 220.969 98.220,221.068 98.170,221.068 97.478 C 221.068 96.884,221.217 96.736,221.810 96.736 C 222.404 96.736,222.552 96.588,222.552 95.994 C 222.552 95.302,222.651 95.252,224.036 95.252 C 225.420 95.252,225.519 95.203,225.519 94.510 C 225.519 93.785,225.569 93.769,227.745 93.769 C 229.921 93.769,229.970 93.752,229.970 93.027 L 229.970 92.285 232.938 92.285 L 235.905 92.285 235.905 91.543 L 235.905 90.801 245.697 90.801 L 255.490 90.801 255.490 91.543 L 255.490 92.285 259.199 92.285 L 262.908 92.285 262.908 93.027 C 262.908 93.752,262.957 93.769,265.134 93.769 C 267.310 93.769,267.359 93.785,267.359 94.510 C 267.359 95.252,267.360 95.252,270.306 95.252 C 273.136 95.252,273.256 95.279,273.347 95.920 C 273.435 96.538,273.614 96.594,275.742 96.674 C 277.963 96.758,278.042 96.786,278.042 97.490 C 278.042 98.168,278.147 98.220,279.525 98.220 C 280.910 98.220,281.009 98.269,281.009 98.961 C 281.009 99.687,281.058 99.703,283.234 99.703 C 285.410 99.703,285.460 99.720,285.460 100.445 C 285.460 101.137,285.559 101.187,286.944 101.187 C 288.328 101.187,288.427 101.236,288.427 101.929 C 288.427 102.654,288.477 102.671,290.653 102.671 C 292.829 102.671,292.878 102.687,292.878 103.412 C 292.878 104.105,292.977 104.154,294.362 104.154 C 295.747 104.154,295.846 104.204,295.846 104.896 C 295.846 105.589,295.945 105.638,297.329 105.638 C 298.714 105.638,298.813 105.687,298.813 106.380 C 298.813 107.072,298.912 107.122,300.297 107.122 C 301.682 107.122,301.780 107.171,301.780 107.864 C 301.780 108.588,301.831 108.605,303.985 108.605 C 306.046 108.605,306.196 108.649,306.285 109.273 C 306.368 109.855,306.581 109.952,307.938 110.030 C 309.368 110.113,309.496 110.179,309.496 110.846 C 309.496 111.520,309.603 111.573,310.979 111.573 L 312.463 111.573 312.463 114.540 L 312.463 117.507 313.205 117.507 C 313.906 117.507,313.947 117.596,313.947 119.139 C 313.947 120.682,313.987 120.772,314.688 120.772 C 315.282 120.772,315.430 120.920,315.430 121.513 C 315.430 122.107,315.579 122.255,316.172 122.255 C 316.766 122.255,316.914 122.404,316.914 122.997 C 316.914 123.689,317.013 123.739,318.398 123.739 C 319.782 123.739,319.881 123.788,319.881 124.481 C 319.881 125.173,319.980 125.223,321.365 125.223 C 322.750 125.223,322.849 125.272,322.849 125.964 C 322.849 126.657,322.948 126.706,324.332 126.706 C 325.717 126.706,325.816 126.756,325.816 127.448 C 325.816 128.140,325.915 128.190,327.300 128.190 C 328.684 128.190,328.783 128.239,328.783 128.932 C 328.783 129.525,328.932 129.674,329.525 129.674 C 330.119 129.674,330.267 129.822,330.267 130.415 C 330.267 131.108,330.366 131.157,331.751 131.157 C 333.136 131.157,333.234 131.207,333.234 131.899 C 333.234 132.493,333.383 132.641,333.976 132.641 C 334.570 132.641,334.718 132.789,334.718 133.383 C 334.718 133.971,334.868 134.125,335.439 134.125 C 335.961 134.125,336.187 134.309,336.255 134.792 C 336.315 135.211,336.589 135.494,336.990 135.551 C 337.379 135.607,337.701 135.926,337.812 136.367 C 337.943 136.892,338.196 137.092,338.730 137.092 C 339.317 137.092,339.466 137.242,339.466 137.834 C 339.466 138.427,339.614 138.576,340.208 138.576 C 340.801 138.576,340.950 138.724,340.950 139.318 C 340.950 139.911,341.098 140.059,341.691 140.059 C 342.285 140.059,342.433 140.208,342.433 140.801 C 342.433 141.494,342.532 141.543,343.917 141.543 C 345.302 141.543,345.401 141.494,345.401 140.801 C 345.401 140.208,345.549 140.059,346.142 140.059 C 346.736 140.059,346.884 139.911,346.884 139.318 C 346.884 138.724,347.033 138.576,347.626 138.576 C 348.220 138.576,348.368 138.427,348.368 137.834 C 348.368 137.141,348.467 137.092,349.852 137.092 C 351.236 137.092,351.335 137.043,351.335 136.350 C 351.335 135.757,351.484 135.608,352.077 135.608 C 352.671 135.608,352.819 135.460,352.819 134.866 C 352.819 134.174,352.918 134.125,354.303 134.125 L 355.786 134.125 355.786 132.641 C 355.786 131.256,355.737 131.157,355.045 131.157 C 354.451 131.157,354.303 131.009,354.303 130.415 L 354.303 129.674 351.335 129.674 L 348.368 129.674 348.368 128.932 C 348.368 128.239,348.269 128.190,346.884 128.190 C 345.500 128.190,345.401 128.140,345.401 127.448 C 345.401 126.855,345.252 126.706,344.659 126.706 C 344.065 126.706,343.917 126.558,343.917 125.964 C 343.917 125.272,343.818 125.223,342.433 125.223 C 341.048 125.223,340.950 125.173,340.950 124.481 C 340.950 123.887,340.801 123.739,340.208 123.739 C 339.614 123.739,339.466 123.591,339.466 122.997 C 339.466 122.371,339.327 122.255,338.576 122.255 L 337.685 122.255 337.685 119.139 L 337.685 116.024 336.944 116.024 C 336.350 116.024,336.202 115.875,336.202 115.282 C 336.202 114.688,336.053 114.540,335.460 114.540 C 334.866 114.540,334.718 114.392,334.718 113.798 C 334.718 113.205,334.570 113.056,333.976 113.056 C 333.284 113.056,333.234 112.957,333.234 111.573 C 333.234 110.188,333.185 110.089,332.493 110.089 C 331.800 110.089,331.751 109.990,331.751 108.605 C 331.751 107.221,331.701 107.122,331.009 107.122 C 330.415 107.122,330.267 106.973,330.267 106.380 C 330.267 105.786,330.119 105.638,329.525 105.638 C 328.833 105.638,328.783 105.539,328.783 104.154 C 328.783 102.770,328.734 102.671,328.042 102.671 C 327.349 102.671,327.300 102.572,327.300 101.187 C 327.300 99.802,327.250 99.703,326.558 99.703 C 325.964 99.703,325.816 99.555,325.816 98.961 C 325.816 98.368,325.668 98.220,325.074 98.220 C 324.481 98.220,324.332 98.071,324.332 97.478 C 324.332 96.884,324.184 96.736,323.591 96.736 C 322.997 96.736,322.849 96.588,322.849 95.994 C 322.849 95.401,322.700 95.252,322.107 95.252 C 321.513 95.252,321.365 95.104,321.365 94.510 C 321.365 93.917,321.217 93.769,320.623 93.769 C 320.030 93.769,319.881 93.620,319.881 93.027 C 319.881 92.433,319.733 92.285,319.139 92.285 C 318.546 92.285,318.398 92.136,318.398 91.543 C 318.398 90.851,318.299 90.801,316.914 90.801 C 315.529 90.801,315.430 90.752,315.430 90.059 C 315.430 89.466,315.282 89.318,314.688 89.318 C 314.096 89.318,313.947 89.169,313.947 88.581 C 313.947 88.048,313.747 87.795,313.222 87.663 C 312.780 87.552,312.461 87.231,312.406 86.842 C 312.349 86.446,312.066 86.166,311.665 86.109 C 311.261 86.052,310.981 85.772,310.923 85.368 C 310.845 84.821,310.611 84.704,309.440 84.628 C 308.267 84.553,308.035 84.437,307.956 83.887 C 307.891 83.425,307.625 83.207,307.047 83.141 C 306.407 83.067,306.231 82.892,306.231 82.325 C 306.231 81.752,306.078 81.602,305.490 81.602 C 304.896 81.602,304.748 81.454,304.748 80.861 C 304.748 80.168,304.649 80.119,303.264 80.119 C 301.879 80.119,301.780 80.069,301.780 79.377 C 301.780 78.783,301.632 78.635,301.039 78.635 C 300.445 78.635,300.297 78.487,300.297 77.893 C 300.297 77.201,300.198 77.151,298.813 77.151 C 297.428 77.151,297.329 77.102,297.329 76.409 C 297.329 75.816,297.181 75.668,296.588 75.668 C 295.994 75.668,295.846 75.519,295.846 74.926 C 295.846 74.233,295.747 74.184,294.362 74.184 C 292.977 74.184,292.878 74.135,292.878 73.442 C 292.878 72.750,292.779 72.700,291.395 72.700 C 290.010 72.700,289.911 72.651,289.911 71.958 C 289.911 71.266,289.812 71.217,288.427 71.217 C 287.043 71.217,286.944 71.167,286.944 70.475 C 286.944 69.782,286.845 69.733,285.460 69.733 C 284.075 69.733,283.976 69.683,283.976 68.991 C 283.976 68.299,283.877 68.249,282.493 68.249 C 281.108 68.249,281.009 68.200,281.009 67.507 C 281.009 66.815,280.910 66.766,279.525 66.766 C 278.140 66.766,278.042 66.716,278.042 66.024 C 278.042 65.322,277.953 65.282,276.409 65.282 C 274.866 65.282,274.777 65.241,274.777 64.540 C 274.777 63.815,274.728 63.798,272.552 63.798 C 270.376 63.798,270.326 63.782,270.326 63.056 C 270.326 62.364,270.227 62.315,268.843 62.315 C 267.458 62.315,267.359 62.265,267.359 61.573 C 267.359 60.847,267.310 60.831,265.134 60.831 C 262.957 60.831,262.908 60.814,262.908 60.089 C 262.908 59.364,262.859 59.347,260.682 59.347 L 258.457 59.347 258.457 60.831 C 258.457 62.216,258.506 62.315,259.199 62.315 C 259.792 62.315,259.941 62.463,259.941 63.056 C 259.941 63.749,260.040 63.798,261.424 63.798 C 262.809 63.798,262.908 63.848,262.908 64.540 C 262.908 65.232,263.007 65.282,264.392 65.282 C 265.776 65.282,265.875 65.331,265.875 66.024 C 265.875 66.749,265.925 66.766,268.101 66.766 C 270.277 66.766,270.326 66.782,270.326 67.507 C 270.326 68.198,270.427 68.249,271.789 68.249 C 273.081 68.249,273.264 68.328,273.347 68.917 C 273.428 69.487,273.649 69.598,274.850 69.675 C 276.061 69.753,276.283 69.867,276.440 70.491 C 276.602 71.137,276.782 71.217,278.074 71.217 C 279.424 71.217,279.525 71.268,279.525 71.958 C 279.525 72.552,279.674 72.700,280.267 72.700 C 280.861 72.700,281.009 72.849,281.009 73.442 C 281.009 74.135,281.108 74.184,282.493 74.184 C 283.877 74.184,283.976 74.233,283.976 74.926 C 283.976 75.618,284.075 75.668,285.460 75.668 C 286.845 75.668,286.944 75.717,286.944 76.409 C 286.944 77.102,287.043 77.151,288.427 77.151 C 289.812 77.151,289.911 77.201,289.911 77.893 C 289.911 78.487,290.059 78.635,290.653 78.635 C 291.246 78.635,291.395 78.783,291.395 79.377 C 291.395 80.069,291.494 80.119,292.878 80.119 C 294.263 80.119,294.362 80.168,294.362 80.861 C 294.362 81.454,294.510 81.602,295.104 81.602 C 295.697 81.602,295.846 81.751,295.846 82.344 C 295.846 82.938,295.994 83.086,296.588 83.086 C 297.181 83.086,297.329 83.234,297.329 83.828 C 297.329 84.520,297.230 84.570,295.846 84.570 L 294.362 84.570 294.362 86.944 L 294.362 89.318 292.898 89.318 C 291.522 89.318,291.428 89.269,291.340 88.501 C 291.274 87.925,291.056 87.658,290.597 87.593 C 290.192 87.535,289.913 87.256,289.855 86.851 C 289.797 86.440,289.517 86.167,289.095 86.107 C 288.612 86.038,288.427 85.813,288.427 85.291 C 288.427 84.719,288.273 84.570,287.685 84.570 C 287.092 84.570,286.944 84.421,286.944 83.828 C 286.944 83.234,286.795 83.086,286.202 83.086 C 285.476 83.086,285.460 83.037,285.460 80.861 L 285.460 78.635 283.234 78.635 L 281.009 78.635 281.010 80.935 L 281.010 83.234 278.636 83.138 C 276.347 83.044,276.261 83.015,276.261 82.322 C 276.261 81.624,276.193 81.602,274.036 81.602 C 271.860 81.602,271.810 81.586,271.810 80.861 L 271.810 80.119 268.843 80.119 L 265.875 80.119 265.875 79.377 L 265.875 78.635 262.166 78.635 L 258.457 78.635 258.457 77.893 L 258.457 77.151 253.285 77.151 C 248.147 77.151,248.112 77.147,248.018 76.484 L 247.923 75.816 240.430 75.737 L 232.938 75.657 232.938 74.921 C 232.938 74.234,232.836 74.184,231.454 74.184 C 230.069 74.184,229.970 74.135,229.970 73.442 C 229.970 72.750,229.871 72.700,228.487 72.700 C 227.102 72.700,227.003 72.651,227.003 71.958 C 227.003 71.365,226.855 71.217,226.261 71.217 C 225.668 71.217,225.519 71.068,225.519 70.475 C 225.519 69.881,225.371 69.733,224.777 69.733 C 224.184 69.733,224.036 69.585,224.036 68.991 C 224.036 68.398,223.887 68.249,223.294 68.249 C 222.601 68.249,222.552 68.150,222.552 66.766 C 222.552 65.381,222.502 65.282,221.810 65.282 C 221.118 65.282,221.068 65.183,221.068 63.798 C 221.068 62.413,221.019 62.315,220.326 62.315 C 219.634 62.315,219.585 62.216,219.585 60.831 C 219.585 59.455,219.532 59.347,218.858 59.347 C 218.191 59.347,218.125 59.220,218.042 57.789 C 217.965 56.440,217.865 56.219,217.295 56.138 C 216.676 56.050,216.633 55.881,216.554 53.171 L 216.469 50.297 215.653 50.203 L 214.837 50.109 214.837 45.678 L 214.837 41.246 214.095 41.246 L 213.353 41.246 213.353 38.279 L 213.353 35.312 214.095 35.312 C 214.787 35.312,214.837 35.213,214.837 33.828 L 214.837 32.344 212.611 32.344 C 210.435 32.344,210.386 32.328,210.386 31.602 C 210.386 30.910,210.287 30.861,208.902 30.861 C 207.535 30.861,207.418 30.805,207.418 30.150 C 207.418 29.350,206.932 29.080,205.486 29.080 C 204.681 29.080,204.474 28.953,204.397 28.412 C 204.310 27.800,204.125 27.738,202.151 27.658 C 200.088 27.574,200.000 27.541,200.000 26.842 C 200.000 26.132,199.940 26.113,197.774 26.113 C 195.598 26.113,195.549 26.096,195.549 25.371 C 195.549 24.646,195.498 24.629,193.344 24.629 C 191.283 24.629,191.133 24.585,191.044 23.961 C 190.957 23.349,190.772 23.287,188.817 23.207 C 186.875 23.128,186.677 23.062,186.592 22.465 C 186.503 21.845,186.338 21.806,183.457 21.726 C 180.445 21.642,180.415 21.634,180.415 20.910 C 180.415 20.181,180.404 20.178,177.448 20.178 L 174.481 20.178 174.481 19.436 L 174.481 18.694 171.513 18.694 L 168.546 18.694 168.546 17.953 L 168.546 17.211 165.579 17.211 L 162.611 17.211 162.611 16.469 L 162.611 15.727 158.012 15.727 L 153.412 15.727 153.412 14.985 L 153.412 14.243 149.703 14.243 L 145.994 14.243 145.994 13.501 L 145.994 12.760 140.801 12.760 L 135.608 12.760 135.608 12.018 L 135.608 11.276 129.674 11.276 L 123.739 11.276 123.739 10.534 L 123.739 9.792 114.688 9.792 L 105.638 9.792 105.638 9.050 L 105.638 8.309 71.217 8.309 L 36.795 8.309 36.795 9.050 M204.451 40.504 C 204.451 41.098,204.303 41.246,203.709 41.246 C 203.116 41.246,202.967 41.098,202.967 40.504 C 202.967 39.911,203.116 39.763,203.709 39.763 C 204.303 39.763,204.451 39.911,204.451 40.504 M300.297 85.312 C 300.297 85.905,300.445 86.053,301.039 86.053 C 301.632 86.053,301.780 86.202,301.780 86.795 C 301.780 87.383,301.930 87.537,302.503 87.537 C 303.070 87.537,303.245 87.712,303.319 88.353 C 303.404 89.097,303.534 89.177,304.791 89.258 C 306.431 89.364,306.458 89.427,306.290 92.804 C 306.173 95.155,306.140 95.252,305.458 95.252 C 304.898 95.252,304.748 95.095,304.748 94.510 C 304.748 93.917,304.599 93.769,304.006 93.769 C 303.412 93.769,303.264 93.620,303.264 93.027 C 303.264 92.433,303.116 92.285,302.522 92.285 C 301.929 92.285,301.780 92.136,301.780 91.543 C 301.780 90.950,301.632 90.801,301.039 90.801 C 300.445 90.801,300.297 90.653,300.297 90.059 C 300.297 89.466,300.148 89.318,299.555 89.318 C 298.854 89.318,298.813 89.228,298.813 87.685 C 298.813 86.142,298.773 86.053,298.071 86.053 C 297.478 86.053,297.329 85.905,297.329 85.312 C 297.329 84.619,297.428 84.570,298.813 84.570 C 300.198 84.570,300.297 84.619,300.297 85.312 M327.300 191.840 C 327.300 192.433,327.151 192.582,326.558 192.582 C 325.964 192.582,325.816 192.433,325.816 191.840 C 325.816 191.246,325.964 191.098,326.558 191.098 C 327.151 191.098,327.300 191.246,327.300 191.840 " stroke="none" fill="#04bcfc" fill-rule="evenodd"></path><path id="path1" d="" stroke="none" fill="#08bcfc" fill-rule="evenodd"></path></g></svg>