<svg id="svg" version="1.1" xmlns="http://www.w3.org/2000/svg" xmlns:xlink="http://www.w3.org/1999/xlink" width="400" height="400" viewBox="0, 0, 400,400"><g id="svgg"><path id="path0" d="M50.623 94.089 C 49.774 95.300,49.671 258.726,50.518 260.400 L 51.024 261.400 98.006 261.400 L 144.989 261.400 145.532 260.268 C 145.830 259.645,146.235 257.845,146.431 256.268 C 146.626 254.691,147.057 251.780,147.388 249.800 C 147.718 247.820,148.368 243.590,148.831 240.400 C 149.295 237.210,149.826 233.790,150.013 232.800 C 150.269 231.441,150.209 230.780,149.767 230.100 L 149.182 229.200 116.005 229.200 C 83.613 229.200,82.818 229.182,82.414 228.426 C 82.133 227.902,82.000 206.131,82.000 160.840 C 82.000 95.194,81.986 94.021,81.226 93.614 C 80.733 93.350,75.151 93.200,65.849 93.200 L 51.245 93.200 50.623 94.089 M312.600 106.232 C 284.810 108.869,263.464 123.761,252.828 147.935 C 249.399 155.728,247.692 162.041,246.373 171.800 C 241.589 207.210,255.541 241.745,279.727 254.358 C 280.647 254.838,281.670 255.403,282.000 255.615 C 283.188 256.378,288.720 258.800,289.274 258.800 C 289.585 258.800,290.011 258.954,290.220 259.142 C 290.429 259.330,292.130 259.943,294.000 260.503 C 299.756 262.229,300.306 262.341,309.200 263.605 C 312.534 264.078,326.606 264.084,330.000 263.613 C 331.430 263.415,334.099 263.053,335.932 262.810 C 344.136 261.720,348.534 260.047,349.841 257.521 C 350.712 255.836,350.656 231.343,349.777 230.089 C 349.067 229.074,347.682 228.942,346.080 229.734 C 339.807 232.838,317.494 233.781,309.800 231.267 C 309.140 231.051,307.610 230.576,306.400 230.211 C 288.397 224.776,277.627 207.704,277.627 184.600 C 277.627 163.586,285.983 147.882,301.164 140.365 C 312.718 134.644,333.504 134.660,346.287 140.399 C 349.423 141.807,350.203 141.770,350.806 140.184 C 351.356 138.737,351.326 112.882,350.772 111.293 C 349.366 107.257,329.524 104.627,312.600 106.232 M226.600 131.798 C 217.460 133.245,208.152 138.571,200.556 146.700 C 197.813 149.636,197.209 149.668,197.182 146.876 C 197.134 141.752,195.249 135.448,193.405 134.240 C 192.412 133.589,168.776 133.242,166.528 133.845 C 165.274 134.181,165.187 134.717,165.675 139.084 C 165.960 141.633,166.198 163.502,166.356 201.732 C 166.595 259.263,166.616 260.476,167.376 261.032 C 168.598 261.925,197.274 261.868,198.171 260.971 C 198.735 260.408,198.800 256.051,198.800 219.003 L 198.800 177.664 201.085 175.628 C 206.864 170.477,217.546 166.946,228.600 166.532 C 232.120 166.400,235.225 166.115,235.500 165.897 C 236.336 165.236,236.213 132.671,235.371 131.829 C 234.608 131.065,231.302 131.054,226.600 131.798 " stroke="none" fill="#33abfb" fill-rule="evenodd"></path><path id="path1" d="M69.414 2.698 C 68.101 2.779,66.841 2.998,66.614 3.184 C 66.386 3.370,65.163 3.651,63.895 3.808 C 62.627 3.965,61.496 4.244,61.383 4.428 C 61.269 4.612,60.104 4.884,58.795 5.032 C 57.485 5.181,56.208 5.549,55.958 5.851 C 55.707 6.153,55.186 6.400,54.800 6.400 C 54.414 6.400,53.874 6.670,53.600 7.000 C 53.326 7.330,52.518 7.600,51.805 7.600 C 51.092 7.600,50.050 7.960,49.491 8.400 C 48.931 8.840,48.209 9.200,47.886 9.200 C 47.563 9.200,47.074 9.470,46.800 9.800 C 46.526 10.130,45.986 10.400,45.600 10.400 C 45.214 10.400,44.692 10.648,44.440 10.952 C 44.188 11.255,43.491 11.610,42.891 11.739 C 42.291 11.869,40.956 12.776,39.925 13.754 C 38.894 14.732,37.767 15.592,37.422 15.666 C 36.066 15.956,25.419 25.479,25.010 26.768 C 24.899 27.120,24.404 27.586,23.911 27.804 C 23.418 28.022,22.829 28.560,22.603 29.000 C 22.377 29.440,21.609 30.592,20.896 31.560 C 20.183 32.528,19.600 33.462,19.600 33.635 C 19.600 33.809,19.060 34.542,18.400 35.264 C 17.740 35.987,17.200 36.874,17.200 37.235 C 17.200 37.597,16.840 38.350,16.400 38.909 C 15.960 39.469,15.600 40.202,15.600 40.539 C 15.600 40.877,15.436 41.254,15.235 41.379 C 15.034 41.503,14.485 42.458,14.016 43.502 C 13.546 44.546,12.811 46.066,12.381 46.879 C 11.951 47.693,11.594 48.773,11.587 49.279 C 11.580 49.786,11.310 50.549,10.987 50.976 C 10.664 51.404,10.400 52.218,10.400 52.787 C 10.400 53.356,10.122 54.219,9.782 54.704 C 9.442 55.190,9.057 56.535,8.927 57.693 C 8.797 58.852,8.510 60.029,8.289 60.309 C 8.068 60.588,7.811 62.568,7.716 64.709 C 7.622 66.849,7.374 68.960,7.166 69.400 C 5.952 71.959,7.127 319.687,8.359 320.919 C 8.602 321.162,8.800 322.092,8.800 322.986 C 8.800 323.880,9.160 325.284,9.600 326.104 C 10.040 326.925,10.400 328.116,10.400 328.750 C 10.400 329.383,10.670 330.126,11.000 330.400 C 11.330 330.674,11.600 331.482,11.600 332.195 C 11.600 332.908,11.960 333.950,12.400 334.509 C 12.840 335.069,13.200 335.791,13.200 336.114 C 13.200 336.437,13.470 336.926,13.800 337.200 C 14.130 337.474,14.400 338.014,14.400 338.400 C 14.400 338.786,14.670 339.326,15.000 339.600 C 15.330 339.874,15.600 340.410,15.600 340.791 C 15.600 341.173,16.185 342.281,16.900 343.254 C 18.531 345.473,19.045 346.294,19.747 347.800 C 20.055 348.460,21.048 349.712,21.953 350.581 C 22.859 351.451,23.600 352.309,23.600 352.488 C 23.600 353.161,35.462 364.400,36.173 364.400 C 36.324 364.400,37.273 365.030,38.282 365.800 C 39.290 366.570,40.340 367.200,40.615 367.200 C 40.890 367.200,41.207 367.443,41.321 367.739 C 41.696 368.716,54.397 374.723,56.700 375.012 C 57.854 375.156,58.887 375.417,58.995 375.591 C 59.102 375.765,60.047 376.032,61.095 376.183 C 62.143 376.335,63.771 376.715,64.714 377.029 C 65.657 377.343,67.570 377.600,68.965 377.600 C 70.732 377.600,71.653 377.782,72.000 378.200 C 72.748 379.102,325.384 379.089,326.576 378.187 C 327.028 377.846,328.283 377.588,329.576 377.571 C 332.864 377.528,338.764 376.442,339.693 375.710 C 339.972 375.490,341.100 375.204,342.200 375.075 C 343.300 374.947,344.913 374.472,345.785 374.021 C 346.656 373.569,347.645 373.200,347.982 373.200 C 349.019 373.200,357.423 368.840,358.409 367.790 C 358.921 367.246,359.637 366.800,360.000 366.800 C 360.363 366.800,361.076 366.358,361.584 365.817 C 362.091 365.277,363.248 364.344,364.153 363.744 C 366.007 362.517,377.600 351.215,377.600 350.636 C 377.600 350.430,378.500 349.227,379.600 347.963 C 380.700 346.698,381.600 345.401,381.600 345.081 C 381.600 344.760,381.870 344.274,382.200 344.000 C 382.530 343.726,382.800 343.188,382.800 342.805 C 382.800 342.422,383.160 341.650,383.600 341.091 C 384.040 340.531,384.400 339.798,384.400 339.461 C 384.400 339.123,384.557 338.750,384.748 338.632 C 384.939 338.514,385.591 337.378,386.195 336.109 C 386.799 334.839,387.543 333.322,387.847 332.738 C 388.151 332.154,388.406 331.254,388.413 330.738 C 388.420 330.222,388.690 329.451,389.013 329.024 C 389.336 328.596,389.600 327.782,389.600 327.213 C 389.600 326.644,389.844 325.823,390.142 325.389 C 390.441 324.955,390.812 323.614,390.968 322.410 C 391.124 321.205,391.465 319.963,391.726 319.649 C 392.415 318.818,392.415 62.382,391.726 61.551 C 391.465 61.237,391.127 59.995,390.974 58.790 C 390.821 57.586,390.473 56.330,390.200 56.000 C 389.927 55.670,389.586 54.473,389.443 53.339 C 389.300 52.206,388.649 50.226,387.997 48.939 C 387.344 47.653,386.808 46.127,386.805 45.549 C 386.802 44.971,386.530 44.274,386.200 44.000 C 385.870 43.726,385.600 43.175,385.600 42.775 C 385.600 42.375,385.443 41.950,385.252 41.832 C 385.061 41.714,384.401 40.623,383.787 39.409 C 383.172 38.194,382.535 37.200,382.370 37.200 C 382.206 37.200,381.672 36.375,381.184 35.368 C 380.697 34.360,380.051 33.441,379.749 33.325 C 379.447 33.209,379.200 32.878,379.200 32.589 C 379.200 32.300,378.210 30.904,377.000 29.487 C 375.790 28.069,374.800 26.717,374.800 26.481 C 374.800 26.246,374.087 25.546,373.215 24.926 C 372.343 24.307,369.648 21.955,367.227 19.700 C 364.805 17.445,362.582 15.600,362.287 15.600 C 361.991 15.600,361.232 15.060,360.600 14.400 C 359.968 13.740,359.130 13.200,358.739 13.200 C 358.348 13.200,357.413 12.660,356.661 12.000 C 355.909 11.340,355.031 10.800,354.709 10.800 C 354.387 10.800,353.798 10.440,353.400 10.000 C 353.002 9.560,352.366 9.200,351.987 9.200 C 351.608 9.200,351.090 8.950,350.836 8.643 C 350.582 8.337,349.585 7.969,348.620 7.824 C 347.655 7.679,346.649 7.300,346.384 6.980 C 346.119 6.661,345.328 6.400,344.627 6.400 C 343.926 6.400,343.004 6.136,342.576 5.813 C 342.149 5.490,341.274 5.220,340.631 5.213 C 339.989 5.206,339.179 4.945,338.831 4.633 C 338.247 4.109,336.307 3.749,329.000 2.809 C 326.386 2.473,74.817 2.366,69.414 2.698 M81.226 93.614 C 81.986 94.021,82.000 95.194,82.000 160.840 C 82.000 206.131,82.133 227.902,82.414 228.426 C 82.818 229.182,83.613 229.200,116.005 229.200 L 149.182 229.200 149.767 230.100 C 150.209 230.780,150.269 231.441,150.013 232.800 C 149.826 233.790,149.295 237.210,148.831 240.400 C 148.368 243.590,147.718 247.820,147.388 249.800 C 147.057 251.780,146.626 254.691,146.431 256.268 C 146.235 257.845,145.830 259.645,145.532 260.268 L 144.989 261.400 98.006 261.400 L 51.024 261.400 50.518 260.400 C 49.671 258.726,49.774 95.300,50.623 94.089 L 51.245 93.200 65.849 93.200 C 75.151 93.200,80.733 93.350,81.226 93.614 M332.476 106.205 C 343.606 107.126,349.933 108.885,350.772 111.293 C 351.326 112.882,351.356 138.737,350.806 140.184 C 350.203 141.770,349.423 141.807,346.287 140.399 C 333.504 134.660,312.718 134.644,301.164 140.365 C 285.983 147.882,277.627 163.586,277.627 184.600 C 277.627 207.704,288.397 224.776,306.400 230.211 C 307.610 230.576,309.140 231.051,309.800 231.267 C 317.494 233.781,339.807 232.838,346.080 229.734 C 347.682 228.942,349.067 229.074,349.777 230.089 C 350.656 231.343,350.712 255.836,349.841 257.521 C 348.534 260.047,344.136 261.720,335.932 262.810 C 334.099 263.053,331.430 263.415,330.000 263.613 C 326.606 264.084,312.534 264.078,309.200 263.605 C 300.306 262.341,299.756 262.229,294.000 260.503 C 292.130 259.943,290.429 259.330,290.220 259.142 C 290.011 258.954,289.585 258.800,289.274 258.800 C 288.720 258.800,283.188 256.378,282.000 255.615 C 281.670 255.403,280.647 254.838,279.727 254.358 C 258.679 243.381,245.600 217.020,245.613 185.600 C 245.620 170.713,247.789 159.390,252.828 147.935 C 266.010 117.975,294.470 103.064,332.476 106.205 M235.371 131.829 C 236.213 132.671,236.336 165.236,235.500 165.897 C 235.225 166.115,232.120 166.400,228.600 166.532 C 217.546 166.946,206.864 170.477,201.085 175.628 L 198.800 177.664 198.800 219.003 C 198.800 256.051,198.735 260.408,198.171 260.971 C 197.274 261.868,168.598 261.925,167.376 261.032 C 166.616 260.476,166.595 259.263,166.356 201.732 C 166.198 163.502,165.960 141.633,165.675 139.084 C 165.187 134.717,165.274 134.181,166.528 133.845 C 168.776 133.242,192.412 133.589,193.405 134.240 C 195.249 135.448,197.134 141.752,197.182 146.876 C 197.209 149.668,197.813 149.636,200.556 146.700 C 206.385 140.462,213.937 135.432,220.958 133.112 C 226.126 131.404,234.226 130.683,235.371 131.829 " stroke="none" fill="#041c34" fill-rule="evenodd"></path></g></svg>