<?xml version="1.0" encoding="UTF-8"?>
<!DOCTYPE svg PUBLIC "-//W3C//DTD SVG 1.1//EN" "http://www.w3.org/Graphics/SVG/1.1/DTD/svg11.dtd">
<svg xmlns="http://www.w3.org/2000/svg" version="1.1" width="230px" height="230px" style="shape-rendering:geometricPrecision; text-rendering:geometricPrecision; image-rendering:optimizeQuality; fill-rule:evenodd; clip-rule:evenodd" xmlns:xlink="http://www.w3.org/1999/xlink">
<g><path style="opacity:0.984" fill="#8d2d2a" d="M 220.5,15.5 C 219.778,15.9175 219.278,16.5842 219,17.5C 215.724,16.4504 212.89,14.7837 210.5,12.5C 211.008,9.14847 212.342,6.14847 214.5,3.5C 217.251,5.29273 220.084,6.95939 223,8.5C 222.78,10.9631 221.946,13.2965 220.5,15.5 Z"/></g>
<g><path style="opacity:0.016" fill="#5d544c" d="M 120.5,26.5 C 121.833,27.1667 121.833,27.1667 120.5,26.5 Z"/></g>
<g><path style="opacity:0.016" fill="#5d544c" d="M 123.5,28.5 C 122.833,27.1667 122.833,27.1667 123.5,28.5 Z"/></g>
<g><path style="opacity:0.016" fill="#5d544c" d="M 123.5,28.5 C 124.167,28.5 124.5,28.8333 124.5,29.5C 124.167,29.1667 123.833,28.8333 123.5,28.5 Z"/></g>
<g><path style="opacity:0.016" fill="#5d544c" d="M 124.5,29.5 C 125.833,30.1667 125.833,30.1667 124.5,29.5 Z"/></g>
<g><path style="opacity:1" fill="#fcb208" d="M 203.5,29.5 C 204.401,30.2905 205.068,31.2905 205.5,32.5C 191.527,64.6153 176.86,96.4487 161.5,128C 162.056,128.383 162.389,128.883 162.5,129.5C 160.469,128.461 159.136,126.795 158.5,124.5C 159.5,121.833 160.5,119.167 161.5,116.5C 161.5,116.167 161.5,115.833 161.5,115.5C 162.674,114.486 163.34,113.153 163.5,111.5C 164.5,111.167 165.167,110.5 165.5,109.5C 170.134,101.454 174.3,93.1211 178,84.5C 180.471,78.915 182.638,73.2483 184.5,67.5C 191.211,55.0437 197.544,42.377 203.5,29.5 Z"/></g>
<g><path style="opacity:1" fill="#8b8b8a" d="M 210.5,12.5 C 212.89,14.7837 215.724,16.4504 219,17.5C 219.278,16.5842 219.778,15.9175 220.5,15.5C 218.35,21.7935 215.684,27.7935 212.5,33.5C 210.05,33.702 207.717,33.3686 205.5,32.5C 205.068,31.2905 204.401,30.2905 203.5,29.5C 203.5,28.8333 203.167,28.5 202.5,28.5C 204.126,22.5807 206.793,17.2474 210.5,12.5 Z"/></g>
<g><path style="opacity:1" fill="#f69506" d="M 205.5,32.5 C 207.717,33.3686 210.05,33.702 212.5,33.5C 212.008,35.8185 211.008,37.8185 209.5,39.5C 206.944,44.2694 204.11,48.9361 201,53.5C 198.952,58.7313 197.119,64.0647 195.5,69.5C 190.279,74.6075 187.113,80.9408 186,88.5C 181.223,94.3821 178.39,101.049 177.5,108.5C 175.107,114.953 172.44,121.286 169.5,127.5C 169.167,127.5 168.833,127.5 168.5,127.5C 166.858,129.081 164.858,129.747 162.5,129.5C 162.389,128.883 162.056,128.383 161.5,128C 176.86,96.4487 191.527,64.6153 205.5,32.5 Z"/></g>
<g><path style="opacity:0.016" fill="#5d544c" d="M 130.5,34.5 C 131.833,35.1667 131.833,35.1667 130.5,34.5 Z"/></g>
<g><path style="opacity:0.016" fill="#544d4a" d="M 137.5,42.5 C 135.251,41.9202 133.585,40.5869 132.5,38.5C 133.222,38.0825 133.722,37.4158 134,36.5C 136.579,38.1203 137.746,40.1203 137.5,42.5 Z"/></g>
<g><path style="opacity:1" fill="#929395" d="M 120.5,27.5 C 123.88,30.1635 127.214,32.8302 130.5,35.5C 130.833,36.1667 131.167,36.8333 131.5,37.5C 129.606,36.9524 127.94,35.9524 126.5,34.5C 125.167,35.8333 123.833,35.8333 122.5,34.5C 122.193,35.8875 122.193,37.5542 122.5,39.5C 124.806,39.0074 127.139,38.6741 129.5,38.5C 129.649,39.552 129.483,40.552 129,41.5C 127.896,41.9491 126.229,41.9491 124,41.5C 123.505,43.4727 123.338,45.4727 123.5,47.5C 125.512,46.9862 127.512,46.8195 129.5,47C 127.519,47.6054 127.185,48.6054 128.5,50C 127.049,49.7374 125.716,49.9041 124.5,50.5C 132.583,51.0583 140.583,52.0583 148.5,53.5C 149.463,53.0302 149.463,52.3635 148.5,51.5C 150.834,50.1592 152.501,50.8259 153.5,53.5C 152.167,53.8333 152.167,54.1667 153.5,54.5C 153.833,55.1667 154.167,55.8333 154.5,56.5C 153.06,55.6371 151.726,55.6371 150.5,56.5C 149.088,55.1936 147.421,54.3603 145.5,54C 137.819,53.6909 130.152,53.6909 122.5,54C 121.883,51.723 121.216,49.5563 120.5,47.5C 120.424,41.1991 119.091,35.1991 116.5,29.5C 115.452,27.0673 114.786,27.0673 114.5,29.5C 111.875,28.5423 111.875,27.3757 114.5,26C 112.045,24.4597 109.379,24.1264 106.5,25C 107.252,25.6708 107.586,26.5041 107.5,27.5C 105.167,26.5 104.5,27.1667 105.5,29.5C 104.883,29.6107 104.383,29.944 104,30.5C 103.349,28.765 103.515,27.0983 104.5,25.5C 102.235,24.3526 99.9018,24.1859 97.5,25C 98.2524,25.6708 98.5858,26.5041 98.5,27.5C 97.1054,26.1854 96.1054,26.5188 95.5,28.5C 94.3473,27.6868 94.3473,26.6868 95.5,25.5C 94.1667,25.1667 92.8333,24.8333 91.5,24.5C 89.6672,24.5854 88.3339,25.2521 87.5,26.5C 85.9689,27.9245 86.3023,28.5912 88.5,28.5C 88.1583,29.3382 87.4916,29.6716 86.5,29.5C 85.1991,28.1155 85.1991,26.6155 86.5,25C 83.6667,24.8333 80.8333,24.6667 78,24.5C 74.7485,24.5191 71.9151,25.1858 69.5,26.5C 68.1667,26.5 67.5,27.1667 67.5,28.5C 66.2089,27.4583 66.2089,26.2917 67.5,25C 66.3333,24.8333 65.1667,24.6667 64,24.5C 62.3189,24.6083 61.1522,25.2749 60.5,26.5C 59.1667,26.5 58.5,27.1667 58.5,28.5C 57.2089,27.4583 57.2089,26.2917 58.5,25C 55.5,24.3333 52.5,24.3333 49.5,25C 50.056,25.3826 50.3893,25.8826 50.5,26.5C 48.9731,26.427 47.9731,27.0937 47.5,28.5C 46.2089,27.4583 46.2089,26.2917 47.5,25C 44.854,24.5026 42.1873,24.3359 39.5,24.5C 30.8333,24.5 22.1667,24.5 13.5,24.5C 13.5,89.8333 13.5,155.167 13.5,220.5C 13.1667,220.5 12.8333,220.5 12.5,220.5C 12.5,154.833 12.5,89.1667 12.5,23.5C 46.5016,23.3333 80.5016,23.5 114.5,24C 116.692,24.926 118.692,26.0927 120.5,27.5 Z M 116.5,29.5 C 115.833,29.5 115.167,29.5 114.5,29.5C 114.786,27.0673 115.452,27.0673 116.5,29.5 Z M 107.5,27.5 C 107.167,28.5 106.5,29.1667 105.5,29.5C 104.5,27.1667 105.167,26.5 107.5,27.5 Z M 98.5,27.5 C 97.8946,29.4812 96.8946,29.8146 95.5,28.5C 96.1054,26.5188 97.1054,26.1854 98.5,27.5 Z M 87.5,26.5 C 88.3382,26.8417 88.6716,27.5084 88.5,28.5C 86.3023,28.5912 85.9689,27.9245 87.5,26.5 Z M 77.5,26.5 C 78.3764,26.3691 79.0431,26.7025 79.5,27.5C 77.1916,28.8734 76.5249,28.5401 77.5,26.5 Z M 69.5,26.5 C 69.5,27.8333 68.8333,28.5 67.5,28.5C 67.5,27.1667 68.1667,26.5 69.5,26.5 Z M 60.5,26.5 C 61.0431,26.56 61.3764,26.8933 61.5,27.5C 60.675,28.3857 59.675,28.719 58.5,28.5C 58.5,27.1667 59.1667,26.5 60.5,26.5 Z M 50.5,26.5 C 50.1788,28.0481 49.1788,28.7148 47.5,28.5C 47.9731,27.0937 48.9731,26.427 50.5,26.5 Z M 39.5,26.5 C 40.8333,27.1667 40.8333,27.8333 39.5,28.5C 37.0673,28.2144 37.0673,27.5477 39.5,26.5 Z M 30.5,26.5 C 30.5,27.1667 30.5,27.8333 30.5,28.5C 26.7113,28.2627 26.7113,27.5961 30.5,26.5 Z M 20.5,28.5 C 17.2027,28.6713 16.8694,28.0046 19.5,26.5C 20.2975,26.9569 20.6309,27.6236 20.5,28.5 Z"/></g>
<g><path style="opacity:1" fill="#f9f8fa" d="M 20.5,28.5 C 21.404,27.791 21.7373,26.791 21.5,25.5C 23.1667,25.5 24.8333,25.5 26.5,25.5C 26.2865,27.1439 26.6198,28.6439 27.5,30C 28.9976,30.5847 29.9976,30.0847 30.5,28.5C 30.5,27.8333 30.5,27.1667 30.5,26.5C 32.2646,25.5386 34.2646,25.2053 36.5,25.5C 35.9162,28.285 36.9162,29.9517 39.5,30.5C 41.5909,31.8654 43.9242,32.5321 46.5,32.5C 46.5713,35.0241 45.5713,37.0241 43.5,38.5C 44.723,39.6139 46.0563,39.7805 47.5,39C 47.1667,38.6667 46.8333,38.3333 46.5,38C 48.5136,36.3171 50.1802,34.3171 51.5,32C 54.914,31.7031 58.2473,31.0365 61.5,30C 62.3802,28.6439 62.7135,27.1439 62.5,25.5C 63.5,25.5 64.5,25.5 65.5,25.5C 65.793,27.6891 66.293,29.6891 67,31.5C 66.2825,30.5494 65.4491,30.3828 64.5,31C 61.5677,32.2997 59.2344,34.2997 57.5,37C 52.7185,38.5565 48.3852,40.8899 44.5,44C 57.5,44.3333 70.5,44.6667 83.5,45C 60.663,45.168 37.9963,45.668 15.5,46.5C 15.5,46.8333 15.5,47.1667 15.5,47.5C 22.989,48.329 30.6557,48.829 38.5,49C 30.8117,49.1685 23.1451,49.6685 15.5,50.5C 21.1376,51.3299 26.8042,51.8299 32.5,52C 26.6518,52.1728 20.9851,52.6728 15.5,53.5C 15.1667,53.5 14.8333,53.5 14.5,53.5C 14.1684,44.1429 14.5017,34.8096 15.5,25.5C 16.2436,26.9905 16.9103,28.4905 17.5,30C 18.9976,30.5847 19.9976,30.0847 20.5,28.5 Z M 60.5,26.5 C 61.0431,26.56 61.3764,26.8933 61.5,27.5C 60.675,28.3857 59.675,28.719 58.5,28.5C 58.5,27.1667 59.1667,26.5 60.5,26.5 Z M 50.5,26.5 C 50.1788,28.0481 49.1788,28.7148 47.5,28.5C 47.9731,27.0937 48.9731,26.427 50.5,26.5 Z M 39.5,26.5 C 40.8333,27.1667 40.8333,27.8333 39.5,28.5C 37.0673,28.2144 37.0673,27.5477 39.5,26.5 Z M 30.5,26.5 C 30.5,27.1667 30.5,27.8333 30.5,28.5C 26.7113,28.2627 26.7113,27.5961 30.5,26.5 Z M 20.5,28.5 C 20.6309,27.6236 20.2975,26.9569 19.5,26.5C 16.8694,28.0046 17.2027,28.6713 20.5,28.5 Z"/></g>
<g><path style="opacity:0.999" fill="#e5eaed" d="M 95.5,28.5 C 96.8946,29.8146 97.8946,29.4812 98.5,27.5C 98.5858,26.5041 98.2524,25.6708 97.5,25C 99.9018,24.1859 102.235,24.3526 104.5,25.5C 103.515,27.0983 103.349,28.765 104,30.5C 104.383,29.944 104.883,29.6107 105.5,29.5C 106.5,29.1667 107.167,28.5 107.5,27.5C 107.586,26.5041 107.252,25.6708 106.5,25C 109.379,24.1264 112.045,24.4597 114.5,26C 111.875,27.3757 111.875,28.5423 114.5,29.5C 115.167,29.5 115.833,29.5 116.5,29.5C 119.091,35.1991 120.424,41.1991 120.5,47.5C 85.5,47.5 50.5,47.5 15.5,47.5C 15.5,47.1667 15.5,46.8333 15.5,46.5C 50.1731,46.8332 84.8397,46.4999 119.5,45.5C 112.858,44.6691 106.191,44.1691 99.5,44C 99.6651,42.8831 99.9984,41.7164 100.5,40.5C 99.8333,39.1667 99.1667,37.8333 98.5,36.5C 99.9294,34.6687 100.429,32.6687 100,30.5C 95.5879,29.5479 91.0879,29.2146 86.5,29.5C 87.4916,29.6716 88.1583,29.3382 88.5,28.5C 88.6716,27.5084 88.3382,26.8417 87.5,26.5C 88.3339,25.2521 89.6672,24.5854 91.5,24.5C 92.8333,24.8333 94.1667,25.1667 95.5,25.5C 94.3473,26.6868 94.3473,27.6868 95.5,28.5 Z M 107.5,27.5 C 107.167,28.5 106.5,29.1667 105.5,29.5C 104.5,27.1667 105.167,26.5 107.5,27.5 Z M 98.5,27.5 C 97.8946,29.4812 96.8946,29.8146 95.5,28.5C 96.1054,26.5188 97.1054,26.1854 98.5,27.5 Z"/></g>
<g><path style="opacity:1" fill="#f3f3f5" d="M 39.5,24.5 C 42.1873,24.3359 44.854,24.5026 47.5,25C 46.2089,26.2917 46.2089,27.4583 47.5,28.5C 49.1788,28.7148 50.1788,28.0481 50.5,26.5C 50.3893,25.8826 50.056,25.3826 49.5,25C 52.5,24.3333 55.5,24.3333 58.5,25C 57.2089,26.2917 57.2089,27.4583 58.5,28.5C 59.675,28.719 60.675,28.3857 61.5,27.5C 61.3764,26.8933 61.0431,26.56 60.5,26.5C 61.1522,25.2749 62.3189,24.6083 64,24.5C 65.1667,24.6667 66.3333,24.8333 67.5,25C 66.2089,26.2917 66.2089,27.4583 67.5,28.5C 68.8333,28.5 69.5,27.8333 69.5,26.5C 71.9151,25.1858 74.7485,24.5191 78,24.5C 80.8333,24.6667 83.6667,24.8333 86.5,25C 85.1991,26.6155 85.1991,28.1155 86.5,29.5C 91.0879,29.2146 95.5879,29.5479 100,30.5C 100.429,32.6687 99.9294,34.6687 98.5,36.5C 99.1667,37.8333 99.8333,39.1667 100.5,40.5C 99.9984,41.7164 99.6651,42.8831 99.5,44C 106.191,44.1691 112.858,44.6691 119.5,45.5C 84.8397,46.4999 50.1731,46.8332 15.5,46.5C 37.9963,45.668 60.663,45.168 83.5,45C 70.5,44.6667 57.5,44.3333 44.5,44C 48.3852,40.8899 52.7185,38.5565 57.5,37C 59.2344,34.2997 61.5677,32.2997 64.5,31C 65.4491,30.3828 66.2825,30.5494 67,31.5C 66.293,29.6891 65.793,27.6891 65.5,25.5C 64.5,25.5 63.5,25.5 62.5,25.5C 62.7135,27.1439 62.3802,28.6439 61.5,30C 58.2473,31.0365 54.914,31.7031 51.5,32C 50.1802,34.3171 48.5136,36.3171 46.5,38C 46.8333,38.3333 47.1667,38.6667 47.5,39C 46.0563,39.7805 44.723,39.6139 43.5,38.5C 45.5713,37.0241 46.5713,35.0241 46.5,32.5C 43.9242,32.5321 41.5909,31.8654 39.5,30.5C 39.5,29.8333 39.5,29.1667 39.5,28.5C 40.8333,27.8333 40.8333,27.1667 39.5,26.5C 39.5,25.8333 39.5,25.1667 39.5,24.5 Z M 77.5,26.5 C 76.5249,28.5401 77.1916,28.8734 79.5,27.5C 79.0431,26.7025 78.3764,26.3691 77.5,26.5 Z M 69.5,26.5 C 69.5,27.8333 68.8333,28.5 67.5,28.5C 67.5,27.1667 68.1667,26.5 69.5,26.5 Z M 60.5,26.5 C 61.0431,26.56 61.3764,26.8933 61.5,27.5C 60.675,28.3857 59.675,28.719 58.5,28.5C 58.5,27.1667 59.1667,26.5 60.5,26.5 Z M 50.5,26.5 C 50.1788,28.0481 49.1788,28.7148 47.5,28.5C 47.9731,27.0937 48.9731,26.427 50.5,26.5 Z"/></g>
<g><path style="opacity:0.992" fill="#dbdcdf" d="M 131.5,37.5 C 132.167,37.5 132.5,37.8333 132.5,38.5C 133.585,40.5869 135.251,41.9202 137.5,42.5C 138.167,42.5 138.5,42.8333 138.5,43.5C 141.539,46.5398 144.873,49.2065 148.5,51.5C 149.463,52.3635 149.463,53.0302 148.5,53.5C 140.583,52.0583 132.583,51.0583 124.5,50.5C 125.716,49.9041 127.049,49.7374 128.5,50C 127.185,48.6054 127.519,47.6054 129.5,47C 127.512,46.8195 125.512,46.9862 123.5,47.5C 123.338,45.4727 123.505,43.4727 124,41.5C 126.229,41.9491 127.896,41.9491 129,41.5C 129.483,40.552 129.649,39.552 129.5,38.5C 127.139,38.6741 124.806,39.0074 122.5,39.5C 122.193,37.5542 122.193,35.8875 122.5,34.5C 123.833,35.8333 125.167,35.8333 126.5,34.5C 127.94,35.9524 129.606,36.9524 131.5,37.5 Z"/></g>
<g><path style="opacity:0.039" fill="#524a46" d="M 148.5,51.5 C 144.873,49.2065 141.539,46.5398 138.5,43.5C 140.719,42.4599 142.719,42.9599 144.5,45C 146.809,46.866 148.142,49.0327 148.5,51.5 Z"/></g>
<g><path style="opacity:1" fill="#f4f4f7" d="M 15.5,47.5 C 50.5,47.5 85.5,47.5 120.5,47.5C 120.5,49.1667 120.5,50.8333 120.5,52.5C 85.504,53.1666 50.504,53.4999 15.5,53.5C 20.9851,52.6728 26.6518,52.1728 32.5,52C 26.8042,51.8299 21.1376,51.3299 15.5,50.5C 23.1451,49.6685 30.8117,49.1685 38.5,49C 30.6557,48.829 22.989,48.329 15.5,47.5 Z"/></g>
<g><path style="opacity:0.016" fill="#5d544c" d="M 153.5,53.5 C 154.833,54.1667 154.833,54.1667 153.5,53.5 Z"/></g>
<g><path style="opacity:1" fill="#bc781c" d="M 209.5,39.5 C 205.786,49.9912 201.119,59.9912 195.5,69.5C 197.119,64.0647 198.952,58.7313 201,53.5C 204.11,48.9361 206.944,44.2694 209.5,39.5 Z"/></g>
<g><path style="opacity:1" fill="#f6f6f8" d="M 14.5,54.5 C 50.1729,54.1668 85.8396,54.5001 121.5,55.5C 128.285,56.0036 134.952,57.0036 141.5,58.5C 99.1726,59.5717 56.8392,60.2383 14.5,60.5C 14.5,58.5 14.5,56.5 14.5,54.5 Z"/></g>
<g><path style="opacity:0.424" fill="#c37a11" d="M 202.5,28.5 C 203.167,28.5 203.5,28.8333 203.5,29.5C 197.544,42.377 191.211,55.0437 184.5,67.5C 189.743,54.0835 195.743,41.0835 202.5,28.5 Z"/></g>
<g><path style="opacity:1" fill="#d2dee2" d="M 120.5,47.5 C 121.216,49.5563 121.883,51.723 122.5,54C 130.152,53.6909 137.819,53.6909 145.5,54C 147.421,54.3603 149.088,55.1936 150.5,56.5C 151.726,55.6371 153.06,55.6371 154.5,56.5C 155.578,59.4021 156.244,62.4021 156.5,65.5C 154.833,65.5 153.167,65.5 151.5,65.5C 151.376,63.4184 150.376,61.9184 148.5,61C 126.163,60.5388 103.83,60.7055 81.5,61.5C 59.1667,61.5 36.8333,61.5 14.5,61.5C 14.5,61.1667 14.5,60.8333 14.5,60.5C 56.8392,60.2383 99.1726,59.5717 141.5,58.5C 134.952,57.0036 128.285,56.0036 121.5,55.5C 85.8396,54.5001 50.1729,54.1668 14.5,54.5C 14.5,54.1667 14.5,53.8333 14.5,53.5C 14.8333,53.5 15.1667,53.5 15.5,53.5C 50.504,53.4999 85.504,53.1666 120.5,52.5C 120.5,50.8333 120.5,49.1667 120.5,47.5 Z"/></g>
<g><path style="opacity:1" fill="#f4f4f7" d="M 151.5,65.5 C 109.831,66.0473 68.164,66.714 26.5,67.5C 24.9812,66.5902 23.3146,65.7568 21.5,65C 20.5494,64.2825 20.3828,63.4491 21,62.5C 25.9977,62.8727 31.6643,63.206 38,63.5C 52.5979,62.841 67.0979,62.1744 81.5,61.5C 103.83,60.7055 126.163,60.5388 148.5,61C 150.376,61.9184 151.376,63.4184 151.5,65.5 Z"/></g>
<g><path style="opacity:1" fill="#f5f5f7" d="M 14.5,61.5 C 36.8333,61.5 59.1667,61.5 81.5,61.5C 67.0979,62.1744 52.5979,62.841 38,63.5C 31.6643,63.206 25.9977,62.8727 21,62.5C 20.3828,63.4491 20.5494,64.2825 21.5,65C 23.3146,65.7568 24.9812,66.5902 26.5,67.5C 62.4922,68.5448 105.825,68.5448 156.5,67.5C 156.5,69.1667 156.5,70.8333 156.5,72.5C 109.118,73.2767 61.7844,73.9434 14.5,74.5C 14.5,70.1667 14.5,65.8333 14.5,61.5 Z"/></g>
<g><path style="opacity:1" fill="#cadee4" d="M 151.5,65.5 C 153.167,65.5 154.833,65.5 156.5,65.5C 157.485,69.0756 158.152,72.7423 158.5,76.5C 157.596,75.791 157.263,74.791 157.5,73.5C 134.179,74.2471 110.846,74.7471 87.5,75C 82.9805,75.1753 78.6472,75.6753 74.5,76.5C 71.8333,75.1667 69.1667,75.1667 66.5,76.5C 49.3414,75.5033 32.008,75.17 14.5,75.5C 14.5,75.1667 14.5,74.8333 14.5,74.5C 61.7844,73.9434 109.118,73.2767 156.5,72.5C 156.5,70.8333 156.5,69.1667 156.5,67.5C 105.825,68.5448 62.4922,68.5448 26.5,67.5C 68.164,66.714 109.831,66.0473 151.5,65.5 Z"/></g>
<g><path style="opacity:1" fill="#e6ebeb" d="M 158.5,76.5 C 160.497,88.1555 162.164,99.8222 163.5,111.5C 163.34,113.153 162.674,114.486 161.5,115.5C 161.567,114.041 161.234,112.708 160.5,111.5C 160.247,107.96 159.581,104.627 158.5,101.5C 157.908,98.8728 157.575,96.2062 157.5,93.5C 157.5,91.5 157.5,89.5 157.5,87.5C 136.816,88.0336 116.15,88.7003 95.5,89.5C 96.7851,80.6158 93.1184,77.1158 84.5,79C 82.714,79.7845 81.214,80.9512 80,82.5C 77.932,80.6038 76.0987,78.6038 74.5,76.5C 78.6472,75.6753 82.9805,75.1753 87.5,75C 110.846,74.7471 134.179,74.2471 157.5,73.5C 157.263,74.791 157.596,75.791 158.5,76.5 Z"/></g>
<g><path style="opacity:0.353" fill="#5d5859" d="M 154.5,56.5 C 155.966,57.347 156.8,58.6803 157,60.5C 157.333,59.8333 157.667,59.1667 158,58.5C 158.798,61.8931 159.798,65.2265 161,68.5C 162.54,80.4224 164.707,92.0891 167.5,103.5C 166.27,105.297 165.604,107.297 165.5,109.5C 165.167,110.5 164.5,111.167 163.5,111.5C 162.164,99.8222 160.497,88.1555 158.5,76.5C 158.152,72.7423 157.485,69.0756 156.5,65.5C 156.244,62.4021 155.578,59.4021 154.5,56.5 Z"/></g>
<g><path style="opacity:0.882" fill="#c4c5c7" d="M 39.5,24.5 C 39.5,25.1667 39.5,25.8333 39.5,26.5C 37.0673,27.5477 37.0673,28.2144 39.5,28.5C 39.5,29.1667 39.5,29.8333 39.5,30.5C 36.9162,29.9517 35.9162,28.285 36.5,25.5C 34.2646,25.2053 32.2646,25.5386 30.5,26.5C 26.7113,27.5961 26.7113,28.2627 30.5,28.5C 29.9976,30.0847 28.9976,30.5847 27.5,30C 26.6198,28.6439 26.2865,27.1439 26.5,25.5C 24.8333,25.5 23.1667,25.5 21.5,25.5C 21.7373,26.791 21.404,27.791 20.5,28.5C 19.9976,30.0847 18.9976,30.5847 17.5,30C 16.9103,28.4905 16.2436,26.9905 15.5,25.5C 14.5017,34.8096 14.1684,44.1429 14.5,53.5C 14.5,53.8333 14.5,54.1667 14.5,54.5C 14.5,56.5 14.5,58.5 14.5,60.5C 14.5,60.8333 14.5,61.1667 14.5,61.5C 14.5,65.8333 14.5,70.1667 14.5,74.5C 14.5,74.8333 14.5,75.1667 14.5,75.5C 14.1679,120.67 14.5013,165.67 15.5,210.5C 15.5,210.833 15.5,211.167 15.5,211.5C 14.5269,213.948 14.1936,216.615 14.5,219.5C 16.1667,219.5 17.8333,219.5 19.5,219.5C 17.7354,220.461 15.7354,220.795 13.5,220.5C 13.5,155.167 13.5,89.8333 13.5,24.5C 22.1667,24.5 30.8333,24.5 39.5,24.5 Z M 30.5,26.5 C 30.5,27.1667 30.5,27.8333 30.5,28.5C 26.7113,28.2627 26.7113,27.5961 30.5,26.5 Z M 20.5,28.5 C 20.6309,27.6236 20.2975,26.9569 19.5,26.5C 16.8694,28.0046 17.2027,28.6713 20.5,28.5 Z"/></g>
<g><path style="opacity:1" fill="#eff1f1" d="M 14.5,75.5 C 32.008,75.17 49.3414,75.5033 66.5,76.5C 64.0216,79.3291 63.0216,82.6625 63.5,86.5C 52.2673,82.1969 44.1006,85.5302 39,96.5C 37.4075,100.161 36.2408,103.828 35.5,107.5C 35.5299,106.503 35.0299,105.836 34,105.5C 28.4866,106.307 22.6532,106.64 16.5,106.5C 16.5,110.833 16.5,115.167 16.5,119.5C 16.5,123.5 16.5,127.5 16.5,131.5C 16.5,134.167 16.5,136.833 16.5,139.5C 16.5,142.833 16.5,146.167 16.5,149.5C 15.5028,169.66 15.1695,189.993 15.5,210.5C 14.5013,165.67 14.1679,120.67 14.5,75.5 Z"/></g>
<g><path style="opacity:0.561" fill="#c57d14" d="M 184.5,67.5 C 182.638,73.2483 180.471,78.915 178,84.5C 174.3,93.1211 170.134,101.454 165.5,109.5C 165.604,107.297 166.27,105.297 167.5,103.5C 172.657,91.189 178.324,79.189 184.5,67.5 Z"/></g>
<g><path style="opacity:1" fill="#e7ecd4" d="M 157.5,93.5 C 156.778,93.0825 156.278,92.4158 156,91.5C 155.385,93.1161 154.385,94.4495 153,95.5C 151.176,94.2513 151.343,93.0847 153.5,92C 153,91.5 152.5,91 152,90.5C 149.423,91.2711 146.923,92.2711 144.5,93.5C 146.021,93.8797 147.687,94.0464 149.5,94C 147.045,95.6305 144.545,95.7972 142,94.5C 131.541,95.1808 121.041,96.0142 110.5,97C 108.053,98.7025 105.386,99.8692 102.5,100.5C 101.751,98.9884 100.584,97.9884 99,97.5C 96.8887,98.4721 94.7221,99.3054 92.5,100C 93.0659,100.995 93.7326,101.828 94.5,102.5C 94.1583,103.338 93.4916,103.672 92.5,103.5C 92.0805,101.906 91.4138,100.406 90.5,99C 93.3456,96.4763 95.0123,93.3096 95.5,89.5C 116.15,88.7003 136.816,88.0336 157.5,87.5C 157.5,89.5 157.5,91.5 157.5,93.5 Z"/></g>
<g><path style="opacity:1" fill="#201f1b" d="M 74.5,76.5 C 76.0987,78.6038 77.932,80.6038 80,82.5C 81.214,80.9512 82.714,79.7845 84.5,79C 93.1184,77.1158 96.7851,80.6158 95.5,89.5C 95.0123,93.3096 93.3456,96.4763 90.5,99C 91.4138,100.406 92.0805,101.906 92.5,103.5C 88.8349,107.618 84.1682,109.618 78.5,109.5C 78.6495,110.552 78.4828,111.552 78,112.5C 77.1627,110.993 75.9961,110.493 74.5,111C 76.0175,112.685 77.6841,114.185 79.5,115.5C 81.8714,115.108 82.5381,114.108 81.5,112.5C 83.1703,112.751 84.6703,113.418 86,114.5C 91.1089,113.693 96.2755,113.86 101.5,115C 102.416,115.278 103.082,115.778 103.5,116.5C 100.54,118.396 97.2066,119.396 93.5,119.5C 91.0576,120.726 88.7242,122.059 86.5,123.5C 83.1433,126.193 80.1433,125.693 77.5,122C 74.3943,121.156 71.561,121.656 69,123.5C 68.0979,123.257 67.2646,122.923 66.5,122.5C 60.2918,121.022 53.9585,119.355 47.5,117.5C 48.2297,119.045 49.563,119.878 51.5,120C 50.6919,120.308 50.0253,120.808 49.5,121.5C 50.6016,122.176 51.6016,122.842 52.5,123.5C 50.0897,124.438 47.7564,124.438 45.5,123.5C 45.3893,122.883 45.056,122.383 44.5,122C 41.5,121.333 38.5,121.333 35.5,122C 37.1341,122.494 38.8008,122.66 40.5,122.5C 40.5,123.833 40.5,125.167 40.5,126.5C 39.7784,126.082 39.2784,125.416 39,124.5C 38.5938,130.6 40.7605,135.6 45.5,139.5C 46.2678,142.562 48.2678,144.228 51.5,144.5C 51.5,145.167 51.1667,145.5 50.5,145.5C 49.5,145.5 48.5,145.5 47.5,145.5C 45.1568,142.793 42.8235,140.126 40.5,137.5C 39.5,134.833 38.5,132.167 37.5,129.5C 36.962,127.883 36.6287,126.216 36.5,124.5C 31.9677,124.818 27.6344,124.485 23.5,123.5C 25.5273,123.662 27.5273,123.495 29.5,123C 28.2721,121.51 28.2721,120.01 29.5,118.5C 31.2184,117.776 33.0517,117.109 35,116.5C 34.9052,113.672 35.0719,110.672 35.5,107.5C 36.2408,103.828 37.4075,100.161 39,96.5C 44.1006,85.5302 52.2673,82.1969 63.5,86.5C 63.0216,82.6625 64.0216,79.3291 66.5,76.5C 69.1667,75.1667 71.8333,75.1667 74.5,76.5 Z"/></g>
<g><path style="opacity:1" fill="#eeeff0" d="M 84.5,80.5 C 92.4374,78.6055 95.6041,81.6055 94,89.5C 93.3472,92.8066 91.6805,95.4733 89,97.5C 87.2845,94.6026 84.7845,93.2693 81.5,93.5C 80.738,88.6069 81.738,84.2736 84.5,80.5 Z"/></g>
<g><path style="opacity:1" fill="#3d3a39" d="M 90.5,85.5 C 91.5862,85.62 92.2528,86.2867 92.5,87.5C 91.6964,89.9573 90.6964,89.9573 89.5,87.5C 89.8627,86.8165 90.1961,86.1499 90.5,85.5 Z"/></g>
<g><path style="opacity:1" fill="#f2f4f5" d="M 67.5,77.5 C 72.5425,77.015 76.3758,79.015 79,83.5C 79.6667,87.8333 79.6667,92.1667 79,96.5C 74.7811,100.534 70.7811,100.201 67,95.5C 63.6176,89.2586 63.7843,83.2586 67.5,77.5 Z"/></g>
<g><path style="opacity:1" fill="#282a29" d="M 68.5,87.5 C 72.1612,87.3501 73.1612,88.8501 71.5,92C 68.0414,92.1454 67.0414,90.6454 68.5,87.5 Z"/></g>
<g><path style="opacity:1" fill="#6ce96f" d="M 63.5,92.5 C 65.6049,98.8786 69.9382,101.712 76.5,101C 81.7591,93.5617 86.4257,94.0617 90.5,102.5C 87.0327,106.656 82.6994,107.989 77.5,106.5C 74.6283,110.035 71.1283,111.035 67,109.5C 67,108.167 67,106.833 67,105.5C 65.8063,107.623 65.1397,109.957 65,112.5C 64.8078,110.423 64.3078,108.423 63.5,106.5C 62.5481,108.045 62.2148,109.712 62.5,111.5C 59.4816,111.665 56.4816,111.498 53.5,111C 51.0935,110.743 49.4268,109.576 48.5,107.5C 48.6107,106.883 48.944,106.383 49.5,106C 48,105.5 46.5,105 45,104.5C 43.5603,105.148 42.0603,105.481 40.5,105.5C 39.9553,109.172 39.6219,108.838 39.5,104.5C 40.5,104.5 41.5,104.5 42.5,104.5C 44.52,100.049 45.8533,95.5486 46.5,91C 51.2743,88.2069 56.2743,87.8735 61.5,90C 62.8333,90.6667 62.8333,91.3333 61.5,92C 62.0944,92.4643 62.7611,92.631 63.5,92.5 Z"/></g>
<g><path style="opacity:1" fill="#d28c1d" d="M 195.5,69.5 C 190.29,82.9174 184.29,95.9174 177.5,108.5C 178.39,101.049 181.223,94.3821 186,88.5C 187.113,80.9408 190.279,74.6075 195.5,69.5 Z"/></g>
<g><path style="opacity:1" fill="#e9eeb4" d="M 157.5,93.5 C 157.575,96.2062 157.908,98.8728 158.5,101.5C 143.217,102.215 127.883,102.882 112.5,103.5C 108.486,103.666 104.486,103.499 100.5,103C 99.8384,101.668 98.6718,100.502 97,99.5C 95.583,100.078 94.7496,101.078 94.5,102.5C 93.7326,101.828 93.0659,100.995 92.5,100C 94.7221,99.3054 96.8887,98.4721 99,97.5C 100.584,97.9884 101.751,98.9884 102.5,100.5C 105.386,99.8692 108.053,98.7025 110.5,97C 121.041,96.0142 131.541,95.1808 142,94.5C 144.545,95.7972 147.045,95.6305 149.5,94C 147.687,94.0464 146.021,93.8797 144.5,93.5C 146.923,92.2711 149.423,91.2711 152,90.5C 152.5,91 153,91.5 153.5,92C 151.343,93.0847 151.176,94.2513 153,95.5C 154.385,94.4495 155.385,93.1161 156,91.5C 156.278,92.4158 156.778,93.0825 157.5,93.5 Z"/></g>
<g><path style="opacity:1" fill="#e5ec8d" d="M 158.5,101.5 C 159.581,104.627 160.247,107.96 160.5,111.5C 159.732,110.737 159.232,109.737 159,108.5C 154.599,109.467 150.099,109.8 145.5,109.5C 136.185,110.232 126.852,110.566 117.5,110.5C 117.631,109.624 117.298,108.957 116.5,108.5C 112.516,109.77 108.516,109.77 104.5,108.5C 106.272,105.723 108.105,105.39 110,107.5C 111.481,106.529 112.315,105.196 112.5,103.5C 127.883,102.882 143.217,102.215 158.5,101.5 Z"/></g>
<g><path style="opacity:1" fill="#dde697" d="M 112.5,103.5 C 112.315,105.196 111.481,106.529 110,107.5C 108.105,105.39 106.272,105.723 104.5,108.5C 108.516,109.77 112.516,109.77 116.5,108.5C 117.298,108.957 117.631,109.624 117.5,110.5C 105.523,110.417 93.5228,111.083 81.5,112.5C 82.5381,114.108 81.8714,115.108 79.5,115.5C 77.6841,114.185 76.0175,112.685 74.5,111C 75.9961,110.493 77.1627,110.993 78,112.5C 78.4828,111.552 78.6495,110.552 78.5,109.5C 84.1682,109.618 88.8349,107.618 92.5,103.5C 93.4916,103.672 94.1583,103.338 94.5,102.5C 94.7496,101.078 95.583,100.078 97,99.5C 98.6718,100.502 99.8384,101.668 100.5,103C 104.486,103.499 108.486,103.666 112.5,103.5 Z"/></g>
<g><path style="opacity:1" fill="#55d66f" d="M 63.5,92.5 C 62.7611,92.631 62.0944,92.4643 61.5,92C 62.8333,91.3333 62.8333,90.6667 61.5,90C 56.2743,87.8735 51.2743,88.2069 46.5,91C 45.8533,95.5486 44.52,100.049 42.5,104.5C 41.5,104.5 40.5,104.5 39.5,104.5C 39.6219,108.838 39.9553,109.172 40.5,105.5C 42.0603,105.481 43.5603,105.148 45,104.5C 46.5,105 48,105.5 49.5,106C 48.944,106.383 48.6107,106.883 48.5,107.5C 47.2437,109.941 47.2437,112.274 48.5,114.5C 48.5,115.167 48.8333,115.5 49.5,115.5C 48.8333,116.167 48.1667,116.833 47.5,117.5C 46.2006,119.153 46.5339,120.653 48.5,122C 44.1859,121.223 43.5192,119.056 46.5,115.5C 46.3764,114.893 46.0431,114.56 45.5,114.5C 47.4345,104.617 45.6011,103.95 40,112.5C 39.51,113.793 39.3433,115.127 39.5,116.5C 38.5,116.5 37.5,116.5 36.5,116.5C 36.2063,106.491 39.2063,97.6577 45.5,90C 50.9713,87.0236 56.6379,86.6902 62.5,89C 63.3366,90.0113 63.67,91.1779 63.5,92.5 Z"/></g>
<g><path style="opacity:1" fill="#eaedad" d="M 35.5,107.5 C 35.0719,110.672 34.9052,113.672 35,116.5C 33.0517,117.109 31.2184,117.776 29.5,118.5C 28.1667,118.5 26.8333,118.5 25.5,118.5C 24.8333,118.5 24.1667,118.5 23.5,118.5C 21.2014,117.068 19.5347,117.734 18.5,120.5C 17.8165,120.137 17.1499,119.804 16.5,119.5C 16.5,115.167 16.5,110.833 16.5,106.5C 22.6532,106.64 28.4866,106.307 34,105.5C 35.0299,105.836 35.5299,106.503 35.5,107.5 Z"/></g>
<g><path style="opacity:1" fill="#e6ee72" d="M 145.5,109.5 C 144.134,111.271 142.634,112.938 141,114.5C 139.716,113.428 139.383,112.095 140,110.5C 138.477,112.62 136.644,112.953 134.5,111.5C 133.304,111.846 133.304,112.346 134.5,113C 124.434,116.533 114.1,117.7 103.5,116.5C 103.082,115.778 102.416,115.278 101.5,115C 96.2755,113.86 91.1089,113.693 86,114.5C 84.6703,113.418 83.1703,112.751 81.5,112.5C 93.5228,111.083 105.523,110.417 117.5,110.5C 126.852,110.566 136.185,110.232 145.5,109.5 Z"/></g>
<g><path style="opacity:1" fill="#d0cf87" d="M 49.5,115.5 C 48.8333,115.5 48.5,115.167 48.5,114.5C 48.5,113.5 48.5,112.5 48.5,111.5C 49.5,111.5 50.5,111.5 51.5,111.5C 51.8432,113.483 51.1765,114.817 49.5,115.5 Z"/></g>
<g><path style="opacity:1" fill="#d5d985" d="M 69.5,114.5 C 68.8333,114.5 68.1667,114.5 67.5,114.5C 67.5,113.5 67.5,112.5 67.5,111.5C 71.2807,110.789 74.2807,111.955 76.5,115C 74.1913,115.756 72.1913,115.256 70.5,113.5C 69.8933,113.624 69.56,113.957 69.5,114.5 Z"/></g>
<g><path style="opacity:1" fill="#d5dd89" d="M 45.5,114.5 C 44.713,116.104 43.3797,116.771 41.5,116.5C 41.8101,110.075 43.1434,109.409 45.5,114.5 Z"/></g>
<g><path style="opacity:1" fill="#10bd58" d="M 54.5,113.5 C 55.7759,114.386 55.7759,115.386 54.5,116.5C 53.4376,115.575 53.4376,114.575 54.5,113.5 Z"/></g>
<g><path style="opacity:1" fill="#c5c87b" d="M 57.5,112.5 C 60.9079,111.828 63.5745,112.828 65.5,115.5C 62.5719,116.484 59.5719,116.817 56.5,116.5C 56.4326,115.041 56.7659,113.708 57.5,112.5 Z"/></g>
<g><path style="opacity:1" fill="#e6e7e8" d="M 93.5,119.5 C 90.7952,119.62 90.1285,118.62 91.5,116.5C 93.0453,115.548 94.712,115.215 96.5,115.5C 96.5,116.5 96.5,117.5 96.5,118.5C 95.209,118.263 94.209,118.596 93.5,119.5 Z"/></g>
<g><path style="opacity:1" fill="#d3d176" d="M 55.5,117.5 C 58.8984,117.18 62.2317,117.513 65.5,118.5C 63.8333,118.833 62.1667,119.167 60.5,119.5C 58.3603,119.444 56.6936,118.777 55.5,117.5 Z"/></g>
<g><path style="opacity:1" fill="#2ca154" d="M 67.5,114.5 C 68.1667,114.5 68.8333,114.5 69.5,114.5C 70.3382,114.842 70.6716,115.508 70.5,116.5C 69.3054,116.866 68.6387,117.699 68.5,119C 69.1868,120.162 69.3534,121.328 69,122.5C 67.191,119.959 66.691,117.292 67.5,114.5 Z"/></g>
<g><path style="opacity:0.992" fill="#9e8d50" d="M 83.5,120.5 C 79.1667,120.5 74.8333,120.5 70.5,120.5C 70.5,119.167 70.5,117.833 70.5,116.5C 73.8973,116.741 77.2306,117.407 80.5,118.5C 81.8333,118.333 83.1667,118.167 84.5,118C 82.8333,117.667 81.1667,117.333 79.5,117C 82.791,115.456 86.1243,115.289 89.5,116.5C 88.9747,117.192 88.3081,117.692 87.5,118C 87.8333,118.333 88.1667,118.667 88.5,119C 86.6183,119.198 84.9516,119.698 83.5,120.5 Z"/></g>
<g><path style="opacity:1" fill="#e4727a" d="M 25.5,118.5 C 26.8333,118.5 28.1667,118.5 29.5,118.5C 28.2721,120.01 28.2721,121.51 29.5,123C 27.5273,123.495 25.5273,123.662 23.5,123.5C 23.5,123.167 23.5,122.833 23.5,122.5C 24.6005,121.395 25.2671,120.062 25.5,118.5 Z"/></g>
<g><path style="opacity:1" fill="#c9e933" d="M 161.5,116.5 C 160.5,119.167 159.5,121.833 158.5,124.5C 157.288,127.78 156.288,131.113 155.5,134.5C 155.5,133.5 155.5,132.5 155.5,131.5C 150.079,131.805 144.745,132.472 139.5,133.5C 138.997,130.154 138.33,126.821 137.5,123.5C 136.707,127.12 136.707,130.787 137.5,134.5C 136.601,133.528 135.434,132.862 134,132.5C 120.866,133.709 107.699,134.375 94.5,134.5C 94.5,136.167 94.5,137.833 94.5,139.5C 95.791,139.263 96.791,139.596 97.5,140.5C 96.1667,140.5 94.8333,140.5 93.5,140.5C 93.5,138.167 93.5,135.833 93.5,133.5C 93.8333,131.5 94.1667,129.5 94.5,127.5C 107.475,126.568 120.475,125.734 133.5,125C 131.744,124.798 130.078,124.298 128.5,123.5C 129.716,122.904 131.049,122.737 132.5,123C 132.167,122.667 131.833,122.333 131.5,122C 132.733,120.333 134.067,118.833 135.5,117.5C 144.171,117.262 152.838,116.928 161.5,116.5 Z"/></g>
<g><path style="opacity:1" fill="#cfcd75" d="M 35.5,118.5 C 37.924,118.192 40.2573,118.526 42.5,119.5C 39.8938,120.652 37.2272,120.818 34.5,120C 35.056,119.617 35.3893,119.117 35.5,118.5 Z"/></g>
<g><path style="opacity:1" fill="#363b26" d="M 23.5,118.5 C 24.1667,118.5 24.8333,118.5 25.5,118.5C 25.2671,120.062 24.6005,121.395 23.5,122.5C 22.3143,121.295 22.3143,119.961 23.5,118.5 Z"/></g>
<g><path style="opacity:1" fill="#a79756" d="M 47.5,117.5 C 53.9585,119.355 60.2918,121.022 66.5,122.5C 61.8592,123.127 57.1925,123.46 52.5,123.5C 51.6016,122.842 50.6016,122.176 49.5,121.5C 50.0253,120.808 50.6919,120.308 51.5,120C 49.563,119.878 48.2297,119.045 47.5,117.5 Z"/></g>
<g><path style="opacity:1" fill="#c6e63d" d="M 135.5,117.5 C 134.067,118.833 132.733,120.333 131.5,122C 131.833,122.333 132.167,122.667 132.5,123C 131.049,122.737 129.716,122.904 128.5,123.5C 130.078,124.298 131.744,124.798 133.5,125C 120.475,125.734 107.475,126.568 94.5,127.5C 94.1667,129.5 93.8333,131.5 93.5,133.5C 92.8347,131.302 92.1681,128.969 91.5,126.5C 91.1667,127 90.8333,127.5 90.5,128C 91.7684,132.311 91.7684,136.478 90.5,140.5C 89.7784,140.918 89.2784,141.584 89,142.5C 86.985,141.158 84.8183,140.658 82.5,141C 83.1667,141.333 83.8333,141.667 84.5,142C 83.0577,142.377 82.0577,143.21 81.5,144.5C 79.7868,145.635 79.1201,147.302 79.5,149.5C 79.5,150.167 79.1667,150.5 78.5,150.5C 78.5203,143.223 77.8537,136.056 76.5,129C 73.9009,128.231 71.4009,128.398 69,129.5C 68.7489,134.501 68.9155,139.501 69.5,144.5C 66.0476,145.41 62.7142,145.744 59.5,145.5C 60.8333,144.067 62.3333,142.733 64,141.5C 65.5834,133.66 62.7501,128.327 55.5,125.5C 51.5601,126.921 49.3934,129.587 49,133.5C 51.1277,136.458 53.7944,137.124 57,135.5C 57.7494,134.365 57.5827,133.365 56.5,132.5C 55.1838,132.432 53.8505,132.432 52.5,132.5C 55.1923,128.314 57.3589,128.647 59,133.5C 60.8719,138.692 59.2052,141.692 54,142.5C 51.4024,141.699 49.0691,140.366 47,138.5C 44.6261,135.086 42.7928,131.419 41.5,127.5C 41.5,126.167 41.5,124.833 41.5,123.5C 42.8333,123.5 44.1667,123.5 45.5,123.5C 47.7564,124.438 50.0897,124.438 52.5,123.5C 57.1925,123.46 61.8592,123.127 66.5,122.5C 67.2646,122.923 68.0979,123.257 69,123.5C 71.561,121.656 74.3943,121.156 77.5,122C 80.1433,125.693 83.1433,126.193 86.5,123.5C 91.1148,122.608 95.7815,121.608 100.5,120.5C 103.239,120.481 105.739,121.148 108,122.5C 109.447,122.055 110.78,121.388 112,120.5C 113.895,122.182 116.062,122.682 118.5,122C 117.167,121 117.167,120 118.5,119C 124.123,117.971 129.79,117.471 135.5,117.5 Z"/></g>
<g><path style="opacity:1" fill="#10ae53" d="M 83.5,120.5 C 86.1125,121.095 86.1125,121.929 83.5,123C 81.9262,123.699 80.5929,123.365 79.5,122C 81.0581,121.79 82.3915,121.29 83.5,120.5 Z"/></g>
<g><path style="opacity:1" fill="#d7e85b" d="M 160.5,111.5 C 161.234,112.708 161.567,114.041 161.5,115.5C 161.5,115.833 161.5,116.167 161.5,116.5C 152.838,116.928 144.171,117.262 135.5,117.5C 129.79,117.471 124.123,117.971 118.5,119C 117.167,120 117.167,121 118.5,122C 116.062,122.682 113.895,122.182 112,120.5C 110.78,121.388 109.447,122.055 108,122.5C 105.739,121.148 103.239,120.481 100.5,120.5C 95.7815,121.608 91.1148,122.608 86.5,123.5C 88.7242,122.059 91.0576,120.726 93.5,119.5C 97.2066,119.396 100.54,118.396 103.5,116.5C 114.1,117.7 124.434,116.533 134.5,113C 133.304,112.346 133.304,111.846 134.5,111.5C 136.644,112.953 138.477,112.62 140,110.5C 139.383,112.095 139.716,113.428 141,114.5C 142.634,112.938 144.134,111.271 145.5,109.5C 150.099,109.8 154.599,109.467 159,108.5C 159.232,109.737 159.732,110.737 160.5,111.5 Z"/></g>
<g><path style="opacity:1" fill="#7e7240" d="M 45.5,123.5 C 44.1667,123.5 42.8333,123.5 41.5,123.5C 41.5,124.833 41.5,126.167 41.5,127.5C 41.1667,127.5 40.8333,127.5 40.5,127.5C 40.5,127.167 40.5,126.833 40.5,126.5C 40.5,125.167 40.5,123.833 40.5,122.5C 38.8008,122.66 37.1341,122.494 35.5,122C 38.5,121.333 41.5,121.333 44.5,122C 45.056,122.383 45.3893,122.883 45.5,123.5 Z"/></g>
<g><path style="opacity:1" fill="#ccdf5c" d="M 23.5,118.5 C 22.3143,119.961 22.3143,121.295 23.5,122.5C 23.5,122.833 23.5,123.167 23.5,123.5C 27.6344,124.485 31.9677,124.818 36.5,124.5C 36.6287,126.216 36.962,127.883 37.5,129.5C 30.4293,129.932 23.4293,130.599 16.5,131.5C 16.5,127.5 16.5,123.5 16.5,119.5C 17.1499,119.804 17.8165,120.137 18.5,120.5C 19.5347,117.734 21.2014,117.068 23.5,118.5 Z"/></g>
<g><path style="opacity:1" fill="#b28c46" d="M 158.5,124.5 C 159.136,126.795 160.469,128.461 162.5,129.5C 164.858,129.747 166.858,129.081 168.5,127.5C 168.443,128.609 168.11,129.609 167.5,130.5C 166.167,131.167 165.167,132.167 164.5,133.5C 161.599,136.312 158.932,139.312 156.5,142.5C 156.672,141.508 156.338,140.842 155.5,140.5C 155.5,138.5 155.5,136.5 155.5,134.5C 156.288,131.113 157.288,127.78 158.5,124.5 Z"/></g>
<g><path style="opacity:1" fill="#12cc65" d="M 40.5,126.5 C 40.5,126.833 40.5,127.167 40.5,127.5C 41.6261,131.749 43.2928,135.749 45.5,139.5C 40.7605,135.6 38.5938,130.6 39,124.5C 39.2784,125.416 39.7784,126.082 40.5,126.5 Z"/></g>
<g><path style="opacity:1" fill="#c9ea3a" d="M 37.5,129.5 C 38.5,132.167 39.5,134.833 40.5,137.5C 32.2706,138.259 24.2706,138.926 16.5,139.5C 16.5,136.833 16.5,134.167 16.5,131.5C 23.4293,130.599 30.4293,129.932 37.5,129.5 Z"/></g>
<g><path style="opacity:1" fill="#a1de22" d="M 155.5,134.5 C 155.5,136.5 155.5,138.5 155.5,140.5C 155.585,141.995 154.919,142.995 153.5,143.5C 152.833,141.833 152.167,140.167 151.5,138.5C 150.83,140.291 150.163,141.958 149.5,143.5C 148.167,143.5 146.833,143.5 145.5,143.5C 144.698,142.048 144.198,140.382 144,138.5C 143.933,141.047 143.099,143.214 141.5,145C 142.448,145.483 143.448,145.649 144.5,145.5C 144.5,147.5 144.5,149.5 144.5,151.5C 143.837,149.958 143.17,148.291 142.5,146.5C 141.614,147.325 141.281,148.325 141.5,149.5C 140.449,144.354 139.782,139.021 139.5,133.5C 144.745,132.472 150.079,131.805 155.5,131.5C 155.5,132.5 155.5,133.5 155.5,134.5 Z"/></g>
<g><path style="opacity:1" fill="#b1eb24" d="M 137.5,134.5 C 137.5,135.5 137.5,136.5 137.5,137.5C 135.208,137.756 133.041,137.423 131,136.5C 130.311,137.357 129.478,138.023 128.5,138.5C 126.958,137.253 125.458,137.253 124,138.5C 123.667,137.167 123.333,135.833 123,134.5C 121.887,135.711 120.72,135.711 119.5,134.5C 119.251,135.582 119.085,136.915 119,138.5C 118.612,137.572 117.945,136.905 117,136.5C 111.895,139.971 106.395,141.971 100.5,142.5C 99.8333,143.167 99.1667,143.833 98.5,144.5C 97.8365,146.042 97.1698,147.709 96.5,149.5C 95.8182,148.757 95.1515,148.091 94.5,147.5C 94.5,145.833 94.5,144.167 94.5,142.5C 96.1788,142.715 97.1788,142.048 97.5,140.5C 96.791,139.596 95.791,139.263 94.5,139.5C 94.5,137.833 94.5,136.167 94.5,134.5C 107.699,134.375 120.866,133.709 134,132.5C 135.434,132.862 136.601,133.528 137.5,134.5 Z"/></g>
<g><path style="opacity:1" fill="#94d91f" d="M 137.5,137.5 C 136.526,139.085 135.026,140.085 133,140.5C 133.034,147.182 133.534,153.848 134.5,160.5C 133.467,157.014 132.633,153.347 132,149.5C 131.617,148.944 131.117,148.611 130.5,148.5C 129.887,145.991 129.22,143.491 128.5,141C 122.66,139.083 120.66,140.916 122.5,146.5C 123.429,145.311 123.762,143.978 123.5,142.5C 124.833,142.5 126.167,142.5 127.5,142.5C 127.5,144.5 127.5,146.5 127.5,148.5C 125.856,148.286 124.356,148.62 123,149.5C 122.503,152.146 122.336,154.813 122.5,157.5C 120.972,158.802 119.972,160.469 119.5,162.5C 119.117,155.81 118.451,149.143 117.5,142.5C 115.298,141.22 113.132,141.22 111,142.5C 110.503,145.146 110.336,147.813 110.5,150.5C 109.527,148.052 109.194,145.385 109.5,142.5C 108.209,142.263 107.209,142.596 106.5,143.5C 104.621,142.659 102.621,142.325 100.5,142.5C 106.395,141.971 111.895,139.971 117,136.5C 117.945,136.905 118.612,137.572 119,138.5C 119.085,136.915 119.251,135.582 119.5,134.5C 120.72,135.711 121.887,135.711 123,134.5C 123.333,135.833 123.667,137.167 124,138.5C 125.458,137.253 126.958,137.253 128.5,138.5C 129.478,138.023 130.311,137.357 131,136.5C 133.041,137.423 135.208,137.756 137.5,137.5 Z"/></g>
<g><path style="opacity:1" fill="#211f19" d="M 93.5,133.5 C 93.5,135.833 93.5,138.167 93.5,140.5C 94.8333,140.5 96.1667,140.5 97.5,140.5C 97.1788,142.048 96.1788,142.715 94.5,142.5C 94.5,144.167 94.5,145.833 94.5,147.5C 94.5,149.5 94.5,151.5 94.5,153.5C 94.6633,155.857 94.4966,158.19 94,160.5C 93.8195,157.305 93.3195,154.305 92.5,151.5C 92.8132,147.587 92.1466,143.921 90.5,140.5C 91.7684,136.478 91.7684,132.311 90.5,128C 90.8333,127.5 91.1667,127 91.5,126.5C 92.1681,128.969 92.8347,131.302 93.5,133.5 Z"/></g>
<g><path style="opacity:1" fill="#110b14" d="M 145.5,143.5 C 145.918,144.222 146.584,144.722 147.5,145C 145.75,146.754 145.083,148.921 145.5,151.5C 145.167,151.5 144.833,151.5 144.5,151.5C 144.5,149.5 144.5,147.5 144.5,145.5C 143.448,145.649 142.448,145.483 141.5,145C 143.099,143.214 143.933,141.047 144,138.5C 144.198,140.382 144.698,142.048 145.5,143.5 Z"/></g>
<g><path style="opacity:1" fill="#ade625" d="M 40.5,137.5 C 42.8235,140.126 45.1568,142.793 47.5,145.5C 43.3303,146.137 39.1636,146.803 35,147.5C 33.984,146.366 33.3173,146.699 33,148.5C 27.9283,147.529 22.7616,147.195 17.5,147.5C 17.7678,149.099 17.4345,150.432 16.5,151.5C 16.5,150.833 16.5,150.167 16.5,149.5C 16.5,146.167 16.5,142.833 16.5,139.5C 24.2706,138.926 32.2706,138.259 40.5,137.5 Z"/></g>
<g><path style="opacity:1" fill="#8fbf25" d="M 90.5,140.5 C 92.1466,143.921 92.8132,147.587 92.5,151.5C 91.5269,149.052 91.1936,146.385 91.5,143.5C 89.5853,143.216 87.9187,143.549 86.5,144.5C 84.8333,144.5 83.1667,144.5 81.5,144.5C 82.0577,143.21 83.0577,142.377 84.5,142C 83.8333,141.667 83.1667,141.333 82.5,141C 84.8183,140.658 86.985,141.158 89,142.5C 89.2784,141.584 89.7784,140.918 90.5,140.5 Z"/></g>
<g><path style="opacity:1" fill="#8ad51f" d="M 164.5,133.5 C 165.388,136.054 165.721,138.721 165.5,141.5C 165.963,144.482 166.296,147.482 166.5,150.5C 162.52,149.373 158.52,148.373 154.5,147.5C 154.737,148.791 154.404,149.791 153.5,150.5C 153.144,147.224 154.144,144.557 156.5,142.5C 158.932,139.312 161.599,136.312 164.5,133.5 Z"/></g>
<g><path style="opacity:1" fill="#10aa52" d="M 45.5,139.5 C 48.4559,140.842 50.4559,142.508 51.5,144.5C 48.2678,144.228 46.2678,142.562 45.5,139.5 Z"/></g>
<g><path style="opacity:1" fill="#252e1d" d="M 59.5,145.5 C 56.3442,146.551 53.3442,146.551 50.5,145.5C 51.1667,145.5 51.5,145.167 51.5,144.5C 50.4559,142.508 48.4559,140.842 45.5,139.5C 43.2928,135.749 41.6261,131.749 40.5,127.5C 40.8333,127.5 41.1667,127.5 41.5,127.5C 42.7928,131.419 44.6261,135.086 47,138.5C 49.0691,140.366 51.4024,141.699 54,142.5C 59.2052,141.692 60.8719,138.692 59,133.5C 57.3589,128.647 55.1923,128.314 52.5,132.5C 53.8505,132.432 55.1838,132.432 56.5,132.5C 57.5827,133.365 57.7494,134.365 57,135.5C 53.7944,137.124 51.1277,136.458 49,133.5C 49.3934,129.587 51.5601,126.921 55.5,125.5C 62.7501,128.327 65.5834,133.66 64,141.5C 62.3333,142.733 60.8333,144.067 59.5,145.5 Z"/></g>
<g><path style="opacity:1" fill="#17cb60" d="M 53.5,127.5 C 58.0921,126.916 60.9254,128.916 62,133.5C 62.6667,135.5 62.6667,137.5 62,139.5C 61.3989,136.363 60.3989,133.363 59,130.5C 57.1434,128.369 54.9768,127.869 52.5,129C 53.056,128.617 53.3893,128.117 53.5,127.5 Z"/></g>
<g><path style="opacity:1" fill="#201e18" d="M 155.5,140.5 C 156.338,140.842 156.672,141.508 156.5,142.5C 154.144,144.557 153.144,147.224 153.5,150.5C 152.167,148.833 150.833,147.167 149.5,145.5C 149.5,144.833 149.5,144.167 149.5,143.5C 150.163,141.958 150.83,140.291 151.5,138.5C 152.167,140.167 152.833,141.833 153.5,143.5C 154.919,142.995 155.585,141.995 155.5,140.5 Z"/></g>
<g><path style="opacity:1" fill="#6aa11c" d="M 145.5,143.5 C 146.833,143.5 148.167,143.5 149.5,143.5C 149.5,144.167 149.5,144.833 149.5,145.5C 149.12,146.133 148.787,146.8 148.5,147.5C 147.914,147.291 147.414,146.957 147,146.5C 146.802,148.382 146.302,150.048 145.5,151.5C 145.083,148.921 145.75,146.754 147.5,145C 146.584,144.722 145.918,144.222 145.5,143.5 Z"/></g>
<g><path style="opacity:0.063" fill="#191312" d="M 174.5,143.5 C 183.954,144.658 193.287,146.325 202.5,148.5C 205.125,149.441 205.125,150.607 202.5,152C 205.728,155.221 205.062,156.721 200.5,156.5C 191.801,155.384 183.134,154.05 174.5,152.5C 173.775,150.053 173.108,147.553 172.5,145C 172.836,143.97 173.503,143.47 174.5,143.5 Z"/></g>
<g><path style="opacity:1" fill="#70cb14" d="M 98.5,144.5 C 99.1667,151.167 99.8333,157.833 100.5,164.5C 99.5489,163.081 99.2155,161.415 99.5,159.5C 98.5,159.5 97.5,159.5 96.5,159.5C 96.8128,163.042 96.4794,166.375 95.5,169.5C 95.8214,163.974 95.4881,158.64 94.5,153.5C 94.5,151.5 94.5,149.5 94.5,147.5C 95.1515,148.091 95.8182,148.757 96.5,149.5C 97.1698,147.709 97.8365,146.042 98.5,144.5 Z"/></g>
<g><path style="opacity:1" fill="#272a1a" d="M 130.5,148.5 C 130.666,153.179 130.499,157.845 130,162.5C 124.981,164.65 122.481,162.984 122.5,157.5C 122.336,154.813 122.503,152.146 123,149.5C 124.356,148.62 125.856,148.286 127.5,148.5C 127.5,146.5 127.5,144.5 127.5,142.5C 126.167,142.5 124.833,142.5 123.5,142.5C 123.762,143.978 123.429,145.311 122.5,146.5C 120.66,140.916 122.66,139.083 128.5,141C 129.22,143.491 129.887,145.991 130.5,148.5 Z"/></g>
<g><path style="opacity:1" fill="#6ba875" d="M 165.5,141.5 C 168.44,149.106 170.106,157.106 170.5,165.5C 170.167,165.5 169.833,165.5 169.5,165.5C 169.152,161.742 168.485,158.076 167.5,154.5C 167.768,152.901 167.434,151.568 166.5,150.5C 166.296,147.482 165.963,144.482 165.5,141.5 Z"/></g>
<g><path style="opacity:0.016" fill="#534942" d="M 202.5,148.5 C 211.08,149.549 219.413,151.216 227.5,153.5C 225.769,154.985 224.769,156.985 224.5,159.5C 223.423,160.018 222.256,160.352 221,160.5C 214.019,159.202 207.186,157.868 200.5,156.5C 205.062,156.721 205.728,155.221 202.5,152C 205.125,150.607 205.125,149.441 202.5,148.5 Z"/></g>
<g><path style="opacity:1" fill="#92e21b" d="M 69.5,144.5 C 69.5,147.167 69.5,149.833 69.5,152.5C 65.2153,153.208 60.882,153.708 56.5,154C 54.5838,157.161 52.7505,156.994 51,153.5C 43.9569,154.97 36.7902,155.803 29.5,156C 28.1667,156.333 26.8333,156.667 25.5,157C 26.8882,157.889 26.7215,158.389 25,158.5C 23.7387,158.241 22.7387,157.574 22,156.5C 21.6667,157.167 21.3333,157.833 21,158.5C 19.951,156.893 18.451,156.227 16.5,156.5C 16.5,154.833 16.5,153.167 16.5,151.5C 17.4345,150.432 17.7678,149.099 17.5,147.5C 22.7616,147.195 27.9283,147.529 33,148.5C 33.3173,146.699 33.984,146.366 35,147.5C 39.1636,146.803 43.3303,146.137 47.5,145.5C 48.5,145.5 49.5,145.5 50.5,145.5C 53.3442,146.551 56.3442,146.551 59.5,145.5C 62.7142,145.744 66.0476,145.41 69.5,144.5 Z"/></g>
<g><path style="opacity:1" fill="#75df0e" d="M 149.5,145.5 C 150.833,147.167 152.167,148.833 153.5,150.5C 154.404,149.791 154.737,148.791 154.5,147.5C 158.52,148.373 162.52,149.373 166.5,150.5C 167.434,151.568 167.768,152.901 167.5,154.5C 165.348,155.281 163.348,155.614 161.5,155.5C 158.421,155.74 155.421,155.407 152.5,154.5C 151.522,154.977 150.689,155.643 150,156.5C 148.912,153.007 147.745,152.841 146.5,156C 145.207,156.49 143.873,156.657 142.5,156.5C 141.631,154.283 141.298,151.95 141.5,149.5C 141.281,148.325 141.614,147.325 142.5,146.5C 143.17,148.291 143.837,149.958 144.5,151.5C 144.833,151.5 145.167,151.5 145.5,151.5C 146.302,150.048 146.802,148.382 147,146.5C 147.414,146.957 147.914,147.291 148.5,147.5C 148.787,146.8 149.12,146.133 149.5,145.5 Z"/></g>
<g><path style="opacity:0.016" fill="#5d544c" d="M 227.5,153.5 C 228.167,153.5 228.833,153.5 229.5,153.5C 229.5,153.833 229.5,154.167 229.5,154.5C 228.508,154.672 227.842,154.338 227.5,153.5 Z"/></g>
<g><path style="opacity:1" fill="#589a15" d="M 79.5,149.5 C 80.4816,152.962 80.815,156.629 80.5,160.5C 80.1667,160.5 79.8333,160.5 79.5,160.5C 78.7929,157.214 78.4595,153.881 78.5,150.5C 79.1667,150.5 79.5,150.167 79.5,149.5 Z"/></g>
<g><path style="opacity:1" fill="#25281a" d="M 139.5,133.5 C 139.782,139.021 140.449,144.354 141.5,149.5C 141.298,151.95 141.631,154.283 142.5,156.5C 142.154,162.582 139.487,163.916 134.5,160.5C 133.534,153.848 133.034,147.182 133,140.5C 135.026,140.085 136.526,139.085 137.5,137.5C 137.5,136.5 137.5,135.5 137.5,134.5C 136.707,130.787 136.707,127.12 137.5,123.5C 138.33,126.821 138.997,130.154 139.5,133.5 Z"/></g>
<g><path style="opacity:1" fill="#58ad17" d="M 138.5,148.5 C 139.687,151.98 140.187,155.647 140,159.5C 138.887,160.711 137.72,160.711 136.5,159.5C 135.534,157.604 135.201,155.604 135.5,153.5C 136.151,154.091 136.818,154.757 137.5,155.5C 138.474,153.257 138.808,150.924 138.5,148.5 Z"/></g>
<g><path style="opacity:1" fill="#85e314" d="M 138.5,148.5 C 138.808,150.924 138.474,153.257 137.5,155.5C 136.818,154.757 136.151,154.091 135.5,153.5C 135.605,149.452 135.272,145.452 134.5,141.5C 135.833,141.5 137.167,141.5 138.5,141.5C 138.5,143.833 138.5,146.167 138.5,148.5 Z"/></g>
<g><path style="opacity:0.016" fill="#5d544c" d="M 224.5,159.5 C 225.922,159.709 227.255,160.209 228.5,161C 226.537,161.844 225.204,161.344 224.5,159.5 Z"/></g>
<g><path style="opacity:1" fill="#2b2f1b" d="M 78.5,150.5 C 78.4595,153.881 78.7929,157.214 79.5,160.5C 79.8134,163.247 79.48,165.914 78.5,168.5C 77.8329,164.687 77.1663,161.021 76.5,157.5C 76.2141,148.498 75.8808,139.498 75.5,130.5C 74.1667,130.5 72.8333,130.5 71.5,130.5C 71.4702,141.029 72.1369,151.362 73.5,161.5C 73.8226,165.226 73.4892,168.893 72.5,172.5C 71.0562,170.392 70.3896,168.059 70.5,165.5C 70.8182,160.968 70.4849,156.634 69.5,152.5C 69.5,149.833 69.5,147.167 69.5,144.5C 68.9155,139.501 68.7489,134.501 69,129.5C 71.4009,128.398 73.9009,128.231 76.5,129C 77.8537,136.056 78.5203,143.223 78.5,150.5 Z"/></g>
<g><path style="opacity:1" fill="#9edc21" d="M 76.5,157.5 C 75.8826,157.611 75.3826,157.944 75,158.5C 75.0773,157.262 74.9106,156.262 74.5,155.5C 73.5344,157.396 73.2011,159.396 73.5,161.5C 72.1369,151.362 71.4702,141.029 71.5,130.5C 72.8333,130.5 74.1667,130.5 75.5,130.5C 75.8808,139.498 76.2141,148.498 76.5,157.5 Z"/></g>
<g><path style="opacity:1" fill="#30461c" d="M 92.5,151.5 C 93.3195,154.305 93.8195,157.305 94,160.5C 94.4966,158.19 94.6633,155.857 94.5,153.5C 95.4881,158.64 95.8214,163.974 95.5,169.5C 94.8333,169.5 94.1667,169.5 93.5,169.5C 92.9258,163.516 92.5925,157.516 92.5,151.5 Z"/></g>
<g><path style="opacity:1" fill="#1e1d18" d="M 119.5,162.5 C 118.365,164.213 116.698,164.88 114.5,164.5C 114.665,168.182 114.499,171.848 114,175.5C 112.444,167.213 111.277,158.88 110.5,150.5C 110.336,147.813 110.503,145.146 111,142.5C 113.132,141.22 115.298,141.22 117.5,142.5C 118.451,149.143 119.117,155.81 119.5,162.5 Z"/></g>
<g><path style="opacity:1" fill="#6fd611" d="M 112.5,143.5 C 113.822,143.33 114.989,143.663 116,144.5C 116.831,150.477 117.331,156.477 117.5,162.5C 116.178,162.67 115.011,162.337 114,161.5C 112.761,155.565 112.261,149.565 112.5,143.5 Z"/></g>
<g><path style="opacity:1" fill="#24261a" d="M 81.5,144.5 C 83.1667,144.5 84.8333,144.5 86.5,144.5C 86.7828,145.289 87.2828,145.956 88,146.5C 88.2574,152.196 88.7574,157.863 89.5,163.5C 88.5309,166.987 86.1976,168.32 82.5,167.5C 81.8826,167.389 81.3826,167.056 81,166.5C 80.5045,164.527 80.3379,162.527 80.5,160.5C 80.815,156.629 80.4816,152.962 79.5,149.5C 79.1201,147.302 79.7868,145.635 81.5,144.5 Z"/></g>
<g><path style="opacity:1" fill="#6acc12" d="M 82.5,145.5 C 83.4959,145.414 84.3292,145.748 85,146.5C 86.1881,152.778 86.6881,159.112 86.5,165.5C 85.1779,165.67 84.0113,165.337 83,164.5C 81.8873,158.104 81.7207,151.771 82.5,145.5 Z"/></g>
<g><path style="opacity:1" fill="#68d90b" d="M 69.5,152.5 C 70.4849,156.634 70.8182,160.968 70.5,165.5C 67.074,165.65 66.7406,164.484 69.5,162C 69,161.833 68.5,161.667 68,161.5C 66.85,162.424 65.85,162.424 65,161.5C 64.6924,162.308 64.1924,162.975 63.5,163.5C 63.1667,162.833 62.8333,162.167 62.5,161.5C 60.6183,162.093 58.7849,162.76 57,163.5C 51.1594,162.386 45.326,162.719 39.5,164.5C 39.7093,165.086 40.0426,165.586 40.5,166C 38.5975,166.199 37.0975,167.033 36,168.5C 34.6667,167.167 33.3333,167.167 32,168.5C 30.561,166.552 28.7277,165.219 26.5,164.5C 25.3279,164.919 24.3279,165.585 23.5,166.5C 21.6318,166.054 19.7985,165.721 18,165.5C 17.5065,167.134 17.3398,168.801 17.5,170.5C 17.1667,170.5 16.8333,170.5 16.5,170.5C 16.5,165.833 16.5,161.167 16.5,156.5C 18.451,156.227 19.951,156.893 21,158.5C 21.3333,157.833 21.6667,157.167 22,156.5C 22.7387,157.574 23.7387,158.241 25,158.5C 26.7215,158.389 26.8882,157.889 25.5,157C 26.8333,156.667 28.1667,156.333 29.5,156C 36.7902,155.803 43.9569,154.97 51,153.5C 52.7505,156.994 54.5838,157.161 56.5,154C 60.882,153.708 65.2153,153.208 69.5,152.5 Z"/></g>
<g><path style="opacity:1" fill="#242719" d="M 100.5,142.5 C 102.621,142.325 104.621,142.659 106.5,143.5C 107.436,147.735 107.769,152.069 107.5,156.5C 105.5,156.833 103.5,157.167 101.5,157.5C 101.833,159.5 102.167,161.5 102.5,163.5C 103.833,163.5 105.167,163.5 106.5,163.5C 106.345,158.9 107.012,158.567 108.5,162.5C 106.515,165.567 103.849,166.233 100.5,164.5C 99.8333,157.833 99.1667,151.167 98.5,144.5C 99.1667,143.833 99.8333,143.167 100.5,142.5 Z"/></g>
<g><path style="opacity:1" fill="#82d419" d="M 101.5,144.5 C 103.124,144.36 104.29,145.027 105,146.5C 105.498,149.482 105.665,152.482 105.5,155.5C 104.167,155.5 102.833,155.5 101.5,155.5C 101.5,151.833 101.5,148.167 101.5,144.5 Z"/></g>
<g><path style="opacity:1" fill="#1dce02" d="M 110.5,150.5 C 111.277,158.88 112.444,167.213 114,175.5C 114.499,171.848 114.665,168.182 114.5,164.5C 116.698,164.88 118.365,164.213 119.5,162.5C 119.972,160.469 120.972,158.802 122.5,157.5C 122.481,162.984 124.981,164.65 130,162.5C 130.499,157.845 130.666,153.179 130.5,148.5C 131.117,148.611 131.617,148.944 132,149.5C 132.633,153.347 133.467,157.014 134.5,160.5C 139.487,163.916 142.154,162.582 142.5,156.5C 143.873,156.657 145.207,156.49 146.5,156C 147.745,152.841 148.912,153.007 150,156.5C 150.689,155.643 151.522,154.977 152.5,154.5C 155.421,155.407 158.421,155.74 161.5,155.5C 160.697,156.423 160.53,157.423 161,158.5C 162.387,160.301 163.887,160.968 165.5,160.5C 164.332,162.217 162.665,162.884 160.5,162.5C 160.33,163.822 160.663,164.989 161.5,166C 160.975,166.692 160.308,167.192 159.5,167.5C 155.552,166.555 151.552,165.888 147.5,165.5C 147.719,166.675 147.386,167.675 146.5,168.5C 145.651,164.83 147.318,162.997 151.5,163C 149.726,162.119 149.06,160.953 149.5,159.5C 147.851,161.65 146.018,163.65 144,165.5C 143.667,167.5 143.333,169.5 143,171.5C 142.586,171.957 142.086,172.291 141.5,172.5C 140.352,170.65 139.019,169.983 137.5,170.5C 138.5,169.167 139.5,167.833 140.5,166.5C 139.998,165.479 139.332,165.312 138.5,166C 136.458,169.251 134.291,172.418 132,175.5C 131.047,173.408 129.714,173.075 128,174.5C 127.808,176.577 127.308,178.577 126.5,180.5C 125.481,179.313 124.314,178.313 123,177.5C 122.46,175.865 122.96,174.532 124.5,173.5C 124,173.167 123.5,172.833 123,172.5C 121.471,175.257 119.305,177.257 116.5,178.5C 114.177,177.418 111.843,177.585 109.5,179C 104.284,185.652 105.117,186.152 112,180.5C 113.218,184.045 115.718,186.212 119.5,187C 118.207,187.49 116.873,187.657 115.5,187.5C 115.768,189.099 115.434,190.432 114.5,191.5C 113.5,191.167 112.833,190.5 112.5,189.5C 112.53,188.503 112.03,187.836 111,187.5C 109.756,189.576 107.923,190.576 105.5,190.5C 105.505,194 103.838,195.5 100.5,195C 103.328,191.999 102.995,190.499 99.5,190.5C 100.167,189.5 100.833,188.5 101.5,187.5C 100.294,185.484 100.294,183.484 101.5,181.5C 104.844,182.822 105.844,181.822 104.5,178.5C 103.186,177.687 102.019,176.687 101,175.5C 100.667,177.167 100.333,178.833 100,180.5C 98.9887,181.337 97.8221,181.67 96.5,181.5C 97.2309,183.599 97.2309,185.599 96.5,187.5C 94.2196,185.022 91.553,183.022 88.5,181.5C 91.0666,179.875 93.0666,177.709 94.5,175C 95.7441,174.544 96.5774,175.044 97,176.5C 98.033,173.783 97.1997,171.949 94.5,171C 95.056,170.617 95.3893,170.117 95.5,169.5C 96.4794,166.375 96.8128,163.042 96.5,159.5C 97.5,159.5 98.5,159.5 99.5,159.5C 99.2155,161.415 99.5489,163.081 100.5,164.5C 103.849,166.233 106.515,165.567 108.5,162.5C 107.012,158.567 106.345,158.9 106.5,163.5C 105.167,163.5 103.833,163.5 102.5,163.5C 102.167,161.5 101.833,159.5 101.5,157.5C 103.5,157.167 105.5,156.833 107.5,156.5C 107.769,152.069 107.436,147.735 106.5,143.5C 107.209,142.596 108.209,142.263 109.5,142.5C 109.194,145.385 109.527,148.052 110.5,150.5 Z"/></g>
<g><path style="opacity:1" fill="#62d80c" d="M 124.5,150.5 C 125.833,150.5 127.167,150.5 128.5,150.5C 128.5,154.167 128.5,157.833 128.5,161.5C 127.5,161.5 126.5,161.5 125.5,161.5C 125.058,157.846 124.724,154.179 124.5,150.5 Z"/></g>
<g><path style="opacity:1" fill="#02c200" d="M 167.5,154.5 C 168.485,158.076 169.152,161.742 169.5,165.5C 169.799,167.604 169.466,169.604 168.5,171.5C 165.862,172.704 163.529,174.37 161.5,176.5C 159.604,177.466 157.604,177.799 155.5,177.5C 154.537,171.107 153.204,171.273 151.5,178C 152.097,179.889 152.431,181.722 152.5,183.5C 151.726,184.711 150.893,184.711 150,183.5C 148.915,185.657 147.749,185.824 146.5,184C 150.77,181.074 150.436,179.241 145.5,178.5C 145.795,181.734 145.129,184.734 143.5,187.5C 142.702,187.043 142.369,186.376 142.5,185.5C 143.043,185.44 143.376,185.107 143.5,184.5C 142.675,183.614 141.675,183.281 140.5,183.5C 140.44,182.957 140.107,182.624 139.5,182.5C 138.548,184.045 138.215,185.712 138.5,187.5C 136.5,187.5 134.5,187.5 132.5,187.5C 133.428,184.87 134.428,182.204 135.5,179.5C 136.906,180.668 138.072,180.335 139,178.5C 139.781,177.056 139.614,175.723 138.5,174.5C 134.948,177.911 131.615,181.578 128.5,185.5C 128.167,185.167 127.833,184.833 127.5,184.5C 129.124,183.131 129.624,181.464 129,179.5C 126.705,181.363 124.538,183.363 122.5,185.5C 121.707,184.645 122.04,183.811 123.5,183C 121.939,182.682 120.772,181.849 120,180.5C 118.989,181.337 117.822,181.67 116.5,181.5C 116.5,180.5 116.5,179.5 116.5,178.5C 119.305,177.257 121.471,175.257 123,172.5C 123.5,172.833 124,173.167 124.5,173.5C 122.96,174.532 122.46,175.865 123,177.5C 124.314,178.313 125.481,179.313 126.5,180.5C 127.308,178.577 127.808,176.577 128,174.5C 129.714,173.075 131.047,173.408 132,175.5C 134.291,172.418 136.458,169.251 138.5,166C 139.332,165.312 139.998,165.479 140.5,166.5C 139.5,167.833 138.5,169.167 137.5,170.5C 139.019,169.983 140.352,170.65 141.5,172.5C 142.086,172.291 142.586,171.957 143,171.5C 143.333,169.5 143.667,167.5 144,165.5C 146.018,163.65 147.851,161.65 149.5,159.5C 149.06,160.953 149.726,162.119 151.5,163C 147.318,162.997 145.651,164.83 146.5,168.5C 147.386,167.675 147.719,166.675 147.5,165.5C 151.552,165.888 155.552,166.555 159.5,167.5C 160.308,167.192 160.975,166.692 161.5,166C 160.663,164.989 160.33,163.822 160.5,162.5C 162.665,162.884 164.332,162.217 165.5,160.5C 163.887,160.968 162.387,160.301 161,158.5C 160.53,157.423 160.697,156.423 161.5,155.5C 163.348,155.614 165.348,155.281 167.5,154.5 Z"/></g>
<g><path style="opacity:1" fill="#1ccf02" d="M 76.5,157.5 C 77.1663,161.021 77.8329,164.687 78.5,168.5C 79.48,165.914 79.8134,163.247 79.5,160.5C 79.8333,160.5 80.1667,160.5 80.5,160.5C 80.3379,162.527 80.5045,164.527 81,166.5C 81.3826,167.056 81.8826,167.389 82.5,167.5C 83.209,168.404 84.209,168.737 85.5,168.5C 85.4411,172.046 84.6077,175.379 83,178.5C 80.7625,180.204 78.2625,181.204 75.5,181.5C 76.2309,179.401 76.2309,177.401 75.5,175.5C 74.0019,177.159 72.5019,178.825 71,180.5C 66.1826,178.398 65.3493,175.231 68.5,171C 65.6975,170.976 64.3642,172.476 64.5,175.5C 63.0695,175.579 61.7362,175.246 60.5,174.5C 58.9489,178.19 57.1155,178.19 55,174.5C 54.1635,176.821 53.8301,179.155 54,181.5C 55.2504,182.573 56.5838,182.573 58,181.5C 59.0299,181.836 59.5299,182.503 59.5,183.5C 59.5674,184.959 59.2341,186.292 58.5,187.5C 56.8561,187.286 55.3561,187.62 54,188.5C 53.5065,186.866 53.3398,185.199 53.5,183.5C 50.042,183.369 48.042,184.536 47.5,187C 45.7525,187.352 44.0858,187.852 42.5,188.5C 40.6053,187.027 38.9387,185.36 37.5,183.5C 36.4376,182.425 36.4376,181.425 37.5,180.5C 39.1319,183.146 41.4652,184.479 44.5,184.5C 45.2311,182.251 46.2311,180.084 47.5,178C 46.3619,175.955 44.6953,175.288 42.5,176C 44.1247,176.853 44.4581,177.853 43.5,179C 41.8333,179.667 40.1667,179.667 38.5,179C 39.6872,177.981 40.6872,176.814 41.5,175.5C 40.675,174.614 39.675,174.281 38.5,174.5C 38.7521,177.932 37.4188,178.932 34.5,177.5C 35.1667,176.833 35.8333,176.167 36.5,175.5C 35.4783,174.646 34.6449,173.646 34,172.5C 33.5172,173.448 33.3505,174.448 33.5,175.5C 31.6693,176.052 30.0026,176.052 28.5,175.5C 29.3094,173.929 29.6427,172.262 29.5,170.5C 27.7376,170.357 26.0709,170.691 24.5,171.5C 24.1667,170.167 23.8333,168.833 23.5,167.5C 21.4734,168.513 19.4734,169.513 17.5,170.5C 17.3398,168.801 17.5065,167.134 18,165.5C 19.7985,165.721 21.6318,166.054 23.5,166.5C 24.3279,165.585 25.3279,164.919 26.5,164.5C 28.7277,165.219 30.561,166.552 32,168.5C 33.3333,167.167 34.6667,167.167 36,168.5C 37.0975,167.033 38.5975,166.199 40.5,166C 40.0426,165.586 39.7093,165.086 39.5,164.5C 45.326,162.719 51.1594,162.386 57,163.5C 58.7849,162.76 60.6183,162.093 62.5,161.5C 62.8333,162.167 63.1667,162.833 63.5,163.5C 64.1924,162.975 64.6924,162.308 65,161.5C 65.85,162.424 66.85,162.424 68,161.5C 68.5,161.667 69,161.833 69.5,162C 66.7406,164.484 67.074,165.65 70.5,165.5C 70.3896,168.059 71.0562,170.392 72.5,172.5C 73.4892,168.893 73.8226,165.226 73.5,161.5C 73.2011,159.396 73.5344,157.396 74.5,155.5C 74.9106,156.262 75.0773,157.262 75,158.5C 75.3826,157.944 75.8826,157.611 76.5,157.5 Z"/></g>
<g><path style="opacity:1" fill="#01bb00" d="M 37.5,183.5 C 36.2334,182.913 35.2334,182.913 34.5,183.5C 35.5617,186.103 35.7284,188.77 35,191.5C 33.3829,192.851 32.2162,194.518 31.5,196.5C 31.1667,196.167 30.8333,195.833 30.5,195.5C 31.2173,193.172 32.2173,191.005 33.5,189C 31.8851,185.912 31.2184,186.412 31.5,190.5C 30.1667,190.5 28.8333,190.5 27.5,190.5C 29.1248,194.912 27.7915,197.912 23.5,199.5C 24.0557,195.418 24.2224,191.418 24,187.5C 25.9874,186.782 27.8208,185.782 29.5,184.5C 29,184.167 28.5,183.833 28,183.5C 24.3116,184.782 20.8116,186.115 17.5,187.5C 17.7947,185.265 17.4614,183.265 16.5,181.5C 16.5,177.833 16.5,174.167 16.5,170.5C 16.8333,170.5 17.1667,170.5 17.5,170.5C 19.4734,169.513 21.4734,168.513 23.5,167.5C 23.8333,168.833 24.1667,170.167 24.5,171.5C 26.0709,170.691 27.7376,170.357 29.5,170.5C 29.6427,172.262 29.3094,173.929 28.5,175.5C 30.0026,176.052 31.6693,176.052 33.5,175.5C 33.3505,174.448 33.5172,173.448 34,172.5C 34.6449,173.646 35.4783,174.646 36.5,175.5C 35.8333,176.167 35.1667,176.833 34.5,177.5C 37.4188,178.932 38.7521,177.932 38.5,174.5C 39.675,174.281 40.675,174.614 41.5,175.5C 40.6872,176.814 39.6872,177.981 38.5,179C 40.1667,179.667 41.8333,179.667 43.5,179C 44.4581,177.853 44.1247,176.853 42.5,176C 44.6953,175.288 46.3619,175.955 47.5,178C 46.2311,180.084 45.2311,182.251 44.5,184.5C 41.4652,184.479 39.1319,183.146 37.5,180.5C 36.4376,181.425 36.4376,182.425 37.5,183.5 Z"/></g>
<g><path style="opacity:1" fill="#12c101" d="M 92.5,151.5 C 92.5925,157.516 92.9258,163.516 93.5,169.5C 91.228,169.911 90.8947,171.078 92.5,173C 92.0905,176.706 90.0905,178.539 86.5,178.5C 86.5,180.5 86.5,182.5 86.5,184.5C 90.8865,184.385 93.2199,186.551 93.5,191C 91.4213,191.808 89.4213,191.641 87.5,190.5C 88.4279,189.232 88.5946,187.899 88,186.5C 85.5644,189.31 83.3977,192.31 81.5,195.5C 81.1667,195.167 80.8333,194.833 80.5,194.5C 83.4127,192.099 83.0794,190.766 79.5,190.5C 79.719,191.675 79.3857,192.675 78.5,193.5C 77.7408,190.843 77.0742,188.177 76.5,185.5C 78.4698,184.557 79.9698,185.224 81,187.5C 83.0714,185.545 83.7381,183.212 83,180.5C 82.1667,181.5 81.3333,182.5 80.5,183.5C 78.802,182.319 77.1353,182.319 75.5,183.5C 74.2048,185.328 73.2048,187.328 72.5,189.5C 71.914,189.291 71.414,188.957 71,188.5C 70.7506,191.177 69.7506,193.51 68,195.5C 67,194.5 66,193.5 65,192.5C 63.5057,196.304 62.6724,195.971 62.5,191.5C 62.6107,190.883 62.944,190.383 63.5,190C 62.0494,190.263 60.7161,190.096 59.5,189.5C 61.2514,187.028 62.0847,184.361 62,181.5C 61.2917,182.381 60.4584,183.047 59.5,183.5C 59.5299,182.503 59.0299,181.836 58,181.5C 56.5838,182.573 55.2504,182.573 54,181.5C 53.8301,179.155 54.1635,176.821 55,174.5C 57.1155,178.19 58.9489,178.19 60.5,174.5C 61.7362,175.246 63.0695,175.579 64.5,175.5C 64.3642,172.476 65.6975,170.976 68.5,171C 65.3493,175.231 66.1826,178.398 71,180.5C 72.5019,178.825 74.0019,177.159 75.5,175.5C 76.2309,177.401 76.2309,179.401 75.5,181.5C 78.2625,181.204 80.7625,180.204 83,178.5C 84.6077,175.379 85.4411,172.046 85.5,168.5C 84.209,168.737 83.209,168.404 82.5,167.5C 86.1976,168.32 88.5309,166.987 89.5,163.5C 88.7574,157.863 88.2574,152.196 88,146.5C 87.2828,145.956 86.7828,145.289 86.5,144.5C 87.9187,143.549 89.5853,143.216 91.5,143.5C 91.1936,146.385 91.5269,149.052 92.5,151.5 Z"/></g>
<g><path style="opacity:1" fill="#00af01" d="M 169.5,165.5 C 169.833,165.5 170.167,165.5 170.5,165.5C 170.401,168.237 170.735,170.904 171.5,173.5C 171.54,178.193 171.873,182.859 172.5,187.5C 170.61,185.41 168.943,183.077 167.5,180.5C 166.246,182.259 166.579,183.759 168.5,185C 166.598,185.199 165.098,186.033 164,187.5C 163.735,185.349 162.735,183.682 161,182.5C 160.5,182.833 160,183.167 159.5,183.5C 160.167,184.167 160.833,184.833 161.5,185.5C 159.833,186.5 158.5,187.833 157.5,189.5C 158.833,189.833 160.167,190.167 161.5,190.5C 160.672,191.415 159.672,192.081 158.5,192.5C 157.549,191.674 156.549,191.508 155.5,192C 156.337,193.011 156.67,194.178 156.5,195.5C 151.557,195.712 150.89,194.712 154.5,192.5C 153.332,190.783 151.665,190.116 149.5,190.5C 149.657,189.127 149.49,187.793 149,186.5C 147.26,188.954 145.093,190.454 142.5,191C 141.806,189.298 141.806,187.464 142.5,185.5C 142.369,186.376 142.702,187.043 143.5,187.5C 145.129,184.734 145.795,181.734 145.5,178.5C 150.436,179.241 150.77,181.074 146.5,184C 147.749,185.824 148.915,185.657 150,183.5C 150.893,184.711 151.726,184.711 152.5,183.5C 152.431,181.722 152.097,179.889 151.5,178C 153.204,171.273 154.537,171.107 155.5,177.5C 157.604,177.799 159.604,177.466 161.5,176.5C 163.529,174.37 165.862,172.704 168.5,171.5C 169.466,169.604 169.799,167.604 169.5,165.5 Z"/></g>
<g><path style="opacity:1" fill="#00a701" d="M 93.5,169.5 C 94.1667,169.5 94.8333,169.5 95.5,169.5C 95.3893,170.117 95.056,170.617 94.5,171C 97.1997,171.949 98.033,173.783 97,176.5C 96.5774,175.044 95.7441,174.544 94.5,175C 93.0666,177.709 91.0666,179.875 88.5,181.5C 91.553,183.022 94.2196,185.022 96.5,187.5C 97.2309,185.599 97.2309,183.599 96.5,181.5C 97.8221,181.67 98.9887,181.337 100,180.5C 100.333,178.833 100.667,177.167 101,175.5C 102.019,176.687 103.186,177.687 104.5,178.5C 105.844,181.822 104.844,182.822 101.5,181.5C 100.294,183.484 100.294,185.484 101.5,187.5C 100.833,188.5 100.167,189.5 99.5,190.5C 102.995,190.499 103.328,191.999 100.5,195C 103.838,195.5 105.505,194 105.5,190.5C 107.923,190.576 109.756,189.576 111,187.5C 112.03,187.836 112.53,188.503 112.5,189.5C 111.637,188.537 110.97,188.537 110.5,189.5C 111.132,191.965 112.632,193.631 115,194.5C 115.667,197.167 115.667,199.833 115,202.5C 113.989,203.337 112.822,203.67 111.5,203.5C 112.231,201.401 112.231,199.401 111.5,197.5C 110.5,198.167 109.5,198.833 108.5,199.5C 107.719,198.263 106.719,197.263 105.5,196.5C 105.167,197 104.833,197.5 104.5,198C 105.289,199.626 106.289,201.126 107.5,202.5C 106.237,204.029 105.237,205.695 104.5,207.5C 100.434,207.307 96.4338,207.64 92.5,208.5C 92.7035,206.61 92.0368,205.11 90.5,204C 88.4132,204.218 86.4132,204.051 84.5,203.5C 87.458,201.044 90.2913,198.378 93,195.5C 93.6877,194.668 93.521,194.002 92.5,193.5C 90.11,195.893 87.4433,197.893 84.5,199.5C 80.6748,207.17 75.3415,208.503 68.5,203.5C 67.7701,202.288 66.7701,201.288 65.5,200.5C 65.7093,199.914 66.0426,199.414 66.5,199C 65.3379,198.173 64.1712,197.34 63,196.5C 61.2169,198.397 59.2169,200.063 57,201.5C 56.9271,198.842 57.2604,196.176 58,193.5C 59.4705,192.733 60.9705,192.067 62.5,191.5C 62.6724,195.971 63.5057,196.304 65,192.5C 66,193.5 67,194.5 68,195.5C 69.7506,193.51 70.7506,191.177 71,188.5C 71.414,188.957 71.914,189.291 72.5,189.5C 73.2048,187.328 74.2048,185.328 75.5,183.5C 77.1353,182.319 78.802,182.319 80.5,183.5C 81.3333,182.5 82.1667,181.5 83,180.5C 83.7381,183.212 83.0714,185.545 81,187.5C 79.9698,185.224 78.4698,184.557 76.5,185.5C 77.0742,188.177 77.7408,190.843 78.5,193.5C 79.3857,192.675 79.719,191.675 79.5,190.5C 83.0794,190.766 83.4127,192.099 80.5,194.5C 80.8333,194.833 81.1667,195.167 81.5,195.5C 83.3977,192.31 85.5644,189.31 88,186.5C 88.5946,187.899 88.4279,189.232 87.5,190.5C 89.4213,191.641 91.4213,191.808 93.5,191C 93.2199,186.551 90.8865,184.385 86.5,184.5C 86.5,182.5 86.5,180.5 86.5,178.5C 90.0905,178.539 92.0905,176.706 92.5,173C 90.8947,171.078 91.228,169.911 93.5,169.5 Z"/></g>
<g><path style="opacity:1" fill="#176d22" d="M 16.5,149.5 C 16.5,150.167 16.5,150.833 16.5,151.5C 16.5,153.167 16.5,154.833 16.5,156.5C 16.5,161.167 16.5,165.833 16.5,170.5C 16.5,174.167 16.5,177.833 16.5,181.5C 16.5,192.833 16.5,204.167 16.5,215.5C 36.1328,213.46 55.7994,211.794 75.5,210.5C 81.1667,209.833 86.8333,209.167 92.5,208.5C 96.4338,207.64 100.434,207.307 104.5,207.5C 127.433,205.12 150.433,202.953 173.5,201C 174.439,196.482 174.106,191.982 172.5,187.5C 171.873,182.859 171.54,178.193 171.5,173.5C 173.616,182.954 175.283,192.621 176.5,202.5C 122.811,206.92 69.1442,211.586 15.5,216.5C 15.5,214.833 15.5,213.167 15.5,211.5C 15.5,211.167 15.5,210.833 15.5,210.5C 15.1695,189.993 15.5028,169.66 16.5,149.5 Z"/></g>
<g><path style="opacity:1" fill="#008e00" d="M 172.5,187.5 C 174.106,191.982 174.439,196.482 173.5,201C 150.433,202.953 127.433,205.12 104.5,207.5C 105.237,205.695 106.237,204.029 107.5,202.5C 106.289,201.126 105.289,199.626 104.5,198C 104.833,197.5 105.167,197 105.5,196.5C 106.719,197.263 107.719,198.263 108.5,199.5C 109.5,198.833 110.5,198.167 111.5,197.5C 112.231,199.401 112.231,201.401 111.5,203.5C 112.822,203.67 113.989,203.337 115,202.5C 115.667,199.833 115.667,197.167 115,194.5C 112.632,193.631 111.132,191.965 110.5,189.5C 110.97,188.537 111.637,188.537 112.5,189.5C 112.833,190.5 113.5,191.167 114.5,191.5C 115.209,192.404 116.209,192.737 117.5,192.5C 117.144,195.564 117.977,198.231 120,200.5C 120.49,199.207 120.657,197.873 120.5,196.5C 121.5,196.5 122.5,196.5 123.5,196.5C 123.34,194.801 123.506,193.134 124,191.5C 124.689,192.357 125.522,193.023 126.5,193.5C 126.833,192.167 127.167,190.833 127.5,189.5C 131.068,191.304 131.402,193.637 128.5,196.5C 128.667,197.5 128.833,198.5 129,199.5C 134.058,197.327 136.225,193.66 135.5,188.5C 136.85,189.95 138.516,190.617 140.5,190.5C 140.5,188.167 140.5,185.833 140.5,183.5C 141.675,183.281 142.675,183.614 143.5,184.5C 143.376,185.107 143.043,185.44 142.5,185.5C 141.806,187.464 141.806,189.298 142.5,191C 145.093,190.454 147.26,188.954 149,186.5C 149.49,187.793 149.657,189.127 149.5,190.5C 151.665,190.116 153.332,190.783 154.5,192.5C 150.89,194.712 151.557,195.712 156.5,195.5C 156.67,194.178 156.337,193.011 155.5,192C 156.549,191.508 157.549,191.674 158.5,192.5C 159.672,192.081 160.672,191.415 161.5,190.5C 160.167,190.167 158.833,189.833 157.5,189.5C 158.5,187.833 159.833,186.5 161.5,185.5C 160.833,184.833 160.167,184.167 159.5,183.5C 160,183.167 160.5,182.833 161,182.5C 162.735,183.682 163.735,185.349 164,187.5C 165.098,186.033 166.598,185.199 168.5,185C 166.579,183.759 166.246,182.259 167.5,180.5C 168.943,183.077 170.61,185.41 172.5,187.5 Z"/></g>
<g><path style="opacity:1" fill="#008100" d="M 92.5,208.5 C 86.8333,209.167 81.1667,209.833 75.5,210.5C 75.5858,209.504 75.2524,208.671 74.5,208C 71.4111,207.082 68.4111,205.915 65.5,204.5C 66.325,203.614 67.325,203.281 68.5,203.5C 75.3415,208.503 80.6748,207.17 84.5,199.5C 87.4433,197.893 90.11,195.893 92.5,193.5C 93.521,194.002 93.6877,194.668 93,195.5C 90.2913,198.378 87.458,201.044 84.5,203.5C 86.4132,204.051 88.4132,204.218 90.5,204C 92.0368,205.11 92.7035,206.61 92.5,208.5 Z"/></g>
<g><path style="opacity:1" fill="#00a701" d="M 140.5,183.5 C 140.5,185.833 140.5,188.167 140.5,190.5C 138.516,190.617 136.85,189.95 135.5,188.5C 136.225,193.66 134.058,197.327 129,199.5C 128.833,198.5 128.667,197.5 128.5,196.5C 131.402,193.637 131.068,191.304 127.5,189.5C 127.167,190.833 126.833,192.167 126.5,193.5C 125.522,193.023 124.689,192.357 124,191.5C 123.506,193.134 123.34,194.801 123.5,196.5C 122.5,196.5 121.5,196.5 120.5,196.5C 120.657,197.873 120.49,199.207 120,200.5C 117.977,198.231 117.144,195.564 117.5,192.5C 116.209,192.737 115.209,192.404 114.5,191.5C 115.434,190.432 115.768,189.099 115.5,187.5C 116.873,187.657 118.207,187.49 119.5,187C 115.718,186.212 113.218,184.045 112,180.5C 105.117,186.152 104.284,185.652 109.5,179C 111.843,177.585 114.177,177.418 116.5,178.5C 116.5,179.5 116.5,180.5 116.5,181.5C 117.822,181.67 118.989,181.337 120,180.5C 120.772,181.849 121.939,182.682 123.5,183C 122.04,183.811 121.707,184.645 122.5,185.5C 124.538,183.363 126.705,181.363 129,179.5C 129.624,181.464 129.124,183.131 127.5,184.5C 127.833,184.833 128.167,185.167 128.5,185.5C 131.615,181.578 134.948,177.911 138.5,174.5C 139.614,175.723 139.781,177.056 139,178.5C 138.072,180.335 136.906,180.668 135.5,179.5C 134.428,182.204 133.428,184.87 132.5,187.5C 134.5,187.5 136.5,187.5 138.5,187.5C 138.215,185.712 138.548,184.045 139.5,182.5C 140.107,182.624 140.44,182.957 140.5,183.5 Z"/></g>
<g><path style="opacity:1" fill="#009b01" d="M 16.5,181.5 C 17.4614,183.265 17.7947,185.265 17.5,187.5C 20.8116,186.115 24.3116,184.782 28,183.5C 28.5,183.833 29,184.167 29.5,184.5C 27.8208,185.782 25.9874,186.782 24,187.5C 24.2224,191.418 24.0557,195.418 23.5,199.5C 27.7915,197.912 29.1248,194.912 27.5,190.5C 28.8333,190.5 30.1667,190.5 31.5,190.5C 31.2184,186.412 31.8851,185.912 33.5,189C 32.2173,191.005 31.2173,193.172 30.5,195.5C 30.8333,195.833 31.1667,196.167 31.5,196.5C 32.2162,194.518 33.3829,192.851 35,191.5C 35.7284,188.77 35.5617,186.103 34.5,183.5C 35.2334,182.913 36.2334,182.913 37.5,183.5C 38.9387,185.36 40.6053,187.027 42.5,188.5C 44.2351,190.235 45.5684,192.235 46.5,194.5C 46.378,196.994 45.378,197.661 43.5,196.5C 44.2458,195.264 44.5792,193.93 44.5,192.5C 42.1331,191.836 40.1331,190.503 38.5,188.5C 37.8265,190.689 36.8265,192.689 35.5,194.5C 36.9171,197.67 38.5838,200.67 40.5,203.5C 41.1667,201.833 41.8333,200.167 42.5,198.5C 45.2947,200.515 45.9614,203.015 44.5,206C 45.5,206.667 46.5,206.667 47.5,206C 51.7265,201.358 54.2265,195.858 55,189.5C 55.3076,190.308 55.8076,190.975 56.5,191.5C 57.3624,190.234 58.0291,188.901 58.5,187.5C 59.2341,186.292 59.5674,184.959 59.5,183.5C 60.4584,183.047 61.2917,182.381 62,181.5C 62.0847,184.361 61.2514,187.028 59.5,189.5C 60.7161,190.096 62.0494,190.263 63.5,190C 62.944,190.383 62.6107,190.883 62.5,191.5C 60.9705,192.067 59.4705,192.733 58,193.5C 57.2604,196.176 56.9271,198.842 57,201.5C 59.2169,200.063 61.2169,198.397 63,196.5C 64.1712,197.34 65.3379,198.173 66.5,199C 66.0426,199.414 65.7093,199.914 65.5,200.5C 66.7701,201.288 67.7701,202.288 68.5,203.5C 67.325,203.281 66.325,203.614 65.5,204.5C 68.4111,205.915 71.4111,207.082 74.5,208C 75.2524,208.671 75.5858,209.504 75.5,210.5C 55.7994,211.794 36.1328,213.46 16.5,215.5C 16.5,204.167 16.5,192.833 16.5,181.5 Z"/></g>
<g><path style="opacity:1" fill="#00b101" d="M 58.5,187.5 C 58.0291,188.901 57.3624,190.234 56.5,191.5C 55.8076,190.975 55.3076,190.308 55,189.5C 54.2265,195.858 51.7265,201.358 47.5,206C 46.5,206.667 45.5,206.667 44.5,206C 45.9614,203.015 45.2947,200.515 42.5,198.5C 41.8333,200.167 41.1667,201.833 40.5,203.5C 38.5838,200.67 36.9171,197.67 35.5,194.5C 36.8265,192.689 37.8265,190.689 38.5,188.5C 40.1331,190.503 42.1331,191.836 44.5,192.5C 44.5792,193.93 44.2458,195.264 43.5,196.5C 45.378,197.661 46.378,196.994 46.5,194.5C 45.5684,192.235 44.2351,190.235 42.5,188.5C 44.0858,187.852 45.7525,187.352 47.5,187C 48.042,184.536 50.042,183.369 53.5,183.5C 53.3398,185.199 53.5065,186.866 54,188.5C 55.3561,187.62 56.8561,187.286 58.5,187.5 Z"/></g>
<g><path style="opacity:0.314" fill="#5e5f62" d="M 168.5,127.5 C 168.833,127.5 169.167,127.5 169.5,127.5C 171.166,132.825 172.833,138.158 174.5,143.5C 173.503,143.47 172.836,143.97 172.5,145C 173.108,147.553 173.775,150.053 174.5,152.5C 177.709,169.751 180.709,187.084 183.5,204.5C 183.61,206.374 182.944,207.874 181.5,209C 125.167,214.967 68.8333,220.8 12.5,226.5C 12.5,224.5 12.5,222.5 12.5,220.5C 12.8333,220.5 13.1667,220.5 13.5,220.5C 15.7354,220.795 17.7354,220.461 19.5,219.5C 72.453,213.987 125.453,208.987 178.5,204.5C 174.998,179.818 171.331,155.151 167.5,130.5C 168.11,129.609 168.443,128.609 168.5,127.5 Z"/></g>
<g><path style="opacity:1" fill="#dce4e2" d="M 167.5,130.5 C 171.331,155.151 174.998,179.818 178.5,204.5C 125.453,208.987 72.453,213.987 19.5,219.5C 17.8333,219.5 16.1667,219.5 14.5,219.5C 14.1936,216.615 14.5269,213.948 15.5,211.5C 15.5,213.167 15.5,214.833 15.5,216.5C 69.1442,211.586 122.811,206.92 176.5,202.5C 175.283,192.621 173.616,182.954 171.5,173.5C 170.735,170.904 170.401,168.237 170.5,165.5C 170.106,157.106 168.44,149.106 165.5,141.5C 165.721,138.721 165.388,136.054 164.5,133.5C 165.167,132.167 166.167,131.167 167.5,130.5 Z"/></g>
</svg>
