<svg id="svg" version="1.1" xmlns="http://www.w3.org/2000/svg" xmlns:xlink="http://www.w3.org/1999/xlink" width="400" height="400" viewBox="0, 0, 400,400"><g id="svgg"><path id="path0" d="M290.200 76.439 C 269.379 78.646,257.257 101.407,267.061 119.887 C 273.971 132.913,288.973 138.946,303.003 134.340 C 306.953 133.043,307.176 133.425,295.852 122.108 C 287.861 114.122,285.600 111.640,285.600 110.853 C 285.600 110.060,288.423 107.016,298.700 96.723 C 305.905 89.507,311.853 83.362,311.917 83.066 C 312.120 82.133,306.870 78.976,303.288 77.877 C 298.018 76.261,295.004 75.930,290.200 76.439 M303.263 98.456 C 296.628 105.087,291.200 110.759,291.200 111.060 C 291.200 111.666,309.792 130.400,310.393 130.400 C 311.128 130.400,315.028 126.919,316.917 124.577 C 325.313 114.168,325.486 97.556,317.299 87.990 C 315.498 85.887,316.841 84.885,303.263 98.456 M316.632 102.700 C 319.481 108.606,315.387 118.428,311.531 114.938 C 310.540 114.041,310.611 113.093,311.834 110.903 C 312.897 108.998,312.936 108.195,312.177 103.894 C 311.635 100.824,315.259 99.853,316.632 102.700 M249.800 122.579 C 246.180 123.379,242.657 124.899,236.875 128.155 C 233.619 129.989,223.724 137.108,219.399 140.729 C 209.870 148.708,206.620 151.539,201.601 156.232 C 200.170 157.569,198.012 159.549,196.804 160.632 C 194.674 162.540,175.658 180.772,170.400 185.947 C 168.970 187.354,167.859 188.779,167.931 189.112 C 168.109 189.933,182.235 204.000,182.881 204.000 C 183.163 204.000,200.226 187.187,220.797 166.638 C 258.465 129.011,259.493 128.054,262.900 127.436 C 264.914 127.071,264.799 126.336,262.500 124.879 C 258.668 122.451,254.112 121.626,249.800 122.579 M263.800 131.551 C 263.140 131.722,262.150 132.116,261.600 132.427 C 260.327 133.145,186.400 206.853,186.400 207.404 C 186.400 207.978,194.908 216.400,195.487 216.400 C 195.748 216.400,198.156 214.465,200.839 212.100 C 203.521 209.735,207.373 206.360,209.400 204.600 C 211.426 202.840,218.105 196.991,224.242 191.603 C 234.036 183.003,236.698 180.660,238.561 179.000 C 238.808 178.780,240.448 177.342,242.205 175.804 C 243.962 174.265,245.490 172.915,245.600 172.804 C 245.710 172.692,247.240 171.342,249.000 169.804 C 250.760 168.265,252.290 166.915,252.400 166.804 C 252.510 166.692,253.860 165.521,255.400 164.203 C 256.940 162.884,258.990 161.084,259.955 160.203 C 262.469 157.907,262.353 158.008,265.200 155.607 C 275.014 147.328,276.881 144.718,276.256 140.155 C 275.459 134.342,269.335 130.112,263.800 131.551 M274.800 152.836 C 274.030 153.508,272.590 154.814,271.600 155.736 C 270.610 156.659,268.631 158.401,267.202 159.607 C 265.773 160.813,264.243 162.132,263.802 162.538 C 263.361 162.944,261.927 164.204,260.615 165.338 C 259.304 166.472,257.324 168.215,256.215 169.211 C 255.107 170.207,252.760 172.276,251.000 173.808 C 249.240 175.340,247.710 176.690,247.600 176.809 C 247.413 177.012,240.117 183.419,236.632 186.441 C 234.371 188.402,227.836 194.159,227.600 194.398 C 227.359 194.642,221.948 199.383,220.035 201.027 C 219.284 201.672,216.937 203.730,214.819 205.600 C 206.705 212.763,202.540 216.383,200.936 217.668 C 198.171 219.882,198.137 219.808,205.208 226.857 C 208.708 230.346,211.829 233.200,212.144 233.200 C 212.691 233.200,241.070 205.218,245.620 200.192 C 246.819 198.867,249.060 196.369,250.600 194.639 C 252.140 192.909,253.580 191.293,253.800 191.047 C 254.020 190.800,254.883 189.749,255.719 188.709 C 256.554 187.670,257.465 186.590,257.744 186.310 C 258.023 186.029,258.870 184.972,259.626 183.959 C 260.382 182.947,262.049 180.724,263.332 179.020 C 268.055 172.744,275.200 160.348,275.200 158.430 C 275.200 158.188,275.372 157.677,275.583 157.295 C 275.935 156.655,277.200 152.387,277.200 151.838 C 277.200 151.251,276.083 151.715,274.800 152.836 M154.300 201.952 C 143.348 212.946,142.921 213.712,148.285 212.746 C 149.558 212.517,151.429 212.180,152.443 211.998 C 153.457 211.815,154.987 211.482,155.843 211.257 C 157.472 210.828,158.900 210.510,164.200 209.396 C 167.831 208.632,169.102 208.346,172.866 207.441 C 174.332 207.088,175.997 206.800,176.566 206.800 C 177.293 206.800,177.600 206.587,177.600 206.084 C 177.600 205.363,164.867 192.394,164.173 192.407 C 163.968 192.412,159.525 196.706,154.300 201.952 M177.494 215.906 C 170.678 222.737,170.763 223.157,178.600 221.402 C 179.920 221.106,182.080 220.649,183.400 220.384 C 187.142 219.635,190.400 218.722,190.400 218.421 C 190.400 218.138,183.032 210.800,182.748 210.800 C 182.660 210.800,180.296 213.098,177.494 215.906 M192.800 222.671 C 192.250 222.761,190.630 223.103,189.200 223.433 C 187.770 223.763,185.790 224.203,184.800 224.412 C 182.952 224.802,178.638 225.744,175.800 226.378 C 174.920 226.574,173.120 226.953,171.800 227.219 C 170.480 227.485,168.320 227.961,167.000 228.276 L 164.600 228.849 133.701 259.722 L 102.802 290.596 113.098 300.898 C 123.296 311.101,124.325 311.915,125.520 310.720 C 126.327 309.913,126.254 309.437,123.775 299.484 C 121.942 292.122,122.164 291.573,128.200 288.546 C 132.400 286.439,139.688 282.612,142.276 281.155 C 143.114 280.683,145.150 279.569,146.800 278.679 C 148.450 277.789,150.471 276.642,151.292 276.130 C 152.113 275.619,152.886 275.200,153.011 275.200 C 153.136 275.200,154.223 274.570,155.427 273.800 C 156.631 273.030,157.706 272.400,157.817 272.400 C 158.464 272.400,183.806 256.088,186.068 254.215 C 186.436 253.911,187.097 253.469,187.537 253.234 C 187.977 252.998,188.577 252.567,188.869 252.276 C 189.161 251.985,189.940 251.402,190.600 250.980 C 191.731 250.258,196.767 246.463,197.200 246.006 C 197.310 245.890,198.120 245.266,199.000 244.619 C 199.880 243.972,200.690 243.336,200.800 243.207 C 200.910 243.077,202.390 241.845,204.089 240.469 C 209.259 236.281,209.496 237.306,201.507 229.307 C 197.713 225.508,194.427 222.425,194.204 222.454 C 193.982 222.484,193.350 222.582,192.800 222.671 M91.696 301.704 C 81.847 311.562,81.828 310.934,92.000 311.582 C 95.630 311.813,100.850 312.177,103.600 312.390 C 106.350 312.603,110.400 312.884,112.600 313.013 C 114.800 313.143,117.007 313.348,117.505 313.469 C 118.252 313.651,118.364 313.560,118.152 312.944 C 117.910 312.244,100.044 294.000,99.599 294.000 C 99.486 294.000,95.929 297.467,91.696 301.704 " stroke="none" fill="#ffffff" fill-rule="evenodd"></path><path id="path1" d="M196.545 1.000 C 196.350 1.508,194.972 1.600,187.557 1.600 C 181.986 1.600,178.800 1.746,178.800 2.000 C 178.800 2.240,177.200 2.400,174.800 2.400 C 171.511 2.400,170.800 2.507,170.800 3.000 C 170.800 3.480,170.200 3.600,167.800 3.600 C 166.067 3.600,164.800 3.769,164.800 4.000 C 164.800 4.229,163.596 4.400,161.987 4.400 C 159.856 4.400,159.119 4.545,158.945 5.000 C 158.783 5.420,158.128 5.600,156.757 5.600 C 155.681 5.600,154.800 5.780,154.800 6.000 C 154.800 6.220,154.009 6.400,153.043 6.400 C 151.850 6.400,151.212 6.593,151.055 7.000 C 150.898 7.411,150.255 7.600,149.013 7.600 C 148.016 7.600,147.200 7.780,147.200 8.000 C 147.200 8.220,146.300 8.400,145.200 8.400 C 143.689 8.400,143.200 8.547,143.200 9.000 C 143.200 9.433,142.756 9.600,141.600 9.600 C 140.720 9.600,140.000 9.780,140.000 10.000 C 140.000 10.220,139.370 10.400,138.600 10.400 C 137.830 10.400,137.200 10.580,137.200 10.800 C 137.200 11.020,136.673 11.200,136.029 11.200 C 135.384 11.200,134.587 11.470,134.257 11.800 C 133.927 12.130,133.104 12.400,132.429 12.400 C 131.753 12.400,131.200 12.580,131.200 12.800 C 131.200 13.020,130.763 13.200,130.229 13.200 C 129.694 13.200,128.987 13.470,128.657 13.800 C 128.327 14.130,127.684 14.400,127.229 14.400 C 126.773 14.400,126.400 14.580,126.400 14.800 C 126.400 15.020,125.873 15.200,125.229 15.200 C 124.584 15.200,123.787 15.470,123.457 15.800 C 123.127 16.130,122.484 16.400,122.029 16.400 C 121.573 16.400,121.200 16.580,121.200 16.800 C 121.200 17.020,120.834 17.200,120.387 17.200 C 119.941 17.200,119.471 17.470,119.345 17.800 C 119.218 18.130,118.684 18.400,118.157 18.400 C 117.631 18.400,117.200 18.580,117.200 18.800 C 117.200 19.020,116.654 19.200,115.987 19.200 C 115.279 19.200,114.679 19.449,114.545 19.800 C 114.418 20.130,113.884 20.400,113.357 20.400 C 112.831 20.400,112.400 20.580,112.400 20.800 C 112.400 21.020,112.034 21.200,111.587 21.200 C 111.141 21.200,110.671 21.470,110.545 21.800 C 110.418 22.130,109.884 22.400,109.357 22.400 C 108.831 22.400,108.400 22.580,108.400 22.800 C 108.400 23.020,108.034 23.200,107.587 23.200 C 107.141 23.200,106.671 23.470,106.545 23.800 C 106.418 24.130,105.961 24.400,105.529 24.400 C 104.679 24.400,103.600 25.279,103.600 25.971 C 103.600 26.207,103.150 26.400,102.600 26.400 C 102.050 26.400,101.600 26.580,101.600 26.800 C 101.600 27.020,101.150 27.200,100.600 27.200 C 99.978 27.200,99.600 27.427,99.600 27.800 C 99.600 28.173,99.222 28.400,98.600 28.400 C 98.050 28.400,97.600 28.580,97.600 28.800 C 97.600 29.020,97.349 29.200,97.043 29.200 C 96.736 29.200,96.382 29.470,96.255 29.800 C 96.129 30.130,95.699 30.400,95.301 30.400 C 94.903 30.400,94.317 30.760,94.000 31.200 C 93.683 31.640,93.097 32.000,92.699 32.000 C 92.301 32.000,91.871 32.270,91.745 32.600 C 91.618 32.930,91.161 33.200,90.729 33.200 C 89.879 33.200,88.800 34.079,88.800 34.771 C 88.800 35.007,88.416 35.200,87.947 35.200 C 87.478 35.200,86.500 35.830,85.774 36.600 C 85.048 37.370,84.082 38.000,83.627 38.000 C 83.159 38.000,82.800 38.260,82.800 38.600 C 82.800 38.930,82.607 39.200,82.371 39.200 C 81.818 39.200,80.800 40.218,80.800 40.771 C 80.800 41.007,80.350 41.200,79.800 41.200 C 79.250 41.200,78.800 41.380,78.800 41.600 C 78.800 41.820,78.530 42.000,78.200 42.000 C 77.870 42.000,77.600 42.193,77.600 42.429 C 77.600 43.134,76.514 44.000,75.629 44.000 C 75.159 44.000,74.800 44.260,74.800 44.600 C 74.800 44.930,74.607 45.200,74.371 45.200 C 73.818 45.200,72.800 46.218,72.800 46.771 C 72.800 47.007,72.607 47.200,72.371 47.200 C 71.818 47.200,70.800 48.218,70.800 48.771 C 70.800 49.007,70.439 49.200,69.997 49.200 C 69.536 49.200,68.005 50.392,66.400 52.000 C 64.863 53.540,63.424 54.800,63.203 54.800 C 62.981 54.800,62.800 54.993,62.800 55.229 C 62.800 55.782,61.782 56.800,61.229 56.800 C 60.993 56.800,60.800 56.993,60.800 57.229 C 60.800 57.782,59.782 58.800,59.229 58.800 C 58.993 58.800,58.800 58.993,58.800 59.229 C 58.800 59.782,57.782 60.800,57.229 60.800 C 56.993 60.800,56.800 60.993,56.800 61.229 C 56.800 61.782,55.782 62.800,55.229 62.800 C 54.993 62.800,54.800 62.981,54.800 63.203 C 54.800 63.424,53.540 64.863,52.000 66.400 C 50.392 68.005,49.200 69.536,49.200 69.997 C 49.200 70.439,49.007 70.800,48.771 70.800 C 48.218 70.800,47.200 71.818,47.200 72.371 C 47.200 72.607,47.007 72.800,46.771 72.800 C 46.218 72.800,45.200 73.818,45.200 74.371 C 45.200 74.607,44.930 74.800,44.600 74.800 C 44.260 74.800,44.000 75.159,44.000 75.629 C 44.000 76.514,43.134 77.600,42.429 77.600 C 42.193 77.600,42.000 77.827,42.000 78.105 C 42.000 78.383,41.550 78.948,41.000 79.361 C 40.450 79.774,40.000 80.447,40.000 80.856 C 40.000 81.265,39.820 81.600,39.600 81.600 C 39.380 81.600,39.200 81.870,39.200 82.200 C 39.200 82.530,38.930 82.800,38.600 82.800 C 38.260 82.800,38.000 83.159,38.000 83.629 C 38.000 84.514,37.134 85.600,36.429 85.600 C 36.193 85.600,36.000 85.870,36.000 86.200 C 36.000 86.530,35.820 86.800,35.600 86.800 C 35.380 86.800,35.200 87.250,35.200 87.800 C 35.200 88.350,35.007 88.800,34.771 88.800 C 34.127 88.800,33.200 89.856,33.200 90.591 C 33.200 90.947,32.750 91.655,32.200 92.165 C 31.650 92.675,31.200 93.386,31.200 93.746 C 31.200 94.106,31.020 94.400,30.800 94.400 C 30.580 94.400,30.400 94.766,30.400 95.213 C 30.400 95.659,30.130 96.129,29.800 96.255 C 29.470 96.382,29.200 96.736,29.200 97.043 C 29.200 97.349,29.020 97.600,28.800 97.600 C 28.580 97.600,28.400 98.050,28.400 98.600 C 28.400 99.222,28.173 99.600,27.800 99.600 C 27.427 99.600,27.200 99.978,27.200 100.600 C 27.200 101.150,27.020 101.600,26.800 101.600 C 26.580 101.600,26.400 102.050,26.400 102.600 C 26.400 103.150,26.207 103.600,25.971 103.600 C 25.279 103.600,24.400 104.679,24.400 105.529 C 24.400 105.961,24.130 106.418,23.800 106.545 C 23.470 106.671,23.200 107.141,23.200 107.587 C 23.200 108.034,23.020 108.400,22.800 108.400 C 22.580 108.400,22.400 108.850,22.400 109.400 C 22.400 110.022,22.173 110.400,21.800 110.400 C 21.427 110.400,21.200 110.778,21.200 111.400 C 21.200 111.950,21.020 112.400,20.800 112.400 C 20.580 112.400,20.400 112.831,20.400 113.357 C 20.400 113.884,20.130 114.418,19.800 114.545 C 19.470 114.671,19.200 115.141,19.200 115.587 C 19.200 116.034,19.020 116.400,18.800 116.400 C 18.580 116.400,18.400 117.030,18.400 117.800 C 18.400 118.778,18.219 119.200,17.800 119.200 C 17.427 119.200,17.200 119.578,17.200 120.200 C 17.200 120.750,17.020 121.200,16.800 121.200 C 16.580 121.200,16.400 121.573,16.400 122.029 C 16.400 122.484,16.130 123.127,15.800 123.457 C 15.470 123.787,15.200 124.584,15.200 125.229 C 15.200 125.873,15.020 126.400,14.800 126.400 C 14.580 126.400,14.400 126.773,14.400 127.229 C 14.400 127.684,14.130 128.327,13.800 128.657 C 13.470 128.987,13.200 129.694,13.200 130.229 C 13.200 130.763,13.020 131.200,12.800 131.200 C 12.580 131.200,12.400 131.830,12.400 132.600 C 12.400 133.370,12.222 134.000,12.005 134.000 C 11.787 134.000,11.494 134.720,11.354 135.600 C 11.213 136.480,10.941 137.200,10.749 137.200 C 10.557 137.200,10.400 137.830,10.400 138.600 C 10.400 139.370,10.220 140.000,10.000 140.000 C 9.780 140.000,9.600 140.720,9.600 141.600 C 9.600 142.756,9.433 143.200,9.000 143.200 C 8.547 143.200,8.400 143.689,8.400 145.200 C 8.400 146.300,8.220 147.200,8.000 147.200 C 7.780 147.200,7.600 148.016,7.600 149.013 C 7.600 150.255,7.411 150.898,7.000 151.055 C 6.593 151.212,6.400 151.850,6.400 153.043 C 6.400 154.009,6.220 154.800,6.000 154.800 C 5.774 154.800,5.600 155.933,5.600 157.400 C 5.600 159.444,5.472 160.000,5.000 160.000 C 4.533 160.000,4.400 160.533,4.400 162.400 C 4.400 163.733,4.222 164.800,4.000 164.800 C 3.769 164.800,3.600 166.052,3.600 167.757 C 3.600 170.017,3.458 170.769,3.000 170.945 C 2.519 171.129,2.400 172.012,2.400 175.387 C 2.400 177.929,2.241 179.600,2.000 179.600 C 1.745 179.600,1.600 182.867,1.600 188.600 C 1.600 196.333,1.516 197.600,1.000 197.600 C 0.127 197.600,0.127 203.120,1.000 203.455 C 1.508 203.650,1.600 205.028,1.600 212.443 C 1.600 218.014,1.746 221.200,2.000 221.200 C 2.240 221.200,2.400 222.800,2.400 225.200 C 2.400 228.489,2.507 229.200,3.000 229.200 C 3.480 229.200,3.600 229.800,3.600 232.200 C 3.600 233.933,3.769 235.200,4.000 235.200 C 4.229 235.200,4.400 236.404,4.400 238.013 C 4.400 240.144,4.545 240.881,5.000 241.055 C 5.420 241.217,5.600 241.872,5.600 243.243 C 5.600 244.319,5.780 245.200,6.000 245.200 C 6.220 245.200,6.400 246.016,6.400 247.013 C 6.400 248.255,6.589 248.898,7.000 249.055 C 7.407 249.212,7.600 249.850,7.600 251.043 C 7.600 252.009,7.780 252.800,8.000 252.800 C 8.220 252.800,8.400 253.700,8.400 254.800 C 8.400 256.311,8.547 256.800,9.000 256.800 C 9.433 256.800,9.600 257.244,9.600 258.400 C 9.600 259.280,9.780 260.000,10.000 260.000 C 10.220 260.000,10.400 260.630,10.400 261.400 C 10.400 262.170,10.580 262.800,10.800 262.800 C 11.020 262.800,11.200 263.327,11.200 263.971 C 11.200 264.616,11.470 265.413,11.800 265.743 C 12.130 266.073,12.400 266.896,12.400 267.571 C 12.400 268.247,12.580 268.800,12.800 268.800 C 13.020 268.800,13.200 269.237,13.200 269.771 C 13.200 270.306,13.470 271.013,13.800 271.343 C 14.130 271.673,14.400 272.316,14.400 272.771 C 14.400 273.227,14.580 273.600,14.800 273.600 C 15.020 273.600,15.200 274.127,15.200 274.771 C 15.200 275.416,15.470 276.213,15.800 276.543 C 16.130 276.873,16.400 277.516,16.400 277.971 C 16.400 278.427,16.580 278.800,16.800 278.800 C 17.020 278.800,17.200 279.166,17.200 279.613 C 17.200 280.059,17.470 280.529,17.800 280.655 C 18.130 280.782,18.400 281.316,18.400 281.843 C 18.400 282.369,18.580 282.800,18.800 282.800 C 19.020 282.800,19.200 283.346,19.200 284.013 C 19.200 284.721,19.449 285.321,19.800 285.455 C 20.130 285.582,20.400 286.116,20.400 286.643 C 20.400 287.169,20.580 287.600,20.800 287.600 C 21.020 287.600,21.200 287.966,21.200 288.413 C 21.200 288.859,21.470 289.329,21.800 289.455 C 22.130 289.582,22.400 290.116,22.400 290.643 C 22.400 291.169,22.580 291.600,22.800 291.600 C 23.020 291.600,23.200 291.966,23.200 292.413 C 23.200 292.859,23.470 293.329,23.800 293.455 C 24.130 293.582,24.400 294.039,24.400 294.471 C 24.400 295.321,25.279 296.400,25.971 296.400 C 26.207 296.400,26.400 296.850,26.400 297.400 C 26.400 297.950,26.580 298.400,26.800 298.400 C 27.020 298.400,27.200 298.850,27.200 299.400 C 27.200 300.022,27.427 300.400,27.800 300.400 C 28.173 300.400,28.400 300.778,28.400 301.400 C 28.400 301.950,28.580 302.400,28.800 302.400 C 29.020 302.400,29.200 302.651,29.200 302.957 C 29.200 303.264,29.470 303.618,29.800 303.745 C 30.130 303.871,30.400 304.301,30.400 304.699 C 30.400 305.097,30.760 305.683,31.200 306.000 C 31.640 306.317,32.000 306.903,32.000 307.301 C 32.000 307.699,32.270 308.129,32.600 308.255 C 32.930 308.382,33.200 308.839,33.200 309.271 C 33.200 310.121,34.079 311.200,34.771 311.200 C 35.007 311.200,35.200 311.584,35.200 312.053 C 35.200 312.522,35.830 313.500,36.600 314.226 C 37.370 314.952,38.000 315.918,38.000 316.373 C 38.000 316.841,38.260 317.200,38.600 317.200 C 38.930 317.200,39.200 317.393,39.200 317.629 C 39.200 318.182,40.218 319.200,40.771 319.200 C 41.007 319.200,41.200 319.650,41.200 320.200 C 41.200 320.750,41.380 321.200,41.600 321.200 C 41.820 321.200,42.000 321.470,42.000 321.800 C 42.000 322.130,42.193 322.400,42.429 322.400 C 43.134 322.400,44.000 323.486,44.000 324.371 C 44.000 324.841,44.260 325.200,44.600 325.200 C 44.930 325.200,45.200 325.393,45.200 325.629 C 45.200 326.182,46.218 327.200,46.771 327.200 C 47.007 327.200,47.200 327.393,47.200 327.629 C 47.200 328.182,48.218 329.200,48.771 329.200 C 49.007 329.200,49.200 329.561,49.200 330.003 C 49.200 330.464,50.392 331.995,52.000 333.600 C 53.540 335.137,54.800 336.576,54.800 336.797 C 54.800 337.019,54.993 337.200,55.229 337.200 C 55.782 337.200,56.800 338.218,56.800 338.771 C 56.800 339.007,56.993 339.200,57.229 339.200 C 57.782 339.200,58.800 340.218,58.800 340.771 C 58.800 341.007,58.993 341.200,59.229 341.200 C 59.782 341.200,60.800 342.218,60.800 342.771 C 60.800 343.007,60.993 343.200,61.229 343.200 C 61.782 343.200,62.800 344.218,62.800 344.771 C 62.800 345.007,62.981 345.200,63.203 345.200 C 63.424 345.200,64.851 346.460,66.373 348.000 C 67.894 349.540,69.333 350.800,69.570 350.800 C 69.806 350.800,70.000 351.070,70.000 351.400 C 70.000 351.733,70.356 352.000,70.800 352.000 C 71.240 352.000,71.600 352.180,71.600 352.400 C 71.600 352.620,71.870 352.800,72.200 352.800 C 72.530 352.800,72.800 352.993,72.800 353.229 C 72.800 353.782,73.818 354.800,74.371 354.800 C 74.607 354.800,74.800 355.070,74.800 355.400 C 74.800 355.740,75.159 356.000,75.629 356.000 C 76.514 356.000,77.600 356.866,77.600 357.571 C 77.600 357.807,77.827 358.000,78.105 358.000 C 78.383 358.000,78.948 358.450,79.361 359.000 C 79.774 359.550,80.447 360.000,80.856 360.000 C 81.265 360.000,81.600 360.180,81.600 360.400 C 81.600 360.620,81.870 360.800,82.200 360.800 C 82.530 360.800,82.800 361.070,82.800 361.400 C 82.800 361.740,83.159 362.000,83.629 362.000 C 84.514 362.000,85.600 362.866,85.600 363.571 C 85.600 363.807,85.870 364.000,86.200 364.000 C 86.530 364.000,86.800 364.180,86.800 364.400 C 86.800 364.620,87.250 364.800,87.800 364.800 C 88.350 364.800,88.800 364.993,88.800 365.229 C 88.800 365.873,89.856 366.800,90.591 366.800 C 90.947 366.800,91.655 367.250,92.165 367.800 C 92.675 368.350,93.367 368.800,93.703 368.800 C 94.039 368.800,94.418 369.070,94.545 369.400 C 94.671 369.730,95.141 370.000,95.587 370.000 C 96.034 370.000,96.400 370.180,96.400 370.400 C 96.400 370.620,96.670 370.800,97.000 370.800 C 97.330 370.800,97.600 370.980,97.600 371.200 C 97.600 371.420,98.050 371.600,98.600 371.600 C 99.222 371.600,99.600 371.827,99.600 372.200 C 99.600 372.573,99.978 372.800,100.600 372.800 C 101.150 372.800,101.600 372.980,101.600 373.200 C 101.600 373.420,102.050 373.600,102.600 373.600 C 103.150 373.600,103.600 373.793,103.600 374.029 C 103.600 374.721,104.679 375.600,105.529 375.600 C 105.961 375.600,106.418 375.870,106.545 376.200 C 106.671 376.530,107.141 376.800,107.587 376.800 C 108.034 376.800,108.400 376.980,108.400 377.200 C 108.400 377.420,108.850 377.600,109.400 377.600 C 110.022 377.600,110.400 377.827,110.400 378.200 C 110.400 378.573,110.778 378.800,111.400 378.800 C 111.950 378.800,112.400 378.980,112.400 379.200 C 112.400 379.420,112.831 379.600,113.357 379.600 C 113.884 379.600,114.418 379.870,114.545 380.200 C 114.671 380.530,115.141 380.800,115.587 380.800 C 116.034 380.800,116.400 380.980,116.400 381.200 C 116.400 381.420,117.030 381.600,117.800 381.600 C 118.778 381.600,119.200 381.781,119.200 382.200 C 119.200 382.573,119.578 382.800,120.200 382.800 C 120.750 382.800,121.200 382.980,121.200 383.200 C 121.200 383.420,121.573 383.600,122.029 383.600 C 122.484 383.600,123.127 383.870,123.457 384.200 C 123.787 384.530,124.584 384.800,125.229 384.800 C 125.873 384.800,126.400 384.980,126.400 385.200 C 126.400 385.420,126.773 385.600,127.229 385.600 C 127.684 385.600,128.327 385.870,128.657 386.200 C 128.987 386.530,129.694 386.800,130.229 386.800 C 130.763 386.800,131.200 386.980,131.200 387.200 C 131.200 387.420,131.811 387.600,132.557 387.600 C 133.395 387.600,134.003 387.830,134.145 388.200 C 134.289 388.577,134.901 388.800,135.787 388.800 C 136.564 388.800,137.200 388.980,137.200 389.200 C 137.200 389.420,137.830 389.600,138.600 389.600 C 139.370 389.600,140.000 389.780,140.000 390.000 C 140.000 390.220,140.720 390.400,141.600 390.400 C 142.756 390.400,143.200 390.567,143.200 391.000 C 143.200 391.453,143.689 391.600,145.200 391.600 C 146.300 391.600,147.200 391.780,147.200 392.000 C 147.200 392.220,148.016 392.400,149.013 392.400 C 150.255 392.400,150.898 392.589,151.055 393.000 C 151.212 393.407,151.850 393.600,153.043 393.600 C 154.009 393.600,154.800 393.780,154.800 394.000 C 154.800 394.226,155.933 394.400,157.400 394.400 C 159.444 394.400,160.000 394.528,160.000 395.000 C 160.000 395.467,160.533 395.600,162.400 395.600 C 163.733 395.600,164.800 395.778,164.800 396.000 C 164.800 396.231,166.052 396.400,167.757 396.400 C 170.017 396.400,170.769 396.542,170.945 397.000 C 171.129 397.481,172.012 397.600,175.387 397.600 C 177.929 397.600,179.600 397.759,179.600 398.000 C 179.600 398.254,182.652 398.400,187.957 398.400 C 195.017 398.400,196.350 398.493,196.545 399.000 C 196.723 399.465,197.502 399.600,200.000 399.600 C 202.498 399.600,203.277 399.465,203.455 399.000 C 203.650 398.492,205.028 398.400,212.443 398.400 C 218.014 398.400,221.200 398.254,221.200 398.000 C 221.200 397.760,222.800 397.600,225.200 397.600 C 228.489 397.600,229.200 397.493,229.200 397.000 C 229.200 396.520,229.800 396.400,232.200 396.400 C 233.933 396.400,235.200 396.231,235.200 396.000 C 235.200 395.771,236.404 395.600,238.013 395.600 C 240.144 395.600,240.881 395.455,241.055 395.000 C 241.217 394.580,241.872 394.400,243.243 394.400 C 244.319 394.400,245.200 394.220,245.200 394.000 C 245.200 393.780,246.016 393.600,247.013 393.600 C 248.255 393.600,248.898 393.411,249.055 393.000 C 249.212 392.593,249.850 392.400,251.043 392.400 C 252.009 392.400,252.800 392.220,252.800 392.000 C 252.800 391.780,253.700 391.600,254.800 391.600 C 256.311 391.600,256.800 391.453,256.800 391.000 C 256.800 390.567,257.244 390.400,258.400 390.400 C 259.280 390.400,260.000 390.220,260.000 390.000 C 260.000 389.780,260.630 389.600,261.400 389.600 C 262.170 389.600,262.800 389.420,262.800 389.200 C 262.800 388.980,263.436 388.800,264.213 388.800 C 265.099 388.800,265.711 388.577,265.855 388.200 C 265.997 387.830,266.605 387.600,267.443 387.600 C 268.189 387.600,268.800 387.420,268.800 387.200 C 268.800 386.980,269.237 386.800,269.771 386.800 C 270.306 386.800,271.013 386.530,271.343 386.200 C 271.673 385.870,272.316 385.600,272.771 385.600 C 273.227 385.600,273.600 385.420,273.600 385.200 C 273.600 384.980,274.127 384.800,274.771 384.800 C 275.416 384.800,276.213 384.530,276.543 384.200 C 276.873 383.870,277.516 383.600,277.971 383.600 C 278.427 383.600,278.800 383.420,278.800 383.200 C 278.800 382.980,279.250 382.800,279.800 382.800 C 280.422 382.800,280.800 382.573,280.800 382.200 C 280.800 381.827,281.178 381.600,281.800 381.600 C 282.350 381.600,282.800 381.420,282.800 381.200 C 282.800 380.980,283.346 380.800,284.013 380.800 C 284.721 380.800,285.321 380.551,285.455 380.200 C 285.582 379.870,286.116 379.600,286.643 379.600 C 287.169 379.600,287.600 379.420,287.600 379.200 C 287.600 378.980,287.966 378.800,288.413 378.800 C 288.859 378.800,289.329 378.530,289.455 378.200 C 289.582 377.870,290.116 377.600,290.643 377.600 C 291.169 377.600,291.600 377.420,291.600 377.200 C 291.600 376.980,291.966 376.800,292.413 376.800 C 292.859 376.800,293.329 376.530,293.455 376.200 C 293.582 375.870,294.039 375.600,294.471 375.600 C 295.321 375.600,296.400 374.721,296.400 374.029 C 296.400 373.793,296.850 373.600,297.400 373.600 C 297.950 373.600,298.400 373.420,298.400 373.200 C 298.400 372.980,298.850 372.800,299.400 372.800 C 300.022 372.800,300.400 372.573,300.400 372.200 C 300.400 371.827,300.778 371.600,301.400 371.600 C 301.950 371.600,302.400 371.420,302.400 371.200 C 302.400 370.980,302.670 370.800,303.000 370.800 C 303.330 370.800,303.600 370.620,303.600 370.400 C 303.600 370.180,303.935 370.000,304.344 370.000 C 304.753 370.000,305.426 369.550,305.839 369.000 C 306.253 368.449,306.996 368.000,307.495 368.000 C 308.033 368.000,308.400 367.757,308.400 367.400 C 308.400 367.060,308.759 366.800,309.229 366.800 C 310.114 366.800,311.200 365.934,311.200 365.229 C 311.200 364.993,311.584 364.800,312.053 364.800 C 312.522 364.800,313.500 364.170,314.226 363.400 C 314.952 362.630,315.918 362.000,316.373 362.000 C 316.841 362.000,317.200 361.740,317.200 361.400 C 317.200 361.070,317.393 360.800,317.629 360.800 C 318.182 360.800,319.200 359.782,319.200 359.229 C 319.200 358.993,319.650 358.800,320.200 358.800 C 320.750 358.800,321.200 358.620,321.200 358.400 C 321.200 358.180,321.470 358.000,321.800 358.000 C 322.130 358.000,322.400 357.807,322.400 357.571 C 322.400 356.866,323.486 356.000,324.371 356.000 C 324.841 356.000,325.200 355.740,325.200 355.400 C 325.200 355.070,325.393 354.800,325.629 354.800 C 326.182 354.800,327.200 353.782,327.200 353.229 C 327.200 352.993,327.393 352.800,327.629 352.800 C 328.182 352.800,329.200 351.782,329.200 351.229 C 329.200 350.993,329.576 350.800,330.036 350.800 C 330.500 350.800,331.648 350.001,332.621 349.000 C 333.583 348.010,334.557 347.200,334.785 347.200 C 335.013 347.200,335.200 347.007,335.200 346.771 C 335.200 346.218,336.218 345.200,336.771 345.200 C 337.007 345.200,337.200 345.007,337.200 344.771 C 337.200 344.218,338.218 343.200,338.771 343.200 C 339.007 343.200,339.200 343.007,339.200 342.771 C 339.200 342.218,340.218 341.200,340.771 341.200 C 341.007 341.200,341.200 341.007,341.200 340.771 C 341.200 340.218,342.218 339.200,342.771 339.200 C 343.007 339.200,343.200 339.007,343.200 338.771 C 343.200 338.218,344.218 337.200,344.771 337.200 C 345.007 337.200,345.200 337.007,345.200 336.771 C 345.200 336.218,346.218 335.200,346.771 335.200 C 347.007 335.200,347.200 335.013,347.200 334.785 C 347.200 334.557,348.010 333.583,349.000 332.621 C 349.990 331.659,350.800 330.675,350.800 330.436 C 350.800 330.196,351.070 330.000,351.400 330.000 C 351.733 330.000,352.000 329.644,352.000 329.200 C 352.000 328.760,352.180 328.400,352.400 328.400 C 352.620 328.400,352.800 328.130,352.800 327.800 C 352.800 327.470,352.993 327.200,353.229 327.200 C 353.782 327.200,354.800 326.182,354.800 325.629 C 354.800 325.393,355.070 325.200,355.400 325.200 C 355.740 325.200,356.000 324.841,356.000 324.371 C 356.000 323.486,356.866 322.400,357.571 322.400 C 357.807 322.400,358.000 322.173,358.000 321.895 C 358.000 321.617,358.450 321.052,359.000 320.639 C 359.550 320.226,360.000 319.553,360.000 319.144 C 360.000 318.735,360.180 318.400,360.400 318.400 C 360.620 318.400,360.800 318.130,360.800 317.800 C 360.800 317.470,361.070 317.200,361.400 317.200 C 361.740 317.200,362.000 316.841,362.000 316.371 C 362.000 315.486,362.866 314.400,363.571 314.400 C 363.807 314.400,364.000 314.130,364.000 313.800 C 364.000 313.470,364.180 313.200,364.400 313.200 C 364.620 313.200,364.800 312.750,364.800 312.200 C 364.800 311.650,364.993 311.200,365.229 311.200 C 365.934 311.200,366.800 310.114,366.800 309.229 C 366.800 308.759,367.060 308.400,367.400 308.400 C 367.730 308.400,368.000 308.130,368.000 307.800 C 368.000 307.470,368.180 307.200,368.400 307.200 C 368.620 307.200,368.800 306.859,368.800 306.443 C 368.800 306.026,369.070 305.582,369.400 305.455 C 369.730 305.329,370.000 304.859,370.000 304.413 C 370.000 303.966,370.180 303.600,370.400 303.600 C 370.620 303.600,370.800 303.330,370.800 303.000 C 370.800 302.670,370.980 302.400,371.200 302.400 C 371.420 302.400,371.600 301.950,371.600 301.400 C 371.600 300.778,371.827 300.400,372.200 300.400 C 372.573 300.400,372.800 300.022,372.800 299.400 C 372.800 298.850,372.980 298.400,373.200 298.400 C 373.420 298.400,373.600 297.950,373.600 297.400 C 373.600 296.850,373.793 296.400,374.029 296.400 C 374.721 296.400,375.600 295.321,375.600 294.471 C 375.600 294.039,375.870 293.582,376.200 293.455 C 376.530 293.329,376.800 292.859,376.800 292.413 C 376.800 291.966,376.980 291.600,377.200 291.600 C 377.420 291.600,377.600 291.150,377.600 290.600 C 377.600 289.978,377.827 289.600,378.200 289.600 C 378.573 289.600,378.800 289.222,378.800 288.600 C 378.800 288.050,378.980 287.600,379.200 287.600 C 379.420 287.600,379.600 287.169,379.600 286.643 C 379.600 286.116,379.870 285.582,380.200 285.455 C 380.530 285.329,380.800 284.859,380.800 284.413 C 380.800 283.966,380.980 283.600,381.200 283.600 C 381.420 283.600,381.600 282.970,381.600 282.200 C 381.600 281.222,381.781 280.800,382.200 280.800 C 382.573 280.800,382.800 280.422,382.800 279.800 C 382.800 279.250,382.980 278.800,383.200 278.800 C 383.420 278.800,383.600 278.427,383.600 277.971 C 383.600 277.516,383.870 276.873,384.200 276.543 C 384.530 276.213,384.800 275.416,384.800 274.771 C 384.800 274.127,384.980 273.600,385.200 273.600 C 385.420 273.600,385.600 273.227,385.600 272.771 C 385.600 272.316,385.870 271.673,386.200 271.343 C 386.530 271.013,386.800 270.306,386.800 269.771 C 386.800 269.237,386.980 268.800,387.200 268.800 C 387.420 268.800,387.600 268.189,387.600 267.443 C 387.600 266.605,387.830 265.997,388.200 265.855 C 388.577 265.711,388.800 265.099,388.800 264.213 C 388.800 263.436,388.980 262.800,389.200 262.800 C 389.420 262.800,389.600 262.170,389.600 261.400 C 389.600 260.630,389.780 260.000,390.000 260.000 C 390.220 260.000,390.400 259.280,390.400 258.400 C 390.400 257.244,390.567 256.800,391.000 256.800 C 391.453 256.800,391.600 256.311,391.600 254.800 C 391.600 253.700,391.780 252.800,392.000 252.800 C 392.220 252.800,392.400 252.009,392.400 251.043 C 392.400 249.850,392.593 249.212,393.000 249.055 C 393.411 248.898,393.600 248.255,393.600 247.013 C 393.600 246.016,393.780 245.200,394.000 245.200 C 394.226 245.200,394.400 244.067,394.400 242.600 C 394.400 240.556,394.528 240.000,395.000 240.000 C 395.467 240.000,395.600 239.467,395.600 237.600 C 395.600 236.267,395.778 235.200,396.000 235.200 C 396.231 235.200,396.400 233.948,396.400 232.243 C 396.400 229.983,396.542 229.231,397.000 229.055 C 397.481 228.871,397.600 227.988,397.600 224.613 C 397.600 222.071,397.759 220.400,398.000 220.400 C 398.255 220.400,398.400 217.133,398.400 211.400 C 398.400 203.667,398.484 202.400,399.000 202.400 C 399.476 202.400,399.600 201.821,399.600 199.587 C 399.600 197.456,399.455 196.719,399.000 196.545 C 398.492 196.350,398.400 194.972,398.400 187.557 C 398.400 181.986,398.254 178.800,398.000 178.800 C 397.760 178.800,397.600 177.200,397.600 174.800 C 397.600 171.511,397.493 170.800,397.000 170.800 C 396.520 170.800,396.400 170.200,396.400 167.800 C 396.400 166.067,396.231 164.800,396.000 164.800 C 395.771 164.800,395.600 163.596,395.600 161.987 C 395.600 159.856,395.455 159.119,395.000 158.945 C 394.580 158.783,394.400 158.128,394.400 156.757 C 394.400 155.681,394.220 154.800,394.000 154.800 C 393.780 154.800,393.600 154.009,393.600 153.043 C 393.600 151.850,393.407 151.212,393.000 151.055 C 392.589 150.898,392.400 150.255,392.400 149.013 C 392.400 148.016,392.220 147.200,392.000 147.200 C 391.780 147.200,391.600 146.300,391.600 145.200 C 391.600 143.689,391.453 143.200,391.000 143.200 C 390.567 143.200,390.400 142.756,390.400 141.600 C 390.400 140.720,390.220 140.000,390.000 140.000 C 389.780 140.000,389.600 139.370,389.600 138.600 C 389.600 137.830,389.420 137.200,389.200 137.200 C 388.980 137.200,388.800 136.564,388.800 135.787 C 388.800 134.901,388.577 134.289,388.200 134.145 C 387.830 134.003,387.600 133.395,387.600 132.557 C 387.600 131.811,387.420 131.200,387.200 131.200 C 386.980 131.200,386.800 130.763,386.800 130.229 C 386.800 129.694,386.530 128.987,386.200 128.657 C 385.870 128.327,385.600 127.684,385.600 127.229 C 385.600 126.773,385.420 126.400,385.200 126.400 C 384.980 126.400,384.800 125.873,384.800 125.229 C 384.800 124.584,384.530 123.787,384.200 123.457 C 383.870 123.127,383.600 122.484,383.600 122.029 C 383.600 121.573,383.420 121.200,383.200 121.200 C 382.980 121.200,382.800 120.834,382.800 120.387 C 382.800 119.941,382.530 119.471,382.200 119.345 C 381.870 119.218,381.600 118.684,381.600 118.157 C 381.600 117.631,381.420 117.200,381.200 117.200 C 380.980 117.200,380.800 116.654,380.800 115.987 C 380.800 115.279,380.551 114.679,380.200 114.545 C 379.870 114.418,379.600 113.884,379.600 113.357 C 379.600 112.831,379.420 112.400,379.200 112.400 C 378.980 112.400,378.800 112.034,378.800 111.587 C 378.800 111.141,378.530 110.671,378.200 110.545 C 377.870 110.418,377.600 109.884,377.600 109.357 C 377.600 108.831,377.420 108.400,377.200 108.400 C 376.980 108.400,376.800 108.034,376.800 107.587 C 376.800 107.141,376.530 106.671,376.200 106.545 C 375.870 106.418,375.600 105.961,375.600 105.529 C 375.600 104.679,374.721 103.600,374.029 103.600 C 373.793 103.600,373.600 103.150,373.600 102.600 C 373.600 102.050,373.420 101.600,373.200 101.600 C 372.980 101.600,372.800 101.150,372.800 100.600 C 372.800 99.978,372.573 99.600,372.200 99.600 C 371.827 99.600,371.600 99.222,371.600 98.600 C 371.600 98.050,371.420 97.600,371.200 97.600 C 370.980 97.600,370.800 97.330,370.800 97.000 C 370.800 96.670,370.620 96.400,370.400 96.400 C 370.180 96.400,370.000 96.138,370.000 95.818 C 370.000 95.498,369.550 94.786,369.000 94.236 C 368.450 93.686,368.000 92.953,368.000 92.606 C 368.000 92.259,367.730 91.871,367.400 91.745 C 367.070 91.618,366.800 91.161,366.800 90.729 C 366.800 89.879,365.921 88.800,365.229 88.800 C 364.993 88.800,364.800 88.416,364.800 87.947 C 364.800 87.478,364.170 86.500,363.400 85.774 C 362.630 85.048,362.000 84.082,362.000 83.627 C 362.000 83.159,361.740 82.800,361.400 82.800 C 361.070 82.800,360.800 82.607,360.800 82.371 C 360.800 81.818,359.782 80.800,359.229 80.800 C 358.993 80.800,358.800 80.350,358.800 79.800 C 358.800 79.250,358.620 78.800,358.400 78.800 C 358.180 78.800,358.000 78.530,358.000 78.200 C 358.000 77.870,357.807 77.600,357.571 77.600 C 356.866 77.600,356.000 76.514,356.000 75.629 C 356.000 75.159,355.740 74.800,355.400 74.800 C 355.070 74.800,354.800 74.607,354.800 74.371 C 354.800 73.818,353.782 72.800,353.229 72.800 C 352.993 72.800,352.800 72.607,352.800 72.371 C 352.800 71.818,351.782 70.800,351.229 70.800 C 350.993 70.800,350.800 70.426,350.800 69.970 C 350.800 69.472,349.679 68.031,348.000 66.373 C 346.460 64.851,345.200 63.424,345.200 63.203 C 345.200 62.981,345.007 62.800,344.771 62.800 C 344.218 62.800,343.200 61.782,343.200 61.229 C 343.200 60.993,343.007 60.800,342.771 60.800 C 342.218 60.800,341.200 59.782,341.200 59.229 C 341.200 58.993,341.007 58.800,340.771 58.800 C 340.218 58.800,339.200 57.782,339.200 57.229 C 339.200 56.993,339.007 56.800,338.771 56.800 C 338.218 56.800,337.200 55.782,337.200 55.229 C 337.200 54.993,337.019 54.800,336.797 54.800 C 336.576 54.800,335.137 53.540,333.600 52.000 C 332.063 50.460,330.624 49.200,330.403 49.200 C 330.181 49.200,330.000 48.930,330.000 48.600 C 330.000 48.267,329.644 48.000,329.200 48.000 C 328.760 48.000,328.400 47.820,328.400 47.600 C 328.400 47.380,328.130 47.200,327.800 47.200 C 327.470 47.200,327.200 47.007,327.200 46.771 C 327.200 46.218,326.182 45.200,325.629 45.200 C 325.393 45.200,325.200 44.930,325.200 44.600 C 325.200 44.260,324.841 44.000,324.371 44.000 C 323.486 44.000,322.400 43.134,322.400 42.429 C 322.400 42.193,322.173 42.000,321.895 42.000 C 321.617 42.000,321.052 41.550,320.639 41.000 C 320.226 40.450,319.553 40.000,319.144 40.000 C 318.735 40.000,318.400 39.820,318.400 39.600 C 318.400 39.380,318.130 39.200,317.800 39.200 C 317.470 39.200,317.200 38.930,317.200 38.600 C 317.200 38.260,316.841 38.000,316.371 38.000 C 315.486 38.000,314.400 37.134,314.400 36.429 C 314.400 36.193,314.130 36.000,313.800 36.000 C 313.470 36.000,313.200 35.820,313.200 35.600 C 313.200 35.380,312.750 35.200,312.200 35.200 C 311.650 35.200,311.200 35.007,311.200 34.771 C 311.200 34.127,310.144 33.200,309.409 33.200 C 309.053 33.200,308.345 32.750,307.835 32.200 C 307.325 31.650,306.614 31.200,306.254 31.200 C 305.894 31.200,305.600 31.020,305.600 30.800 C 305.600 30.580,305.234 30.400,304.787 30.400 C 304.341 30.400,303.871 30.130,303.745 29.800 C 303.618 29.470,303.264 29.200,302.957 29.200 C 302.651 29.200,302.400 29.020,302.400 28.800 C 302.400 28.580,301.950 28.400,301.400 28.400 C 300.778 28.400,300.400 28.173,300.400 27.800 C 300.400 27.427,300.022 27.200,299.400 27.200 C 298.850 27.200,298.400 27.020,298.400 26.800 C 298.400 26.580,297.950 26.400,297.400 26.400 C 296.850 26.400,296.400 26.207,296.400 25.971 C 296.400 25.279,295.321 24.400,294.471 24.400 C 294.039 24.400,293.582 24.130,293.455 23.800 C 293.329 23.470,292.859 23.200,292.413 23.200 C 291.966 23.200,291.600 23.020,291.600 22.800 C 291.600 22.580,291.150 22.400,290.600 22.400 C 289.978 22.400,289.600 22.173,289.600 21.800 C 289.600 21.427,289.222 21.200,288.600 21.200 C 288.050 21.200,287.600 21.020,287.600 20.800 C 287.600 20.580,287.169 20.400,286.643 20.400 C 286.116 20.400,285.582 20.130,285.455 19.800 C 285.329 19.470,284.859 19.200,284.413 19.200 C 283.966 19.200,283.600 19.020,283.600 18.800 C 283.600 18.580,282.970 18.400,282.200 18.400 C 281.222 18.400,280.800 18.219,280.800 17.800 C 280.800 17.427,280.422 17.200,279.800 17.200 C 279.250 17.200,278.800 17.020,278.800 16.800 C 278.800 16.580,278.427 16.400,277.971 16.400 C 277.516 16.400,276.873 16.130,276.543 15.800 C 276.213 15.470,275.416 15.200,274.771 15.200 C 274.127 15.200,273.600 15.020,273.600 14.800 C 273.600 14.580,273.227 14.400,272.771 14.400 C 272.316 14.400,271.673 14.130,271.343 13.800 C 271.013 13.470,270.306 13.200,269.771 13.200 C 269.237 13.200,268.800 13.020,268.800 12.800 C 268.800 12.580,268.247 12.400,267.571 12.400 C 266.896 12.400,266.073 12.130,265.743 11.800 C 265.413 11.470,264.616 11.200,263.971 11.200 C 263.327 11.200,262.800 11.020,262.800 10.800 C 262.800 10.580,262.170 10.400,261.400 10.400 C 260.630 10.400,260.000 10.220,260.000 10.000 C 260.000 9.780,259.280 9.600,258.400 9.600 C 257.244 9.600,256.800 9.433,256.800 9.000 C 256.800 8.547,256.311 8.400,254.800 8.400 C 253.700 8.400,252.800 8.220,252.800 8.000 C 252.800 7.780,252.009 7.600,251.043 7.600 C 249.850 7.600,249.212 7.407,249.055 7.000 C 248.898 6.589,248.255 6.400,247.013 6.400 C 246.016 6.400,245.200 6.220,245.200 6.000 C 245.200 5.774,244.067 5.600,242.600 5.600 C 240.556 5.600,240.000 5.472,240.000 5.000 C 240.000 4.533,239.467 4.400,237.600 4.400 C 236.267 4.400,235.200 4.222,235.200 4.000 C 235.200 3.769,233.948 3.600,232.243 3.600 C 229.983 3.600,229.231 3.458,229.055 3.000 C 228.871 2.519,227.988 2.400,224.613 2.400 C 222.071 2.400,220.400 2.241,220.400 2.000 C 220.400 1.746,217.348 1.600,212.043 1.600 C 204.983 1.600,203.650 1.507,203.455 1.000 C 203.121 0.129,196.879 0.129,196.545 1.000 M299.800 76.869 C 304.815 78.213,307.015 79.156,310.317 81.375 C 312.661 82.951,313.318 82.083,298.700 96.723 C 288.423 107.016,285.600 110.060,285.600 110.853 C 285.600 111.640,287.861 114.122,295.852 122.108 C 307.176 133.425,306.953 133.043,303.003 134.340 C 279.710 141.987,257.779 120.384,265.096 97.000 C 269.624 82.532,285.836 73.128,299.800 76.869 M317.299 87.990 C 325.486 97.556,325.313 114.168,316.917 124.577 C 315.028 126.919,311.128 130.400,310.393 130.400 C 309.792 130.400,291.200 111.666,291.200 111.060 C 291.200 110.500,315.077 86.400,315.632 86.400 C 315.800 86.400,316.550 87.115,317.299 87.990 M312.405 101.794 C 312.087 102.177,312.006 102.925,312.177 103.894 C 312.936 108.195,312.897 108.998,311.834 110.903 C 310.611 113.093,310.540 114.041,311.531 114.938 C 315.387 118.428,319.481 108.606,316.632 102.700 C 315.832 101.041,313.453 100.532,312.405 101.794 M258.654 123.027 C 263.365 124.597,265.623 126.942,262.900 127.436 C 259.493 128.054,258.465 129.011,220.797 166.638 C 200.226 187.187,183.163 204.000,182.881 204.000 C 182.235 204.000,168.109 189.933,167.931 189.112 C 167.859 188.779,168.970 187.354,170.400 185.947 C 175.658 180.772,194.674 162.540,196.804 160.632 C 198.012 159.549,200.170 157.569,201.601 156.232 C 206.620 151.539,209.870 148.708,219.399 140.729 C 223.724 137.108,233.619 129.989,236.875 128.155 C 247.162 122.362,252.728 121.052,258.654 123.027 M270.767 132.383 C 275.124 134.606,277.230 139.596,275.771 144.237 C 274.909 146.976,273.010 149.018,265.200 155.607 C 262.353 158.008,262.469 157.907,259.955 160.203 C 258.990 161.084,256.940 162.884,255.400 164.203 C 253.860 165.521,252.510 166.692,252.400 166.804 C 252.290 166.915,250.760 168.265,249.000 169.804 C 247.240 171.342,245.710 172.692,245.600 172.804 C 245.490 172.915,243.962 174.265,242.205 175.804 C 240.448 177.342,238.808 178.780,238.561 179.000 C 236.698 180.660,234.036 183.003,224.242 191.603 C 218.105 196.991,211.426 202.840,209.400 204.600 C 207.373 206.360,203.521 209.735,200.839 212.100 C 198.156 214.465,195.748 216.400,195.487 216.400 C 194.908 216.400,186.400 207.978,186.400 207.404 C 186.400 206.853,260.327 133.145,261.600 132.427 C 264.068 131.034,268.084 131.015,270.767 132.383 M277.200 151.838 C 277.200 152.387,275.935 156.655,275.583 157.295 C 275.372 157.677,275.200 158.188,275.200 158.430 C 275.200 160.348,268.055 172.744,263.332 179.020 C 262.049 180.724,260.382 182.947,259.626 183.959 C 258.870 184.972,258.023 186.029,257.744 186.310 C 257.465 186.590,256.554 187.670,255.719 188.709 C 254.883 189.749,254.020 190.800,253.800 191.047 C 253.580 191.293,252.140 192.909,250.600 194.639 C 249.060 196.369,246.819 198.867,245.620 200.192 C 241.070 205.218,212.691 233.200,212.144 233.200 C 211.829 233.200,208.708 230.346,205.208 226.857 C 198.137 219.808,198.171 219.882,200.936 217.668 C 202.540 216.383,206.705 212.763,214.819 205.600 C 216.937 203.730,219.284 201.672,220.035 201.027 C 221.948 199.383,227.359 194.642,227.600 194.398 C 227.836 194.159,234.371 188.402,236.632 186.441 C 240.117 183.419,247.413 177.012,247.600 176.809 C 247.710 176.690,249.240 175.340,251.000 173.808 C 252.760 172.276,255.107 170.207,256.215 169.211 C 257.324 168.215,259.304 166.472,260.615 165.338 C 261.927 164.204,263.361 162.944,263.802 162.538 C 264.243 162.132,265.773 160.813,267.202 159.607 C 268.631 158.401,270.610 156.659,271.600 155.736 C 275.711 151.906,277.200 150.869,277.200 151.838 M171.073 198.884 C 177.587 205.355,178.589 206.800,176.566 206.800 C 175.997 206.800,174.332 207.088,172.866 207.441 C 169.102 208.346,167.831 208.632,164.200 209.396 C 158.900 210.510,157.472 210.828,155.843 211.257 C 154.987 211.482,153.457 211.815,152.443 211.998 C 151.429 212.180,149.558 212.517,148.285 212.746 C 145.736 213.205,144.800 213.032,144.800 212.101 C 144.800 211.458,163.527 192.420,164.173 192.407 C 164.378 192.403,167.483 195.318,171.073 198.884 M186.654 214.474 C 188.714 216.494,190.400 218.270,190.400 218.421 C 190.400 218.722,187.142 219.635,183.400 220.384 C 182.080 220.649,179.920 221.106,178.600 221.402 C 173.695 222.500,172.400 222.573,172.400 221.751 C 172.400 221.152,182.182 210.800,182.748 210.800 C 182.836 210.800,184.594 212.453,186.654 214.474 M201.507 229.307 C 209.496 237.306,209.259 236.281,204.089 240.469 C 202.390 241.845,200.910 243.077,200.800 243.207 C 200.690 243.336,199.880 243.972,199.000 244.619 C 198.120 245.266,197.310 245.890,197.200 246.006 C 196.767 246.463,191.731 250.258,190.600 250.980 C 189.940 251.402,189.161 251.985,188.869 252.276 C 188.577 252.567,187.977 252.998,187.537 253.234 C 187.097 253.469,186.436 253.911,186.068 254.215 C 183.806 256.088,158.464 272.400,157.817 272.400 C 157.706 272.400,156.631 273.030,155.427 273.800 C 154.223 274.570,153.136 275.200,153.011 275.200 C 152.886 275.200,152.113 275.619,151.292 276.130 C 150.471 276.642,148.450 277.789,146.800 278.679 C 145.150 279.569,143.114 280.683,142.276 281.155 C 139.688 282.612,132.400 286.439,128.200 288.546 C 122.164 291.573,121.942 292.122,123.775 299.484 C 126.254 309.437,126.327 309.913,125.520 310.720 C 124.325 311.915,123.296 311.101,113.098 300.898 L 102.802 290.596 133.701 259.722 L 164.600 228.849 167.000 228.276 C 168.320 227.961,170.480 227.485,171.800 227.219 C 173.120 226.953,174.920 226.574,175.800 226.378 C 178.638 225.744,182.952 224.802,184.800 224.412 C 185.790 224.203,187.770 223.763,189.200 223.433 C 191.505 222.902,192.879 222.633,194.204 222.454 C 194.427 222.425,197.713 225.508,201.507 229.307 M108.851 303.100 C 117.868 312.173,119.317 313.910,117.505 313.469 C 117.007 313.348,114.800 313.143,112.600 313.013 C 110.400 312.884,106.350 312.603,103.600 312.390 C 100.850 312.177,95.630 311.813,92.000 311.582 C 84.528 311.106,84.000 311.007,84.000 310.077 C 84.000 309.499,99.038 294.000,99.599 294.000 C 99.713 294.000,103.876 298.095,108.851 303.100 " stroke="none" fill="#fd6c35" fill-rule="evenodd"></path></g></svg>