<svg id="svg" version="1.1" xmlns="http://www.w3.org/2000/svg" xmlns:xlink="http://www.w3.org/1999/xlink" width="400" height="400" viewBox="0, 0, 400,400"><g id="svgg"><path id="path0" d="M146.000 84.106 C 145.450 84.354,144.083 84.964,142.961 85.462 C 140.218 86.680,136.481 89.542,133.878 92.419 C 126.395 100.688,127.800 109.443,138.412 120.677 C 139.619 121.955,142.405 124.980,144.603 127.400 C 146.801 129.820,148.696 131.890,148.814 132.000 C 148.932 132.110,152.260 135.800,156.210 140.200 C 160.160 144.600,163.483 148.290,163.596 148.400 C 163.792 148.592,168.268 153.646,171.200 156.985 C 171.970 157.862,173.600 159.664,174.823 160.990 C 176.046 162.315,177.666 164.137,178.423 165.038 C 179.180 165.940,183.318 170.620,187.618 175.438 C 195.755 184.557,201.082 190.569,202.797 192.571 C 203.348 193.216,204.830 194.836,206.089 196.171 C 207.347 197.507,208.381 198.870,208.384 199.200 C 208.391 199.723,197.980 207.699,178.600 222.020 C 175.520 224.297,169.040 229.097,164.200 232.687 C 156.370 238.497,149.876 243.286,141.000 249.800 C 139.460 250.930,135.680 253.715,132.600 255.988 C 126.487 260.500,124.579 261.904,119.900 265.330 C 118.195 266.579,115.495 268.559,113.900 269.731 C 112.305 270.903,108.750 273.512,106.000 275.528 C 92.914 285.120,90.824 286.748,88.383 289.246 C 81.425 296.369,82.022 304.556,90.062 312.267 C 97.722 319.614,104.573 318.229,121.000 306.014 C 135.705 295.078,145.879 287.539,153.600 281.855 C 161.429 276.091,163.132 274.835,168.400 270.940 C 171.370 268.744,175.600 265.626,177.800 264.011 C 180.000 262.396,183.510 259.810,185.600 258.264 C 187.690 256.719,190.300 254.799,191.400 253.997 C 193.520 252.453,197.716 249.381,202.500 245.873 C 204.095 244.704,207.470 242.217,210.000 240.348 C 212.530 238.478,216.195 235.790,218.143 234.374 C 220.092 232.958,224.952 229.408,228.943 226.484 C 232.935 223.560,237.010 220.601,238.000 219.909 C 259.266 205.043,262.332 199.265,254.602 188.627 C 252.671 185.969,252.274 185.512,246.266 179.028 C 242.745 175.229,237.421 169.444,230.961 162.400 C 230.053 161.410,226.291 157.270,222.600 153.200 C 218.909 149.130,215.147 144.990,214.239 144.000 C 211.897 141.445,201.674 130.108,200.001 128.210 C 199.231 127.336,197.597 125.536,196.371 124.210 C 194.396 122.075,182.061 108.350,177.800 103.547 C 167.631 92.083,164.583 88.979,161.600 87.046 C 159.114 85.436,158.408 85.065,155.881 84.050 C 154.447 83.473,147.311 83.514,146.000 84.106 M176.014 276.077 C 172.399 277.471,169.547 280.811,167.541 286.000 C 164.711 293.322,169.122 304.463,175.968 307.281 L 178.200 308.200 221.008 308.200 L 263.817 308.200 266.492 306.883 C 277.564 301.432,277.655 282.288,266.637 276.475 L 264.600 275.400 221.400 275.317 C 178.326 275.235,178.194 275.237,176.014 276.077 " stroke="none" fill="#fafbfb" fill-rule="evenodd"></path><path id="path1" d="M83.200 50.000 C 83.200 50.220,82.401 50.400,81.424 50.400 C 80.447 50.400,79.536 50.580,79.400 50.800 C 79.264 51.020,78.623 51.200,77.976 51.200 C 77.329 51.200,76.800 51.380,76.800 51.600 C 76.800 51.820,76.350 52.000,75.800 52.000 C 75.250 52.000,74.800 52.180,74.800 52.400 C 74.800 52.620,74.440 52.800,74.000 52.800 C 73.560 52.800,73.200 52.980,73.200 53.200 C 73.200 53.420,72.880 53.600,72.488 53.600 C 72.097 53.600,71.517 53.960,71.200 54.400 C 70.883 54.840,70.388 55.200,70.101 55.200 C 69.814 55.200,68.795 55.965,67.838 56.900 C 66.880 57.835,65.490 59.155,64.748 59.832 C 64.007 60.510,63.040 61.673,62.600 62.417 C 60.564 65.858,58.827 69.533,58.590 70.900 C 58.447 71.725,58.166 72.400,57.965 72.400 C 57.764 72.400,57.600 73.120,57.600 74.000 C 57.600 74.880,57.420 75.600,57.200 75.600 C 56.980 75.600,56.800 76.140,56.800 76.800 C 56.800 77.460,56.620 78.000,56.400 78.000 C 56.180 78.000,56.000 78.810,56.000 79.800 C 56.000 80.790,55.820 81.600,55.600 81.600 C 55.380 81.600,55.200 82.320,55.200 83.200 C 55.200 84.080,55.020 84.800,54.800 84.800 C 54.580 84.800,54.400 85.700,54.400 86.800 C 54.400 87.900,54.220 88.800,54.000 88.800 C 53.780 88.800,53.600 89.520,53.600 90.400 C 53.600 91.280,53.420 92.000,53.200 92.000 C 52.980 92.000,52.800 92.709,52.800 93.576 C 52.800 94.443,52.620 95.264,52.400 95.400 C 52.180 95.536,52.000 96.357,52.000 97.224 C 52.000 98.091,51.820 98.800,51.600 98.800 C 51.380 98.800,51.200 99.599,51.200 100.576 C 51.200 101.553,51.020 102.464,50.800 102.600 C 50.580 102.736,50.400 103.557,50.400 104.424 C 50.400 105.291,50.220 106.000,50.000 106.000 C 49.780 106.000,49.600 106.709,49.600 107.576 C 49.600 108.443,49.420 109.264,49.200 109.400 C 48.980 109.536,48.800 110.357,48.800 111.224 C 48.800 112.091,48.620 112.800,48.400 112.800 C 48.180 112.800,48.000 113.509,48.000 114.376 C 48.000 115.243,47.820 116.064,47.600 116.200 C 47.380 116.336,47.200 117.247,47.200 118.224 C 47.200 119.201,47.020 120.000,46.800 120.000 C 46.580 120.000,46.400 120.720,46.400 121.600 C 46.400 122.480,46.255 123.200,46.078 123.200 C 45.901 123.200,45.712 123.965,45.657 124.900 C 45.602 125.835,45.387 126.771,45.179 126.980 C 44.970 127.189,44.800 127.943,44.800 128.656 C 44.800 129.369,44.620 130.064,44.400 130.200 C 44.180 130.336,44.000 131.146,44.000 132.000 C 44.000 132.854,43.820 133.664,43.600 133.800 C 43.380 133.936,43.200 134.727,43.200 135.557 C 43.200 136.387,43.075 137.192,42.922 137.345 C 42.769 137.498,42.601 137.933,42.549 138.312 C 42.127 141.379,41.066 146.731,40.768 147.295 C 40.565 147.677,40.400 148.622,40.400 149.395 C 40.400 150.168,40.220 150.800,40.000 150.800 C 39.780 150.800,39.600 151.610,39.600 152.600 C 39.600 153.590,39.420 154.400,39.200 154.400 C 38.980 154.400,38.800 155.120,38.800 156.000 C 38.800 156.880,38.620 157.600,38.400 157.600 C 38.180 157.600,38.000 158.410,38.000 159.400 C 38.000 160.390,37.820 161.200,37.600 161.200 C 37.380 161.200,37.200 161.920,37.200 162.800 C 37.200 163.680,37.020 164.400,36.800 164.400 C 36.580 164.400,36.400 165.120,36.400 166.000 C 36.400 166.880,36.220 167.600,36.000 167.600 C 35.780 167.600,35.600 168.399,35.600 169.376 C 35.600 170.353,35.420 171.264,35.200 171.400 C 34.980 171.536,34.800 172.357,34.800 173.224 C 34.800 174.091,34.620 174.800,34.400 174.800 C 34.180 174.800,34.000 175.520,34.000 176.400 C 34.000 177.280,33.820 178.000,33.600 178.000 C 33.380 178.000,33.200 178.810,33.200 179.800 C 33.200 180.790,33.020 181.600,32.800 181.600 C 32.580 181.600,32.400 182.320,32.400 183.200 C 32.400 184.080,32.238 184.800,32.040 184.800 C 31.702 184.800,31.584 185.381,30.968 190.100 C 30.831 191.145,30.558 192.000,30.360 192.000 C 30.162 192.000,30.000 192.619,30.000 193.376 C 30.000 194.133,29.820 194.864,29.600 195.000 C 29.380 195.136,29.200 196.036,29.200 197.000 C 29.200 197.964,29.020 198.864,28.800 199.000 C 28.580 199.136,28.400 199.867,28.400 200.624 C 28.400 201.381,28.238 202.000,28.040 202.000 C 27.702 202.000,27.584 202.581,26.968 207.300 C 26.831 208.345,26.594 209.200,26.441 209.200 C 26.289 209.200,26.119 209.860,26.065 210.666 C 26.011 211.472,25.856 212.310,25.721 212.527 C 25.408 213.034,25.158 214.458,24.917 217.100 C 24.812 218.255,24.563 219.200,24.363 219.200 C 24.163 219.200,24.000 219.920,24.000 220.800 C 24.000 221.680,23.820 222.400,23.600 222.400 C 23.380 222.400,23.200 223.120,23.200 224.000 C 23.200 224.880,23.020 225.600,22.800 225.600 C 22.580 225.600,22.400 226.410,22.400 227.400 C 22.400 228.390,22.220 229.200,22.000 229.200 C 21.780 229.200,21.600 229.920,21.600 230.800 C 21.600 231.680,21.420 232.400,21.200 232.400 C 20.980 232.400,20.800 233.109,20.800 233.976 C 20.800 234.843,20.620 235.664,20.400 235.800 C 20.180 235.936,20.000 236.847,20.000 237.824 C 20.000 238.801,19.820 239.600,19.600 239.600 C 19.380 239.600,19.200 240.320,19.200 241.200 C 19.200 242.080,19.020 242.800,18.800 242.800 C 18.580 242.800,18.400 243.520,18.400 244.400 C 18.400 245.280,18.220 246.000,18.000 246.000 C 17.780 246.000,17.600 246.810,17.600 247.800 C 17.600 248.790,17.420 249.600,17.200 249.600 C 16.980 249.600,16.800 250.320,16.800 251.200 C 16.800 252.080,16.620 252.800,16.400 252.800 C 16.180 252.800,16.000 253.610,16.000 254.600 C 16.000 255.590,15.820 256.400,15.600 256.400 C 15.380 256.400,15.200 257.109,15.200 257.976 C 15.200 258.843,15.039 259.652,14.842 259.774 C 14.645 259.895,14.371 260.761,14.233 261.697 C 13.618 265.855,13.495 266.418,13.158 266.626 C 12.961 266.748,12.800 267.557,12.800 268.424 C 12.800 269.291,12.620 270.000,12.400 270.000 C 12.180 270.000,12.000 270.709,12.000 271.576 C 12.000 272.443,11.820 273.264,11.600 273.400 C 11.380 273.536,11.200 274.447,11.200 275.424 C 11.200 276.401,11.020 277.200,10.800 277.200 C 10.580 277.200,10.400 277.635,10.400 278.168 C 10.400 278.700,10.120 280.229,9.778 281.565 C 8.940 284.834,8.828 285.427,8.536 288.100 C 8.399 289.365,8.132 290.400,7.943 290.400 C 7.754 290.400,7.600 291.120,7.600 292.000 C 7.600 292.880,7.420 293.600,7.200 293.600 C 6.980 293.600,6.800 294.410,6.800 295.400 C 6.800 296.390,6.620 297.200,6.400 297.200 C 6.180 297.200,6.000 297.920,6.000 298.800 C 6.000 299.680,5.820 300.400,5.600 300.400 C 5.380 300.400,5.200 301.199,5.200 302.176 C 5.200 303.153,5.020 304.064,4.800 304.200 C 4.580 304.336,4.400 305.157,4.400 306.024 C 4.400 306.891,4.220 307.600,4.000 307.600 C 3.780 307.600,3.600 308.320,3.600 309.200 C 3.600 310.080,3.420 310.800,3.200 310.800 C 2.980 310.800,2.800 311.610,2.800 312.600 C 2.800 313.590,2.620 314.400,2.400 314.400 C 2.180 314.400,2.000 315.109,2.000 315.976 C 2.000 316.843,1.820 317.664,1.600 317.800 C 1.380 317.936,1.200 318.721,1.200 319.544 C 1.200 320.367,0.975 321.265,0.700 321.540 C 0.326 321.914,0.200 324.631,0.200 332.327 L 0.200 342.615 2.491 344.907 C 3.752 346.168,5.057 347.200,5.391 347.200 C 5.726 347.200,6.000 347.380,6.000 347.600 C 6.000 347.820,6.540 348.000,7.200 348.000 C 7.860 348.000,8.400 348.180,8.400 348.400 C 8.400 348.620,8.929 348.800,9.576 348.800 C 10.223 348.800,10.864 348.980,11.000 349.200 C 11.136 349.420,12.497 349.600,14.024 349.600 C 15.608 349.600,16.800 349.772,16.800 350.000 C 16.800 350.266,66.400 350.400,164.800 350.400 C 263.200 350.400,312.800 350.266,312.800 350.000 C 312.800 349.765,314.192 349.600,316.176 349.600 C 318.033 349.600,319.664 349.420,319.800 349.200 C 319.936 348.980,320.746 348.800,321.600 348.800 C 322.454 348.800,323.264 348.620,323.400 348.400 C 323.536 348.180,324.177 348.000,324.824 348.000 C 325.471 348.000,326.000 347.820,326.000 347.600 C 326.000 347.380,326.439 347.200,326.976 347.200 C 327.513 347.200,328.064 347.020,328.200 346.800 C 328.336 346.580,328.757 346.400,329.135 346.400 C 329.514 346.400,330.083 346.040,330.400 345.600 C 330.717 345.160,331.257 344.800,331.600 344.800 C 331.943 344.800,332.483 344.440,332.800 344.000 C 333.117 343.560,333.588 343.200,333.846 343.200 C 334.105 343.200,334.690 342.795,335.147 342.300 C 337.855 339.365,338.800 338.189,338.800 337.755 C 338.800 337.486,338.946 337.207,339.124 337.133 C 339.674 336.907,341.600 332.697,341.600 331.721 C 341.600 331.215,341.780 330.800,342.000 330.800 C 342.220 330.800,342.400 330.260,342.400 329.600 C 342.400 328.940,342.580 328.400,342.800 328.400 C 343.020 328.400,343.200 328.051,343.200 327.624 C 343.200 327.197,343.380 326.736,343.600 326.600 C 343.820 326.464,344.000 325.834,344.000 325.200 C 344.000 324.566,344.180 323.936,344.400 323.800 C 344.620 323.664,344.800 323.023,344.800 322.376 C 344.800 321.729,344.980 321.200,345.200 321.200 C 345.420 321.200,345.600 320.480,345.600 319.600 C 345.600 318.720,345.780 318.000,346.000 318.000 C 346.220 318.000,346.400 317.190,346.400 316.200 C 346.400 315.210,346.580 314.400,346.800 314.400 C 347.020 314.400,347.200 313.680,347.200 312.800 C 347.200 311.920,347.380 311.200,347.600 311.200 C 347.820 311.200,348.000 310.401,348.000 309.424 C 348.000 308.447,348.180 307.536,348.400 307.400 C 348.620 307.264,348.800 306.544,348.800 305.800 C 348.800 305.056,348.980 304.336,349.200 304.200 C 349.420 304.064,349.600 303.153,349.600 302.176 C 349.600 301.199,349.780 300.400,350.000 300.400 C 350.220 300.400,350.400 299.680,350.400 298.800 C 350.400 297.920,350.580 297.200,350.800 297.200 C 351.020 297.200,351.200 296.401,351.200 295.424 C 351.200 294.447,351.380 293.536,351.600 293.400 C 351.820 293.264,352.000 292.443,352.000 291.576 C 352.000 290.709,352.180 290.000,352.400 290.000 C 352.620 290.000,352.800 289.190,352.800 288.200 C 352.800 287.210,352.980 286.400,353.200 286.400 C 353.420 286.400,353.600 285.691,353.600 284.824 C 353.600 283.957,353.780 283.136,354.000 283.000 C 354.220 282.864,354.400 281.953,354.400 280.976 C 354.400 279.999,354.580 279.200,354.800 279.200 C 355.020 279.200,355.200 278.480,355.200 277.600 C 355.200 276.720,355.362 276.000,355.560 276.000 C 355.758 276.000,356.014 275.235,356.131 274.300 C 356.247 273.365,356.535 271.745,356.771 270.700 C 357.007 269.655,357.393 267.945,357.629 266.900 C 357.864 265.855,358.257 263.605,358.501 261.900 C 358.744 260.195,359.091 258.800,359.272 258.800 C 359.452 258.800,359.600 257.990,359.600 257.000 C 359.600 256.010,359.762 255.200,359.960 255.200 C 360.298 255.200,360.416 254.619,361.032 249.900 C 361.169 248.855,361.442 248.000,361.640 248.000 C 361.838 248.000,362.000 247.291,362.000 246.424 C 362.000 245.557,362.180 244.736,362.400 244.600 C 362.620 244.464,362.800 243.553,362.800 242.576 C 362.800 241.599,362.980 240.800,363.200 240.800 C 363.420 240.800,363.600 240.091,363.600 239.224 C 363.600 238.357,363.780 237.536,364.000 237.400 C 364.220 237.264,364.400 236.443,364.400 235.576 C 364.400 234.709,364.562 234.000,364.760 234.000 C 365.098 234.000,365.216 233.419,365.832 228.700 C 365.969 227.655,366.242 226.800,366.440 226.800 C 366.638 226.800,366.800 226.091,366.800 225.224 C 366.800 224.357,366.980 223.536,367.200 223.400 C 367.420 223.264,367.600 222.443,367.600 221.576 C 367.600 220.709,367.780 220.000,368.000 220.000 C 368.220 220.000,368.400 219.201,368.400 218.224 C 368.400 217.247,368.580 216.336,368.800 216.200 C 369.020 216.064,369.200 215.243,369.200 214.376 C 369.200 213.509,369.380 212.800,369.600 212.800 C 369.820 212.800,370.000 211.900,370.000 210.800 C 370.000 209.700,370.180 208.800,370.400 208.800 C 370.620 208.800,370.800 208.181,370.800 207.424 C 370.800 206.667,370.980 205.936,371.200 205.800 C 371.420 205.664,371.600 204.753,371.600 203.776 C 371.600 202.799,371.780 202.000,372.000 202.000 C 372.220 202.000,372.400 201.291,372.400 200.424 C 372.400 199.557,372.580 198.736,372.800 198.600 C 373.020 198.464,373.200 197.553,373.200 196.576 C 373.200 195.599,373.362 194.800,373.560 194.800 C 373.758 194.800,374.022 194.035,374.147 193.100 C 374.926 187.291,375.384 184.800,375.672 184.800 C 375.852 184.800,376.000 183.900,376.000 182.800 C 376.000 181.700,376.180 180.800,376.400 180.800 C 376.620 180.800,376.800 180.080,376.800 179.200 C 376.800 178.320,376.980 177.600,377.200 177.600 C 377.420 177.600,377.600 176.801,377.600 175.824 C 377.600 174.847,377.780 173.936,378.000 173.800 C 378.220 173.664,378.400 172.944,378.400 172.200 C 378.400 171.456,378.580 170.736,378.800 170.600 C 379.020 170.464,379.200 169.553,379.200 168.576 C 379.200 167.599,379.380 166.800,379.600 166.800 C 379.820 166.800,380.000 166.001,380.000 165.024 C 380.000 164.047,380.180 163.136,380.400 163.000 C 380.620 162.864,380.800 162.043,380.800 161.176 C 380.800 160.309,380.980 159.600,381.200 159.600 C 381.420 159.600,381.600 158.891,381.600 158.024 C 381.600 157.157,381.780 156.336,382.000 156.200 C 382.220 156.064,382.400 155.243,382.400 154.376 C 382.400 153.509,382.580 152.800,382.800 152.800 C 383.020 152.800,383.200 152.001,383.200 151.024 C 383.200 150.047,383.380 149.136,383.600 149.000 C 383.820 148.864,384.000 148.043,384.000 147.176 C 384.000 146.309,384.180 145.600,384.400 145.600 C 384.620 145.600,384.800 144.700,384.800 143.600 C 384.800 142.500,384.980 141.600,385.200 141.600 C 385.420 141.600,385.600 140.981,385.600 140.224 C 385.600 139.467,385.780 138.736,386.000 138.600 C 386.220 138.464,386.400 137.553,386.400 136.576 C 386.400 135.599,386.580 134.800,386.800 134.800 C 387.020 134.800,387.200 134.091,387.200 133.224 C 387.200 132.357,387.380 131.536,387.600 131.400 C 387.820 131.264,388.000 130.353,388.000 129.376 C 388.000 128.399,388.162 127.600,388.360 127.600 C 388.558 127.600,388.814 126.835,388.931 125.900 C 389.047 124.965,389.347 123.300,389.597 122.200 C 389.847 121.100,390.150 119.480,390.271 118.600 C 390.391 117.720,390.643 116.810,390.829 116.578 C 391.016 116.346,391.291 114.681,391.442 112.878 C 391.592 111.075,391.869 109.600,392.058 109.600 C 392.246 109.600,392.400 108.880,392.400 108.000 C 392.400 107.120,392.580 106.400,392.800 106.400 C 393.020 106.400,393.200 105.590,393.200 104.600 C 393.200 103.610,393.380 102.800,393.600 102.800 C 393.820 102.800,394.000 102.091,394.000 101.224 C 394.000 100.357,394.180 99.536,394.400 99.400 C 394.620 99.264,394.800 98.353,394.800 97.376 C 394.800 96.399,394.980 95.600,395.200 95.600 C 395.420 95.600,395.600 94.891,395.600 94.024 C 395.600 93.157,395.780 92.336,396.000 92.200 C 396.220 92.064,396.400 91.254,396.400 90.400 C 396.400 89.546,396.580 88.736,396.800 88.600 C 397.020 88.464,397.200 87.553,397.200 86.576 C 397.200 85.599,397.380 84.800,397.600 84.800 C 397.820 84.800,398.000 84.080,398.000 83.200 C 398.000 82.320,398.180 81.600,398.400 81.600 C 398.620 81.600,398.800 80.715,398.800 79.633 C 398.800 78.419,398.991 77.603,399.299 77.500 C 400.022 77.259,400.024 57.144,399.300 56.901 C 399.025 56.809,398.800 56.458,398.800 56.121 C 398.800 55.399,396.078 52.800,395.322 52.800 C 395.035 52.800,394.800 52.620,394.800 52.400 C 394.800 52.180,394.440 52.000,394.000 52.000 C 393.560 52.000,393.200 51.820,393.200 51.600 C 393.200 51.380,392.581 51.200,391.824 51.200 C 391.067 51.200,390.336 51.020,390.200 50.800 C 390.064 50.580,388.984 50.400,387.800 50.400 C 386.616 50.400,385.536 50.220,385.400 50.000 C 385.236 49.734,334.396 49.600,234.176 49.600 C 133.792 49.600,83.200 49.734,83.200 50.000 M155.881 84.050 C 162.397 86.670,164.443 88.489,177.800 103.547 C 182.061 108.350,194.396 122.075,196.371 124.210 C 197.597 125.536,199.231 127.336,200.001 128.210 C 201.674 130.108,211.897 141.445,214.239 144.000 C 215.147 144.990,218.909 149.130,222.600 153.200 C 226.291 157.270,230.053 161.410,230.961 162.400 C 237.421 169.444,242.745 175.229,246.266 179.028 C 252.274 185.512,252.671 185.969,254.602 188.627 C 262.332 199.265,259.266 205.043,238.000 219.909 C 237.010 220.601,232.935 223.560,228.943 226.484 C 224.952 229.408,220.092 232.958,218.143 234.374 C 216.195 235.790,212.530 238.478,210.000 240.348 C 207.470 242.217,204.095 244.704,202.500 245.873 C 197.716 249.381,193.520 252.453,191.400 253.997 C 190.300 254.799,187.690 256.719,185.600 258.264 C 183.510 259.810,180.000 262.396,177.800 264.011 C 175.600 265.626,171.370 268.744,168.400 270.940 C 163.132 274.835,161.429 276.091,153.600 281.855 C 145.879 287.539,135.705 295.078,121.000 306.014 C 104.573 318.229,97.722 319.614,90.062 312.267 C 82.022 304.556,81.425 296.369,88.383 289.246 C 90.824 286.748,92.914 285.120,106.000 275.528 C 108.750 273.512,112.305 270.903,113.900 269.731 C 115.495 268.559,118.195 266.579,119.900 265.330 C 124.579 261.904,126.487 260.500,132.600 255.988 C 135.680 253.715,139.460 250.930,141.000 249.800 C 149.876 243.286,156.370 238.497,164.200 232.687 C 169.040 229.097,175.520 224.297,178.600 222.020 C 197.980 207.699,208.391 199.723,208.384 199.200 C 208.381 198.870,207.347 197.507,206.089 196.171 C 204.830 194.836,203.348 193.216,202.797 192.571 C 201.082 190.569,195.755 184.557,187.618 175.438 C 183.318 170.620,179.180 165.940,178.423 165.038 C 177.666 164.137,176.046 162.315,174.823 160.990 C 173.600 159.664,171.970 157.862,171.200 156.985 C 168.268 153.646,163.792 148.592,163.596 148.400 C 163.483 148.290,160.160 144.600,156.210 140.200 C 152.260 135.800,148.932 132.110,148.814 132.000 C 148.696 131.890,146.801 129.820,144.603 127.400 C 142.405 124.980,139.619 121.955,138.412 120.677 C 127.800 109.443,126.395 100.688,133.878 92.419 C 136.481 89.542,140.218 86.680,142.961 85.462 C 144.083 84.964,145.450 84.354,146.000 84.106 C 147.311 83.514,154.447 83.473,155.881 84.050 M266.637 276.475 C 277.655 282.288,277.564 301.432,266.492 306.883 L 263.817 308.200 221.008 308.200 L 178.200 308.200 175.968 307.281 C 169.122 304.463,164.711 293.322,167.541 286.000 C 169.547 280.811,172.399 277.471,176.014 276.077 C 178.194 275.237,178.326 275.235,221.400 275.317 L 264.600 275.400 266.637 276.475 " stroke="none" fill="#047bbc" fill-rule="evenodd"></path></g></svg>