<svg id="svg" version="1.1" xmlns="http://www.w3.org/2000/svg" xmlns:xlink="http://www.w3.org/1999/xlink" width="400" height="389.9422358137955" viewBox="0, 0, 400,389.9422358137955"><g id="svgg"><path id="path0" d="M0.000 194.917 L 0.000 389.833 200.000 389.833 L 400.000 389.833 400.000 194.917 L 400.000 0.000 200.000 0.000 L 0.000 0.000 0.000 194.917 M383.333 195.000 L 383.333 373.167 200.083 373.167 L 16.833 373.167 16.833 195.000 L 16.833 16.833 200.083 16.833 L 383.333 16.833 383.333 195.000 M125.000 88.847 C 107.805 89.224,105.505 89.411,105.211 90.460 C 105.044 91.057,105.044 270.776,105.211 271.373 C 105.518 272.469,104.783 272.417,119.947 272.417 L 133.659 272.417 134.121 271.955 L 134.583 271.492 134.626 238.982 L 134.669 206.472 139.626 206.611 C 156.090 207.073,166.640 205.875,177.000 202.368 C 202.421 193.763,215.726 174.576,215.740 146.500 C 215.756 115.074,198.099 94.960,166.000 89.838 C 159.216 88.756,144.926 88.410,125.000 88.847 M157.750 115.412 C 176.848 117.992,186.237 128.954,185.787 148.149 C 185.332 167.505,175.209 177.784,154.552 179.865 C 152.178 180.104,138.176 180.156,135.958 179.934 L 134.667 179.805 134.667 147.672 L 134.667 115.540 136.458 115.414 C 142.989 114.957,154.370 114.956,157.750 115.412 M294.338 135.019 C 278.220 135.819,259.184 139.777,243.785 145.530 C 240.127 146.896,240.251 146.595,240.755 152.917 C 241.261 159.268,241.326 166.810,241.330 218.857 C 241.333 268.707,241.349 271.482,241.625 271.823 C 242.138 272.456,242.917 272.492,256.250 272.492 C 269.583 272.492,270.362 272.456,270.875 271.823 C 271.151 271.482,271.167 268.697,271.167 218.585 C 271.167 176.482,271.209 165.674,271.375 165.543 C 273.496 163.864,287.667 162.133,298.910 162.179 C 303.872 162.200,303.905 162.197,304.202 161.831 C 304.483 161.485,304.500 160.707,304.500 148.494 L 304.500 135.524 304.061 135.179 C 303.567 134.790,300.102 134.733,294.338 135.019 " stroke="none" fill="#ea77ff" fill-rule="evenodd"></path><path id="path1" d="M16.833 195.000 L 16.833 373.167 200.083 373.167 L 383.333 373.167 383.333 195.000 L 383.333 16.833 200.083 16.833 L 16.833 16.833 16.833 195.000 M160.667 89.145 C 196.428 93.116,215.757 113.246,215.740 146.500 C 215.726 174.576,202.421 193.763,177.000 202.368 C 166.640 205.875,156.090 207.073,139.626 206.611 L 134.669 206.472 134.626 238.982 L 134.583 271.492 134.121 271.955 L 133.659 272.417 119.947 272.417 C 104.783 272.417,105.518 272.469,105.211 271.373 C 105.044 270.776,105.044 91.057,105.211 90.460 C 105.474 89.521,105.616 89.496,112.364 89.231 C 129.248 88.569,155.064 88.523,160.667 89.145 M141.667 115.160 C 139.787 115.231,137.444 115.345,136.458 115.414 L 134.667 115.540 134.667 147.672 L 134.667 179.805 135.958 179.934 C 138.176 180.156,152.178 180.104,154.552 179.865 C 175.209 177.784,185.332 167.505,185.787 148.149 C 186.115 134.139,181.143 124.464,170.917 119.217 C 164.069 115.703,156.205 114.612,141.667 115.160 M304.061 135.179 L 304.500 135.524 304.500 148.494 C 304.500 160.707,304.483 161.485,304.202 161.831 C 303.905 162.197,303.872 162.200,298.910 162.179 C 287.667 162.133,273.496 163.864,271.375 165.543 C 271.209 165.674,271.167 176.482,271.167 218.585 C 271.167 268.697,271.151 271.482,270.875 271.823 C 270.362 272.456,269.583 272.492,256.250 272.492 C 242.917 272.492,242.138 272.456,241.625 271.823 C 241.349 271.482,241.333 268.707,241.330 218.857 C 241.326 166.810,241.261 159.268,240.755 152.917 C 240.251 146.595,240.127 146.896,243.785 145.530 C 261.353 138.966,282.402 134.995,300.353 134.858 C 303.428 134.835,303.648 134.854,304.061 135.179 " stroke="none" fill="#2a0034" fill-rule="evenodd"></path></g></svg>