<svg id="svg" version="1.1" xmlns="http://www.w3.org/2000/svg" xmlns:xlink="http://www.w3.org/1999/xlink" width="400" height="389.983305509182" viewBox="0, 0, 400,389.983305509182"><g id="svgg"><path id="path0" d="M0.000 195.122 L 0.000 390.244 200.000 390.244 L 400.000 390.244 400.000 195.122 L 400.000 0.000 200.000 0.000 L 0.000 0.000 0.000 195.122 M383.220 195.122 L 383.220 373.463 200.000 373.463 L 16.780 373.463 16.780 195.122 L 16.780 16.780 200.000 16.780 L 383.220 16.780 383.220 195.122 M114.422 88.986 C 101.596 89.279,99.696 89.402,98.422 90.025 L 96.976 90.732 96.876 181.268 C 96.782 266.043,96.818 271.836,97.438 272.293 C 97.938 272.661,101.426 272.780,111.662 272.780 L 125.224 272.780 125.832 271.913 C 126.369 271.145,126.439 267.366,126.439 238.936 L 126.439 206.827 135.512 206.878 C 178.250 207.117,202.824 189.511,207.016 155.649 C 210.690 125.974,198.275 102.594,174.049 93.563 C 161.844 89.014,150.698 88.158,114.422 88.986 M154.732 116.446 C 170.507 120.489,178.161 131.488,177.436 149.073 C 176.726 166.286,168.412 175.867,151.169 179.347 C 147.719 180.043,132.268 180.575,128.644 180.122 L 126.439 179.846 126.439 147.697 L 126.439 115.548 129.073 115.387 C 137.361 114.880,150.784 115.434,154.732 116.446 M259.512 135.634 C 236.062 139.843,222.170 156.423,224.017 177.997 C 225.409 194.250,233.213 203.718,254.352 214.802 C 272.883 224.517,277.854 229.116,277.854 236.544 C 277.854 251.933,250.864 253.937,226.999 240.319 C 223.522 238.335,223.610 238.003,223.610 253.122 C 223.610 267.628,223.538 267.266,226.728 268.876 C 240.222 275.688,264.484 277.092,279.963 271.957 C 296.459 266.484,306.067 253.915,306.986 236.606 C 308.000 217.499,299.203 205.109,276.293 193.378 C 257.063 183.532,252.355 179.429,252.318 172.487 C 252.299 168.826,253.670 166.063,256.624 163.809 C 263.982 158.193,283.352 159.469,297.066 166.472 C 301.309 168.638,301.268 168.758,301.268 154.055 C 301.268 139.708,301.413 140.313,297.635 138.811 C 289.521 135.587,269.207 133.894,259.512 135.634 " stroke="none" fill="#04c8fa" fill-rule="evenodd"></path><path id="path1" d="M16.780 195.122 L 16.780 373.463 200.000 373.463 L 383.220 373.463 383.220 195.122 L 383.220 16.780 200.000 16.780 L 16.780 16.780 16.780 195.122 M157.659 89.554 C 189.972 94.122,207.610 114.157,207.610 146.291 C 207.610 185.612,181.993 207.138,135.512 206.878 L 126.439 206.827 126.439 238.936 C 126.439 267.366,126.369 271.145,125.832 271.913 L 125.224 272.780 111.662 272.780 C 101.426 272.780,97.938 272.661,97.438 272.293 C 96.818 271.836,96.782 266.043,96.876 181.268 L 96.976 90.732 98.422 90.025 C 101.325 88.606,148.309 88.232,157.659 89.554 M129.073 115.387 L 126.439 115.548 126.439 147.697 L 126.439 179.846 128.644 180.122 C 132.268 180.575,147.719 180.043,151.169 179.347 C 168.412 175.867,176.726 166.286,177.436 149.073 C 178.489 123.539,163.742 113.268,129.073 115.387 M283.200 135.614 C 292.306 136.781,299.455 138.863,300.659 140.701 C 301.455 141.916,301.586 166.161,300.800 166.946 C 300.102 167.645,299.118 167.520,297.066 166.472 C 283.352 159.469,263.982 158.193,256.624 163.809 C 253.670 166.063,252.299 168.826,252.318 172.487 C 252.355 179.429,257.063 183.532,276.293 193.378 C 299.203 205.109,308.000 217.499,306.986 236.606 C 306.067 253.915,296.459 266.484,279.963 271.957 C 264.484 277.092,240.222 275.688,226.728 268.876 C 223.538 267.266,223.610 267.628,223.610 253.122 C 223.610 238.003,223.522 238.335,226.999 240.319 C 250.864 253.937,277.854 251.933,277.854 236.544 C 277.854 229.116,272.883 224.517,254.352 214.802 C 233.213 203.718,225.409 194.250,224.017 177.997 C 221.521 148.842,246.547 130.920,283.200 135.614 " stroke="none" fill="#041c24" fill-rule="evenodd"></path></g></svg>