<svg id="svg" version="1.1" xmlns="http://www.w3.org/2000/svg" xmlns:xlink="http://www.w3.org/1999/xlink" width="400" height="398.33333333333337" viewBox="0, 0, 400,398.33333333333337"><g id="svgg"><path id="path0" d="M308.833 125.042 C 308.832 153.198,308.783 154.457,307.422 161.139 C 302.599 184.821,288.016 199.553,265.583 203.405 C 260.530 204.272,263.934 204.219,206.750 204.327 C 157.680 204.420,153.583 204.449,151.500 204.718 C 121.410 208.604,104.761 225.523,103.499 253.500 C 103.198 260.187,103.285 348.809,103.595 351.034 C 106.654 372.963,128.467 388.679,163.677 394.322 C 189.427 398.449,224.903 397.819,248.412 392.818 C 273.768 387.423,289.875 376.874,294.898 362.371 C 296.340 358.211,296.262 360.096,296.208 330.458 L 296.167 307.500 247.833 307.500 L 199.500 307.500 199.500 300.749 L 199.500 293.999 270.042 294.000 C 347.039 294.001,342.169 294.059,347.083 293.078 C 382.066 286.091,400.896 249.746,399.199 192.485 C 397.714 142.382,382.311 111.172,354.705 102.331 C 348.770 100.430,347.392 100.333,326.142 100.333 L 308.833 100.333 308.833 125.042 M258.500 332.180 C 270.867 335.337,275.833 349.966,267.888 359.832 C 258.583 371.387,239.944 366.454,237.421 351.770 C 235.359 339.772,246.755 329.182,258.500 332.180 " stroke="none" fill="#ffd242" fill-rule="evenodd"></path><path id="path1" d="M188.595 0.166 C 140.969 1.764,111.580 13.854,104.525 34.750 C 103.116 38.922,103.224 35.914,103.292 69.125 L 103.333 89.667 151.667 89.667 L 200.000 89.667 200.000 96.422 L 200.000 103.178 128.958 103.166 C 52.937 103.153,56.999 103.113,52.835 103.908 C 15.377 111.061,-3.781 152.079,0.754 215.417 C 3.871 258.956,19.655 287.147,45.260 294.909 C 50.940 296.631,51.493 296.667,72.571 296.667 L 90.656 296.667 90.711 270.208 C 90.773 240.783,90.700 242.801,91.925 236.475 C 96.556 212.546,111.536 197.325,134.057 193.665 C 139.871 192.719,136.030 192.784,193.667 192.669 C 241.875 192.573,246.924 192.538,248.648 192.287 C 277.621 188.068,293.720 172.329,295.820 146.167 C 295.926 144.844,295.993 126.319,296.004 95.417 L 296.022 46.750 295.600 44.500 C 289.969 14.469,250.440 -1.909,188.595 0.166 M149.417 31.390 C 168.833 36.789,165.049 65.247,144.917 65.230 C 129.513 65.217,121.922 46.756,132.834 35.844 C 137.074 31.604,143.744 29.812,149.417 31.390 " stroke="none" fill="#3770a0" fill-rule="evenodd"></path><path id="path0" d="M308.833 125.042 C 308.832 153.198,308.783 154.457,307.422 161.139 C 302.599 184.821,288.016 199.553,265.583 203.405 C 260.530 204.272,263.934 204.219,206.750 204.327 C 157.680 204.420,153.583 204.449,151.500 204.718 C 121.410 208.604,104.761 225.523,103.499 253.500 C 103.198 260.187,103.285 348.809,103.595 351.034 C 106.654 372.963,128.467 388.679,163.677 394.322 C 189.427 398.449,224.903 397.819,248.412 392.818 C 273.768 387.423,289.875 376.874,294.898 362.371 C 296.340 358.211,296.262 360.096,296.208 330.458 L 296.167 307.500 247.833 307.500 L 199.500 307.500 199.500 300.749 L 199.500 293.999 270.042 294.000 C 347.039 294.001,342.169 294.059,347.083 293.078 C 382.066 286.091,400.896 249.746,399.199 192.485 C 397.714 142.382,382.311 111.172,354.705 102.331 C 348.770 100.430,347.392 100.333,326.142 100.333 L 308.833 100.333 308.833 125.042 M258.500 332.180 C 270.867 335.337,275.833 349.966,267.888 359.832 C 258.583 371.387,239.944 366.454,237.421 351.770 C 235.359 339.772,246.755 329.182,258.500 332.180 " stroke="none" fill="#ffd242" fill-rule="evenodd"></path><path id="path1" d="M188.595 0.166 C 140.969 1.764,111.580 13.854,104.525 34.750 C 103.116 38.922,103.224 35.914,103.292 69.125 L 103.333 89.667 151.667 89.667 L 200.000 89.667 200.000 96.422 L 200.000 103.178 128.958 103.166 C 52.937 103.153,56.999 103.113,52.835 103.908 C 15.377 111.061,-3.781 152.079,0.754 215.417 C 3.871 258.956,19.655 287.147,45.260 294.909 C 50.940 296.631,51.493 296.667,72.571 296.667 L 90.656 296.667 90.711 270.208 C 90.773 240.783,90.700 242.801,91.925 236.475 C 96.556 212.546,111.536 197.325,134.057 193.665 C 139.871 192.719,136.030 192.784,193.667 192.669 C 241.875 192.573,246.924 192.538,248.648 192.287 C 277.621 188.068,293.720 172.329,295.820 146.167 C 295.926 144.844,295.993 126.319,296.004 95.417 L 296.022 46.750 295.600 44.500 C 289.969 14.469,250.440 -1.909,188.595 0.166 M149.417 31.390 C 168.833 36.789,165.049 65.247,144.917 65.230 C 129.513 65.217,121.922 46.756,132.834 35.844 C 137.074 31.604,143.744 29.812,149.417 31.390 " stroke="none" fill="#3770a0" fill-rule="evenodd"></path></g></svg>