<svg id="svg" version="1.1" xmlns="http://www.w3.org/2000/svg" xmlns:xlink="http://www.w3.org/1999/xlink" width="400" height="400" viewBox="0, 0, 400,400"><g id="svgg"><path id="path0" d="M97.500 30.517 C 57.350 47.304,24.491 61.053,24.480 61.070 C 24.469 61.086,21.199 95.480,17.214 137.500 C 13.229 179.520,8.311 231.360,6.285 252.700 C -0.825 327.590,-0.062 319.262,0.204 319.097 C 0.469 318.934,0.450 319.125,0.155 319.598 C -0.003 319.851,-0.021 320.053,0.105 320.169 C 0.617 320.637,136.719 399.878,137.030 399.888 C 137.350 399.899,164.944 367.872,164.763 367.700 C 164.729 367.667,153.632 364.520,140.104 360.707 C 126.577 356.895,115.485 353.751,115.456 353.722 C 115.426 353.693,116.797 346.952,118.501 338.742 C 120.206 330.533,121.600 323.722,121.600 323.608 C 121.600 323.465,114.529 323.400,99.100 323.400 L 76.600 323.400 76.553 294.350 C 76.527 278.373,76.460 269.271,76.403 274.125 L 76.300 282.950 55.300 276.271 C 43.750 272.599,34.219 269.568,34.119 269.536 C 33.977 269.492,69.640 215.876,75.239 207.717 L 76.600 205.734 76.600 141.167 L 76.600 76.600 144.062 76.600 L 211.524 76.600 227.412 62.485 C 236.150 54.722,243.416 48.257,243.558 48.119 C 243.828 47.858,171.800 0.219,170.900 0.063 C 170.680 0.025,137.650 13.729,97.500 30.517 " stroke="none" fill="#2ad494" fill-rule="evenodd"></path><path id="path1" d="M336.850 174.351 L 323.601 179.452 323.550 251.476 L 323.500 323.500 243.976 323.550 L 164.452 323.600 164.326 334.650 C 164.256 340.728,164.143 350.582,164.074 356.550 C 163.951 367.238,163.955 367.400,164.341 367.400 C 164.557 367.400,164.801 367.468,164.883 367.550 C 164.966 367.632,165.093 367.708,165.167 367.717 C 165.240 367.726,165.560 367.841,165.878 367.972 C 166.195 368.104,166.502 368.164,166.559 368.107 C 166.616 368.050,166.775 368.096,166.911 368.209 C 167.171 368.425,167.854 368.626,168.450 368.664 C 168.643 368.676,168.800 368.756,168.800 368.843 C 168.800 368.929,168.937 369.000,169.105 369.000 C 169.272 369.000,171.095 369.483,173.155 370.073 C 175.215 370.663,178.115 371.484,179.600 371.896 C 181.085 372.309,182.570 372.727,182.900 372.826 C 183.789 373.094,190.607 375.023,194.500 376.109 C 196.370 376.631,199.880 377.622,202.300 378.311 C 204.720 379.000,208.635 380.104,211.000 380.764 C 213.365 381.425,229.241 385.895,246.280 390.697 C 263.319 395.500,277.414 399.441,277.603 399.455 C 278.167 399.498,399.842 357.923,399.946 357.652 C 400.051 357.380,365.718 226.876,365.285 225.900 C 365.138 225.570,361.716 212.745,357.680 197.400 C 353.644 182.055,350.287 169.444,350.221 169.375 C 350.154 169.306,344.138 171.545,336.850 174.351 " stroke="none" fill="#ebf685" fill-rule="evenodd"></path><path id="path2" d="M192.850 76.550 L 76.600 76.600 76.600 200.000 L 76.600 323.400 200.000 323.400 L 323.400 323.400 323.400 216.733 C 323.400 158.066,323.460 102.491,323.533 93.233 L 323.666 76.400 316.383 76.450 C 312.377 76.477,256.788 76.522,192.850 76.550 M251.200 107.892 C 263.351 109.422,271.894 113.362,281.050 121.658 C 283.146 123.556,283.115 123.181,281.340 125.222 C 280.537 126.145,277.334 129.852,274.223 133.460 L 268.567 140.021 267.733 139.258 C 249.634 122.709,225.191 125.812,215.799 145.853 C 207.142 164.326,216.651 186.642,235.083 191.111 C 246.391 193.853,257.248 190.580,267.711 181.275 L 269.122 180.020 276.302 187.202 L 283.481 194.383 280.691 197.147 C 269.313 208.415,256.969 213.026,239.500 212.535 C 210.940 211.732,189.882 190.509,189.260 161.900 C 188.618 132.331,208.248 110.474,238.100 107.518 C 239.901 107.339,248.840 107.594,251.200 107.892 M148.900 109.662 C 168.785 113.058,180.000 125.729,180.000 144.800 C 180.000 164.433,167.647 177.639,146.400 180.719 C 144.548 180.987,141.930 181.070,132.950 181.144 L 121.800 181.237 121.800 196.318 L 121.800 211.400 110.600 211.400 L 99.400 211.400 99.400 160.293 L 99.400 109.186 123.150 109.253 C 144.433 109.314,147.108 109.356,148.900 109.662 M121.800 144.900 L 121.800 160.600 131.050 160.598 C 144.612 160.596,147.393 160.086,151.600 156.831 C 159.812 150.477,158.779 135.916,149.800 131.450 C 145.761 129.441,143.808 129.201,131.450 129.201 L 121.800 129.200 121.800 144.900 M192.600 284.900 L 192.600 292.600 146.300 292.600 L 100.000 292.600 100.000 284.900 L 100.000 277.200 146.300 277.200 L 192.600 277.200 192.600 284.900 " stroke="none" fill="#040404" fill-rule="evenodd"></path><path id="path3" d="M238.591 107.603 C 209.364 109.453,188.220 132.944,189.269 162.400 C 190.504 197.097,221.726 219.448,256.900 210.815 C 266.070 208.564,272.901 204.633,280.356 197.315 L 283.413 194.315 276.357 187.257 C 272.477 183.376,269.225 180.200,269.132 180.200 C 269.038 180.200,268.363 180.752,267.631 181.426 C 257.258 190.985,244.608 194.341,232.983 190.617 C 211.653 183.783,205.438 153.481,221.986 136.995 C 227.983 131.020,233.772 128.692,242.600 128.708 C 252.025 128.724,259.037 131.568,267.189 138.682 C 267.898 139.301,268.543 139.783,268.622 139.754 C 268.701 139.724,271.919 136.055,275.772 131.600 L 282.779 123.500 281.075 121.845 C 270.419 111.493,255.604 106.526,238.591 107.603 M99.400 160.291 L 99.400 211.400 110.499 211.400 L 121.597 211.400 121.649 196.250 L 121.700 181.100 133.400 180.984 C 145.943 180.860,146.617 180.812,151.400 179.688 C 170.111 175.294,180.886 161.395,179.907 142.916 C 178.937 124.605,167.910 112.863,148.762 109.753 C 146.162 109.330,145.556 109.319,122.750 109.251 L 99.400 109.182 99.400 160.291 M141.464 129.205 C 151.747 130.040,157.197 135.407,157.197 144.700 C 157.197 152.488,152.985 157.848,145.202 159.965 L 143.300 160.482 132.450 160.553 L 121.600 160.625 121.600 144.946 C 121.600 136.322,121.660 129.207,121.733 129.133 C 121.947 128.919,138.695 128.980,141.464 129.205 M100.000 284.900 L 100.000 292.601 146.250 292.550 L 192.500 292.500 192.552 284.850 L 192.605 277.200 146.302 277.200 L 100.000 277.200 100.000 284.900 " stroke="none" fill="#ffffff" fill-rule="evenodd"></path><path id="path4" d="M323.400 139.078 L 323.400 179.390 323.850 179.218 C 324.098 179.124,330.075 176.831,337.133 174.123 C 344.191 171.415,350.054 169.200,350.160 169.200 C 350.267 169.200,350.530 169.853,350.745 170.650 C 350.960 171.447,354.319 184.186,358.210 198.958 L 365.285 225.816 365.773 224.858 C 367.348 221.772,397.200 160.730,397.200 160.597 C 397.200 160.428,323.935 98.949,323.595 98.833 C 323.469 98.790,323.400 112.917,323.400 139.078 " stroke="none" fill="#09c5e8" fill-rule="evenodd"></path><path id="path5" d="M270.800 23.762 C 256.115 36.828,243.683 47.919,243.173 48.409 C 242.663 48.899,235.359 55.420,226.940 62.900 L 211.634 76.500 260.250 76.550 C 286.989 76.578,308.902 76.564,308.947 76.520 C 309.141 76.325,297.856 -0.002,297.634 0.004 C 297.560 0.005,285.485 10.697,270.800 23.762 M239.552 107.541 C 239.801 107.589,240.161 107.587,240.352 107.537 C 240.544 107.487,240.340 107.448,239.900 107.450 C 239.460 107.453,239.304 107.494,239.552 107.541 M244.653 107.544 C 244.957 107.589,245.407 107.588,245.653 107.541 C 245.899 107.493,245.650 107.456,245.100 107.457 C 244.550 107.459,244.349 107.498,244.653 107.544 M170.400 119.900 C 170.773 120.285,171.123 120.600,171.178 120.600 C 171.233 120.600,170.973 120.285,170.600 119.900 C 170.227 119.515,169.877 119.200,169.822 119.200 C 169.767 119.200,170.027 119.515,170.400 119.900 M204.291 122.650 L 203.500 123.500 204.350 122.709 C 205.140 121.974,205.292 121.800,205.141 121.800 C 205.108 121.800,204.725 122.183,204.291 122.650 M282.000 122.700 C 282.373 123.085,282.723 123.400,282.778 123.400 C 282.833 123.400,282.573 123.085,282.200 122.700 C 281.827 122.315,281.477 122.000,281.422 122.000 C 281.367 122.000,281.627 122.315,282.000 122.700 M121.692 129.250 C 121.640 129.388,121.620 136.520,121.650 145.100 L 121.702 160.700 121.751 144.952 L 121.800 129.204 130.750 129.150 L 139.700 129.096 130.744 129.048 C 123.727 129.010,121.767 129.054,121.692 129.250 M152.600 133.263 C 152.600 133.297,152.893 133.590,153.250 133.913 L 153.900 134.500 153.313 133.850 C 152.765 133.244,152.600 133.108,152.600 133.263 M179.846 142.000 C 179.846 142.385,179.888 142.542,179.938 142.350 C 179.988 142.157,179.988 141.843,179.938 141.650 C 179.888 141.458,179.846 141.615,179.846 142.000 M323.450 251.350 L 323.400 323.400 222.542 323.400 L 121.683 323.400 118.544 338.535 C 116.817 346.859,115.427 353.694,115.456 353.723 C 115.554 353.821,163.860 367.407,163.915 367.352 C 163.964 367.303,164.401 329.381,164.400 325.250 L 164.400 323.600 243.906 323.600 C 307.327 323.600,323.432 323.549,323.507 323.350 C 323.560 323.213,323.579 290.745,323.551 251.200 L 323.499 179.300 323.450 251.350 M121.692 181.250 C 121.640 181.388,121.620 188.250,121.650 196.500 L 121.703 211.500 121.751 196.352 L 121.800 181.204 131.650 181.150 L 141.500 181.096 131.644 181.048 C 123.907 181.010,121.767 181.054,121.692 181.250 M281.789 195.950 L 281.100 196.700 281.850 196.011 C 282.548 195.369,282.692 195.200,282.539 195.200 C 282.506 195.200,282.168 195.538,281.789 195.950 M204.100 197.800 C 204.864 198.570,205.534 199.200,205.589 199.200 C 205.644 199.200,205.064 198.570,204.300 197.800 C 203.536 197.030,202.866 196.400,202.811 196.400 C 202.756 196.400,203.336 197.030,204.100 197.800 M279.491 198.250 L 278.700 199.100 279.550 198.309 C 280.340 197.574,280.492 197.400,280.341 197.400 C 280.308 197.400,279.925 197.783,279.491 198.250 M75.328 207.581 C 68.483 217.624,33.983 269.494,34.120 269.537 C 34.219 269.568,43.750 272.599,55.300 276.272 L 76.300 282.950 76.446 270.525 C 76.527 263.691,76.572 246.346,76.546 231.981 L 76.500 205.861 75.328 207.581 M237.752 212.541 C 238.001 212.589,238.361 212.587,238.552 212.537 C 238.744 212.487,238.540 212.448,238.100 212.450 C 237.660 212.453,237.504 212.494,237.752 212.541 M243.950 212.541 C 244.197 212.589,244.603 212.589,244.850 212.541 C 245.097 212.493,244.895 212.454,244.400 212.454 C 243.905 212.454,243.703 212.493,243.950 212.541 " stroke="none" fill="#9ee26f" fill-rule="evenodd"></path></g></svg>