<svg id="svg" version="1.1" xmlns="http://www.w3.org/2000/svg" xmlns:xlink="http://www.w3.org/1999/xlink" width="400" height="398.33333333333337" viewBox="0, 0, 400,398.33333333333337"><g id="svgg"><path id="path0" d="M136.000 66.788 C 129.791 71.217,125.395 74.603,121.662 77.833 C 110.532 87.464,101.034 98.028,93.040 109.667 C 84.576 121.989,77.971 135.261,73.268 149.391 C 72.168 152.695,72.189 152.511,72.875 152.908 C 77.079 155.340,83.548 161.255,87.192 166.000 C 106.606 191.275,100.499 227.114,73.744 244.916 C 72.059 246.037,72.090 245.580,73.431 249.523 C 83.939 280.418,102.758 306.338,129.750 327.093 C 131.739 328.622,136.998 332.333,137.177 332.333 C 137.254 332.333,139.432 328.790,142.017 324.458 C 144.602 320.127,147.257 315.683,147.918 314.583 C 148.578 313.483,151.578 308.458,154.584 303.417 C 160.180 294.030,164.811 286.273,169.199 278.936 C 170.564 276.656,171.658 274.733,171.632 274.665 C 171.605 274.596,170.721 273.845,169.667 272.994 C 157.900 263.505,148.112 251.010,142.255 238.000 C 141.739 236.854,141.248 235.767,141.164 235.583 C 140.145 233.364,138.311 228.163,137.324 224.694 C 126.971 188.293,139.715 149.248,169.760 125.318 C 170.809 124.483,171.667 123.755,171.667 123.701 C 171.667 123.580,171.150 122.700,167.002 115.750 C 165.196 112.725,162.309 107.888,160.586 105.000 C 158.863 102.112,155.975 97.275,154.168 94.250 C 152.361 91.225,148.423 84.625,145.416 79.583 C 137.720 66.676,137.309 65.999,137.190 66.008 C 137.131 66.012,136.596 66.363,136.000 66.788 M323.627 321.586 C 308.553 323.411,295.771 332.837,290.356 346.121 C 285.852 357.172,287.310 371.165,293.912 380.250 C 300.520 389.344,308.412 394.732,318.667 397.154 C 327.456 399.229,338.271 398.411,345.500 395.124 C 348.233 393.881,349.338 393.321,351.000 392.337 C 367.471 382.583,374.317 363.138,367.326 345.965 C 360.633 329.525,342.342 319.321,323.627 321.586 " stroke="none" fill="#fcb414" fill-rule="evenodd"></path><path id="path1" d="M226.583 37.111 C 206.311 37.899,186.896 41.983,168.627 49.303 C 165.541 50.540,161.835 52.142,161.615 52.335 C 161.521 52.417,195.453 109.589,195.921 110.135 C 195.945 110.164,196.929 109.836,198.108 109.406 C 257.002 87.931,321.361 124.539,331.081 185.042 L 331.182 185.667 365.591 185.667 L 400.000 185.667 400.000 185.042 C 400.000 184.698,399.847 183.067,399.659 181.417 C 395.796 147.377,381.503 116.494,357.715 90.787 C 354.840 87.680,355.158 87.840,353.500 88.668 C 352.996 88.920,351.721 89.464,350.667 89.878 C 314.655 104.015,275.294 80.843,271.613 43.336 L 271.408 41.256 269.663 40.875 C 256.408 37.981,240.332 36.576,226.583 37.111 M36.250 160.923 C 6.475 164.186,-9.741 195.688,6.098 219.500 C 23.425 245.552,64.891 243.121,78.582 215.250 C 91.964 188.010,68.134 157.429,36.250 160.923 " stroke="none" fill="#fc640c" fill-rule="evenodd"></path><path id="path2" d="M323.750 0.243 C 295.890 3.662,279.678 31.172,291.538 54.903 C 301.459 74.752,327.252 82.816,348.083 72.581 C 367.253 63.163,375.319 41.257,366.432 22.750 C 359.017 7.309,341.489 -1.934,323.750 0.243 M304.167 132.583 C 304.478 132.904,304.770 133.167,304.815 133.167 C 304.861 133.167,304.644 132.904,304.333 132.583 C 304.022 132.262,303.730 132.000,303.685 132.000 C 303.639 132.000,303.856 132.262,304.167 132.583 M330.999 213.875 C 321.095 274.271,255.318 311.037,197.205 288.660 C 196.508 288.392,195.926 288.190,195.910 288.211 C 195.675 288.526,161.501 345.900,161.503 345.976 C 161.506 346.126,165.708 347.931,169.897 349.583 C 201.210 361.932,236.685 364.662,270.600 357.333 L 271.451 357.150 271.638 355.116 C 275.175 316.757,316.712 293.334,352.797 309.350 L 355.083 310.365 356.798 308.581 C 381.004 283.405,397.419 247.490,399.931 214.208 L 400.048 212.667 365.622 212.667 L 331.197 212.667 330.999 213.875 " stroke="none" fill="#cc0414" fill-rule="evenodd"></path><path id="path3" d="" stroke="none" fill="#e4b810" fill-rule="evenodd"></path><path id="path4" d="" stroke="none" fill="#e4b810" fill-rule="evenodd"></path><path id="path5" d="" stroke="none" fill="#e4b810" fill-rule="evenodd"></path></g></svg>