<svg id="svg" version="1.1" xmlns="http://www.w3.org/2000/svg" xmlns:xlink="http://www.w3.org/1999/xlink" width="400" height="396.875" viewBox="0, 0, 400,396.875"><g id="svgg"><path id="path0" d="M300.695 0.452 C 301.241 0.711,301.956 0.945,302.284 0.972 C 302.612 0.999,303.270 1.238,303.747 1.504 C 304.225 1.769,304.761 1.979,304.939 1.970 C 305.307 1.952,303.091 0.678,302.483 0.558 C 302.264 0.515,301.549 0.368,300.894 0.231 C 299.728 -0.013,299.724 -0.008,300.695 0.452 M278.404 2.658 C 278.378 2.835,278.378 3.113,278.404 3.277 C 278.430 3.441,278.202 3.575,277.898 3.575 C 277.253 3.575,276.738 4.643,277.234 4.950 C 277.419 5.064,278.618 4.824,279.898 4.415 C 281.177 4.006,282.582 3.570,283.019 3.445 C 283.456 3.321,282.673 3.320,281.279 3.442 C 279.568 3.593,278.829 3.530,279.002 3.250 C 279.143 3.022,279.077 2.723,278.855 2.586 C 278.633 2.449,278.430 2.481,278.404 2.658 M288.381 3.709 C 293.070 5.095,296.085 7.519,298.007 11.447 L 299.305 14.101 299.305 61.450 C 299.305 87.491,299.442 108.661,299.609 108.494 C 299.777 108.327,299.866 86.931,299.808 60.947 L 299.702 13.704 298.543 11.342 C 296.477 7.136,292.148 3.825,288.097 3.355 C 286.619 3.183,286.624 3.189,288.381 3.709 M321.351 10.328 C 321.351 10.546,321.693 10.725,322.112 10.725 C 322.531 10.725,322.953 10.948,323.051 11.221 C 323.148 11.495,323.373 11.582,323.551 11.416 C 323.912 11.079,322.621 9.963,321.847 9.943 C 321.574 9.936,321.351 10.109,321.351 10.328 M334.093 15.775 C 334.076 16.041,334.407 16.443,334.830 16.669 C 335.892 17.238,336.174 17.183,335.567 16.526 C 335.285 16.222,334.936 16.044,334.791 16.132 C 334.645 16.219,334.436 16.066,334.325 15.792 C 334.175 15.418,334.116 15.414,334.093 15.775 M352.489 25.094 C 352.318 25.371,352.388 25.435,352.672 25.260 C 352.931 25.100,353.239 25.248,353.372 25.595 C 353.614 26.227,354.320 26.465,354.320 25.915 C 354.320 25.305,352.785 24.617,352.489 25.094 M386.097 41.247 C 386.097 41.430,386.589 41.802,387.190 42.073 L 388.282 42.565 387.405 41.739 C 386.464 40.854,386.097 40.716,386.097 41.247 M36.748 94.467 C 36.668 94.547,35.953 94.672,35.158 94.746 C 34.363 94.820,33.452 95.097,33.133 95.362 C 32.814 95.627,32.448 95.738,32.320 95.610 C 32.061 95.351,28.964 97.190,28.507 97.875 C 28.346 98.115,28.212 98.178,28.209 98.014 C 28.205 97.851,27.509 98.387,26.660 99.206 C 24.009 101.766,22.664 102.880,22.224 102.880 C 21.991 102.880,21.911 103.059,22.046 103.277 C 22.181 103.496,22.110 103.674,21.889 103.674 C 21.667 103.674,21.031 104.129,20.475 104.685 C 19.919 105.241,19.464 105.592,19.464 105.464 C 19.464 105.336,19.214 105.462,18.910 105.744 C 18.605 106.026,18.421 106.364,18.500 106.496 C 18.691 106.814,16.990 108.401,16.499 108.363 C 16.288 108.347,15.931 108.663,15.705 109.066 C 15.069 110.196,14.420 110.811,14.149 110.541 C 14.013 110.405,13.903 110.622,13.903 111.023 C 13.903 111.423,13.806 111.654,13.688 111.536 C 13.490 111.338,12.051 112.417,10.269 114.101 C 9.864 114.484,9.533 114.725,9.533 114.638 C 9.533 114.550,8.908 115.104,8.143 115.869 C 7.378 116.634,6.753 117.420,6.753 117.617 C 6.753 117.813,6.479 117.974,6.144 117.974 C 5.810 117.974,5.434 118.241,5.308 118.568 C 5.183 118.894,4.921 119.062,4.725 118.942 C 4.529 118.821,4.369 119.011,4.369 119.364 C 4.369 119.718,4.191 119.897,3.972 119.762 C 3.754 119.627,3.575 119.795,3.575 120.135 C 3.575 120.476,3.217 121.112,2.781 121.549 C 2.344 121.986,1.986 122.612,1.986 122.939 C 1.986 123.267,1.729 123.535,1.414 123.535 C 0.593 123.535,0.198 124.359,0.832 124.750 C 1.267 125.019,1.249 125.127,0.736 125.324 C -0.057 125.628,-0.371 137.956,0.402 138.434 C 0.648 138.586,0.749 138.969,0.627 139.286 C 0.504 139.608,0.580 139.755,0.799 139.620 C 1.015 139.486,1.192 139.656,1.192 139.996 C 1.192 140.337,1.370 140.616,1.589 140.616 C 1.807 140.616,1.986 140.805,1.986 141.036 C 1.986 141.270,1.765 141.322,1.490 141.154 C 1.216 140.987,1.529 141.426,2.185 142.128 C 5.379 145.552,7.146 147.240,7.337 147.049 C 7.453 146.933,7.547 147.137,7.547 147.501 C 7.547 147.865,7.726 148.163,7.945 148.163 C 8.164 148.163,9.036 148.878,9.884 149.752 C 10.733 150.626,11.549 151.341,11.700 151.341 C 11.850 151.341,12.207 151.564,12.492 151.837 C 12.777 152.110,13.390 152.597,13.854 152.918 C 14.318 153.239,14.697 153.741,14.697 154.034 C 14.697 154.326,14.850 154.471,15.037 154.355 C 15.223 154.240,15.804 154.630,16.328 155.223 L 17.279 156.300 16.286 155.511 L 15.293 154.723 16.244 155.800 C 16.768 156.392,17.322 156.799,17.476 156.704 C 17.868 156.462,19.458 158.364,19.134 158.688 C 18.987 158.834,19.136 158.894,19.464 158.822 C 19.791 158.749,20.015 158.913,19.960 159.186 C 19.906 159.459,19.995 159.661,20.159 159.635 C 21.000 159.502,21.450 159.749,21.450 160.344 C 21.450 160.708,21.561 160.895,21.697 160.759 C 21.834 160.623,23.003 161.569,24.295 162.861 C 25.588 164.154,26.772 165.194,26.928 165.173 C 27.083 165.151,27.430 165.561,27.700 166.082 C 27.970 166.604,28.194 166.800,28.197 166.519 C 28.202 166.100,28.304 166.100,28.757 166.519 C 29.061 166.800,29.230 167.165,29.130 167.329 C 29.031 167.493,29.124 167.627,29.337 167.627 C 30.076 167.627,36.816 173.949,36.642 174.479 C 36.588 174.643,36.768 174.732,37.041 174.677 C 37.314 174.623,37.488 174.815,37.428 175.104 C 37.368 175.393,37.479 175.531,37.675 175.410 C 37.870 175.289,38.438 175.544,38.937 175.976 C 39.436 176.409,39.682 176.765,39.485 176.769 C 39.288 176.772,39.573 177.010,40.119 177.298 C 40.665 177.585,41.068 178.029,41.013 178.285 C 40.958 178.540,41.137 178.704,41.410 178.649 C 41.683 178.595,41.858 178.787,41.798 179.076 C 41.737 179.366,41.837 179.510,42.019 179.398 C 42.201 179.286,42.677 179.630,43.078 180.163 C 43.478 180.696,43.976 181.132,44.184 181.132 C 44.690 181.132,46.692 182.724,46.602 183.055 C 46.504 183.418,47.710 184.707,48.148 184.707 C 48.345 184.707,49.277 185.467,50.219 186.395 C 51.161 187.324,52.750 188.822,53.751 189.725 C 54.752 190.628,55.446 191.492,55.293 191.645 C 55.140 191.798,55.283 191.864,55.611 191.791 C 55.941 191.717,56.158 191.893,56.097 192.184 C 56.037 192.474,56.162 192.603,56.375 192.471 C 56.588 192.340,57.710 193.114,58.868 194.192 C 62.387 197.468,63.831 198.610,64.451 198.610 C 64.997 198.610,67.388 200.576,71.897 204.732 C 73.835 206.518,86.987 218.529,89.573 220.874 C 90.447 221.666,94.562 225.427,98.718 229.231 C 102.875 233.035,108.717 238.354,111.702 241.051 C 114.686 243.748,117.298 246.429,117.505 247.009 C 117.959 248.284,118.929 249.386,120.660 250.595 C 121.373 251.093,121.854 251.666,121.729 251.868 C 121.604 252.069,121.769 252.234,122.095 252.234 C 122.421 252.234,122.802 252.594,122.941 253.035 C 123.081 253.475,123.361 253.732,123.564 253.607 C 123.767 253.482,123.932 253.658,123.932 253.998 C 123.932 254.339,124.067 254.597,124.230 254.571 C 125.022 254.446,125.544 254.658,125.323 255.015 C 125.188 255.233,125.261 255.412,125.485 255.412 C 125.709 255.412,126.518 256.038,127.282 256.802 C 128.047 257.567,128.902 258.195,129.182 258.199 C 129.596 258.204,129.596 258.266,129.184 258.527 C 128.828 258.753,129.124 259.077,130.177 259.613 C 131.003 260.034,131.821 260.601,131.996 260.874 C 132.171 261.147,132.528 261.372,132.790 261.374 C 133.053 261.376,133.654 261.868,134.127 262.466 C 135.847 264.644,136.547 265.343,137.011 265.343 C 137.272 265.343,137.399 265.482,137.294 265.652 C 137.189 265.822,137.923 266.671,138.927 267.539 C 139.930 268.406,141.371 269.697,142.129 270.407 C 142.887 271.117,143.649 271.698,143.822 271.698 C 143.995 271.698,144.248 272.048,144.384 272.476 C 144.520 272.904,145.374 273.843,146.283 274.562 C 147.191 275.281,147.773 275.601,147.575 275.273 C 147.266 274.760,147.309 274.753,147.884 275.219 C 148.251 275.517,148.436 275.946,148.296 276.174 C 148.153 276.405,148.231 276.470,148.473 276.320 C 148.711 276.173,149.894 277.016,151.100 278.194 C 152.307 279.373,153.375 280.256,153.473 280.158 C 153.571 280.060,153.769 280.351,153.913 280.804 C 154.057 281.258,154.352 281.629,154.569 281.629 C 154.785 281.629,154.849 281.812,154.711 282.036 C 154.573 282.260,154.696 282.394,154.985 282.334 C 155.275 282.274,155.467 282.448,155.412 282.721 C 155.357 282.994,155.462 283.173,155.643 283.118 C 156.163 282.962,159.231 285.599,159.494 286.427 C 159.624 286.838,159.943 287.132,160.203 287.082 C 160.463 287.032,160.631 287.214,160.576 287.488 C 160.521 287.761,160.611 287.944,160.775 287.896 C 161.304 287.739,163.257 289.250,163.257 289.817 C 163.257 290.120,163.613 290.367,164.048 290.367 C 164.483 290.367,165.063 290.725,165.335 291.162 C 165.608 291.599,165.959 291.956,166.116 291.956 C 166.272 291.956,167.435 292.973,168.701 294.217 C 169.967 295.460,170.752 296.326,170.445 296.141 C 170.067 295.914,169.978 295.953,170.171 296.264 C 170.326 296.517,170.684 296.723,170.965 296.723 C 171.626 296.723,172.873 298.097,172.527 298.443 C 172.380 298.589,172.569 298.709,172.946 298.709 C 173.323 298.709,173.521 298.888,173.386 299.106 C 173.251 299.325,173.430 299.503,173.784 299.503 C 174.137 299.503,174.316 299.682,174.181 299.901 C 174.046 300.119,174.205 300.298,174.535 300.298 C 174.865 300.298,175.317 300.611,175.539 300.993 C 175.762 301.375,175.950 301.528,175.956 301.331 C 175.963 301.135,176.465 301.493,177.072 302.126 C 177.679 302.759,178.668 303.598,179.269 303.990 C 179.882 304.389,180.243 304.896,180.090 305.143 C 179.940 305.386,179.991 305.477,180.204 305.346 C 180.416 305.215,180.841 305.455,181.147 305.880 C 181.454 306.306,181.841 306.653,182.007 306.653 C 182.578 306.653,185.071 309.335,184.790 309.647 C 184.635 309.818,184.717 309.839,184.973 309.693 C 185.228 309.546,185.675 309.690,185.966 310.012 C 187.216 311.397,187.425 311.750,187.166 312.037 C 187.015 312.205,187.106 312.219,187.368 312.068 C 187.652 311.906,188.735 312.685,190.041 313.991 C 191.249 315.199,192.311 316.187,192.402 316.187 C 192.788 316.187,195.225 318.721,195.134 319.028 C 195.079 319.213,195.258 319.320,195.531 319.265 C 195.804 319.211,195.991 319.365,195.946 319.609 C 195.901 319.853,196.514 320.390,197.307 320.801 C 198.965 321.660,200.926 323.441,201.960 325.025 C 202.352 325.626,202.921 326.117,203.223 326.117 C 203.526 326.117,203.729 326.332,203.674 326.596 C 203.620 326.859,203.843 327.090,204.171 327.110 C 204.499 327.130,204.721 327.366,204.664 327.634 C 204.608 327.901,204.967 328.274,205.461 328.462 C 205.955 328.650,207.319 329.719,208.491 330.837 C 209.663 331.955,210.752 332.870,210.910 332.870 C 211.406 332.870,212.527 334.311,212.248 334.590 C 212.102 334.736,212.274 334.856,212.631 334.856 C 212.987 334.856,213.470 335.214,213.704 335.650 C 213.938 336.087,214.315 336.445,214.543 336.445 C 214.770 336.445,216.204 337.695,217.729 339.224 C 219.255 340.752,220.855 342.191,221.285 342.421 C 221.716 342.652,221.960 343.014,221.829 343.227 C 221.697 343.440,221.826 343.565,222.115 343.505 C 222.405 343.445,222.592 343.633,222.532 343.922 C 222.472 344.212,222.599 344.340,222.814 344.207 C 223.030 344.074,224.734 345.476,226.601 347.322 C 228.469 349.169,229.868 350.471,229.710 350.216 C 229.553 349.961,229.989 350.199,230.678 350.745 C 231.368 351.291,231.942 351.879,231.954 352.052 C 231.988 352.539,233.287 353.767,234.062 354.045 C 234.444 354.182,234.757 354.579,234.757 354.927 C 234.757 355.274,234.924 355.455,235.128 355.329 C 235.332 355.203,235.948 355.688,236.497 356.407 C 237.046 357.127,238.308 358.325,239.303 359.070 C 240.298 359.816,241.112 360.671,241.112 360.971 C 241.112 361.271,241.294 361.404,241.517 361.267 C 241.739 361.129,242.893 362.012,244.081 363.229 C 245.269 364.446,246.422 365.442,246.642 365.442 C 246.862 365.442,247.234 365.799,247.468 366.236 C 247.702 366.673,248.089 367.031,248.329 367.031 C 248.984 367.031,250.268 368.663,249.980 369.130 C 249.842 369.354,249.912 369.423,250.136 369.285 C 250.591 369.004,253.091 371.206,252.728 371.568 C 252.602 371.694,252.706 371.797,252.958 371.797 C 253.616 371.797,255.015 373.073,255.015 373.673 C 255.015 373.952,255.238 374.136,255.511 374.081 C 255.785 374.027,255.963 374.206,255.909 374.479 C 255.854 374.752,255.943 374.954,256.107 374.928 C 256.904 374.802,257.389 375.023,257.299 375.472 C 257.244 375.745,257.423 375.924,257.696 375.869 C 257.969 375.814,258.148 375.985,258.093 376.248 C 258.039 376.511,258.177 376.735,258.401 376.745 C 259.042 376.773,260.974 378.417,260.695 378.696 C 260.557 378.834,260.752 378.947,261.129 378.947 C 261.506 378.947,261.733 379.081,261.634 379.245 C 261.444 379.559,262.329 380.531,262.852 380.584 C 263.020 380.602,263.109 380.790,263.049 381.003 C 262.989 381.216,263.112 381.283,263.322 381.153 C 263.533 381.023,263.889 381.233,264.114 381.620 C 264.340 382.007,264.529 382.183,264.536 382.010 C 264.543 381.838,264.798 381.927,265.102 382.209 C 265.407 382.490,265.558 382.883,265.438 383.080 C 265.318 383.278,265.403 383.327,265.626 383.189 C 265.849 383.050,267.898 384.766,270.177 387.000 C 272.457 389.234,274.786 391.306,275.353 391.605 C 275.920 391.903,276.586 392.528,276.834 392.995 C 277.082 393.462,277.197 393.536,277.090 393.161 C 276.800 392.137,277.411 391.984,279.315 392.605 C 287.685 395.333,294.430 392.735,298.178 385.341 L 299.305 383.118 299.305 335.633 C 299.305 284.403,299.367 285.998,297.369 285.998 C 297.078 285.998,296.320 285.506,295.683 284.906 C 295.046 284.305,294.042 283.563,293.453 283.257 C 292.863 282.951,292.458 282.575,292.553 282.422 C 292.648 282.268,291.835 281.566,290.748 280.862 C 289.660 280.157,288.875 279.411,289.002 279.204 C 289.130 278.998,289.087 278.854,288.907 278.885 C 288.187 279.010,287.470 278.833,287.713 278.589 C 288.066 278.237,286.758 277.287,285.899 277.272 C 285.516 277.265,285.204 277.070,285.204 276.839 C 285.204 276.607,285.070 276.495,284.906 276.589 C 284.742 276.683,284.250 276.398,283.813 275.956 C 283.376 275.513,283.287 275.297,283.615 275.474 C 283.942 275.652,284.072 275.645,283.902 275.459 C 283.733 275.273,283.228 275.064,282.779 274.996 C 282.331 274.927,281.685 274.592,281.344 274.251 C 281.002 273.909,280.302 273.354,279.789 273.018 C 279.275 272.681,278.953 272.246,279.074 272.052 C 279.194 271.857,278.920 271.698,278.466 271.698 C 277.977 271.698,277.460 271.305,277.201 270.736 C 276.960 270.206,276.331 269.665,275.803 269.532 C 275.275 269.400,274.951 269.118,275.082 268.906 C 275.213 268.694,275.115 268.520,274.865 268.520 C 274.074 268.520,270.918 266.039,271.176 265.620 C 271.312 265.400,271.228 265.341,270.989 265.488 C 270.751 265.636,270.378 265.440,270.162 265.053 C 269.945 264.666,269.662 264.402,269.532 264.466 C 269.058 264.698,266.924 263.164,266.689 262.424 C 266.512 261.866,266.364 261.797,266.137 262.165 C 265.914 262.526,265.751 262.429,265.558 261.820 C 265.410 261.354,264.963 260.973,264.563 260.973 C 264.164 260.973,263.264 260.437,262.562 259.782 C 261.860 259.126,261.049 258.590,260.759 258.590 C 260.469 258.590,260.119 258.232,259.980 257.795 C 259.830 257.324,259.376 256.999,258.861 256.995 C 258.156 256.990,258.105 256.917,258.590 256.604 C 259.082 256.286,259.046 256.218,258.380 256.213 C 257.936 256.209,257.316 255.849,257.001 255.412 C 256.686 254.975,256.233 254.618,255.995 254.618 C 255.756 254.618,254.678 253.818,253.600 252.841 C 252.521 251.864,251.326 250.959,250.943 250.828 C 250.561 250.698,250.248 250.415,250.248 250.198 C 250.248 249.981,250.070 249.915,249.851 250.050 C 249.633 250.185,249.454 250.029,249.454 249.703 C 249.454 249.377,249.096 248.997,248.659 248.858 C 248.222 248.719,247.865 248.442,247.865 248.241 C 247.865 248.040,247.226 247.609,246.446 247.283 C 245.666 246.957,245.140 246.507,245.278 246.284 C 245.417 246.060,245.173 245.879,244.733 245.879 C 244.296 245.879,243.660 245.482,243.319 244.996 C 242.979 244.510,242.701 244.287,242.701 244.500 C 242.700 244.712,242.280 244.397,241.767 243.800 C 241.253 243.204,240.732 242.817,240.608 242.941 C 240.484 243.065,240.180 242.789,239.933 242.327 C 239.686 241.865,239.314 241.592,239.106 241.720 C 238.899 241.849,238.729 241.803,238.729 241.619 C 238.729 241.260,236.538 239.854,236.107 239.937 C 235.965 239.964,235.545 239.523,235.173 238.957 C 234.802 238.391,234.382 238.044,234.240 238.187 C 234.097 238.329,233.869 238.153,233.731 237.795 C 233.594 237.437,233.328 237.239,233.141 237.355 C 232.953 237.471,232.078 236.845,231.196 235.963 C 230.314 235.081,229.345 234.359,229.042 234.359 C 228.739 234.359,228.068 233.825,227.552 233.171 C 227.036 232.518,226.339 231.982,226.004 231.980 C 225.669 231.978,225.101 231.479,224.742 230.871 C 224.378 230.256,223.704 229.737,223.219 229.701 C 222.740 229.665,222.092 229.268,221.777 228.820 C 221.463 228.371,221.040 228.004,220.836 228.004 C 220.420 228.004,219.074 226.968,218.127 225.919 C 217.782 225.536,217.322 225.223,217.105 225.223 C 216.889 225.223,216.347 224.874,215.903 224.446 C 212.341 221.023,211.223 220.084,210.807 220.165 C 210.543 220.216,210.377 220.021,210.437 219.732 C 210.497 219.443,210.374 219.313,210.163 219.443 C 209.953 219.573,209.636 219.448,209.458 219.166 C 209.281 218.884,208.634 218.432,208.021 218.163 C 207.408 217.893,207.019 217.490,207.157 217.268 C 207.295 217.045,207.228 216.911,207.009 216.971 C 206.790 217.031,206.316 216.723,205.957 216.286 C 205.598 215.849,205.419 215.760,205.561 216.087 C 205.733 216.485,205.631 216.454,205.253 215.994 C 204.942 215.615,204.586 215.407,204.462 215.532 C 204.337 215.656,204.036 215.385,203.792 214.930 C 203.548 214.474,202.987 214.101,202.545 214.101 C 202.102 214.101,201.848 213.928,201.979 213.716 C 202.110 213.504,201.763 213.216,201.208 213.077 C 200.644 212.935,200.196 212.536,200.193 212.171 C 200.189 211.747,200.085 211.677,199.895 211.972 C 199.683 212.300,199.462 212.272,199.091 211.873 C 198.809 211.569,198.704 211.321,198.858 211.321 C 199.011 211.321,198.140 210.654,196.920 209.839 C 195.701 209.024,194.789 208.220,194.893 208.052 C 194.997 207.883,194.848 207.746,194.562 207.745 C 194.083 207.745,193.360 207.218,190.665 204.906 C 190.119 204.437,189.672 204.123,189.672 204.208 C 189.672 204.293,189.004 203.853,188.187 203.230 C 187.369 202.606,186.816 201.910,186.957 201.682 C 187.104 201.445,187.022 201.386,186.766 201.544 C 186.285 201.841,184.215 200.678,184.470 200.254 C 184.555 200.115,184.374 199.770,184.070 199.488 C 183.617 199.070,183.511 199.070,183.490 199.488 C 183.476 199.770,183.314 199.626,183.129 199.170 C 182.867 198.521,182.533 198.378,181.605 198.514 C 180.647 198.655,179.927 198.311,177.894 196.742 C 176.507 195.671,171.708 192.015,167.229 188.616 C 147.277 173.476,142.690 169.997,134.657 163.917 C 118.548 151.723,117.972 151.257,117.324 149.892 C 116.978 149.163,116.536 148.665,116.342 148.786 C 116.147 148.906,115.988 148.747,115.988 148.433 C 115.988 148.119,115.452 147.640,114.796 147.368 C 114.141 147.097,113.605 146.599,113.605 146.261 C 113.605 145.923,113.488 145.764,113.346 145.906 C 113.204 146.048,112.833 145.854,112.522 145.475 C 112.187 145.067,112.082 145.029,112.263 145.382 C 112.431 145.710,111.897 145.393,111.077 144.678 C 110.256 143.964,109.387 143.501,109.144 143.651 C 108.856 143.829,108.794 143.688,108.965 143.242 C 109.109 142.865,109.063 142.661,108.861 142.786 C 108.660 142.911,108.211 142.607,107.865 142.112 C 107.518 141.617,107.103 141.205,106.944 141.197 C 106.212 141.162,104.866 140.133,104.866 139.609 C 104.866 139.289,104.595 139.027,104.265 139.027 C 103.656 139.027,102.464 138.430,101.321 137.554 C 98.433 135.340,97.779 134.723,98.027 134.449 C 98.183 134.275,98.109 134.249,97.860 134.391 C 97.612 134.533,96.728 134.025,95.896 133.263 C 95.064 132.500,94.139 131.877,93.841 131.877 C 93.543 131.877,93.410 131.698,93.545 131.480 C 93.680 131.261,93.506 131.082,93.159 131.082 C 92.811 131.082,92.422 130.808,92.293 130.472 C 92.164 130.136,91.508 129.577,90.835 129.229 C 89.358 128.465,88.829 127.956,88.437 126.923 C 88.205 126.310,88.067 126.257,87.808 126.677 C 87.553 127.090,87.412 127.016,87.204 126.363 C 87.056 125.894,86.782 125.603,86.597 125.718 C 86.412 125.832,86.023 125.701,85.732 125.426 C 85.441 125.151,84.709 124.670,84.104 124.358 C 83.314 123.950,83.146 123.700,83.508 123.470 C 83.868 123.242,83.801 123.148,83.275 123.144 C 82.870 123.141,81.744 122.602,80.773 121.946 C 79.801 121.291,78.807 120.755,78.563 120.755 C 78.319 120.755,78.215 120.659,78.332 120.542 C 78.547 120.328,76.369 117.805,75.915 117.741 C 75.100 117.627,74.280 117.013,74.280 116.518 C 74.280 116.201,74.108 116.048,73.897 116.178 C 73.687 116.308,72.765 115.665,71.850 114.750 C 70.934 113.834,70.336 113.336,70.521 113.643 C 70.871 114.222,70.001 113.653,68.788 112.509 C 68.496 112.234,68.066 112.127,67.831 112.272 C 67.578 112.428,67.520 112.349,67.688 112.077 C 67.844 111.825,67.772 111.619,67.527 111.619 C 67.283 111.619,67.196 111.435,67.335 111.212 C 67.473 110.988,67.439 110.840,67.259 110.884 C 66.678 111.024,64.765 109.925,64.981 109.574 C 65.097 109.388,64.918 109.235,64.586 109.235 C 64.253 109.235,63.786 108.873,63.549 108.430 C 63.312 107.987,62.953 107.726,62.751 107.851 C 62.550 107.976,62.067 107.702,61.679 107.243 C 61.291 106.784,60.383 106.126,59.662 105.781 C 58.942 105.436,57.568 104.392,56.610 103.461 C 55.652 102.530,54.795 101.842,54.705 101.932 C 54.615 102.022,53.888 101.480,53.090 100.727 C 52.292 99.974,51.639 99.449,51.639 99.559 C 51.639 99.881,49.616 98.199,49.572 97.841 C 49.504 97.286,48.320 96.603,47.782 96.810 C 47.500 96.918,47.269 96.735,47.269 96.403 C 47.269 96.053,46.978 95.845,46.574 95.908 C 46.192 95.967,45.526 95.773,45.095 95.476 C 44.664 95.179,43.994 94.935,43.606 94.935 C 43.217 94.935,42.900 94.797,42.900 94.628 C 42.900 94.330,37.038 94.177,36.748 94.467 M4.543 251.936 L 3.376 253.227 4.667 252.061 C 5.377 251.419,5.958 250.838,5.958 250.770 C 5.958 250.463,5.631 250.733,4.543 251.936 M394.215 350.447 L 393.049 351.738 394.340 350.571 C 395.050 349.929,395.631 349.349,395.631 349.280 C 395.631 348.973,395.303 349.244,394.215 350.447 " stroke="none" fill="#047bcb" fill-rule="evenodd"></path><path id="path1" d="M283.019 3.471 C 282.582 3.581,281.171 4.008,279.884 4.419 C 278.203 4.956,277.400 5.048,277.035 4.745 C 276.400 4.219,275.899 4.611,271.039 9.434 C 269.003 11.455,267.201 13.110,267.035 13.112 C 266.756 13.116,265.384 14.317,261.096 18.310 C 260.180 19.163,259.278 19.861,259.091 19.861 C 258.904 19.861,256.659 21.930,254.103 24.458 C 251.546 26.987,249.454 28.946,249.454 28.812 C 249.454 28.679,247.852 30.185,245.894 32.159 C 243.936 34.134,242.138 35.750,241.898 35.750 C 241.659 35.750,241.573 35.929,241.708 36.147 C 241.843 36.365,241.699 36.544,241.388 36.544 C 241.076 36.544,239.834 37.483,238.627 38.630 C 237.419 39.777,235.222 41.787,233.744 43.098 C 232.266 44.409,230.285 46.241,229.342 47.170 C 228.399 48.098,227.484 48.858,227.308 48.858 C 227.132 48.858,226.730 49.215,226.415 49.652 C 226.100 50.089,225.698 50.447,225.522 50.447 C 225.346 50.447,222.888 52.771,220.060 55.611 C 217.231 58.451,214.748 60.775,214.541 60.775 C 214.334 60.775,213.390 61.546,212.444 62.488 C 211.499 63.430,209.474 65.246,207.944 66.523 C 206.415 67.800,203.531 70.514,201.535 72.555 C 199.539 74.596,197.720 76.266,197.494 76.266 C 197.267 76.266,195.856 77.473,194.359 78.947 C 192.861 80.422,191.015 82.140,190.257 82.764 C 188.704 84.043,184.838 87.724,183.876 88.839 C 182.937 89.927,179.589 92.697,178.715 93.109 C 178.297 93.307,177.954 93.709,177.954 94.003 C 177.954 94.297,177.798 94.538,177.607 94.538 C 177.223 94.538,175.771 95.755,172.749 98.610 C 171.650 99.647,170.585 100.497,170.381 100.497 C 170.177 100.497,170.010 100.736,170.010 101.029 C 170.010 101.643,166.700 105.263,166.139 105.263 C 165.932 105.263,165.440 105.621,165.045 106.058 C 164.649 106.495,164.085 106.852,163.791 106.852 C 163.498 106.852,163.257 107.035,163.257 107.258 C 163.257 107.481,162.816 107.865,162.277 108.110 C 161.737 108.356,161.390 108.710,161.506 108.896 C 161.621 109.083,161.515 109.235,161.271 109.235 C 161.027 109.235,160.955 109.442,161.110 109.694 C 161.274 109.958,161.221 110.045,160.984 109.899 C 160.759 109.760,159.972 110.267,159.235 111.025 C 158.498 111.784,157.683 112.407,157.425 112.409 C 157.167 112.411,156.842 112.771,156.703 113.208 C 156.564 113.644,156.195 114.002,155.882 114.002 C 155.569 114.002,155.313 114.160,155.313 114.353 C 155.313 114.797,150.323 119.957,149.881 119.969 C 149.548 119.979,147.107 122.006,145.482 123.622 C 144.990 124.111,144.588 124.398,144.588 124.260 C 144.588 124.122,141.834 126.717,138.468 130.028 C 131.807 136.579,129.651 138.485,129.074 138.332 C 128.868 138.277,128.699 138.500,128.699 138.828 C 128.699 139.156,128.520 139.424,128.301 139.424 C 128.083 139.424,127.210 140.139,126.362 141.013 C 125.514 141.887,124.701 142.602,124.557 142.602 C 124.086 142.602,122.385 144.497,122.632 144.744 C 122.765 144.877,122.683 144.985,122.450 144.985 C 122.217 144.985,121.114 145.879,119.999 146.971 C 118.883 148.064,117.717 148.957,117.407 148.957 C 116.922 148.957,116.922 149.116,117.412 150.098 C 117.986 151.247,119.126 152.161,134.657 163.917 C 142.690 169.997,147.277 173.476,167.229 188.616 C 171.708 192.015,176.484 195.654,177.844 196.703 C 180.986 199.127,182.370 199.157,184.789 196.853 C 185.380 196.290,186.006 195.828,186.179 195.827 C 186.353 195.826,187.066 195.290,187.764 194.636 C 188.462 193.981,189.130 193.446,189.249 193.446 C 189.465 193.446,190.693 192.491,191.674 191.559 C 191.962 191.286,192.352 191.063,192.540 191.063 C 192.729 191.063,193.513 190.482,194.283 189.772 C 196.202 188.003,198.549 186.170,199.450 185.739 C 199.862 185.541,200.199 185.183,200.199 184.942 C 200.199 184.701,200.713 184.276,201.343 183.997 C 201.972 183.719,203.000 183.050,203.627 182.511 C 204.254 181.971,204.945 181.527,205.164 181.524 C 205.382 181.520,206.365 180.807,207.349 179.940 C 208.332 179.073,209.257 178.361,209.406 178.358 C 209.554 178.354,209.911 178.122,210.200 177.842 C 210.489 177.562,211.323 176.911,212.055 176.397 C 212.786 175.883,214.068 174.771,214.903 173.927 C 215.739 173.084,216.615 172.393,216.851 172.393 C 217.086 172.393,217.279 172.214,217.279 171.996 C 217.279 171.778,217.508 171.599,217.787 171.599 C 218.067 171.599,218.553 171.241,218.868 170.804 C 219.183 170.367,219.659 170.010,219.926 170.010 C 220.193 170.010,220.645 169.689,220.931 169.297 C 221.216 168.904,222.121 168.270,222.941 167.887 C 223.760 167.504,224.869 166.753,225.405 166.217 C 225.941 165.682,226.530 165.243,226.714 165.243 C 226.898 165.243,228.081 164.260,229.341 163.059 C 230.602 161.857,231.772 160.874,231.942 160.874 C 232.113 160.874,232.620 160.561,233.070 160.179 C 233.520 159.796,234.291 159.215,234.782 158.888 C 235.274 158.560,236.229 157.839,236.905 157.286 C 237.580 156.732,238.802 155.838,239.620 155.300 C 240.438 154.761,241.108 154.186,241.110 154.022 C 241.111 153.858,241.365 153.724,241.675 153.724 C 241.984 153.724,242.297 153.590,242.370 153.426 C 242.443 153.262,243.530 152.347,244.786 151.392 C 246.043 150.437,247.071 149.498,247.071 149.306 C 247.071 149.114,247.356 148.957,247.706 148.957 C 248.055 148.957,248.842 148.421,249.454 147.766 C 250.066 147.110,250.781 146.574,251.043 146.574 C 251.304 146.574,252.019 146.038,252.632 145.382 C 253.244 144.727,253.959 144.191,254.220 144.191 C 254.482 144.191,255.197 143.654,255.809 142.999 C 256.422 142.344,257.075 141.807,257.262 141.807 C 257.448 141.807,258.360 141.092,259.288 140.218 C 260.216 139.345,261.153 138.630,261.371 138.630 C 261.589 138.630,261.768 138.451,261.768 138.232 C 261.768 138.014,262.036 137.835,262.363 137.835 C 262.691 137.835,262.959 137.678,262.959 137.486 C 262.959 137.294,263.496 136.915,264.151 136.643 C 264.806 136.372,265.343 135.993,265.343 135.801 C 265.343 135.609,265.542 135.452,265.785 135.452 C 266.215 135.452,267.952 134.169,269.929 132.391 C 270.465 131.910,270.904 131.595,270.904 131.693 C 270.904 131.790,271.403 131.347,272.013 130.709 C 272.623 130.071,273.377 129.492,273.688 129.422 C 273.999 129.352,275.097 128.446,276.128 127.408 C 277.159 126.370,278.210 125.521,278.464 125.521 C 278.719 125.521,279.427 124.985,280.040 124.330 C 280.652 123.674,281.357 123.138,281.606 123.138 C 281.855 123.138,282.443 122.781,282.912 122.344 C 283.381 121.907,283.999 121.549,284.285 121.549 C 284.572 121.549,284.806 121.370,284.806 121.152 C 284.806 120.933,284.993 120.755,285.220 120.755 C 285.448 120.755,286.029 120.380,286.511 119.923 C 286.994 119.465,288.193 118.535,289.176 117.856 C 291.273 116.408,291.987 115.754,291.739 115.506 C 291.641 115.408,292.007 115.088,292.553 114.796 C 293.099 114.504,293.545 114.116,293.545 113.935 C 293.545 113.753,293.732 113.605,293.960 113.605 C 294.189 113.605,294.823 113.158,295.369 112.612 C 295.915 112.066,296.524 111.619,296.723 111.619 C 297.613 111.619,299.070 109.544,299.298 107.952 C 299.432 107.019,299.488 85.521,299.423 60.179 L 299.305 14.101 298.007 11.447 C 295.294 5.903,288.243 2.150,283.019 3.471 M57.591 104.450 C 58.134 104.868,58.657 105.130,58.754 105.033 C 58.978 104.809,57.527 103.701,57.001 103.696 C 56.783 103.694,57.048 104.033,57.591 104.450 M71.897 114.958 C 71.897 115.037,72.344 115.395,72.890 115.753 C 73.436 116.111,73.883 116.249,73.883 116.061 C 73.883 115.873,73.436 115.515,72.890 115.266 C 72.344 115.017,71.897 114.878,71.897 114.958 M79.841 121.351 C 81.360 122.471,81.430 122.497,81.430 121.946 C 81.430 121.728,81.184 121.549,80.883 121.549 C 80.582 121.549,80.113 121.281,79.841 120.953 C 79.569 120.626,79.155 120.357,78.921 120.357 C 78.687 120.357,79.101 120.804,79.841 121.351 M1.192 122.939 C 1.192 123.267,1.370 123.535,1.589 123.535 C 1.807 123.535,1.986 123.267,1.986 122.939 C 1.986 122.612,1.807 122.344,1.589 122.344 C 1.370 122.344,1.192 122.612,1.192 122.939 M88.580 127.276 C 88.580 127.694,89.776 128.827,89.992 128.612 C 90.092 128.511,89.815 128.105,89.377 127.708 C 88.939 127.312,88.580 127.117,88.580 127.276 M101.691 137.713 C 101.694 138.039,103.719 139.114,103.931 138.902 C 103.995 138.839,103.516 138.473,102.868 138.090 C 102.219 137.707,101.690 137.537,101.691 137.713 M104.866 139.974 C 104.866 140.058,105.357 140.443,105.958 140.830 L 107.051 141.533 106.294 140.677 C 105.624 139.920,104.866 139.546,104.866 139.974 M12.900 152.722 C 13.769 153.465,14.557 153.996,14.652 153.901 C 14.747 153.807,14.394 153.374,13.867 152.939 C 13.340 152.505,12.694 151.968,12.430 151.745 C 12.166 151.523,11.809 151.347,11.635 151.356 C 11.462 151.364,12.032 151.979,12.900 152.722 M17.478 156.817 C 17.478 157.045,18.193 157.798,19.067 158.491 C 21.086 160.090,21.086 159.902,19.066 157.943 C 18.192 157.095,17.478 156.588,17.478 156.817 M37.491 175.174 C 38.439 176.048,39.344 176.763,39.502 176.763 C 39.872 176.763,36.441 173.610,36.057 173.596 C 35.898 173.590,36.543 174.300,37.491 175.174 M45.122 182.125 C 45.757 182.671,46.455 183.117,46.673 183.116 C 47.156 183.114,44.836 181.167,44.327 181.146 C 44.130 181.139,44.487 181.579,45.122 182.125 M61.569 196.898 C 61.569 197.130,61.837 197.543,62.165 197.815 C 62.493 198.087,62.761 198.427,62.761 198.571 C 62.761 199.033,57.276 204.568,56.818 204.568 C 56.576 204.568,54.602 206.356,52.433 208.540 C 50.263 210.725,48.343 212.512,48.165 212.512 C 47.987 212.512,47.584 212.870,47.269 213.307 C 46.954 213.744,46.551 214.101,46.374 214.101 C 46.196 214.101,45.461 214.682,44.739 215.392 C 44.017 216.102,42.208 217.756,40.718 219.067 C 39.229 220.377,36.163 223.282,33.905 225.521 C 31.648 227.761,29.634 229.593,29.430 229.593 C 29.226 229.593,27.708 230.889,26.058 232.473 C 24.408 234.057,22.221 236.068,21.199 236.941 C 20.176 237.815,18.430 239.426,17.317 240.521 C 16.204 241.615,14.698 243.001,13.972 243.599 C 13.245 244.198,12.760 244.687,12.895 244.687 C 13.029 244.687,12.909 244.937,12.627 245.241 C 12.346 245.546,11.992 245.721,11.840 245.629 C 11.502 245.425,1.986 254.740,1.986 255.275 C 1.986 255.487,1.587 256.087,1.100 256.610 C -0.106 257.905,-0.532 269.953,0.551 272.124 C 0.903 272.831,1.192 273.700,1.192 274.055 C 1.192 274.410,1.549 274.958,1.986 275.273 C 2.423 275.588,2.781 275.970,2.781 276.123 C 2.781 276.460,5.804 279.643,6.124 279.643 C 6.362 279.643,9.652 282.635,12.564 285.501 C 13.507 286.430,14.372 287.190,14.487 287.190 C 14.601 287.190,15.902 288.370,17.377 289.812 C 18.852 291.255,20.679 292.908,21.436 293.487 C 22.193 294.065,24.038 295.745,25.538 297.219 C 27.037 298.694,28.518 299.901,28.829 299.901 C 29.140 299.901,29.394 300.079,29.394 300.298 C 29.394 300.516,29.752 300.695,30.189 300.695 C 30.626 300.695,30.985 300.829,30.986 300.993 C 30.990 301.391,32.950 302.284,33.819 302.284 C 34.200 302.284,34.622 302.463,34.757 302.681 C 35.298 303.556,45.283 302.777,45.283 301.860 C 45.283 301.726,46.003 301.379,46.884 301.089 C 47.764 300.798,48.973 300.099,49.572 299.535 C 50.170 298.972,51.148 298.257,51.745 297.947 C 52.342 297.637,52.830 297.243,52.830 297.072 C 52.830 296.901,53.675 296.180,54.708 295.469 C 56.786 294.039,57.680 293.339,58.938 292.155 C 59.402 291.718,60.273 291.107,60.874 290.797 C 61.475 290.487,61.966 290.085,61.966 289.903 C 61.966 289.722,62.208 289.573,62.503 289.573 C 62.798 289.573,63.601 289.037,64.287 288.381 C 64.973 287.726,65.670 287.189,65.836 287.188 C 66.001 287.187,66.680 286.677,67.343 286.056 C 68.006 285.434,68.989 284.694,69.527 284.410 C 70.635 283.826,72.566 282.350,74.336 280.735 C 74.994 280.134,75.607 279.643,75.697 279.643 C 75.788 279.643,76.374 279.106,77.001 278.451 C 77.627 277.795,78.342 277.259,78.590 277.259 C 78.837 277.259,79.263 276.902,79.536 276.465 C 79.809 276.028,80.257 275.670,80.532 275.670 C 80.808 275.670,81.033 275.492,81.033 275.273 C 81.033 275.055,81.364 274.876,81.768 274.876 C 82.173 274.876,83.065 274.340,83.751 273.684 C 84.437 273.029,85.228 272.493,85.509 272.493 C 85.791 272.493,86.279 272.135,86.594 271.698 C 86.909 271.261,87.356 270.904,87.588 270.904 C 87.820 270.904,89.301 269.652,90.880 268.123 C 92.458 266.594,93.945 265.343,94.183 265.343 C 94.422 265.343,95.118 264.806,95.730 264.151 C 96.342 263.496,97.139 262.959,97.502 262.959 C 97.864 262.959,98.050 262.781,97.915 262.562 C 97.780 262.344,97.882 262.165,98.142 262.165 C 98.403 262.165,98.909 261.827,99.268 261.413 C 99.626 261.000,100.588 260.382,101.405 260.041 C 102.222 259.700,102.997 259.145,103.126 258.809 C 103.255 258.472,103.498 258.282,103.665 258.386 C 103.940 258.555,105.179 257.579,107.462 255.392 C 107.906 254.966,108.450 254.618,108.669 254.618 C 108.889 254.618,109.859 253.903,110.824 253.029 C 111.790 252.155,112.739 251.440,112.933 251.440 C 113.127 251.440,113.787 250.904,114.399 250.248 C 115.011 249.593,115.798 249.057,116.147 249.057 C 116.497 249.057,116.783 248.878,116.783 248.659 C 116.783 248.441,117.041 248.262,117.358 248.262 C 118.861 248.262,116.864 245.716,111.702 241.051 C 108.717 238.354,102.875 233.035,98.718 229.231 C 94.562 225.427,90.447 221.666,89.573 220.874 C 86.987 218.529,73.835 206.518,71.897 204.732 C 67.337 200.528,64.994 198.610,64.420 198.610 C 64.078 198.610,63.296 198.129,62.683 197.542 C 62.070 196.955,61.569 196.665,61.569 196.898 M207.252 217.577 C 208.194 218.477,209.195 218.811,208.739 218.073 C 208.604 217.855,208.295 217.676,208.052 217.676 C 207.809 217.676,207.319 217.453,206.963 217.180 C 206.608 216.907,206.737 217.085,207.252 217.577 M224.918 231.182 C 225.384 231.927,226.018 232.255,226.018 231.749 C 226.018 231.453,224.950 230.387,224.653 230.387 C 224.526 230.387,224.646 230.745,224.918 231.182 M226.812 232.172 C 226.812 232.543,228.546 234.359,228.900 234.359 C 229.317 234.359,227.551 232.031,227.110 231.998 C 226.946 231.986,226.812 232.064,226.812 232.172 M254.220 253.330 C 254.220 253.496,254.578 253.855,255.015 254.128 C 255.939 254.705,256.062 254.416,255.242 253.596 C 254.616 252.970,254.220 252.867,254.220 253.330 M272.493 267.093 C 272.493 267.172,272.939 267.530,273.486 267.888 C 274.032 268.246,274.479 268.384,274.479 268.196 C 274.479 268.008,274.032 267.650,273.486 267.401 C 272.939 267.152,272.493 267.013,272.493 267.093 M142.602 271.072 C 142.602 271.218,143.049 271.784,143.595 272.330 C 144.510 273.245,144.965 273.221,144.284 272.294 C 143.822 271.666,142.602 270.779,142.602 271.072 M148.333 275.966 C 148.972 276.672,149.583 277.163,149.690 277.056 C 149.797 276.949,149.810 276.817,149.719 276.763 C 149.628 276.708,149.017 276.217,148.361 275.672 L 147.170 274.680 148.333 275.966 M289.374 279.806 C 290.030 280.369,290.730 280.831,290.930 280.832 C 291.361 280.835,291.356 280.831,289.573 279.680 L 288.183 278.782 289.374 279.806 M157.498 284.645 C 157.934 285.062,158.515 285.660,158.788 285.975 C 159.081 286.312,159.285 286.364,159.285 286.101 C 159.285 285.856,158.704 285.257,157.994 284.772 C 157.046 284.123,156.914 284.089,157.498 284.645 M169.706 295.682 C 170.085 295.970,170.264 296.351,170.103 296.528 C 169.943 296.705,170.043 296.716,170.327 296.553 C 170.920 296.211,170.253 295.124,169.465 295.147 C 169.218 295.154,169.327 295.395,169.706 295.682 M171.400 297.517 C 171.796 297.954,172.298 298.312,172.516 298.312 C 172.735 298.312,172.590 297.954,172.195 297.517 C 171.799 297.080,171.297 296.723,171.078 296.723 C 170.860 296.723,171.005 297.080,171.400 297.517 M194.253 318.073 C 194.260 318.237,194.751 318.715,195.345 319.134 L 196.425 319.896 195.462 318.836 C 194.450 317.722,194.232 317.584,194.253 318.073 M206.753 329.882 C 207.627 330.635,208.520 331.255,208.739 331.260 C 208.957 331.265,208.421 330.653,207.547 329.900 C 206.673 329.147,205.780 328.526,205.561 328.521 C 205.343 328.516,205.879 329.129,206.753 329.882 M211.321 333.664 C 211.825 334.101,212.326 334.459,212.436 334.459 C 212.546 334.459,212.312 334.101,211.917 333.664 C 211.521 333.227,211.019 332.870,210.801 332.870 C 210.583 332.870,210.817 333.227,211.321 333.664 M223.127 344.626 C 224.311 345.849,225.381 346.748,225.505 346.624 C 225.727 346.402,221.674 342.424,221.212 342.410 C 221.081 342.406,221.943 343.403,223.127 344.626 M248.262 367.282 C 248.262 367.531,249.845 369.017,250.110 369.017 C 250.389 369.017,250.231 368.722,249.507 367.886 C 248.774 367.041,248.262 366.793,248.262 367.282 M264.548 381.981 C 264.548 382.238,266.931 384.508,267.202 384.508 C 267.525 384.508,267.226 384.146,265.938 382.974 C 265.174 382.278,264.548 381.831,264.548 381.981 " stroke="none" fill="#0464ac" fill-rule="evenodd"></path><path id="path2" d="M290.224 0.596 C 290.070 0.996,289.436 1.194,288.294 1.198 C 287.359 1.201,286.326 1.377,285.998 1.589 C 285.550 1.878,285.747 1.977,286.792 1.986 C 288.165 1.998,290.890 2.774,291.419 3.303 C 291.569 3.452,292.019 3.575,292.420 3.575 C 292.820 3.575,293.148 3.715,293.148 3.887 C 293.148 4.058,293.703 4.526,294.381 4.926 C 295.945 5.850,297.915 7.898,297.915 8.599 C 297.915 8.894,298.049 9.137,298.213 9.139 C 298.569 9.143,299.503 11.066,299.503 11.797 C 299.503 12.081,299.682 12.314,299.901 12.314 C 300.119 12.314,300.298 13.029,300.298 13.903 C 300.298 14.777,300.477 15.492,300.695 15.492 C 301.410 15.492,301.200 107.669,300.484 108.616 C 299.590 109.798,299.603 287.174,300.497 289.313 C 301.223 291.053,301.417 381.083,300.695 381.529 C 300.477 381.664,300.298 382.479,300.298 383.340 C 300.298 384.201,300.119 384.906,299.901 384.906 C 299.682 384.906,299.503 385.263,299.503 385.700 C 299.503 386.137,299.325 386.495,299.106 386.495 C 298.888 386.495,298.709 386.768,298.709 387.102 C 298.709 389.447,290.197 395.208,286.674 395.247 C 285.428 395.261,285.421 395.272,286.317 395.769 C 286.820 396.049,287.848 396.228,288.601 396.169 C 289.585 396.092,289.970 396.224,289.970 396.640 C 289.970 397.356,293.396 397.469,293.632 396.760 C 293.716 396.508,294.680 396.248,295.775 396.182 C 298.542 396.017,303.249 394.200,311.677 390.047 C 315.641 388.093,319.171 386.495,319.522 386.495 C 319.872 386.495,320.159 386.331,320.159 386.130 C 320.159 385.846,323.119 384.467,324.131 384.280 C 324.911 384.136,326.438 383.292,326.877 382.762 C 327.168 382.412,327.659 382.125,327.967 382.125 C 328.276 382.125,329.878 381.410,331.527 380.536 C 333.177 379.662,334.764 378.947,335.055 378.947 C 335.346 378.947,335.644 378.807,335.717 378.636 C 335.789 378.465,337.279 377.647,339.027 376.820 C 340.775 375.993,342.515 375.150,342.894 374.947 C 343.274 374.744,343.855 374.578,344.185 374.578 C 344.516 374.578,344.788 374.444,344.790 374.280 C 344.793 373.957,346.688 372.989,347.317 372.989 C 347.529 372.989,348.061 372.676,348.498 372.294 C 348.935 371.912,349.154 371.835,348.984 372.125 C 348.729 372.560,348.819 372.561,349.512 372.128 C 349.971 371.841,350.348 371.485,350.348 371.336 C 350.348 371.188,350.929 370.940,351.639 370.786 C 353.026 370.485,356.022 369.010,356.240 368.520 C 356.312 368.357,356.581 368.225,356.835 368.228 C 357.090 368.231,358.371 367.704,359.682 367.055 C 360.993 366.407,362.646 365.646,363.357 365.364 C 364.067 365.082,364.647 364.716,364.647 364.551 C 364.647 364.385,365.005 364.250,365.442 364.250 C 365.879 364.250,366.236 364.071,366.236 363.853 C 366.236 363.635,366.507 363.456,366.838 363.456 C 367.505 363.456,369.076 362.655,369.469 362.114 C 369.608 361.922,369.903 361.876,370.123 362.012 C 370.343 362.148,370.625 361.992,370.750 361.666 C 370.876 361.340,371.296 361.069,371.686 361.065 C 372.075 361.061,373.287 360.560,374.379 359.951 C 375.472 359.342,376.723 358.646,377.160 358.403 C 378.115 357.872,381.012 356.561,381.430 356.470 C 381.594 356.434,381.862 356.362,382.026 356.308 C 382.190 356.255,382.480 356.240,382.672 356.276 C 382.863 356.311,383.288 355.956,383.616 355.488 C 384.088 354.815,384.284 354.749,384.553 355.173 C 384.757 355.495,384.896 355.530,384.900 355.260 C 384.903 355.013,385.844 354.342,386.991 353.769 C 389.271 352.631,392.119 350.142,393.633 347.964 C 394.164 347.200,394.717 346.485,394.860 346.375 C 395.363 345.993,397.219 342.204,397.219 341.561 C 397.219 341.204,397.469 340.704,397.774 340.451 C 398.090 340.189,398.235 339.629,398.110 339.151 C 397.983 338.668,398.127 338.127,398.449 337.875 C 398.756 337.635,399.046 336.636,399.093 335.655 C 399.140 334.674,399.362 333.811,399.586 333.736 C 399.860 333.645,399.853 333.337,399.563 332.795 C 399.253 332.216,399.253 331.869,399.566 331.556 C 400.150 330.972,400.187 65.938,399.603 65.938 C 399.019 65.938,399.117 63.954,399.702 63.940 C 399.978 63.934,399.889 63.748,399.503 63.523 C 398.703 63.057,398.535 60.593,399.273 60.137 C 399.582 59.946,399.448 59.742,398.876 59.530 C 398.402 59.355,398.011 58.893,398.008 58.503 C 397.995 56.943,395.432 51.436,394.271 50.473 C 393.927 50.186,393.644 49.792,393.644 49.595 C 393.644 48.885,389.033 44.782,387.171 43.836 C 386.123 43.303,385.170 42.618,385.053 42.313 C 384.936 42.008,384.594 41.852,384.294 41.968 C 383.994 42.083,382.465 41.535,380.897 40.751 C 379.329 39.967,377.802 39.325,377.504 39.325 C 377.205 39.325,376.958 39.191,376.953 39.027 C 376.948 38.863,375.608 38.104,373.974 37.340 C 372.340 36.576,371.003 35.816,371.003 35.652 C 371.003 35.487,370.645 35.353,370.209 35.353 C 369.772 35.353,369.414 35.174,369.414 34.955 C 369.414 34.737,369.067 34.558,368.643 34.558 C 368.219 34.558,367.760 34.376,367.623 34.154 C 367.485 33.932,367.227 33.841,367.048 33.951 C 366.870 34.062,366.503 33.886,366.233 33.561 C 365.963 33.235,365.496 32.969,365.195 32.969 C 364.894 32.969,364.647 32.790,364.647 32.572 C 364.647 32.354,364.374 32.175,364.040 32.175 C 363.512 32.175,358.591 30.060,356.604 28.978 C 356.221 28.770,355.596 28.428,355.214 28.218 C 354.831 28.008,353.535 27.399,352.334 26.866 C 351.132 26.332,349.117 25.432,347.857 24.866 C 345.274 23.706,337.166 19.748,335.650 18.907 C 335.104 18.604,333.406 17.757,331.877 17.025 C 330.348 16.293,329.037 15.559,328.964 15.394 C 328.891 15.229,328.595 15.094,328.306 15.094 C 328.017 15.094,327.049 14.737,326.155 14.300 C 325.260 13.863,323.796 13.148,322.902 12.711 C 322.007 12.274,321.039 11.917,320.750 11.917 C 320.461 11.917,320.166 11.783,320.093 11.619 C 320.020 11.455,319.156 10.946,318.173 10.487 C 317.190 10.028,314.151 8.567,311.420 7.240 C 303.586 3.431,302.165 2.781,301.688 2.781 C 301.443 2.781,300.502 2.423,299.597 1.986 C 298.615 1.512,297.140 1.192,295.935 1.192 C 294.508 1.192,293.851 1.017,293.689 0.596 C 293.377 -0.217,290.536 -0.217,290.224 0.596 M298.806 198.487 C 298.753 247.248,298.843 287.226,299.007 287.327 C 299.276 287.493,299.275 227.071,299.004 141.807 C 298.949 124.220,298.859 149.726,298.806 198.487 M3.575 144.315 C 3.575 144.383,4.156 144.964,4.866 145.606 L 6.157 146.773 4.990 145.482 C 3.903 144.278,3.575 144.008,3.575 144.315 " stroke="none" fill="#1c9cf4" fill-rule="evenodd"></path><path id="path3" d="M285.566 0.638 C 285.246 1.024,284.628 1.197,283.938 1.096 C 283.327 1.006,282.906 1.012,283.003 1.110 C 283.100 1.207,282.887 1.578,282.529 1.934 C 281.927 2.533,282.159 2.598,285.626 2.790 C 291.493 3.116,295.002 5.075,297.984 9.688 C 299.493 12.023,299.959 12.261,299.007 10.211 C 298.734 9.623,298.376 9.141,298.213 9.139 C 298.049 9.137,297.915 8.894,297.915 8.599 C 297.915 7.898,295.945 5.850,294.381 4.926 C 293.703 4.526,293.148 4.058,293.148 3.887 C 293.148 3.715,292.820 3.575,292.420 3.575 C 292.019 3.575,291.569 3.452,291.419 3.303 C 290.890 2.774,288.165 1.998,286.792 1.986 C 285.747 1.977,285.550 1.878,285.998 1.589 C 286.326 1.377,287.343 1.201,288.259 1.198 C 289.174 1.194,290.041 1.001,290.185 0.768 C 290.634 0.042,290.045 -0.127,288.827 0.377 C 287.983 0.727,287.440 0.744,286.870 0.439 C 286.262 0.113,285.963 0.159,285.566 0.638 M293.624 0.440 C 293.741 0.796,294.645 1.066,296.158 1.197 C 297.452 1.308,299.119 1.711,299.862 2.090 C 300.606 2.470,301.422 2.781,301.675 2.781 C 302.165 2.781,303.556 3.417,311.420 7.240 C 314.151 8.567,317.190 10.028,318.173 10.487 C 319.156 10.946,320.020 11.455,320.093 11.619 C 320.166 11.783,320.461 11.917,320.750 11.917 C 321.039 11.917,322.007 12.274,322.902 12.711 C 323.796 13.148,325.260 13.863,326.155 14.300 C 327.049 14.737,328.017 15.094,328.306 15.094 C 328.595 15.094,328.891 15.229,328.964 15.394 C 329.037 15.559,330.348 16.293,331.877 17.025 C 333.406 17.757,335.104 18.604,335.650 18.907 C 337.166 19.748,345.274 23.706,347.857 24.866 C 349.117 25.432,351.132 26.332,352.334 26.866 C 353.535 27.399,354.831 28.008,355.214 28.218 C 355.596 28.428,356.221 28.770,356.604 28.978 C 358.591 30.060,363.512 32.175,364.040 32.175 C 364.374 32.175,364.647 32.354,364.647 32.572 C 364.647 32.790,364.894 32.969,365.195 32.969 C 365.496 32.969,365.963 33.235,366.233 33.561 C 366.503 33.886,366.870 34.062,367.048 33.951 C 367.227 33.841,367.485 33.932,367.623 34.154 C 367.760 34.376,368.219 34.558,368.643 34.558 C 369.067 34.558,369.414 34.737,369.414 34.955 C 369.414 35.174,369.772 35.353,370.209 35.353 C 370.645 35.353,371.003 35.487,371.003 35.652 C 371.003 35.816,372.340 36.576,373.974 37.340 C 375.608 38.104,376.948 38.863,376.953 39.027 C 376.958 39.191,377.205 39.325,377.504 39.325 C 377.802 39.325,379.329 39.967,380.897 40.751 C 382.465 41.535,383.994 42.083,384.294 41.968 C 384.594 41.852,384.936 42.008,385.053 42.313 C 385.170 42.618,386.123 43.303,387.171 43.836 C 389.033 44.782,393.644 48.885,393.644 49.595 C 393.644 49.792,393.927 50.186,394.271 50.473 C 395.432 51.436,397.995 56.943,398.008 58.503 C 398.011 58.893,398.402 59.355,398.876 59.530 C 399.448 59.742,399.582 59.946,399.273 60.137 C 398.692 60.496,398.660 63.019,399.232 63.373 C 399.886 63.777,400.058 63.363,399.667 62.319 C 399.472 61.797,399.442 61.013,399.601 60.576 C 399.940 59.644,399.675 58.697,399.164 59.013 C 398.968 59.134,398.808 58.607,398.808 57.842 C 398.808 57.078,398.630 56.342,398.411 56.207 C 398.193 56.072,398.014 55.517,398.014 54.975 C 398.014 54.432,397.656 53.605,397.219 53.136 C 396.783 52.667,396.425 51.959,396.425 51.564 C 396.425 51.168,396.246 50.844,396.028 50.844 C 395.809 50.844,395.631 50.576,395.631 50.248 C 395.631 49.921,395.452 49.652,395.233 49.652 C 395.015 49.652,394.836 49.374,394.836 49.033 C 394.836 48.666,395.023 48.529,395.295 48.697 C 395.581 48.874,395.645 48.806,395.466 48.516 C 395.308 48.260,394.999 48.162,394.779 48.297 C 394.286 48.602,392.453 46.937,392.453 46.183 C 392.453 45.881,392.319 45.705,392.155 45.792 C 391.727 46.021,390.481 44.613,390.798 44.260 C 390.943 44.098,390.740 44.081,390.346 44.222 C 389.898 44.383,389.312 44.184,388.782 43.690 C 388.315 43.255,387.699 42.900,387.413 42.900 C 387.126 42.900,386.892 42.721,386.892 42.502 C 386.892 42.284,386.534 42.105,386.097 42.105 C 385.660 42.105,385.303 41.854,385.303 41.547 C 385.303 41.169,385.024 41.061,384.441 41.213 C 383.788 41.384,383.635 41.295,383.809 40.841 C 383.984 40.385,383.811 40.287,383.082 40.426 C 382.533 40.531,382.125 40.420,382.125 40.165 C 382.125 39.922,381.857 39.722,381.529 39.722 C 381.202 39.722,380.933 39.543,380.933 39.325 C 380.933 39.106,380.587 38.928,380.162 38.928 C 379.738 38.928,379.281 38.749,379.146 38.530 C 379.011 38.312,378.554 38.133,378.129 38.133 C 377.705 38.133,377.358 37.954,377.358 37.736 C 377.358 37.517,377.090 37.339,376.763 37.339 C 376.435 37.339,376.167 37.178,376.167 36.981 C 376.167 36.784,375.293 36.414,374.224 36.157 C 373.156 35.901,371.912 35.347,371.460 34.926 C 371.009 34.505,370.185 34.161,369.629 34.161 C 369.074 34.161,368.620 33.982,368.620 33.764 C 368.620 33.545,368.173 33.366,367.627 33.366 C 367.080 33.366,366.634 33.218,366.634 33.036 C 366.634 32.855,366.231 32.520,365.740 32.292 C 362.345 30.720,361.072 30.021,361.072 29.729 C 361.072 29.545,360.626 29.394,360.079 29.394 C 359.533 29.394,359.086 29.221,359.086 29.009 C 359.086 28.798,358.841 28.719,358.542 28.834 C 358.242 28.949,357.886 28.753,357.750 28.399 C 357.614 28.045,357.343 27.854,357.148 27.974 C 356.953 28.095,356.572 27.928,356.302 27.602 C 356.032 27.277,355.555 27.011,355.242 27.011 C 354.354 27.011,351.142 25.447,351.142 25.015 C 351.142 24.802,350.885 24.628,350.570 24.628 C 350.255 24.628,348.449 23.824,346.556 22.842 C 344.664 21.860,342.954 21.157,342.756 21.279 C 342.559 21.400,342.290 21.221,342.159 20.879 C 342.028 20.538,341.681 20.258,341.387 20.258 C 341.094 20.258,340.672 19.945,340.449 19.563 C 340.224 19.177,340.039 19.089,340.032 19.364 C 340.014 20.094,339.225 19.971,339.225 19.238 C 339.225 18.797,338.995 18.689,338.431 18.868 C 337.698 19.101,337.434 18.758,337.590 17.776 C 337.615 17.612,337.358 17.478,337.017 17.478 C 336.677 17.478,336.508 17.656,336.643 17.875 C 336.779 18.093,336.710 18.272,336.492 18.272 C 336.273 18.272,335.989 18.101,335.860 17.892 C 335.731 17.683,335.363 17.613,335.042 17.736 C 334.721 17.859,334.459 17.762,334.459 17.520 C 334.459 17.278,334.101 17.080,333.664 17.080 C 333.227 17.080,332.869 16.946,332.867 16.783 C 332.863 16.426,330.940 15.492,330.209 15.492 C 329.925 15.492,329.692 15.313,329.692 15.094 C 329.692 14.876,329.335 14.697,328.898 14.697 C 328.461 14.697,328.103 14.518,328.103 14.300 C 328.103 14.081,327.746 13.903,327.309 13.903 C 326.872 13.903,326.514 13.724,326.514 13.505 C 326.514 13.287,326.157 13.108,325.720 13.108 C 325.283 13.108,324.926 12.929,324.926 12.711 C 324.926 12.493,324.568 12.314,324.131 12.314 C 323.694 12.314,323.337 12.135,323.337 11.917 C 323.337 11.698,322.979 11.519,322.542 11.519 C 322.105 11.519,321.748 11.341,321.748 11.122 C 321.748 10.904,321.380 10.725,320.930 10.725 C 320.480 10.725,320.222 10.546,320.357 10.328 C 320.493 10.109,320.360 9.930,320.063 9.930 C 319.314 9.930,317.385 9.002,317.381 8.640 C 317.380 8.476,316.931 8.342,316.385 8.342 C 315.839 8.342,315.392 8.152,315.392 7.921 C 315.392 7.690,315.234 7.598,315.040 7.718 C 314.846 7.838,314.467 7.669,314.197 7.344 C 313.927 7.019,313.449 6.753,313.135 6.753 C 312.805 6.753,312.684 6.559,312.848 6.294 C 313.027 6.005,312.957 5.944,312.657 6.129 C 312.397 6.290,310.894 5.806,309.319 5.052 C 307.744 4.299,305.785 3.444,304.965 3.152 C 304.146 2.860,303.476 2.478,303.476 2.304 C 303.476 2.129,303.039 1.986,302.506 1.986 C 301.973 1.986,301.416 1.792,301.270 1.554 C 301.123 1.317,300.654 1.214,300.229 1.325 C 299.798 1.438,299.368 1.300,299.258 1.013 C 299.140 0.706,298.393 0.500,297.395 0.502 C 296.479 0.503,295.215 0.365,294.586 0.196 C 293.694 -0.044,293.482 0.010,293.624 0.440 M299.769 13.605 C 300.114 15.415,300.298 15.473,300.298 13.770 C 300.298 12.969,300.124 12.314,299.911 12.314 C 299.688 12.314,299.628 12.863,299.769 13.605 M300.298 61.782 C 300.298 102.200,300.223 108.187,299.704 108.978 C 298.969 110.100,298.772 287.699,299.505 288.582 C 299.777 288.909,299.876 304.668,299.806 336.491 L 299.702 383.913 298.733 385.867 C 295.890 391.599,288.973 395.255,283.016 394.175 C 280.385 393.698,279.029 394.230,280.264 395.254 C 280.645 395.570,280.973 395.772,280.995 395.702 C 281.016 395.632,281.569 395.790,282.224 396.052 C 283.533 396.576,283.859 396.635,287.488 396.997 C 289.532 397.200,289.970 397.140,289.970 396.653 C 289.970 396.223,289.597 396.091,288.601 396.169 C 287.848 396.228,286.820 396.049,286.317 395.769 C 285.421 395.272,285.428 395.261,286.674 395.247 C 287.983 395.233,288.868 394.942,291.956 393.509 C 293.931 392.594,298.709 388.060,298.709 387.102 C 298.709 386.768,298.888 386.495,299.106 386.495 C 299.325 386.495,299.503 386.137,299.503 385.700 C 299.503 385.263,299.682 384.906,299.901 384.906 C 300.119 384.906,300.298 384.201,300.298 383.340 C 300.298 382.479,300.477 381.664,300.695 381.529 C 301.417 381.083,301.223 291.053,300.497 289.313 C 299.603 287.174,299.590 109.798,300.484 108.616 C 301.200 107.669,301.410 15.492,300.695 15.492 C 300.433 15.492,300.298 31.186,300.298 61.782 M399.206 64.945 C 399.206 65.492,399.384 65.938,399.603 65.938 C 399.821 65.938,400.000 65.492,400.000 64.945 C 400.000 64.399,399.821 63.952,399.603 63.952 C 399.384 63.952,399.206 64.399,399.206 64.945 M399.406 331.675 C 399.272 331.892,399.346 332.383,399.569 332.767 C 399.918 333.366,399.978 333.310,399.988 332.373 C 400.001 331.231,399.817 331.011,399.406 331.675 M399.156 334.459 C 399.129 334.896,399.088 335.745,399.067 336.346 C 399.045 336.946,398.771 337.635,398.459 337.875 C 398.128 338.130,397.982 338.663,398.110 339.151 C 398.235 339.629,398.090 340.189,397.774 340.451 C 397.469 340.704,397.219 341.204,397.219 341.561 C 397.219 342.204,395.363 345.993,394.860 346.375 C 394.717 346.485,394.164 347.200,393.633 347.964 C 392.119 350.142,389.271 352.631,386.991 353.769 C 385.844 354.342,384.903 355.013,384.900 355.260 C 384.896 355.530,384.757 355.495,384.553 355.173 C 384.284 354.749,384.088 354.815,383.616 355.488 C 383.288 355.956,382.863 356.311,382.672 356.276 C 382.480 356.240,382.190 356.255,382.026 356.308 C 381.862 356.362,381.594 356.434,381.430 356.470 C 381.012 356.561,378.115 357.872,377.160 358.403 C 376.723 358.646,375.472 359.342,374.379 359.951 C 373.287 360.560,372.075 361.061,371.686 361.065 C 371.296 361.069,370.876 361.340,370.750 361.666 C 370.625 361.992,370.343 362.148,370.123 362.012 C 369.903 361.876,369.608 361.922,369.469 362.114 C 369.076 362.655,367.505 363.456,366.838 363.456 C 366.507 363.456,366.236 363.635,366.236 363.853 C 366.236 364.071,365.879 364.250,365.442 364.250 C 365.005 364.250,364.647 364.385,364.647 364.551 C 364.647 364.716,364.067 365.082,363.357 365.364 C 362.646 365.646,360.993 366.407,359.682 367.055 C 358.371 367.704,357.090 368.231,356.835 368.228 C 356.581 368.225,356.312 368.357,356.240 368.520 C 356.022 369.010,353.026 370.485,351.639 370.786 C 350.929 370.940,350.348 371.188,350.348 371.336 C 350.348 371.485,349.971 371.841,349.512 372.128 C 348.819 372.561,348.729 372.560,348.984 372.125 C 349.154 371.835,348.935 371.912,348.498 372.294 C 348.061 372.676,347.529 372.989,347.317 372.989 C 346.688 372.989,344.793 373.957,344.790 374.280 C 344.788 374.444,344.516 374.578,344.185 374.578 C 343.855 374.578,343.274 374.744,342.894 374.947 C 342.515 375.150,340.775 375.993,339.027 376.820 C 337.279 377.647,335.789 378.465,335.717 378.636 C 335.644 378.807,335.346 378.947,335.055 378.947 C 334.764 378.947,333.177 379.662,331.527 380.536 C 329.878 381.410,328.276 382.125,327.967 382.125 C 327.659 382.125,327.168 382.412,326.877 382.762 C 326.438 383.292,324.911 384.136,324.131 384.280 C 323.119 384.467,320.159 385.846,320.159 386.130 C 320.159 386.331,319.872 386.495,319.522 386.495 C 319.171 386.495,315.641 388.095,311.677 390.051 C 304.631 393.528,297.032 396.602,296.586 396.156 C 296.235 395.805,293.545 396.417,293.545 396.848 C 293.545 397.578,301.304 396.961,302.168 396.162 C 302.443 395.909,303.036 395.798,303.486 395.915 C 304.046 396.062,304.267 395.957,304.188 395.582 C 304.117 395.251,304.346 395.081,304.767 395.151 C 305.149 395.216,305.462 395.082,305.462 394.854 C 305.462 394.626,305.819 394.439,306.256 394.439 C 306.693 394.439,307.051 394.260,307.051 394.042 C 307.051 393.823,307.408 393.644,307.845 393.644 C 308.282 393.644,308.640 393.466,308.640 393.247 C 308.640 393.029,308.986 392.850,309.411 392.850 C 309.835 392.850,310.292 392.671,310.427 392.453 C 310.562 392.234,311.030 392.056,311.467 392.056 C 311.904 392.056,312.151 391.877,312.016 391.658 C 311.881 391.440,312.138 391.261,312.588 391.261 C 313.038 391.261,313.406 391.082,313.406 390.864 C 313.406 390.645,313.764 390.467,314.201 390.467 C 314.638 390.467,314.995 390.288,314.995 390.070 C 314.995 389.851,315.353 389.672,315.789 389.672 C 316.226 389.672,316.584 389.483,316.584 389.252 C 316.584 389.020,316.734 388.924,316.917 389.037 C 317.101 389.150,317.886 388.903,318.661 388.487 C 319.437 388.072,320.196 387.855,320.347 388.007 C 320.498 388.158,320.563 388.103,320.490 387.885 C 320.417 387.666,320.505 387.455,320.685 387.414 C 320.866 387.374,321.334 386.972,321.725 386.521 C 322.117 386.069,322.729 385.700,323.085 385.700 C 323.442 385.700,323.734 385.521,323.734 385.303 C 323.734 385.084,324.270 384.906,324.926 384.906 C 325.581 384.906,326.117 384.746,326.117 384.552 C 326.117 384.357,326.609 384.075,327.210 383.925 C 327.810 383.775,328.645 383.353,329.065 382.988 C 329.505 382.605,329.695 382.552,329.513 382.861 C 329.299 383.226,329.527 383.183,330.218 382.730 C 330.780 382.362,331.502 382.022,331.822 381.975 C 332.142 381.928,333.042 381.581,333.823 381.202 C 334.603 380.824,335.915 380.207,336.737 379.830 C 337.559 379.454,338.292 379.012,338.365 378.848 C 338.438 378.684,338.840 378.550,339.259 378.550 C 339.677 378.550,340.020 378.361,340.020 378.129 C 340.020 377.898,340.199 377.819,340.417 377.954 C 340.636 378.089,340.814 378.000,340.814 377.756 C 340.814 377.511,340.973 377.410,341.167 377.529 C 341.360 377.649,341.738 377.483,342.006 377.160 C 342.274 376.837,342.623 376.653,342.782 376.751 C 342.940 376.849,343.705 376.589,344.481 376.174 C 345.256 375.758,346.029 375.541,346.197 375.693 C 346.365 375.844,346.374 375.745,346.217 375.472 C 346.040 375.164,346.169 374.975,346.556 374.975 C 346.899 374.975,347.491 374.817,347.870 374.624 C 348.250 374.431,349.049 374.045,349.646 373.766 C 350.243 373.487,351.053 372.959,351.447 372.593 C 351.840 372.227,352.635 371.808,353.213 371.663 C 353.791 371.518,354.532 371.131,354.859 370.804 C 355.187 370.476,355.835 370.209,356.301 370.209 C 356.766 370.209,357.058 370.064,356.949 369.887 C 356.840 369.711,357.574 369.346,358.581 369.077 C 359.588 368.807,360.696 368.281,361.044 367.908 C 361.946 366.941,363.456 366.143,363.456 366.634 C 363.456 367.056,364.786 366.429,365.736 365.558 C 366.024 365.294,366.522 365.179,366.844 365.303 C 367.165 365.426,367.428 365.329,367.428 365.087 C 367.428 364.845,367.617 364.647,367.847 364.647 C 368.622 364.647,371.797 363.043,371.797 362.651 C 371.797 362.438,372.244 362.264,372.790 362.264 C 373.337 362.264,373.784 362.085,373.784 361.867 C 373.784 361.648,374.241 361.470,374.800 361.470 C 375.377 361.470,375.710 361.298,375.571 361.072 C 375.430 360.844,375.800 360.673,376.441 360.669 C 377.308 360.664,377.424 360.577,376.961 360.278 C 376.492 359.975,376.585 359.892,377.397 359.887 C 378.483 359.881,380.757 358.898,381.148 358.267 C 381.274 358.062,381.689 357.895,382.069 357.895 C 382.449 357.895,382.973 357.682,383.233 357.422 C 383.493 357.162,383.939 356.915,384.224 356.873 C 384.510 356.831,385.754 356.150,386.990 355.360 C 388.226 354.569,389.404 353.923,389.609 353.923 C 389.813 353.923,390.396 353.400,390.905 352.761 C 391.414 352.121,391.970 351.685,392.142 351.791 C 392.313 351.897,392.453 351.764,392.453 351.496 C 392.453 351.229,392.561 351.118,392.693 351.250 C 393.015 351.572,395.754 348.374,397.047 346.168 C 398.008 344.529,398.303 343.722,398.381 342.531 C 398.397 342.273,398.639 341.827,398.917 341.538 C 399.195 341.249,399.447 340.566,399.477 340.020 C 399.507 339.474,399.648 337.820,399.791 336.346 C 399.965 334.553,399.911 333.664,399.628 333.664 C 399.396 333.664,399.183 334.022,399.156 334.459 " stroke="none" fill="#1498eb" fill-rule="evenodd"></path><path id="path4" d="M283.913 0.274 C 283.530 0.374,283.215 0.666,283.211 0.923 C 283.208 1.196,283.045 1.142,282.820 0.794 C 282.564 0.397,282.433 0.364,282.429 0.695 C 282.426 0.968,282.060 1.192,281.616 1.192 C 281.172 1.192,280.706 1.460,280.581 1.787 C 280.455 2.115,280.103 2.383,279.799 2.383 C 279.494 2.383,279.245 2.573,279.245 2.804 C 279.245 3.035,279.079 3.122,278.876 2.996 C 278.672 2.870,278.407 2.928,278.286 3.124 C 278.158 3.330,280.190 3.401,283.124 3.291 C 291.786 2.969,297.147 6.252,299.321 13.209 C 299.610 14.137,299.860 14.529,299.874 14.080 C 300.040 8.998,292.674 3.153,285.635 2.781 C 282.056 2.591,281.911 2.549,282.576 1.887 C 282.960 1.504,283.686 1.192,284.190 1.192 C 284.694 1.192,285.329 0.924,285.601 0.596 C 286.123 -0.033,285.525 -0.148,283.913 0.274 M286.932 0.452 C 287.446 0.750,287.926 0.755,288.521 0.467 C 289.266 0.106,289.172 0.052,287.786 0.039 C 286.464 0.027,286.320 0.096,286.932 0.452 M295.663 0.447 C 296.064 0.680,296.981 0.760,297.703 0.625 C 298.651 0.447,299.075 0.537,299.234 0.953 C 299.365 1.294,299.769 1.445,300.229 1.325 C 300.654 1.214,301.123 1.317,301.270 1.554 C 301.416 1.792,301.973 1.986,302.506 1.986 C 303.039 1.986,303.476 2.129,303.476 2.304 C 303.476 2.478,304.146 2.861,304.965 3.154 C 305.785 3.448,307.912 4.377,309.692 5.220 C 311.473 6.063,313.067 6.753,313.236 6.753 C 313.404 6.753,313.869 7.049,314.269 7.410 C 314.945 8.022,314.995 8.022,314.995 7.410 C 314.995 7.049,314.727 6.753,314.399 6.753 C 314.071 6.753,313.803 6.555,313.803 6.313 C 313.803 6.071,313.528 5.979,313.193 6.108 C 312.845 6.241,312.484 6.088,312.356 5.753 C 312.231 5.429,311.791 5.164,311.378 5.164 C 310.964 5.164,310.626 4.985,310.626 4.767 C 310.626 4.548,310.268 4.369,309.831 4.369 C 309.394 4.369,309.037 4.191,309.037 3.972 C 309.037 3.754,308.811 3.575,308.534 3.575 C 308.258 3.575,306.936 3.041,305.597 2.387 C 304.258 1.734,302.831 1.136,302.426 1.058 C 302.020 0.980,301.185 0.710,300.570 0.458 C 299.084 -0.151,294.618 -0.160,295.663 0.447 M315.392 7.944 C 315.392 8.163,315.824 8.342,316.352 8.342 C 316.880 8.342,317.382 8.552,317.468 8.809 C 317.557 9.076,317.839 9.144,318.127 8.966 C 318.485 8.745,318.322 8.496,317.561 8.101 C 316.308 7.451,315.392 7.385,315.392 7.944 M318.888 9.613 C 319.259 9.983,319.470 9.983,319.841 9.613 C 320.212 9.242,320.106 9.136,319.364 9.136 C 318.623 9.136,318.517 9.242,318.888 9.613 M321.748 11.122 C 321.748 11.341,322.016 11.519,322.344 11.519 C 322.671 11.519,322.939 11.341,322.939 11.122 C 322.939 10.904,322.671 10.725,322.344 10.725 C 322.016 10.725,321.748 10.904,321.748 11.122 M323.337 11.917 C 323.337 12.135,323.605 12.314,323.932 12.314 C 324.260 12.314,324.528 12.135,324.528 11.917 C 324.528 11.698,324.260 11.519,323.932 11.519 C 323.605 11.519,323.337 11.698,323.337 11.917 M324.926 12.711 C 324.926 12.929,325.194 13.108,325.521 13.108 C 325.849 13.108,326.117 12.929,326.117 12.711 C 326.117 12.493,325.849 12.314,325.521 12.314 C 325.194 12.314,324.926 12.493,324.926 12.711 M326.514 13.505 C 326.514 13.724,326.783 13.903,327.110 13.903 C 327.438 13.903,327.706 13.724,327.706 13.505 C 327.706 13.287,327.438 13.108,327.110 13.108 C 326.783 13.108,326.514 13.287,326.514 13.505 M328.103 14.300 C 328.103 14.518,328.461 14.697,328.898 14.697 C 329.335 14.697,329.692 14.876,329.692 15.094 C 329.692 15.313,329.925 15.492,330.209 15.492 C 330.940 15.492,332.863 16.426,332.867 16.783 C 332.869 16.946,333.227 17.080,333.664 17.080 C 334.101 17.080,334.459 17.278,334.459 17.520 C 334.459 17.762,334.721 17.859,335.042 17.736 C 335.363 17.613,335.731 17.683,335.860 17.892 C 336.217 18.471,336.710 18.346,336.710 17.676 C 336.710 17.349,336.461 17.080,336.157 17.080 C 335.853 17.080,334.811 16.637,333.840 16.095 C 332.870 15.553,332.075 15.202,332.075 15.315 C 332.075 15.427,331.673 15.296,331.182 15.023 C 330.690 14.750,330.169 14.520,330.023 14.513 C 329.878 14.505,329.624 14.364,329.460 14.201 C 329.028 13.768,328.103 13.835,328.103 14.300 M299.901 61.583 C 299.901 103.712,299.840 108.173,299.258 109.150 L 298.615 110.228 299.448 109.235 L 300.280 108.242 300.289 61.668 C 300.294 36.053,300.209 15.094,300.099 15.094 C 299.990 15.094,299.901 36.014,299.901 61.583 M337.497 18.483 C 337.645 18.866,338.006 19.003,338.478 18.853 C 338.993 18.690,339.225 18.810,339.225 19.238 C 339.225 19.581,339.404 19.861,339.623 19.861 C 340.550 19.861,339.917 18.711,338.769 18.311 C 337.192 17.761,337.219 17.758,337.497 18.483 M340.417 19.487 C 340.417 19.734,340.762 20.026,341.184 20.136 C 341.606 20.246,342.051 20.598,342.174 20.918 C 342.297 21.238,342.559 21.400,342.756 21.279 C 342.954 21.157,344.664 21.860,346.556 22.842 C 348.449 23.824,350.255 24.628,350.570 24.628 C 350.885 24.628,351.142 24.802,351.142 25.015 C 351.142 25.425,354.335 27.011,355.160 27.011 C 355.428 27.011,355.974 27.307,356.374 27.668 C 356.773 28.030,357.100 28.140,357.100 27.913 C 357.100 27.325,355.293 26.216,354.334 26.216 C 353.889 26.216,353.525 26.038,353.525 25.819 C 353.525 25.601,353.247 25.422,352.906 25.422 C 352.565 25.422,352.374 25.281,352.480 25.109 C 352.665 24.811,352.193 24.566,349.255 23.438 C 348.545 23.165,347.964 22.785,347.964 22.593 C 347.964 22.401,347.756 22.244,347.502 22.244 C 346.735 22.244,343.992 20.925,343.992 20.556 C 343.992 20.366,343.828 20.313,343.627 20.437 C 343.426 20.561,342.979 20.380,342.634 20.035 C 342.288 19.690,342.006 19.515,342.006 19.648 C 342.006 19.780,341.648 19.698,341.212 19.464 C 340.635 19.155,340.417 19.162,340.417 19.487 M357.751 28.401 C 357.877 28.729,358.139 28.997,358.334 28.997 C 358.530 28.997,358.689 28.729,358.689 28.401 C 358.689 28.073,358.427 27.805,358.106 27.805 C 357.750 27.805,357.612 28.038,357.751 28.401 M359.086 28.997 C 359.086 29.215,359.444 29.394,359.881 29.394 C 360.318 29.394,360.675 29.215,360.675 28.997 C 360.675 28.779,360.318 28.600,359.881 28.600 C 359.444 28.600,359.086 28.779,359.086 28.997 M361.072 29.729 C 361.072 30.021,362.345 30.720,365.740 32.292 C 366.231 32.520,366.634 32.855,366.634 33.036 C 366.634 33.218,367.080 33.366,367.627 33.366 C 368.173 33.366,368.620 33.545,368.620 33.764 C 368.620 33.982,369.074 34.161,369.629 34.161 C 370.185 34.161,371.003 34.500,371.448 34.915 C 372.237 35.649,375.367 36.682,375.724 36.325 C 376.022 36.027,375.510 35.711,374.623 35.644 C 374.161 35.609,373.784 35.440,373.784 35.268 C 373.784 35.096,373.503 34.955,373.159 34.955 C 372.816 34.955,372.267 34.687,371.940 34.360 C 371.613 34.033,370.866 33.647,370.280 33.502 C 369.695 33.358,368.565 32.831,367.770 32.332 C 366.974 31.834,366.215 31.534,366.081 31.668 C 365.948 31.801,365.839 31.701,365.839 31.447 C 365.839 31.192,365.392 30.983,364.846 30.983 C 364.300 30.983,363.853 30.804,363.853 30.586 C 363.853 30.367,363.406 30.189,362.860 30.189 C 362.314 30.189,361.867 30.010,361.867 29.791 C 361.867 29.573,361.688 29.394,361.470 29.394 C 361.251 29.394,361.072 29.545,361.072 29.729 M376.167 36.941 C 376.167 37.160,376.435 37.339,376.763 37.339 C 377.090 37.339,377.358 37.517,377.358 37.736 C 377.358 37.954,377.627 38.133,377.954 38.133 C 378.884 38.133,378.655 37.514,377.538 37.005 C 376.304 36.443,376.167 36.436,376.167 36.941 M379.015 37.934 C 379.096 38.398,379.524 38.782,380.044 38.856 C 380.533 38.926,380.933 39.149,380.933 39.352 C 380.933 39.556,381.202 39.722,381.529 39.722 C 381.857 39.722,382.125 39.901,382.125 40.119 C 382.125 40.338,382.472 40.516,382.896 40.516 C 383.320 40.516,383.778 40.338,383.913 40.119 C 384.048 39.901,383.921 39.722,383.632 39.722 C 383.343 39.722,382.439 39.364,381.623 38.927 C 380.807 38.489,380.133 38.266,380.126 38.430 C 380.119 38.594,379.835 38.371,379.495 37.934 L 378.876 37.140 379.015 37.934 M383.714 40.960 C 383.714 41.208,384.064 41.312,384.508 41.196 C 385.025 41.061,385.303 41.184,385.303 41.547 C 385.303 41.854,385.660 42.105,386.097 42.105 C 386.534 42.105,386.892 42.284,386.892 42.502 C 386.892 42.721,387.126 42.900,387.413 42.900 C 387.699 42.900,388.317 43.257,388.786 43.694 C 389.788 44.627,390.070 44.684,390.070 43.953 C 390.070 43.659,389.346 43.091,388.462 42.693 C 387.578 42.294,386.479 41.641,386.018 41.242 C 385.091 40.438,383.714 40.269,383.714 40.960 M391.162 45.220 C 391.544 45.622,391.991 45.880,392.155 45.792 C 392.319 45.705,392.453 45.896,392.453 46.217 C 392.453 46.538,392.989 47.252,393.644 47.804 C 394.300 48.355,394.836 48.997,394.836 49.230 C 394.836 49.462,395.015 49.652,395.233 49.652 C 395.452 49.652,395.631 49.921,395.631 50.248 C 395.631 50.576,395.809 50.844,396.028 50.844 C 396.246 50.844,396.425 51.168,396.425 51.564 C 396.425 51.959,396.783 52.667,397.219 53.136 C 397.656 53.605,398.014 54.432,398.014 54.975 C 398.014 55.517,398.193 56.072,398.411 56.207 C 398.630 56.342,398.808 57.078,398.808 57.842 C 398.808 58.607,398.972 59.132,399.172 59.008 C 399.371 58.885,399.640 59.008,399.768 59.283 C 399.896 59.557,399.902 59.067,399.781 58.193 C 399.558 56.580,398.047 52.402,397.553 52.032 C 397.405 51.921,397.224 51.579,397.152 51.272 C 397.024 50.729,395.946 49.343,394.141 47.400 C 393.649 46.871,393.247 46.341,393.247 46.222 C 393.247 45.846,391.481 44.516,390.963 44.502 C 390.642 44.493,390.712 44.746,391.162 45.220 M399.512 60.682 C 399.411 61.067,399.467 61.738,399.636 62.171 C 399.871 62.771,399.951 62.604,399.972 61.470 C 400.002 59.874,399.810 59.544,399.512 60.682 M299.305 335.770 L 299.305 383.118 298.178 385.341 C 294.423 392.748,287.684 395.334,279.282 392.594 C 277.119 391.888,276.496 392.378,277.914 393.670 C 278.498 394.202,278.842 394.369,278.679 394.042 C 278.516 393.714,278.770 393.893,279.245 394.439 C 279.720 394.985,280.000 395.220,279.867 394.960 C 279.432 394.108,280.799 393.773,283.050 394.181 C 288.972 395.255,295.898 391.582,298.733 385.867 L 299.702 383.913 299.806 336.470 C 299.863 310.376,299.774 288.890,299.608 288.724 C 299.441 288.557,299.305 309.728,299.305 335.770 M399.454 338.878 C 399.314 339.576,399.274 340.220,399.364 340.310 C 399.454 340.400,399.651 339.912,399.801 339.225 C 399.952 338.539,399.993 337.894,399.892 337.793 C 399.790 337.692,399.593 338.180,399.454 338.878 M398.455 342.502 C 398.061 343.684,398.075 343.728,398.615 343.022 C 398.940 342.598,399.206 342.017,399.206 341.731 C 399.206 340.846,398.905 341.155,398.455 342.502 M329.079 382.947 C 328.935 383.181,328.433 383.527,327.963 383.717 C 327.381 383.952,327.311 384.069,327.744 384.086 C 328.092 384.100,328.701 383.754,329.096 383.317 C 329.492 382.880,329.709 382.522,329.579 382.522 C 329.448 382.522,329.224 382.714,329.079 382.947 M323.734 385.303 C 323.734 385.521,323.453 385.700,323.110 385.700 C 322.338 385.700,321.155 386.829,321.532 387.205 C 321.683 387.357,321.978 387.177,322.186 386.805 C 322.394 386.433,323.185 386.013,323.943 385.870 C 325.424 385.593,325.840 384.906,324.528 384.906 C 324.091 384.906,323.734 385.084,323.734 385.303 M283.790 396.629 C 284.214 396.954,284.914 397.219,285.346 397.219 C 286.353 397.219,286.133 397.048,284.409 396.489 C 283.146 396.080,283.089 396.093,283.790 396.629 M297.219 397.096 C 297.602 397.196,298.227 397.196,298.610 397.096 C 298.992 396.996,298.679 396.914,297.915 396.914 C 297.150 396.914,296.837 396.996,297.219 397.096 " stroke="none" fill="#0a8cdc" fill-rule="evenodd"></path></g></svg>