<svg id="svg" version="1.1" xmlns="http://www.w3.org/2000/svg" xmlns:xlink="http://www.w3.org/1999/xlink" width="400" height="401.6666666666667" viewBox="0, 0, 400,401.6666666666667"><g id="svgg"><path id="path0" d="M398.668 0.185 C 398.442 0.276,398.103 0.338,397.915 0.324 C 397.727 0.309,397.517 0.315,397.448 0.337 C 397.231 0.405,396.431 0.511,395.649 0.574 C 395.234 0.608,394.764 0.689,394.603 0.754 C 394.441 0.819,394.197 0.829,394.059 0.776 C 393.921 0.723,393.808 0.740,393.808 0.814 C 393.808 0.888,393.638 0.933,393.431 0.915 C 393.224 0.897,392.981 0.925,392.891 0.977 C 392.721 1.074,391.721 1.206,390.921 1.237 C 390.667 1.247,390.460 1.301,390.460 1.358 C 390.460 1.414,390.291 1.447,390.084 1.431 C 389.877 1.415,389.575 1.465,389.414 1.543 C 389.227 1.634,389.121 1.619,389.121 1.502 C 389.121 1.402,389.044 1.367,388.949 1.425 C 388.764 1.540,387.928 1.694,387.333 1.723 C 387.132 1.733,387.010 1.810,387.062 1.894 C 387.116 1.982,386.859 2.019,386.466 1.982 C 386.085 1.946,385.774 1.955,385.774 2.004 C 385.774 2.052,385.403 2.090,384.951 2.088 C 384.498 2.085,384.157 2.132,384.194 2.192 C 384.263 2.303,381.726 2.592,381.228 2.529 C 381.075 2.510,380.903 2.570,380.846 2.663 C 380.789 2.755,380.635 2.790,380.505 2.739 C 380.374 2.689,380.169 2.710,380.050 2.786 C 379.930 2.861,379.531 2.934,379.163 2.948 C 378.795 2.961,378.155 3.028,377.741 3.096 C 377.326 3.164,376.818 3.219,376.612 3.218 C 376.405 3.216,376.277 3.282,376.327 3.363 C 376.377 3.443,376.198 3.465,375.928 3.412 C 375.655 3.357,375.390 3.392,375.329 3.490 C 375.269 3.588,375.104 3.623,374.963 3.569 C 374.822 3.515,374.128 3.572,373.421 3.696 C 372.713 3.820,372.077 3.905,372.008 3.885 C 371.939 3.866,371.883 3.913,371.883 3.992 C 371.883 4.070,371.600 4.139,371.255 4.144 C 370.137 4.162,369.529 4.233,369.454 4.354 C 369.414 4.420,369.109 4.444,368.778 4.407 C 368.395 4.365,368.213 4.403,368.280 4.512 C 368.341 4.610,368.282 4.643,368.139 4.588 C 368.003 4.536,367.736 4.577,367.544 4.679 C 367.321 4.799,367.197 4.805,367.197 4.696 C 367.197 4.587,367.055 4.581,366.795 4.680 C 366.575 4.764,366.360 4.798,366.318 4.756 C 366.276 4.714,366.024 4.794,365.757 4.932 C 365.471 5.081,365.249 5.116,365.216 5.019 C 365.185 4.928,365.087 4.854,364.997 4.854 C 364.907 4.854,364.872 4.916,364.919 4.991 C 364.966 5.067,364.763 5.136,364.469 5.144 C 364.174 5.152,363.632 5.203,363.264 5.257 C 362.895 5.311,362.318 5.372,361.980 5.393 C 361.642 5.414,361.395 5.479,361.431 5.537 C 361.467 5.594,361.291 5.650,361.041 5.659 C 360.791 5.669,360.266 5.688,359.876 5.702 C 359.485 5.715,359.196 5.775,359.232 5.834 C 359.269 5.893,359.005 5.930,358.645 5.917 C 358.286 5.903,357.992 5.946,357.992 6.013 C 357.992 6.080,357.766 6.101,357.490 6.061 C 357.209 6.020,356.987 6.063,356.987 6.160 C 356.987 6.254,356.722 6.311,356.397 6.285 C 356.073 6.259,355.765 6.307,355.713 6.391 C 355.661 6.475,355.366 6.503,355.056 6.454 C 354.743 6.404,354.446 6.443,354.385 6.541 C 354.325 6.638,354.178 6.680,354.058 6.634 C 353.938 6.588,353.791 6.599,353.732 6.659 C 353.672 6.718,353.458 6.774,353.255 6.782 C 353.053 6.790,352.322 6.863,351.632 6.944 C 350.941 7.025,350.282 7.074,350.167 7.053 C 350.052 7.032,349.958 7.083,349.958 7.166 C 349.958 7.250,349.689 7.288,349.359 7.252 C 348.949 7.207,348.796 7.245,348.875 7.372 C 348.955 7.501,348.803 7.528,348.372 7.460 C 348.033 7.406,347.669 7.414,347.564 7.479 C 347.387 7.589,346.404 7.717,345.732 7.719 C 345.571 7.719,345.439 7.799,345.439 7.896 C 345.439 7.993,345.289 8.033,345.105 7.985 C 344.913 7.935,344.769 7.980,344.767 8.091 C 344.766 8.199,344.695 8.174,344.607 8.035 C 344.487 7.845,344.402 7.832,344.254 7.980 C 344.147 8.087,343.956 8.135,343.829 8.086 C 343.702 8.037,343.598 8.064,343.598 8.145 C 343.598 8.227,343.203 8.300,342.720 8.309 C 342.236 8.318,341.615 8.384,341.339 8.455 C 341.063 8.527,340.592 8.588,340.293 8.591 C 339.994 8.593,339.749 8.643,339.749 8.701 C 339.749 8.758,339.523 8.790,339.247 8.771 C 338.971 8.752,338.745 8.785,338.745 8.845 C 338.744 8.905,338.462 8.963,338.117 8.973 C 337.772 8.984,337.151 9.038,336.736 9.095 C 336.322 9.151,335.615 9.238,335.166 9.289 C 334.716 9.339,334.267 9.431,334.167 9.493 C 334.066 9.555,333.738 9.600,333.436 9.594 C 333.134 9.588,332.887 9.634,332.887 9.695 C 332.887 9.757,332.718 9.813,332.510 9.820 C 331.490 9.852,330.611 9.938,330.464 10.018 C 330.375 10.068,330.149 10.117,329.962 10.128 C 328.755 10.198,328.687 10.215,328.809 10.418 C 328.908 10.583,328.882 10.585,328.684 10.425 C 328.488 10.266,328.341 10.271,327.998 10.449 C 327.706 10.601,327.507 10.620,327.394 10.507 C 327.301 10.414,327.127 10.400,327.005 10.475 C 326.733 10.643,326.277 10.728,325.565 10.744 C 325.266 10.750,325.021 10.802,325.021 10.859 C 325.021 10.916,324.701 10.970,324.310 10.979 C 323.594 10.996,322.950 11.086,322.176 11.275 C 321.946 11.331,321.343 11.419,320.837 11.470 C 320.331 11.521,319.728 11.590,319.498 11.623 C 319.268 11.655,318.679 11.731,318.189 11.791 C 317.699 11.851,317.134 11.961,316.933 12.035 C 316.733 12.109,316.480 12.138,316.370 12.099 C 316.261 12.061,315.734 12.117,315.199 12.225 C 314.664 12.332,314.056 12.413,313.849 12.405 C 313.642 12.396,313.473 12.450,313.473 12.525 C 313.473 12.600,313.236 12.627,312.947 12.585 C 312.658 12.542,312.462 12.574,312.513 12.655 C 312.563 12.737,312.235 12.815,311.783 12.830 C 310.489 12.872,309.968 12.935,310.033 13.040 C 310.066 13.094,309.856 13.129,309.566 13.118 C 309.275 13.107,308.962 13.142,308.870 13.195 C 308.779 13.249,308.424 13.305,308.082 13.321 C 307.740 13.336,307.326 13.405,307.161 13.475 C 306.997 13.545,306.617 13.601,306.318 13.601 C 306.019 13.600,305.774 13.680,305.774 13.779 C 305.774 13.905,305.722 13.906,305.597 13.781 C 305.478 13.663,305.158 13.653,304.634 13.753 C 303.731 13.925,303.089 14.029,302.259 14.139 C 299.460 14.511,298.912 14.606,298.912 14.721 C 298.912 14.785,298.678 14.803,298.392 14.761 C 298.060 14.712,297.818 14.769,297.725 14.916 C 297.610 15.097,297.578 15.099,297.576 14.927 C 297.574 14.807,297.506 14.750,297.424 14.800 C 297.342 14.851,296.796 14.939,296.211 14.996 C 295.625 15.053,295.109 15.148,295.063 15.207 C 295.017 15.266,294.565 15.332,294.059 15.354 C 293.552 15.375,292.573 15.506,291.883 15.644 C 291.192 15.782,290.289 15.931,289.874 15.976 C 289.460 16.020,288.933 16.087,288.703 16.123 C 288.473 16.160,287.908 16.241,287.448 16.303 C 286.987 16.365,286.460 16.445,286.276 16.480 C 286.092 16.515,285.692 16.549,285.388 16.556 C 285.083 16.563,284.871 16.630,284.917 16.703 C 284.963 16.777,284.764 16.821,284.476 16.802 C 284.188 16.782,283.496 16.841,282.939 16.933 C 282.381 17.025,281.774 17.122,281.590 17.148 C 281.406 17.174,280.803 17.278,280.251 17.378 C 279.699 17.479,278.833 17.604,278.326 17.657 C 277.820 17.709,277.293 17.784,277.155 17.822 C 276.908 17.891,275.887 18.028,274.561 18.171 C 274.192 18.211,273.515 18.315,273.054 18.402 C 272.594 18.489,271.502 18.644,270.628 18.746 C 269.753 18.848,268.925 18.979,268.787 19.037 C 268.649 19.096,268.310 19.160,268.033 19.180 C 266.668 19.280,265.518 19.464,265.470 19.590 C 265.441 19.667,265.319 19.692,265.198 19.646 C 265.077 19.599,264.197 19.682,263.242 19.830 C 262.287 19.978,261.280 20.133,261.004 20.174 C 260.728 20.215,260.316 20.286,260.090 20.331 C 259.863 20.376,259.185 20.460,258.583 20.517 C 257.982 20.574,257.435 20.653,257.369 20.694 C 257.303 20.734,256.898 20.803,256.469 20.847 C 256.040 20.891,255.605 20.979,255.502 21.043 C 255.398 21.107,255.106 21.137,254.853 21.111 C 254.599 21.084,254.147 21.140,253.849 21.234 C 253.550 21.329,252.854 21.447,252.301 21.497 C 251.188 21.597,250.340 21.708,249.707 21.834 C 248.996 21.977,247.630 22.145,247.319 22.128 C 247.155 22.119,247.065 22.182,247.118 22.268 C 247.171 22.353,247.106 22.381,246.973 22.330 C 246.840 22.280,246.290 22.316,245.751 22.412 C 245.211 22.508,244.431 22.627,244.017 22.676 C 243.603 22.725,242.849 22.836,242.343 22.922 C 241.352 23.091,241.141 23.120,238.536 23.450 C 237.592 23.569,236.820 23.708,236.820 23.758 C 236.820 23.808,236.575 23.856,236.276 23.863 C 235.977 23.871,235.356 23.934,234.895 24.004 C 233.614 24.198,233.451 24.222,232.552 24.338 C 231.417 24.486,230.461 24.627,229.958 24.722 C 229.728 24.765,229.351 24.823,229.121 24.850 C 227.729 25.017,226.984 25.121,226.651 25.195 C 226.443 25.241,225.916 25.319,225.479 25.367 C 225.043 25.416,224.084 25.565,223.347 25.699 C 222.611 25.833,221.669 25.978,221.255 26.022 C 220.249 26.128,219.385 26.250,218.075 26.468 C 217.477 26.567,216.874 26.648,216.736 26.647 C 216.598 26.645,216.222 26.708,215.900 26.786 C 215.577 26.865,214.900 26.974,214.393 27.029 C 212.912 27.190,212.512 27.248,211.715 27.418 C 211.301 27.506,210.849 27.579,210.711 27.581 C 210.330 27.586,208.653 27.792,208.368 27.869 C 208.230 27.906,207.741 27.980,207.280 28.033 C 206.820 28.086,206.255 28.174,206.025 28.227 C 205.795 28.281,205.381 28.352,205.105 28.385 C 204.828 28.418,204.414 28.477,204.184 28.517 C 203.954 28.556,203.351 28.637,202.845 28.696 C 202.339 28.755,201.510 28.873,201.004 28.959 C 200.498 29.045,199.782 29.156,199.414 29.207 C 199.046 29.257,198.444 29.346,198.075 29.405 C 197.707 29.464,197.293 29.530,197.155 29.552 C 197.017 29.574,195.962 29.714,194.812 29.865 C 193.661 30.015,192.456 30.205,192.134 30.288 C 191.812 30.371,191.033 30.481,190.404 30.532 C 189.775 30.584,189.204 30.660,189.136 30.702 C 189.067 30.745,188.603 30.830,188.104 30.892 C 187.605 30.955,187.084 31.021,186.946 31.040 C 186.808 31.059,186.205 31.139,185.607 31.217 C 185.008 31.296,184.462 31.374,184.393 31.391 C 184.324 31.409,184.004 31.432,183.682 31.444 L 183.096 31.464 183.096 111.794 L 183.096 192.124 188.322 192.109 C 191.197 192.101,193.946 192.041,194.431 191.975 C 194.917 191.909,195.314 191.911,195.314 191.979 C 195.314 192.047,196.820 192.091,198.661 192.076 C 200.502 192.062,202.008 192.013,202.008 191.967 C 202.009 191.921,206.697 191.872,212.427 191.858 C 232.519 191.810,234.979 191.783,234.979 191.611 C 234.979 191.520,235.055 191.492,235.148 191.549 C 235.568 191.808,258.576 191.661,258.580 191.399 C 258.582 191.271,258.621 191.269,258.705 191.390 C 258.834 191.575,264.642 191.664,264.528 191.479 C 264.495 191.425,267.887 191.387,272.066 191.395 C 276.428 191.403,279.665 191.345,279.665 191.260 C 279.665 191.177,279.741 191.157,279.834 191.214 C 280.073 191.362,283.627 191.351,283.869 191.201 C 283.998 191.121,284.024 191.149,283.943 191.281 C 283.846 191.438,284.250 191.462,285.716 191.386 C 286.761 191.333,290.009 191.287,292.934 191.286 C 296.797 191.284,298.222 191.232,298.139 191.097 C 298.069 190.984,298.100 190.958,298.218 191.031 C 298.449 191.174,306.467 191.183,320.921 191.057 C 337.404 190.913,351.907 190.807,361.799 190.757 C 366.793 190.732,370.878 190.674,370.879 190.628 C 370.879 190.582,374.984 190.544,380.000 190.544 C 385.017 190.544,389.121 190.483,389.121 190.409 C 389.121 190.334,389.183 190.311,389.258 190.357 C 389.451 190.477,390.283 190.492,395.439 190.469 L 400.000 190.449 400.000 95.225 L 400.000 0.000 399.540 0.011 C 399.287 0.016,398.894 0.095,398.668 0.185 M162.831 34.546 C 162.761 34.617,161.920 34.758,160.736 34.898 C 159.981 34.987,159.250 35.085,158.075 35.255 C 157.615 35.322,157.181 35.362,157.112 35.345 C 157.042 35.327,156.665 35.384,156.275 35.470 C 155.884 35.557,155.151 35.678,154.644 35.739 C 154.138 35.800,153.536 35.876,153.305 35.908 C 153.075 35.940,152.473 36.010,151.967 36.063 C 151.460 36.115,150.632 36.228,150.126 36.313 C 149.619 36.399,148.791 36.514,148.285 36.570 C 147.778 36.626,147.251 36.703,147.113 36.741 C 146.975 36.779,146.448 36.849,145.941 36.898 C 145.435 36.947,144.868 37.017,144.680 37.054 C 144.493 37.091,143.890 37.176,143.341 37.243 C 142.792 37.310,142.192 37.392,142.008 37.426 C 141.225 37.571,140.633 37.665,140.084 37.732 C 139.762 37.771,138.293 37.961,136.820 38.154 C 135.347 38.348,133.287 38.617,132.242 38.752 C 131.197 38.887,130.180 39.034,129.983 39.079 C 129.381 39.214,128.816 39.292,127.603 39.408 C 126.965 39.469,126.067 39.587,125.607 39.669 C 125.146 39.752,124.393 39.858,123.933 39.904 C 123.473 39.951,122.494 40.076,121.757 40.181 C 121.021 40.287,120.230 40.394,120.000 40.420 C 119.770 40.446,119.437 40.525,119.261 40.596 C 119.019 40.695,118.974 40.672,119.078 40.505 C 119.178 40.343,119.151 40.323,118.980 40.430 C 118.851 40.510,118.632 40.597,118.494 40.622 C 117.340 40.831,116.982 40.877,116.360 40.897 C 115.969 40.910,115.649 40.983,115.649 41.059 C 115.649 41.135,115.366 41.184,115.021 41.168 C 114.676 41.152,114.356 41.152,114.310 41.168 C 114.002 41.275,112.720 41.472,111.593 41.587 C 111.249 41.622,110.891 41.698,110.798 41.756 C 110.704 41.813,110.628 41.778,110.628 41.678 C 110.628 41.548,110.532 41.545,110.300 41.670 C 110.119 41.767,109.912 41.836,109.839 41.823 C 109.767 41.811,109.669 41.815,109.623 41.831 C 109.577 41.847,109.163 41.898,108.703 41.944 C 107.269 42.088,107.202 42.099,106.999 42.225 C 106.890 42.293,106.754 42.272,106.696 42.178 C 106.625 42.063,106.484 42.064,106.263 42.183 C 106.082 42.280,105.849 42.306,105.745 42.241 C 105.640 42.177,105.601 42.198,105.657 42.289 C 105.716 42.384,105.498 42.461,105.139 42.472 C 103.832 42.512,102.005 42.715,101.925 42.829 C 101.879 42.894,101.559 42.932,101.213 42.914 C 100.868 42.895,100.585 42.928,100.585 42.988 C 100.584 43.047,100.210 43.104,99.754 43.113 C 99.297 43.122,98.793 43.235,98.635 43.364 C 98.445 43.517,98.389 43.526,98.471 43.389 C 98.551 43.257,98.500 43.180,98.336 43.180 C 98.193 43.180,98.075 43.256,98.075 43.350 C 98.075 43.447,97.857 43.481,97.560 43.429 C 97.231 43.371,97.084 43.400,97.152 43.510 C 97.210 43.605,97.185 43.682,97.095 43.682 C 97.005 43.682,96.894 43.588,96.847 43.473 C 96.796 43.346,96.758 43.337,96.750 43.450 C 96.742 43.563,96.491 43.611,96.109 43.573 C 95.680 43.530,95.557 43.559,95.720 43.666 C 95.878 43.769,95.700 43.798,95.187 43.750 C 94.763 43.710,94.371 43.751,94.316 43.840 C 94.260 43.929,94.108 43.961,93.978 43.911 C 93.847 43.861,93.653 43.874,93.546 43.940 C 93.439 44.006,93.040 44.090,92.659 44.126 C 92.278 44.163,91.741 44.229,91.464 44.273 C 91.188 44.317,90.723 44.351,90.431 44.348 C 90.139 44.345,89.859 44.409,89.809 44.489 C 89.759 44.570,89.452 44.618,89.127 44.596 C 88.802 44.574,88.536 44.623,88.536 44.705 C 88.536 44.787,88.456 44.854,88.358 44.854 C 88.261 44.854,88.226 44.781,88.281 44.691 C 88.337 44.602,88.077 44.636,87.706 44.767 C 87.334 44.899,87.029 44.936,87.029 44.850 C 87.029 44.759,86.873 44.752,86.653 44.834 C 86.446 44.910,86.182 44.940,86.067 44.899 C 85.952 44.859,85.858 44.920,85.858 45.035 C 85.858 45.150,85.810 45.197,85.752 45.138 C 85.694 45.080,85.506 45.108,85.334 45.200 C 85.122 45.313,85.021 45.311,85.021 45.194 C 85.021 45.099,84.904 45.021,84.760 45.021 C 84.616 45.021,84.534 45.077,84.577 45.146 C 84.619 45.215,84.341 45.281,83.959 45.291 C 82.927 45.320,82.176 45.415,82.175 45.517 C 82.175 45.566,81.744 45.630,81.218 45.659 C 80.691 45.687,80.150 45.800,80.015 45.910 C 79.822 46.066,79.796 46.063,79.894 45.900 C 79.963 45.785,79.944 45.690,79.852 45.690 C 79.760 45.690,79.640 45.763,79.585 45.852 C 79.530 45.941,79.262 45.970,78.989 45.915 C 78.717 45.861,78.494 45.882,78.494 45.963 C 78.494 46.043,78.287 46.124,78.033 46.143 C 77.780 46.161,77.159 46.217,76.653 46.266 C 76.146 46.316,75.582 46.367,75.397 46.381 C 75.213 46.394,74.724 46.478,74.310 46.566 C 73.895 46.655,73.218 46.757,72.803 46.793 C 72.119 46.852,71.381 46.972,71.381 47.024 C 71.381 47.083,69.633 47.235,69.163 47.217 C 68.864 47.206,68.619 47.270,68.619 47.359 C 68.619 47.448,68.506 47.478,68.368 47.425 C 68.230 47.372,67.985 47.385,67.824 47.455 C 67.663 47.524,67.362 47.565,67.155 47.544 C 66.937 47.523,66.777 47.600,66.776 47.729 C 66.774 47.908,66.746 47.906,66.629 47.723 C 66.525 47.558,66.453 47.548,66.367 47.688 C 66.301 47.793,66.100 47.833,65.919 47.775 C 65.739 47.718,65.467 47.771,65.315 47.894 C 65.086 48.080,65.063 48.080,65.176 47.891 C 65.286 47.709,65.245 47.701,64.961 47.853 C 64.768 47.957,64.421 48.007,64.190 47.965 C 63.960 47.923,63.727 47.960,63.674 48.046 C 63.621 48.133,63.400 48.171,63.183 48.132 C 62.967 48.093,62.748 48.102,62.697 48.153 C 62.608 48.243,61.734 48.382,60.962 48.429 C 60.755 48.442,60.586 48.493,60.586 48.544 C 60.586 48.594,60.322 48.605,60.000 48.567 C 59.585 48.519,59.413 48.565,59.412 48.726 C 59.410 48.903,59.372 48.897,59.247 48.703 C 59.158 48.565,59.083 48.527,59.082 48.619 C 59.081 48.711,58.775 48.781,58.402 48.773 C 58.030 48.766,57.691 48.815,57.649 48.883 C 57.607 48.951,57.272 48.977,56.904 48.941 C 56.536 48.906,56.234 48.935,56.234 49.005 C 56.234 49.076,55.729 49.152,55.112 49.173 C 54.495 49.194,53.949 49.267,53.899 49.334 C 53.849 49.401,53.491 49.465,53.104 49.477 C 52.718 49.488,52.266 49.556,52.100 49.627 C 51.935 49.699,51.631 49.740,51.425 49.720 C 51.220 49.700,50.958 49.742,50.844 49.812 C 50.730 49.883,50.360 49.920,50.022 49.896 C 49.683 49.871,49.359 49.929,49.300 50.023 C 49.242 50.117,49.088 50.154,48.958 50.104 C 48.828 50.054,48.186 50.096,47.532 50.198 C 46.878 50.299,45.951 50.423,45.473 50.473 C 44.994 50.523,44.188 50.636,43.682 50.724 C 42.519 50.926,42.004 51.001,40.753 51.147 C 40.201 51.212,39.598 51.290,39.414 51.322 C 39.230 51.353,38.720 51.409,38.281 51.446 C 37.842 51.482,37.372 51.605,37.235 51.718 C 37.099 51.831,36.987 51.850,36.987 51.759 C 36.987 51.547,36.105 51.708,35.944 51.950 C 35.862 52.072,35.820 52.075,35.818 51.957 C 35.816 51.795,35.111 51.865,32.385 52.297 C 32.109 52.341,31.356 52.424,30.711 52.483 C 30.067 52.541,29.464 52.643,29.372 52.709 C 29.280 52.775,28.999 52.809,28.748 52.784 C 28.497 52.760,28.252 52.804,28.204 52.882 C 28.156 52.959,27.966 52.984,27.782 52.935 C 27.581 52.883,27.448 52.930,27.448 53.055 C 27.448 53.210,27.390 53.215,27.223 53.076 C 27.100 52.974,26.957 52.931,26.907 52.982 C 26.820 53.068,25.647 53.240,25.105 53.245 C 24.967 53.246,24.477 53.316,24.017 53.400 C 23.556 53.484,22.841 53.591,22.427 53.638 C 20.918 53.810,20.251 53.931,20.251 54.036 C 20.251 54.094,19.869 54.139,19.402 54.136 C 18.935 54.133,18.521 54.182,18.481 54.246 C 18.442 54.310,18.247 54.319,18.049 54.268 C 17.787 54.199,17.724 54.231,17.818 54.384 C 17.920 54.548,17.873 54.554,17.604 54.410 C 17.369 54.284,17.123 54.278,16.825 54.391 C 16.586 54.482,16.336 54.544,16.270 54.528 C 16.085 54.483,13.796 54.799,13.682 54.885 C 13.659 54.903,13.076 54.956,12.387 55.003 C 11.697 55.050,11.050 55.157,10.949 55.241 C 10.847 55.326,10.718 55.349,10.662 55.292 C 10.524 55.154,9.012 55.388,9.102 55.534 C 9.141 55.597,8.822 55.642,8.394 55.634 C 7.966 55.627,7.540 55.662,7.448 55.714 C 7.356 55.765,7.017 55.818,6.695 55.831 C 5.874 55.864,4.150 56.078,3.849 56.183 C 3.711 56.232,3.335 56.289,3.013 56.310 C 2.492 56.344,1.584 56.471,0.586 56.651 C 0.402 56.684,0.193 56.717,0.121 56.724 C -0.067 56.742,0.005 193.121,0.193 193.238 C 0.278 193.290,2.698 193.321,5.571 193.306 C 8.444 193.291,13.409 193.282,16.604 193.287 C 19.800 193.291,22.449 193.237,22.493 193.167 C 22.536 193.097,23.047 193.087,23.629 193.144 C 24.210 193.201,27.209 193.228,30.293 193.203 C 33.377 193.178,40.730 193.125,46.634 193.085 C 52.538 193.046,57.464 192.955,57.580 192.883 C 57.716 192.799,57.751 192.819,57.677 192.939 C 57.592 193.076,58.677 193.107,61.709 193.055 C 63.991 193.017,70.151 192.968,75.397 192.947 C 80.644 192.926,85.413 192.863,85.995 192.807 C 86.576 192.751,87.088 192.762,87.131 192.832 C 87.174 192.902,89.334 192.925,91.931 192.884 C 97.090 192.802,124.636 192.635,133.933 192.630 C 138.400 192.627,139.750 192.579,139.752 192.422 C 139.753 192.283,139.801 192.292,139.903 192.452 C 140.025 192.645,140.375 192.660,141.892 192.536 C 142.905 192.453,143.703 192.434,143.666 192.495 C 143.604 192.595,144.603 192.532,145.314 192.391 C 145.475 192.359,145.571 192.392,145.526 192.464 C 145.481 192.536,147.571 192.571,150.170 192.540 C 152.769 192.510,156.868 192.463,159.279 192.435 L 163.663 192.385 163.609 149.958 C 163.579 126.623,163.546 91.094,163.535 71.004 C 163.515 35.703,163.504 34.477,163.208 34.477 C 163.039 34.477,162.870 34.508,162.831 34.546 M0.000 277.472 C 0.000 331.917,0.042 345.781,0.209 345.885 C 0.324 345.957,0.531 346.030,0.669 346.047 C 0.808 346.064,1.297 346.131,1.757 346.195 C 2.218 346.259,2.745 346.329,2.929 346.351 C 3.113 346.373,3.565 346.440,3.933 346.500 C 4.301 346.560,5.001 346.645,5.488 346.688 C 5.975 346.732,6.446 346.812,6.534 346.866 C 6.622 346.921,6.695 346.876,6.695 346.768 C 6.695 346.620,6.758 346.623,6.945 346.778 C 7.082 346.892,7.572 346.995,8.032 347.007 C 8.492 347.019,8.869 347.083,8.870 347.148 C 8.870 347.213,9.134 347.245,9.456 347.220 C 9.778 347.195,10.042 347.236,10.042 347.311 C 10.042 347.386,10.098 347.433,10.167 347.415 C 10.299 347.381,12.229 347.602,12.803 347.717 C 12.987 347.753,13.496 347.817,13.933 347.857 C 14.371 347.897,14.804 347.977,14.896 348.034 C 14.988 348.090,15.063 348.057,15.063 347.960 C 15.063 347.862,15.143 347.782,15.240 347.782 C 15.337 347.782,15.371 347.858,15.314 347.950 C 15.257 348.042,15.347 348.125,15.513 348.134 C 15.856 348.153,16.286 348.201,17.490 348.358 C 17.950 348.418,18.439 348.469,18.577 348.472 C 18.715 348.475,19.211 348.549,19.678 348.638 C 21.041 348.895,21.953 349.008,22.803 349.023 C 23.240 349.031,23.598 349.094,23.598 349.163 C 23.598 349.232,23.678 349.289,23.776 349.289 C 23.873 349.289,23.896 349.195,23.827 349.079 C 23.741 348.935,23.789 348.941,23.982 349.098 C 24.137 349.224,24.377 349.282,24.517 349.229 C 24.656 349.176,24.770 349.193,24.770 349.267 C 24.770 349.341,24.996 349.389,25.272 349.372 C 25.548 349.356,25.774 349.398,25.774 349.466 C 25.774 349.534,26.320 349.646,26.987 349.715 C 28.589 349.882,29.074 349.940,29.874 350.062 C 30.243 350.118,30.902 350.174,31.339 350.186 C 31.776 350.199,32.134 350.257,32.134 350.315 C 32.134 350.373,32.605 350.468,33.180 350.527 C 33.755 350.586,34.490 350.661,34.812 350.694 C 35.134 350.727,35.397 350.773,35.397 350.796 C 35.397 350.851,35.665 350.887,38.326 351.189 C 38.556 351.215,38.924 351.296,39.142 351.369 C 39.454 351.472,39.510 351.451,39.403 351.273 C 39.293 351.091,39.316 351.086,39.514 351.247 C 39.651 351.357,40.249 351.495,40.844 351.553 C 41.438 351.612,42.160 351.720,42.448 351.794 C 42.735 351.867,43.282 351.913,43.663 351.894 C 44.091 351.874,44.275 351.916,44.144 352.004 C 44.010 352.095,44.147 352.139,44.519 352.124 C 44.841 352.111,45.142 352.113,45.188 352.130 C 45.442 352.220,46.033 352.300,46.736 352.340 C 47.173 352.365,47.530 352.429,47.531 352.483 C 47.531 352.536,47.626 352.585,47.741 352.590 C 48.690 352.633,49.910 352.783,49.993 352.866 C 50.049 352.922,50.196 352.884,50.319 352.781 C 50.458 352.666,50.544 352.659,50.544 352.763 C 50.544 352.984,51.361 353.138,51.483 352.940 C 51.537 352.853,51.679 352.871,51.813 352.982 C 51.942 353.090,52.235 353.142,52.463 353.098 C 52.690 353.055,52.840 353.079,52.794 353.153 C 52.748 353.227,53.008 353.271,53.371 353.251 C 53.734 353.230,54.003 353.260,53.968 353.316 C 53.933 353.373,54.146 353.430,54.442 353.443 C 55.025 353.470,55.564 353.564,56.101 353.735 C 56.344 353.812,56.407 353.785,56.319 353.641 C 56.222 353.485,56.276 353.483,56.552 353.631 C 56.749 353.737,56.984 353.777,57.075 353.722 C 57.165 353.666,57.238 353.709,57.238 353.818 C 57.238 353.958,57.322 353.948,57.522 353.786 C 57.731 353.617,57.771 353.613,57.675 353.772 C 57.577 353.936,57.651 353.962,57.980 353.879 C 58.219 353.819,58.508 353.844,58.621 353.934 C 58.892 354.147,59.765 354.304,59.650 354.118 C 59.533 353.928,59.806 353.934,60.008 354.126 C 60.096 354.209,60.544 354.318,61.004 354.368 C 61.857 354.461,62.429 354.537,63.766 354.736 C 64.180 354.798,64.820 354.874,65.188 354.905 C 65.556 354.936,65.858 354.973,65.858 354.989 C 65.858 355.023,66.803 355.149,67.615 355.224 C 67.937 355.253,68.502 355.359,68.870 355.457 C 69.238 355.556,70.029 355.674,70.628 355.720 C 71.226 355.765,72.130 355.874,72.636 355.963 C 73.142 356.051,73.669 356.125,73.808 356.127 C 74.114 356.132,75.521 356.305,76.318 356.436 C 76.640 356.488,77.280 356.532,77.741 356.532 C 78.356 356.533,78.489 356.571,78.243 356.677 C 77.993 356.784,78.067 356.808,78.536 356.770 C 78.881 356.743,79.163 356.779,79.163 356.851 C 79.163 356.922,79.446 356.977,79.791 356.972 C 80.334 356.964,81.590 357.092,81.590 357.155 C 81.590 357.208,82.818 357.358,83.389 357.375 C 83.734 357.386,84.017 357.443,84.017 357.503 C 84.017 357.564,84.254 357.585,84.544 357.552 C 84.834 357.518,85.187 357.584,85.329 357.699 C 85.536 357.866,85.562 357.866,85.462 357.699 C 85.392 357.584,85.416 357.490,85.513 357.490 C 85.611 357.490,85.690 357.564,85.690 357.655 C 85.690 357.746,85.935 357.796,86.234 357.766 C 86.533 357.736,87.042 357.817,87.364 357.945 C 87.686 358.074,88.458 358.194,89.079 358.211 C 89.700 358.228,90.208 358.291,90.209 358.350 C 90.209 358.409,90.473 358.421,90.795 358.378 C 91.119 358.334,91.381 358.372,91.381 358.463 C 91.381 358.553,91.682 358.616,92.050 358.602 C 92.419 358.589,92.720 358.632,92.720 358.700 C 92.720 358.767,92.964 358.793,93.264 358.758 C 93.563 358.723,93.883 358.742,93.975 358.801 C 94.163 358.920,94.710 358.993,95.800 359.045 C 96.205 359.064,96.494 359.149,96.442 359.233 C 96.390 359.318,96.460 359.344,96.599 359.291 C 96.737 359.238,96.954 359.258,97.081 359.336 C 97.218 359.422,97.410 359.399,97.558 359.279 C 97.755 359.119,97.777 359.125,97.668 359.307 C 97.560 359.487,97.639 359.510,98.054 359.419 C 98.343 359.355,98.577 359.373,98.577 359.457 C 98.577 359.542,98.935 359.627,99.372 359.646 C 101.360 359.734,101.590 359.755,101.590 359.847 C 101.590 359.900,101.684 359.947,101.799 359.950 C 102.145 359.959,103.821 360.161,104.243 360.244 C 104.460 360.287,104.949 360.362,105.331 360.410 C 105.713 360.458,106.364 360.545,106.778 360.602 C 107.192 360.659,107.795 360.723,108.117 360.745 C 108.439 360.767,108.816 360.828,108.954 360.881 C 109.092 360.933,109.318 360.986,109.456 360.998 C 109.594 361.009,110.008 361.043,110.377 361.073 C 110.745 361.102,111.174 361.181,111.331 361.248 C 111.488 361.314,111.695 361.320,111.791 361.260 C 111.888 361.201,111.967 361.215,111.967 361.293 C 111.967 361.370,112.287 361.442,112.678 361.452 C 113.324 361.468,113.862 361.521,115.900 361.772 C 116.268 361.818,116.833 361.886,117.155 361.925 C 119.053 362.155,119.470 362.216,120.000 362.343 C 120.322 362.420,121.000 362.529,121.506 362.585 C 122.013 362.641,123.200 362.801,124.145 362.941 C 125.090 363.080,126.107 363.223,126.404 363.258 C 127.853 363.426,128.711 363.535,129.707 363.677 C 131.033 363.866,132.272 364.029,133.054 364.117 C 133.377 364.154,133.826 364.227,134.053 364.280 C 134.280 364.333,134.732 364.407,135.057 364.446 C 135.382 364.484,135.987 364.563,136.402 364.621 C 136.816 364.680,137.268 364.744,137.406 364.763 C 137.544 364.782,138.037 364.853,138.501 364.920 C 138.965 364.988,139.530 365.068,139.756 365.100 C 139.982 365.131,140.732 365.240,141.423 365.341 C 142.113 365.443,143.054 365.562,143.515 365.605 C 143.975 365.649,144.540 365.721,144.770 365.765 C 145.000 365.810,146.092 365.961,147.197 366.102 C 149.458 366.389,149.595 366.409,151.799 366.761 C 152.674 366.901,153.803 367.059,154.310 367.112 C 154.816 367.166,155.983 367.315,156.904 367.444 C 157.824 367.573,158.879 367.716,159.247 367.763 C 159.615 367.809,160.218 367.893,160.586 367.949 C 160.954 368.006,161.519 368.081,161.841 368.116 C 162.163 368.151,162.698 368.227,163.029 368.284 L 163.631 368.389 163.592 359.550 C 163.571 354.689,163.538 319.098,163.519 280.460 C 163.497 235.195,163.427 210.209,163.323 210.209 C 163.233 210.209,163.204 210.280,163.257 210.366 C 163.316 210.461,163.167 210.469,162.880 210.387 C 162.619 210.312,159.248 210.244,155.387 210.235 C 151.527 210.226,145.657 210.184,142.343 210.140 C 139.029 210.097,135.852 210.118,135.282 210.187 C 134.712 210.256,134.282 210.254,134.326 210.183 C 134.370 210.111,131.937 210.049,128.919 210.043 C 116.070 210.020,95.156 209.872,93.252 209.791 C 91.894 209.732,91.226 209.759,91.294 209.870 C 91.352 209.963,91.296 209.999,91.170 209.951 C 90.725 209.780,86.192 209.787,86.190 209.958 C 86.188 210.054,86.135 210.047,86.064 209.941 C 85.978 209.810,83.453 209.750,77.506 209.735 C 72.867 209.723,69.049 209.690,69.020 209.662 C 68.932 209.573,60.541 209.696,60.450 209.787 C 60.295 209.942,59.079 209.880,59.079 209.718 C 59.079 209.622,56.031 209.554,51.339 209.543 C 22.107 209.474,16.904 209.442,16.904 209.329 C 16.904 209.259,15.755 209.250,14.351 209.307 C 12.948 209.365,11.724 209.408,11.632 209.403 C 11.540 209.398,8.885 209.348,5.732 209.292 L 0.000 209.190 0.000 277.472 M182.799 233.305 C 182.816 247.599,182.882 255.185,182.992 255.259 C 183.100 255.332,183.090 255.454,182.964 255.606 C 182.833 255.765,182.825 255.896,182.939 256.010 C 183.054 256.125,183.054 256.325,182.939 256.625 C 182.835 256.899,182.801 258.380,182.849 260.473 C 182.893 262.345,182.941 282.058,182.955 304.281 C 182.970 326.504,183.045 344.860,183.122 345.072 C 183.219 345.338,183.206 345.423,183.081 345.346 C 182.951 345.266,182.929 346.019,183.005 347.972 C 183.064 349.479,183.116 355.236,183.122 360.767 C 183.129 368.186,183.182 370.828,183.323 370.844 C 183.428 370.855,183.967 370.910,184.519 370.966 C 185.071 371.022,185.749 371.131,186.025 371.210 C 186.463 371.334,187.665 371.499,189.150 371.638 C 189.395 371.661,190.111 371.763,190.740 371.864 C 193.708 372.341,195.306 372.574,196.151 372.655 C 196.657 372.704,197.297 372.774,197.573 372.811 C 197.849 372.848,198.377 372.918,198.745 372.966 C 199.113 373.013,199.678 373.105,200.000 373.170 C 200.322 373.235,200.699 373.294,200.837 373.303 C 201.125 373.320,202.767 373.563,203.264 373.662 C 203.448 373.699,203.975 373.772,204.435 373.825 C 204.895 373.878,205.303 373.952,205.340 373.989 C 205.378 374.026,205.524 373.962,205.665 373.848 C 205.870 373.682,205.897 373.682,205.796 373.849 C 205.710 373.993,205.804 374.065,206.099 374.079 C 206.334 374.091,206.584 374.114,206.653 374.131 C 206.877 374.187,208.437 374.410,209.038 374.473 C 209.360 374.507,209.888 374.580,210.210 374.635 C 210.533 374.690,211.060 374.764,211.382 374.797 C 211.703 374.831,212.402 374.947,212.935 375.054 C 213.467 375.161,214.032 375.236,214.190 375.220 C 214.348 375.205,214.515 375.206,214.561 375.224 C 214.687 375.272,215.230 375.364,216.067 375.480 C 216.481 375.537,216.961 375.625,217.134 375.676 C 217.366 375.744,217.412 375.709,217.311 375.541 C 217.200 375.357,217.223 375.353,217.427 375.518 C 217.566 375.631,218.089 375.770,218.589 375.827 C 219.089 375.884,219.799 375.991,220.167 376.064 C 220.536 376.137,220.950 376.198,221.088 376.200 C 221.226 376.201,221.904 376.284,222.594 376.384 C 224.491 376.658,225.124 376.744,225.858 376.827 C 226.226 376.869,226.715 376.941,226.946 376.987 C 227.176 377.034,227.665 377.114,228.033 377.165 C 228.652 377.251,231.949 377.721,232.720 377.833 C 232.904 377.860,233.318 377.919,233.640 377.965 C 233.962 378.010,234.715 378.125,235.314 378.220 C 235.912 378.314,236.816 378.434,237.322 378.486 C 237.828 378.537,238.431 378.618,238.661 378.664 C 238.891 378.710,239.517 378.783,240.052 378.826 C 240.586 378.869,241.083 378.941,241.156 378.986 C 241.229 379.031,241.620 379.102,242.025 379.144 C 243.490 379.295,244.624 379.452,245.744 379.659 C 246.372 379.775,247.182 379.861,247.544 379.851 C 247.905 379.841,248.201 379.880,248.201 379.939 C 248.201 380.092,251.799 380.611,253.096 380.645 C 253.441 380.654,253.724 380.712,253.724 380.774 C 253.724 380.835,253.893 380.883,254.100 380.881 C 254.308 380.879,254.891 380.957,255.397 381.055 C 255.904 381.153,256.808 381.285,257.406 381.350 C 258.004 381.414,258.682 381.492,258.912 381.522 C 259.142 381.553,259.632 381.617,260.000 381.666 C 260.368 381.714,260.933 381.801,261.255 381.859 C 261.577 381.918,262.180 381.992,262.594 382.025 C 263.008 382.058,263.649 382.156,264.017 382.244 C 264.385 382.332,265.151 382.449,265.720 382.506 C 266.288 382.562,266.928 382.644,267.142 382.688 C 267.356 382.731,267.795 382.804,268.117 382.850 C 268.439 382.895,268.929 382.968,269.205 383.012 C 270.970 383.292,271.771 383.385,272.176 383.359 C 272.429 383.342,272.636 383.393,272.636 383.473 C 272.636 383.553,272.703 383.577,272.784 383.527 C 272.865 383.476,273.374 383.518,273.914 383.618 C 275.030 383.826,275.213 383.854,276.485 384.006 C 277.364 384.111,279.043 384.358,280.053 384.531 C 280.313 384.575,280.840 384.649,281.225 384.694 C 282.020 384.789,282.702 384.887,283.431 385.012 C 283.707 385.059,284.197 385.132,284.519 385.174 C 284.841 385.216,285.481 385.302,285.941 385.365 C 286.402 385.428,286.967 385.503,287.197 385.530 C 287.427 385.558,287.841 385.630,288.117 385.690 C 288.393 385.750,288.930 385.821,289.309 385.847 C 289.688 385.873,290.065 385.932,290.146 385.978 C 290.227 386.024,290.556 386.071,290.879 386.083 C 291.201 386.094,291.653 386.141,291.883 386.187 C 292.113 386.233,292.490 386.309,292.720 386.355 C 293.250 386.462,294.878 386.637,295.299 386.632 C 295.474 386.629,295.752 386.699,295.916 386.787 C 296.109 386.890,296.251 386.887,296.318 386.778 C 296.383 386.674,296.529 386.667,296.705 386.761 C 296.860 386.845,297.044 386.920,297.113 386.929 C 297.182 386.938,297.257 386.952,297.280 386.959 C 297.303 386.967,297.510 386.997,297.741 387.027 C 297.971 387.057,298.498 387.134,298.912 387.198 C 299.326 387.261,299.967 387.337,300.335 387.367 C 300.703 387.397,301.023 387.436,301.046 387.455 C 301.106 387.504,301.246 387.533,302.092 387.668 C 303.472 387.889,304.179 387.979,304.770 388.011 C 305.092 388.028,305.431 388.086,305.523 388.140 C 305.615 388.194,306.007 388.224,306.394 388.207 C 306.780 388.190,307.058 388.238,307.011 388.314 C 306.964 388.390,307.250 388.463,307.647 388.477 C 308.044 388.491,308.444 388.517,308.536 388.534 C 308.628 388.551,308.967 388.615,309.289 388.675 C 309.973 388.805,311.515 388.987,312.176 389.017 C 312.429 389.028,312.636 389.085,312.636 389.144 C 312.636 389.202,312.956 389.249,313.347 389.249 C 313.738 389.249,314.182 389.301,314.333 389.363 C 314.483 389.426,314.973 389.504,315.420 389.536 C 315.868 389.568,316.234 389.609,316.234 389.628 C 316.234 389.647,316.611 389.689,317.071 389.721 C 318.077 389.792,318.344 389.843,318.619 390.015 C 318.739 390.089,318.828 390.067,318.828 389.962 C 318.828 389.831,318.923 389.830,319.161 389.957 C 319.345 390.055,319.815 390.167,320.207 390.206 C 320.600 390.245,321.352 390.351,321.880 390.443 C 322.408 390.534,322.992 390.580,323.178 390.544 C 323.363 390.509,323.515 390.559,323.515 390.656 C 323.515 390.758,323.756 390.803,324.089 390.765 C 324.404 390.728,324.626 390.757,324.581 390.830 C 324.536 390.903,324.748 390.972,325.053 390.984 C 325.657 391.007,325.862 391.029,327.113 391.200 C 328.190 391.348,328.956 391.466,329.791 391.611 C 330.159 391.675,330.705 391.725,331.004 391.722 C 331.303 391.718,331.548 391.753,331.548 391.799 C 331.549 391.896,332.300 391.987,333.414 392.024 C 333.843 392.038,334.165 392.096,334.130 392.153 C 334.095 392.209,334.498 392.301,335.025 392.356 C 336.051 392.463,336.872 392.565,338.075 392.735 C 338.490 392.793,339.108 392.844,339.450 392.847 C 339.792 392.851,340.039 392.908,339.997 392.975 C 339.920 393.100,340.263 393.144,341.621 393.183 C 342.052 393.196,342.362 393.275,342.310 393.359 C 342.256 393.446,342.510 393.484,342.893 393.448 C 343.265 393.412,343.537 393.436,343.497 393.501 C 343.457 393.567,343.557 393.616,343.720 393.611 C 343.883 393.606,344.393 393.658,344.854 393.726 C 345.314 393.795,345.973 393.860,346.318 393.871 C 346.663 393.882,346.945 393.937,346.945 393.993 C 346.946 394.049,347.247 394.078,347.615 394.057 C 347.983 394.036,348.285 394.068,348.285 394.129 C 348.285 394.189,348.548 394.229,348.870 394.219 C 349.192 394.208,349.456 394.246,349.456 394.302 C 349.456 394.359,349.588 394.411,349.749 394.419 C 349.910 394.426,350.475 394.506,351.004 394.596 C 351.625 394.703,351.967 394.703,351.967 394.599 C 351.967 394.508,352.070 394.522,352.200 394.630 C 352.328 394.736,352.498 394.812,352.577 394.798 C 352.655 394.784,352.757 394.787,352.803 394.805 C 353.111 394.925,353.685 395.000,354.518 395.029 C 355.048 395.048,355.481 395.107,355.481 395.161 C 355.481 395.214,355.813 395.252,356.218 395.244 C 356.624 395.236,356.917 395.293,356.870 395.369 C 356.822 395.446,356.924 395.485,357.095 395.457 C 357.266 395.429,357.512 395.472,357.641 395.553 C 357.809 395.658,357.839 395.640,357.746 395.490 C 357.646 395.329,357.692 395.321,357.944 395.456 C 358.125 395.552,358.447 395.586,358.660 395.530 C 358.916 395.463,359.010 395.490,358.936 395.609 C 358.863 395.728,359.013 395.774,359.370 395.743 C 359.671 395.717,360.037 395.757,360.185 395.832 C 360.332 395.907,360.897 396.006,361.440 396.051 C 361.983 396.097,362.427 396.143,362.427 396.154 C 362.427 396.202,363.818 396.351,364.463 396.372 C 364.847 396.385,365.120 396.460,365.071 396.540 C 365.021 396.620,365.254 396.649,365.588 396.604 C 365.922 396.559,366.233 396.582,366.278 396.656 C 366.324 396.730,366.549 396.770,366.779 396.745 C 367.009 396.719,367.197 396.769,367.197 396.856 C 367.197 396.942,367.404 396.991,367.657 396.964 C 367.910 396.938,368.211 396.974,368.326 397.045 C 368.453 397.123,368.537 397.088,368.538 396.955 C 368.540 396.800,368.576 396.792,368.664 396.928 C 368.731 397.033,368.994 397.096,369.248 397.068 C 369.542 397.035,369.669 397.081,369.598 397.196 C 369.524 397.316,369.687 397.342,370.100 397.275 C 370.436 397.221,370.711 397.239,370.711 397.316 C 370.711 397.392,370.981 397.442,371.311 397.427 C 371.641 397.411,371.938 397.444,371.973 397.500 C 372.007 397.555,372.302 397.592,372.628 397.581 C 372.955 397.570,373.222 397.620,373.222 397.692 C 373.222 397.764,373.522 397.794,373.890 397.758 C 374.257 397.723,374.517 397.760,374.466 397.841 C 374.416 397.923,374.549 397.980,374.761 397.968 C 374.973 397.956,375.291 398.007,375.467 398.081 C 375.693 398.176,375.752 398.159,375.666 398.021 C 375.579 397.879,375.652 397.865,375.932 397.968 C 376.144 398.047,376.412 398.078,376.527 398.037 C 376.642 397.997,376.736 398.051,376.736 398.158 C 376.736 398.288,376.905 398.316,377.238 398.243 C 377.554 398.173,377.741 398.199,377.741 398.313 C 377.741 398.412,377.820 398.494,377.918 398.494 C 378.015 398.494,378.039 398.400,377.969 398.285 C 377.883 398.140,377.931 398.146,378.125 398.303 C 378.279 398.429,378.520 398.487,378.659 398.434 C 378.798 398.381,378.912 398.420,378.912 398.521 C 378.912 398.638,379.126 398.670,379.498 398.610 C 379.820 398.558,380.084 398.568,380.084 398.634 C 380.084 398.699,380.366 398.764,380.711 398.778 C 381.056 398.792,381.603 398.853,381.925 398.913 C 382.247 398.973,382.678 399.017,382.882 399.011 C 383.087 399.005,383.449 399.074,383.687 399.165 C 383.973 399.274,384.085 399.273,384.017 399.163 C 383.951 399.056,384.052 399.048,384.300 399.141 C 384.512 399.220,384.860 399.257,385.073 399.224 C 385.286 399.190,385.421 399.225,385.374 399.301 C 385.326 399.378,385.553 399.432,385.878 399.421 C 386.202 399.410,386.502 399.457,386.545 399.526 C 386.587 399.595,386.715 399.615,386.829 399.571 C 386.944 399.527,387.393 399.598,387.828 399.729 C 388.306 399.873,388.575 399.897,388.509 399.790 C 388.445 399.686,388.480 399.663,388.596 399.735 C 388.878 399.909,389.621 400.052,390.251 400.053 C 390.550 400.053,390.795 400.117,390.795 400.194 C 390.795 400.272,390.875 400.335,390.972 400.335 C 391.070 400.335,391.093 400.241,391.024 400.126 C 390.926 399.962,390.955 399.963,391.160 400.128 C 391.304 400.245,391.545 400.293,391.696 400.235 C 391.847 400.177,392.075 400.216,392.202 400.322 C 392.329 400.427,392.667 400.472,392.953 400.422 C 393.240 400.371,393.473 400.403,393.473 400.492 C 393.473 400.581,393.736 400.620,394.059 400.579 C 394.398 400.536,394.644 400.577,394.644 400.677 C 394.644 400.782,394.924 400.816,395.356 400.765 C 395.873 400.703,395.998 400.726,395.816 400.851 C 395.632 400.977,395.772 401.009,396.344 400.971 C 396.773 400.943,397.081 400.988,397.030 401.070 C 396.979 401.153,397.137 401.182,397.381 401.135 C 397.625 401.089,397.824 401.108,397.824 401.178 C 397.824 401.248,398.163 401.294,398.578 401.280 C 398.992 401.267,399.354 401.325,399.383 401.411 C 399.411 401.496,399.562 401.518,399.717 401.458 C 399.982 401.356,400.000 395.400,400.000 306.567 L 400.000 211.785 371.004 211.724 C 323.562 211.624,315.592 211.622,311.438 211.713 C 309.261 211.760,307.502 211.762,307.531 211.715 C 307.559 211.669,294.241 211.614,277.934 211.592 C 261.627 211.570,242.824 211.513,236.151 211.466 C 229.477 211.419,222.153 211.437,219.874 211.506 C 217.596 211.575,215.732 211.572,215.732 211.500 C 215.732 211.427,208.316 211.390,199.252 211.416 L 182.773 211.464 182.799 233.305 " stroke="none" fill="#04acec" fill-rule="evenodd"></path><path id="path1" d="M398.075 0.167 C 397.620 0.283,397.612 0.296,397.992 0.303 C 398.222 0.308,398.561 0.246,398.745 0.167 C 399.157 -0.010,398.772 -0.010,398.075 0.167 M395.397 0.502 L 394.895 0.630 395.481 0.647 C 395.803 0.657,396.180 0.591,396.318 0.502 C 396.627 0.302,396.182 0.302,395.397 0.502 M391.757 0.959 C 391.412 0.995,391.130 1.085,391.130 1.159 C 391.130 1.233,391.449 1.236,391.840 1.164 C 392.230 1.093,392.601 1.066,392.665 1.106 C 392.728 1.145,392.828 1.100,392.885 1.007 C 392.943 0.913,392.855 0.849,392.688 0.865 C 392.521 0.880,392.103 0.923,391.757 0.959 M389.881 1.329 C 389.827 1.415,389.936 1.475,390.122 1.461 C 390.308 1.447,390.460 1.376,390.460 1.303 C 390.460 1.118,389.998 1.139,389.881 1.329 M386.192 1.844 C 385.925 1.957,385.982 1.987,386.475 1.997 C 386.815 2.003,387.130 1.949,387.175 1.877 C 387.287 1.695,386.601 1.672,386.192 1.844 M383.598 2.176 L 382.845 2.293 383.515 2.306 C 383.883 2.314,384.335 2.255,384.519 2.176 C 384.907 2.009,384.670 2.009,383.598 2.176 M381.967 2.458 C 382.128 2.501,382.391 2.501,382.552 2.458 C 382.713 2.416,382.582 2.382,382.259 2.382 C 381.937 2.382,381.805 2.416,381.967 2.458 M365.565 4.804 C 365.358 4.844,365.188 4.940,365.188 5.017 C 365.188 5.190,365.829 5.036,365.954 4.833 C 366.004 4.752,366.022 4.696,365.993 4.709 C 365.965 4.722,365.772 4.764,365.565 4.804 M342.866 8.167 C 342.820 8.241,342.967 8.301,343.191 8.301 C 343.415 8.301,343.598 8.241,343.598 8.167 C 343.598 8.094,343.452 8.033,343.273 8.033 C 343.095 8.033,342.911 8.094,342.866 8.167 M340.502 8.536 C 340.380 8.734,340.544 8.734,341.004 8.536 C 341.327 8.397,341.326 8.391,340.972 8.380 C 340.771 8.373,340.559 8.444,340.502 8.536 M116.399 40.841 C 116.330 40.953,116.487 40.979,116.844 40.916 C 117.581 40.787,117.666 40.669,117.025 40.669 C 116.739 40.669,116.457 40.747,116.399 40.841 M114.812 41.004 C 114.438 41.124,114.461 41.140,115.021 41.155 C 115.366 41.164,115.649 41.096,115.649 41.004 C 115.649 40.813,115.410 40.813,114.812 41.004 M112.218 41.295 C 111.849 41.331,111.473 41.439,111.381 41.535 C 111.266 41.655,111.371 41.678,111.715 41.609 C 111.992 41.554,112.551 41.470,112.959 41.422 C 114.526 41.237,113.891 41.128,112.218 41.295 M105.411 42.381 C 105.517 42.488,105.676 42.488,105.867 42.381 C 106.114 42.243,106.089 42.218,105.703 42.218 C 105.406 42.218,105.304 42.275,105.411 42.381 M64.519 47.875 C 64.261 47.981,64.309 48.002,64.729 47.967 C 65.028 47.941,65.307 47.886,65.349 47.845 C 65.484 47.710,64.864 47.732,64.519 47.875 M60.921 48.368 C 60.601 48.575,60.945 48.575,61.590 48.368 L 62.008 48.234 61.590 48.220 C 61.360 48.212,61.059 48.279,60.921 48.368 M7.148 55.772 C 7.033 55.849,7.153 55.872,7.426 55.827 C 7.691 55.783,7.944 55.710,7.989 55.665 C 8.124 55.530,7.367 55.626,7.148 55.772 M163.589 111.297 C 163.589 114.197,163.612 115.383,163.640 113.933 C 163.668 112.483,163.668 110.111,163.640 108.661 C 163.612 107.211,163.589 108.397,163.589 111.297 M163.560 130.209 C 163.560 130.623,163.593 130.793,163.633 130.586 C 163.673 130.379,163.673 130.040,163.633 129.833 C 163.593 129.626,163.560 129.795,163.560 130.209 M163.581 137.573 C 163.581 138.908,163.607 139.454,163.639 138.787 C 163.671 138.119,163.671 137.027,163.639 136.360 C 163.607 135.692,163.581 136.238,163.581 137.573 M163.560 150.795 C 163.560 151.209,163.593 151.379,163.633 151.172 C 163.673 150.964,163.673 150.626,163.633 150.418 C 163.593 150.211,163.560 150.381,163.560 150.795 M163.557 153.724 C 163.559 154.092,163.593 154.223,163.633 154.015 C 163.673 153.807,163.672 153.505,163.630 153.345 C 163.588 153.185,163.555 153.356,163.557 153.724 M163.560 155.146 C 163.560 155.561,163.593 155.730,163.633 155.523 C 163.673 155.316,163.673 154.977,163.633 154.770 C 163.593 154.563,163.560 154.732,163.560 155.146 M163.563 158.075 C 163.564 158.536,163.596 158.704,163.635 158.450 C 163.673 158.195,163.672 157.819,163.632 157.613 C 163.593 157.407,163.561 157.615,163.563 158.075 M0.042 159.079 C 0.044 159.448,0.078 159.579,0.118 159.370 C 0.158 159.162,0.157 158.861,0.115 158.701 C 0.073 158.541,0.040 158.711,0.042 159.079 M163.563 162.427 C 163.564 162.887,163.596 163.055,163.635 162.801 C 163.673 162.547,163.672 162.170,163.632 161.964 C 163.593 161.758,163.561 161.967,163.563 162.427 M0.052 177.824 C 0.053 178.377,0.084 178.582,0.121 178.282 C 0.159 177.981,0.158 177.529,0.120 177.277 C 0.081 177.026,0.051 177.272,0.052 177.824 M163.557 178.494 C 163.559 178.862,163.593 178.993,163.633 178.785 C 163.673 178.576,163.672 178.275,163.630 178.115 C 163.588 177.955,163.555 178.126,163.557 178.494 M163.560 179.916 C 163.560 180.331,163.593 180.500,163.633 180.293 C 163.673 180.086,163.673 179.747,163.633 179.540 C 163.593 179.333,163.560 179.502,163.560 179.916 M163.560 184.268 C 163.560 184.682,163.593 184.851,163.633 184.644 C 163.673 184.437,163.673 184.098,163.633 183.891 C 163.593 183.684,163.560 183.854,163.560 184.268 M0.042 187.029 C 0.044 187.397,0.078 187.528,0.118 187.320 C 0.158 187.112,0.157 186.811,0.115 186.651 C 0.073 186.491,0.040 186.661,0.042 187.029 M389.121 190.496 C 389.121 190.562,389.769 190.614,390.561 190.611 C 391.352 190.608,391.968 190.573,391.928 190.534 C 391.802 190.407,389.121 190.372,389.121 190.496 M365.858 190.641 C 365.277 190.715,365.420 190.742,366.485 190.756 C 367.245 190.766,367.866 190.749,367.866 190.719 C 367.866 190.599,366.573 190.549,365.858 190.641 M379.709 190.579 C 379.917 190.619,380.219 190.617,380.379 190.575 C 380.539 190.533,380.368 190.501,380.000 190.502 C 379.632 190.504,379.501 190.539,379.709 190.579 M383.642 190.580 C 383.897 190.619,384.273 190.618,384.479 190.578 C 384.685 190.538,384.477 190.507,384.017 190.508 C 383.556 190.509,383.388 190.542,383.642 190.580 M385.314 190.576 C 385.475 190.618,385.738 190.618,385.900 190.576 C 386.061 190.534,385.929 190.499,385.607 190.499 C 385.285 190.499,385.153 190.534,385.314 190.576 M388.159 190.576 C 388.320 190.618,388.584 190.618,388.745 190.576 C 388.906 190.534,388.774 190.499,388.452 190.499 C 388.130 190.499,387.998 190.534,388.159 190.576 M362.803 190.746 C 363.010 190.786,363.349 190.786,363.556 190.746 C 363.764 190.706,363.594 190.673,363.180 190.673 C 362.766 190.673,362.596 190.706,362.803 190.746 M368.328 190.746 C 368.536 190.786,368.838 190.784,368.998 190.743 C 369.158 190.701,368.987 190.668,368.619 190.670 C 368.251 190.672,368.120 190.706,368.328 190.746 M369.665 190.746 C 369.872 190.786,370.211 190.786,370.418 190.746 C 370.626 190.706,370.456 190.673,370.042 190.673 C 369.628 190.673,369.458 190.706,369.665 190.746 M340.711 190.918 C 341.103 190.953,341.743 190.953,342.134 190.918 C 342.525 190.882,342.205 190.853,341.423 190.853 C 340.640 190.853,340.320 190.882,340.711 190.918 M343.305 190.910 C 343.467 190.952,343.730 190.952,343.891 190.910 C 344.052 190.868,343.921 190.834,343.598 190.834 C 343.276 190.834,343.144 190.868,343.305 190.910 M345.900 190.913 C 346.107 190.953,346.446 190.953,346.653 190.913 C 346.860 190.873,346.690 190.841,346.276 190.841 C 345.862 190.841,345.692 190.873,345.900 190.913 M347.490 190.910 C 347.651 190.952,347.914 190.952,348.075 190.910 C 348.236 190.868,348.105 190.834,347.782 190.834 C 347.460 190.834,347.328 190.868,347.490 190.910 M348.912 190.913 C 349.119 190.953,349.458 190.953,349.665 190.913 C 349.872 190.873,349.703 190.841,349.289 190.841 C 348.874 190.841,348.705 190.873,348.912 190.913 M298.223 191.177 C 298.295 191.249,299.252 191.287,300.349 191.260 L 302.343 191.212 300.217 191.129 C 299.048 191.083,298.150 191.105,298.223 191.177 M319.458 191.081 C 319.666 191.121,319.967 191.119,320.127 191.077 C 320.287 191.035,320.117 191.003,319.749 191.005 C 319.381 191.006,319.250 191.041,319.458 191.081 M323.556 191.078 C 323.718 191.120,323.981 191.120,324.142 191.078 C 324.303 191.036,324.172 191.001,323.849 191.001 C 323.527 191.001,323.395 191.036,323.556 191.078 M324.981 191.081 C 325.189 191.121,325.490 191.119,325.650 191.077 C 325.811 191.035,325.640 191.003,325.272 191.005 C 324.904 191.006,324.773 191.041,324.981 191.081 M326.402 191.078 C 326.563 191.120,326.826 191.120,326.987 191.078 C 327.149 191.036,327.017 191.001,326.695 191.001 C 326.372 191.001,326.241 191.036,326.402 191.078 M327.824 191.080 C 328.031 191.120,328.370 191.120,328.577 191.080 C 328.785 191.041,328.615 191.008,328.201 191.008 C 327.787 191.008,327.617 191.041,327.824 191.080 M279.665 191.331 C 279.665 191.404,280.023 191.458,280.460 191.451 C 281.335 191.437,281.265 191.355,280.293 191.259 C 279.948 191.225,279.665 191.257,279.665 191.331 M283.264 191.297 L 282.594 191.417 283.212 191.441 C 283.552 191.454,283.876 191.389,283.933 191.297 C 283.990 191.205,284.013 191.140,283.985 191.153 C 283.956 191.167,283.632 191.231,283.264 191.297 M302.636 191.245 C 302.797 191.287,303.061 191.287,303.222 191.245 C 303.383 191.203,303.251 191.169,302.929 191.169 C 302.607 191.169,302.475 191.203,302.636 191.245 M304.061 191.248 C 304.269 191.288,304.570 191.287,304.730 191.245 C 304.890 191.203,304.720 191.170,304.351 191.172 C 303.983 191.174,303.852 191.208,304.061 191.248 M305.481 191.245 C 305.642 191.287,305.906 191.287,306.067 191.245 C 306.228 191.203,306.096 191.169,305.774 191.169 C 305.452 191.169,305.320 191.203,305.481 191.245 M306.904 191.248 C 307.111 191.288,307.450 191.288,307.657 191.248 C 307.864 191.208,307.695 191.175,307.280 191.175 C 306.866 191.175,306.697 191.208,306.904 191.248 M264.588 191.517 C 264.664 191.593,265.018 191.629,265.375 191.598 L 266.025 191.541 265.238 191.460 C 264.805 191.416,264.513 191.441,264.588 191.517 M277.531 191.412 C 277.692 191.455,277.956 191.455,278.117 191.412 C 278.278 191.370,278.146 191.336,277.824 191.336 C 277.502 191.336,277.370 191.370,277.531 191.412 M281.634 191.415 C 281.842 191.455,282.143 191.454,282.303 191.412 C 282.463 191.370,282.293 191.337,281.925 191.339 C 281.556 191.341,281.426 191.375,281.634 191.415 M285.732 191.412 C 285.893 191.455,286.157 191.455,286.318 191.412 C 286.479 191.370,286.347 191.336,286.025 191.336 C 285.703 191.336,285.571 191.370,285.732 191.412 M234.979 191.669 C 234.979 191.741,235.280 191.799,235.649 191.799 C 236.017 191.799,236.318 191.769,236.318 191.733 C 236.318 191.697,236.017 191.638,235.649 191.603 C 235.280 191.568,234.979 191.598,234.979 191.669 M256.362 191.583 C 256.570 191.623,256.871 191.621,257.031 191.579 C 257.191 191.538,257.021 191.505,256.653 191.507 C 256.285 191.508,256.154 191.543,256.362 191.583 M260.628 191.580 C 260.789 191.622,261.052 191.622,261.213 191.580 C 261.374 191.538,261.243 191.503,260.921 191.503 C 260.598 191.503,260.467 191.538,260.628 191.580 M261.885 191.583 C 262.093 191.623,262.394 191.621,262.554 191.579 C 262.714 191.538,262.544 191.505,262.176 191.507 C 261.808 191.508,261.677 191.543,261.885 191.583 M223.096 191.799 L 222.510 191.922 223.138 191.944 C 223.483 191.957,223.766 191.891,223.766 191.799 C 223.766 191.707,223.747 191.642,223.724 191.654 C 223.701 191.666,223.418 191.731,223.096 191.799 M237.113 191.754 C 237.504 191.790,238.144 191.790,238.536 191.754 C 238.927 191.719,238.607 191.690,237.824 191.690 C 237.042 191.690,236.722 191.719,237.113 191.754 M240.962 191.750 C 241.169 191.790,241.508 191.790,241.715 191.750 C 241.923 191.710,241.753 191.677,241.339 191.677 C 240.925 191.677,240.755 191.710,240.962 191.750 M243.724 191.747 C 243.885 191.789,244.149 191.789,244.310 191.747 C 244.471 191.705,244.339 191.671,244.017 191.671 C 243.695 191.671,243.563 191.705,243.724 191.747 M194.477 191.967 L 193.724 192.084 194.519 192.109 C 194.956 192.123,195.314 192.059,195.314 191.967 C 195.314 191.874,195.295 191.810,195.272 191.824 C 195.249 191.838,194.891 191.902,194.477 191.967 M214.353 191.918 C 214.562 191.958,214.863 191.956,215.023 191.914 C 215.183 191.872,215.013 191.840,214.644 191.841 C 214.276 191.843,214.145 191.878,214.353 191.918 M216.948 191.919 C 217.202 191.958,217.579 191.957,217.785 191.917 C 217.991 191.877,217.782 191.846,217.322 191.847 C 216.862 191.848,216.694 191.881,216.948 191.919 M219.874 191.917 C 220.082 191.957,220.421 191.957,220.628 191.917 C 220.835 191.877,220.665 191.845,220.251 191.845 C 219.837 191.845,219.667 191.877,219.874 191.917 M188.412 192.085 C 188.620 192.125,188.921 192.123,189.081 192.082 C 189.241 192.040,189.071 192.007,188.703 192.009 C 188.335 192.011,188.204 192.045,188.412 192.085 M198.624 192.089 C 199.017 192.125,199.620 192.124,199.963 192.088 C 200.305 192.052,199.983 192.023,199.247 192.024 C 198.510 192.025,198.230 192.054,198.624 192.089 M142.678 192.469 L 141.674 192.580 142.626 192.608 C 143.150 192.623,143.625 192.561,143.682 192.469 C 143.739 192.377,143.762 192.314,143.734 192.329 C 143.705 192.345,143.230 192.408,142.678 192.469 M144.686 192.469 L 143.849 192.583 144.634 192.610 C 145.066 192.624,145.466 192.561,145.523 192.469 C 145.580 192.377,145.603 192.313,145.575 192.328 C 145.546 192.342,145.146 192.405,144.686 192.469 M160.628 192.422 C 160.927 192.459,161.416 192.459,161.715 192.422 C 162.015 192.385,161.770 192.355,161.172 192.355 C 160.573 192.355,160.328 192.385,160.628 192.422 M123.096 192.636 L 122.092 192.747 123.045 192.775 C 123.568 192.791,124.044 192.728,124.100 192.636 C 124.157 192.544,124.181 192.481,124.152 192.497 C 124.124 192.512,123.649 192.575,123.096 192.636 M148.246 192.590 C 148.546 192.627,148.998 192.626,149.250 192.588 C 149.501 192.550,149.255 192.520,148.703 192.520 C 148.151 192.521,147.945 192.553,148.246 192.590 M150.167 192.588 C 150.421 192.627,150.835 192.627,151.088 192.588 C 151.341 192.550,151.134 192.519,150.628 192.519 C 150.121 192.519,149.914 192.550,150.167 192.588 M86.025 192.808 L 85.105 192.926 86.144 192.921 C 86.715 192.919,87.144 192.853,87.096 192.776 C 87.049 192.699,86.995 192.648,86.978 192.663 C 86.960 192.678,86.531 192.744,86.025 192.808 M111.174 192.756 C 111.428 192.795,111.805 192.794,112.011 192.754 C 112.217 192.714,112.008 192.683,111.548 192.684 C 111.088 192.685,110.919 192.718,111.174 192.756 M112.929 192.757 C 113.228 192.794,113.718 192.794,114.017 192.757 C 114.316 192.720,114.071 192.690,113.473 192.690 C 112.874 192.690,112.630 192.720,112.929 192.757 M115.021 192.756 C 115.274 192.794,115.688 192.794,115.941 192.756 C 116.195 192.718,115.987 192.686,115.481 192.686 C 114.975 192.686,114.768 192.718,115.021 192.756 M118.787 192.757 C 119.086 192.794,119.575 192.794,119.874 192.757 C 120.174 192.720,119.929 192.690,119.331 192.690 C 118.732 192.690,118.487 192.720,118.787 192.757 M55.816 192.971 L 53.975 193.072 55.764 193.105 C 56.814 193.124,57.596 193.069,57.657 192.971 C 57.714 192.879,57.737 192.818,57.709 192.836 C 57.680 192.855,56.828 192.915,55.816 192.971 M83.726 192.923 C 83.981 192.962,84.357 192.961,84.563 192.921 C 84.769 192.881,84.561 192.850,84.100 192.851 C 83.640 192.852,83.472 192.885,83.726 192.923 M89.584 192.923 C 89.838 192.962,90.215 192.961,90.421 192.921 C 90.627 192.881,90.418 192.850,89.958 192.851 C 89.498 192.852,89.329 192.885,89.584 192.923 M93.431 192.923 C 93.684 192.962,94.098 192.962,94.351 192.923 C 94.605 192.885,94.397 192.854,93.891 192.854 C 93.385 192.854,93.178 192.885,93.431 192.923 M22.505 193.147 C 22.470 193.204,22.908 193.257,23.480 193.264 C 24.587 193.278,24.490 193.193,23.293 193.099 C 22.895 193.069,22.540 193.090,22.505 193.147 M34.393 193.138 L 32.552 193.239 34.435 193.272 C 35.601 193.293,36.318 193.242,36.318 193.138 C 36.318 193.046,36.299 192.986,36.276 193.004 C 36.253 193.022,35.406 193.082,34.393 193.138 M52.427 193.091 C 52.680 193.129,53.094 193.129,53.347 193.091 C 53.600 193.052,53.393 193.021,52.887 193.021 C 52.381 193.021,52.174 193.052,52.427 193.091 M60.377 193.092 C 60.676 193.129,61.165 193.129,61.464 193.092 C 61.764 193.055,61.519 193.024,60.921 193.024 C 60.322 193.024,60.077 193.055,60.377 193.092 M64.229 193.092 C 64.530 193.129,64.982 193.128,65.233 193.090 C 65.485 193.052,65.238 193.022,64.686 193.023 C 64.134 193.024,63.928 193.055,64.229 193.092 M0.000 193.346 C 0.000 193.416,0.471 193.464,1.046 193.453 C 2.177 193.432,2.067 193.352,0.795 193.271 C 0.358 193.242,0.000 193.276,0.000 193.346 M15.359 193.259 C 15.659 193.297,16.111 193.296,16.363 193.258 C 16.614 193.219,16.368 193.189,15.816 193.190 C 15.264 193.191,15.058 193.222,15.359 193.259 M25.066 193.259 C 25.367 193.297,25.818 193.296,26.070 193.258 C 26.321 193.219,26.075 193.189,25.523 193.190 C 24.971 193.191,24.765 193.222,25.066 193.259 M31.091 193.259 C 31.392 193.297,31.844 193.296,32.095 193.258 C 32.347 193.219,32.100 193.189,31.548 193.190 C 30.996 193.191,30.790 193.222,31.091 193.259 M2.552 193.425 C 2.805 193.464,3.220 193.464,3.473 193.425 C 3.726 193.387,3.519 193.356,3.013 193.356 C 2.506 193.356,2.299 193.387,2.552 193.425 M4.644 193.427 C 4.944 193.464,5.433 193.464,5.732 193.427 C 6.031 193.389,5.787 193.359,5.188 193.359 C 4.590 193.359,4.345 193.389,4.644 193.427 M5.232 209.325 C 5.487 209.364,5.863 209.363,6.069 209.323 C 6.275 209.283,6.067 209.252,5.607 209.253 C 5.146 209.254,4.978 209.287,5.232 209.325 M8.417 209.309 C 8.533 209.425,13.067 209.416,13.183 209.299 C 13.235 209.247,12.165 209.210,10.805 209.215 C 9.445 209.221,8.371 209.263,8.417 209.309 M13.849 209.323 C 14.056 209.363,14.395 209.363,14.603 209.323 C 14.810 209.283,14.640 209.251,14.226 209.251 C 13.812 209.251,13.642 209.283,13.849 209.323 M33.515 209.492 C 33.768 209.531,34.182 209.531,34.435 209.492 C 34.688 209.454,34.481 209.423,33.975 209.423 C 33.469 209.423,33.262 209.454,33.515 209.492 M35.439 209.490 C 35.646 209.530,35.985 209.530,36.192 209.490 C 36.400 209.451,36.230 209.418,35.816 209.418 C 35.402 209.418,35.232 209.451,35.439 209.490 M37.032 209.492 C 37.286 209.531,37.663 209.530,37.868 209.490 C 38.074 209.450,37.866 209.419,37.406 209.420 C 36.946 209.422,36.777 209.454,37.032 209.492 M38.705 209.492 C 38.960 209.531,39.336 209.530,39.542 209.490 C 39.748 209.450,39.540 209.419,39.079 209.420 C 38.619 209.422,38.451 209.454,38.705 209.492 M40.377 209.492 C 40.630 209.531,41.044 209.531,41.297 209.492 C 41.550 209.454,41.343 209.423,40.837 209.423 C 40.331 209.423,40.123 209.454,40.377 209.492 M59.079 209.707 C 59.079 209.799,59.376 209.874,59.739 209.874 C 60.102 209.874,60.445 209.799,60.502 209.707 C 60.565 209.605,60.309 209.540,59.843 209.540 C 59.423 209.540,59.079 209.615,59.079 209.707 M61.132 209.660 C 61.386 209.698,61.763 209.697,61.969 209.658 C 62.175 209.618,61.967 209.586,61.506 209.588 C 61.046 209.589,60.878 209.621,61.132 209.660 M62.806 209.660 C 63.060 209.698,63.437 209.697,63.642 209.658 C 63.848 209.618,63.640 209.586,63.180 209.588 C 62.720 209.589,62.551 209.621,62.806 209.660 M64.479 209.660 C 64.734 209.698,65.110 209.697,65.316 209.658 C 65.522 209.618,65.314 209.586,64.854 209.588 C 64.393 209.589,64.225 209.621,64.479 209.660 M66.318 209.660 C 66.571 209.698,66.985 209.698,67.238 209.660 C 67.492 209.621,67.285 209.590,66.778 209.590 C 66.272 209.590,66.065 209.621,66.318 209.660 M83.224 209.827 C 83.478 209.866,83.855 209.865,84.061 209.825 C 84.267 209.785,84.059 209.754,83.598 209.755 C 83.138 209.756,82.970 209.789,83.224 209.827 M86.739 209.827 C 86.993 209.866,87.370 209.865,87.576 209.825 C 87.781 209.785,87.573 209.754,87.113 209.755 C 86.653 209.756,86.484 209.789,86.739 209.827 M88.494 209.825 C 88.701 209.865,89.040 209.865,89.247 209.825 C 89.454 209.785,89.285 209.753,88.870 209.753 C 88.456 209.753,88.287 209.785,88.494 209.825 M89.874 209.801 C 90.496 209.936,91.350 209.960,91.275 209.839 C 91.230 209.767,90.840 209.716,90.409 209.727 C 89.977 209.737,89.736 209.771,89.874 209.801 M93.350 209.828 C 93.651 209.866,94.103 209.865,94.354 209.827 C 94.606 209.789,94.360 209.758,93.808 209.759 C 93.255 209.760,93.049 209.791,93.350 209.828 M97.029 209.993 C 97.236 210.032,97.575 210.032,97.782 209.993 C 97.990 209.953,97.820 209.920,97.406 209.920 C 96.992 209.920,96.822 209.953,97.029 209.993 M110.839 209.995 C 111.094 210.033,111.470 210.032,111.676 209.992 C 111.882 209.953,111.674 209.921,111.213 209.922 C 110.753 209.924,110.585 209.956,110.839 209.995 M112.594 209.993 C 112.801 210.032,113.140 210.032,113.347 209.993 C 113.554 209.953,113.385 209.920,112.971 209.920 C 112.556 209.920,112.387 209.953,112.594 209.993 M114.268 209.993 C 114.475 210.032,114.814 210.032,115.021 209.993 C 115.228 209.953,115.059 209.920,114.644 209.920 C 114.230 209.920,114.061 209.953,114.268 209.993 M115.860 209.995 C 116.114 210.033,116.491 210.032,116.697 209.992 C 116.903 209.953,116.695 209.921,116.234 209.922 C 115.774 209.924,115.606 209.956,115.860 209.995 M119.372 209.994 C 119.626 210.033,120.040 210.033,120.293 209.994 C 120.546 209.956,120.339 209.925,119.833 209.925 C 119.326 209.925,119.119 209.956,119.372 209.994 M134.331 210.174 C 134.286 210.247,134.527 210.280,134.865 210.248 C 135.900 210.150,136.022 210.082,135.198 210.061 C 134.766 210.051,134.376 210.101,134.331 210.174 M139.874 210.160 C 140.082 210.200,140.421 210.200,140.628 210.160 C 140.835 210.120,140.665 210.087,140.251 210.087 C 139.837 210.087,139.667 210.120,139.874 210.160 M141.632 210.162 C 141.885 210.200,142.299 210.200,142.552 210.162 C 142.805 210.123,142.598 210.092,142.092 210.092 C 141.586 210.092,141.379 210.123,141.632 210.162 M144.774 210.100 C 144.892 210.216,146.247 210.294,146.351 210.190 C 146.400 210.141,146.047 210.084,145.567 210.062 C 145.087 210.040,144.730 210.057,144.774 210.100 M157.785 210.330 C 158.086 210.368,158.538 210.367,158.790 210.329 C 159.041 210.291,158.795 210.260,158.243 210.261 C 157.690 210.262,157.485 210.293,157.785 210.330 M190.084 211.506 C 191.027 211.535,192.571 211.535,193.515 211.506 C 194.458 211.476,193.686 211.451,191.799 211.451 C 189.912 211.451,189.140 211.476,190.084 211.506 M215.732 211.506 C 215.732 211.575,216.730 211.612,217.949 211.588 C 221.995 211.509,222.383 211.447,219.038 211.414 C 217.220 211.396,215.732 211.437,215.732 211.506 M281.975 211.673 C 282.924 211.703,284.430 211.703,285.323 211.673 C 286.215 211.643,285.439 211.618,283.598 211.618 C 281.757 211.619,281.027 211.643,281.975 211.673 M295.523 211.673 C 296.467 211.703,298.010 211.703,298.954 211.673 C 299.897 211.643,299.126 211.619,297.238 211.619 C 295.351 211.619,294.579 211.643,295.523 211.673 M302.394 211.673 C 303.342 211.703,304.849 211.703,305.741 211.673 C 306.634 211.643,305.858 211.618,304.017 211.618 C 302.176 211.619,301.445 211.643,302.394 211.673 M307.557 211.674 C 307.514 211.743,308.507 211.780,309.765 211.756 C 313.983 211.676,314.418 211.615,311.014 211.581 C 309.155 211.563,307.600 211.605,307.557 211.674 M322.803 211.673 C 323.747 211.703,325.291 211.703,326.234 211.673 C 327.178 211.643,326.406 211.619,324.519 211.619 C 322.632 211.619,321.860 211.643,322.803 211.673 M329.665 211.673 C 330.609 211.703,332.153 211.703,333.096 211.673 C 334.040 211.643,333.268 211.619,331.381 211.619 C 329.494 211.619,328.722 211.643,329.665 211.673 M394.268 211.840 C 395.211 211.870,396.755 211.870,397.699 211.840 C 398.642 211.810,397.870 211.786,395.983 211.786 C 394.096 211.786,393.324 211.810,394.268 211.840 M163.397 231.799 C 163.397 232.305,163.429 232.513,163.467 232.259 C 163.506 232.006,163.506 231.592,163.467 231.339 C 163.429 231.086,163.397 231.293,163.397 231.799 M182.804 239.414 C 182.806 239.782,182.840 239.913,182.880 239.705 C 182.920 239.497,182.918 239.196,182.876 239.036 C 182.835 238.876,182.802 239.046,182.804 239.414 M182.772 256.410 C 182.782 256.953,182.792 256.963,182.945 256.583 C 183.052 256.314,183.048 256.119,182.934 256.005 C 182.816 255.887,182.765 256.014,182.772 256.410 M182.816 262.008 C 182.817 262.653,182.847 262.896,182.884 262.549 C 182.920 262.201,182.919 261.674,182.882 261.377 C 182.845 261.080,182.816 261.364,182.816 262.008 M182.985 349.623 C 182.985 350.314,183.015 350.596,183.051 350.251 C 183.087 349.906,183.087 349.341,183.051 348.996 C 183.015 348.651,182.985 348.933,182.985 349.623 M163.583 352.301 C 163.583 353.912,163.609 354.571,163.639 353.766 C 163.670 352.960,163.670 351.642,163.639 350.837 C 163.609 350.031,163.583 350.690,163.583 352.301 M58.159 353.975 C 58.620 354.173,58.783 354.173,58.661 353.975 C 58.604 353.883,58.393 353.813,58.191 353.819 C 57.837 353.831,57.836 353.836,58.159 353.975 M84.715 357.574 C 84.851 357.710,85.690 357.794,85.690 357.671 C 85.690 357.599,85.457 357.534,85.171 357.526 C 84.885 357.518,84.680 357.539,84.715 357.574 M86.290 357.847 C 86.339 357.926,86.614 357.992,86.900 357.992 C 87.545 357.992,87.435 357.845,86.726 357.763 C 86.437 357.729,86.241 357.767,86.290 357.847 M100.921 359.868 C 100.921 359.941,101.071 360.000,101.255 360.000 C 101.439 360.000,101.590 359.941,101.590 359.868 C 101.590 359.796,101.439 359.737,101.255 359.737 C 101.071 359.737,100.921 359.796,100.921 359.868 M106.921 360.712 C 107.005 360.796,107.253 360.837,107.470 360.803 C 107.805 360.750,107.782 360.727,107.317 360.650 C 106.984 360.594,106.828 360.619,106.921 360.712 M108.201 360.836 C 108.258 360.929,108.463 361.004,108.657 361.004 C 109.081 361.004,108.918 360.794,108.437 360.720 C 108.242 360.691,108.141 360.740,108.201 360.836 M110.562 361.200 C 110.609 361.276,110.806 361.339,111.000 361.339 C 111.194 361.339,111.301 361.287,111.238 361.224 C 111.071 361.057,110.460 361.036,110.562 361.200 M163.571 367.029 C 163.571 367.720,163.600 368.002,163.637 367.657 C 163.673 367.312,163.673 366.747,163.637 366.402 C 163.600 366.056,163.571 366.339,163.571 367.029 M317.474 389.804 C 317.303 389.912,317.364 389.954,317.699 389.956 C 318.199 389.958,318.289 389.876,317.935 389.741 C 317.811 389.693,317.604 389.722,317.474 389.804 M383.774 399.158 C 383.665 399.225,383.806 399.285,384.090 399.294 C 384.372 399.302,384.603 399.284,384.603 399.255 C 384.603 399.125,383.951 399.049,383.774 399.158 M384.770 399.334 C 384.770 399.412,384.997 399.469,385.274 399.461 C 385.861 399.445,385.811 399.307,385.194 399.239 C 384.961 399.214,384.770 399.256,384.770 399.334 M386.946 399.665 C 387.084 399.755,387.385 399.821,387.615 399.813 L 388.033 399.799 387.615 399.665 C 386.970 399.459,386.626 399.459,386.946 399.665 " stroke="none" fill="#04acf4" fill-rule="evenodd"></path></g></svg>