<svg id="svg" version="1.1" xmlns="http://www.w3.org/2000/svg" xmlns:xlink="http://www.w3.org/1999/xlink" width="400" height="450" viewBox="0, 0, 400,450"><g id="svgg"><path id="path0" d="M192.499 92.396 C 154.274 94.080,117.177 113.931,93.561 145.336 C 69.876 176.832,61.443 217.894,70.801 256.148 C 76.065 277.669,86.252 296.948,101.083 313.455 C 148.779 366.546,229.969 372.322,284.724 326.521 C 294.581 318.276,302.919 308.964,310.146 298.129 C 312.069 295.245,314.674 290.994,314.674 290.739 C 314.674 290.576,312.327 289.189,298.922 281.430 C 296.085 279.789,293.216 278.124,292.546 277.731 C 291.875 277.338,288.964 275.651,286.076 273.982 C 283.188 272.314,280.361 270.674,279.794 270.338 C 279.226 270.002,276.231 268.263,273.136 266.475 C 270.042 264.686,265.274 261.923,262.541 260.335 C 259.808 258.746,257.497 257.432,257.407 257.415 C 257.316 257.398,256.768 258.145,256.188 259.076 C 233.295 295.822,183.337 301.859,153.022 271.544 C 123.483 242.005,128.412 192.945,163.245 169.804 C 194.011 149.365,236.408 158.530,255.607 189.772 L 256.760 191.648 257.353 191.344 C 257.680 191.176,259.212 190.304,260.759 189.406 C 263.363 187.894,266.606 186.025,274.262 181.621 C 282.592 176.829,287.674 173.903,290.389 172.336 C 292.039 171.383,295.373 169.463,297.797 168.070 C 312.379 159.684,314.177 158.643,314.338 158.491 C 314.621 158.224,309.107 149.698,305.899 145.442 C 278.949 109.689,237.719 90.403,192.499 92.396 M302.860 209.564 L 302.860 217.159 295.265 217.159 L 287.670 217.159 287.670 224.658 L 287.670 232.157 295.218 232.206 L 302.766 232.255 302.815 239.899 L 302.864 247.543 310.410 247.494 L 317.956 247.445 318.050 239.850 L 318.143 232.255 325.692 232.206 L 333.240 232.157 333.240 224.658 L 333.240 217.159 325.645 217.159 L 318.050 217.159 318.050 209.564 L 318.050 201.969 310.455 201.969 L 302.860 201.969 302.860 209.564 M358.324 209.517 L 358.275 217.065 350.727 217.114 L 343.179 217.163 343.179 224.660 L 343.179 232.157 350.727 232.206 L 358.275 232.255 358.324 239.897 L 358.373 247.539 365.870 247.539 L 373.367 247.539 373.416 239.897 L 373.465 232.255 381.013 232.206 L 388.561 232.157 388.561 224.660 L 388.561 217.163 381.013 217.114 L 373.465 217.065 373.416 209.517 L 373.367 201.969 365.870 201.969 L 358.373 201.969 358.324 209.517 " stroke="none" fill="#ffffff" fill-rule="evenodd"></path><path id="path1" d="M196.156 0.384 C 193.205 0.751,189.232 1.652,187.236 2.406 C 186.417 2.715,185.537 3.027,185.279 3.099 C 184.500 3.316,178.700 6.212,177.514 6.975 C 176.905 7.368,176.321 7.689,176.216 7.689 C 176.112 7.689,175.893 7.807,175.730 7.952 C 175.567 8.096,174.674 8.656,173.746 9.195 C 172.818 9.734,171.594 10.447,171.027 10.779 C 170.459 11.112,168.898 12.017,167.557 12.790 C 166.217 13.563,164.360 14.639,163.432 15.182 C 162.504 15.725,161.406 16.357,160.994 16.587 C 160.581 16.816,159.906 17.207,159.494 17.456 C 159.081 17.705,158.518 18.035,158.242 18.190 C 157.424 18.649,154.344 20.416,152.930 21.236 C 152.208 21.655,151.225 22.217,150.745 22.485 C 149.539 23.159,145.627 25.428,144.491 26.113 C 143.976 26.424,143.090 26.931,142.523 27.239 C 141.956 27.547,141.291 27.958,141.044 28.152 C 140.798 28.346,140.493 28.504,140.367 28.504 C 140.240 28.504,139.844 28.703,139.486 28.946 C 139.128 29.189,138.378 29.643,137.819 29.955 C 137.260 30.268,136.043 30.969,135.115 31.514 C 134.187 32.058,133.047 32.715,132.583 32.974 C 132.119 33.232,130.753 34.020,129.548 34.724 C 128.343 35.429,127.303 36.006,127.238 36.006 C 127.172 36.006,126.766 36.243,126.335 36.533 C 125.904 36.823,124.303 37.772,122.777 38.643 C 119.634 40.436,119.753 40.368,116.943 41.987 C 114.980 43.117,113.195 44.134,111.486 45.096 C 111.074 45.328,109.977 45.963,109.048 46.508 C 106.532 47.985,100.554 51.424,97.890 52.929 C 96.601 53.657,95.034 54.577,94.408 54.974 C 93.782 55.371,93.208 55.696,93.133 55.696 C 93.058 55.696,92.535 55.992,91.970 56.353 C 91.406 56.714,90.902 57.009,90.851 57.009 C 90.800 57.009,90.105 57.393,89.308 57.863 C 88.510 58.333,87.689 58.814,87.482 58.931 C 87.276 59.049,86.390 59.565,85.513 60.077 C 84.637 60.589,83.455 61.258,82.888 61.563 C 82.321 61.867,81.771 62.185,81.667 62.268 C 81.501 62.400,80.390 63.038,74.824 66.195 C 71.927 67.838,66.268 71.090,66.010 71.260 C 65.856 71.362,65.307 71.668,64.791 71.941 C 64.276 72.214,63.501 72.679,63.070 72.974 C 62.639 73.270,62.236 73.511,62.176 73.511 C 62.115 73.511,61.510 73.849,60.831 74.262 C 60.152 74.674,59.533 75.012,59.457 75.012 C 59.380 75.012,58.819 75.333,58.210 75.726 C 57.601 76.119,56.850 76.571,56.540 76.732 C 55.655 77.190,53.231 78.592,52.508 79.063 C 52.147 79.299,51.641 79.582,51.383 79.692 C 51.125 79.802,50.661 80.050,50.352 80.244 C 49.673 80.668,42.856 84.620,41.538 85.355 C 40.666 85.840,39.676 86.410,39.006 86.811 C 38.851 86.904,38.092 87.339,37.318 87.780 C 36.545 88.220,35.314 88.945,34.583 89.391 C 33.853 89.837,33.191 90.202,33.112 90.202 C 33.034 90.202,32.745 90.358,32.472 90.550 C 32.198 90.741,31.553 91.130,31.039 91.414 C 29.914 92.036,25.639 94.504,24.163 95.383 C 23.580 95.731,23.048 96.015,22.981 96.015 C 22.913 96.015,22.361 96.353,21.753 96.765 C 21.146 97.178,20.575 97.515,20.484 97.515 C 20.100 97.515,15.969 100.243,13.783 101.940 C 9.145 105.541,4.655 111.363,2.934 116.009 C 2.785 116.409,2.487 117.179,2.271 117.720 C 1.833 118.816,1.332 120.597,0.597 123.676 L 0.104 125.738 0.044 223.629 C 0.001 295.147,0.041 322.022,0.195 323.386 C 0.424 325.418,1.595 330.278,2.252 331.927 C 2.479 332.494,2.785 333.286,2.934 333.686 C 3.239 334.510,3.715 335.495,4.226 336.355 L 4.572 336.939 5.521 336.378 C 6.043 336.069,8.453 334.677,10.877 333.283 C 15.220 330.787,19.218 328.483,23.816 325.829 C 25.105 325.085,27.890 323.483,30.005 322.269 C 32.119 321.054,35.199 319.283,36.850 318.331 C 41.824 315.464,50.674 310.367,54.759 308.018 C 59.340 305.383,62.921 303.320,69.480 299.536 C 72.161 297.989,76.085 295.728,78.200 294.511 C 80.314 293.294,82.550 292.006,83.169 291.647 C 83.788 291.289,84.389 290.993,84.506 290.989 C 84.622 290.986,84.463 290.554,84.154 290.030 C 69.212 264.714,63.623 230.661,69.394 200.094 C 79.414 147.022,121.046 105.098,174.027 94.727 C 228.699 84.025,284.233 108.511,313.054 156.024 L 314.475 158.368 314.059 158.713 C 313.830 158.902,313.769 158.995,313.924 158.919 C 314.079 158.843,314.332 158.677,314.487 158.552 C 314.641 158.426,316.793 157.158,319.269 155.734 C 321.744 154.309,325.668 152.050,327.989 150.714 C 334.645 146.879,337.922 144.993,342.053 142.618 C 344.168 141.403,346.953 139.800,348.242 139.056 C 355.533 134.847,357.027 133.987,366.807 128.365 C 368.922 127.150,372.846 124.889,375.527 123.342 C 383.498 118.742,389.052 115.548,391.842 113.961 C 393.286 113.139,394.493 112.446,394.523 112.421 C 394.554 112.396,394.312 111.922,393.987 111.368 C 391.260 106.728,385.897 101.574,380.658 98.559 C 380.312 98.359,379.395 97.823,378.622 97.367 C 377.116 96.480,376.463 96.111,374.402 94.984 C 373.680 94.589,372.963 94.165,372.808 94.042 C 372.654 93.918,372.063 93.564,371.496 93.255 C 370.928 92.946,370.042 92.440,369.526 92.129 C 369.011 91.819,367.956 91.209,367.182 90.773 C 366.409 90.337,365.649 89.906,365.495 89.817 C 363.729 88.794,361.848 87.719,361.088 87.296 C 360.572 87.009,359.855 86.588,359.494 86.359 C 359.133 86.131,357.867 85.396,356.681 84.725 C 355.495 84.055,353.174 82.722,351.524 81.764 C 349.873 80.805,348.270 79.884,347.961 79.716 C 347.651 79.548,346.881 79.096,346.248 78.712 C 345.616 78.327,345.048 78.012,344.986 78.012 C 344.924 78.012,344.408 77.714,343.838 77.350 C 343.269 76.985,342.655 76.634,342.475 76.569 C 342.295 76.504,341.911 76.287,341.622 76.087 C 341.333 75.887,340.532 75.407,339.841 75.022 C 339.150 74.636,337.445 73.661,336.053 72.855 C 334.660 72.049,332.972 71.080,332.302 70.700 C 331.632 70.321,330.366 69.591,329.489 69.079 C 328.612 68.566,327.726 68.052,327.520 67.936 C 327.314 67.820,326.596 67.403,325.926 67.011 C 325.256 66.618,324.475 66.169,324.190 66.013 C 323.906 65.857,322.894 65.275,321.940 64.721 C 320.987 64.166,319.658 63.399,318.987 63.016 C 317.548 62.193,311.575 58.757,307.079 56.165 C 303.016 53.822,302.551 53.557,301.641 53.061 C 301.228 52.836,300.293 52.282,299.562 51.830 C 298.832 51.378,298.183 51.008,298.120 51.008 C 298.057 51.008,297.431 50.663,296.729 50.241 C 296.027 49.819,295.326 49.400,295.171 49.311 C 293.474 48.328,291.525 47.212,290.764 46.790 C 290.248 46.503,289.531 46.082,289.170 45.853 C 288.809 45.625,287.543 44.890,286.357 44.220 C 285.171 43.550,282.850 42.216,281.200 41.257 C 279.550 40.297,277.820 39.306,277.356 39.053 C 276.892 38.801,276.428 38.528,276.324 38.445 C 276.221 38.363,275.673 38.043,275.105 37.733 C 274.538 37.423,273.315 36.725,272.386 36.182 C 271.458 35.638,270.133 34.878,269.442 34.494 C 268.751 34.109,267.936 33.617,267.632 33.400 C 267.327 33.183,267.029 33.005,266.970 33.005 C 266.871 33.005,263.652 31.175,258.884 28.409 C 257.853 27.811,256.629 27.112,256.165 26.856 C 255.701 26.601,255.237 26.330,255.134 26.254 C 255.030 26.179,254.566 25.905,254.102 25.647 C 253.638 25.389,252.499 24.731,251.571 24.186 C 249.220 22.805,247.401 21.768,246.439 21.259 C 245.989 21.021,245.525 20.748,245.408 20.651 C 245.290 20.555,244.688 20.205,244.069 19.874 C 243.451 19.542,242.649 19.080,242.288 18.847 C 241.927 18.614,240.113 17.555,238.256 16.492 C 236.399 15.430,233.572 13.805,231.974 12.881 C 230.375 11.956,227.506 10.312,225.598 9.227 C 223.690 8.142,221.759 7.016,221.307 6.726 C 219.709 5.700,214.779 3.380,212.409 2.539 C 207.226 0.701,200.634 -0.173,196.156 0.384 M193.999 159.046 C 147.338 163.413,119.887 212.519,140.678 254.430 C 141.510 256.106,142.245 257.478,142.311 257.478 C 142.476 257.478,150.805 252.717,163.807 245.191 C 164.838 244.594,167.349 243.148,169.386 241.978 C 178.950 236.483,180.695 235.479,183.497 233.858 C 189.647 230.299,199.321 224.746,201.406 223.576 C 202.593 222.911,205.757 221.102,208.439 219.555 C 211.120 218.009,215.045 215.749,217.159 214.533 C 219.273 213.317,224.041 210.571,227.754 208.431 C 234.090 204.781,236.353 203.478,245.617 198.152 C 247.654 196.980,250.670 195.239,252.321 194.283 C 253.971 193.326,255.891 192.255,256.587 191.904 C 257.283 191.552,257.853 191.224,257.853 191.174 C 257.853 191.124,257.607 191.210,257.306 191.365 L 256.760 191.648 255.607 189.772 C 242.925 169.135,218.162 156.785,193.999 159.046 M311.627 160.070 C 310.926 160.450,310.968 160.609,311.674 160.244 C 311.983 160.084,312.236 159.913,312.236 159.864 C 312.236 159.743,312.216 159.750,311.627 160.070 M306.751 162.883 C 306.050 163.263,306.093 163.421,306.798 163.057 C 307.107 162.897,307.361 162.726,307.361 162.677 C 307.361 162.556,307.340 162.563,306.751 162.883 M304.313 164.288 C 303.926 164.493,303.610 164.702,303.610 164.753 C 303.610 164.804,303.947 164.674,304.360 164.463 C 304.773 164.253,305.110 164.040,305.110 163.991 C 305.110 163.868,305.109 163.868,304.313 164.288 M301.875 165.696 C 301.174 166.076,301.217 166.234,301.922 165.870 C 302.232 165.710,302.485 165.539,302.485 165.490 C 302.485 165.369,302.465 165.376,301.875 165.696 M299.250 167.196 C 298.549 167.576,298.591 167.735,299.297 167.370 C 299.606 167.210,299.859 167.039,299.859 166.990 C 299.859 166.869,299.839 166.876,299.250 167.196 M296.624 168.696 C 295.923 169.076,295.966 169.235,296.671 168.870 C 296.981 168.710,297.234 168.539,297.234 168.490 C 297.234 168.370,297.214 168.376,296.624 168.696 M294.374 170.009 C 293.673 170.389,293.716 170.548,294.421 170.183 C 294.730 170.023,294.984 169.852,294.984 169.803 C 294.984 169.682,294.963 169.689,294.374 170.009 M291.749 171.509 C 291.048 171.889,291.090 172.048,291.796 171.683 C 292.105 171.523,292.358 171.352,292.358 171.303 C 292.358 171.183,292.338 171.189,291.749 171.509 M288.186 173.572 C 287.485 173.952,287.527 174.111,288.233 173.746 C 288.542 173.586,288.795 173.415,288.795 173.366 C 288.795 173.245,288.775 173.252,288.186 173.572 M285.935 174.885 C 285.234 175.265,285.277 175.423,285.982 175.059 C 286.292 174.899,286.545 174.728,286.545 174.679 C 286.545 174.558,286.525 174.565,285.935 174.885 M283.310 176.385 C 282.609 176.765,282.651 176.924,283.357 176.559 C 283.666 176.399,283.919 176.228,283.919 176.179 C 283.919 176.058,283.899 176.065,283.310 176.385 M280.684 177.885 C 279.983 178.265,280.026 178.424,280.731 178.059 C 281.041 177.899,281.294 177.728,281.294 177.679 C 281.294 177.559,281.274 177.565,280.684 177.885 M278.059 179.385 C 277.358 179.766,277.401 179.924,278.106 179.559 C 278.415 179.399,278.669 179.228,278.669 179.179 C 278.669 179.059,278.648 179.066,278.059 179.385 M275.809 180.698 C 275.108 181.078,275.150 181.237,275.856 180.872 C 276.165 180.712,276.418 180.541,276.418 180.492 C 276.418 180.371,276.398 180.378,275.809 180.698 M273.183 182.198 C 272.482 182.579,272.525 182.737,273.230 182.372 C 273.540 182.212,273.793 182.041,273.793 181.992 C 273.793 181.872,273.773 181.879,273.183 182.198 M268.308 185.011 C 267.606 185.391,267.649 185.550,268.354 185.185 C 268.664 185.025,268.917 184.854,268.917 184.805 C 268.917 184.685,268.897 184.691,268.308 185.011 M264.744 187.074 C 264.043 187.454,264.086 187.613,264.791 187.248 C 265.101 187.088,265.354 186.917,265.354 186.868 C 265.354 186.747,265.334 186.754,264.744 187.074 M262.867 188.162 C 261.967 188.716,261.715 188.977,262.447 188.599 C 263.035 188.295,263.828 187.729,263.666 187.729 C 263.615 187.729,263.255 187.924,262.867 188.162 M259.869 189.887 C 259.168 190.267,259.210 190.426,259.916 190.061 C 260.225 189.901,260.478 189.730,260.478 189.681 C 260.478 189.560,260.458 189.567,259.869 189.887 M306.670 201.922 C 308.817 201.952,312.277 201.952,314.359 201.922 C 316.440 201.892,314.684 201.867,310.455 201.867 C 306.226 201.867,304.523 201.892,306.670 201.922 M358.181 209.376 L 358.181 216.971 350.586 216.971 L 342.991 216.971 342.991 224.660 L 342.991 232.349 350.584 232.349 L 358.177 232.349 358.229 239.897 L 358.281 247.445 358.278 239.850 L 358.275 232.255 350.727 232.206 L 343.179 232.157 343.179 224.660 L 343.179 217.163 350.727 217.114 L 358.275 217.065 358.324 209.517 L 358.373 201.969 365.870 201.969 L 373.367 201.969 373.416 209.517 L 373.465 217.065 381.013 217.114 L 388.561 217.163 388.561 224.660 L 388.561 232.157 381.013 232.206 L 373.465 232.255 373.461 239.850 L 373.458 247.445 373.510 239.897 L 373.563 232.349 381.155 232.349 L 388.748 232.349 388.748 224.660 L 388.748 216.971 381.153 216.971 L 373.558 216.971 373.558 209.376 L 373.558 201.782 365.870 201.782 L 358.181 201.782 358.181 209.376 M291.480 217.112 C 293.627 217.142,297.087 217.142,299.169 217.112 C 301.250 217.082,299.494 217.057,295.265 217.057 C 291.036 217.057,289.333 217.082,291.480 217.112 M321.860 217.112 C 324.007 217.142,327.467 217.142,329.548 217.112 C 331.630 217.082,329.873 217.057,325.645 217.057 C 321.416 217.057,319.713 217.082,321.860 217.112 M291.374 232.302 C 293.462 232.332,296.880 232.332,298.969 232.302 C 301.057 232.272,299.348 232.247,295.171 232.247 C 290.994 232.247,289.285 232.272,291.374 232.302 M321.941 232.302 C 324.030 232.332,327.447 232.332,329.536 232.302 C 331.624 232.272,329.916 232.247,325.738 232.247 C 321.561 232.247,319.852 232.272,321.941 232.302 M262.353 260.187 C 262.353 260.239,262.607 260.412,262.916 260.572 C 263.226 260.732,263.479 260.821,263.479 260.769 C 263.479 260.718,263.226 260.544,262.916 260.384 C 262.607 260.224,262.353 260.136,262.353 260.187 M264.604 261.500 C 264.604 261.552,264.857 261.725,265.166 261.885 C 265.476 262.045,265.729 262.133,265.729 262.082 C 265.729 262.030,265.476 261.857,265.166 261.697 C 264.857 261.537,264.604 261.448,264.604 261.500 M266.854 262.813 C 266.854 262.864,267.107 263.037,267.417 263.197 C 267.726 263.357,267.979 263.446,267.979 263.395 C 267.979 263.343,267.726 263.170,267.417 263.010 C 267.107 262.850,266.854 262.761,266.854 262.813 M269.480 264.313 C 269.480 264.364,269.733 264.538,270.042 264.698 C 270.352 264.858,270.605 264.946,270.605 264.895 C 270.605 264.843,270.352 264.670,270.042 264.510 C 269.733 264.350,269.480 264.261,269.480 264.313 M271.730 265.626 C 271.730 265.677,271.983 265.850,272.293 266.010 C 272.602 266.170,272.855 266.259,272.855 266.207 C 272.855 266.156,272.602 265.983,272.293 265.823 C 271.983 265.663,271.730 265.574,271.730 265.626 M150.211 268.636 C 150.561 268.997,150.889 269.292,150.941 269.292 C 150.992 269.292,150.748 268.997,150.398 268.636 C 150.049 268.275,149.720 267.979,149.669 267.979 C 149.617 267.979,149.861 268.275,150.211 268.636 M248.374 269.339 L 247.632 270.136 248.429 269.395 C 249.171 268.705,249.313 268.542,249.171 268.542 C 249.140 268.542,248.781 268.901,248.374 269.339 M277.543 269.001 C 277.543 269.053,277.797 269.226,278.106 269.386 C 278.415 269.546,278.669 269.635,278.669 269.583 C 278.669 269.531,278.415 269.358,278.106 269.198 C 277.797 269.038,277.543 268.950,277.543 269.001 M152.930 271.542 C 153.750 272.368,154.464 273.043,154.515 273.043 C 154.567 273.043,153.938 272.368,153.118 271.542 C 152.297 270.717,151.584 270.042,151.532 270.042 C 151.481 270.042,152.110 270.717,152.930 271.542 M279.794 270.314 C 279.794 270.365,280.047 270.539,280.356 270.699 C 280.666 270.859,280.919 270.947,280.919 270.896 C 280.919 270.844,280.666 270.671,280.356 270.511 C 280.047 270.351,279.794 270.262,279.794 270.314 M282.419 271.814 C 282.419 271.866,282.672 272.039,282.982 272.199 C 283.291 272.359,283.544 272.448,283.544 272.396 C 283.544 272.344,283.291 272.171,282.982 272.011 C 282.672 271.851,282.419 271.763,282.419 271.814 M244.250 273.465 L 243.319 274.449 244.304 273.519 C 245.219 272.654,245.374 272.480,245.234 272.480 C 245.205 272.480,244.762 272.923,244.250 273.465 M284.669 273.127 C 284.669 273.178,284.923 273.351,285.232 273.511 C 285.541 273.671,285.795 273.760,285.795 273.709 C 285.795 273.657,285.541 273.484,285.232 273.324 C 284.923 273.164,284.669 273.075,284.669 273.127 M155.837 274.262 C 156.187 274.623,156.515 274.918,156.567 274.918 C 156.618 274.918,156.374 274.623,156.024 274.262 C 155.674 273.901,155.346 273.605,155.294 273.605 C 155.243 273.605,155.487 273.901,155.837 274.262 M290.483 276.502 C 290.483 276.554,290.736 276.727,291.045 276.887 C 291.355 277.047,291.608 277.136,291.608 277.084 C 291.608 277.033,291.355 276.859,291.045 276.699 C 290.736 276.539,290.483 276.451,290.483 276.502 M292.733 277.817 C 292.733 277.869,293.071 278.083,293.483 278.293 C 293.896 278.504,294.233 278.634,294.233 278.582 C 294.233 278.531,293.896 278.316,293.483 278.106 C 293.071 277.895,292.733 277.765,292.733 277.817 M295.359 279.315 C 295.359 279.367,295.612 279.540,295.921 279.700 C 296.231 279.860,296.484 279.949,296.484 279.897 C 296.484 279.846,296.231 279.672,295.921 279.512 C 295.612 279.352,295.359 279.264,295.359 279.315 M297.609 280.628 C 297.609 280.680,297.862 280.853,298.172 281.013 C 298.481 281.173,298.734 281.261,298.734 281.210 C 298.734 281.158,298.481 280.985,298.172 280.825 C 297.862 280.665,297.609 280.576,297.609 280.628 M167.464 282.505 C 167.464 282.557,167.801 282.771,168.214 282.982 C 168.626 283.192,168.964 283.322,168.964 283.271 C 168.964 283.219,168.626 283.005,168.214 282.794 C 167.801 282.584,167.464 282.454,167.464 282.505 M301.172 282.691 C 301.172 282.742,301.425 282.915,301.735 283.075 C 302.044 283.235,302.297 283.324,302.297 283.273 C 302.297 283.221,302.044 283.048,301.735 282.888 C 301.425 282.728,301.172 282.639,301.172 282.691 M228.223 284.294 C 227.862 284.492,227.651 284.654,227.754 284.654 C 227.857 284.654,228.237 284.492,228.598 284.294 C 228.959 284.097,229.170 283.935,229.067 283.935 C 228.964 283.935,228.584 284.097,228.223 284.294 M303.422 284.003 C 303.422 284.055,303.676 284.228,303.985 284.388 C 304.294 284.548,304.548 284.637,304.548 284.585 C 304.548 284.534,304.294 284.361,303.985 284.201 C 303.676 284.041,303.422 283.952,303.422 284.003 M306.048 285.504 C 306.048 285.555,306.301 285.728,306.610 285.888 C 306.920 286.048,307.173 286.137,307.173 286.086 C 307.173 286.034,306.920 285.861,306.610 285.701 C 306.301 285.541,306.048 285.452,306.048 285.504 M308.298 286.816 C 308.298 286.868,308.551 287.041,308.861 287.201 C 309.170 287.361,309.423 287.450,309.423 287.398 C 309.423 287.347,309.170 287.174,308.861 287.014 C 308.551 286.854,308.298 286.765,308.298 286.816 M310.642 288.181 C 310.745 288.279,311.252 288.589,311.767 288.870 C 312.283 289.151,312.536 289.243,312.330 289.074 C 311.910 288.729,310.348 287.903,310.642 288.181 M208.767 290.237 C 208.947 290.284,209.243 290.284,209.423 290.237 C 209.604 290.190,209.456 290.151,209.095 290.151 C 208.734 290.151,208.586 290.190,208.767 290.237 M191.423 290.428 C 191.656 290.473,191.994 290.471,192.173 290.424 C 192.352 290.377,192.161 290.341,191.749 290.343 C 191.336 290.345,191.189 290.383,191.423 290.428 M207.267 290.425 C 207.447 290.472,207.743 290.472,207.923 290.425 C 208.104 290.377,207.956 290.339,207.595 290.339 C 207.234 290.339,207.086 290.377,207.267 290.425 M193.298 290.616 C 193.531 290.660,193.869 290.659,194.048 290.612 C 194.227 290.565,194.037 290.528,193.624 290.530 C 193.211 290.532,193.065 290.571,193.298 290.616 M205.487 290.616 C 205.721 290.660,206.058 290.659,206.238 290.612 C 206.417 290.565,206.226 290.528,205.813 290.530 C 205.401 290.532,205.254 290.571,205.487 290.616 M195.640 290.805 C 195.924 290.848,196.388 290.848,196.671 290.805 C 196.955 290.762,196.723 290.727,196.156 290.727 C 195.588 290.727,195.356 290.762,195.640 290.805 M202.769 290.805 C 203.054 290.848,203.476 290.847,203.706 290.802 C 203.937 290.758,203.704 290.723,203.188 290.724 C 202.672 290.725,202.484 290.762,202.769 290.805 M307.923 301.360 C 307.703 301.669,307.565 301.922,307.616 301.922 C 307.668 301.922,307.890 301.669,308.111 301.360 C 308.331 301.050,308.469 300.797,308.417 300.797 C 308.366 300.797,308.143 301.050,307.923 301.360 M97.888 309.983 C 98.214 310.394,98.578 310.791,98.698 310.865 C 98.818 310.939,98.590 310.603,98.193 310.118 C 97.795 309.633,97.431 309.236,97.383 309.236 C 97.335 309.236,97.563 309.572,97.888 309.983 M101.078 313.643 C 101.428 314.004,101.757 314.299,101.808 314.299 C 101.860 314.299,101.616 314.004,101.266 313.643 C 100.916 313.282,100.587 312.986,100.536 312.986 C 100.484 312.986,100.728 313.282,101.078 313.643 M297.316 314.534 L 296.765 315.143 297.375 314.592 C 297.943 314.079,298.070 313.924,297.925 313.924 C 297.893 313.924,297.619 314.198,297.316 314.534 M105.860 318.612 C 107.818 320.572,109.462 322.175,109.513 322.175 C 109.565 322.175,108.005 320.572,106.048 318.612 C 104.090 316.653,102.446 315.049,102.395 315.049 C 102.343 315.049,103.903 316.653,105.860 318.612 M293.481 318.565 L 291.139 320.956 293.530 318.615 C 295.751 316.440,296.006 316.174,295.872 316.174 C 295.844 316.174,294.768 317.250,293.481 318.565 M289.257 322.597 L 288.326 323.582 289.311 322.651 C 289.852 322.139,290.295 321.696,290.295 321.667 C 290.295 321.527,290.122 321.682,289.257 322.597 M110.736 323.301 C 111.139 323.713,111.511 324.051,111.562 324.051 C 111.614 324.051,111.326 323.713,110.924 323.301 C 110.521 322.888,110.149 322.550,110.097 322.550 C 110.046 322.550,110.333 322.888,110.736 323.301 M287.285 324.379 L 286.639 325.082 287.342 324.436 C 287.729 324.080,288.045 323.764,288.045 323.733 C 288.045 323.589,287.886 323.724,287.285 324.379 M285.877 325.598 L 285.326 326.207 285.935 325.656 C 286.503 325.143,286.631 324.988,286.486 324.988 C 286.454 324.988,286.180 325.263,285.877 325.598 M283.169 327.827 L 282.325 328.591 283.120 327.995 C 283.811 327.476,284.254 327.039,284.071 327.057 C 284.039 327.060,283.633 327.406,283.169 327.827 M119.336 330.384 C 119.484 330.624,120.581 331.436,120.581 331.306 C 120.581 331.259,120.272 330.985,119.893 330.696 C 119.514 330.407,119.264 330.267,119.336 330.384 M265.495 339.910 C 264.794 340.291,264.836 340.449,265.541 340.084 C 265.851 339.924,266.104 339.753,266.104 339.705 C 266.104 339.584,266.084 339.591,265.495 339.910 M135.584 341.014 C 135.584 341.066,135.921 341.280,136.334 341.491 C 136.746 341.701,137.084 341.831,137.084 341.780 C 137.084 341.728,136.746 341.514,136.334 341.303 C 135.921 341.093,135.584 340.963,135.584 341.014 M138.397 342.521 C 138.397 342.648,139.920 343.406,140.005 343.321 C 140.044 343.282,139.698 343.066,139.236 342.841 C 138.775 342.617,138.397 342.473,138.397 342.521 M141.397 344.116 C 141.758 344.314,142.138 344.476,142.241 344.476 C 142.344 344.476,142.133 344.314,141.772 344.116 C 141.411 343.919,141.031 343.757,140.928 343.757 C 140.825 343.757,141.036 343.919,141.397 344.116 M161.556 351.992 C 161.763 352.081,162.058 352.154,162.213 352.154 C 162.390 352.154,162.355 352.094,162.119 351.992 C 161.913 351.904,161.617 351.831,161.463 351.831 C 161.285 351.831,161.320 351.891,161.556 351.992 M166.245 353.305 C 166.451 353.394,166.789 353.464,166.995 353.461 C 167.296 353.456,167.278 353.426,166.901 353.305 C 166.260 353.100,165.767 353.100,166.245 353.305 M217.768 356.247 C 217.949 356.295,218.244 356.295,218.425 356.247 C 218.605 356.200,218.458 356.162,218.097 356.162 C 217.736 356.162,217.588 356.200,217.768 356.247 M182.325 356.435 C 182.506 356.482,182.801 356.482,182.982 356.435 C 183.162 356.388,183.015 356.349,182.654 356.349 C 182.293 356.349,182.145 356.388,182.325 356.435 M216.268 356.435 C 216.449 356.482,216.744 356.482,216.925 356.435 C 217.105 356.388,216.957 356.349,216.596 356.349 C 216.235 356.349,216.088 356.388,216.268 356.435 M184.013 356.622 C 184.194 356.670,184.489 356.670,184.669 356.622 C 184.850 356.575,184.702 356.537,184.341 356.537 C 183.980 356.537,183.833 356.575,184.013 356.622 M214.768 356.622 C 214.948 356.670,215.244 356.670,215.424 356.622 C 215.605 356.575,215.457 356.537,215.096 356.537 C 214.735 356.537,214.587 356.575,214.768 356.622 M190.014 357.185 C 190.195 357.232,190.490 357.232,190.670 357.185 C 190.851 357.138,190.703 357.099,190.342 357.099 C 189.981 357.099,189.834 357.138,190.014 357.185 M208.767 357.185 C 208.947 357.232,209.243 357.232,209.423 357.185 C 209.604 357.138,209.456 357.099,209.095 357.099 C 208.734 357.099,208.586 357.138,208.767 357.185 M192.924 357.379 C 193.261 357.421,193.768 357.420,194.049 357.377 C 194.331 357.335,194.055 357.300,193.436 357.301 C 192.818 357.302,192.587 357.337,192.924 357.379 M205.391 357.378 C 205.675 357.421,206.139 357.421,206.423 357.378 C 206.707 357.335,206.474 357.300,205.907 357.300 C 205.340 357.300,205.108 357.335,205.391 357.378 M198.461 357.570 C 199.161 357.606,200.258 357.606,200.899 357.569 C 201.539 357.533,200.966 357.503,199.625 357.504 C 198.284 357.504,197.760 357.534,198.461 357.570 " stroke="none" fill="#5c8dbc" fill-rule="evenodd"></path><path id="path2" d="M399.524 212.940 C 399.524 217.890,399.548 219.889,399.578 217.380 C 399.607 214.872,399.607 210.821,399.578 208.379 C 399.548 205.937,399.524 207.989,399.524 212.940 M198.022 225.630 C 196.738 226.365,195.138 227.279,194.468 227.659 C 193.797 228.040,192.110 229.011,190.717 229.817 C 189.325 230.623,187.637 231.594,186.967 231.975 C 186.296 232.355,184.398 233.451,182.747 234.409 C 181.097 235.366,176.920 237.773,173.465 239.757 C 167.657 243.090,165.191 244.511,156.774 249.371 C 151.091 252.653,146.191 255.467,144.960 256.157 C 143.972 256.711,143.017 257.281,142.550 257.596 C 142.429 257.678,144.060 260.245,146.352 263.576 C 150.657 269.834,158.720 277.204,165.870 281.415 C 169.116 283.327,170.901 284.225,174.727 285.872 C 200.275 296.870,233.494 288.479,250.618 266.703 C 253.072 263.582,257.262 257.380,257.052 257.179 C 256.992 257.121,253.887 255.313,252.414 254.477 C 251.744 254.097,250.436 253.339,249.508 252.793 C 248.579 252.246,246.765 251.192,245.476 250.451 C 240.152 247.389,236.610 245.341,234.130 243.891 C 230.309 241.657,230.222 241.606,227.661 240.132 C 226.371 239.390,223.966 237.998,222.316 237.040 C 220.666 236.082,218.261 234.690,216.971 233.946 C 215.682 233.203,213.488 231.935,212.096 231.128 C 210.703 230.322,208.594 229.100,207.407 228.413 C 204.564 226.767,201.848 225.183,201.023 224.690 L 200.357 224.293 198.022 225.630 M399.514 230.849 C 399.514 232.550,399.542 233.247,399.577 232.396 C 399.612 231.545,399.612 230.152,399.577 229.301 C 399.542 228.451,399.514 229.147,399.514 230.849 M399.513 242.944 C 399.514 244.594,399.542 245.244,399.577 244.389 C 399.612 243.533,399.612 242.183,399.577 241.388 C 399.542 240.594,399.513 241.294,399.513 242.944 M313.830 292.590 C 313.231 293.648,312.511 294.852,312.230 295.265 C 311.949 295.677,311.230 296.774,310.631 297.703 C 308.093 301.641,305.170 305.555,301.181 310.361 C 295.885 316.741,286.765 325.475,280.708 329.968 C 280.437 330.168,279.593 330.802,278.832 331.375 C 273.985 335.030,268.176 338.743,262.635 341.729 C 253.543 346.627,244.267 350.320,234.318 353.004 C 230.634 353.997,225.860 355.093,224.098 355.349 C 223.427 355.446,221.655 355.738,220.159 355.998 C 214.016 357.064,204.059 357.733,197.113 357.546 C 183.546 357.182,171.927 355.279,159.587 351.403 C 156.446 350.416,154.657 349.781,151.404 348.501 C 150.255 348.049,149.267 347.679,149.209 347.679 C 149.150 347.679,148.571 347.434,147.922 347.134 C 147.273 346.835,145.771 346.150,144.585 345.613 C 142.102 344.489,137.366 342.119,135.584 341.108 C 130.945 338.480,130.350 338.117,126.395 335.520 C 123.957 333.918,123.377 333.505,119.831 330.836 C 116.500 328.328,116.396 328.245,113.484 325.764 C 105.390 318.871,97.141 309.870,91.459 301.735 C 89.209 298.512,86.936 295.008,85.471 292.500 C 85.065 291.805,84.666 291.195,84.585 291.145 C 84.503 291.094,83.097 291.825,81.459 292.768 C 79.821 293.711,77.932 294.793,77.262 295.172 C 76.592 295.552,74.904 296.522,73.511 297.328 C 72.119 298.134,70.431 299.106,69.761 299.488 C 69.090 299.870,67.782 300.629,66.854 301.174 C 65.080 302.217,58.525 305.995,56.446 307.173 C 54.972 308.009,48.843 311.539,44.726 313.923 C 43.075 314.879,39.160 317.133,36.025 318.932 C 30.142 322.308,26.473 324.420,21.050 327.553 C 19.323 328.551,17.445 329.635,16.878 329.963 C 12.753 332.344,7.960 335.098,6.939 335.672 C 4.977 336.774,4.931 336.813,4.951 337.376 C 4.961 337.662,5.005 337.860,5.049 337.816 C 5.191 337.676,5.796 338.742,5.680 338.930 C 5.618 339.029,5.661 339.053,5.775 338.983 C 6.031 338.824,6.442 339.544,6.262 339.836 C 6.183 339.963,6.214 339.997,6.338 339.921 C 6.544 339.793,7.059 340.506,6.974 340.802 C 6.949 340.887,7.016 340.903,7.121 340.837 C 7.227 340.772,7.314 340.788,7.314 340.872 C 7.314 340.957,7.529 341.258,7.792 341.542 C 8.055 341.826,8.211 342.154,8.138 342.272 C 8.064 342.392,8.088 342.436,8.193 342.371 C 8.469 342.200,9.637 343.472,9.462 343.754 C 9.377 343.892,9.396 343.939,9.508 343.870 C 9.709 343.746,10.571 344.547,10.410 344.708 C 10.358 344.760,10.547 345.007,10.831 345.256 L 11.346 345.710 10.877 345.148 L 10.409 344.585 11.011 345.129 C 11.343 345.429,11.561 345.758,11.497 345.862 C 11.429 345.972,11.477 345.991,11.613 345.906 C 11.902 345.728,12.975 346.714,12.809 347.005 C 12.745 347.118,12.759 347.150,12.841 347.075 C 13.056 346.882,14.094 347.668,13.944 347.910 C 13.875 348.021,13.900 348.062,13.999 348.001 C 14.227 347.861,16.614 349.519,16.545 349.770 C 16.516 349.873,16.564 349.914,16.650 349.861 C 16.880 349.719,17.844 350.398,17.676 350.583 C 17.598 350.669,17.639 350.679,17.768 350.605 C 18.043 350.447,19.153 351.051,19.010 351.281 C 18.956 351.368,18.982 351.427,19.067 351.412 C 19.431 351.349,19.705 351.442,19.610 351.596 C 19.553 351.688,19.654 351.751,19.833 351.737 C 20.013 351.723,20.143 351.802,20.124 351.912 C 20.104 352.023,20.273 352.108,20.499 352.100 C 20.745 352.092,20.889 352.185,20.858 352.335 C 20.830 352.471,20.893 352.530,20.998 352.464 C 21.266 352.299,22.321 352.954,22.182 353.199 C 22.119 353.309,22.134 353.340,22.215 353.267 C 22.423 353.079,24.604 354.217,24.466 354.441 C 24.403 354.544,24.420 354.608,24.506 354.585 C 24.832 354.497,25.504 354.841,25.384 355.035 C 25.307 355.159,25.346 355.184,25.485 355.099 C 25.768 354.923,27.777 356.117,27.622 356.368 C 27.560 356.469,27.594 356.498,27.699 356.434 C 27.957 356.274,29.846 357.232,29.710 357.453 C 29.650 357.549,29.671 357.616,29.756 357.601 C 30.156 357.531,30.390 357.638,30.268 357.835 C 30.185 357.969,30.217 358.000,30.352 357.917 C 30.642 357.738,32.084 358.560,31.936 358.821 C 31.872 358.933,31.886 358.965,31.967 358.892 C 32.171 358.708,33.231 359.280,33.095 359.500 C 33.035 359.597,33.112 359.628,33.267 359.569 C 33.629 359.430,34.708 360.062,34.559 360.325 C 34.496 360.435,34.511 360.466,34.591 360.394 C 34.873 360.139,37.988 361.938,37.739 362.213 C 37.662 362.297,37.697 362.311,37.816 362.243 C 38.103 362.079,39.586 362.877,39.438 363.116 C 39.374 363.220,39.418 363.244,39.536 363.170 C 39.801 363.007,41.119 363.876,40.927 364.088 C 40.850 364.173,40.901 364.176,41.040 364.096 C 41.353 363.915,42.225 364.356,42.065 364.614 C 42.000 364.720,42.042 364.745,42.162 364.671 C 42.427 364.507,43.745 365.376,43.553 365.588 C 43.476 365.673,43.516 365.683,43.641 365.611 C 43.958 365.429,45.429 366.205,45.266 366.468 C 45.187 366.595,45.222 366.625,45.353 366.544 C 45.608 366.386,46.379 366.873,46.184 367.068 C 46.110 367.142,46.209 367.141,46.403 367.067 C 46.647 366.973,46.715 366.998,46.622 367.148 C 46.532 367.295,46.593 367.325,46.810 367.242 C 47.026 367.159,47.088 367.189,46.997 367.336 C 46.907 367.482,46.968 367.513,47.185 367.430 C 47.426 367.337,47.468 367.372,47.352 367.572 C 47.267 367.719,47.264 367.779,47.345 367.706 C 47.548 367.522,48.609 368.093,48.473 368.313 C 48.412 368.411,48.473 368.449,48.608 368.397 C 48.937 368.271,51.211 369.631,51.065 369.867 C 51.002 369.969,51.041 369.997,51.152 369.928 C 51.394 369.779,52.346 370.177,52.223 370.377 C 52.176 370.453,52.284 370.504,52.463 370.490 C 52.643 370.476,52.769 370.567,52.745 370.692 C 52.720 370.817,52.815 370.876,52.954 370.822 C 53.094 370.768,53.489 371.003,53.833 371.344 C 54.176 371.685,54.394 371.859,54.316 371.730 C 54.238 371.601,54.242 371.497,54.326 371.500 C 54.581 371.507,56.462 372.730,56.365 372.827 C 56.316 372.876,56.439 372.930,56.640 372.945 C 57.022 372.973,58.545 373.812,58.463 373.949 C 58.437 373.992,58.449 374.008,58.490 373.984 C 58.666 373.882,60.742 375.123,60.648 375.275 C 60.591 375.367,60.614 375.424,60.699 375.401 C 60.986 375.323,61.703 375.647,61.603 375.809 C 61.548 375.898,61.602 376.031,61.723 376.106 C 61.860 376.191,61.892 376.160,61.809 376.025 C 61.641 375.753,61.745 375.753,62.339 376.024 C 62.598 376.142,62.757 376.332,62.693 376.446 C 62.628 376.559,62.641 376.593,62.722 376.519 C 62.930 376.332,63.985 376.909,63.846 377.134 C 63.783 377.235,63.802 377.298,63.887 377.273 C 64.241 377.169,65.284 377.682,65.152 377.896 C 65.064 378.037,65.095 378.067,65.238 377.979 C 65.498 377.819,67.322 378.929,67.326 379.251 C 67.327 379.369,67.411 379.339,67.511 379.184 C 67.677 378.927,67.782 379.053,67.716 379.433 C 67.701 379.518,67.774 379.534,67.878 379.470 C 68.104 379.331,69.799 380.284,69.676 380.482 C 69.630 380.557,69.778 380.612,70.005 380.605 C 70.253 380.596,70.397 380.690,70.366 380.839 C 70.337 380.976,70.401 381.034,70.506 380.969 C 70.773 380.804,71.829 381.459,71.690 381.703 C 71.627 381.813,71.642 381.844,71.722 381.771 C 71.931 381.584,74.112 382.721,73.974 382.946 C 73.910 383.048,73.930 383.108,74.017 383.080 C 74.371 382.965,75.778 383.746,75.534 383.922 C 75.364 384.044,75.394 384.063,75.636 383.984 C 76.028 383.857,76.769 384.295,76.558 384.529 C 76.481 384.613,76.515 384.627,76.634 384.559 C 76.753 384.491,77.204 384.637,77.637 384.883 C 78.069 385.128,78.352 385.368,78.265 385.414 C 78.177 385.461,78.217 385.471,78.352 385.437 C 78.671 385.357,79.928 386.208,79.752 386.384 C 79.678 386.457,79.752 386.466,79.916 386.403 C 80.080 386.340,80.333 386.399,80.477 386.534 C 80.622 386.669,80.853 386.803,80.990 386.833 C 81.458 386.933,82.511 387.750,82.371 387.904 C 82.294 387.989,82.334 387.999,82.460 387.927 C 82.777 387.745,84.247 388.521,84.085 388.784 C 84.006 388.911,84.040 388.941,84.171 388.860 C 84.386 388.727,85.213 389.174,85.051 389.335 C 85.005 389.382,85.129 389.432,85.327 389.447 C 85.886 389.489,87.404 390.447,87.266 390.670 C 87.197 390.782,87.232 390.814,87.345 390.744 C 87.457 390.675,87.913 390.819,88.359 391.064 C 90.091 392.015,91.828 393.010,92.546 393.461 C 92.958 393.720,93.449 393.989,93.636 394.058 C 93.836 394.132,93.920 394.275,93.840 394.405 C 93.750 394.550,93.801 394.588,93.988 394.516 C 94.325 394.387,95.333 394.994,95.126 395.201 C 95.048 395.279,95.068 395.319,95.171 395.290 C 95.491 395.200,96.214 395.517,96.102 395.698 C 96.043 395.793,96.140 395.815,96.317 395.747 C 96.553 395.656,96.598 395.690,96.486 395.871 C 96.381 396.041,96.404 396.075,96.559 395.979 C 96.689 395.899,97.104 396.049,97.522 396.325 C 97.926 396.593,98.344 396.812,98.449 396.812 C 98.554 396.812,98.642 396.960,98.643 397.140 C 98.646 397.421,98.673 397.427,98.828 397.187 C 98.990 396.936,99.095 397.048,99.040 397.415 C 99.029 397.488,99.159 397.495,99.330 397.430 C 99.554 397.344,99.597 397.379,99.486 397.559 C 99.385 397.723,99.405 397.763,99.546 397.676 C 99.799 397.519,101.137 398.379,100.942 398.573 C 100.869 398.647,100.943 398.656,101.107 398.593 C 101.271 398.530,101.523 398.589,101.668 398.723 C 101.813 398.858,102.043 398.993,102.181 399.022 C 102.649 399.122,103.702 399.939,103.562 400.094 C 103.485 400.178,103.520 400.192,103.640 400.123 C 103.942 399.950,104.478 400.184,104.330 400.424 C 104.260 400.537,104.298 400.565,104.421 400.489 C 104.713 400.309,105.432 400.720,105.274 400.976 C 105.203 401.091,105.231 401.131,105.336 401.066 C 105.549 400.934,106.513 401.328,106.515 401.547 C 106.516 401.624,106.648 401.688,106.809 401.688 C 106.970 401.688,107.050 401.771,106.987 401.873 C 106.919 401.983,107.003 402.008,107.194 401.935 C 107.436 401.842,107.477 401.878,107.361 402.078 C 107.276 402.224,107.273 402.284,107.354 402.211 C 107.577 402.010,108.613 402.607,108.463 402.850 C 108.388 402.971,108.419 403.006,108.536 402.933 C 108.814 402.762,109.721 403.197,109.576 403.432 C 109.510 403.538,109.552 403.563,109.672 403.489 C 109.937 403.325,111.255 404.195,111.063 404.407 C 110.986 404.491,111.023 404.504,111.144 404.435 C 111.471 404.247,112.406 404.711,112.101 404.909 C 111.945 405.010,112.026 405.048,112.330 405.017 C 112.637 404.986,112.781 405.055,112.747 405.218 C 112.719 405.354,112.776 405.417,112.875 405.356 C 112.973 405.295,113.798 405.677,114.708 406.205 C 115.618 406.733,116.826 407.418,117.393 407.726 C 117.961 408.034,118.509 408.375,118.612 408.484 C 118.741 408.620,118.718 408.634,118.536 408.531 C 118.364 408.433,118.317 408.453,118.402 408.589 C 118.473 408.704,118.637 408.757,118.767 408.707 C 118.896 408.657,119.674 409.024,120.495 409.522 C 121.316 410.020,122.141 410.486,122.328 410.557 C 122.527 410.633,122.612 410.778,122.532 410.907 C 122.442 411.052,122.493 411.090,122.680 411.019 C 123.017 410.889,124.025 411.496,123.818 411.703 C 123.740 411.782,123.760 411.819,123.863 411.785 C 124.188 411.681,125.271 412.224,125.144 412.428 C 125.073 412.543,125.116 412.566,125.247 412.484 C 125.511 412.321,127.248 413.387,127.411 413.812 C 127.474 413.977,127.645 414.057,127.804 413.996 C 127.958 413.937,128.485 414.123,128.974 414.410 C 129.464 414.697,130.017 414.989,130.204 415.059 C 130.391 415.130,130.492 415.271,130.429 415.374 C 130.365 415.477,130.429 415.516,130.570 415.462 C 130.711 415.408,131.055 415.576,131.334 415.835 C 131.613 416.094,131.886 416.299,131.939 416.291 C 132.242 416.245,133.122 416.764,133.021 416.928 C 132.953 417.037,132.991 417.067,133.105 416.997 C 133.323 416.862,134.911 417.783,135.000 418.097 C 135.029 418.200,135.101 418.326,135.161 418.378 C 135.220 418.429,135.208 418.366,135.134 418.237 C 134.912 417.852,135.264 417.967,136.302 418.622 C 136.842 418.962,137.217 419.313,137.137 419.402 C 137.056 419.491,137.078 419.513,137.185 419.452 C 137.459 419.297,139.439 420.357,139.377 420.624 C 139.348 420.745,139.412 420.790,139.518 420.725 C 139.768 420.570,141.606 421.568,141.471 421.785 C 141.415 421.876,141.439 421.931,141.524 421.908 C 141.821 421.828,142.527 422.157,142.421 422.327 C 142.363 422.422,142.426 422.457,142.562 422.404 C 142.876 422.284,145.749 424.085,145.566 424.288 C 145.490 424.371,145.537 424.377,145.669 424.301 C 145.807 424.221,146.286 424.388,146.794 424.692 C 147.281 424.983,147.917 425.325,148.208 425.453 C 148.536 425.596,148.685 425.768,148.601 425.905 C 148.520 426.035,148.546 426.075,148.665 426.001 C 148.932 425.836,149.487 426.060,149.352 426.278 C 149.293 426.373,149.315 426.439,149.400 426.424 C 149.764 426.361,150.038 426.454,149.943 426.608 C 149.886 426.699,149.987 426.763,150.166 426.749 C 150.345 426.734,150.476 426.813,150.456 426.924 C 150.437 427.035,150.606 427.119,150.832 427.112 C 151.059 427.104,151.222 427.200,151.198 427.326 C 151.172 427.454,151.271 427.508,151.424 427.449 C 151.573 427.392,151.911 427.562,152.176 427.827 C 152.441 428.092,152.698 428.310,152.747 428.313 C 152.796 428.315,152.926 428.317,153.035 428.317 C 153.144 428.317,153.173 428.414,153.100 428.533 C 153.017 428.668,153.048 428.699,153.183 428.616 C 153.464 428.442,154.921 429.256,154.769 429.501 C 154.704 429.606,154.749 429.629,154.869 429.554 C 154.991 429.479,155.303 429.650,155.585 429.947 C 155.861 430.237,156.016 430.354,155.931 430.207 C 155.716 429.840,156.148 430.020,157.398 430.820 C 157.948 431.172,158.572 431.514,158.784 431.582 C 158.997 431.649,159.391 431.909,159.660 432.158 C 159.930 432.408,160.150 432.572,160.150 432.524 C 160.150 432.385,161.530 433.123,162.766 433.922 C 163.382 434.320,163.828 434.703,163.758 434.773 C 163.688 434.843,163.790 434.839,163.984 434.765 C 164.249 434.663,164.299 434.691,164.184 434.878 C 164.086 435.035,164.103 435.081,164.230 435.003 C 164.497 434.838,165.052 435.062,164.917 435.280 C 164.858 435.375,164.880 435.431,164.965 435.404 C 165.270 435.310,166.901 436.229,166.779 436.427 C 166.709 436.539,166.744 436.572,166.858 436.501 C 167.135 436.330,168.431 437.119,168.278 437.366 C 168.206 437.482,168.245 437.508,168.373 437.430 C 168.639 437.265,170.493 438.245,170.351 438.475 C 170.295 438.566,170.318 438.628,170.403 438.613 C 170.781 438.548,171.039 438.646,170.934 438.816 C 170.871 438.918,170.934 438.958,171.073 438.905 C 171.212 438.851,171.864 439.155,172.522 439.580 C 173.180 440.005,173.919 440.430,174.165 440.523 C 174.435 440.626,174.559 440.779,174.478 440.910 C 174.393 441.048,174.427 441.076,174.572 440.986 C 174.701 440.906,175.116 441.056,175.534 441.332 C 175.939 441.600,176.356 441.819,176.461 441.819 C 176.566 441.819,176.653 441.903,176.653 442.007 C 176.653 442.110,176.716 442.175,176.793 442.152 C 177.076 442.069,178.712 443.172,178.593 443.366 C 178.523 443.478,178.559 443.510,178.674 443.439 C 178.949 443.269,180.229 443.895,180.085 444.129 C 180.022 444.231,180.063 444.258,180.175 444.188 C 180.401 444.048,181.591 444.694,181.421 444.864 C 181.363 444.922,181.427 444.965,181.563 444.959 C 182.214 444.930,182.467 445.034,182.481 445.335 C 182.489 445.516,182.536 445.565,182.585 445.446 C 182.644 445.300,183.146 445.446,184.105 445.889 C 185.502 446.535,185.829 446.648,186.404 446.683 C 186.654 446.699,186.654 446.723,186.404 446.903 C 186.166 447.074,186.172 447.089,186.447 447.001 C 186.800 446.888,188.467 447.438,188.467 447.667 C 188.467 447.745,188.594 447.760,188.748 447.700 C 188.903 447.641,189.030 447.683,189.030 447.794 C 189.030 447.905,189.156 447.947,189.311 447.888 C 189.466 447.828,189.592 447.858,189.592 447.953 C 189.592 448.049,189.887 448.103,190.248 448.075 C 190.722 448.038,190.905 448.099,190.905 448.297 C 190.905 448.447,190.994 448.570,191.103 448.570 C 191.213 448.570,191.250 448.486,191.186 448.383 C 191.122 448.279,191.207 448.195,191.374 448.195 C 191.558 448.195,191.624 448.281,191.541 448.414 C 191.451 448.561,191.507 448.595,191.709 448.517 C 191.966 448.419,194.711 448.813,195.593 449.075 C 196.191 449.253,199.189 449.328,202.579 449.251 C 203.172 449.238,203.657 449.154,203.657 449.065 C 203.657 448.977,203.951 448.938,204.310 448.980 C 204.670 449.022,204.986 448.992,205.013 448.912 C 205.041 448.832,205.464 448.744,205.953 448.715 C 206.443 448.687,206.843 448.591,206.844 448.501 C 206.844 448.412,207.053 448.379,207.307 448.427 C 207.561 448.476,207.815 448.422,207.870 448.308 C 207.938 448.168,208.006 448.180,208.083 448.346 C 208.168 448.531,208.258 448.509,208.454 448.252 C 208.680 447.957,208.737 447.950,208.901 448.195 C 209.047 448.413,209.090 448.419,209.092 448.222 C 209.094 448.073,209.212 448.012,209.376 448.075 C 209.531 448.135,209.658 448.118,209.658 448.037 C 209.658 447.846,211.547 447.244,211.751 447.370 C 211.837 447.423,211.908 447.369,211.908 447.248 C 211.908 447.128,212.039 447.080,212.199 447.141 C 212.384 447.213,212.443 447.177,212.361 447.043 C 212.283 446.917,212.334 446.868,212.490 446.920 C 212.632 446.967,212.868 446.887,213.014 446.741 C 213.160 446.594,213.478 446.513,213.719 446.559 C 213.961 446.605,214.158 446.584,214.158 446.512 C 214.158 446.270,217.513 444.784,217.742 444.926 C 217.871 445.006,217.918 444.986,217.852 444.879 C 217.686 444.611,219.114 443.856,219.531 443.992 C 219.819 444.085,219.830 444.070,219.597 443.902 C 219.442 443.791,219.405 443.699,219.514 443.697 C 219.623 443.696,220.202 443.400,220.800 443.039 C 221.398 442.679,221.976 442.439,222.084 442.506 C 222.192 442.573,222.225 442.539,222.159 442.430 C 222.012 442.194,222.548 441.954,222.831 442.129 C 222.948 442.201,222.975 442.163,222.896 442.036 C 222.775 441.839,223.009 441.732,223.408 441.801 C 223.493 441.816,223.513 441.748,223.452 441.650 C 223.344 441.474,224.042 441.142,224.346 441.224 C 224.431 441.247,224.452 441.188,224.394 441.093 C 224.267 440.888,224.807 440.646,225.052 440.798 C 225.146 440.856,225.223 440.809,225.223 440.694 C 225.223 440.579,225.320 440.544,225.439 440.618 C 225.566 440.697,225.605 440.670,225.533 440.553 C 225.376 440.299,227.031 439.317,227.317 439.494 C 227.449 439.576,227.479 439.543,227.396 439.409 C 227.318 439.283,227.405 439.137,227.602 439.064 C 227.789 438.994,228.341 438.693,228.829 438.395 C 229.316 438.097,229.815 437.915,229.936 437.990 C 230.075 438.076,230.106 438.045,230.022 437.908 C 229.872 437.666,230.635 437.297,230.942 437.464 C 231.045 437.520,231.069 437.498,230.994 437.416 C 230.872 437.281,232.179 436.333,232.903 436.032 C 233.222 435.900,235.603 434.515,236.701 433.823 C 237.097 433.574,237.540 433.432,237.732 433.494 C 238.014 433.585,238.023 433.570,237.787 433.401 C 237.537 433.221,237.537 433.198,237.787 433.192 C 237.942 433.188,238.656 432.804,239.373 432.340 C 240.091 431.875,240.791 431.538,240.930 431.591 C 241.069 431.645,241.134 431.611,241.076 431.516 C 240.971 431.346,241.676 431.017,241.974 431.097 C 242.059 431.120,242.075 431.053,242.009 430.947 C 241.901 430.771,242.153 430.671,242.536 430.737 C 242.621 430.752,242.646 430.692,242.591 430.603 C 242.457 430.386,243.760 429.777,244.017 429.937 C 244.136 430.010,244.167 429.976,244.092 429.854 C 243.942 429.611,244.978 429.014,245.201 429.215 C 245.282 429.288,245.279 429.229,245.194 429.082 C 245.078 428.882,245.119 428.846,245.361 428.939 C 245.540 429.008,245.635 428.986,245.576 428.889 C 245.445 428.678,247.262 427.734,247.459 427.911 C 247.536 427.979,247.544 427.939,247.476 427.821 C 247.333 427.570,247.855 427.321,248.147 427.501 C 248.266 427.575,248.292 427.536,248.210 427.403 C 248.078 427.190,249.120 426.676,249.475 426.781 C 249.560 426.806,249.576 426.740,249.511 426.634 C 249.402 426.458,249.654 426.358,250.037 426.424 C 250.122 426.439,250.144 426.373,250.085 426.278 C 249.950 426.060,250.506 425.836,250.773 426.001 C 250.891 426.074,250.917 426.036,250.837 425.906 C 250.690 425.668,251.454 425.291,251.740 425.461 C 251.833 425.517,251.853 425.471,251.784 425.359 C 251.664 425.165,252.336 424.821,252.663 424.909 C 252.748 424.932,252.772 424.878,252.717 424.789 C 252.576 424.560,254.054 423.765,254.318 423.927 C 254.453 424.011,254.484 423.980,254.401 423.845 C 254.275 423.641,254.527 423.538,254.946 423.622 C 255.049 423.643,255.070 423.596,254.992 423.519 C 254.822 423.348,256.209 422.491,256.717 422.453 C 256.915 422.438,257.035 422.359,256.985 422.277 C 256.899 422.138,257.190 422.050,257.539 422.111 C 257.624 422.126,257.648 422.065,257.593 421.976 C 257.461 421.763,258.921 420.946,259.165 421.097 C 259.268 421.161,259.353 421.130,259.353 421.029 C 259.353 420.733,261.479 419.487,261.784 419.604 C 261.936 419.663,262.001 419.650,261.927 419.577 C 261.742 419.392,264.078 417.979,264.379 418.093 C 264.513 418.144,264.580 418.116,264.527 418.031 C 264.417 417.852,265.800 417.027,265.983 417.162 C 266.049 417.212,266.063 417.198,266.013 417.131 C 265.963 417.063,266.068 416.902,266.246 416.772 C 266.490 416.593,266.605 416.589,266.709 416.753 C 266.805 416.904,266.850 416.884,266.853 416.690 C 266.858 416.365,267.753 415.894,268.035 416.068 C 268.140 416.133,268.168 416.093,268.097 415.978 C 267.938 415.722,268.658 415.311,268.950 415.491 C 269.082 415.573,269.111 415.539,269.026 415.402 C 268.894 415.188,269.936 414.674,270.291 414.779 C 270.376 414.804,270.401 414.753,270.348 414.666 C 270.294 414.580,270.499 414.362,270.803 414.182 C 271.106 414.003,271.355 413.919,271.355 413.996 C 271.355 414.073,271.462 413.990,271.593 413.811 C 271.724 413.632,272.013 413.472,272.236 413.455 C 272.459 413.438,272.613 413.378,272.578 413.322 C 272.488 413.176,274.893 411.754,275.276 411.725 C 275.450 411.712,275.786 411.509,276.021 411.274 C 276.526 410.769,277.553 410.302,277.823 410.455 C 277.927 410.514,277.947 410.490,277.867 410.402 C 277.732 410.254,279.500 409.015,279.859 409.006 C 279.946 409.003,280.262 408.827,280.560 408.614 C 280.859 408.402,281.183 408.276,281.280 408.336 C 281.376 408.396,281.517 408.346,281.591 408.225 C 281.676 408.088,281.646 408.056,281.510 408.140 C 281.391 408.213,281.294 408.228,281.294 408.172 C 281.294 407.962,282.817 407.305,283.017 407.429 C 283.133 407.501,283.175 407.475,283.112 407.373 C 282.966 407.137,285.240 405.776,285.570 405.903 C 285.704 405.954,285.765 405.917,285.704 405.819 C 285.569 405.599,286.629 405.028,286.832 405.211 C 286.914 405.285,286.914 405.230,286.833 405.090 C 286.722 404.898,286.779 404.865,287.068 404.957 C 287.279 405.024,287.505 404.992,287.570 404.886 C 287.641 404.771,287.572 404.738,287.398 404.804 C 287.238 404.866,287.107 404.867,287.107 404.806 C 287.107 404.605,288.656 403.946,288.850 404.066 C 288.956 404.131,288.984 404.092,288.913 403.976 C 288.754 403.720,289.474 403.309,289.766 403.490 C 289.906 403.576,289.926 403.536,289.825 403.373 C 289.712 403.191,289.757 403.157,289.993 403.248 C 290.210 403.331,290.271 403.300,290.181 403.154 C 290.090 403.008,290.151 402.977,290.368 403.060 C 290.559 403.134,290.643 403.108,290.575 402.998 C 290.466 402.821,290.743 402.726,291.139 402.806 C 291.242 402.827,291.264 402.781,291.187 402.705 C 290.988 402.505,291.753 402.014,292.012 402.175 C 292.135 402.250,292.178 402.226,292.112 402.119 C 291.964 401.880,292.873 401.452,293.169 401.622 C 293.290 401.691,293.326 401.678,293.248 401.592 C 293.062 401.387,294.630 400.347,294.946 400.466 C 295.081 400.517,295.143 400.481,295.085 400.388 C 294.947 400.164,296.092 399.595,296.366 399.752 C 296.482 399.818,296.515 399.803,296.438 399.719 C 296.284 399.548,296.543 399.344,297.797 398.650 C 298.261 398.392,299.072 397.916,299.599 397.591 C 300.126 397.266,300.619 397.000,300.695 397.000 C 300.771 397.000,301.077 396.825,301.376 396.613 C 301.675 396.400,302.018 396.286,302.137 396.360 C 302.270 396.442,302.305 396.413,302.226 396.286 C 302.066 396.027,303.534 395.243,303.833 395.427 C 303.961 395.506,303.991 395.473,303.909 395.341 C 303.788 395.144,304.021 395.037,304.421 395.107 C 304.506 395.121,304.529 395.059,304.473 394.968 C 304.331 394.738,306.185 393.758,306.451 393.923 C 306.586 394.006,306.618 393.975,306.535 393.841 C 306.413 393.644,306.647 393.537,307.046 393.606 C 307.131 393.621,307.153 393.555,307.094 393.460 C 306.957 393.239,308.480 392.477,308.751 392.631 C 308.863 392.694,308.893 392.679,308.819 392.596 C 308.612 392.368,310.304 391.367,310.687 391.490 C 310.934 391.570,310.954 391.551,310.767 391.417 C 310.463 391.199,311.014 390.916,311.345 391.121 C 311.462 391.193,311.489 391.155,311.410 391.028 C 311.289 390.831,311.523 390.724,311.922 390.794 C 312.007 390.808,312.033 390.750,311.981 390.665 C 311.928 390.580,312.407 390.226,313.045 389.880 C 313.683 389.534,314.437 389.090,314.720 388.894 C 315.003 388.698,315.340 388.598,315.470 388.673 C 315.600 388.747,315.644 388.740,315.568 388.656 C 315.492 388.573,315.576 388.397,315.754 388.267 C 315.998 388.089,316.113 388.084,316.217 388.249 C 316.308 388.391,316.357 388.353,316.359 388.139 C 316.361 387.958,316.448 387.811,316.553 387.811 C 316.659 387.811,317.076 387.592,317.480 387.324 C 317.898 387.047,318.314 386.898,318.443 386.978 C 318.589 387.068,318.622 387.040,318.533 386.897 C 318.394 386.672,319.454 386.172,319.831 386.285 C 319.934 386.316,319.955 386.278,319.877 386.199 C 319.678 386.001,320.671 385.383,320.991 385.506 C 321.148 385.566,321.231 385.503,321.198 385.349 C 321.166 385.193,321.307 385.089,321.556 385.086 C 321.782 385.083,322.036 385.006,322.118 384.915 C 322.203 384.823,322.166 384.810,322.035 384.885 C 321.906 384.959,321.800 384.975,321.800 384.920 C 321.800 384.726,322.880 384.264,323.026 384.396 C 323.107 384.469,323.119 384.434,323.053 384.319 C 322.928 384.099,325.021 382.868,325.242 383.032 C 325.309 383.082,325.321 383.066,325.269 382.997 C 325.144 382.830,326.579 381.981,327.045 381.946 C 327.246 381.931,327.372 381.880,327.325 381.834 C 327.142 381.650,328.542 380.879,328.868 380.985 C 329.128 381.069,329.147 381.052,328.948 380.910 C 328.743 380.764,328.781 380.697,329.136 380.587 C 329.382 380.510,329.814 380.285,330.097 380.085 C 330.380 379.886,330.699 379.777,330.805 379.843 C 330.911 379.908,330.975 379.850,330.947 379.714 C 330.918 379.577,331.041 379.477,331.222 379.491 C 331.401 379.505,331.509 379.454,331.462 379.378 C 331.336 379.175,332.291 378.782,332.550 378.931 C 332.672 379.000,332.708 378.988,332.631 378.903 C 332.389 378.635,336.063 376.457,336.338 376.705 C 336.420 376.779,336.434 376.746,336.368 376.630 C 336.222 376.375,338.062 375.378,338.349 375.556 C 338.463 375.627,338.494 375.590,338.420 375.472 C 338.262 375.216,338.982 374.805,339.273 374.985 C 339.395 375.060,339.435 375.033,339.366 374.922 C 339.247 374.730,340.313 374.173,340.614 374.269 C 340.699 374.296,340.725 374.247,340.671 374.160 C 340.531 373.934,341.636 373.323,341.895 373.483 C 342.039 373.572,342.060 373.533,341.958 373.368 C 341.846 373.186,341.891 373.153,342.126 373.243 C 342.343 373.326,342.404 373.296,342.314 373.149 C 342.221 372.999,342.289 372.974,342.533 373.068 C 342.727 373.142,342.825 373.142,342.750 373.067 C 342.472 372.789,345.477 371.019,345.857 371.237 C 345.983 371.309,346.022 371.298,345.944 371.212 C 345.814 371.069,347.216 369.998,347.535 369.996 C 347.610 369.996,348.144 369.693,348.721 369.324 C 349.298 368.955,349.895 368.701,350.047 368.760 C 350.200 368.818,350.278 368.791,350.221 368.699 C 350.082 368.474,351.405 367.708,351.661 367.866 C 351.778 367.938,351.809 367.903,351.734 367.781 C 351.574 367.522,353.042 366.738,353.341 366.923 C 353.468 367.002,353.498 366.968,353.417 366.836 C 353.295 366.640,353.529 366.533,353.929 366.602 C 354.014 366.617,354.037 366.555,353.981 366.464 C 353.839 366.233,355.692 365.254,355.959 365.418 C 356.087 365.497,356.126 365.471,356.053 365.354 C 355.915 365.130,357.434 364.173,357.993 364.130 C 358.191 364.115,358.312 364.063,358.263 364.014 C 358.101 363.852,359.880 362.854,360.094 362.986 C 360.212 363.059,360.249 363.030,360.180 362.918 C 360.034 362.682,360.569 362.441,360.852 362.616 C 360.970 362.689,360.997 362.651,360.918 362.523 C 360.792 362.319,361.044 362.216,361.463 362.300 C 361.566 362.321,361.588 362.275,361.511 362.198 C 361.312 361.999,362.076 361.508,362.336 361.668 C 362.459 361.744,362.502 361.720,362.435 361.613 C 362.287 361.374,363.197 360.946,363.493 361.115 C 363.614 361.185,363.650 361.172,363.573 361.087 C 363.381 360.876,364.699 360.006,364.964 360.170 C 365.105 360.257,365.125 360.217,365.024 360.053 C 364.913 359.873,364.956 359.838,365.180 359.924 C 365.351 359.989,365.481 359.983,365.470 359.909 C 365.416 359.542,365.520 359.430,365.682 359.681 C 365.837 359.922,365.864 359.915,365.867 359.634 C 365.868 359.454,365.956 359.306,366.061 359.306 C 366.167 359.306,366.584 359.087,366.988 358.820 C 367.406 358.543,367.821 358.394,367.951 358.473 C 368.089 358.559,368.129 358.535,368.053 358.412 C 367.901 358.166,369.017 357.575,369.315 357.745 C 369.431 357.812,369.463 357.796,369.384 357.709 C 369.219 357.527,370.179 356.844,370.406 356.984 C 370.489 357.036,370.558 356.997,370.558 356.899 C 370.558 356.648,372.358 355.733,372.535 355.893 C 372.615 355.965,372.627 355.930,372.561 355.814 C 372.418 355.563,374.554 354.370,374.780 354.575 C 374.863 354.650,374.881 354.623,374.819 354.514 C 374.757 354.405,375.099 354.110,375.579 353.858 C 376.059 353.605,376.953 353.083,377.566 352.696 C 378.727 351.962,379.103 351.830,378.898 352.227 C 378.831 352.356,378.932 352.285,379.121 352.070 C 379.676 351.439,380.664 350.832,380.900 350.978 C 381.030 351.059,381.067 351.031,380.992 350.910 C 380.865 350.705,381.554 350.372,381.903 350.471 C 382.007 350.500,382.030 350.463,381.957 350.389 C 381.883 350.315,382.156 350.013,382.564 349.717 C 383.357 349.143,383.601 349.047,383.386 349.396 C 383.302 349.531,383.334 349.562,383.472 349.477 C 383.592 349.402,383.643 349.263,383.583 349.167 C 383.484 349.006,383.751 348.910,384.121 348.974 C 384.206 348.989,384.229 348.926,384.172 348.834 C 384.115 348.741,384.594 348.257,385.236 347.756 C 385.879 347.256,386.884 346.393,387.471 345.839 C 388.058 345.284,388.617 344.879,388.712 344.938 C 388.808 344.997,389.045 344.864,389.239 344.642 C 389.433 344.421,389.487 344.301,389.358 344.376 C 388.963 344.607,389.097 344.206,389.559 343.772 C 389.799 343.547,390.066 343.427,390.152 343.505 C 390.238 343.583,390.255 343.553,390.189 343.438 C 390.042 343.179,390.689 342.562,390.903 342.756 C 390.989 342.834,390.995 342.787,390.917 342.651 C 390.745 342.354,391.339 341.635,391.615 341.806 C 391.724 341.873,391.750 341.832,391.675 341.711 C 391.504 341.433,392.310 340.346,392.576 340.497 C 392.688 340.561,392.720 340.547,392.646 340.465 C 392.440 340.237,392.860 339.586,393.118 339.734 C 393.241 339.805,393.282 339.796,393.209 339.715 C 393.026 339.512,393.411 338.828,393.631 338.964 C 393.731 339.025,393.754 338.932,393.684 338.751 C 393.593 338.515,393.627 338.470,393.809 338.582 C 393.968 338.681,394.012 338.663,393.932 338.534 C 393.863 338.423,393.987 338.026,394.208 337.653 C 394.428 337.280,394.577 336.947,394.538 336.914 C 394.346 336.748,392.641 335.715,391.561 335.110 C 390.891 334.735,389.920 334.191,389.405 333.902 C 388.889 333.613,388.383 333.315,388.279 333.239 C 388.106 333.110,387.039 332.491,380.684 328.830 C 379.395 328.087,377.581 327.032,376.653 326.486 C 375.724 325.939,374.416 325.181,373.746 324.801 C 372.148 323.895,368.067 321.538,366.057 320.361 C 362.909 318.518,360.662 317.214,357.618 315.461 C 353.104 312.862,350.061 311.102,348.148 309.983 C 347.220 309.440,344.815 308.048,342.804 306.889 C 340.792 305.731,338.429 304.366,337.553 303.855 C 334.421 302.030,332.275 300.781,330.474 299.738 C 329.468 299.156,327.928 298.258,327.051 297.743 C 325.463 296.810,323.862 295.893,322.082 294.896 C 321.566 294.607,321.060 294.309,320.956 294.232 C 320.853 294.156,319.647 293.450,318.275 292.662 C 316.904 291.875,315.587 291.103,315.350 290.947 C 314.924 290.668,314.903 290.691,313.830 292.590 " stroke="none" fill="#1a4674" fill-rule="evenodd"></path><path id="path3" d="M391.749 113.993 C 390.356 114.797,387.234 116.596,384.810 117.991 C 382.386 119.386,378.209 121.794,375.527 123.342 C 372.846 124.889,368.922 127.150,366.807 128.365 C 357.027 133.987,355.533 134.847,348.242 139.056 C 346.953 139.800,344.168 141.403,342.053 142.618 C 337.922 144.993,334.645 146.879,327.989 150.714 C 325.668 152.050,321.744 154.309,319.269 155.734 C 316.793 157.158,314.641 158.425,314.487 158.551 C 314.332 158.676,313.024 159.456,311.580 160.284 C 310.136 161.112,308.111 162.279,307.079 162.877 C 306.048 163.475,304.655 164.274,303.985 164.653 C 303.315 165.032,301.036 166.339,298.922 167.558 C 296.807 168.777,294.023 170.380,292.733 171.120 C 291.444 171.859,289.545 172.957,288.514 173.559 C 287.482 174.161,286.090 174.963,285.420 175.342 C 284.749 175.721,282.492 177.014,280.403 178.217 C 278.315 179.419,274.939 181.362,272.902 182.534 C 270.865 183.706,267.848 185.449,266.198 186.406 C 260.534 189.692,256.763 191.842,256.665 191.842 C 256.611 191.842,254.936 192.782,252.943 193.931 C 249.435 195.954,245.793 198.050,238.162 202.438 C 236.151 203.595,231.467 206.292,227.754 208.431 C 224.041 210.571,219.273 213.317,217.159 214.534 C 215.045 215.751,210.572 218.325,207.220 220.255 C 203.868 222.185,200.725 223.967,200.235 224.215 C 199.745 224.463,199.344 224.709,199.344 224.762 C 199.344 224.814,199.583 224.734,199.875 224.582 C 200.361 224.331,200.462 224.341,201.047 224.700 C 201.702 225.101,203.583 226.199,207.407 228.413 C 208.594 229.100,210.703 230.322,212.096 231.128 C 213.488 231.935,215.682 233.203,216.971 233.946 C 218.261 234.690,220.666 236.082,222.316 237.040 C 223.966 237.998,226.414 239.415,227.754 240.188 C 229.095 240.961,230.656 241.862,231.224 242.190 C 240.058 247.308,242.072 248.476,243.507 249.315 C 244.435 249.858,245.617 250.537,246.132 250.824 C 246.648 251.111,247.450 251.575,247.914 251.854 C 248.378 252.133,249.580 252.838,250.586 253.420 C 251.592 254.001,253.195 254.933,254.149 255.490 C 255.103 256.047,256.517 256.832,257.290 257.235 C 258.748 257.995,259.239 258.271,262.072 259.924 C 265.337 261.829,265.844 262.123,268.261 263.517 C 269.602 264.290,271.036 265.119,271.449 265.360 C 274.867 267.353,277.870 269.095,280.169 270.418 C 281.664 271.279,284.618 272.991,286.732 274.221 C 288.847 275.452,291.146 276.787,291.842 277.189 C 293.885 278.366,295.427 279.260,299.109 281.399 C 301.017 282.508,303.654 284.035,304.970 284.792 C 306.285 285.550,308.436 286.790,309.752 287.547 C 313.249 289.563,314.071 290.055,315.424 290.946 C 316.626 291.737,319.518 293.433,324.238 296.114 C 324.909 296.495,326.174 297.228,327.051 297.743 C 327.928 298.258,329.468 299.156,330.474 299.738 C 332.275 300.781,334.421 302.030,337.553 303.855 C 338.429 304.366,340.792 305.731,342.804 306.889 C 344.815 308.048,347.220 309.440,348.148 309.983 C 350.061 311.102,353.104 312.862,357.618 315.461 C 360.662 317.214,362.909 318.518,366.057 320.361 C 368.067 321.538,372.148 323.895,373.746 324.801 C 374.416 325.181,375.724 325.939,376.653 326.486 C 377.581 327.032,379.395 328.087,380.684 328.830 C 387.039 332.491,388.106 333.110,388.279 333.239 C 388.383 333.315,388.889 333.613,389.405 333.902 C 389.920 334.191,390.891 334.735,391.561 335.110 C 392.639 335.714,394.345 336.747,394.538 336.913 C 394.681 337.037,393.525 338.842,392.025 340.835 C 389.006 344.845,385.388 348.020,380.169 351.237 C 379.627 351.571,379.184 351.885,379.184 351.936 C 379.184 351.986,379.459 351.851,379.794 351.636 C 380.129 351.421,380.699 351.109,381.060 350.941 C 381.421 350.774,381.758 350.578,381.810 350.506 C 381.861 350.433,382.325 350.091,382.841 349.746 C 386.565 347.254,390.372 343.618,392.720 340.307 C 394.286 338.100,396.974 333.088,396.993 332.341 C 396.997 332.208,397.290 331.263,397.646 330.241 C 398.467 327.883,399.224 323.381,399.460 319.456 C 399.651 316.297,399.520 130.802,399.326 128.364 C 399.125 125.837,398.283 121.409,397.644 119.521 C 397.289 118.473,397.000 117.516,397.000 117.393 C 397.000 117.178,395.835 114.625,395.118 113.268 C 394.632 112.348,394.575 112.361,391.749 113.993 M318.050 209.376 L 318.050 216.971 325.645 216.971 L 333.240 216.971 333.240 224.660 L 333.240 232.349 325.645 232.349 L 318.050 232.349 318.050 239.944 L 318.050 247.539 310.455 247.539 L 302.860 247.539 302.860 239.944 L 302.860 232.349 295.265 232.349 L 287.670 232.349 287.670 224.660 L 287.670 216.971 295.265 216.971 L 302.860 216.971 302.860 209.376 L 302.860 201.782 310.455 201.782 L 318.050 201.782 318.050 209.376 M373.558 209.376 L 373.558 216.971 381.153 216.971 L 388.748 216.971 388.748 224.660 L 388.748 232.349 381.153 232.349 L 373.558 232.349 373.558 239.944 L 373.558 247.539 365.870 247.539 L 358.181 247.539 358.181 239.944 L 358.181 232.349 350.586 232.349 L 342.991 232.349 342.991 224.660 L 342.991 216.971 350.586 216.971 L 358.181 216.971 358.181 209.376 L 358.181 201.782 365.870 201.782 L 373.558 201.782 373.558 209.376 M194.984 227.205 C 194.283 227.586,194.325 227.744,195.030 227.379 C 195.340 227.219,195.593 227.048,195.593 226.999 C 195.593 226.879,195.573 226.886,194.984 227.205 M192.358 228.705 C 191.657 229.086,191.700 229.244,192.405 228.880 C 192.714 228.720,192.968 228.549,192.968 228.500 C 192.968 228.379,192.948 228.386,192.358 228.705 M187.482 231.518 C 186.781 231.899,186.824 232.057,187.529 231.692 C 187.839 231.532,188.092 231.361,188.092 231.313 C 188.092 231.192,188.072 231.199,187.482 231.518 M181.294 235.081 C 180.593 235.462,180.636 235.620,181.341 235.256 C 181.650 235.095,181.903 234.925,181.903 234.876 C 181.903 234.755,181.883 234.762,181.294 235.081 M176.418 237.894 C 175.717 238.275,175.760 238.433,176.465 238.068 C 176.774 237.908,177.028 237.737,177.028 237.689 C 177.028 237.568,177.008 237.575,176.418 237.894 M173.793 239.395 C 173.092 239.775,173.134 239.933,173.840 239.569 C 174.149 239.409,174.402 239.238,174.402 239.189 C 174.402 239.068,174.382 239.075,173.793 239.395 M166.292 243.708 C 165.591 244.088,165.633 244.247,166.338 243.882 C 166.648 243.722,166.901 243.551,166.901 243.502 C 166.901 243.381,166.881 243.388,166.292 243.708 M157.853 248.584 C 157.152 248.964,157.194 249.122,157.900 248.758 C 158.209 248.598,158.462 248.427,158.462 248.378 C 158.462 248.257,158.442 248.264,157.853 248.584 M152.977 251.397 C 152.276 251.777,152.319 251.935,153.024 251.571 C 153.333 251.411,153.586 251.240,153.586 251.191 C 153.586 251.070,153.566 251.077,152.977 251.397 M150.352 252.897 C 149.651 253.277,149.693 253.436,150.398 253.071 C 150.708 252.911,150.961 252.740,150.961 252.691 C 150.961 252.570,150.941 252.577,150.352 252.897 M145.476 255.710 C 144.775 256.090,144.817 256.248,145.523 255.884 C 145.832 255.724,146.085 255.553,146.085 255.504 C 146.085 255.383,146.065 255.390,145.476 255.710 M142.850 257.210 C 142.149 257.590,142.192 257.749,142.897 257.384 C 143.207 257.224,143.460 257.053,143.460 257.004 C 143.460 256.883,143.440 256.890,142.850 257.210 M246.408 271.308 L 245.195 272.574 246.460 271.360 C 247.636 270.233,247.812 270.042,247.674 270.042 C 247.645 270.042,247.076 270.612,246.408 271.308 M197.328 290.800 C 197.508 290.847,197.804 290.847,197.984 290.800 C 198.165 290.753,198.017 290.714,197.656 290.714 C 197.295 290.714,197.147 290.753,197.328 290.800 M201.362 290.803 C 201.595 290.848,201.933 290.846,202.112 290.799 C 202.291 290.752,202.100 290.716,201.688 290.718 C 201.275 290.720,201.129 290.758,201.362 290.803 M82.654 291.903 C 81.952 292.283,81.995 292.442,82.700 292.077 C 83.010 291.917,83.263 291.746,83.263 291.697 C 83.263 291.576,83.243 291.583,82.654 291.903 M77.778 294.716 C 77.077 295.096,77.119 295.255,77.825 294.890 C 78.134 294.730,78.387 294.559,78.387 294.510 C 78.387 294.389,78.367 294.396,77.778 294.716 M66.714 301.092 C 66.012 301.472,66.055 301.631,66.760 301.266 C 67.070 301.106,67.323 300.935,67.323 300.886 C 67.323 300.765,67.303 300.772,66.714 301.092 M64.463 302.404 C 63.762 302.785,63.805 302.943,64.510 302.579 C 64.820 302.419,65.073 302.248,65.073 302.199 C 65.073 302.078,65.053 302.085,64.463 302.404 M61.838 303.905 C 61.137 304.285,61.179 304.443,61.885 304.079 C 62.194 303.919,62.447 303.748,62.447 303.699 C 62.447 303.578,62.427 303.585,61.838 303.905 M56.962 306.718 C 56.261 307.098,56.304 307.256,57.009 306.892 C 57.318 306.732,57.571 306.561,57.571 306.512 C 57.571 306.391,57.551 306.398,56.962 306.718 M54.337 308.218 C 53.636 308.598,53.678 308.757,54.383 308.392 C 54.693 308.232,54.946 308.061,54.946 308.012 C 54.946 307.891,54.926 307.898,54.337 308.218 M298.441 313.408 L 297.890 314.018 298.500 313.467 C 299.068 312.954,299.195 312.799,299.051 312.799 C 299.018 312.799,298.744 313.073,298.441 313.408 M101.266 313.983 C 101.266 314.015,101.540 314.289,101.875 314.592 L 102.485 315.143 101.934 314.534 C 101.421 313.965,101.266 313.838,101.266 313.983 M43.272 314.594 C 42.571 314.974,42.614 315.133,43.319 314.768 C 43.629 314.608,43.882 314.437,43.882 314.388 C 43.882 314.267,43.862 314.274,43.272 314.594 M105.763 318.659 C 106.844 319.768,107.751 320.675,107.779 320.675 C 107.915 320.675,107.686 320.435,105.813 318.609 L 103.797 316.643 105.763 318.659 M38.397 317.407 C 37.696 317.787,37.738 317.946,38.444 317.581 C 38.753 317.421,39.006 317.250,39.006 317.201 C 39.006 317.080,38.986 317.087,38.397 317.407 M35.771 318.907 C 35.070 319.287,35.113 319.446,35.818 319.081 C 36.128 318.921,36.381 318.750,36.381 318.701 C 36.381 318.581,36.361 318.587,35.771 318.907 M290.380 321.660 L 289.639 322.457 290.436 321.715 C 291.177 321.026,291.319 320.863,291.177 320.863 C 291.147 320.863,290.788 321.221,290.380 321.660 M109.517 322.234 C 109.517 322.266,109.791 322.541,110.127 322.843 L 110.736 323.394 110.185 322.785 C 109.672 322.217,109.517 322.089,109.517 322.234 M28.270 323.220 C 27.569 323.601,27.612 323.759,28.317 323.394 C 28.626 323.234,28.880 323.063,28.880 323.014 C 28.880 322.894,28.859 322.901,28.270 323.220 M17.206 329.596 C 16.505 329.977,16.547 330.135,17.253 329.770 C 17.562 329.610,17.815 329.439,17.815 329.390 C 17.815 329.270,17.795 329.277,17.206 329.596 M14.955 330.909 C 14.254 331.289,14.297 331.448,15.002 331.083 C 15.312 330.923,15.565 330.752,15.565 330.703 C 15.565 330.582,15.545 330.589,14.955 330.909 M12.330 332.409 C 11.629 332.790,11.672 332.948,12.377 332.583 C 12.686 332.423,12.940 332.252,12.940 332.203 C 12.940 332.083,12.919 332.089,12.330 332.409 M9.705 333.909 C 9.004 334.290,9.046 334.448,9.752 334.083 C 10.061 333.923,10.314 333.752,10.314 333.704 C 10.314 333.583,10.294 333.590,9.705 333.909 M7.454 335.222 C 6.753 335.602,6.796 335.761,7.501 335.396 C 7.811 335.236,8.064 335.065,8.064 335.016 C 8.064 334.896,8.044 334.902,7.454 335.222 M5.016 336.630 C 4.479 336.943,5.497 339.178,6.804 340.553 C 6.951 340.708,7.231 341.085,7.427 341.391 C 8.579 343.193,14.030 348.311,15.940 349.385 C 16.198 349.530,16.578 349.782,16.784 349.946 C 17.193 350.272,19.563 351.706,21.176 352.606 C 21.735 352.917,22.485 353.371,22.843 353.614 C 23.201 353.857,23.564 354.055,23.651 354.055 C 23.738 354.055,24.271 354.351,24.835 354.712 C 25.399 355.073,25.938 355.368,26.032 355.368 C 26.126 355.368,26.405 355.526,26.651 355.719 C 26.897 355.912,27.773 356.448,28.598 356.909 C 31.083 358.300,34.923 360.519,35.767 361.054 C 36.204 361.330,36.617 361.556,36.685 361.556 C 36.753 361.556,37.343 361.894,37.997 362.307 C 38.650 362.719,39.231 363.057,39.287 363.057 C 39.344 363.057,39.925 363.394,40.578 363.807 C 41.231 364.219,41.828 364.557,41.904 364.557 C 41.980 364.557,42.269 364.718,42.546 364.915 C 42.822 365.112,43.426 365.475,43.887 365.721 C 45.049 366.342,46.582 367.237,46.695 367.361 C 46.746 367.417,46.905 367.489,47.048 367.519 C 47.191 367.549,47.655 367.812,48.080 368.103 C 48.504 368.393,49.231 368.823,49.695 369.058 C 50.159 369.292,50.898 369.730,51.336 370.030 C 51.774 370.330,52.133 370.524,52.133 370.460 C 52.133 370.397,52.365 370.507,52.649 370.706 C 52.932 370.905,53.376 371.169,53.633 371.294 L 54.102 371.521 53.633 371.141 C 53.376 370.932,52.574 370.434,51.852 370.034 C 51.130 369.634,49.400 368.647,48.008 367.840 C 46.615 367.033,44.927 366.065,44.257 365.689 C 43.586 365.312,42.681 364.777,42.245 364.499 C 41.808 364.222,41.396 363.994,41.327 363.994 C 41.259 363.994,40.669 363.657,40.015 363.244 C 39.362 362.832,38.781 362.494,38.725 362.494 C 38.668 362.494,38.087 362.157,37.434 361.744 C 36.781 361.331,36.190 360.994,36.121 360.994 C 36.053 360.994,35.462 360.656,34.809 360.244 C 34.155 359.831,33.565 359.494,33.496 359.494 C 33.427 359.494,32.846 359.172,32.204 358.778 C 30.444 357.699,28.852 356.769,28.223 356.454 C 27.914 356.299,27.154 355.869,26.535 355.499 C 25.917 355.129,25.030 354.607,24.566 354.338 C 24.102 354.070,23.021 353.432,22.163 352.921 C 21.305 352.410,20.571 351.992,20.533 351.992 C 20.359 351.992,16.880 349.795,15.499 348.813 C 13.581 347.449,10.726 344.905,9.376 343.359 C 8.809 342.708,8.153 341.959,7.918 341.693 C 6.126 339.666,4.711 337.062,5.200 336.692 C 5.592 336.394,5.484 336.358,5.016 336.630 M377.519 352.743 C 376.881 353.155,376.319 353.493,376.270 353.493 C 376.170 353.493,373.083 355.262,371.945 355.972 C 371.543 356.222,371.067 356.481,370.886 356.548 C 370.706 356.614,370.558 356.751,370.558 356.851 C 370.558 356.952,371.166 356.659,371.909 356.201 C 372.652 355.743,373.340 355.368,373.438 355.368 C 373.536 355.368,373.878 355.170,374.197 354.927 C 374.516 354.684,375.073 354.337,375.434 354.156 C 376.368 353.686,378.997 352.139,378.997 352.060 C 378.997 351.867,378.566 352.066,377.519 352.743 M369.896 357.122 C 369.693 357.262,369.020 357.654,368.401 357.993 C 367.782 358.332,367.052 358.766,366.778 358.958 C 366.505 359.149,366.188 359.306,366.075 359.306 C 365.962 359.306,365.870 359.398,365.870 359.511 C 365.870 359.624,366.144 359.545,366.479 359.337 C 366.814 359.128,367.722 358.608,368.495 358.181 C 369.269 357.754,370.025 357.284,370.176 357.136 C 370.523 356.798,370.379 356.791,369.896 357.122 M196.109 357.563 C 196.341 357.608,196.721 357.608,196.953 357.563 C 197.185 357.518,196.995 357.482,196.531 357.482 C 196.067 357.482,195.877 357.518,196.109 357.563 M202.394 357.565 C 202.679 357.609,203.101 357.607,203.331 357.563 C 203.562 357.518,203.329 357.483,202.813 357.484 C 202.297 357.486,202.109 357.522,202.394 357.565 M364.838 360.021 C 364.426 360.287,363.540 360.811,362.869 361.187 C 362.199 361.562,360.933 362.289,360.056 362.801 C 359.180 363.314,358.293 363.831,358.087 363.951 C 357.234 364.446,353.877 366.356,352.743 366.990 C 352.072 367.366,351.167 367.900,350.730 368.178 C 350.294 368.455,349.889 368.683,349.831 368.683 C 349.772 368.683,349.262 368.978,348.698 369.339 C 348.134 369.700,347.623 369.995,347.563 369.995 C 347.462 369.995,346.475 370.565,344.210 371.930 C 343.694 372.241,342.724 372.807,342.053 373.189 C 340.460 374.095,338.214 375.367,337.271 375.898 C 336.859 376.130,335.762 376.767,334.834 377.314 C 333.905 377.861,332.580 378.624,331.889 379.008 C 331.198 379.393,330.383 379.886,330.079 380.103 C 329.774 380.319,329.445 380.497,329.348 380.497 C 329.251 380.497,328.650 380.835,328.011 381.247 C 327.373 381.660,326.811 381.997,326.762 381.997 C 326.663 381.997,323.575 383.767,322.437 384.476 C 322.035 384.726,321.547 384.990,321.351 385.063 C 321.156 385.135,321.043 385.240,321.099 385.296 C 321.199 385.397,323.520 384.135,325.161 383.089 C 325.617 382.798,326.059 382.560,326.144 382.560 C 326.228 382.560,326.890 382.180,327.614 381.716 C 328.338 381.252,328.982 380.872,329.044 380.872 C 329.107 380.872,329.652 380.572,330.255 380.206 C 330.859 379.839,331.418 379.533,331.499 379.526 C 331.580 379.519,331.983 379.281,332.396 378.999 C 332.808 378.716,333.610 378.250,334.177 377.964 C 334.744 377.678,335.470 377.244,335.789 377.001 C 336.108 376.758,336.448 376.559,336.543 376.559 C 336.639 376.559,337.175 376.258,337.734 375.889 C 338.293 375.521,339.051 375.068,339.418 374.883 C 339.784 374.697,341.435 373.761,343.085 372.803 C 344.735 371.844,346.651 370.744,347.342 370.359 C 348.033 369.974,348.848 369.482,349.152 369.265 C 349.457 369.048,349.757 368.870,349.820 368.870 C 349.882 368.870,350.755 368.392,351.760 367.807 C 352.764 367.222,354.152 366.429,354.843 366.045 C 355.534 365.660,356.336 365.183,356.625 364.985 C 356.913 364.786,357.614 364.386,358.181 364.097 C 358.748 363.807,359.414 363.412,359.660 363.219 C 359.906 363.027,360.178 362.869,360.265 362.869 C 360.353 362.869,360.886 362.574,361.450 362.213 C 362.014 361.852,362.532 361.556,362.600 361.556 C 362.697 361.556,365.305 360.011,365.667 359.740 C 366.091 359.421,365.412 359.652,364.838 360.021 M54.270 371.651 C 54.345 371.772,54.472 371.871,54.552 371.871 C 54.633 371.871,55.408 372.289,56.276 372.800 C 57.143 373.311,58.233 373.947,58.697 374.215 C 59.161 374.482,60.258 375.123,61.135 375.640 C 62.011 376.157,62.771 376.587,62.822 376.596 C 62.874 376.606,63.254 376.828,63.666 377.091 C 64.079 377.354,64.796 377.766,65.260 378.007 C 65.724 378.248,66.378 378.620,66.714 378.832 C 67.049 379.045,67.323 379.176,67.323 379.125 C 67.323 378.995,64.934 377.496,64.727 377.496 C 64.636 377.496,64.359 377.338,64.113 377.145 C 63.867 376.952,62.991 376.418,62.166 375.957 C 61.341 375.497,59.844 374.642,58.839 374.058 C 57.834 373.474,56.971 372.996,56.920 372.996 C 56.870 372.996,56.363 372.698,55.793 372.333 C 54.582 371.558,54.071 371.330,54.270 371.651 M67.516 379.139 C 67.522 379.287,68.777 380.075,70.590 381.068 C 71.200 381.403,71.993 381.875,72.351 382.118 C 72.708 382.361,73.072 382.560,73.159 382.560 C 73.246 382.560,73.778 382.855,74.343 383.216 C 74.907 383.577,75.436 383.873,75.518 383.873 C 75.601 383.873,76.174 384.211,76.793 384.623 C 77.412 385.035,77.986 385.372,78.068 385.372 C 78.150 385.372,78.657 385.652,79.193 385.993 C 80.618 386.899,80.638 386.909,80.636 386.743 C 80.635 386.660,80.319 386.415,79.933 386.199 C 78.722 385.520,74.573 383.147,73.887 382.740 C 73.526 382.526,72.528 381.934,71.670 381.424 C 70.813 380.914,70.076 380.497,70.033 380.497 C 69.990 380.497,69.405 380.160,68.733 379.749 C 68.061 379.337,67.513 379.063,67.516 379.139 M319.925 385.935 C 319.461 386.244,319.014 386.497,318.931 386.497 C 318.849 386.498,318.320 386.793,317.756 387.154 C 317.191 387.515,316.647 387.811,316.546 387.811 C 316.445 387.811,316.362 387.903,316.362 388.015 C 316.362 388.128,316.636 388.050,316.971 387.841 C 317.307 387.633,318.214 387.113,318.987 386.685 C 320.216 386.007,321.122 385.371,320.856 385.374 C 320.808 385.374,320.389 385.627,319.925 385.935 M80.826 386.808 C 80.826 386.945,83.437 388.512,85.795 389.790 C 86.207 390.014,86.967 390.451,87.482 390.762 C 87.998 391.072,89.095 391.712,89.920 392.182 C 90.745 392.653,91.908 393.345,92.503 393.720 C 93.098 394.096,93.689 394.364,93.816 394.316 C 93.959 394.263,93.904 394.174,93.671 394.081 C 93.465 394.000,92.958 393.720,92.546 393.461 C 91.825 393.008,89.786 391.837,88.608 391.201 C 88.298 391.034,87.528 390.583,86.895 390.198 C 86.263 389.813,85.687 389.498,85.616 389.498 C 85.545 389.498,85.134 389.257,84.703 388.961 C 84.272 388.665,83.497 388.205,82.982 387.937 C 82.466 387.669,81.770 387.270,81.435 387.049 C 81.099 386.829,80.825 386.720,80.826 386.808 M315.331 388.512 C 314.918 388.782,313.483 389.629,312.143 390.393 C 310.802 391.158,309.620 391.850,309.517 391.931 C 309.414 392.013,308.865 392.331,308.298 392.639 C 307.731 392.946,306.655 393.547,305.907 393.974 C 305.159 394.400,303.961 395.078,303.244 395.480 C 302.527 395.882,301.704 396.374,301.416 396.575 C 301.127 396.775,300.743 396.992,300.563 397.057 C 300.383 397.122,299.769 397.473,299.200 397.837 C 298.630 398.202,298.125 398.500,298.077 398.500 C 298.030 398.500,297.439 398.837,296.765 399.250 C 296.091 399.662,295.497 400.000,295.445 400.000 C 295.394 400.000,294.994 400.227,294.558 400.505 C 294.122 400.783,293.216 401.320,292.546 401.698 C 291.875 402.077,290.694 402.745,289.920 403.183 C 289.147 403.621,288.176 404.170,287.764 404.402 C 287.351 404.634,286.254 405.272,285.326 405.819 C 284.398 406.366,283.073 407.128,282.382 407.513 C 281.690 407.898,280.889 408.376,280.600 408.576 C 280.311 408.777,279.928 408.994,279.747 409.059 C 279.567 409.124,278.970 409.465,278.420 409.816 C 277.870 410.168,277.258 410.510,277.060 410.576 C 276.862 410.642,276.489 410.868,276.231 411.078 C 275.580 411.609,277.026 410.907,278.438 410.007 C 278.981 409.660,279.490 409.376,279.567 409.376 C 279.645 409.376,280.157 409.081,280.705 408.720 C 281.253 408.359,281.776 408.064,281.867 408.064 C 281.957 408.064,282.537 407.747,283.156 407.361 C 284.363 406.606,285.725 405.800,287.670 404.691 C 288.340 404.308,289.522 403.631,290.295 403.187 C 291.069 402.742,292.039 402.192,292.452 401.965 C 292.865 401.738,293.962 401.105,294.890 400.558 C 295.818 400.011,297.042 399.314,297.609 399.009 C 298.176 398.704,299.003 398.211,299.447 397.914 C 299.890 397.617,300.301 397.375,300.360 397.375 C 300.419 397.375,300.984 397.060,301.616 396.675 C 302.249 396.290,303.019 395.839,303.329 395.672 C 304.796 394.879,306.643 393.815,307.117 393.489 C 307.406 393.291,308.106 392.893,308.673 392.605 C 309.241 392.317,309.831 391.977,309.986 391.849 C 310.141 391.721,310.520 391.487,310.830 391.330 C 312.062 390.704,314.462 389.354,314.975 388.999 C 315.274 388.791,315.666 388.568,315.846 388.503 C 316.027 388.438,316.174 388.298,316.174 388.192 C 316.174 387.947,316.216 387.931,315.331 388.512 M94.327 394.609 C 94.482 394.775,95.241 395.260,96.015 395.687 C 96.789 396.114,97.696 396.634,98.031 396.843 C 98.366 397.051,98.640 397.151,98.639 397.064 C 98.638 396.977,98.448 396.812,98.217 396.697 C 97.622 396.403,95.279 395.079,94.609 394.660 C 94.190 394.398,94.118 394.385,94.327 394.609 M98.829 397.149 C 98.830 397.222,99.147 397.467,99.533 397.694 C 99.919 397.921,100.593 398.327,101.031 398.595 C 101.470 398.864,101.824 399.016,101.820 398.932 C 101.809 398.745,98.827 396.967,98.829 397.149 M102.017 398.994 C 102.018 399.157,102.600 399.528,103.985 400.249 C 104.398 400.463,105.199 400.935,105.767 401.297 C 106.334 401.659,106.882 401.969,106.985 401.987 C 107.089 402.004,107.635 402.324,108.200 402.697 C 108.765 403.070,109.295 403.376,109.377 403.376 C 109.459 403.376,110.061 403.713,110.714 404.126 C 111.367 404.538,111.954 404.876,112.018 404.876 C 112.083 404.876,112.601 405.174,113.171 405.538 C 113.740 405.903,114.354 406.254,114.534 406.320 C 114.714 406.385,115.199 406.667,115.612 406.945 C 116.024 407.224,116.868 407.718,117.487 408.045 C 118.106 408.371,119.287 409.053,120.113 409.561 C 121.810 410.605,122.466 410.930,122.603 410.793 C 122.655 410.741,122.538 410.639,122.343 410.567 C 122.148 410.494,121.659 410.230,121.257 409.980 C 120.855 409.730,119.716 409.066,118.726 408.506 C 116.728 407.377,116.811 407.425,114.580 406.121 C 113.704 405.608,112.438 404.879,111.767 404.501 C 111.097 404.123,109.726 403.336,108.722 402.751 C 107.717 402.166,106.810 401.688,106.706 401.688 C 106.602 401.688,106.516 401.624,106.515 401.547 C 106.514 401.470,106.325 401.313,106.093 401.198 C 105.402 400.856,103.086 399.538,102.532 399.172 C 102.248 398.985,102.016 398.905,102.017 398.994 M122.832 411.011 C 122.832 411.105,123.106 411.329,123.441 411.509 C 123.776 411.689,124.443 412.064,124.923 412.341 C 126.745 413.396,127.474 413.750,126.957 413.329 C 126.699 413.119,125.940 412.652,125.270 412.291 C 124.599 411.930,123.776 411.456,123.441 411.237 C 123.106 411.019,122.832 410.917,122.832 411.011 M274.637 411.968 C 274.121 412.255,273.361 412.703,272.949 412.963 C 272.536 413.223,272.051 413.490,271.871 413.557 C 271.690 413.623,271.542 413.768,271.542 413.878 C 271.542 414.080,272.280 413.783,272.480 413.501 C 272.532 413.429,273.227 413.012,274.026 412.575 C 274.825 412.139,275.526 411.704,275.584 411.610 C 275.735 411.366,275.680 411.387,274.637 411.968 M127.526 413.654 C 127.533 413.816,128.925 414.681,130.520 415.514 C 131.201 415.870,131.532 415.984,131.271 415.773 C 131.013 415.565,130.591 415.287,130.333 415.156 C 130.075 415.025,129.337 414.605,128.692 414.222 C 128.047 413.839,127.523 413.583,127.526 413.654 M270.417 414.440 C 269.953 414.748,269.506 415.001,269.424 415.002 C 269.341 415.002,268.812 415.298,268.248 415.659 C 267.684 416.020,267.139 416.315,267.038 416.315 C 266.937 416.315,266.854 416.407,266.854 416.520 C 266.854 416.632,267.128 416.554,267.464 416.346 C 267.799 416.137,268.706 415.617,269.480 415.190 C 270.708 414.512,271.614 413.876,271.348 413.878 C 271.300 413.878,270.881 414.131,270.417 414.440 M131.833 416.278 C 131.833 416.377,132.107 416.570,132.443 416.709 C 132.778 416.847,133.578 417.279,134.221 417.669 C 134.863 418.059,135.454 418.380,135.533 418.383 C 135.613 418.386,136.182 418.724,136.799 419.133 C 137.415 419.543,137.992 419.878,138.080 419.878 C 138.167 419.878,138.676 420.158,139.209 420.501 C 140.317 421.213,143.220 422.879,143.352 422.879 C 143.401 422.879,143.804 423.122,144.248 423.419 C 145.079 423.977,146.286 424.668,148.242 425.705 C 148.861 426.033,149.581 426.453,149.843 426.638 C 150.632 427.194,152.576 428.199,152.274 427.894 C 152.119 427.738,151.486 427.336,150.867 427.001 C 150.248 426.666,149.658 426.328,149.555 426.249 C 149.451 426.171,148.903 425.853,148.336 425.544 C 145.910 424.220,144.509 423.424,144.304 423.254 C 144.183 423.154,143.501 422.747,142.788 422.350 C 142.074 421.953,140.740 421.192,139.823 420.659 C 138.906 420.127,138.103 419.691,138.038 419.691 C 137.974 419.691,137.585 419.462,137.174 419.182 C 136.493 418.719,135.647 418.227,132.818 416.649 C 132.276 416.346,131.833 416.180,131.833 416.278 M266.376 416.679 C 266.186 416.869,263.667 418.351,261.510 419.543 C 260.788 419.943,259.986 420.439,259.728 420.648 L 259.259 421.026 259.822 420.731 C 260.131 420.569,260.511 420.356,260.666 420.258 C 261.130 419.964,265.596 417.408,266.151 417.119 C 266.435 416.971,266.667 416.772,266.667 416.676 C 266.667 416.457,266.600 416.457,266.376 416.679 M257.688 421.753 C 257.050 422.166,256.487 422.504,256.438 422.504 C 256.332 422.504,253.164 424.325,252.071 425.016 C 251.645 425.284,251.251 425.504,251.195 425.504 C 251.138 425.504,250.558 425.842,249.905 426.254 C 249.252 426.667,248.659 427.004,248.588 427.004 C 248.517 427.004,247.997 427.300,247.432 427.661 C 246.868 428.022,246.356 428.317,246.295 428.317 C 246.233 428.317,245.581 428.683,244.845 429.131 C 244.109 429.578,242.874 430.307,242.100 430.750 C 241.327 431.194,240.272 431.812,239.756 432.125 C 239.241 432.438,238.397 432.918,237.881 433.193 C 237.365 433.467,236.184 434.139,235.256 434.686 C 234.327 435.233,233.315 435.812,233.005 435.972 C 232.696 436.132,232.004 436.543,231.467 436.884 C 230.931 437.226,230.444 437.506,230.385 437.506 C 230.326 437.506,229.964 437.704,229.579 437.945 C 229.194 438.187,228.373 438.664,227.754 439.006 C 226.213 439.857,225.223 440.489,225.223 440.621 C 225.223 440.681,225.539 440.538,225.926 440.303 C 226.313 440.068,227.159 439.574,227.807 439.206 C 228.905 438.583,229.442 438.273,231.333 437.172 C 231.737 436.937,232.489 436.507,233.005 436.218 C 233.521 435.928,234.365 435.453,234.880 435.164 C 235.396 434.874,236.254 434.354,236.788 434.008 C 237.321 433.663,237.829 433.380,237.917 433.380 C 238.005 433.380,238.503 433.100,239.023 432.757 C 239.544 432.414,240.112 432.079,240.285 432.013 C 240.458 431.946,241.065 431.594,241.635 431.230 C 242.204 430.865,242.735 430.567,242.814 430.567 C 242.892 430.567,243.418 430.266,243.982 429.898 C 244.546 429.530,245.471 428.977,246.038 428.669 C 246.606 428.361,247.618 427.790,248.289 427.401 C 248.959 427.011,250.436 426.166,251.571 425.523 C 252.705 424.881,253.760 424.277,253.915 424.182 C 254.208 424.002,255.041 423.510,257.114 422.290 C 257.791 421.892,258.434 421.566,258.544 421.566 C 258.654 421.566,258.850 421.439,258.978 421.285 C 259.382 420.798,258.890 420.976,257.688 421.753 M152.743 428.282 C 152.846 428.393,153.328 428.696,153.813 428.954 C 154.299 429.212,154.932 429.564,155.220 429.736 L 155.743 430.049 155.274 429.657 C 154.742 429.213,152.455 427.970,152.743 428.282 M155.911 430.160 C 155.985 430.281,156.123 430.380,156.217 430.380 C 156.311 430.380,156.960 430.743,157.659 431.186 C 158.359 431.630,159.184 432.096,159.494 432.223 L 160.056 432.453 159.587 432.076 C 159.330 431.868,158.957 431.645,158.758 431.579 C 158.560 431.513,157.948 431.172,157.398 430.820 C 156.220 430.066,155.714 429.842,155.911 430.160 M160.247 432.636 C 160.322 432.757,160.690 432.998,161.064 433.170 C 161.438 433.342,162.124 433.731,162.588 434.035 C 163.052 434.338,163.812 434.781,164.276 435.018 C 164.740 435.256,165.719 435.808,166.451 436.244 C 167.183 436.680,168.196 437.282,168.701 437.580 C 169.207 437.879,170.633 438.723,171.871 439.456 C 173.108 440.188,174.371 440.897,174.677 441.030 C 174.984 441.164,175.279 441.339,175.334 441.420 C 175.438 441.573,177.770 442.925,179.804 444.011 C 180.455 444.359,181.294 444.807,181.669 445.008 C 182.181 445.283,182.885 445.409,182.450 445.148 C 182.407 445.122,181.571 444.686,180.591 444.179 C 179.611 443.673,178.374 442.983,177.842 442.646 C 177.311 442.309,176.825 442.084,176.764 442.145 C 176.703 442.206,176.653 442.158,176.653 442.038 C 176.653 441.917,176.570 441.819,176.469 441.819 C 176.368 441.819,175.823 441.524,175.259 441.163 C 174.694 440.802,174.164 440.506,174.080 440.506 C 173.996 440.506,173.598 440.283,173.197 440.010 C 172.795 439.738,171.995 439.245,171.419 438.915 C 170.842 438.585,169.611 437.870,168.683 437.327 C 166.990 436.336,166.645 436.139,164.144 434.738 C 163.402 434.322,162.558 433.815,162.269 433.612 C 161.476 433.053,160.092 432.385,160.247 432.636 M222.972 441.770 C 220.582 443.183,217.997 444.568,215.893 445.562 C 214.939 446.013,214.195 446.419,214.239 446.463 C 214.355 446.579,220.361 443.586,221.325 442.933 C 221.767 442.633,222.184 442.387,222.251 442.385 C 222.319 442.383,222.990 442.002,223.743 441.538 C 225.697 440.333,225.096 440.514,222.972 441.770 M182.656 445.347 C 182.659 445.500,186.038 446.995,186.241 446.933 C 186.318 446.909,186.745 447.055,187.189 447.257 C 187.634 447.459,188.125 447.622,188.279 447.620 C 188.609 447.616,186.511 446.721,185.918 446.614 C 185.696 446.574,184.871 446.243,184.084 445.880 C 183.297 445.516,182.655 445.277,182.656 445.347 M213.039 446.687 C 212.575 446.981,212.904 447.051,213.502 446.786 C 213.937 446.594,213.980 446.535,213.690 446.525 C 213.483 446.519,213.190 446.592,213.039 446.687 M210.502 447.648 C 209.986 447.847,209.808 447.963,210.106 447.905 C 210.696 447.790,211.931 447.288,211.627 447.287 C 211.524 447.287,211.017 447.449,210.502 447.648 M190.061 448.201 C 190.563 448.409,190.905 448.418,190.905 448.224 C 190.905 448.136,190.631 448.060,190.295 448.055 C 189.801 448.048,189.757 448.075,190.061 448.201 M192.146 448.567 C 192.364 448.655,192.955 448.774,193.459 448.831 C 194.346 448.932,194.340 448.927,193.249 448.667 C 191.986 448.366,191.552 448.327,192.146 448.567 M194.702 449.074 C 194.883 449.122,195.178 449.122,195.359 449.074 C 195.539 449.027,195.391 448.989,195.030 448.989 C 194.669 448.989,194.522 449.027,194.702 449.074 M203.891 449.074 C 204.072 449.122,204.367 449.122,204.548 449.074 C 204.728 449.027,204.580 448.989,204.219 448.989 C 203.858 448.989,203.711 449.027,203.891 449.074 M196.296 449.265 C 196.528 449.310,196.908 449.310,197.140 449.265 C 197.372 449.220,197.182 449.184,196.718 449.184 C 196.254 449.184,196.064 449.220,196.296 449.265 M202.206 449.267 C 202.491 449.310,202.913 449.309,203.144 449.265 C 203.374 449.220,203.141 449.185,202.625 449.186 C 202.110 449.188,201.921 449.224,202.206 449.267 M198.734 449.458 C 199.173 449.497,199.890 449.497,200.328 449.458 C 200.767 449.418,200.408 449.386,199.531 449.386 C 198.654 449.386,198.296 449.418,198.734 449.458 " stroke="none" fill="#1b598e" fill-rule="evenodd"></path></g></svg>