<svg id="svg" version="1.1" xmlns="http://www.w3.org/2000/svg" xmlns:xlink="http://www.w3.org/1999/xlink" width="400" height="314.8936170212766" viewBox="0, 0, 400,314.8936170212766"><g id="svgg"><path id="path0" d="M192.441 62.241 C 190.200 62.400,183.870 63.268,182.047 63.666 C 175.883 65.013,174.088 65.475,170.686 66.588 C 165.316 68.346,163.475 69.087,157.638 71.838 C 143.698 78.408,129.308 90.969,120.073 104.628 C 116.768 109.516,110.866 120.506,110.866 121.771 C 110.866 121.871,110.639 122.470,110.362 123.102 C 109.537 124.982,109.387 125.390,108.493 128.189 C 106.494 134.450,105.858 137.055,104.919 142.835 C 103.027 154.474,103.164 164.342,105.382 176.220 C 107.278 186.376,111.821 198.510,116.438 205.751 C 117.184 206.922,117.795 207.968,117.795 208.076 C 117.795 208.183,118.291 208.962,118.898 209.806 C 119.504 210.650,120.000 211.470,120.000 211.628 C 120.000 211.786,120.109 211.963,120.242 212.021 C 120.375 212.079,121.179 213.118,122.028 214.331 C 128.000 222.861,138.161 232.583,147.244 238.458 C 151.892 241.465,162.146 246.929,163.140 246.929 C 163.323 246.929,163.719 247.054,164.020 247.207 C 165.327 247.872,169.271 249.350,170.945 249.802 C 171.910 250.063,172.831 250.320,175.433 251.056 C 185.434 253.883,202.336 255.020,212.283 253.534 C 216.736 252.868,222.108 251.833,223.622 251.349 C 224.055 251.210,225.047 250.919,225.827 250.703 C 228.558 249.943,229.466 249.663,231.654 248.904 C 233.981 248.096,235.082 247.664,235.980 247.207 C 236.281 247.054,236.706 246.925,236.925 246.921 C 237.388 246.910,246.201 242.509,248.985 240.898 C 257.004 236.255,267.141 227.694,273.171 220.472 C 274.400 219.000,275.488 217.724,275.588 217.638 C 276.953 216.462,283.606 206.153,283.309 205.673 C 283.150 205.415,280.798 204.085,275.906 201.489 C 274.606 200.799,273.191 200.016,272.761 199.747 C 272.330 199.478,271.267 198.883,270.398 198.423 C 268.686 197.517,265.253 195.650,262.992 194.394 C 262.213 193.961,260.724 193.151,259.685 192.593 C 258.646 192.035,257.299 191.300,256.693 190.959 C 255.312 190.182,252.344 188.549,250.079 187.318 C 249.126 186.800,246.991 185.615,245.334 184.684 C 241.622 182.599,241.873 182.585,240.271 184.961 C 236.749 190.186,229.257 197.633,226.471 198.677 C 226.204 198.777,225.276 199.302,224.409 199.843 C 215.940 205.133,203.229 207.552,192.913 205.837 C 191.181 205.549,189.231 205.237,188.581 205.143 C 187.930 205.049,187.319 204.846,187.224 204.691 C 187.128 204.536,186.739 204.410,186.359 204.410 C 183.324 204.415,173.289 198.979,168.115 194.527 C 164.576 191.481,157.480 182.626,157.480 181.254 C 157.480 181.172,156.977 180.016,156.362 178.684 C 151.235 167.584,150.457 153.449,154.371 142.520 C 156.947 135.326,161.055 128.876,166.357 123.701 C 168.333 121.772,173.305 117.795,173.740 117.795 C 173.838 117.795,174.298 117.525,174.762 117.195 C 184.249 110.439,204.141 108.092,214.961 112.452 C 215.307 112.591,216.654 113.097,217.953 113.575 C 220.416 114.482,224.679 116.609,225.537 117.360 C 225.810 117.599,226.140 117.795,226.269 117.795 C 226.620 117.795,230.763 120.980,232.880 122.877 C 234.971 124.751,239.071 129.586,240.105 131.398 C 240.775 132.572,241.694 132.948,242.378 132.327 C 242.543 132.178,243.598 131.561,244.724 130.956 C 245.850 130.351,248.827 128.680,251.339 127.243 C 253.850 125.806,256.375 124.365,256.949 124.041 C 257.523 123.718,258.303 123.260,258.682 123.025 C 259.060 122.789,260.150 122.173,261.102 121.654 C 262.055 121.136,263.756 120.180,264.882 119.530 C 266.008 118.880,267.354 118.103,267.874 117.804 C 269.532 116.851,275.697 113.333,277.149 112.513 C 277.919 112.077,279.236 111.316,280.076 110.821 C 280.916 110.326,281.704 109.921,281.828 109.921 C 283.350 109.921,278.929 101.882,275.592 98.583 C 275.505 98.496,274.867 97.717,274.175 96.850 C 267.049 87.927,253.459 77.154,242.994 72.131 C 239.445 70.428,236.237 68.976,236.024 68.976 C 235.925 68.976,235.397 68.771,234.851 68.519 C 230.675 66.595,220.532 63.959,212.913 62.818 C 209.708 62.338,196.373 61.962,192.441 62.241 M280.210 134.383 C 280.094 134.499,280.000 135.757,280.000 137.179 C 280.000 140.356,279.935 140.419,276.520 140.537 L 273.858 140.630 273.858 146.142 L 273.858 151.654 276.585 151.744 C 280.191 151.864,280.031 151.544,279.929 158.466 L 279.843 164.252 276.850 164.409 L 273.858 164.567 273.858 170.236 L 273.858 175.906 276.850 176.063 L 279.843 176.220 280.000 179.213 L 280.157 182.205 285.748 182.291 L 291.339 182.377 291.343 179.929 C 291.350 175.698,290.809 176.035,297.440 176.135 L 303.150 176.220 303.307 179.213 L 303.465 182.205 309.134 182.205 L 314.803 182.205 314.893 179.144 L 314.983 176.084 318.358 175.995 L 321.732 175.906 321.819 170.417 C 321.920 163.973,322.203 164.421,318.025 164.414 L 314.947 164.409 315.033 158.189 L 315.118 151.969 318.819 151.880 L 322.520 151.791 322.520 146.142 L 322.520 140.494 319.134 140.404 L 315.748 140.315 315.658 137.237 L 315.568 134.160 309.516 134.245 L 303.465 134.331 303.307 137.323 L 303.150 140.315 297.440 140.401 C 290.809 140.500,291.350 140.836,291.343 136.614 L 291.339 134.173 285.879 134.173 C 282.877 134.173,280.325 134.268,280.210 134.383 M302.921 152.075 C 303.227 152.270,303.301 153.732,303.236 158.291 L 303.150 164.252 297.440 164.338 C 290.649 164.440,291.349 165.166,291.343 158.011 C 291.337 151.301,290.851 151.810,297.255 151.816 C 300.151 151.818,302.700 151.935,302.921 152.075 " stroke="none" fill="#ffffff" fill-rule="evenodd"></path><path id="path1" d="M232.947 29.108 C 233.052 29.382,233.277 29.606,233.446 29.606 C 233.860 29.606,233.601 28.890,233.130 28.734 C 232.900 28.657,232.829 28.801,232.947 29.108 M156.214 35.041 C 155.777 35.430,155.557 35.642,155.726 35.512 C 155.894 35.382,156.271 35.276,156.565 35.276 C 156.858 35.276,157.180 35.063,157.279 34.803 C 157.537 34.131,157.135 34.221,156.214 35.041 M106.523 62.532 C 105.998 63.127,106.474 63.126,107.263 62.530 C 107.724 62.181,107.758 62.068,107.402 62.069 C 107.142 62.070,106.746 62.278,106.523 62.532 M96.693 68.031 C 96.693 68.205,96.489 68.346,96.239 68.346 C 95.989 68.346,95.692 68.498,95.578 68.682 C 95.306 69.121,95.715 69.530,96.001 69.106 C 96.122 68.928,96.571 68.543,96.999 68.249 C 97.603 67.837,97.656 67.717,97.235 67.717 C 96.937 67.717,96.693 67.858,96.693 68.031 M79.055 78.110 C 79.055 78.283,79.268 78.425,79.528 78.425 C 79.787 78.425,80.000 78.283,80.000 78.110 C 80.000 77.937,79.787 77.795,79.528 77.795 C 79.268 77.795,79.055 77.937,79.055 78.110 M329.449 85.966 C 329.449 86.322,329.591 86.614,329.764 86.614 C 329.937 86.614,330.079 86.410,330.079 86.160 C 330.079 85.911,329.937 85.619,329.764 85.512 C 329.591 85.405,329.449 85.609,329.449 85.966 M68.346 89.596 C 68.346 89.878,68.531 89.988,68.819 89.878 C 69.079 89.778,69.291 89.570,69.291 89.415 C 69.291 89.260,69.079 89.134,68.819 89.134 C 68.559 89.134,68.346 89.342,68.346 89.596 M330.709 91.496 C 330.709 92.449,330.843 93.228,331.008 93.228 C 331.172 93.228,331.358 94.043,331.421 95.039 C 331.483 96.035,331.561 95.256,331.594 93.307 C 331.644 90.341,331.577 89.764,331.181 89.764 C 330.818 89.764,330.709 90.166,330.709 91.496 M196.063 159.148 C 195.370 159.530,194.094 160.265,193.228 160.782 C 191.112 162.044,189.378 162.996,187.953 163.678 C 187.303 163.989,186.772 164.351,186.772 164.484 C 186.772 164.616,186.627 164.724,186.450 164.724 C 186.274 164.724,185.601 165.055,184.954 165.459 C 184.308 165.863,183.000 166.623,182.047 167.148 C 181.094 167.674,178.756 168.996,176.850 170.086 C 174.945 171.176,172.606 172.491,171.654 173.009 C 170.701 173.526,169.780 174.051,169.606 174.176 C 169.433 174.302,168.654 174.757,167.874 175.189 C 167.094 175.622,165.748 176.375,164.882 176.863 C 164.016 177.352,163.024 177.908,162.677 178.100 C 158.951 180.162,158.425 180.557,158.425 181.290 C 158.425 181.706,158.567 182.047,158.740 182.047 C 158.913 182.047,159.055 182.186,159.055 182.356 C 159.055 182.670,161.196 186.168,161.564 186.457 C 161.675 186.543,162.181 187.181,162.689 187.874 C 163.702 189.254,169.970 195.589,170.328 195.594 C 170.511 195.596,172.286 196.886,173.701 198.045 C 173.874 198.187,174.476 198.507,175.039 198.756 C 175.602 199.005,176.063 199.301,176.063 199.413 C 176.063 199.525,176.417 199.706,176.850 199.814 C 177.283 199.923,177.638 200.151,177.638 200.321 C 177.638 200.491,177.921 200.630,178.268 200.630 C 178.614 200.630,178.898 200.772,178.898 200.945 C 178.898 201.118,179.112 201.260,179.374 201.260 C 179.637 201.260,180.097 201.385,180.398 201.538 C 180.974 201.831,181.621 202.097,183.937 202.992 C 184.717 203.293,185.638 203.655,185.984 203.796 C 186.331 203.936,187.110 204.138,187.717 204.245 C 188.323 204.351,189.598 204.579,190.551 204.752 C 195.468 205.642,207.554 205.813,208.057 204.999 C 208.150 204.848,208.918 204.724,209.764 204.724 C 210.609 204.724,211.389 204.583,211.496 204.409 C 211.603 204.236,212.170 204.094,212.756 204.094 C 213.342 204.094,213.909 203.953,214.016 203.780 C 214.123 203.606,214.474 203.465,214.796 203.465 C 215.118 203.465,215.783 203.265,216.274 203.021 C 216.764 202.777,217.591 202.407,218.110 202.197 C 218.630 201.988,219.301 201.691,219.602 201.538 C 219.903 201.385,220.363 201.260,220.626 201.260 C 220.888 201.260,221.102 201.118,221.102 200.945 C 221.102 200.772,221.368 200.630,221.694 200.630 C 222.019 200.630,222.462 200.417,222.677 200.157 C 222.893 199.898,223.265 199.685,223.503 199.685 C 223.742 199.685,223.937 199.570,223.937 199.429 C 223.937 199.288,224.433 198.978,225.039 198.740 C 225.646 198.502,226.142 198.202,226.142 198.073 C 226.142 197.943,226.390 197.758,226.693 197.661 C 226.996 197.563,227.740 197.058,228.346 196.538 C 228.953 196.018,229.561 195.592,229.698 195.591 C 230.270 195.590,238.110 187.367,238.110 186.769 C 238.110 186.597,238.230 186.457,238.376 186.457 C 238.522 186.457,238.908 185.961,239.235 185.354 C 239.561 184.748,239.938 184.252,240.072 184.252 C 240.205 184.252,240.315 184.039,240.315 183.780 C 240.315 183.520,240.457 183.307,240.630 183.307 C 240.803 183.307,240.945 183.054,240.945 182.745 C 240.945 182.162,240.590 181.911,237.165 180.070 C 234.977 178.894,233.144 177.891,230.866 176.622 C 230.087 176.187,227.678 174.870,225.513 173.693 C 221.066 171.277,220.365 170.893,215.748 168.344 C 213.929 167.340,211.661 166.096,210.709 165.580 C 209.756 165.063,208.551 164.393,208.031 164.091 C 205.777 162.780,197.609 158.420,197.443 158.439 C 197.377 158.447,196.756 158.766,196.063 159.148 M113.701 205.893 C 112.113 206.801,111.115 207.365,108.819 208.655 C 107.953 209.141,106.535 209.952,105.669 210.456 C 104.803 210.960,103.846 211.453,103.543 211.550 C 103.240 211.647,102.992 211.852,102.992 212.005 C 102.992 212.158,102.854 212.283,102.686 212.283 C 102.518 212.283,101.302 212.921,99.983 213.701 C 98.665 214.480,97.513 215.118,97.424 215.118 C 97.335 215.118,96.886 215.379,96.427 215.699 C 95.967 216.018,94.669 216.779,93.543 217.388 C 92.417 217.998,90.597 219.012,89.497 219.642 C 88.398 220.272,87.428 220.787,87.341 220.787 C 87.255 220.787,86.808 221.051,86.348 221.372 C 85.888 221.694,84.803 222.352,83.937 222.834 C 83.071 223.316,81.724 224.070,80.945 224.509 C 80.165 224.949,78.961 225.603,78.268 225.962 C 77.575 226.320,76.937 226.696,76.850 226.797 C 76.219 227.529,71.067 229.933,70.769 229.635 C 70.286 229.152,69.921 229.208,69.921 229.764 C 69.921 230.024,70.063 230.236,70.236 230.236 C 70.409 230.236,70.551 230.454,70.551 230.721 C 70.551 231.360,74.458 235.276,75.096 235.276 C 75.368 235.276,75.591 235.417,75.591 235.591 C 75.591 235.764,75.874 235.906,76.220 235.906 C 76.567 235.906,76.850 236.047,76.850 236.220 C 76.850 236.394,77.205 236.535,77.638 236.535 C 78.071 236.535,78.425 236.677,78.425 236.850 C 78.425 237.024,78.642 237.165,78.908 237.165 C 79.173 237.165,79.471 237.378,79.571 237.638 C 79.671 237.898,79.950 238.110,80.191 238.110 C 80.432 238.110,80.630 238.252,80.630 238.425 C 80.630 238.598,80.913 238.740,81.260 238.740 C 81.606 238.740,81.890 238.882,81.890 239.055 C 81.890 239.228,82.244 239.370,82.677 239.370 C 83.110 239.370,83.465 239.512,83.465 239.685 C 83.465 239.858,83.733 240.000,84.061 240.000 C 84.389 240.000,84.739 240.213,84.838 240.472 C 84.938 240.732,85.308 240.945,85.659 240.945 C 86.011 240.945,86.299 241.060,86.299 241.201 C 86.299 241.342,86.795 241.652,87.402 241.890 C 88.008 242.128,88.504 242.438,88.504 242.578 C 88.504 242.719,88.787 242.835,89.134 242.835 C 89.480 242.835,89.764 242.966,89.764 243.127 C 89.764 243.463,91.543 244.409,92.174 244.409 C 92.408 244.409,92.598 244.551,92.598 244.724 C 92.598 244.898,92.961 245.039,93.404 245.039 C 93.862 245.039,94.126 245.176,94.016 245.354 C 93.909 245.528,94.042 245.669,94.312 245.669 C 94.582 245.669,94.804 245.776,94.805 245.906 C 94.808 246.222,96.629 247.244,97.191 247.244 C 97.437 247.244,97.638 247.386,97.638 247.559 C 97.638 247.732,97.921 247.874,98.268 247.874 C 98.614 247.874,98.898 248.016,98.898 248.189 C 98.898 248.362,99.235 248.504,99.648 248.504 C 100.120 248.504,100.457 248.726,100.555 249.100 C 100.647 249.454,101.112 249.785,101.694 249.913 C 102.235 250.032,102.677 250.259,102.677 250.419 C 102.677 250.578,102.961 250.709,103.307 250.709 C 103.654 250.709,103.937 250.850,103.937 251.024 C 103.937 251.197,104.205 251.339,104.533 251.339 C 104.861 251.339,105.211 251.551,105.311 251.811 C 105.410 252.071,105.780 252.283,106.132 252.283 C 106.484 252.283,106.772 252.425,106.772 252.598 C 106.772 252.772,106.984 252.913,107.244 252.913 C 107.504 252.913,107.717 253.055,107.717 253.228 C 107.717 253.402,108.000 253.543,108.346 253.543 C 108.693 253.543,108.976 253.685,108.976 253.858 C 108.976 254.031,109.245 254.173,109.573 254.173 C 109.901 254.173,110.250 254.386,110.350 254.646 C 110.450 254.906,110.819 255.118,111.171 255.118 C 111.523 255.118,111.811 255.233,111.811 255.374 C 111.811 255.515,112.307 255.825,112.913 256.063 C 113.520 256.301,114.016 256.611,114.016 256.752 C 114.016 256.893,114.299 257.008,114.646 257.008 C 114.992 257.008,115.276 257.139,115.276 257.300 C 115.276 257.636,117.055 258.583,117.686 258.583 C 117.919 258.583,118.110 258.698,118.110 258.839 C 118.110 258.980,118.600 259.287,119.199 259.522 C 119.799 259.757,120.361 260.138,120.449 260.369 C 120.538 260.599,120.827 260.787,121.092 260.787 C 121.358 260.787,121.575 260.929,121.575 261.102 C 121.575 261.276,121.929 261.417,122.362 261.417 C 122.795 261.417,123.150 261.559,123.150 261.732 C 123.150 261.906,123.433 262.047,123.780 262.047 C 124.126 262.047,124.409 262.189,124.409 262.362 C 124.409 262.535,124.588 262.677,124.806 262.677 C 125.025 262.677,125.585 263.031,126.052 263.465 C 126.520 263.898,127.191 264.252,127.545 264.252 C 127.899 264.252,128.189 264.394,128.189 264.567 C 128.189 264.740,128.472 264.882,128.819 264.882 C 129.165 264.882,129.449 265.024,129.449 265.197 C 129.449 265.370,129.668 265.512,129.936 265.512 C 130.204 265.512,130.752 265.866,131.154 266.299 C 131.555 266.732,132.115 267.087,132.398 267.087 C 132.682 267.087,132.913 267.228,132.913 267.402 C 132.913 267.575,133.268 267.717,133.701 267.717 C 134.134 267.717,134.488 267.858,134.488 268.031 C 134.488 268.205,134.772 268.346,135.118 268.346 C 135.468 268.346,135.748 268.556,135.748 268.819 C 135.748 269.079,136.005 269.291,136.319 269.291 C 136.632 269.291,137.193 269.575,137.565 269.921 C 137.937 270.268,138.531 270.551,138.884 270.551 C 139.238 270.551,139.528 270.693,139.528 270.866 C 139.528 271.039,139.811 271.181,140.157 271.181 C 140.507 271.181,140.787 271.391,140.787 271.654 C 140.787 271.935,141.077 272.126,141.505 272.126 C 141.900 272.126,142.427 272.409,142.677 272.756 C 142.927 273.102,143.383 273.386,143.692 273.386 C 144.000 273.386,144.252 273.528,144.252 273.701 C 144.252 273.874,144.606 274.016,145.039 274.016 C 145.529 274.016,145.827 274.194,145.827 274.488 C 145.827 274.751,146.107 274.961,146.457 274.961 C 146.803 274.961,147.087 275.102,147.087 275.276 C 147.087 275.449,147.335 275.591,147.638 275.591 C 147.941 275.591,148.601 275.945,149.104 276.378 C 149.607 276.811,150.210 277.165,150.443 277.165 C 150.676 277.165,150.866 277.307,150.866 277.480 C 150.866 277.654,151.150 277.795,151.496 277.795 C 151.843 277.795,152.126 277.937,152.126 278.110 C 152.126 278.283,152.428 278.425,152.798 278.425 C 153.167 278.425,153.699 278.677,153.979 278.984 C 154.693 279.769,156.107 280.630,156.682 280.630 C 156.948 280.630,157.165 280.772,157.165 280.945 C 157.165 281.118,157.449 281.260,157.795 281.260 C 158.142 281.260,158.425 281.402,158.425 281.575 C 158.425 281.748,158.638 281.890,158.898 281.890 C 159.157 281.890,159.371 281.996,159.372 282.126 C 159.375 282.443,161.196 283.465,161.758 283.465 C 162.004 283.465,162.205 283.606,162.205 283.780 C 162.205 283.953,162.488 284.094,162.835 284.094 C 163.181 284.094,163.465 284.236,163.465 284.409 C 163.465 284.583,163.713 284.727,164.016 284.730 C 164.319 284.733,164.901 285.087,165.309 285.517 C 165.717 285.947,166.248 286.299,166.490 286.299 C 166.731 286.299,166.929 286.441,166.929 286.614 C 166.929 286.787,167.283 286.929,167.717 286.929 C 168.150 286.929,168.504 287.071,168.504 287.244 C 168.504 287.417,168.787 287.559,169.134 287.559 C 169.480 287.559,169.764 287.703,169.764 287.879 C 169.764 288.055,170.260 288.436,170.866 288.725 C 171.472 289.014,171.969 289.366,171.969 289.507 C 171.969 289.648,172.323 289.764,172.756 289.764 C 173.189 289.764,173.543 289.906,173.543 290.079 C 173.543 290.252,173.827 290.394,174.173 290.394 C 174.520 290.394,174.803 290.529,174.803 290.694 C 174.803 290.859,175.299 291.229,175.906 291.517 C 176.512 291.805,177.008 292.166,177.008 292.319 C 177.008 292.473,177.291 292.598,177.638 292.598 C 177.984 292.598,178.268 292.740,178.268 292.913 C 178.268 293.087,178.607 293.228,179.021 293.228 C 179.436 293.228,179.857 293.441,179.956 293.701 C 180.056 293.961,180.355 294.173,180.620 294.173 C 180.885 294.173,181.102 294.289,181.102 294.429 C 181.102 294.570,181.598 294.880,182.205 295.118 C 182.811 295.356,183.307 295.666,183.307 295.807 C 183.307 295.948,183.646 296.063,184.061 296.063 C 184.475 296.063,184.896 296.276,184.996 296.535 C 185.095 296.795,185.394 297.008,185.659 297.008 C 185.925 297.008,186.142 297.150,186.142 297.323 C 186.142 297.496,186.398 297.638,186.712 297.638 C 187.026 297.638,187.587 297.921,187.959 298.268 C 188.331 298.614,188.854 298.898,189.121 298.898 C 189.388 298.898,189.606 299.037,189.606 299.207 C 189.606 299.377,189.961 299.604,190.394 299.713 C 190.827 299.822,191.181 300.037,191.181 300.192 C 191.181 300.346,191.465 300.472,191.811 300.472 C 192.157 300.472,192.441 300.614,192.441 300.787 C 192.441 300.961,192.795 301.102,193.228 301.102 C 193.661 301.102,194.016 301.244,194.016 301.417 C 194.016 301.591,194.451 301.732,194.983 301.732 C 195.515 301.732,196.163 301.945,196.423 302.205 C 196.779 302.561,197.660 302.677,200.000 302.677 C 202.340 302.677,203.221 302.561,203.577 302.205 C 203.837 301.945,204.485 301.732,205.017 301.732 C 205.549 301.732,205.984 301.591,205.984 301.417 C 205.984 301.244,206.339 301.102,206.772 301.102 C 207.205 301.102,207.559 300.961,207.559 300.787 C 207.559 300.614,207.843 300.472,208.189 300.472 C 208.535 300.472,208.819 300.331,208.819 300.157 C 208.819 299.984,209.107 299.843,209.459 299.843 C 209.811 299.843,210.180 299.630,210.280 299.370 C 210.380 299.110,210.729 298.898,211.057 298.898 C 211.385 298.898,211.654 298.756,211.654 298.583 C 211.654 298.409,211.831 298.268,212.047 298.269 C 212.738 298.270,215.118 296.866,215.118 296.457 C 215.118 296.240,215.472 296.063,215.906 296.063 C 216.339 296.063,216.693 295.921,216.693 295.748 C 216.693 295.575,216.976 295.433,217.323 295.433 C 217.669 295.433,217.953 295.291,217.953 295.118 C 217.953 294.945,218.246 294.803,218.605 294.803 C 218.964 294.803,219.455 294.626,219.697 294.409 C 220.774 293.443,221.103 293.228,221.502 293.228 C 221.737 293.228,222.233 292.945,222.605 292.598 C 222.976 292.252,223.570 291.969,223.924 291.969 C 224.278 291.969,224.567 291.827,224.567 291.654 C 224.567 291.480,224.784 291.339,225.049 291.339 C 225.315 291.339,225.613 291.126,225.713 290.866 C 225.813 290.606,226.154 290.394,226.472 290.394 C 226.790 290.394,227.137 290.252,227.244 290.079 C 227.351 289.906,227.714 289.764,228.050 289.764 C 228.386 289.764,228.661 289.638,228.661 289.485 C 228.661 289.331,229.157 288.970,229.764 288.683 C 230.370 288.395,230.866 288.024,230.866 287.859 C 230.866 287.694,231.150 287.559,231.496 287.559 C 231.843 287.559,232.126 287.417,232.126 287.244 C 232.126 287.071,232.480 286.929,232.913 286.929 C 233.346 286.929,233.701 286.787,233.701 286.614 C 233.701 286.441,233.865 286.299,234.065 286.299 C 234.265 286.299,234.893 285.945,235.461 285.512 C 236.029 285.079,236.645 284.724,236.829 284.724 C 237.014 284.724,237.165 284.583,237.165 284.409 C 237.165 284.236,237.520 284.094,237.953 284.094 C 238.386 284.094,238.740 283.953,238.740 283.780 C 238.740 283.606,238.963 283.465,239.235 283.465 C 239.507 283.465,239.928 283.287,240.169 283.071 C 241.211 282.136,241.568 281.890,241.876 281.890 C 242.057 281.890,242.205 281.748,242.205 281.575 C 242.205 281.402,242.488 281.260,242.835 281.260 C 243.181 281.260,243.465 281.118,243.465 280.945 C 243.465 280.772,243.758 280.630,244.117 280.630 C 244.476 280.630,244.967 280.453,245.208 280.236 C 246.158 279.385,246.494 279.161,247.480 278.724 C 248.043 278.475,248.504 278.164,248.504 278.033 C 248.504 277.902,248.858 277.795,249.291 277.795 C 249.724 277.795,250.079 277.654,250.079 277.480 C 250.079 277.307,250.296 277.165,250.561 277.165 C 250.826 277.165,251.125 276.953,251.225 276.693 C 251.324 276.433,251.639 276.217,251.923 276.213 C 252.208 276.210,252.795 275.929,253.228 275.591 C 253.661 275.252,254.197 274.971,254.419 274.968 C 254.641 274.964,254.905 274.748,255.004 274.488 C 255.104 274.228,255.454 274.016,255.782 274.016 C 256.110 274.016,256.378 273.874,256.378 273.701 C 256.378 273.528,256.661 273.386,257.008 273.386 C 257.354 273.386,257.638 273.244,257.638 273.071 C 257.638 272.898,257.886 272.751,258.189 272.746 C 258.870 272.734,259.843 272.024,259.843 271.540 C 259.843 271.343,260.197 271.181,260.630 271.181 C 261.063 271.181,261.417 271.039,261.417 270.866 C 261.417 270.693,261.701 270.551,262.047 270.551 C 262.394 270.551,262.677 270.409,262.677 270.236 C 262.677 270.063,262.878 269.921,263.124 269.921 C 263.686 269.921,265.507 268.900,265.510 268.583 C 265.511 268.453,265.724 268.346,265.984 268.346 C 266.244 268.346,266.457 268.205,266.457 268.031 C 266.457 267.858,266.740 267.717,267.087 267.717 C 267.433 267.717,267.717 267.575,267.717 267.402 C 267.717 267.228,268.000 267.087,268.346 267.087 C 268.693 267.087,268.976 266.945,268.976 266.772 C 268.976 266.598,269.224 266.454,269.528 266.451 C 269.831 266.448,270.413 266.094,270.820 265.664 C 271.228 265.234,271.831 264.882,272.159 264.882 C 272.487 264.882,272.756 264.740,272.756 264.567 C 272.756 264.394,273.039 264.252,273.386 264.252 C 273.732 264.252,274.016 264.110,274.016 263.937 C 274.016 263.764,274.264 263.620,274.567 263.617 C 274.870 263.614,275.452 263.259,275.860 262.829 C 276.268 262.399,276.870 262.047,277.198 262.047 C 277.527 262.047,277.795 261.906,277.795 261.732 C 277.795 261.559,278.079 261.417,278.425 261.417 C 278.772 261.417,279.055 261.276,279.055 261.102 C 279.055 260.929,279.323 260.787,279.651 260.787 C 279.979 260.787,280.329 260.575,280.429 260.315 C 280.529 260.055,280.867 259.843,281.180 259.843 C 281.494 259.843,281.955 259.559,282.205 259.213 C 282.454 258.866,282.982 258.583,283.377 258.583 C 283.771 258.583,284.094 258.441,284.094 258.268 C 284.094 258.094,284.378 257.953,284.724 257.953 C 285.074 257.953,285.354 257.743,285.354 257.480 C 285.354 257.215,285.636 257.008,285.997 257.008 C 286.351 257.008,286.945 256.724,287.317 256.378 C 287.689 256.031,288.250 255.748,288.563 255.748 C 288.877 255.748,289.134 255.606,289.134 255.433 C 289.134 255.260,289.417 255.118,289.764 255.118 C 290.114 255.118,290.394 254.908,290.394 254.646 C 290.394 254.386,290.593 254.173,290.836 254.173 C 291.433 254.173,293.858 252.862,293.858 252.540 C 293.858 252.399,294.213 252.283,294.646 252.283 C 295.136 252.283,295.433 252.105,295.433 251.811 C 295.433 251.549,295.713 251.339,296.063 251.339 C 296.409 251.339,296.693 251.197,296.693 251.024 C 296.693 250.850,297.047 250.709,297.480 250.709 C 297.913 250.709,298.268 250.583,298.268 250.430 C 298.268 250.276,298.764 249.915,299.370 249.627 C 299.976 249.340,300.472 248.969,300.472 248.804 C 300.472 248.639,300.756 248.504,301.102 248.504 C 301.449 248.504,301.732 248.362,301.732 248.189 C 301.732 248.016,301.931 247.874,302.175 247.874 C 302.918 247.874,305.197 246.524,305.197 246.083 C 305.197 245.852,305.544 245.669,305.984 245.669 C 306.417 245.669,306.772 245.528,306.772 245.354 C 306.772 245.181,307.055 245.039,307.402 245.039 C 307.748 245.039,308.031 244.898,308.031 244.724 C 308.031 244.551,308.300 244.409,308.628 244.409 C 308.957 244.409,309.559 244.058,309.967 243.627 C 310.375 243.197,310.957 242.843,311.260 242.840 C 311.563 242.837,311.811 242.693,311.811 242.520 C 311.811 242.346,312.094 242.205,312.441 242.205 C 312.787 242.205,313.071 242.063,313.071 241.890 C 313.071 241.717,313.288 241.575,313.554 241.575 C 314.129 241.575,315.543 240.714,316.257 239.929 C 316.538 239.622,317.069 239.370,317.439 239.370 C 317.808 239.370,318.110 239.228,318.110 239.055 C 318.110 238.882,318.394 238.740,318.740 238.740 C 319.087 238.740,319.370 238.598,319.370 238.425 C 319.370 238.252,319.561 238.110,319.794 238.110 C 320.026 238.110,320.629 237.756,321.132 237.323 C 321.635 236.890,322.295 236.536,322.598 236.536 C 322.902 236.536,323.150 236.394,323.150 236.220 C 323.150 236.047,323.433 235.906,323.780 235.906 C 324.126 235.906,324.409 235.764,324.409 235.591 C 324.409 235.417,324.632 235.276,324.904 235.276 C 325.413 235.276,329.449 231.421,329.449 230.936 C 329.449 230.787,328.421 230.120,327.165 229.454 C 325.909 228.787,324.407 227.976,323.828 227.652 C 323.248 227.328,321.547 226.411,320.048 225.614 C 318.549 224.817,317.181 224.058,317.008 223.928 C 316.835 223.797,315.772 223.195,314.646 222.590 C 313.520 221.985,311.252 220.751,309.606 219.848 C 307.961 218.944,305.551 217.633,304.252 216.933 C 302.953 216.233,301.748 215.559,301.575 215.437 C 301.402 215.314,300.197 214.643,298.898 213.946 C 297.598 213.249,295.862 212.306,295.039 211.851 C 291.675 209.991,290.456 209.322,288.504 208.266 C 287.378 207.658,285.988 206.879,285.416 206.536 C 284.390 205.921,283.523 206.262,283.475 207.300 C 283.469 207.418,283.287 207.701,283.071 207.930 C 282.854 208.159,282.465 208.772,282.205 209.291 C 281.945 209.811,281.591 210.408,281.417 210.619 C 280.684 211.510,280.450 211.854,280.051 212.629 C 279.819 213.079,279.288 213.846,278.870 214.332 C 278.452 214.818,278.110 215.315,278.110 215.435 C 278.110 215.556,277.685 216.100,277.165 216.643 C 276.646 217.187,276.218 217.740,276.215 217.871 C 276.212 218.003,275.539 218.839,274.719 219.730 C 273.899 220.621,272.746 221.942,272.157 222.665 C 270.805 224.327,266.130 228.989,264.478 230.325 C 263.788 230.883,262.924 231.626,262.557 231.976 C 262.190 232.327,261.323 233.036,260.630 233.551 C 259.937 234.067,259.087 234.747,258.740 235.064 C 258.394 235.380,257.720 235.871,257.244 236.155 C 256.768 236.439,256.378 236.782,256.378 236.918 C 256.378 237.054,256.177 237.165,255.932 237.165 C 255.686 237.165,255.438 237.272,255.381 237.403 C 255.323 237.534,254.291 238.278,253.088 239.057 C 250.240 240.899,249.718 241.210,249.055 241.449 C 248.752 241.559,248.504 241.739,248.504 241.850 C 248.504 241.960,248.043 242.251,247.480 242.496 C 246.917 242.741,246.386 243.024,246.299 243.124 C 246.213 243.225,245.008 243.858,243.622 244.531 C 242.236 245.204,240.445 246.090,239.642 246.500 C 238.839 246.909,237.954 247.244,237.674 247.244 C 237.394 247.244,237.165 247.386,237.165 247.559 C 237.165 247.732,236.819 247.874,236.397 247.874 C 235.974 247.874,235.540 248.016,235.433 248.189 C 235.326 248.362,234.892 248.504,234.470 248.504 C 234.047 248.504,233.701 248.639,233.701 248.805 C 233.701 248.970,233.203 249.199,232.595 249.313 C 231.987 249.427,231.411 249.646,231.317 249.799 C 231.222 249.953,230.806 250.079,230.394 250.079 C 229.981 250.079,229.556 250.220,229.449 250.394 C 229.342 250.567,228.846 250.709,228.346 250.709 C 227.847 250.709,227.351 250.850,227.244 251.024 C 227.137 251.197,226.649 251.339,226.159 251.339 C 225.669 251.339,224.863 251.550,224.367 251.809 C 223.871 252.068,223.103 252.280,222.661 252.282 C 222.220 252.283,221.724 252.411,221.559 252.568 C 221.274 252.839,220.060 253.042,216.535 253.409 C 215.669 253.500,214.677 253.704,214.331 253.864 C 213.984 254.024,212.496 254.222,211.024 254.305 C 209.551 254.387,206.469 254.621,204.173 254.823 C 200.988 255.104,199.012 255.104,195.827 254.823 C 193.531 254.621,190.449 254.387,188.976 254.305 C 187.504 254.222,186.016 254.024,185.669 253.864 C 185.323 253.704,184.331 253.505,183.465 253.422 C 180.671 253.152,175.734 252.081,175.304 251.651 C 175.133 251.479,174.524 251.339,173.953 251.339 C 173.381 251.339,172.913 251.197,172.913 251.024 C 172.913 250.850,172.426 250.709,171.830 250.709 C 171.234 250.709,170.658 250.567,170.551 250.394 C 170.444 250.220,170.019 250.079,169.606 250.079 C 169.194 250.079,168.778 249.953,168.683 249.799 C 168.589 249.646,168.013 249.427,167.405 249.313 C 166.797 249.199,166.299 248.970,166.299 248.805 C 166.299 248.639,166.014 248.504,165.665 248.504 C 165.316 248.504,164.785 248.379,164.484 248.226 C 164.183 248.073,163.583 247.814,163.150 247.652 C 161.531 247.043,154.011 243.460,153.701 243.149 C 153.614 243.062,153.118 242.779,152.598 242.520 C 152.079 242.260,151.583 241.977,151.496 241.890 C 151.179 241.572,150.064 240.922,149.528 240.742 C 149.224 240.640,148.976 240.431,148.976 240.278 C 148.976 240.125,148.764 240.000,148.504 240.000 C 148.244 240.000,148.031 239.858,148.031 239.685 C 148.031 239.512,147.868 239.370,147.668 239.370 C 147.467 239.370,146.839 239.016,146.271 238.583 C 145.703 238.150,145.088 237.795,144.903 237.795 C 144.718 237.795,144.567 237.689,144.566 237.559 C 144.566 237.429,143.928 236.920,143.149 236.428 C 142.370 235.935,141.732 235.404,141.732 235.247 C 141.732 235.089,141.520 234.961,141.260 234.961 C 141.000 234.961,140.787 234.849,140.787 234.714 C 140.787 234.578,140.398 234.229,139.921 233.939 C 138.242 232.916,131.639 226.813,128.976 223.824 C 127.764 222.463,126.171 220.691,125.436 219.887 C 124.702 219.083,124.100 218.325,124.098 218.203 C 124.096 218.081,123.740 217.627,123.307 217.194 C 122.874 216.761,122.520 216.323,122.520 216.221 C 122.520 216.120,122.375 215.865,122.199 215.656 C 120.718 213.903,120.316 213.333,120.315 212.992 C 120.315 212.776,120.173 212.598,120.000 212.598 C 119.827 212.598,119.685 212.398,119.685 212.152 C 119.685 211.907,119.579 211.659,119.449 211.601 C 119.109 211.450,117.480 208.893,117.480 208.511 C 117.480 208.334,117.373 208.189,117.242 208.189 C 117.111 208.189,116.826 207.799,116.609 207.323 C 116.392 206.846,115.968 206.147,115.666 205.769 L 115.118 205.082 113.701 205.893 M331.087 223.055 C 330.570 223.571,330.612 224.147,331.181 224.366 C 331.536 224.502,331.654 224.314,331.654 223.612 C 331.654 222.561,331.617 222.525,331.087 223.055 M330.709 225.817 C 330.709 226.519,330.827 226.707,331.181 226.571 C 331.441 226.471,331.654 226.050,331.654 225.636 C 331.654 225.176,331.469 224.882,331.181 224.882 C 330.867 224.882,330.709 225.196,330.709 225.817 M330.246 227.809 C 330.111 228.119,330.089 228.462,330.197 228.570 C 330.517 228.890,330.775 228.441,330.628 227.820 C 330.497 227.270,330.480 227.269,330.246 227.809 " stroke="none" fill="#5e2977" fill-rule="evenodd"></path><path id="path2" d="M197.014 13.534 C 196.711 14.024,198.149 14.230,200.660 14.056 C 201.943 13.967,203.205 13.884,203.465 13.871 C 203.885 13.851,203.885 13.815,203.465 13.543 C 202.848 13.145,197.259 13.137,197.014 13.534 M194.358 14.298 C 194.157 14.540,193.714 14.665,193.374 14.576 C 193.034 14.487,192.756 14.558,192.756 14.732 C 192.756 14.907,192.402 15.139,191.969 15.247 C 191.535 15.356,191.181 15.584,191.181 15.754 C 191.181 15.924,190.909 16.063,190.577 16.063 C 190.245 16.063,189.927 16.169,189.869 16.299 C 189.811 16.429,189.342 16.772,188.827 17.062 C 187.759 17.662,187.425 18.268,188.163 18.268 C 188.437 18.268,188.661 18.046,188.661 17.774 C 188.661 17.435,188.846 17.339,189.252 17.468 C 189.673 17.602,189.891 17.472,190.011 17.015 C 190.123 16.587,190.344 16.439,190.680 16.568 C 190.955 16.674,191.181 16.603,191.181 16.412 C 191.181 16.220,191.535 16.063,191.969 16.063 C 192.402 16.063,192.756 15.921,192.756 15.748 C 192.756 15.575,193.039 15.433,193.386 15.433 C 193.732 15.433,194.016 15.300,194.016 15.138 C 194.016 14.976,194.465 14.799,195.015 14.744 C 195.565 14.690,196.073 14.469,196.144 14.252 C 196.324 13.704,194.818 13.743,194.358 14.298 M186.325 18.445 C 186.051 18.719,185.838 19.110,185.852 19.314 C 185.869 19.575,185.924 19.568,186.035 19.291 C 186.123 19.075,186.466 18.898,186.798 18.898 C 187.426 18.898,187.614 18.436,187.112 18.126 C 186.953 18.027,186.598 18.171,186.325 18.445 M183.150 20.305 C 182.252 21.041,182.240 21.080,182.913 21.091 C 183.361 21.098,183.622 20.915,183.622 20.593 C 183.622 20.239,183.814 20.134,184.252 20.249 C 184.661 20.356,184.882 20.258,184.882 19.971 C 184.882 19.307,184.209 19.437,183.150 20.305 M180.052 21.942 C 179.670 22.325,179.835 22.660,180.315 22.476 C 180.575 22.376,180.787 22.168,180.787 22.014 C 180.787 21.683,180.354 21.641,180.052 21.942 M177.023 23.706 C 176.388 24.108,176.127 24.431,176.372 24.512 C 176.596 24.587,176.912 24.411,177.075 24.121 C 177.265 23.782,177.586 23.663,177.976 23.787 C 178.310 23.893,178.583 23.837,178.583 23.662 C 178.583 23.033,178.063 23.047,177.023 23.706 M171.969 26.457 C 171.969 26.630,171.750 26.772,171.483 26.772 C 171.216 26.772,170.693 27.055,170.321 27.402 C 169.785 27.901,169.748 28.031,170.143 28.031 C 170.417 28.031,170.722 27.821,170.821 27.564 C 170.919 27.307,171.183 27.167,171.406 27.253 C 171.629 27.339,171.990 27.124,172.208 26.775 C 172.442 26.401,172.474 26.142,172.286 26.142 C 172.111 26.142,171.969 26.283,171.969 26.457 M167.120 29.160 C 167.002 29.467,167.073 29.611,167.303 29.534 C 167.774 29.377,168.033 28.661,167.619 28.661 C 167.450 28.661,167.225 28.886,167.120 29.160 M165.554 30.082 C 165.454 30.343,165.262 30.540,165.127 30.520 C 164.992 30.500,164.563 30.586,164.173 30.711 C 163.380 30.967,163.205 31.706,163.937 31.706 C 164.197 31.706,164.409 31.517,164.409 31.286 C 164.409 31.055,164.659 30.866,164.964 30.866 C 165.268 30.866,165.695 30.583,165.911 30.236 C 166.128 29.890,166.177 29.606,166.021 29.606 C 165.864 29.606,165.655 29.820,165.554 30.082 M162.205 31.969 C 161.886 32.353,161.901 32.441,162.290 32.441 C 162.552 32.441,162.849 32.228,162.949 31.969 C 163.048 31.709,163.010 31.496,162.863 31.496 C 162.717 31.496,162.420 31.709,162.205 31.969 M157.717 34.356 C 157.125 34.701,156.970 35.276,157.469 35.276 C 157.636 35.276,157.925 34.992,158.110 34.646 C 158.494 33.929,158.474 33.915,157.717 34.356 M151.176 38.125 C 150.746 38.456,150.581 38.729,150.810 38.733 C 151.249 38.741,152.287 37.851,152.080 37.644 C 152.014 37.578,151.607 37.794,151.176 38.125 M147.559 39.925 C 147.039 40.193,146.567 40.533,146.509 40.679 C 146.451 40.825,146.197 40.945,145.945 40.945 C 145.692 40.945,145.181 41.228,144.809 41.575 C 144.236 42.109,144.214 42.205,144.665 42.205 C 144.958 42.205,145.197 42.093,145.197 41.957 C 145.197 41.821,145.976 41.290,146.928 40.776 C 147.880 40.263,148.660 39.736,148.660 39.606 C 148.661 39.476,148.626 39.385,148.583 39.403 C 148.539 39.422,148.079 39.656,147.559 39.925 M143.137 42.541 C 143.022 42.725,143.005 42.952,143.097 43.045 C 143.323 43.270,143.937 42.873,143.937 42.501 C 143.937 42.099,143.393 42.125,143.137 42.541 M141.811 43.043 C 141.279 43.258,141.311 43.780,141.856 43.780 C 142.097 43.780,142.376 43.567,142.476 43.307 C 142.661 42.824,142.506 42.763,141.811 43.043 M138.740 44.840 C 138.394 45.036,138.039 45.278,137.953 45.377 C 137.866 45.477,137.547 45.649,137.244 45.761 C 136.657 45.978,136.480 46.614,137.008 46.614 C 137.181 46.614,137.323 46.472,137.323 46.299 C 137.323 46.126,137.514 45.984,137.747 45.984 C 138.206 45.984,139.712 44.797,139.499 44.602 C 139.428 44.537,139.087 44.644,138.740 44.840 M132.288 48.489 C 131.858 48.820,131.620 49.206,131.761 49.346 C 131.901 49.486,132.154 49.354,132.323 49.052 C 132.492 48.751,132.915 48.504,133.263 48.504 C 133.611 48.504,133.808 48.362,133.701 48.189 C 133.429 47.748,133.185 47.800,132.288 48.489 M128.819 50.394 C 128.819 50.567,128.535 50.709,128.189 50.709 C 127.843 50.709,127.559 50.874,127.559 51.076 C 127.559 51.278,127.652 51.350,127.766 51.236 C 127.880 51.122,128.164 51.187,128.396 51.380 C 128.720 51.649,128.819 51.611,128.819 51.220 C 128.819 50.939,128.961 50.709,129.134 50.709 C 129.307 50.709,129.449 50.567,129.449 50.394 C 129.449 50.220,129.307 50.079,129.134 50.079 C 128.961 50.079,128.819 50.220,128.819 50.394 M125.905 52.108 C 125.242 52.593,125.197 52.913,125.793 52.913 C 126.034 52.913,126.321 52.681,126.430 52.396 C 126.697 51.700,126.563 51.627,125.905 52.108 M123.780 53.164 C 123.780 53.301,123.142 53.677,122.362 53.999 C 121.583 54.320,120.944 54.668,120.942 54.772 C 120.941 54.876,120.622 55.121,120.234 55.316 C 115.890 57.505,115.607 57.694,115.595 58.417 C 115.593 58.585,115.821 58.393,116.103 57.991 C 116.512 57.408,116.677 57.345,116.915 57.684 C 117.147 58.016,117.249 58.023,117.373 57.717 C 117.461 57.500,117.718 57.323,117.945 57.323 C 118.172 57.323,118.438 57.113,118.537 56.856 C 118.639 56.590,118.925 56.469,119.201 56.574 C 119.513 56.694,119.685 56.580,119.685 56.254 C 119.685 55.930,119.956 55.748,120.439 55.748 C 120.853 55.748,121.273 55.538,121.372 55.281 C 121.474 55.015,121.760 54.894,122.035 55.000 C 122.347 55.119,122.520 55.005,122.520 54.679 C 122.520 54.401,122.768 54.169,123.071 54.163 C 124.107 54.144,125.270 52.913,124.252 52.913 C 123.992 52.913,123.780 53.026,123.780 53.164 M113.142 59.183 C 110.757 60.605,110.369 60.952,110.839 61.243 C 111.027 61.359,111.181 61.304,111.181 61.121 C 111.181 60.937,111.394 60.787,111.654 60.787 C 111.913 60.787,112.126 60.646,112.126 60.472 C 112.126 60.299,112.409 60.157,112.756 60.157 C 113.126 60.157,113.386 59.948,113.386 59.648 C 113.386 59.314,113.580 59.190,113.951 59.287 C 114.325 59.385,114.636 59.183,114.867 58.694 C 115.059 58.286,115.194 57.965,115.167 57.979 C 115.140 57.994,114.229 58.536,113.142 59.183 M109.606 61.102 C 109.606 61.276,109.287 61.422,108.898 61.427 C 108.236 61.436,108.228 61.459,108.778 61.779 C 109.224 62.038,109.432 62.016,109.639 61.690 C 109.944 61.209,110.002 60.787,109.764 60.787 C 109.677 60.787,109.606 60.929,109.606 61.102 M107.008 62.627 C 106.053 63.204,105.887 63.622,106.614 63.622 C 106.874 63.622,107.087 63.480,107.087 63.307 C 107.087 63.134,107.370 62.992,107.717 62.992 C 108.066 62.992,108.346 62.782,108.346 62.520 C 108.346 61.939,108.118 61.958,107.008 62.627 M104.118 64.271 C 103.785 64.607,103.319 64.882,103.083 64.882 C 102.530 64.882,101.102 65.816,101.102 66.178 C 101.102 66.762,101.982 66.425,102.152 65.775 C 102.303 65.199,102.406 65.156,102.819 65.499 C 103.149 65.773,103.307 65.790,103.307 65.550 C 103.307 65.356,103.524 65.197,103.789 65.197 C 104.055 65.197,104.353 64.984,104.453 64.724 C 104.553 64.465,104.903 64.252,105.231 64.252 C 105.558 64.252,105.827 64.110,105.827 63.937 C 105.827 63.412,104.764 63.620,104.118 64.271 M99.528 66.772 C 99.528 66.945,99.244 67.087,98.898 67.087 C 98.520 67.087,98.268 67.297,98.268 67.612 C 98.268 67.900,98.177 68.046,98.066 67.935 C 97.831 67.700,96.063 68.679,96.063 69.044 C 96.063 69.180,96.276 69.291,96.535 69.291 C 96.795 69.291,97.008 69.183,97.008 69.051 C 97.008 68.918,97.575 68.564,98.268 68.264 C 98.961 67.964,99.528 67.561,99.528 67.369 C 99.528 67.177,99.740 67.101,100.000 67.201 C 100.288 67.311,100.472 67.201,100.472 66.919 C 100.472 66.665,100.260 66.457,100.000 66.457 C 99.740 66.457,99.528 66.598,99.528 66.772 M92.520 70.634 C 91.870 70.996,91.339 71.480,91.339 71.709 C 91.339 72.373,91.878 72.192,92.068 71.464 C 92.163 71.100,92.387 70.893,92.564 71.003 C 92.912 71.217,94.173 70.557,94.173 70.160 C 94.173 69.806,93.831 69.904,92.520 70.634 M90.157 72.020 C 89.609 72.241,89.664 72.756,90.236 72.756 C 90.496 72.756,90.709 72.543,90.709 72.283 C 90.709 72.024,90.673 71.822,90.630 71.836 C 90.587 71.850,90.374 71.932,90.157 72.020 M88.504 73.049 C 88.504 73.210,88.196 73.387,87.820 73.443 C 86.905 73.577,86.677 74.331,87.551 74.331 C 87.923 74.331,88.145 74.199,88.045 74.038 C 87.946 73.877,88.175 73.700,88.553 73.645 C 89.353 73.527,89.743 72.756,89.003 72.756 C 88.728 72.756,88.504 72.888,88.504 73.049 M85.981 74.492 C 85.767 74.750,85.397 74.961,85.158 74.961 C 84.673 74.961,84.573 75.460,85.004 75.726 C 85.157 75.821,85.458 75.688,85.672 75.430 C 85.886 75.172,86.257 74.961,86.495 74.961 C 86.980 74.961,87.081 74.462,86.650 74.195 C 86.496 74.100,86.195 74.234,85.981 74.492 M83.465 75.906 C 83.465 76.079,83.181 76.220,82.835 76.220 C 82.488 76.220,82.205 76.362,82.205 76.535 C 82.205 76.709,82.026 76.850,81.808 76.850 C 81.589 76.850,81.029 77.205,80.562 77.638 C 80.095 78.071,79.423 78.425,79.069 78.425 C 78.715 78.425,78.425 78.567,78.425 78.740 C 78.425 78.913,78.234 79.055,78.001 79.055 C 77.447 79.055,75.591 79.984,75.591 80.261 C 75.591 80.379,75.201 80.650,74.724 80.863 C 73.615 81.360,72.126 82.645,72.126 83.108 C 72.126 83.304,71.984 83.465,71.811 83.465 C 71.638 83.465,71.496 83.677,71.496 83.937 C 71.496 84.666,71.755 84.526,73.394 82.913 C 75.393 80.946,75.796 80.630,76.305 80.630 C 76.540 80.630,77.036 80.346,77.408 80.000 C 77.780 79.654,78.373 79.370,78.727 79.370 C 79.081 79.370,79.370 79.262,79.370 79.130 C 79.370 78.889,80.303 78.320,81.339 77.930 C 81.642 77.815,81.890 77.597,81.890 77.444 C 81.890 77.291,82.182 77.165,82.538 77.165 C 82.895 77.165,83.099 77.024,82.992 76.850 C 82.885 76.677,82.920 76.535,83.071 76.535 C 83.680 76.535,84.614 75.611,84.016 75.601 C 83.713 75.595,83.465 75.732,83.465 75.906 M328.126 83.213 C 328.723 83.810,328.582 83.999,327.399 84.191 C 326.791 84.290,325.905 84.641,325.430 84.970 C 324.955 85.300,323.787 85.980,322.835 86.481 C 321.882 86.983,320.365 87.855,319.464 88.421 C 318.563 88.986,317.754 89.449,317.667 89.449 C 317.579 89.449,316.821 89.854,315.982 90.349 C 315.142 90.844,313.825 91.603,313.054 92.037 C 311.317 93.014,310.348 93.564,305.984 96.056 C 304.079 97.144,302.068 98.291,301.517 98.606 C 300.965 98.921,299.940 99.541,299.239 99.983 C 298.539 100.425,297.896 100.787,297.811 100.787 C 297.726 100.787,296.577 101.425,295.259 102.205 C 293.940 102.984,292.806 103.622,292.739 103.622 C 292.672 103.622,291.538 104.260,290.219 105.039 C 288.901 105.819,287.704 106.457,287.559 106.457 C 287.415 106.457,287.249 106.563,287.192 106.693 C 287.134 106.823,286.272 107.349,285.275 107.863 C 284.279 108.377,283.386 109.043,283.290 109.344 C 283.195 109.645,282.332 110.275,281.373 110.744 C 280.413 111.214,279.464 111.753,279.263 111.942 C 279.062 112.132,278.189 112.639,277.323 113.068 C 276.457 113.498,275.677 113.940,275.591 114.050 C 275.504 114.160,274.654 114.658,273.701 115.157 C 272.748 115.655,271.921 116.169,271.864 116.299 C 271.806 116.429,271.487 116.535,271.155 116.535 C 270.823 116.535,270.551 116.647,270.551 116.784 C 270.551 116.921,269.736 117.452,268.740 117.965 C 267.744 118.478,266.882 119.004,266.824 119.134 C 266.766 119.264,266.586 119.370,266.424 119.370 C 266.262 119.370,265.530 119.749,264.797 120.212 C 264.064 120.675,262.543 121.542,261.417 122.139 C 260.291 122.736,259.016 123.460,258.583 123.749 C 258.150 124.038,257.370 124.475,256.850 124.720 C 256.331 124.965,255.480 125.467,254.961 125.836 C 254.441 126.205,253.555 126.707,252.992 126.952 C 252.429 127.197,251.969 127.505,251.969 127.636 C 251.969 127.767,251.685 127.874,251.339 127.874 C 250.992 127.874,250.709 128.013,250.709 128.183 C 250.709 128.353,250.354 128.581,249.921 128.690 C 249.488 128.798,249.134 128.979,249.134 129.091 C 249.134 129.203,248.673 129.495,248.110 129.740 C 247.547 129.985,247.016 130.268,246.929 130.368 C 246.755 130.571,245.506 131.279,243.420 132.360 C 242.665 132.751,242.000 133.177,241.942 133.307 C 241.885 133.437,241.410 133.543,240.889 133.543 C 240.367 133.543,239.564 133.805,239.104 134.124 C 238.644 134.443,237.807 134.903,237.244 135.146 C 236.681 135.388,236.220 135.694,236.220 135.825 C 236.220 135.956,236.090 136.063,235.932 136.063 C 235.773 136.063,234.603 136.677,233.333 137.427 C 230.398 139.161,228.252 140.380,226.457 141.334 C 225.677 141.748,224.543 142.381,223.937 142.741 C 222.938 143.334,221.950 143.895,219.020 145.534 C 216.816 146.767,216.529 146.936,216.378 147.091 C 216.291 147.181,215.620 147.535,214.886 147.879 C 214.151 148.223,213.549 148.610,213.547 148.740 C 213.545 148.870,213.415 148.976,213.259 148.976 C 213.007 148.976,211.770 149.646,207.874 151.894 C 207.268 152.244,206.134 152.888,205.354 153.325 C 202.475 154.939,201.711 155.378,200.787 155.947 C 200.268 156.268,199.639 156.628,199.390 156.747 C 199.140 156.866,197.581 157.735,195.925 158.679 C 191.478 161.212,191.219 161.358,188.819 162.683 C 187.606 163.352,186.543 163.979,186.457 164.076 C 186.370 164.173,185.803 164.494,185.197 164.789 C 183.446 165.642,181.584 166.751,181.470 167.008 C 181.412 167.138,181.249 167.244,181.106 167.244 C 180.964 167.244,179.948 167.758,178.849 168.387 C 177.750 169.016,176.071 169.954,175.118 170.473 C 174.165 170.991,173.072 171.611,172.688 171.850 C 172.304 172.089,171.312 172.662,170.483 173.123 C 169.654 173.584,168.480 174.242,167.874 174.585 C 167.268 174.927,166.134 175.565,165.354 176.002 C 162.279 177.726,159.357 179.396,158.287 180.040 C 157.863 180.295,157.769 180.560,157.953 180.985 C 158.181 181.513,158.221 181.519,158.336 181.043 C 158.445 180.589,159.625 179.789,162.677 178.100 C 163.024 177.908,163.980 177.372,164.803 176.907 C 165.626 176.443,166.972 175.690,167.795 175.233 C 168.618 174.777,169.433 174.302,169.606 174.176 C 169.780 174.051,170.701 173.526,171.654 173.009 C 172.606 172.491,174.945 171.176,176.850 170.086 C 178.756 168.996,181.094 167.674,182.047 167.148 C 183.000 166.623,184.308 165.863,184.954 165.459 C 185.601 165.055,186.274 164.724,186.450 164.724 C 186.627 164.724,186.772 164.616,186.772 164.484 C 186.772 164.351,187.303 163.989,187.953 163.678 C 189.522 162.927,191.501 161.850,192.455 161.228 C 192.880 160.950,194.187 160.197,195.359 159.554 L 197.490 158.386 200.556 160.022 C 204.567 162.162,206.868 163.414,208.031 164.091 C 208.551 164.393,209.756 165.063,210.709 165.580 C 211.661 166.096,213.929 167.340,215.748 168.344 C 220.365 170.893,221.066 171.277,225.513 173.693 C 227.678 174.870,230.087 176.187,230.866 176.622 C 233.325 177.992,235.044 178.931,237.557 180.280 C 238.898 181.000,240.252 181.808,240.564 182.075 C 240.877 182.343,241.313 182.502,241.532 182.429 C 241.993 182.275,245.039 183.650,245.039 184.011 C 245.039 184.144,245.311 184.252,245.643 184.252 C 245.975 184.252,246.294 184.358,246.352 184.488 C 246.446 184.701,248.793 186.028,250.627 186.906 C 251.016 187.092,251.335 187.350,251.336 187.480 C 251.337 187.610,251.622 187.717,251.969 187.717 C 252.315 187.717,252.598 187.843,252.598 187.997 C 252.598 188.152,252.953 188.367,253.386 188.476 C 253.819 188.584,254.173 188.812,254.173 188.982 C 254.173 189.152,254.445 189.291,254.777 189.291 C 255.109 189.291,255.428 189.398,255.486 189.528 C 255.580 189.740,257.927 191.067,259.761 191.945 C 260.150 192.131,260.469 192.390,260.470 192.520 C 260.471 192.650,260.679 192.756,260.931 192.756 C 261.183 192.756,262.140 193.199,263.057 193.741 C 264.800 194.771,268.941 197.030,270.155 197.613 C 270.543 197.800,270.862 198.059,270.864 198.189 C 270.865 198.319,271.092 198.425,271.369 198.425 C 271.645 198.425,272.248 198.673,272.709 198.976 C 274.118 199.904,274.736 200.256,276.535 201.155 C 277.488 201.631,278.976 202.461,279.843 203.000 C 280.709 203.538,281.949 204.224,282.598 204.524 C 283.777 205.068,284.247 206.288,283.465 206.772 C 283.291 206.879,283.150 207.131,283.150 207.333 C 283.150 207.534,283.386 207.349,283.675 206.920 C 283.964 206.492,284.240 206.090,284.288 206.027 C 284.337 205.964,284.844 206.193,285.417 206.536 C 285.989 206.879,287.378 207.658,288.504 208.266 C 290.456 209.322,291.675 209.991,295.039 211.851 C 295.862 212.306,297.598 213.249,298.898 213.946 C 300.197 214.643,301.402 215.314,301.575 215.437 C 301.748 215.559,302.953 216.233,304.252 216.933 C 305.551 217.633,307.961 218.944,309.606 219.848 C 311.252 220.751,313.520 221.985,314.646 222.590 C 315.772 223.195,316.835 223.797,317.008 223.928 C 317.181 224.059,318.386 224.730,319.685 225.420 C 321.967 226.631,324.972 228.256,327.833 229.826 C 328.590 230.241,329.228 230.539,329.250 230.487 C 329.273 230.436,329.469 230.077,329.685 229.689 C 329.902 229.302,330.079 228.708,330.079 228.369 C 330.079 228.031,330.220 227.666,330.394 227.559 C 330.567 227.452,330.709 226.806,330.709 226.123 C 330.709 225.155,330.830 224.880,331.260 224.872 C 331.785 224.862,331.785 224.842,331.260 224.443 C 330.582 223.929,330.561 223.506,331.189 222.986 C 331.845 222.441,331.758 93.526,331.102 93.307 C 330.833 93.217,330.709 92.410,330.709 90.745 C 330.709 88.493,330.245 86.622,329.685 86.617 C 329.555 86.615,329.449 86.268,329.449 85.845 C 329.449 85.423,329.325 85.000,329.175 84.907 C 329.024 84.814,328.815 84.309,328.710 83.786 C 328.605 83.263,328.346 82.835,328.134 82.835 C 327.834 82.835,327.832 82.919,328.126 83.213 M69.921 86.168 C 69.921 86.442,70.090 86.611,70.295 86.542 C 70.879 86.347,70.976 85.669,70.420 85.669 C 70.146 85.669,69.921 85.894,69.921 86.168 M69.515 87.125 C 69.185 87.456,69.243 88.819,69.588 88.819 C 69.751 88.819,69.964 88.690,70.061 88.533 C 70.301 88.145,69.797 86.844,69.515 87.125 M68.527 90.042 C 68.129 90.685,68.495 226.244,68.895 226.377 C 69.205 226.480,69.287 212.428,69.290 158.136 C 69.293 115.393,69.183 89.764,68.996 89.764 C 68.833 89.764,68.621 89.889,68.527 90.042 M291.902 136.772 L 291.993 139.528 297.323 139.528 L 302.653 139.528 302.744 136.772 L 302.835 134.016 309.269 133.930 C 316.695 133.832,316.209 133.611,316.216 137.087 L 316.220 139.528 319.190 139.528 C 323.320 139.528,323.150 139.248,323.150 146.027 C 323.150 153.128,323.377 152.756,319.044 152.756 L 315.591 152.756 315.591 158.257 L 315.591 163.757 318.819 163.847 L 322.047 163.937 322.047 170.236 L 322.047 176.535 318.898 176.693 L 315.748 176.850 315.657 179.420 C 315.536 182.849,315.842 182.708,308.778 182.606 L 302.835 182.520 302.744 179.599 L 302.653 176.678 297.390 176.764 L 292.126 176.850 291.969 179.685 L 291.811 182.520 285.743 182.605 L 279.675 182.691 279.365 181.876 C 279.195 181.428,279.055 180.078,279.055 178.877 L 279.055 176.693 276.441 176.693 C 272.917 176.693,273.071 176.987,273.071 170.236 C 273.071 163.486,272.917 163.780,276.441 163.780 L 279.055 163.780 279.055 158.268 L 279.055 152.756 276.389 152.756 C 272.971 152.756,273.071 152.956,273.071 146.108 C 273.071 139.418,273.012 139.528,276.584 139.528 L 279.055 139.528 279.059 137.402 C 279.062 136.232,279.150 134.954,279.255 134.560 L 279.447 133.845 285.629 133.930 L 291.811 134.016 291.902 136.772 M292.040 158.189 L 292.126 163.622 297.402 163.708 L 302.677 163.795 302.677 158.275 L 302.677 152.756 297.315 152.756 L 291.954 152.756 292.040 158.189 M239.306 185.199 C 238.616 186.412,238.820 186.411,239.685 185.197 C 240.055 184.677,240.242 184.253,240.100 184.254 C 239.958 184.255,239.601 184.680,239.306 185.199 M161.615 187.004 C 162.865 188.588,163.534 189.107,162.642 187.802 C 162.142 187.069,161.609 186.467,161.457 186.463 C 161.306 186.460,161.377 186.703,161.615 187.004 M233.969 191.555 C 232.817 192.735,231.971 193.701,232.088 193.701 C 232.388 193.701,236.374 189.647,236.203 189.516 C 236.126 189.457,235.121 190.375,233.969 191.555 M165.686 191.681 C 166.283 192.303,167.339 193.249,168.031 193.784 C 168.724 194.318,168.302 193.810,167.092 192.654 C 164.733 190.399,163.904 189.826,165.686 191.681 M170.394 195.705 C 170.394 195.792,170.819 196.165,171.339 196.535 C 171.858 196.905,172.283 197.137,172.283 197.051 C 172.283 196.964,171.858 196.591,171.339 196.220 C 170.819 195.850,170.394 195.619,170.394 195.705 M227.008 197.430 C 226.532 197.718,226.143 198.069,226.142 198.210 C 226.142 198.352,226.567 198.165,227.087 197.795 C 228.486 196.799,228.437 196.568,227.008 197.430 M183.265 203.004 C 183.847 203.258,184.414 203.460,184.524 203.453 C 184.934 203.431,183.131 202.542,182.677 202.543 C 182.417 202.544,182.682 202.751,183.265 203.004 M216.202 202.982 C 215.407 203.584,215.751 203.590,216.893 202.994 C 217.389 202.735,217.574 202.523,217.304 202.522 C 217.034 202.521,216.538 202.728,216.202 202.982 M112.756 205.862 C 111.630 206.478,110.283 207.236,109.764 207.546 C 109.244 207.857,108.181 208.465,107.402 208.899 C 106.622 209.332,105.063 210.217,103.937 210.866 C 102.811 211.515,101.252 212.406,100.472 212.847 C 99.693 213.287,98.594 213.907,98.031 214.225 C 97.469 214.543,96.547 215.063,95.984 215.381 C 95.421 215.699,94.287 216.337,93.465 216.799 C 89.887 218.806,88.928 219.350,87.576 220.143 C 86.787 220.605,85.929 221.082,85.669 221.203 C 85.409 221.324,84.701 221.725,84.094 222.094 C 83.488 222.463,82.354 223.123,81.575 223.560 C 80.795 223.998,79.661 224.636,79.055 224.978 C 78.449 225.321,77.315 225.954,76.535 226.386 C 75.756 226.818,74.957 227.298,74.760 227.453 C 72.401 229.309,70.538 229.351,70.190 227.554 C 70.020 226.677,69.290 226.594,69.301 227.454 C 69.312 228.216,69.699 228.837,70.609 229.549 C 71.082 229.919,76.045 227.730,76.850 226.797 C 76.937 226.696,77.575 226.320,78.268 225.962 C 78.961 225.603,80.201 224.929,81.024 224.465 C 81.846 224.002,83.193 223.247,84.016 222.790 C 84.839 222.332,85.888 221.694,86.348 221.372 C 86.808 221.051,87.255 220.787,87.341 220.787 C 87.428 220.787,88.398 220.272,89.497 219.642 C 90.597 219.012,92.417 217.998,93.543 217.388 C 94.669 216.779,95.967 216.018,96.427 215.699 C 96.886 215.379,97.335 215.118,97.424 215.118 C 97.513 215.118,98.665 214.480,99.983 213.701 C 101.302 212.921,102.518 212.283,102.686 212.283 C 102.854 212.283,102.992 212.158,102.992 212.005 C 102.992 211.852,103.240 211.647,103.543 211.550 C 103.846 211.453,104.803 210.960,105.669 210.456 C 106.535 209.952,107.953 209.141,108.819 208.655 C 109.685 208.168,110.890 207.490,111.496 207.148 C 115.506 204.883,115.172 205.008,115.636 205.600 C 116.023 206.092,116.031 206.086,115.721 205.530 C 115.212 204.617,114.987 204.642,112.756 205.862 M190.866 205.039 C 192.080 205.428,192.728 205.428,192.126 205.039 C 191.866 204.871,191.299 204.746,190.866 204.761 L 190.079 204.787 190.866 205.039 M208.024 205.052 C 207.891 205.267,208.128 205.306,208.714 205.165 C 209.921 204.875,210.035 204.724,209.047 204.724 C 208.596 204.724,208.135 204.872,208.024 205.052 M193.930 205.582 C 194.489 205.651,195.481 205.652,196.135 205.584 C 196.788 205.516,196.331 205.459,195.118 205.458 C 193.906 205.456,193.371 205.512,193.930 205.582 M203.694 205.582 C 204.253 205.651,205.245 205.652,205.898 205.584 C 206.552 205.516,206.094 205.459,204.882 205.458 C 203.669 205.456,203.135 205.512,203.694 205.582 M198.985 205.900 C 199.726 205.967,200.859 205.966,201.504 205.898 C 202.149 205.831,201.543 205.776,200.157 205.777 C 198.772 205.778,198.244 205.834,198.985 205.900 M118.676 210.707 C 118.971 211.225,119.329 211.650,119.470 211.652 C 119.612 211.653,119.425 211.228,119.055 210.709 C 118.191 209.494,117.986 209.493,118.676 210.707 M277.480 215.748 C 277.110 216.268,276.928 216.693,277.076 216.693 C 277.224 216.693,277.596 216.268,277.903 215.748 C 278.210 215.228,278.392 214.803,278.307 214.803 C 278.222 214.803,277.850 215.228,277.480 215.748 M124.064 218.110 C 124.514 218.957,125.656 220.277,125.805 220.123 C 125.871 220.056,125.432 219.433,124.828 218.740 C 124.224 218.047,123.880 217.764,124.064 218.110 M275.143 218.829 L 274.539 219.685 275.380 218.921 C 276.263 218.119,276.372 217.946,275.984 217.963 C 275.854 217.968,275.476 218.358,275.143 218.829 M267.953 226.551 C 264.104 230.414,262.735 231.976,265.017 229.899 C 268.007 227.178,272.322 222.736,272.104 222.603 C 272.030 222.557,270.161 224.334,267.953 226.551 M129.618 224.598 C 132.208 227.259,135.068 229.984,135.824 230.511 C 136.215 230.784,134.693 229.206,132.441 227.004 C 128.340 222.994,126.682 221.581,129.618 224.598 M138.559 232.860 C 139.361 233.744,139.534 233.852,139.518 233.465 C 139.512 233.335,139.122 232.956,138.652 232.624 L 137.795 232.019 138.559 232.860 M261.079 232.967 L 260.315 233.808 261.171 233.203 C 261.642 232.871,262.032 232.492,262.037 232.362 C 262.054 231.974,261.881 232.083,261.079 232.967 M254.331 237.958 L 253.386 238.747 254.407 238.192 C 254.969 237.887,255.430 237.531,255.431 237.402 C 255.434 237.057,255.370 237.090,254.331 237.958 M145.512 237.910 C 145.512 237.996,145.937 238.370,146.457 238.740 C 146.976 239.110,147.402 239.342,147.402 239.255 C 147.402 239.169,146.976 238.795,146.457 238.425 C 145.937 238.055,145.512 237.823,145.512 237.910 M154.672 243.588 C 155.026 243.922,157.254 245.055,157.356 244.954 C 157.420 244.890,156.894 244.528,156.187 244.151 C 155.015 243.526,154.339 243.274,154.672 243.588 M243.703 244.177 C 243.054 244.538,242.577 244.887,242.642 244.952 C 242.745 245.055,244.970 243.925,245.328 243.588 C 245.680 243.256,244.753 243.592,243.703 244.177 M160.945 246.772 C 161.378 247.019,161.945 247.221,162.205 247.221 C 162.465 247.220,162.200 247.012,161.617 246.759 C 160.276 246.177,159.916 246.184,160.945 246.772 M238.268 246.783 C 237.748 247.021,237.535 247.217,237.795 247.219 C 238.055 247.220,238.622 247.019,239.055 246.772 C 240.051 246.202,239.519 246.210,238.268 246.783 M178.583 252.584 C 178.843 252.760,179.327 252.906,179.659 252.909 C 180.465 252.915,180.213 252.735,179.055 252.476 C 178.365 252.321,178.238 252.351,178.583 252.584 M220.472 252.598 L 219.685 252.851 220.533 252.882 C 220.999 252.899,221.468 252.772,221.575 252.598 C 221.796 252.240,221.590 252.240,220.472 252.598 M181.732 253.228 C 181.992 253.396,182.559 253.522,182.992 253.507 L 183.780 253.481 182.992 253.228 C 181.778 252.840,181.131 252.840,181.732 253.228 M217.165 253.228 C 216.294 253.450,216.281 253.471,217.008 253.501 C 217.441 253.519,218.008 253.396,218.268 253.228 C 218.804 252.882,218.527 252.882,217.165 253.228 M185.669 253.858 C 185.776 254.031,186.245 254.163,186.712 254.151 C 187.468 254.131,187.492 254.100,186.929 253.858 C 186.054 253.482,185.437 253.482,185.669 253.858 M213.228 253.858 L 212.441 254.110 213.288 254.142 C 213.755 254.159,214.224 254.031,214.331 253.858 C 214.552 253.500,214.346 253.500,213.228 253.858 M191.811 254.488 C 192.071 254.656,192.709 254.782,193.228 254.767 C 194.154 254.741,194.157 254.735,193.386 254.488 C 192.181 254.102,191.214 254.102,191.811 254.488 M206.614 254.488 C 205.843 254.735,205.846 254.741,206.772 254.767 C 207.291 254.782,207.929 254.656,208.189 254.488 C 208.786 254.102,207.819 254.102,206.614 254.488 M198.189 255.036 C 199.185 255.098,200.815 255.098,201.811 255.036 C 202.807 254.973,201.992 254.922,200.000 254.922 C 198.008 254.922,197.193 254.973,198.189 255.036 " stroke="none" fill="#783d84" fill-rule="evenodd"></path><path id="path3" d="M196.064 14.444 C 195.956 14.724,195.534 14.829,194.836 14.747 C 194.063 14.657,193.815 14.734,193.928 15.028 C 194.024 15.279,193.831 15.433,193.420 15.433 C 193.055 15.433,192.756 15.575,192.756 15.748 C 192.756 15.921,192.402 16.063,191.969 16.063 C 191.535 16.063,191.181 16.220,191.181 16.412 C 191.181 16.603,190.955 16.674,190.680 16.568 C 190.344 16.439,190.123 16.587,190.011 17.015 C 189.891 17.472,189.673 17.602,189.252 17.468 C 188.835 17.335,188.661 17.435,188.661 17.808 C 188.661 18.212,188.479 18.290,187.882 18.140 C 187.272 17.987,187.143 18.048,187.286 18.421 C 187.414 18.754,187.268 18.898,186.805 18.898 C 186.440 18.898,186.140 19.075,186.137 19.291 C 186.133 19.576,186.056 19.565,185.857 19.251 C 185.507 18.698,184.882 19.070,184.882 19.832 C 184.882 20.258,184.714 20.370,184.252 20.249 C 183.801 20.131,183.622 20.239,183.622 20.629 C 183.622 21.051,183.416 21.144,182.710 21.040 C 182.050 20.943,181.841 21.020,181.956 21.319 C 182.048 21.559,181.893 21.732,181.586 21.732 C 181.295 21.732,180.867 21.923,180.634 22.156 C 180.401 22.389,179.787 22.554,179.270 22.523 C 178.449 22.474,178.345 22.560,178.459 23.188 C 178.574 23.824,178.481 23.894,177.661 23.790 C 176.959 23.702,176.774 23.782,176.904 24.120 C 177.018 24.419,176.855 24.567,176.412 24.567 C 176.047 24.567,175.748 24.709,175.748 24.882 C 175.748 25.055,175.330 25.197,174.819 25.197 C 174.272 25.197,173.551 25.512,173.062 25.965 C 172.606 26.387,172.068 26.694,171.865 26.646 C 171.662 26.599,171.602 26.619,171.732 26.692 C 172.185 26.945,171.965 27.468,171.484 27.283 C 171.209 27.177,170.923 27.299,170.821 27.564 C 170.722 27.821,170.408 28.036,170.124 28.042 C 169.839 28.047,169.337 28.255,169.009 28.504 C 168.680 28.753,168.305 28.891,168.176 28.811 C 168.046 28.731,167.855 28.887,167.751 29.157 C 167.633 29.465,167.346 29.581,166.986 29.467 C 166.580 29.338,166.281 29.525,165.973 30.099 C 165.662 30.680,165.343 30.877,164.859 30.785 C 164.332 30.684,164.214 30.781,164.329 31.221 C 164.444 31.662,164.326 31.759,163.798 31.657 C 163.385 31.578,163.046 31.715,162.934 32.007 C 162.808 32.334,162.510 32.428,162.005 32.301 C 161.492 32.172,161.260 32.249,161.260 32.547 C 161.260 32.785,160.799 33.118,160.236 33.288 C 159.673 33.457,159.248 33.761,159.291 33.963 C 159.335 34.165,159.228 34.331,159.055 34.331 C 158.882 34.331,158.734 34.154,158.728 33.937 C 158.721 33.720,158.503 33.933,158.245 34.409 C 157.978 34.902,157.508 35.276,157.155 35.276 C 156.814 35.276,156.535 35.417,156.535 35.591 C 156.535 35.764,156.280 35.906,155.969 35.906 C 155.657 35.906,155.211 36.083,154.977 36.299 C 154.633 36.619,154.602 36.607,154.814 36.237 C 154.957 35.987,154.588 36.123,153.994 36.541 C 153.400 36.958,152.864 37.417,152.804 37.561 C 152.744 37.704,152.469 37.638,152.192 37.415 C 151.807 37.102,151.745 37.100,151.928 37.404 C 152.211 37.875,151.437 38.740,150.731 38.740 C 150.459 38.740,150.236 38.882,150.236 39.055 C 150.236 39.228,149.882 39.370,149.449 39.370 C 149.016 39.370,148.661 39.476,148.660 39.606 C 148.660 39.736,147.880 40.263,146.928 40.776 C 145.976 41.290,145.197 41.821,145.197 41.957 C 145.197 42.093,144.929 42.205,144.601 42.205 C 144.273 42.205,143.917 42.432,143.811 42.710 C 143.697 43.005,143.416 43.138,143.135 43.030 C 142.862 42.925,142.576 43.048,142.474 43.312 C 142.375 43.569,141.964 43.780,141.559 43.780 C 141.154 43.780,140.602 44.095,140.333 44.480 C 140.005 44.947,139.841 45.026,139.838 44.716 C 139.834 44.330,139.787 44.325,139.558 44.686 C 139.407 44.925,139.127 45.024,138.936 44.906 C 138.721 44.772,138.659 44.871,138.772 45.167 C 138.897 45.493,138.698 45.707,138.139 45.848 C 137.690 45.960,137.323 46.179,137.323 46.333 C 137.323 46.488,136.889 46.614,136.359 46.614 C 135.829 46.614,135.468 46.730,135.555 46.872 C 135.643 47.014,135.224 47.307,134.624 47.524 C 134.024 47.741,133.615 48.050,133.714 48.211 C 133.814 48.372,133.599 48.504,133.237 48.504 C 132.875 48.504,132.497 48.717,132.397 48.976 C 132.298 49.236,131.948 49.449,131.620 49.449 C 131.292 49.449,131.024 49.591,131.024 49.764 C 131.024 49.937,130.730 50.079,130.371 50.079 C 129.642 50.079,128.819 50.768,128.819 51.379 C 128.819 51.675,128.727 51.687,128.465 51.426 C 127.995 50.956,126.693 51.538,126.442 52.331 C 126.340 52.651,125.977 52.913,125.635 52.913 C 125.293 52.913,124.700 53.206,124.318 53.564 C 123.919 53.936,123.338 54.160,122.956 54.088 C 122.421 53.987,122.323 54.085,122.456 54.593 C 122.585 55.088,122.505 55.180,122.086 55.019 C 121.755 54.892,121.483 54.992,121.372 55.281 C 121.273 55.538,120.853 55.748,120.439 55.748 C 119.956 55.748,119.685 55.930,119.685 56.254 C 119.685 56.580,119.513 56.694,119.201 56.574 C 118.925 56.469,118.639 56.590,118.537 56.856 C 118.438 57.113,118.172 57.323,117.945 57.323 C 117.718 57.323,117.461 57.500,117.373 57.717 C 117.249 58.023,117.147 58.016,116.915 57.684 C 116.677 57.345,116.512 57.408,116.103 57.991 C 115.821 58.393,115.591 58.573,115.591 58.390 C 115.591 58.207,115.386 58.058,115.136 58.058 C 114.885 58.058,114.690 58.140,114.700 58.241 C 114.796 59.130,114.588 59.453,114.016 59.304 C 113.578 59.189,113.386 59.294,113.386 59.648 C 113.386 59.948,113.126 60.157,112.756 60.157 C 112.409 60.157,112.126 60.299,112.126 60.472 C 112.126 60.646,111.913 60.787,111.654 60.787 C 111.394 60.787,111.181 60.957,111.181 61.165 C 111.181 61.459,111.097 61.459,110.803 61.165 C 110.266 60.628,109.993 60.695,109.764 61.418 C 109.612 61.896,109.383 62.003,108.819 61.862 C 108.184 61.702,108.101 61.771,108.248 62.334 C 108.382 62.848,108.275 62.992,107.753 62.992 C 107.387 62.992,107.087 63.134,107.087 63.307 C 107.087 63.480,106.803 63.622,106.457 63.622 C 106.110 63.622,105.827 63.764,105.827 63.937 C 105.827 64.110,105.558 64.252,105.231 64.252 C 104.903 64.252,104.553 64.465,104.453 64.724 C 104.353 64.984,104.055 65.197,103.789 65.197 C 103.524 65.197,103.307 65.356,103.307 65.550 C 103.307 65.790,103.149 65.773,102.819 65.499 C 102.406 65.156,102.303 65.199,102.152 65.775 C 102.032 66.233,101.728 66.457,101.223 66.457 C 100.753 66.457,100.472 66.640,100.472 66.948 C 100.472 67.218,100.321 67.345,100.137 67.231 C 99.952 67.117,99.618 67.273,99.395 67.579 C 99.143 67.923,98.786 68.056,98.454 67.929 C 98.120 67.800,97.997 67.848,98.126 68.056 C 98.239 68.239,98.033 68.467,97.669 68.562 C 97.306 68.657,97.008 68.860,97.008 69.013 C 97.008 69.166,96.654 69.291,96.220 69.291 C 95.787 69.291,95.433 69.433,95.433 69.606 C 95.433 69.780,95.215 69.921,94.947 69.921 C 94.680 69.921,94.154 70.208,93.777 70.559 C 93.401 70.910,92.898 71.122,92.659 71.030 C 92.402 70.931,92.158 71.121,92.060 71.495 C 91.892 72.139,91.339 72.382,91.339 71.811 C 91.339 71.638,91.197 71.496,91.024 71.496 C 90.850 71.496,90.709 71.780,90.709 72.126 C 90.709 72.534,90.499 72.756,90.112 72.756 C 89.785 72.756,89.435 72.969,89.335 73.228 C 89.235 73.488,88.857 73.701,88.495 73.701 C 88.081 73.701,87.919 73.834,88.060 74.061 C 88.213 74.309,88.030 74.374,87.477 74.268 C 86.892 74.156,86.716 74.230,86.834 74.537 C 86.925 74.775,86.791 74.961,86.529 74.961 C 86.272 74.961,85.886 75.172,85.672 75.430 C 85.458 75.688,85.166 75.826,85.023 75.738 C 84.674 75.522,82.780 76.690,83.046 76.957 C 83.161 77.071,82.948 77.165,82.572 77.165 C 82.197 77.165,81.890 77.273,81.890 77.406 C 81.890 77.646,80.957 78.215,79.921 78.606 C 79.618 78.720,79.370 78.939,79.370 79.092 C 79.370 79.245,79.081 79.370,78.727 79.370 C 78.373 79.370,77.780 79.654,77.408 80.000 C 77.036 80.346,76.540 80.630,76.305 80.630 C 75.795 80.630,75.394 80.946,73.371 82.937 C 72.522 83.773,71.717 84.390,71.583 84.309 C 71.185 84.068,70.644 84.855,70.749 85.523 C 70.802 85.863,70.620 86.312,70.345 86.519 C 70.007 86.774,69.909 87.152,70.042 87.684 C 70.176 88.216,70.087 88.556,69.768 88.734 C 68.981 89.175,68.898 226.678,69.685 226.884 C 69.988 226.963,70.236 227.259,70.236 227.543 C 70.236 229.334,72.425 229.291,74.760 227.453 C 74.957 227.298,75.791 226.798,76.614 226.341 C 78.207 225.458,80.400 224.230,82.205 223.211 C 82.811 222.868,83.732 222.326,84.252 222.005 C 84.772 221.685,85.409 221.324,85.669 221.203 C 85.929 221.082,86.787 220.605,87.576 220.143 C 88.928 219.350,89.887 218.806,93.465 216.799 C 94.287 216.337,95.457 215.679,96.063 215.337 C 96.669 214.994,97.803 214.356,98.583 213.919 C 100.317 212.947,101.297 212.388,103.937 210.864 C 105.063 210.214,106.764 209.255,107.717 208.733 C 108.669 208.211,109.591 207.678,109.764 207.550 C 110.279 207.168,114.868 204.724,115.070 204.724 C 115.272 204.724,117.480 208.082,117.480 208.389 C 117.480 208.492,117.976 209.253,118.583 210.079 C 119.189 210.905,119.685 211.739,119.685 211.932 C 119.685 212.125,119.817 212.283,119.979 212.283 C 120.140 212.283,120.355 212.542,120.455 212.858 C 120.555 213.174,120.887 213.705,121.193 214.039 C 121.499 214.373,122.094 215.142,122.514 215.748 C 125.705 220.347,134.499 229.485,139.339 233.228 C 140.010 233.748,140.717 234.323,140.910 234.507 C 141.426 234.999,148.611 240.000,148.801 240.000 C 148.891 240.000,149.740 240.496,150.687 241.102 C 151.635 241.709,152.547 242.205,152.715 242.205 C 152.882 242.205,153.066 242.319,153.123 242.458 C 153.181 242.597,155.142 243.638,157.480 244.771 C 161.238 246.591,162.910 247.331,165.197 248.185 C 165.543 248.314,166.181 248.573,166.614 248.760 C 167.047 248.948,168.606 249.478,170.079 249.939 C 171.551 250.399,173.081 250.903,173.479 251.058 C 173.877 251.212,174.482 251.339,174.822 251.339 C 175.163 251.339,175.688 251.465,175.989 251.619 C 176.814 252.043,180.623 252.849,185.827 253.702 C 195.239 255.245,210.368 254.803,219.650 252.715 C 220.882 252.437,222.352 252.140,222.916 252.055 C 223.481 251.969,224.021 251.773,224.116 251.619 C 224.211 251.465,224.708 251.339,225.220 251.339 C 225.732 251.339,226.396 251.216,226.697 251.066 C 226.998 250.916,228.449 250.413,229.921 249.947 C 231.394 249.482,232.882 248.982,233.228 248.837 C 233.575 248.692,235.205 248.034,236.850 247.374 C 240.076 246.082,247.665 242.305,249.124 241.267 C 249.616 240.917,250.174 240.630,250.364 240.630 C 250.553 240.630,250.709 240.488,250.709 240.315 C 250.709 240.142,250.861 240.000,251.047 240.000 C 251.357 240.000,257.584 235.781,259.055 234.573 C 259.402 234.289,260.606 233.306,261.732 232.390 C 263.897 230.627,271.820 222.822,273.763 220.537 C 276.149 217.731,279.685 213.014,279.685 212.636 C 279.685 212.471,279.803 212.289,279.947 212.231 C 280.290 212.094,282.520 208.585,282.520 208.183 C 282.520 208.013,282.626 207.873,282.756 207.872 C 283.072 207.868,283.780 206.313,283.780 205.621 C 283.780 205.290,283.307 204.851,282.598 204.524 C 281.949 204.224,280.709 203.538,279.843 203.000 C 278.976 202.461,277.488 201.631,276.535 201.155 C 274.736 200.256,274.118 199.904,272.709 198.976 C 272.248 198.673,271.645 198.425,271.369 198.425 C 271.092 198.425,270.865 198.319,270.864 198.189 C 270.862 198.059,270.543 197.800,270.155 197.613 C 268.941 197.030,264.800 194.771,263.057 193.741 C 262.140 193.199,261.183 192.756,260.931 192.756 C 260.679 192.756,260.471 192.650,260.470 192.520 C 260.469 192.390,260.150 192.131,259.761 191.945 C 257.927 191.067,255.580 189.740,255.486 189.528 C 255.428 189.398,255.109 189.291,254.777 189.291 C 254.445 189.291,254.173 189.152,254.173 188.982 C 254.173 188.812,253.819 188.584,253.386 188.476 C 252.953 188.367,252.598 188.152,252.598 187.997 C 252.598 187.843,252.315 187.717,251.969 187.717 C 251.622 187.717,251.337 187.610,251.336 187.480 C 251.335 187.350,251.016 187.092,250.627 186.906 C 248.793 186.028,246.446 184.701,246.352 184.488 C 246.294 184.358,245.975 184.252,245.643 184.252 C 245.311 184.252,245.039 184.144,245.039 184.011 C 245.039 183.599,241.938 182.276,241.429 182.472 C 241.163 182.574,240.945 182.874,240.945 183.140 C 240.945 183.405,240.803 183.622,240.630 183.622 C 240.457 183.622,240.315 183.780,240.315 183.974 C 240.315 184.275,239.343 185.721,237.481 188.186 C 236.682 189.244,230.764 195.080,229.811 195.748 C 229.318 196.094,228.326 196.837,227.607 197.399 C 226.888 197.960,226.122 198.420,225.906 198.422 C 225.689 198.424,225.512 198.550,225.512 198.703 C 225.512 198.856,225.264 199.061,224.961 199.159 C 224.657 199.256,223.701 199.742,222.835 200.238 C 221.969 200.735,220.664 201.377,219.935 201.665 C 219.206 201.953,218.001 202.462,217.257 202.795 C 216.514 203.128,215.551 203.496,215.118 203.612 C 214.685 203.727,213.835 203.954,213.228 204.114 C 206.455 205.911,196.833 206.401,191.496 205.221 C 185.203 203.831,183.905 203.400,178.268 200.837 C 177.835 200.640,176.743 200.016,175.842 199.452 C 174.941 198.887,174.082 198.425,173.933 198.425 C 173.784 198.425,173.387 198.177,173.051 197.874 C 172.715 197.571,171.593 196.691,170.556 195.918 C 167.292 193.486,162.792 188.770,160.742 185.635 C 160.075 184.614,159.456 183.709,159.367 183.622 C 158.412 182.698,157.704 180.389,158.271 180.049 C 159.127 179.534,161.458 178.197,163.307 177.158 C 164.173 176.672,165.378 175.994,165.984 175.652 C 167.075 175.036,168.945 173.986,170.965 172.856 C 171.539 172.534,172.319 172.079,172.697 171.844 C 173.076 171.608,174.165 170.991,175.118 170.473 C 176.071 169.954,177.750 169.016,178.849 168.387 C 179.948 167.758,180.964 167.244,181.106 167.244 C 181.249 167.244,181.412 167.138,181.470 167.008 C 181.584 166.751,183.446 165.642,185.197 164.789 C 185.803 164.494,186.370 164.173,186.457 164.076 C 186.543 163.979,187.606 163.352,188.819 162.683 C 191.219 161.358,191.478 161.212,195.925 158.679 C 197.581 157.735,199.140 156.866,199.390 156.747 C 199.639 156.628,200.339 156.228,200.945 155.859 C 201.551 155.490,202.685 154.830,203.465 154.392 C 205.727 153.123,206.858 152.482,207.953 151.850 C 211.690 149.690,213.008 148.976,213.259 148.976 C 213.415 148.976,213.545 148.870,213.547 148.740 C 213.549 148.610,214.151 148.223,214.886 147.879 C 215.620 147.535,216.291 147.181,216.378 147.091 C 216.529 146.936,216.816 146.767,219.020 145.534 C 221.950 143.895,222.938 143.334,223.937 142.741 C 224.543 142.381,225.677 141.748,226.457 141.334 C 228.252 140.380,230.398 139.161,233.333 137.427 C 234.603 136.677,235.773 136.063,235.932 136.063 C 236.090 136.063,236.220 135.956,236.220 135.825 C 236.220 135.694,236.681 135.388,237.244 135.146 C 237.807 134.903,238.644 134.443,239.104 134.124 C 239.564 133.805,240.367 133.543,240.889 133.543 C 241.410 133.543,241.885 133.437,241.942 133.307 C 242.000 133.177,242.665 132.751,243.420 132.360 C 245.506 131.279,246.755 130.571,246.929 130.368 C 247.016 130.268,247.547 129.985,248.110 129.740 C 248.673 129.495,249.134 129.203,249.134 129.091 C 249.134 128.979,249.488 128.798,249.921 128.690 C 250.354 128.581,250.709 128.353,250.709 128.183 C 250.709 128.013,250.992 127.874,251.339 127.874 C 251.685 127.874,251.969 127.767,251.969 127.636 C 251.969 127.505,252.429 127.197,252.992 126.952 C 253.555 126.707,254.441 126.205,254.961 125.836 C 255.480 125.467,256.331 124.965,256.850 124.720 C 257.370 124.475,258.150 124.038,258.583 123.749 C 259.016 123.460,260.291 122.736,261.417 122.139 C 262.543 121.542,264.064 120.675,264.797 120.212 C 265.530 119.749,266.262 119.370,266.424 119.370 C 266.586 119.370,266.766 119.264,266.824 119.134 C 266.882 119.004,267.744 118.478,268.740 117.965 C 269.736 117.452,270.551 116.921,270.551 116.784 C 270.551 116.647,270.823 116.535,271.155 116.535 C 271.487 116.535,271.806 116.429,271.864 116.299 C 271.921 116.169,272.748 115.655,273.701 115.157 C 274.654 114.658,275.504 114.160,275.591 114.050 C 275.677 113.940,276.457 113.498,277.323 113.068 C 278.189 112.639,279.062 112.132,279.263 111.942 C 279.464 111.753,280.413 111.214,281.373 110.744 C 282.332 110.275,283.195 109.645,283.290 109.344 C 283.386 109.043,284.279 108.377,285.275 107.863 C 286.272 107.349,287.134 106.823,287.192 106.693 C 287.249 106.563,287.415 106.457,287.559 106.457 C 287.704 106.457,288.901 105.819,290.219 105.039 C 291.538 104.260,292.672 103.622,292.739 103.622 C 292.806 103.622,293.940 102.984,295.259 102.205 C 296.577 101.425,297.726 100.787,297.811 100.787 C 297.896 100.787,298.539 100.425,299.239 99.983 C 299.940 99.541,300.965 98.921,301.517 98.606 C 302.068 98.291,304.079 97.144,305.984 96.056 C 310.348 93.564,311.317 93.014,313.054 92.037 C 313.825 91.603,315.142 90.844,315.982 90.349 C 316.821 89.854,317.579 89.449,317.667 89.449 C 317.754 89.449,318.563 88.986,319.464 88.421 C 320.365 87.855,321.882 86.983,322.835 86.481 C 323.787 85.980,324.955 85.300,325.430 84.970 C 325.905 84.641,326.791 84.290,327.399 84.191 C 328.495 84.014,328.723 83.788,328.268 83.333 C 328.138 83.203,328.031 82.999,328.031 82.880 C 328.031 82.515,326.822 81.424,325.906 80.961 C 325.429 80.720,325.039 80.323,325.039 80.078 C 325.039 79.833,324.862 79.697,324.646 79.775 C 324.429 79.854,324.039 79.738,323.780 79.518 C 322.993 78.854,320.956 77.795,320.463 77.795 C 320.208 77.795,320.000 77.587,320.000 77.333 C 320.000 77.076,319.813 76.942,319.580 77.031 C 319.348 77.120,318.413 76.691,317.501 76.077 C 316.589 75.463,315.644 74.961,315.401 74.961 C 315.159 74.961,314.961 74.761,314.961 74.516 C 314.961 74.270,314.714 74.109,314.409 74.156 C 314.106 74.203,313.787 74.148,313.701 74.033 C 313.374 73.601,311.181 72.401,311.176 72.651 C 311.174 72.796,311.067 72.764,310.940 72.582 C 310.813 72.400,310.183 72.006,309.541 71.707 C 308.899 71.409,308.288 71.026,308.184 70.858 C 308.080 70.689,307.719 70.551,307.383 70.551 C 307.047 70.551,306.772 70.409,306.772 70.236 C 306.772 70.063,306.559 69.921,306.299 69.921 C 306.039 69.921,305.827 69.780,305.827 69.606 C 305.827 69.433,305.543 69.291,305.197 69.291 C 304.850 69.291,304.567 69.162,304.567 69.003 C 304.567 68.845,303.717 68.313,302.677 67.822 C 301.638 67.332,300.787 66.824,300.787 66.693 C 300.787 66.563,300.504 66.457,300.157 66.457 C 299.811 66.457,299.528 66.315,299.528 66.142 C 299.528 65.969,299.261 65.827,298.936 65.827 C 298.611 65.827,298.186 65.636,297.992 65.402 C 297.798 65.168,296.683 64.498,295.513 63.912 C 294.343 63.327,293.272 62.668,293.134 62.448 C 292.995 62.227,292.606 62.047,292.268 62.047 C 291.930 62.047,291.654 61.906,291.654 61.732 C 291.654 61.559,291.372 61.417,291.027 61.417 C 290.255 61.417,289.097 60.472,289.356 60.053 C 289.461 59.884,289.395 59.838,289.211 59.952 C 288.763 60.229,287.830 59.853,288.057 59.487 C 288.155 59.327,288.112 59.236,287.960 59.284 C 287.551 59.412,285.354 58.506,285.354 58.209 C 285.354 58.068,285.132 57.953,284.861 57.953 C 284.589 57.953,283.903 57.598,283.335 57.165 C 282.767 56.732,282.139 56.378,281.939 56.378 C 281.739 56.378,281.575 56.236,281.575 56.063 C 281.575 55.890,281.291 55.748,280.945 55.748 C 280.598 55.748,280.315 55.630,280.315 55.486 C 280.315 55.341,280.137 55.223,279.919 55.223 C 279.702 55.223,278.925 54.845,278.193 54.383 C 277.462 53.921,276.718 53.543,276.542 53.543 C 276.365 53.543,276.220 53.428,276.220 53.287 C 276.220 53.146,275.724 52.836,275.118 52.598 C 274.512 52.361,274.016 52.051,274.016 51.910 C 274.016 51.769,273.728 51.654,273.376 51.654 C 273.024 51.654,272.655 51.441,272.555 51.181 C 272.455 50.921,272.105 50.709,271.777 50.709 C 271.449 50.709,271.181 50.567,271.181 50.394 C 271.181 50.220,270.915 50.079,270.590 50.079 C 270.265 50.079,269.823 49.868,269.609 49.610 C 269.395 49.352,269.103 49.213,268.960 49.301 C 268.817 49.390,268.585 49.270,268.445 49.036 C 268.304 48.801,267.409 48.225,266.457 47.755 C 265.504 47.285,264.157 46.550,263.465 46.122 C 262.772 45.694,261.957 45.259,261.654 45.155 C 261.350 45.051,261.102 44.841,261.102 44.688 C 261.102 44.535,260.895 44.409,260.641 44.409 C 260.173 44.409,257.297 42.918,257.008 42.525 C 256.921 42.408,256.390 42.111,255.827 41.866 C 255.264 41.621,254.803 41.314,254.803 41.183 C 254.803 41.052,254.515 40.945,254.163 40.945 C 253.811 40.945,253.442 40.732,253.342 40.472 C 253.243 40.213,252.893 40.000,252.565 40.000 C 252.237 40.000,251.969 39.858,251.969 39.685 C 251.969 39.512,251.697 39.370,251.365 39.370 C 251.033 39.370,250.714 39.264,250.656 39.134 C 250.598 39.004,249.736 38.478,248.740 37.965 C 247.744 37.452,246.929 36.921,246.929 36.784 C 246.929 36.647,246.715 36.535,246.452 36.535 C 245.991 36.535,244.730 35.937,244.409 35.566 C 244.323 35.466,243.472 34.969,242.520 34.463 C 241.567 33.957,240.740 33.437,240.682 33.307 C 240.625 33.177,240.321 33.071,240.007 33.071 C 239.694 33.071,239.352 32.849,239.249 32.578 C 239.145 32.308,238.908 32.180,238.723 32.294 C 238.537 32.409,238.146 32.293,237.854 32.036 C 237.562 31.779,236.685 31.251,235.906 30.862 C 235.126 30.473,234.373 29.957,234.233 29.716 C 234.092 29.475,233.835 29.366,233.662 29.473 C 233.488 29.580,233.107 29.471,232.815 29.230 C 232.523 28.989,231.894 28.597,231.417 28.358 C 230.941 28.120,230.551 27.807,230.551 27.663 C 230.551 27.519,230.283 27.402,229.955 27.402 C 229.627 27.402,229.278 27.191,229.179 26.934 C 229.081 26.678,228.801 26.544,228.557 26.638 C 228.312 26.731,228.028 26.587,227.925 26.317 C 227.821 26.048,227.448 25.827,227.096 25.827 C 226.745 25.827,226.457 25.720,226.457 25.589 C 226.457 25.458,225.996 25.156,225.433 24.917 C 224.870 24.679,224.265 24.325,224.088 24.132 C 223.604 23.601,222.432 22.992,221.894 22.992 C 221.632 22.992,221.417 22.885,221.417 22.754 C 221.417 22.623,220.957 22.314,220.394 22.066 C 219.831 21.819,218.591 21.115,217.638 20.501 C 216.685 19.888,215.792 19.421,215.652 19.463 C 215.513 19.505,215.199 19.359,214.955 19.139 C 214.060 18.336,213.655 18.087,211.275 16.875 C 209.940 16.196,208.906 15.546,208.977 15.432 C 209.048 15.318,208.403 15.033,207.545 14.799 C 206.687 14.566,205.984 14.264,205.984 14.130 C 205.984 13.663,196.247 13.970,196.064 14.444 M212.913 62.818 C 216.849 63.408,218.470 63.732,224.059 65.051 C 226.512 65.630,233.348 67.827,234.851 68.519 C 235.397 68.771,235.925 68.976,236.024 68.976 C 236.237 68.976,239.445 70.428,242.994 72.131 C 253.459 77.154,267.049 87.927,274.175 96.850 C 274.867 97.717,275.505 98.496,275.592 98.583 C 278.929 101.882,283.350 109.921,281.828 109.921 C 281.704 109.921,280.916 110.326,280.076 110.821 C 279.236 111.316,277.919 112.077,277.149 112.513 C 275.697 113.333,269.532 116.851,267.874 117.804 C 267.354 118.103,266.008 118.880,264.882 119.530 C 263.756 120.180,262.055 121.136,261.102 121.654 C 260.150 122.173,259.060 122.789,258.682 123.025 C 258.303 123.260,257.523 123.718,256.949 124.041 C 256.375 124.365,253.850 125.806,251.339 127.243 C 248.827 128.680,245.850 130.351,244.724 130.956 C 243.598 131.561,242.543 132.178,242.378 132.327 C 241.694 132.948,240.775 132.572,240.105 131.398 C 239.071 129.586,234.971 124.751,232.880 122.877 C 230.763 120.980,226.620 117.795,226.269 117.795 C 226.140 117.795,225.810 117.599,225.537 117.360 C 224.679 116.609,220.416 114.482,217.953 113.575 C 216.654 113.097,215.307 112.591,214.961 112.452 C 204.141 108.092,184.249 110.439,174.762 117.195 C 174.298 117.525,173.838 117.795,173.740 117.795 C 173.305 117.795,168.333 121.772,166.357 123.701 C 161.437 128.504,157.673 134.199,154.962 140.945 C 150.415 152.261,150.961 166.991,156.362 178.684 C 156.977 180.016,157.480 181.172,157.480 181.254 C 157.480 182.626,164.576 191.481,168.115 194.527 C 173.289 198.979,183.324 204.415,186.359 204.410 C 186.739 204.410,187.128 204.536,187.224 204.691 C 187.319 204.846,187.930 205.049,188.581 205.143 C 189.231 205.237,191.181 205.549,192.913 205.837 C 203.229 207.552,215.940 205.133,224.409 199.843 C 225.276 199.302,226.204 198.777,226.471 198.677 C 229.257 197.633,236.749 190.186,240.271 184.961 C 241.873 182.585,241.622 182.599,245.334 184.684 C 246.991 185.615,249.126 186.800,250.079 187.318 C 252.344 188.549,255.312 190.182,256.693 190.959 C 257.299 191.300,258.646 192.035,259.685 192.593 C 260.724 193.151,262.213 193.961,262.992 194.394 C 265.253 195.650,268.686 197.517,270.398 198.423 C 271.267 198.883,272.330 199.478,272.761 199.747 C 273.191 200.016,274.606 200.799,275.906 201.489 C 280.798 204.085,283.150 205.415,283.309 205.673 C 283.606 206.153,276.953 216.462,275.588 217.638 C 275.488 217.724,274.400 219.000,273.171 220.472 C 267.141 227.694,257.004 236.255,248.985 240.898 C 246.201 242.509,237.388 246.910,236.925 246.921 C 236.706 246.925,236.281 247.054,235.980 247.207 C 235.082 247.664,233.981 248.096,231.654 248.904 C 229.466 249.663,228.558 249.943,225.827 250.703 C 225.047 250.919,224.055 251.210,223.622 251.349 C 222.772 251.621,218.769 252.463,216.220 252.907 C 203.603 255.102,187.095 254.353,175.433 251.056 C 172.831 250.320,171.910 250.063,170.945 249.802 C 169.271 249.350,165.327 247.872,164.020 247.207 C 163.719 247.054,163.323 246.929,163.140 246.929 C 162.146 246.929,151.892 241.465,147.244 238.458 C 138.161 232.583,128.000 222.861,122.028 214.331 C 121.179 213.118,120.375 212.079,120.242 212.021 C 120.109 211.963,120.000 211.786,120.000 211.628 C 120.000 211.470,119.504 210.650,118.898 209.806 C 118.291 208.962,117.795 208.183,117.795 208.076 C 117.795 207.968,117.184 206.922,116.438 205.751 C 111.821 198.510,107.278 186.376,105.382 176.220 C 103.164 164.342,103.027 154.474,104.919 142.835 C 105.858 137.055,106.494 134.450,108.493 128.189 C 109.387 125.390,109.537 124.982,110.362 123.102 C 110.639 122.470,110.866 121.871,110.866 121.771 C 110.866 120.506,116.768 109.516,120.073 104.628 C 129.308 90.969,143.698 78.408,157.638 71.838 C 163.475 69.087,165.316 68.346,170.686 66.588 C 174.088 65.475,175.883 65.013,182.047 63.666 C 189.400 62.060,204.988 61.632,212.913 62.818 M279.255 134.560 C 279.150 134.954,279.062 136.232,279.059 137.402 L 279.055 139.528 276.584 139.528 C 273.012 139.528,273.071 139.418,273.071 146.108 C 273.071 152.956,272.971 152.756,276.389 152.756 L 279.055 152.756 279.055 158.268 L 279.055 163.780 276.441 163.780 C 272.917 163.780,273.071 163.486,273.071 170.236 C 273.071 176.987,272.917 176.693,276.441 176.693 L 279.055 176.693 279.055 178.877 C 279.055 180.078,279.195 181.428,279.365 181.876 L 279.675 182.691 285.743 182.605 L 291.811 182.520 291.969 179.685 L 292.126 176.850 297.390 176.764 L 302.653 176.678 302.744 179.599 L 302.835 182.520 308.778 182.606 C 315.842 182.708,315.536 182.849,315.657 179.420 L 315.748 176.850 318.898 176.693 L 322.047 176.535 322.047 170.236 L 322.047 163.937 318.819 163.847 L 315.591 163.757 315.591 158.257 L 315.591 152.756 319.044 152.756 C 323.377 152.756,323.150 153.128,323.150 146.027 C 323.150 139.248,323.320 139.528,319.190 139.528 L 316.220 139.528 316.216 137.087 C 316.209 133.611,316.695 133.832,309.269 133.930 L 302.835 134.016 302.744 136.772 L 302.653 139.528 297.323 139.528 L 291.993 139.528 291.902 136.772 L 291.811 134.016 285.629 133.930 L 279.447 133.845 279.255 134.560 M291.343 136.614 C 291.350 140.836,290.809 140.500,297.440 140.401 L 303.150 140.315 303.307 137.323 L 303.465 134.331 309.516 134.245 L 315.568 134.160 315.658 137.237 L 315.748 140.315 319.134 140.404 L 322.520 140.494 322.520 146.142 L 322.520 151.791 318.819 151.880 L 315.118 151.969 315.033 158.189 L 314.947 164.409 318.025 164.414 C 322.203 164.421,321.920 163.973,321.819 170.417 L 321.732 175.906 318.358 175.995 L 314.983 176.084 314.893 179.144 L 314.803 182.205 309.134 182.205 L 303.465 182.205 303.307 179.213 L 303.150 176.220 297.440 176.135 C 290.809 176.035,291.350 175.698,291.343 179.929 L 291.339 182.377 285.748 182.291 L 280.157 182.205 280.000 179.213 L 279.843 176.220 276.850 176.063 L 273.858 175.906 273.858 170.236 L 273.858 164.567 276.850 164.409 L 279.843 164.252 279.929 158.466 C 280.031 151.544,280.191 151.864,276.585 151.744 L 273.858 151.654 273.858 146.142 L 273.858 140.630 276.520 140.537 C 279.935 140.419,280.000 140.356,280.000 137.179 C 280.000 133.918,279.500 134.173,285.879 134.173 L 291.339 134.173 291.343 136.614 M291.665 152.420 C 291.317 153.071,291.212 162.486,291.539 163.708 C 291.730 164.423,291.736 164.423,297.440 164.338 L 303.150 164.252 303.236 158.291 C 303.301 153.732,303.227 152.270,302.921 152.075 C 301.960 151.466,292.012 151.771,291.665 152.420 M302.677 158.275 L 302.677 163.795 297.402 163.708 L 292.126 163.622 292.040 158.189 L 291.954 152.756 297.315 152.756 L 302.677 152.756 302.677 158.275 " stroke="none" fill="#925594" fill-rule="evenodd"></path></g></svg>