<svg id="svg" version="1.1" xmlns="http://www.w3.org/2000/svg" xmlns:xlink="http://www.w3.org/1999/xlink" width="400" height="454.0571428571428" viewBox="0, 0, 400,454.0571428571428"><g id="svgg"><path id="path1" d="M200.505 32.860 C 200.435 32.930,200.378 44.339,200.378 58.215 L 200.378 83.444 262.942 83.444 L 325.505 83.444 325.379 85.383 C 324.897 92.802,324.481 98.294,324.228 100.568 C 323.141 110.359,321.097 131.373,321.097 132.768 C 321.097 132.975,310.678 133.018,260.738 133.018 L 200.378 133.018 200.378 158.751 L 200.378 184.484 258.467 184.484 C 311.772 184.484,316.556 184.510,316.556 184.789 C 316.556 184.957,316.175 187.959,315.708 191.459 C 315.241 194.960,314.648 200.293,314.389 203.311 C 314.131 206.329,313.874 209.267,313.818 209.839 C 313.763 210.412,313.588 212.370,313.430 214.191 C 313.272 216.012,312.761 221.887,312.295 227.247 C 311.830 232.606,311.403 237.460,311.348 238.032 C 311.292 238.605,311.038 241.500,310.783 244.465 C 310.254 250.629,310.040 253.085,309.640 257.616 C 309.484 259.385,309.103 263.749,308.793 267.313 C 308.484 270.877,307.978 276.710,307.668 280.274 C 307.359 283.839,306.978 288.202,306.822 289.972 C 306.665 291.741,306.450 294.210,306.342 295.459 C 306.235 296.708,305.934 300.156,305.674 303.122 C 305.414 306.088,304.819 312.900,304.353 318.259 C 303.182 331.716,302.519 338.574,302.372 338.744 C 302.304 338.823,297.740 340.129,292.231 341.646 C 286.721 343.163,281.192 344.687,279.943 345.034 C 278.694 345.381,273.756 346.740,268.969 348.054 C 264.182 349.368,258.775 350.862,256.954 351.373 C 255.132 351.884,249.428 353.461,244.276 354.878 C 215.002 362.928,200.726 366.884,200.540 366.999 C 200.261 367.172,200.335 418.543,200.615 418.542 C 200.855 418.542,202.236 418.167,217.597 413.938 C 242.525 407.074,270.156 399.469,271.712 399.043 C 272.389 398.857,279.754 396.831,288.079 394.540 C 296.405 392.249,309.773 388.574,317.786 386.373 C 325.799 384.172,332.411 382.315,332.479 382.245 C 332.608 382.112,332.859 379.560,333.774 369.063 C 334.083 365.525,334.421 361.736,334.527 360.643 C 334.632 359.551,334.888 356.698,335.096 354.305 C 335.713 347.210,336.593 337.239,336.799 335.005 C 337.129 331.432,337.531 326.920,338.123 320.151 C 338.437 316.561,338.778 312.729,338.880 311.637 C 338.983 310.544,339.241 307.649,339.454 305.203 C 339.666 302.758,339.965 299.395,340.117 297.729 C 340.429 294.314,341.139 286.296,341.717 279.659 C 341.929 277.214,342.188 274.319,342.291 273.226 C 342.393 272.133,342.735 268.302,343.049 264.711 C 343.363 261.121,343.744 256.821,343.897 255.156 C 344.050 253.491,344.433 249.191,344.749 245.601 C 345.065 242.010,345.532 236.731,345.787 233.869 C 346.041 231.008,346.426 226.665,346.641 224.219 C 346.857 221.774,347.242 217.474,347.497 214.664 C 347.752 211.854,348.178 207.086,348.442 204.068 C 348.706 201.050,349.259 194.792,349.671 190.161 C 350.082 185.530,350.933 175.951,351.561 168.874 C 353.150 150.996,353.239 149.985,353.556 146.358 C 353.711 144.588,354.007 141.268,354.213 138.978 C 354.701 133.584,355.054 129.617,355.534 124.125 C 355.748 121.679,356.089 117.848,356.291 115.610 C 356.493 113.373,356.745 110.563,356.850 109.366 C 356.955 108.169,357.297 104.338,357.608 100.851 C 357.920 97.365,358.433 91.596,358.747 88.032 C 359.062 84.468,359.576 78.635,359.891 75.071 C 360.205 71.507,360.505 68.165,360.558 67.644 C 360.610 67.124,360.905 63.803,361.213 60.265 C 361.522 56.727,361.902 52.427,362.059 50.710 C 362.216 48.992,362.599 44.650,362.910 41.060 C 363.222 37.469,363.523 34.127,363.580 33.633 L 363.684 32.734 282.157 32.734 C 237.318 32.734,200.574 32.791,200.505 32.860 M105.834 83.396 C 123.091 83.423,151.275 83.423,168.464 83.396 C 185.653 83.370,171.533 83.348,137.086 83.348 C 102.640 83.348,88.576 83.370,105.834 83.396 M74.598 86.187 C 74.600 86.604,74.639 86.752,74.684 86.516 C 74.730 86.281,74.728 85.940,74.681 85.759 C 74.633 85.578,74.596 85.771,74.598 86.187 M74.798 89.026 C 74.800 89.650,74.835 89.883,74.877 89.542 C 74.919 89.202,74.918 88.692,74.875 88.407 C 74.832 88.123,74.797 88.401,74.798 89.026 M75.170 94.607 C 75.170 95.076,75.207 95.267,75.252 95.033 C 75.297 94.799,75.297 94.416,75.252 94.182 C 75.207 93.947,75.170 94.139,75.170 94.607 M75.362 97.351 C 75.363 97.871,75.400 98.062,75.443 97.774 C 75.487 97.487,75.486 97.061,75.441 96.828 C 75.396 96.595,75.360 96.831,75.362 97.351 M75.734 101.514 C 75.736 101.930,75.774 102.078,75.820 101.843 C 75.865 101.607,75.863 101.267,75.816 101.086 C 75.769 100.905,75.732 101.097,75.734 101.514 M75.927 103.690 C 75.927 104.158,75.964 104.350,76.009 104.115 C 76.054 103.881,76.054 103.498,76.009 103.264 C 75.964 103.030,75.927 103.221,75.927 103.690 M76.301 107.758 C 76.303 108.174,76.342 108.322,76.387 108.087 C 76.433 107.851,76.431 107.511,76.384 107.330 C 76.336 107.149,76.299 107.342,76.301 107.758 M76.494 109.934 C 76.494 110.402,76.531 110.594,76.576 110.360 C 76.621 110.125,76.621 109.742,76.576 109.508 C 76.531 109.274,76.494 109.465,76.494 109.934 M76.869 114.191 C 76.871 114.607,76.910 114.755,76.955 114.520 C 77.000 114.285,76.999 113.944,76.951 113.763 C 76.904 113.582,76.867 113.775,76.869 114.191 M77.058 116.272 C 77.060 116.689,77.099 116.837,77.144 116.601 C 77.189 116.366,77.188 116.025,77.140 115.845 C 77.093 115.664,77.056 115.856,77.058 116.272 M77.437 120.435 C 77.439 120.851,77.477 120.999,77.523 120.764 C 77.568 120.529,77.566 120.188,77.519 120.007 C 77.471 119.826,77.434 120.019,77.437 120.435 M77.626 122.706 C 77.628 123.122,77.667 123.270,77.712 123.035 C 77.757 122.799,77.755 122.459,77.708 122.278 C 77.661 122.097,77.624 122.289,77.626 122.706 M78.004 126.868 C 78.006 127.285,78.045 127.433,78.090 127.197 C 78.136 126.962,78.134 126.621,78.086 126.441 C 78.039 126.260,78.002 126.452,78.004 126.868 M78.572 133.113 C 78.574 133.529,78.613 133.677,78.658 133.442 C 78.703 133.206,78.701 132.866,78.654 132.685 C 78.607 132.504,78.570 132.696,78.572 133.113 M130.045 139.357 C 130.046 139.877,130.083 140.067,130.126 139.780 C 130.170 139.492,130.169 139.066,130.124 138.834 C 130.079 138.601,130.043 138.836,130.045 139.357 M79.143 139.451 C 79.143 139.920,79.180 140.111,79.225 139.877 C 79.270 139.643,79.270 139.260,79.225 139.026 C 79.180 138.791,79.143 138.983,79.143 139.451 M79.711 145.885 C 79.711 146.353,79.748 146.544,79.793 146.310 C 79.838 146.076,79.838 145.693,79.793 145.459 C 79.748 145.225,79.711 145.416,79.711 145.885 M130.612 145.979 C 130.614 146.500,130.650 146.690,130.694 146.402 C 130.737 146.115,130.736 145.689,130.691 145.456 C 130.646 145.224,130.611 145.459,130.612 145.979 M80.279 152.129 C 80.279 152.597,80.315 152.789,80.361 152.554 C 80.406 152.320,80.406 151.937,80.361 151.703 C 80.315 151.469,80.279 151.660,80.279 152.129 M131.177 152.507 C 131.177 152.975,131.214 153.167,131.259 152.933 C 131.304 152.699,131.304 152.316,131.259 152.081 C 131.214 151.847,131.177 152.039,131.177 152.507 M80.846 158.562 C 80.846 159.030,80.883 159.222,80.928 158.988 C 80.973 158.754,80.973 158.370,80.928 158.136 C 80.883 157.902,80.846 158.094,80.846 158.562 M131.745 159.130 C 131.745 159.598,131.782 159.789,131.827 159.555 C 131.872 159.321,131.872 158.938,131.827 158.704 C 131.782 158.470,131.745 158.661,131.745 159.130 M81.221 162.630 C 81.223 163.046,81.262 163.194,81.307 162.959 C 81.352 162.724,81.350 162.383,81.303 162.202 C 81.256 162.021,81.219 162.214,81.221 162.630 M81.414 164.806 C 81.414 165.274,81.451 165.466,81.496 165.232 C 81.541 164.998,81.541 164.614,81.496 164.380 C 81.451 164.146,81.414 164.338,81.414 164.806 M132.313 165.752 C 132.313 166.220,132.350 166.412,132.395 166.178 C 132.440 165.944,132.440 165.561,132.395 165.326 C 132.350 165.092,132.313 165.284,132.313 165.752 M81.788 168.874 C 81.791 169.290,81.829 169.438,81.875 169.203 C 81.920 168.968,81.918 168.627,81.871 168.446 C 81.823 168.265,81.786 168.458,81.788 168.874 M132.691 170.104 C 132.691 170.572,132.728 170.764,132.773 170.530 C 132.818 170.296,132.818 169.912,132.773 169.678 C 132.728 169.444,132.691 169.636,132.691 170.104 M81.978 171.145 C 81.980 171.561,82.019 171.709,82.064 171.474 C 82.109 171.238,82.107 170.898,82.060 170.717 C 82.013 170.536,81.976 170.728,81.978 171.145 M132.880 172.375 C 132.880 172.843,132.917 173.035,132.962 172.800 C 133.007 172.566,133.007 172.183,132.962 171.949 C 132.917 171.715,132.880 171.906,132.880 172.375 M82.356 175.307 C 82.358 175.724,82.397 175.872,82.442 175.636 C 82.488 175.401,82.486 175.060,82.438 174.880 C 82.391 174.699,82.354 174.891,82.356 175.307 M133.259 176.727 C 133.259 177.195,133.296 177.386,133.341 177.152 C 133.386 176.918,133.386 176.535,133.341 176.301 C 133.296 176.067,133.259 176.258,133.259 176.727 M82.545 177.389 C 82.547 177.805,82.586 177.953,82.631 177.718 C 82.677 177.482,82.675 177.142,82.628 176.961 C 82.580 176.780,82.543 176.973,82.545 177.389 M133.444 178.903 C 133.446 179.319,133.485 179.467,133.530 179.231 C 133.575 178.996,133.574 178.656,133.526 178.475 C 133.479 178.294,133.442 178.486,133.444 178.903 M82.924 181.552 C 82.926 181.968,82.965 182.116,83.010 181.880 C 83.055 181.645,83.053 181.305,83.006 181.124 C 82.959 180.943,82.922 181.135,82.924 181.552 M133.826 183.160 C 133.826 183.628,133.863 183.820,133.908 183.586 C 133.953 183.351,133.953 182.968,133.908 182.734 C 133.863 182.500,133.826 182.692,133.826 183.160 M83.113 183.822 C 83.115 184.238,83.154 184.386,83.199 184.151 C 83.244 183.916,83.243 183.575,83.195 183.394 C 83.148 183.213,83.111 183.406,83.113 183.822 M83.491 187.985 C 83.494 188.401,83.532 188.549,83.578 188.314 C 83.623 188.078,83.621 187.738,83.574 187.557 C 83.526 187.376,83.489 187.569,83.491 187.985 M84.063 194.324 C 84.063 194.792,84.100 194.983,84.145 194.749 C 84.190 194.515,84.190 194.132,84.145 193.898 C 84.100 193.664,84.063 193.855,84.063 194.324 M84.631 200.568 C 84.631 201.036,84.667 201.228,84.713 200.993 C 84.758 200.759,84.758 200.376,84.713 200.142 C 84.667 199.908,84.631 200.099,84.631 200.568 M85.198 207.001 C 85.198 207.469,85.235 207.661,85.280 207.427 C 85.325 207.193,85.325 206.809,85.280 206.575 C 85.235 206.341,85.198 206.533,85.198 207.001 M85.766 213.245 C 85.766 213.713,85.803 213.905,85.848 213.671 C 85.893 213.437,85.893 213.053,85.848 212.819 C 85.803 212.585,85.766 212.777,85.766 213.245 M86.333 219.678 C 86.333 220.147,86.370 220.338,86.415 220.104 C 86.461 219.870,86.461 219.487,86.415 219.253 C 86.370 219.018,86.333 219.210,86.333 219.678 M86.708 223.746 C 86.710 224.163,86.749 224.311,86.794 224.075 C 86.839 223.840,86.838 223.499,86.790 223.319 C 86.743 223.138,86.706 223.330,86.708 223.746 M86.901 225.922 C 86.901 226.391,86.938 226.582,86.983 226.348 C 87.028 226.114,87.028 225.731,86.983 225.497 C 86.938 225.263,86.901 225.454,86.901 225.922 M87.272 230.085 C 87.272 230.449,87.311 230.598,87.358 230.416 C 87.406 230.234,87.406 229.936,87.358 229.754 C 87.311 229.572,87.272 229.721,87.272 230.085 M87.465 232.261 C 87.467 232.677,87.506 232.825,87.551 232.590 C 87.596 232.355,87.595 232.014,87.547 231.833 C 87.500 231.652,87.463 231.845,87.465 232.261 M144.039 235.147 L 200.378 235.195 200.425 274.900 L 200.473 314.605 206.623 312.955 C 210.005 312.047,216.306 310.350,220.624 309.183 C 224.943 308.016,230.478 306.523,232.923 305.864 C 235.369 305.206,241.372 303.589,246.263 302.271 C 251.154 300.954,255.221 299.813,255.300 299.737 C 255.380 299.660,255.571 298.283,255.726 296.677 C 255.881 295.070,256.135 292.436,256.292 290.823 C 256.449 289.210,256.832 285.208,257.143 281.930 C 257.454 278.652,257.836 274.650,257.993 273.037 C 258.284 270.026,259.557 256.772,260.072 251.372 C 260.231 249.707,260.614 245.662,260.923 242.384 C 261.232 239.106,261.530 236.105,261.586 235.714 L 261.688 235.005 174.695 235.052 C 108.203 235.088,100.978 235.110,144.039 235.147 M102.776 259.934 C 109.611 259.961,120.850 259.961,127.753 259.934 C 134.655 259.906,129.063 259.884,115.326 259.884 C 101.589 259.884,95.942 259.906,102.776 259.934 M90.489 261.306 C 90.489 261.670,90.527 261.819,90.575 261.637 C 90.623 261.455,90.623 261.157,90.575 260.974 C 90.527 260.792,90.489 260.941,90.489 261.306 M140.449 263.387 C 140.449 263.855,140.486 264.047,140.531 263.813 C 140.576 263.579,140.576 263.195,140.531 262.961 C 140.486 262.727,140.449 262.919,140.449 263.387 M90.688 263.671 C 90.689 264.191,90.726 264.382,90.770 264.094 C 90.813 263.806,90.812 263.381,90.767 263.148 C 90.722 262.915,90.687 263.150,90.688 263.671 M140.630 265.468 C 140.630 265.833,140.669 265.982,140.717 265.799 C 140.765 265.617,140.765 265.319,140.717 265.137 C 140.669 264.955,140.630 265.104,140.630 265.468 M91.056 268.496 C 91.056 268.860,91.095 269.009,91.143 268.827 C 91.190 268.645,91.190 268.347,91.143 268.165 C 91.095 267.982,91.056 268.132,91.056 268.496 M141.019 269.726 C 141.021 270.246,141.057 270.436,141.101 270.149 C 141.144 269.861,141.143 269.435,141.098 269.203 C 141.053 268.970,141.018 269.205,141.019 269.726 M91.256 271.050 C 91.257 271.570,91.294 271.761,91.337 271.473 C 91.381 271.186,91.380 270.760,91.335 270.527 C 91.290 270.294,91.254 270.530,91.256 271.050 M141.198 271.902 C 141.198 272.266,141.237 272.415,141.285 272.233 C 141.332 272.051,141.332 271.753,141.285 271.570 C 141.237 271.388,141.198 271.537,141.198 271.902 M91.628 275.781 C 91.630 276.197,91.669 276.345,91.714 276.109 C 91.759 275.874,91.757 275.533,91.710 275.353 C 91.663 275.172,91.626 275.364,91.628 275.781 M141.584 276.064 C 141.584 276.533,141.621 276.724,141.666 276.490 C 141.711 276.256,141.711 275.873,141.666 275.639 C 141.621 275.404,141.584 275.596,141.584 276.064 M91.823 278.240 C 91.825 278.761,91.861 278.951,91.905 278.663 C 91.948 278.376,91.947 277.950,91.902 277.717 C 91.857 277.485,91.822 277.720,91.823 278.240 M141.766 278.335 C 141.766 278.699,141.805 278.848,141.852 278.666 C 141.900 278.484,141.900 278.186,141.852 278.004 C 141.805 277.822,141.766 277.971,141.766 278.335 M142.152 282.498 C 142.152 282.966,142.189 283.158,142.234 282.923 C 142.279 282.689,142.279 282.306,142.234 282.072 C 142.189 281.838,142.152 282.029,142.152 282.498 M92.195 282.971 C 92.197 283.387,92.236 283.535,92.281 283.300 C 92.327 283.064,92.325 282.724,92.278 282.543 C 92.230 282.362,92.193 282.554,92.195 282.971 M92.391 285.430 C 92.392 285.951,92.429 286.141,92.473 285.854 C 92.516 285.566,92.515 285.140,92.470 284.908 C 92.425 284.675,92.389 284.910,92.391 285.430 M142.719 288.931 C 142.719 289.399,142.756 289.591,142.801 289.357 C 142.847 289.123,142.847 288.739,142.801 288.505 C 142.756 288.271,142.719 288.463,142.719 288.931 M92.763 290.161 C 92.765 290.577,92.804 290.725,92.849 290.490 C 92.894 290.254,92.893 289.914,92.845 289.733 C 92.798 289.552,92.761 289.745,92.763 290.161 M92.959 292.621 C 92.960 293.141,92.997 293.331,93.040 293.044 C 93.084 292.756,93.083 292.330,93.038 292.098 C 92.993 291.865,92.957 292.100,92.959 292.621 M143.287 295.364 C 143.287 295.833,143.324 296.024,143.369 295.790 C 143.414 295.556,143.414 295.173,143.369 294.939 C 143.324 294.704,143.287 294.896,143.287 295.364 M93.331 297.351 C 93.333 297.767,93.371 297.915,93.417 297.680 C 93.462 297.445,93.460 297.104,93.413 296.923 C 93.366 296.742,93.328 296.935,93.331 297.351 M93.526 299.811 C 93.528 300.331,93.564 300.522,93.608 300.234 C 93.651 299.946,93.650 299.521,93.605 299.288 C 93.560 299.055,93.525 299.290,93.526 299.811 M93.902 304.636 C 93.902 305.104,93.939 305.296,93.984 305.061 C 94.029 304.827,94.029 304.444,93.984 304.210 C 93.939 303.976,93.902 304.167,93.902 304.636 M94.091 307.096 C 94.091 307.564,94.128 307.755,94.173 307.521 C 94.218 307.287,94.218 306.904,94.173 306.670 C 94.128 306.436,94.091 306.627,94.091 307.096 M94.470 311.826 C 94.470 312.294,94.507 312.486,94.552 312.252 C 94.597 312.018,94.597 311.634,94.552 311.400 C 94.507 311.166,94.470 311.358,94.470 311.826 M94.659 314.286 C 94.659 314.754,94.696 314.946,94.741 314.711 C 94.786 314.477,94.786 314.094,94.741 313.860 C 94.696 313.626,94.659 313.817,94.659 314.286 M94.840 316.556 C 94.840 316.921,94.879 317.070,94.927 316.887 C 94.975 316.705,94.975 316.407,94.927 316.225 C 94.879 316.043,94.840 316.192,94.840 316.556 M95.040 319.111 C 95.041 319.631,95.078 319.821,95.122 319.534 C 95.165 319.246,95.164 318.820,95.119 318.588 C 95.074 318.355,95.039 318.590,95.040 319.111 M95.608 326.301 C 95.609 326.821,95.646 327.012,95.689 326.724 C 95.733 326.436,95.732 326.011,95.687 325.778 C 95.642 325.545,95.606 325.781,95.608 326.301 M96.175 333.491 C 96.177 334.011,96.213 334.202,96.257 333.914 C 96.300 333.627,96.299 333.201,96.254 332.968 C 96.209 332.735,96.174 332.971,96.175 333.491 M96.543 338.316 C 96.543 338.680,96.582 338.829,96.630 338.647 C 96.678 338.465,96.678 338.167,96.630 337.985 C 96.582 337.803,96.543 337.952,96.543 338.316 " stroke="none" fill="#ec642c" fill-rule="evenodd"></path><path id="path2" d="M0.065 1.656 C 0.130 2.566,0.309 4.716,0.463 6.433 C 0.617 8.150,0.876 11.045,1.038 12.867 C 1.200 14.688,1.454 17.540,1.603 19.205 C 1.852 22.004,2.009 23.777,2.741 32.072 C 2.888 33.737,3.143 36.632,3.309 38.505 C 3.474 40.378,3.729 43.273,3.876 44.939 C 4.023 46.604,4.273 49.413,4.431 51.183 C 4.589 52.952,4.806 55.421,4.914 56.670 C 5.021 57.919,5.153 59.369,5.208 59.892 C 5.366 61.411,5.656 64.546,5.970 68.117 C 6.130 69.939,6.382 72.791,6.530 74.456 C 6.677 76.121,6.925 78.931,7.081 80.700 C 7.236 82.469,7.495 85.386,7.655 87.181 C 7.816 88.976,8.078 91.913,8.239 93.709 C 8.399 95.504,8.658 98.420,8.813 100.189 C 8.969 101.958,9.217 104.768,9.364 106.433 C 9.512 108.098,9.764 110.951,9.924 112.772 C 10.368 117.829,10.579 120.154,10.686 121.192 C 10.774 122.046,11.033 124.964,11.264 127.720 C 11.312 128.292,11.437 129.655,11.542 130.747 C 11.648 131.840,11.865 134.224,12.025 136.045 C 12.185 137.867,12.437 140.719,12.584 142.384 C 12.855 145.437,13.170 148.996,13.721 155.251 C 13.886 157.124,14.143 160.019,14.291 161.684 C 14.794 167.314,15.150 171.321,15.417 174.361 C 15.564 176.026,15.782 178.453,15.901 179.754 C 16.021 181.055,16.143 182.417,16.172 182.781 C 16.455 186.306,16.679 188.856,16.752 189.404 C 16.801 189.768,16.928 191.045,17.035 192.242 C 17.141 193.439,17.349 195.781,17.497 197.446 C 17.646 199.111,17.902 202.006,18.067 203.879 C 18.618 210.133,18.933 213.693,19.204 216.746 C 19.829 223.794,20.091 226.755,20.342 229.612 C 20.488 231.277,20.737 234.087,20.896 235.856 C 21.055 237.625,21.317 240.563,21.480 242.384 C 21.795 245.918,22.107 249.378,22.223 250.615 C 22.262 251.031,22.386 252.521,22.500 253.926 C 22.613 255.331,22.748 256.779,22.800 257.143 C 22.852 257.507,22.985 258.869,23.095 260.170 C 23.284 262.405,23.472 264.546,24.115 271.760 C 24.369 274.603,24.529 276.416,25.257 284.674 C 25.918 292.158,26.143 294.711,26.394 297.540 C 26.542 299.205,26.793 302.058,26.953 303.879 C 27.113 305.700,27.332 308.127,27.440 309.272 C 27.548 310.416,27.673 311.779,27.719 312.299 C 27.765 312.819,27.896 314.267,28.010 315.516 C 28.125 316.764,28.252 318.212,28.292 318.732 C 28.333 319.253,28.456 320.615,28.566 321.760 C 28.676 322.904,28.897 325.331,29.057 327.152 C 29.217 328.974,29.467 331.826,29.613 333.491 C 29.759 335.156,30.012 338.009,30.175 339.830 C 30.338 341.651,30.597 344.567,30.751 346.310 C 30.905 348.053,31.163 350.948,31.323 352.744 C 31.484 354.539,31.743 357.455,31.899 359.224 C 32.055 360.993,32.304 363.803,32.451 365.468 C 32.599 367.133,32.850 369.986,33.010 371.807 C 33.267 374.750,33.391 376.139,33.782 380.416 C 33.839 381.041,33.968 382.403,34.068 383.444 C 34.168 384.484,34.381 386.826,34.540 388.647 C 34.699 390.468,34.950 393.321,35.098 394.986 C 35.246 396.651,35.498 399.503,35.660 401.325 C 35.821 403.146,36.000 405.232,36.058 405.960 C 36.226 408.097,36.198 408.046,37.414 408.404 C 38.014 408.580,39.101 408.904,39.830 409.122 C 40.558 409.341,41.410 409.585,41.722 409.665 C 42.034 409.745,43.226 410.078,44.371 410.406 C 45.516 410.733,46.878 411.115,47.398 411.254 C 48.384 411.518,53.148 412.860,56.575 413.839 C 57.668 414.151,58.988 414.520,59.508 414.658 C 60.028 414.796,61.476 415.205,62.725 415.565 C 63.974 415.926,65.166 416.269,65.374 416.327 C 65.582 416.385,67.136 416.823,68.827 417.299 C 70.518 417.775,73.243 418.541,74.882 419.002 C 76.521 419.463,79.096 420.193,80.605 420.625 C 85.719 422.088,87.320 422.542,88.269 422.796 C 88.789 422.936,90.151 423.319,91.296 423.648 C 92.441 423.977,93.825 424.367,94.371 424.516 C 96.840 425.189,97.416 425.350,98.392 425.640 C 98.964 425.810,99.688 426.021,100.000 426.110 C 100.312 426.199,101.504 426.542,102.649 426.871 C 104.780 427.484,105.836 427.779,107.663 428.269 C 108.236 428.422,109.172 428.688,109.745 428.859 C 110.929 429.214,112.288 429.588,113.529 429.902 C 113.997 430.021,114.551 430.188,114.759 430.274 C 114.967 430.361,115.520 430.530,115.989 430.651 C 117.372 431.007,118.626 431.355,120.435 431.885 C 121.372 432.159,123.479 432.760,125.118 433.221 C 126.757 433.682,129.439 434.436,131.079 434.896 C 132.718 435.357,135.293 436.086,136.802 436.515 C 139.721 437.346,143.598 438.442,148.534 439.830 C 150.199 440.298,152.945 441.072,154.636 441.550 C 156.327 442.028,158.136 442.533,158.657 442.673 C 159.177 442.814,160.369 443.155,161.306 443.431 C 162.242 443.708,163.434 444.049,163.955 444.188 C 164.475 444.328,165.369 444.580,165.941 444.749 C 166.514 444.918,167.450 445.184,168.023 445.340 C 170.015 445.881,170.962 446.147,171.996 446.452 C 173.030 446.758,173.978 447.023,175.970 447.565 C 176.542 447.720,177.479 447.987,178.051 448.156 C 178.623 448.326,179.347 448.538,179.659 448.627 C 179.972 448.716,181.164 449.058,182.308 449.388 C 183.453 449.717,184.816 450.101,185.336 450.240 C 185.856 450.380,187.219 450.763,188.363 451.092 C 190.505 451.707,191.572 452.004,193.377 452.488 C 193.950 452.642,194.886 452.907,195.459 453.079 C 199.215 454.202,199.567 454.242,201.325 453.737 C 202.105 453.513,203.191 453.208,203.737 453.060 C 205.889 452.477,206.759 452.235,207.758 451.939 C 208.735 451.651,209.324 451.486,211.779 450.817 C 212.325 450.668,213.709 450.279,214.853 449.953 C 215.998 449.626,217.360 449.244,217.881 449.103 C 218.401 448.963,220.061 448.494,221.570 448.061 C 223.079 447.629,224.740 447.162,225.260 447.023 C 225.781 446.884,227.611 446.374,229.328 445.889 C 231.045 445.403,232.876 444.892,233.396 444.753 C 233.917 444.613,235.279 444.230,236.424 443.900 C 237.569 443.571,238.761 443.229,239.073 443.141 C 239.385 443.053,240.577 442.713,241.722 442.385 C 242.867 442.058,244.250 441.669,244.797 441.520 C 245.343 441.371,246.237 441.127,246.783 440.978 C 247.330 440.829,248.713 440.440,249.858 440.114 C 251.003 439.787,252.365 439.406,252.886 439.267 C 253.923 438.990,260.243 437.208,263.387 436.306 C 264.480 435.992,265.821 435.614,266.367 435.465 C 268.822 434.796,269.411 434.631,270.388 434.342 C 271.365 434.054,271.954 433.889,274.409 433.220 C 274.955 433.071,276.339 432.682,277.483 432.354 C 278.628 432.027,279.820 431.687,280.132 431.599 C 280.445 431.511,282.105 431.041,283.822 430.556 C 285.539 430.070,287.370 429.558,287.890 429.419 C 288.411 429.280,290.241 428.770,291.958 428.287 C 293.675 427.803,295.251 427.360,295.459 427.301 C 295.667 427.243,296.859 426.900,298.108 426.540 C 299.357 426.179,300.804 425.771,301.325 425.632 C 301.845 425.494,303.207 425.112,304.352 424.783 C 305.497 424.455,306.859 424.072,307.379 423.932 C 307.900 423.793,309.730 423.282,311.447 422.796 C 313.165 422.311,314.995 421.801,315.516 421.662 C 316.036 421.523,317.228 421.185,318.165 420.911 C 319.101 420.636,320.315 420.289,320.861 420.140 C 321.407 419.990,322.301 419.745,322.848 419.596 C 323.394 419.446,324.309 419.185,324.882 419.016 C 325.454 418.847,326.370 418.588,326.917 418.440 C 327.463 418.293,328.379 418.043,328.951 417.884 C 329.523 417.726,330.438 417.475,330.984 417.325 C 331.530 417.175,332.446 416.915,333.018 416.746 C 333.590 416.576,334.484 416.324,335.005 416.184 C 335.525 416.045,336.717 415.704,337.654 415.428 C 339.253 414.955,339.875 414.780,342.337 414.110 C 342.883 413.961,344.735 413.442,346.452 412.957 C 348.169 412.472,350.000 411.961,350.520 411.822 C 351.041 411.682,352.403 411.301,353.548 410.974 C 354.693 410.648,356.055 410.267,356.575 410.128 C 357.096 409.989,358.288 409.649,359.224 409.373 C 360.161 409.096,361.353 408.754,361.873 408.613 C 363.923 408.057,363.761 408.266,363.942 405.960 C 364.000 405.232,364.179 403.146,364.340 401.325 C 364.502 399.503,364.754 396.651,364.902 394.986 C 365.050 393.321,365.301 390.468,365.460 388.647 C 365.619 386.826,365.838 384.442,365.946 383.349 C 366.133 381.457,366.387 378.647,366.982 371.902 C 367.129 370.237,367.385 367.342,367.551 365.468 C 367.717 363.595,367.972 360.700,368.119 359.035 C 368.265 357.370,368.516 354.539,368.676 352.744 C 368.837 350.948,369.096 348.032,369.253 346.263 C 369.409 344.494,369.668 341.578,369.829 339.782 C 369.989 337.987,370.241 335.156,370.387 333.491 C 370.533 331.826,370.783 328.974,370.943 327.152 C 371.103 325.331,371.323 322.947,371.432 321.854 C 371.541 320.762,371.755 318.441,371.907 316.698 C 372.060 314.955,372.317 312.060,372.477 310.265 C 372.638 308.470,372.897 305.553,373.053 303.784 C 373.209 302.015,373.458 299.205,373.606 297.540 C 373.856 294.724,374.059 292.420,374.743 284.674 C 375.474 276.379,375.631 274.606,375.881 271.807 C 376.029 270.142,376.280 267.332,376.438 265.563 C 376.595 263.794,376.810 261.452,376.916 260.360 C 377.097 258.475,377.356 255.577,377.958 248.723 C 378.208 245.867,378.422 243.468,379.104 235.856 C 379.262 234.087,379.519 231.192,379.674 229.423 C 379.830 227.654,380.078 224.844,380.225 223.179 C 380.751 217.254,381.102 213.298,381.365 210.312 C 382.095 202.043,382.254 200.245,382.503 197.446 C 382.652 195.781,382.861 193.524,382.967 192.431 C 383.147 190.592,383.286 189.044,384.014 180.795 C 384.743 172.537,384.903 170.724,385.156 167.881 C 385.307 166.190,385.554 163.422,385.705 161.731 C 385.855 160.040,386.114 157.124,386.279 155.251 C 386.830 148.996,387.145 145.437,387.416 142.384 C 387.563 140.719,387.815 137.867,387.975 136.045 C 388.135 134.224,388.354 131.840,388.462 130.747 C 388.570 129.655,388.784 127.334,388.937 125.591 C 389.090 123.848,389.346 120.953,389.507 119.158 C 389.668 117.363,389.919 114.532,390.066 112.867 C 390.213 111.202,390.469 108.307,390.635 106.433 C 390.801 104.560,391.057 101.665,391.203 100.000 C 391.453 97.144,391.667 94.745,392.349 87.133 C 392.507 85.364,392.764 82.469,392.919 80.700 C 393.075 78.931,393.323 76.121,393.470 74.456 C 393.618 72.791,393.870 69.939,394.030 68.117 C 394.190 66.296,394.409 63.912,394.517 62.819 C 394.625 61.727,394.841 59.385,394.995 57.616 C 395.150 55.847,395.408 52.952,395.567 51.183 C 395.727 49.413,395.977 46.604,396.124 44.939 C 396.271 43.273,396.526 40.378,396.691 38.505 C 396.857 36.632,397.112 33.737,397.259 32.072 C 397.991 23.777,398.148 22.004,398.397 19.205 C 398.546 17.540,398.800 14.688,398.962 12.867 C 399.124 11.045,399.383 8.150,399.537 6.433 C 399.691 4.716,399.870 2.566,399.935 1.656 L 400.052 -0.000 200.000 -0.000 L -0.052 0.000 0.065 1.656 M363.580 33.633 C 363.523 34.127,363.222 37.469,362.910 41.060 C 362.599 44.650,362.216 48.992,362.059 50.710 C 361.902 52.427,361.522 56.727,361.213 60.265 C 360.905 63.803,360.610 67.124,360.558 67.644 C 360.505 68.165,360.205 71.507,359.891 75.071 C 359.576 78.635,359.062 84.468,358.747 88.032 C 358.433 91.596,357.920 97.365,357.608 100.851 C 357.297 104.338,356.955 108.169,356.850 109.366 C 356.745 110.563,356.493 113.373,356.291 115.610 C 356.089 117.848,355.748 121.679,355.534 124.125 C 355.054 129.617,354.701 133.584,354.213 138.978 C 354.007 141.268,353.711 144.588,353.556 146.358 C 353.239 149.985,353.150 150.996,351.561 168.874 C 350.933 175.951,350.082 185.530,349.671 190.161 C 349.259 194.792,348.706 201.050,348.442 204.068 C 348.178 207.086,347.752 211.854,347.497 214.664 C 347.242 217.474,346.857 221.774,346.641 224.219 C 346.426 226.665,346.041 231.008,345.787 233.869 C 345.532 236.731,345.065 242.010,344.749 245.601 C 344.433 249.191,344.050 253.491,343.897 255.156 C 343.744 256.821,343.363 261.121,343.049 264.711 C 342.735 268.302,342.393 272.133,342.291 273.226 C 342.188 274.319,341.929 277.214,341.717 279.659 C 341.139 286.296,340.429 294.314,340.117 297.729 C 339.965 299.395,339.666 302.758,339.454 305.203 C 339.241 307.649,338.983 310.544,338.880 311.637 C 338.778 312.729,338.437 316.561,338.123 320.151 C 337.531 326.920,337.129 331.432,336.799 335.005 C 336.593 337.239,335.713 347.210,335.096 354.305 C 334.888 356.698,334.632 359.551,334.527 360.643 C 334.421 361.736,334.083 365.525,333.774 369.063 C 332.859 379.560,332.608 382.112,332.479 382.245 C 332.411 382.315,325.799 384.172,317.786 386.373 C 309.773 388.574,296.405 392.249,288.079 394.540 C 279.754 396.831,272.389 398.857,271.712 399.043 C 270.156 399.469,242.525 407.074,217.597 413.938 C 202.236 418.167,200.855 418.542,200.615 418.542 C 200.427 418.543,200.378 413.289,200.378 392.904 L 200.378 367.266 199.901 367.266 C 199.509 367.266,196.876 366.566,189.877 364.604 C 189.565 364.516,188.841 364.320,188.269 364.167 C 187.696 364.015,182.715 362.641,177.200 361.115 C 167.652 358.472,166.517 358.160,164.191 357.541 C 163.645 357.395,159.622 356.282,155.251 355.067 C 150.880 353.852,146.856 352.738,146.309 352.592 C 144.027 351.980,142.970 351.689,135.383 349.580 C 131.012 348.365,126.989 347.251,126.442 347.105 C 125.895 346.958,124.979 346.710,124.407 346.554 C 123.835 346.398,122.898 346.143,122.326 345.987 C 121.753 345.830,120.838 345.582,120.292 345.434 C 119.747 345.286,115.724 344.170,111.353 342.955 C 103.197 340.687,101.877 340.326,100.568 340.006 C 100.151 339.904,99.598 339.747,99.338 339.657 C 99.078 339.567,98.344 339.347,97.708 339.167 L 96.552 338.840 96.436 337.017 C 96.372 336.014,96.194 333.619,96.040 331.693 C 95.886 329.768,95.629 326.533,95.469 324.503 C 95.309 322.474,95.092 319.749,94.986 318.448 C 94.879 317.148,94.663 314.423,94.505 312.394 C 94.206 308.560,93.872 304.311,93.375 298.013 C 93.215 295.984,92.955 292.663,92.796 290.634 C 92.638 288.605,92.384 285.369,92.232 283.444 C 91.889 279.113,91.483 273.903,91.112 269.063 C 90.957 267.034,90.744 264.395,90.640 263.198 C 90.536 262.001,90.449 260.745,90.448 260.407 L 90.445 259.792 115.299 259.792 L 140.153 259.792 140.372 261.731 C 140.492 262.798,140.680 264.735,140.789 266.036 C 141.023 268.840,141.404 273.211,141.808 277.720 C 141.969 279.515,142.226 282.410,142.379 284.153 C 142.533 285.896,142.786 288.728,142.941 290.445 C 143.097 292.162,143.327 294.863,143.452 296.447 C 143.578 298.031,143.737 299.420,143.806 299.532 C 143.907 299.694,148.705 301.073,154.967 302.739 C 155.331 302.836,156.097 303.045,156.670 303.203 C 157.242 303.362,159.626 304.003,161.968 304.629 C 166.940 305.958,168.188 306.296,169.347 306.627 C 169.816 306.761,172.966 307.612,176.348 308.518 C 179.730 309.425,185.307 310.924,188.742 311.851 C 192.176 312.777,195.284 313.614,195.648 313.710 C 196.012 313.806,196.777 314.026,197.348 314.198 C 197.918 314.370,198.833 314.558,199.382 314.614 L 200.378 314.717 200.378 274.956 L 200.378 235.194 144.102 235.194 L 87.826 235.194 87.718 234.674 C 87.659 234.387,87.483 232.663,87.327 230.842 C 87.171 229.021,86.913 226.083,86.752 224.314 C 86.592 222.545,86.333 219.650,86.178 217.881 C 86.022 216.112,85.773 213.302,85.624 211.637 C 85.475 209.972,85.223 207.162,85.066 205.393 C 84.908 203.623,84.647 200.728,84.486 198.959 C 84.325 197.190,84.070 194.338,83.919 192.621 C 83.768 190.904,83.556 188.562,83.448 187.417 C 83.339 186.272,83.127 183.931,82.975 182.214 C 82.824 180.497,82.568 177.644,82.407 175.875 C 82.036 171.810,81.705 168.113,80.703 156.859 C 80.541 155.038,80.286 152.185,80.137 150.520 C 79.987 148.855,79.736 146.045,79.578 144.276 C 79.421 142.507,79.165 139.655,79.011 137.938 C 78.856 136.220,78.600 133.368,78.443 131.599 C 78.285 129.830,78.067 127.446,77.959 126.301 C 77.851 125.156,77.639 122.815,77.488 121.097 C 77.337 119.380,77.081 116.528,76.920 114.759 C 76.639 111.674,76.377 108.771,75.771 101.987 C 75.618 100.270,75.409 97.673,75.308 96.216 C 75.207 94.759,75.038 92.545,74.933 91.296 C 74.828 90.047,74.686 87.727,74.617 86.140 L 74.492 83.254 137.435 83.254 L 200.378 83.254 200.378 58.120 C 200.378 44.297,200.435 32.930,200.505 32.860 C 200.574 32.791,237.318 32.734,282.157 32.734 L 363.684 32.734 363.580 33.633 M129.618 133.444 C 129.622 133.678,129.710 134.763,129.814 135.856 C 129.917 136.949,130.127 139.312,130.279 141.107 C 130.734 146.481,131.096 150.704,131.404 154.257 C 131.565 156.104,131.822 159.085,131.977 160.880 C 132.131 162.675,132.344 165.123,132.450 166.320 C 132.557 167.517,132.768 169.943,132.920 171.712 C 133.072 173.482,133.330 176.462,133.492 178.335 C 133.655 180.208,133.840 182.358,133.903 183.113 L 134.019 184.484 167.199 184.484 L 200.378 184.484 200.378 158.751 L 200.378 133.018 164.995 133.018 L 129.612 133.018 129.618 133.444 " stroke="none" fill="#e44c24" fill-rule="evenodd"></path><path id="path0" d="M137.106 83.390 L 74.496 83.444 74.618 85.100 C 74.686 86.010,74.909 89.227,75.115 92.248 C 75.321 95.268,75.745 100.548,76.056 103.979 C 76.368 107.410,77.010 114.560,77.482 119.868 C 77.955 125.175,78.550 131.816,78.805 134.626 C 79.059 137.436,79.572 143.141,79.943 147.304 C 80.314 151.466,80.912 158.108,81.270 162.062 C 81.629 166.017,82.351 174.063,82.875 179.943 C 83.400 185.823,84.037 192.933,84.292 195.743 C 84.748 200.776,85.389 207.935,86.851 224.314 C 87.259 228.893,87.646 233.172,87.710 233.822 L 87.826 235.005 174.757 235.005 L 261.688 235.005 261.586 235.714 C 261.530 236.105,261.232 239.106,260.923 242.384 C 260.614 245.662,260.231 249.707,260.072 251.372 C 259.557 256.772,258.284 270.026,257.993 273.037 C 257.836 274.650,257.454 278.652,257.143 281.930 C 256.832 285.208,256.449 289.210,256.292 290.823 C 256.136 292.436,255.881 295.070,255.726 296.677 C 255.571 298.284,255.380 299.661,255.300 299.737 C 255.176 299.857,250.928 301.021,233.869 305.609 C 231.944 306.127,226.580 307.574,221.949 308.825 C 217.318 310.076,210.381 311.947,206.533 312.982 L 199.537 314.864 191.112 312.595 C 181.576 310.027,172.796 307.657,161.495 304.601 C 157.228 303.447,151.481 301.897,148.723 301.156 L 143.709 299.809 143.491 297.634 C 143.372 296.438,143.137 293.884,142.969 291.958 C 142.359 284.937,141.525 275.520,141.261 272.658 C 141.112 271.045,140.798 267.533,140.562 264.853 L 140.135 259.981 115.278 259.981 L 90.421 259.981 90.531 260.785 C 90.592 261.228,90.769 263.292,90.925 265.374 C 91.214 269.225,91.857 277.467,92.533 285.998 C 93.173 294.065,94.502 310.969,95.829 327.909 C 95.988 329.939,96.245 333.208,96.399 335.174 C 96.554 337.141,96.704 338.771,96.732 338.798 C 96.760 338.824,99.891 339.699,103.690 340.742 C 107.488 341.785,115.535 344.001,121.570 345.667 C 144.495 351.994,157.140 355.483,168.307 358.562 C 174.655 360.312,184.234 362.956,189.593 364.438 C 200.845 367.548,200.120 367.369,200.436 367.108 C 200.570 366.996,203.954 366.000,207.956 364.893 C 218.264 362.042,233.340 357.885,244.276 354.878 C 249.428 353.461,255.132 351.884,256.954 351.373 C 258.775 350.862,264.182 349.368,268.969 348.054 C 273.756 346.740,278.694 345.381,279.943 345.034 C 281.192 344.687,286.721 343.163,292.231 341.646 C 297.740 340.129,302.304 338.823,302.372 338.744 C 302.519 338.574,303.182 331.716,304.353 318.259 C 304.819 312.900,305.414 306.088,305.674 303.122 C 305.934 300.156,306.235 296.708,306.342 295.459 C 306.450 294.210,306.665 291.741,306.822 289.972 C 306.978 288.202,307.357 283.860,307.664 280.322 C 307.971 276.783,308.478 270.951,308.789 267.360 C 309.101 263.770,309.484 259.385,309.640 257.616 C 310.040 253.085,310.254 250.629,310.783 244.465 C 311.038 241.500,311.292 238.605,311.348 238.032 C 311.403 237.460,311.830 232.606,312.295 227.247 C 312.761 221.887,313.272 216.012,313.430 214.191 C 313.588 212.370,313.763 210.412,313.818 209.839 C 313.874 209.267,314.131 206.329,314.389 203.311 C 314.648 200.293,315.241 194.960,315.708 191.459 C 316.175 187.959,316.556 184.957,316.556 184.789 C 316.556 184.509,309.110 184.484,225.269 184.484 L 133.981 184.484 133.887 183.869 C 133.835 183.531,133.744 182.658,133.686 181.930 C 133.627 181.202,133.450 179.115,133.292 177.294 C 133.134 175.473,132.877 172.493,132.722 170.672 C 132.136 163.797,131.873 160.739,131.315 154.305 C 130.519 145.127,130.219 141.604,129.895 137.654 C 129.741 135.781,129.569 133.971,129.511 133.633 L 129.406 133.018 225.252 133.018 C 304.626 133.018,321.097 132.975,321.097 132.768 C 321.097 131.373,323.141 110.359,324.228 100.568 C 324.481 98.294,324.897 92.802,325.379 85.383 L 325.505 83.444 263.155 83.444 C 228.862 83.444,200.559 83.420,200.260 83.390 C 199.961 83.361,171.542 83.361,137.106 83.390 " stroke="none" fill="#f3f3f3" fill-rule="evenodd"></path><path id="path1" d="M200.505 32.860 C 200.435 32.930,200.378 44.339,200.378 58.215 L 200.378 83.444 262.942 83.444 L 325.505 83.444 325.379 85.383 C 324.897 92.802,324.481 98.294,324.228 100.568 C 323.141 110.359,321.097 131.373,321.097 132.768 C 321.097 132.975,310.678 133.018,260.738 133.018 L 200.378 133.018 200.378 158.751 L 200.378 184.484 258.467 184.484 C 311.772 184.484,316.556 184.510,316.556 184.789 C 316.556 184.957,316.175 187.959,315.708 191.459 C 315.241 194.960,314.648 200.293,314.389 203.311 C 314.131 206.329,313.874 209.267,313.818 209.839 C 313.763 210.412,313.588 212.370,313.430 214.191 C 313.272 216.012,312.761 221.887,312.295 227.247 C 311.830 232.606,311.403 237.460,311.348 238.032 C 311.292 238.605,311.038 241.500,310.783 244.465 C 310.254 250.629,310.040 253.085,309.640 257.616 C 309.484 259.385,309.103 263.749,308.793 267.313 C 308.484 270.877,307.978 276.710,307.668 280.274 C 307.359 283.839,306.978 288.202,306.822 289.972 C 306.665 291.741,306.450 294.210,306.342 295.459 C 306.235 296.708,305.934 300.156,305.674 303.122 C 305.414 306.088,304.819 312.900,304.353 318.259 C 303.182 331.716,302.519 338.574,302.372 338.744 C 302.304 338.823,297.740 340.129,292.231 341.646 C 286.721 343.163,281.192 344.687,279.943 345.034 C 278.694 345.381,273.756 346.740,268.969 348.054 C 264.182 349.368,258.775 350.862,256.954 351.373 C 255.132 351.884,249.428 353.461,244.276 354.878 C 215.002 362.928,200.726 366.884,200.540 366.999 C 200.261 367.172,200.335 418.543,200.615 418.542 C 200.855 418.542,202.236 418.167,217.597 413.938 C 242.525 407.074,270.156 399.469,271.712 399.043 C 272.389 398.857,279.754 396.831,288.079 394.540 C 296.405 392.249,309.773 388.574,317.786 386.373 C 325.799 384.172,332.411 382.315,332.479 382.245 C 332.608 382.112,332.859 379.560,333.774 369.063 C 334.083 365.525,334.421 361.736,334.527 360.643 C 334.632 359.551,334.888 356.698,335.096 354.305 C 335.713 347.210,336.593 337.239,336.799 335.005 C 337.129 331.432,337.531 326.920,338.123 320.151 C 338.437 316.561,338.778 312.729,338.880 311.637 C 338.983 310.544,339.241 307.649,339.454 305.203 C 339.666 302.758,339.965 299.395,340.117 297.729 C 340.429 294.314,341.139 286.296,341.717 279.659 C 341.929 277.214,342.188 274.319,342.291 273.226 C 342.393 272.133,342.735 268.302,343.049 264.711 C 343.363 261.121,343.744 256.821,343.897 255.156 C 344.050 253.491,344.433 249.191,344.749 245.601 C 345.065 242.010,345.532 236.731,345.787 233.869 C 346.041 231.008,346.426 226.665,346.641 224.219 C 346.857 221.774,347.242 217.474,347.497 214.664 C 347.752 211.854,348.178 207.086,348.442 204.068 C 348.706 201.050,349.259 194.792,349.671 190.161 C 350.082 185.530,350.933 175.951,351.561 168.874 C 353.150 150.996,353.239 149.985,353.556 146.358 C 353.711 144.588,354.007 141.268,354.213 138.978 C 354.701 133.584,355.054 129.617,355.534 124.125 C 355.748 121.679,356.089 117.848,356.291 115.610 C 356.493 113.373,356.745 110.563,356.850 109.366 C 356.955 108.169,357.297 104.338,357.608 100.851 C 357.920 97.365,358.433 91.596,358.747 88.032 C 359.062 84.468,359.576 78.635,359.891 75.071 C 360.205 71.507,360.505 68.165,360.558 67.644 C 360.610 67.124,360.905 63.803,361.213 60.265 C 361.522 56.727,361.902 52.427,362.059 50.710 C 362.216 48.992,362.599 44.650,362.910 41.060 C 363.222 37.469,363.523 34.127,363.580 33.633 L 363.684 32.734 282.157 32.734 C 237.318 32.734,200.574 32.791,200.505 32.860 M105.834 83.396 C 123.091 83.423,151.275 83.423,168.464 83.396 C 185.653 83.370,171.533 83.348,137.086 83.348 C 102.640 83.348,88.576 83.370,105.834 83.396 M74.598 86.187 C 74.600 86.604,74.639 86.752,74.684 86.516 C 74.730 86.281,74.728 85.940,74.681 85.759 C 74.633 85.578,74.596 85.771,74.598 86.187 M74.798 89.026 C 74.800 89.650,74.835 89.883,74.877 89.542 C 74.919 89.202,74.918 88.692,74.875 88.407 C 74.832 88.123,74.797 88.401,74.798 89.026 M75.170 94.607 C 75.170 95.076,75.207 95.267,75.252 95.033 C 75.297 94.799,75.297 94.416,75.252 94.182 C 75.207 93.947,75.170 94.139,75.170 94.607 M75.362 97.351 C 75.363 97.871,75.400 98.062,75.443 97.774 C 75.487 97.487,75.486 97.061,75.441 96.828 C 75.396 96.595,75.360 96.831,75.362 97.351 M75.734 101.514 C 75.736 101.930,75.774 102.078,75.820 101.843 C 75.865 101.607,75.863 101.267,75.816 101.086 C 75.769 100.905,75.732 101.097,75.734 101.514 M75.927 103.690 C 75.927 104.158,75.964 104.350,76.009 104.115 C 76.054 103.881,76.054 103.498,76.009 103.264 C 75.964 103.030,75.927 103.221,75.927 103.690 M76.301 107.758 C 76.303 108.174,76.342 108.322,76.387 108.087 C 76.433 107.851,76.431 107.511,76.384 107.330 C 76.336 107.149,76.299 107.342,76.301 107.758 M76.494 109.934 C 76.494 110.402,76.531 110.594,76.576 110.360 C 76.621 110.125,76.621 109.742,76.576 109.508 C 76.531 109.274,76.494 109.465,76.494 109.934 M76.869 114.191 C 76.871 114.607,76.910 114.755,76.955 114.520 C 77.000 114.285,76.999 113.944,76.951 113.763 C 76.904 113.582,76.867 113.775,76.869 114.191 M77.058 116.272 C 77.060 116.689,77.099 116.837,77.144 116.601 C 77.189 116.366,77.188 116.025,77.140 115.845 C 77.093 115.664,77.056 115.856,77.058 116.272 M77.437 120.435 C 77.439 120.851,77.477 120.999,77.523 120.764 C 77.568 120.529,77.566 120.188,77.519 120.007 C 77.471 119.826,77.434 120.019,77.437 120.435 M77.626 122.706 C 77.628 123.122,77.667 123.270,77.712 123.035 C 77.757 122.799,77.755 122.459,77.708 122.278 C 77.661 122.097,77.624 122.289,77.626 122.706 M78.004 126.868 C 78.006 127.285,78.045 127.433,78.090 127.197 C 78.136 126.962,78.134 126.621,78.086 126.441 C 78.039 126.260,78.002 126.452,78.004 126.868 M78.572 133.113 C 78.574 133.529,78.613 133.677,78.658 133.442 C 78.703 133.206,78.701 132.866,78.654 132.685 C 78.607 132.504,78.570 132.696,78.572 133.113 M130.045 139.357 C 130.046 139.877,130.083 140.067,130.126 139.780 C 130.170 139.492,130.169 139.066,130.124 138.834 C 130.079 138.601,130.043 138.836,130.045 139.357 M79.143 139.451 C 79.143 139.920,79.180 140.111,79.225 139.877 C 79.270 139.643,79.270 139.260,79.225 139.026 C 79.180 138.791,79.143 138.983,79.143 139.451 M79.711 145.885 C 79.711 146.353,79.748 146.544,79.793 146.310 C 79.838 146.076,79.838 145.693,79.793 145.459 C 79.748 145.225,79.711 145.416,79.711 145.885 M130.612 145.979 C 130.614 146.500,130.650 146.690,130.694 146.402 C 130.737 146.115,130.736 145.689,130.691 145.456 C 130.646 145.224,130.611 145.459,130.612 145.979 M80.279 152.129 C 80.279 152.597,80.315 152.789,80.361 152.554 C 80.406 152.320,80.406 151.937,80.361 151.703 C 80.315 151.469,80.279 151.660,80.279 152.129 M131.177 152.507 C 131.177 152.975,131.214 153.167,131.259 152.933 C 131.304 152.699,131.304 152.316,131.259 152.081 C 131.214 151.847,131.177 152.039,131.177 152.507 M80.846 158.562 C 80.846 159.030,80.883 159.222,80.928 158.988 C 80.973 158.754,80.973 158.370,80.928 158.136 C 80.883 157.902,80.846 158.094,80.846 158.562 M131.745 159.130 C 131.745 159.598,131.782 159.789,131.827 159.555 C 131.872 159.321,131.872 158.938,131.827 158.704 C 131.782 158.470,131.745 158.661,131.745 159.130 M81.221 162.630 C 81.223 163.046,81.262 163.194,81.307 162.959 C 81.352 162.724,81.350 162.383,81.303 162.202 C 81.256 162.021,81.219 162.214,81.221 162.630 M81.414 164.806 C 81.414 165.274,81.451 165.466,81.496 165.232 C 81.541 164.998,81.541 164.614,81.496 164.380 C 81.451 164.146,81.414 164.338,81.414 164.806 M132.313 165.752 C 132.313 166.220,132.350 166.412,132.395 166.178 C 132.440 165.944,132.440 165.561,132.395 165.326 C 132.350 165.092,132.313 165.284,132.313 165.752 M81.788 168.874 C 81.791 169.290,81.829 169.438,81.875 169.203 C 81.920 168.968,81.918 168.627,81.871 168.446 C 81.823 168.265,81.786 168.458,81.788 168.874 M132.691 170.104 C 132.691 170.572,132.728 170.764,132.773 170.530 C 132.818 170.296,132.818 169.912,132.773 169.678 C 132.728 169.444,132.691 169.636,132.691 170.104 M81.978 171.145 C 81.980 171.561,82.019 171.709,82.064 171.474 C 82.109 171.238,82.107 170.898,82.060 170.717 C 82.013 170.536,81.976 170.728,81.978 171.145 M132.880 172.375 C 132.880 172.843,132.917 173.035,132.962 172.800 C 133.007 172.566,133.007 172.183,132.962 171.949 C 132.917 171.715,132.880 171.906,132.880 172.375 M82.356 175.307 C 82.358 175.724,82.397 175.872,82.442 175.636 C 82.488 175.401,82.486 175.060,82.438 174.880 C 82.391 174.699,82.354 174.891,82.356 175.307 M133.259 176.727 C 133.259 177.195,133.296 177.386,133.341 177.152 C 133.386 176.918,133.386 176.535,133.341 176.301 C 133.296 176.067,133.259 176.258,133.259 176.727 M82.545 177.389 C 82.547 177.805,82.586 177.953,82.631 177.718 C 82.677 177.482,82.675 177.142,82.628 176.961 C 82.580 176.780,82.543 176.973,82.545 177.389 M133.444 178.903 C 133.446 179.319,133.485 179.467,133.530 179.231 C 133.575 178.996,133.574 178.656,133.526 178.475 C 133.479 178.294,133.442 178.486,133.444 178.903 M82.924 181.552 C 82.926 181.968,82.965 182.116,83.010 181.880 C 83.055 181.645,83.053 181.305,83.006 181.124 C 82.959 180.943,82.922 181.135,82.924 181.552 M133.826 183.160 C 133.826 183.628,133.863 183.820,133.908 183.586 C 133.953 183.351,133.953 182.968,133.908 182.734 C 133.863 182.500,133.826 182.692,133.826 183.160 M83.113 183.822 C 83.115 184.238,83.154 184.386,83.199 184.151 C 83.244 183.916,83.243 183.575,83.195 183.394 C 83.148 183.213,83.111 183.406,83.113 183.822 M83.491 187.985 C 83.494 188.401,83.532 188.549,83.578 188.314 C 83.623 188.078,83.621 187.738,83.574 187.557 C 83.526 187.376,83.489 187.569,83.491 187.985 M84.063 194.324 C 84.063 194.792,84.100 194.983,84.145 194.749 C 84.190 194.515,84.190 194.132,84.145 193.898 C 84.100 193.664,84.063 193.855,84.063 194.324 M84.631 200.568 C 84.631 201.036,84.667 201.228,84.713 200.993 C 84.758 200.759,84.758 200.376,84.713 200.142 C 84.667 199.908,84.631 200.099,84.631 200.568 M85.198 207.001 C 85.198 207.469,85.235 207.661,85.280 207.427 C 85.325 207.193,85.325 206.809,85.280 206.575 C 85.235 206.341,85.198 206.533,85.198 207.001 M85.766 213.245 C 85.766 213.713,85.803 213.905,85.848 213.671 C 85.893 213.437,85.893 213.053,85.848 212.819 C 85.803 212.585,85.766 212.777,85.766 213.245 M86.333 219.678 C 86.333 220.147,86.370 220.338,86.415 220.104 C 86.461 219.870,86.461 219.487,86.415 219.253 C 86.370 219.018,86.333 219.210,86.333 219.678 M86.708 223.746 C 86.710 224.163,86.749 224.311,86.794 224.075 C 86.839 223.840,86.838 223.499,86.790 223.319 C 86.743 223.138,86.706 223.330,86.708 223.746 M86.901 225.922 C 86.901 226.391,86.938 226.582,86.983 226.348 C 87.028 226.114,87.028 225.731,86.983 225.497 C 86.938 225.263,86.901 225.454,86.901 225.922 M87.272 230.085 C 87.272 230.449,87.311 230.598,87.358 230.416 C 87.406 230.234,87.406 229.936,87.358 229.754 C 87.311 229.572,87.272 229.721,87.272 230.085 M87.465 232.261 C 87.467 232.677,87.506 232.825,87.551 232.590 C 87.596 232.355,87.595 232.014,87.547 231.833 C 87.500 231.652,87.463 231.845,87.465 232.261 M144.039 235.147 L 200.378 235.195 200.425 274.900 L 200.473 314.605 206.623 312.955 C 210.005 312.047,216.306 310.350,220.624 309.183 C 224.943 308.016,230.478 306.523,232.923 305.864 C 235.369 305.206,241.372 303.589,246.263 302.271 C 251.154 300.954,255.221 299.813,255.300 299.737 C 255.380 299.660,255.571 298.283,255.726 296.677 C 255.881 295.070,256.135 292.436,256.292 290.823 C 256.449 289.210,256.832 285.208,257.143 281.930 C 257.454 278.652,257.836 274.650,257.993 273.037 C 258.284 270.026,259.557 256.772,260.072 251.372 C 260.231 249.707,260.614 245.662,260.923 242.384 C 261.232 239.106,261.530 236.105,261.586 235.714 L 261.688 235.005 174.695 235.052 C 108.203 235.088,100.978 235.110,144.039 235.147 M102.776 259.934 C 109.611 259.961,120.850 259.961,127.753 259.934 C 134.655 259.906,129.063 259.884,115.326 259.884 C 101.589 259.884,95.942 259.906,102.776 259.934 M90.489 261.306 C 90.489 261.670,90.527 261.819,90.575 261.637 C 90.623 261.455,90.623 261.157,90.575 260.974 C 90.527 260.792,90.489 260.941,90.489 261.306 M140.449 263.387 C 140.449 263.855,140.486 264.047,140.531 263.813 C 140.576 263.579,140.576 263.195,140.531 262.961 C 140.486 262.727,140.449 262.919,140.449 263.387 M90.688 263.671 C 90.689 264.191,90.726 264.382,90.770 264.094 C 90.813 263.806,90.812 263.381,90.767 263.148 C 90.722 262.915,90.687 263.150,90.688 263.671 M140.630 265.468 C 140.630 265.833,140.669 265.982,140.717 265.799 C 140.765 265.617,140.765 265.319,140.717 265.137 C 140.669 264.955,140.630 265.104,140.630 265.468 M91.056 268.496 C 91.056 268.860,91.095 269.009,91.143 268.827 C 91.190 268.645,91.190 268.347,91.143 268.165 C 91.095 267.982,91.056 268.132,91.056 268.496 M141.019 269.726 C 141.021 270.246,141.057 270.436,141.101 270.149 C 141.144 269.861,141.143 269.435,141.098 269.203 C 141.053 268.970,141.018 269.205,141.019 269.726 M91.256 271.050 C 91.257 271.570,91.294 271.761,91.337 271.473 C 91.381 271.186,91.380 270.760,91.335 270.527 C 91.290 270.294,91.254 270.530,91.256 271.050 M141.198 271.902 C 141.198 272.266,141.237 272.415,141.285 272.233 C 141.332 272.051,141.332 271.753,141.285 271.570 C 141.237 271.388,141.198 271.537,141.198 271.902 M91.628 275.781 C 91.630 276.197,91.669 276.345,91.714 276.109 C 91.759 275.874,91.757 275.533,91.710 275.353 C 91.663 275.172,91.626 275.364,91.628 275.781 M141.584 276.064 C 141.584 276.533,141.621 276.724,141.666 276.490 C 141.711 276.256,141.711 275.873,141.666 275.639 C 141.621 275.404,141.584 275.596,141.584 276.064 M91.823 278.240 C 91.825 278.761,91.861 278.951,91.905 278.663 C 91.948 278.376,91.947 277.950,91.902 277.717 C 91.857 277.485,91.822 277.720,91.823 278.240 M141.766 278.335 C 141.766 278.699,141.805 278.848,141.852 278.666 C 141.900 278.484,141.900 278.186,141.852 278.004 C 141.805 277.822,141.766 277.971,141.766 278.335 M142.152 282.498 C 142.152 282.966,142.189 283.158,142.234 282.923 C 142.279 282.689,142.279 282.306,142.234 282.072 C 142.189 281.838,142.152 282.029,142.152 282.498 M92.195 282.971 C 92.197 283.387,92.236 283.535,92.281 283.300 C 92.327 283.064,92.325 282.724,92.278 282.543 C 92.230 282.362,92.193 282.554,92.195 282.971 M92.391 285.430 C 92.392 285.951,92.429 286.141,92.473 285.854 C 92.516 285.566,92.515 285.140,92.470 284.908 C 92.425 284.675,92.389 284.910,92.391 285.430 M142.719 288.931 C 142.719 289.399,142.756 289.591,142.801 289.357 C 142.847 289.123,142.847 288.739,142.801 288.505 C 142.756 288.271,142.719 288.463,142.719 288.931 M92.763 290.161 C 92.765 290.577,92.804 290.725,92.849 290.490 C 92.894 290.254,92.893 289.914,92.845 289.733 C 92.798 289.552,92.761 289.745,92.763 290.161 M92.959 292.621 C 92.960 293.141,92.997 293.331,93.040 293.044 C 93.084 292.756,93.083 292.330,93.038 292.098 C 92.993 291.865,92.957 292.100,92.959 292.621 M143.287 295.364 C 143.287 295.833,143.324 296.024,143.369 295.790 C 143.414 295.556,143.414 295.173,143.369 294.939 C 143.324 294.704,143.287 294.896,143.287 295.364 M93.331 297.351 C 93.333 297.767,93.371 297.915,93.417 297.680 C 93.462 297.445,93.460 297.104,93.413 296.923 C 93.366 296.742,93.328 296.935,93.331 297.351 M93.526 299.811 C 93.528 300.331,93.564 300.522,93.608 300.234 C 93.651 299.946,93.650 299.521,93.605 299.288 C 93.560 299.055,93.525 299.290,93.526 299.811 M93.902 304.636 C 93.902 305.104,93.939 305.296,93.984 305.061 C 94.029 304.827,94.029 304.444,93.984 304.210 C 93.939 303.976,93.902 304.167,93.902 304.636 M94.091 307.096 C 94.091 307.564,94.128 307.755,94.173 307.521 C 94.218 307.287,94.218 306.904,94.173 306.670 C 94.128 306.436,94.091 306.627,94.091 307.096 M94.470 311.826 C 94.470 312.294,94.507 312.486,94.552 312.252 C 94.597 312.018,94.597 311.634,94.552 311.400 C 94.507 311.166,94.470 311.358,94.470 311.826 M94.659 314.286 C 94.659 314.754,94.696 314.946,94.741 314.711 C 94.786 314.477,94.786 314.094,94.741 313.860 C 94.696 313.626,94.659 313.817,94.659 314.286 M94.840 316.556 C 94.840 316.921,94.879 317.070,94.927 316.887 C 94.975 316.705,94.975 316.407,94.927 316.225 C 94.879 316.043,94.840 316.192,94.840 316.556 M95.040 319.111 C 95.041 319.631,95.078 319.821,95.122 319.534 C 95.165 319.246,95.164 318.820,95.119 318.588 C 95.074 318.355,95.039 318.590,95.040 319.111 M95.608 326.301 C 95.609 326.821,95.646 327.012,95.689 326.724 C 95.733 326.436,95.732 326.011,95.687 325.778 C 95.642 325.545,95.606 325.781,95.608 326.301 M96.175 333.491 C 96.177 334.011,96.213 334.202,96.257 333.914 C 96.300 333.627,96.299 333.201,96.254 332.968 C 96.209 332.735,96.174 332.971,96.175 333.491 M96.543 338.316 C 96.543 338.680,96.582 338.829,96.630 338.647 C 96.678 338.465,96.678 338.167,96.630 337.985 C 96.582 337.803,96.543 337.952,96.543 338.316 " stroke="none" fill="#ec642c" fill-rule="evenodd"></path><path id="path2" d="M0.065 1.656 C 0.130 2.566,0.309 4.716,0.463 6.433 C 0.617 8.150,0.876 11.045,1.038 12.867 C 1.200 14.688,1.454 17.540,1.603 19.205 C 1.852 22.004,2.009 23.777,2.741 32.072 C 2.888 33.737,3.143 36.632,3.309 38.505 C 3.474 40.378,3.729 43.273,3.876 44.939 C 4.023 46.604,4.273 49.413,4.431 51.183 C 4.589 52.952,4.806 55.421,4.914 56.670 C 5.021 57.919,5.153 59.369,5.208 59.892 C 5.366 61.411,5.656 64.546,5.970 68.117 C 6.130 69.939,6.382 72.791,6.530 74.456 C 6.677 76.121,6.925 78.931,7.081 80.700 C 7.236 82.469,7.495 85.386,7.655 87.181 C 7.816 88.976,8.078 91.913,8.239 93.709 C 8.399 95.504,8.658 98.420,8.813 100.189 C 8.969 101.958,9.217 104.768,9.364 106.433 C 9.512 108.098,9.764 110.951,9.924 112.772 C 10.368 117.829,10.579 120.154,10.686 121.192 C 10.774 122.046,11.033 124.964,11.264 127.720 C 11.312 128.292,11.437 129.655,11.542 130.747 C 11.648 131.840,11.865 134.224,12.025 136.045 C 12.185 137.867,12.437 140.719,12.584 142.384 C 12.855 145.437,13.170 148.996,13.721 155.251 C 13.886 157.124,14.143 160.019,14.291 161.684 C 14.794 167.314,15.150 171.321,15.417 174.361 C 15.564 176.026,15.782 178.453,15.901 179.754 C 16.021 181.055,16.143 182.417,16.172 182.781 C 16.455 186.306,16.679 188.856,16.752 189.404 C 16.801 189.768,16.928 191.045,17.035 192.242 C 17.141 193.439,17.349 195.781,17.497 197.446 C 17.646 199.111,17.902 202.006,18.067 203.879 C 18.618 210.133,18.933 213.693,19.204 216.746 C 19.829 223.794,20.091 226.755,20.342 229.612 C 20.488 231.277,20.737 234.087,20.896 235.856 C 21.055 237.625,21.317 240.563,21.480 242.384 C 21.795 245.918,22.107 249.378,22.223 250.615 C 22.262 251.031,22.386 252.521,22.500 253.926 C 22.613 255.331,22.748 256.779,22.800 257.143 C 22.852 257.507,22.985 258.869,23.095 260.170 C 23.284 262.405,23.472 264.546,24.115 271.760 C 24.369 274.603,24.529 276.416,25.257 284.674 C 25.918 292.158,26.143 294.711,26.394 297.540 C 26.542 299.205,26.793 302.058,26.953 303.879 C 27.113 305.700,27.332 308.127,27.440 309.272 C 27.548 310.416,27.673 311.779,27.719 312.299 C 27.765 312.819,27.896 314.267,28.010 315.516 C 28.125 316.764,28.252 318.212,28.292 318.732 C 28.333 319.253,28.456 320.615,28.566 321.760 C 28.676 322.904,28.897 325.331,29.057 327.152 C 29.217 328.974,29.467 331.826,29.613 333.491 C 29.759 335.156,30.012 338.009,30.175 339.830 C 30.338 341.651,30.597 344.567,30.751 346.310 C 30.905 348.053,31.163 350.948,31.323 352.744 C 31.484 354.539,31.743 357.455,31.899 359.224 C 32.055 360.993,32.304 363.803,32.451 365.468 C 32.599 367.133,32.850 369.986,33.010 371.807 C 33.267 374.750,33.391 376.139,33.782 380.416 C 33.839 381.041,33.968 382.403,34.068 383.444 C 34.168 384.484,34.381 386.826,34.540 388.647 C 34.699 390.468,34.950 393.321,35.098 394.986 C 35.246 396.651,35.498 399.503,35.660 401.325 C 35.821 403.146,36.000 405.232,36.058 405.960 C 36.226 408.097,36.198 408.046,37.414 408.404 C 38.014 408.580,39.101 408.904,39.830 409.122 C 40.558 409.341,41.410 409.585,41.722 409.665 C 42.034 409.745,43.226 410.078,44.371 410.406 C 45.516 410.733,46.878 411.115,47.398 411.254 C 48.384 411.518,53.148 412.860,56.575 413.839 C 57.668 414.151,58.988 414.520,59.508 414.658 C 60.028 414.796,61.476 415.205,62.725 415.565 C 63.974 415.926,65.166 416.269,65.374 416.327 C 65.582 416.385,67.136 416.823,68.827 417.299 C 70.518 417.775,73.243 418.541,74.882 419.002 C 76.521 419.463,79.096 420.193,80.605 420.625 C 85.719 422.088,87.320 422.542,88.269 422.796 C 88.789 422.936,90.151 423.319,91.296 423.648 C 92.441 423.977,93.825 424.367,94.371 424.516 C 96.840 425.189,97.416 425.350,98.392 425.640 C 98.964 425.810,99.688 426.021,100.000 426.110 C 100.312 426.199,101.504 426.542,102.649 426.871 C 104.780 427.484,105.836 427.779,107.663 428.269 C 108.236 428.422,109.172 428.688,109.745 428.859 C 110.929 429.214,112.288 429.588,113.529 429.902 C 113.997 430.021,114.551 430.188,114.759 430.274 C 114.967 430.361,115.520 430.530,115.989 430.651 C 117.372 431.007,118.626 431.355,120.435 431.885 C 121.372 432.159,123.479 432.760,125.118 433.221 C 126.757 433.682,129.439 434.436,131.079 434.896 C 132.718 435.357,135.293 436.086,136.802 436.515 C 139.721 437.346,143.598 438.442,148.534 439.830 C 150.199 440.298,152.945 441.072,154.636 441.550 C 156.327 442.028,158.136 442.533,158.657 442.673 C 159.177 442.814,160.369 443.155,161.306 443.431 C 162.242 443.708,163.434 444.049,163.955 444.188 C 164.475 444.328,165.369 444.580,165.941 444.749 C 166.514 444.918,167.450 445.184,168.023 445.340 C 170.015 445.881,170.962 446.147,171.996 446.452 C 173.030 446.758,173.978 447.023,175.970 447.565 C 176.542 447.720,177.479 447.987,178.051 448.156 C 178.623 448.326,179.347 448.538,179.659 448.627 C 179.972 448.716,181.164 449.058,182.308 449.388 C 183.453 449.717,184.816 450.101,185.336 450.240 C 185.856 450.380,187.219 450.763,188.363 451.092 C 190.505 451.707,191.572 452.004,193.377 452.488 C 193.950 452.642,194.886 452.907,195.459 453.079 C 199.215 454.202,199.567 454.242,201.325 453.737 C 202.105 453.513,203.191 453.208,203.737 453.060 C 205.889 452.477,206.759 452.235,207.758 451.939 C 208.735 451.651,209.324 451.486,211.779 450.817 C 212.325 450.668,213.709 450.279,214.853 449.953 C 215.998 449.626,217.360 449.244,217.881 449.103 C 218.401 448.963,220.061 448.494,221.570 448.061 C 223.079 447.629,224.740 447.162,225.260 447.023 C 225.781 446.884,227.611 446.374,229.328 445.889 C 231.045 445.403,232.876 444.892,233.396 444.753 C 233.917 444.613,235.279 444.230,236.424 443.900 C 237.569 443.571,238.761 443.229,239.073 443.141 C 239.385 443.053,240.577 442.713,241.722 442.385 C 242.867 442.058,244.250 441.669,244.797 441.520 C 245.343 441.371,246.237 441.127,246.783 440.978 C 247.330 440.829,248.713 440.440,249.858 440.114 C 251.003 439.787,252.365 439.406,252.886 439.267 C 253.923 438.990,260.243 437.208,263.387 436.306 C 264.480 435.992,265.821 435.614,266.367 435.465 C 268.822 434.796,269.411 434.631,270.388 434.342 C 271.365 434.054,271.954 433.889,274.409 433.220 C 274.955 433.071,276.339 432.682,277.483 432.354 C 278.628 432.027,279.820 431.687,280.132 431.599 C 280.445 431.511,282.105 431.041,283.822 430.556 C 285.539 430.070,287.370 429.558,287.890 429.419 C 288.411 429.280,290.241 428.770,291.958 428.287 C 293.675 427.803,295.251 427.360,295.459 427.301 C 295.667 427.243,296.859 426.900,298.108 426.540 C 299.357 426.179,300.804 425.771,301.325 425.632 C 301.845 425.494,303.207 425.112,304.352 424.783 C 305.497 424.455,306.859 424.072,307.379 423.932 C 307.900 423.793,309.730 423.282,311.447 422.796 C 313.165 422.311,314.995 421.801,315.516 421.662 C 316.036 421.523,317.228 421.185,318.165 420.911 C 319.101 420.636,320.315 420.289,320.861 420.140 C 321.407 419.990,322.301 419.745,322.848 419.596 C 323.394 419.446,324.309 419.185,324.882 419.016 C 325.454 418.847,326.370 418.588,326.917 418.440 C 327.463 418.293,328.379 418.043,328.951 417.884 C 329.523 417.726,330.438 417.475,330.984 417.325 C 331.530 417.175,332.446 416.915,333.018 416.746 C 333.590 416.576,334.484 416.324,335.005 416.184 C 335.525 416.045,336.717 415.704,337.654 415.428 C 339.253 414.955,339.875 414.780,342.337 414.110 C 342.883 413.961,344.735 413.442,346.452 412.957 C 348.169 412.472,350.000 411.961,350.520 411.822 C 351.041 411.682,352.403 411.301,353.548 410.974 C 354.693 410.648,356.055 410.267,356.575 410.128 C 357.096 409.989,358.288 409.649,359.224 409.373 C 360.161 409.096,361.353 408.754,361.873 408.613 C 363.923 408.057,363.761 408.266,363.942 405.960 C 364.000 405.232,364.179 403.146,364.340 401.325 C 364.502 399.503,364.754 396.651,364.902 394.986 C 365.050 393.321,365.301 390.468,365.460 388.647 C 365.619 386.826,365.838 384.442,365.946 383.349 C 366.133 381.457,366.387 378.647,366.982 371.902 C 367.129 370.237,367.385 367.342,367.551 365.468 C 367.717 363.595,367.972 360.700,368.119 359.035 C 368.265 357.370,368.516 354.539,368.676 352.744 C 368.837 350.948,369.096 348.032,369.253 346.263 C 369.409 344.494,369.668 341.578,369.829 339.782 C 369.989 337.987,370.241 335.156,370.387 333.491 C 370.533 331.826,370.783 328.974,370.943 327.152 C 371.103 325.331,371.323 322.947,371.432 321.854 C 371.541 320.762,371.755 318.441,371.907 316.698 C 372.060 314.955,372.317 312.060,372.477 310.265 C 372.638 308.470,372.897 305.553,373.053 303.784 C 373.209 302.015,373.458 299.205,373.606 297.540 C 373.856 294.724,374.059 292.420,374.743 284.674 C 375.474 276.379,375.631 274.606,375.881 271.807 C 376.029 270.142,376.280 267.332,376.438 265.563 C 376.595 263.794,376.810 261.452,376.916 260.360 C 377.097 258.475,377.356 255.577,377.958 248.723 C 378.208 245.867,378.422 243.468,379.104 235.856 C 379.262 234.087,379.519 231.192,379.674 229.423 C 379.830 227.654,380.078 224.844,380.225 223.179 C 380.751 217.254,381.102 213.298,381.365 210.312 C 382.095 202.043,382.254 200.245,382.503 197.446 C 382.652 195.781,382.861 193.524,382.967 192.431 C 383.147 190.592,383.286 189.044,384.014 180.795 C 384.743 172.537,384.903 170.724,385.156 167.881 C 385.307 166.190,385.554 163.422,385.705 161.731 C 385.855 160.040,386.114 157.124,386.279 155.251 C 386.830 148.996,387.145 145.437,387.416 142.384 C 387.563 140.719,387.815 137.867,387.975 136.045 C 388.135 134.224,388.354 131.840,388.462 130.747 C 388.570 129.655,388.784 127.334,388.937 125.591 C 389.090 123.848,389.346 120.953,389.507 119.158 C 389.668 117.363,389.919 114.532,390.066 112.867 C 390.213 111.202,390.469 108.307,390.635 106.433 C 390.801 104.560,391.057 101.665,391.203 100.000 C 391.453 97.144,391.667 94.745,392.349 87.133 C 392.507 85.364,392.764 82.469,392.919 80.700 C 393.075 78.931,393.323 76.121,393.470 74.456 C 393.618 72.791,393.870 69.939,394.030 68.117 C 394.190 66.296,394.409 63.912,394.517 62.819 C 394.625 61.727,394.841 59.385,394.995 57.616 C 395.150 55.847,395.408 52.952,395.567 51.183 C 395.727 49.413,395.977 46.604,396.124 44.939 C 396.271 43.273,396.526 40.378,396.691 38.505 C 396.857 36.632,397.112 33.737,397.259 32.072 C 397.991 23.777,398.148 22.004,398.397 19.205 C 398.546 17.540,398.800 14.688,398.962 12.867 C 399.124 11.045,399.383 8.150,399.537 6.433 C 399.691 4.716,399.870 2.566,399.935 1.656 L 400.052 -0.000 200.000 -0.000 L -0.052 0.000 0.065 1.656 M363.580 33.633 C 363.523 34.127,363.222 37.469,362.910 41.060 C 362.599 44.650,362.216 48.992,362.059 50.710 C 361.902 52.427,361.522 56.727,361.213 60.265 C 360.905 63.803,360.610 67.124,360.558 67.644 C 360.505 68.165,360.205 71.507,359.891 75.071 C 359.576 78.635,359.062 84.468,358.747 88.032 C 358.433 91.596,357.920 97.365,357.608 100.851 C 357.297 104.338,356.955 108.169,356.850 109.366 C 356.745 110.563,356.493 113.373,356.291 115.610 C 356.089 117.848,355.748 121.679,355.534 124.125 C 355.054 129.617,354.701 133.584,354.213 138.978 C 354.007 141.268,353.711 144.588,353.556 146.358 C 353.239 149.985,353.150 150.996,351.561 168.874 C 350.933 175.951,350.082 185.530,349.671 190.161 C 349.259 194.792,348.706 201.050,348.442 204.068 C 348.178 207.086,347.752 211.854,347.497 214.664 C 347.242 217.474,346.857 221.774,346.641 224.219 C 346.426 226.665,346.041 231.008,345.787 233.869 C 345.532 236.731,345.065 242.010,344.749 245.601 C 344.433 249.191,344.050 253.491,343.897 255.156 C 343.744 256.821,343.363 261.121,343.049 264.711 C 342.735 268.302,342.393 272.133,342.291 273.226 C 342.188 274.319,341.929 277.214,341.717 279.659 C 341.139 286.296,340.429 294.314,340.117 297.729 C 339.965 299.395,339.666 302.758,339.454 305.203 C 339.241 307.649,338.983 310.544,338.880 311.637 C 338.778 312.729,338.437 316.561,338.123 320.151 C 337.531 326.920,337.129 331.432,336.799 335.005 C 336.593 337.239,335.713 347.210,335.096 354.305 C 334.888 356.698,334.632 359.551,334.527 360.643 C 334.421 361.736,334.083 365.525,333.774 369.063 C 332.859 379.560,332.608 382.112,332.479 382.245 C 332.411 382.315,325.799 384.172,317.786 386.373 C 309.773 388.574,296.405 392.249,288.079 394.540 C 279.754 396.831,272.389 398.857,271.712 399.043 C 270.156 399.469,242.525 407.074,217.597 413.938 C 202.236 418.167,200.855 418.542,200.615 418.542 C 200.427 418.543,200.378 413.289,200.378 392.904 L 200.378 367.266 199.901 367.266 C 199.509 367.266,196.876 366.566,189.877 364.604 C 189.565 364.516,188.841 364.320,188.269 364.167 C 187.696 364.015,182.715 362.641,177.200 361.115 C 167.652 358.472,166.517 358.160,164.191 357.541 C 163.645 357.395,159.622 356.282,155.251 355.067 C 150.880 353.852,146.856 352.738,146.309 352.592 C 144.027 351.980,142.970 351.689,135.383 349.580 C 131.012 348.365,126.989 347.251,126.442 347.105 C 125.895 346.958,124.979 346.710,124.407 346.554 C 123.835 346.398,122.898 346.143,122.326 345.987 C 121.753 345.830,120.838 345.582,120.292 345.434 C 119.747 345.286,115.724 344.170,111.353 342.955 C 103.197 340.687,101.877 340.326,100.568 340.006 C 100.151 339.904,99.598 339.747,99.338 339.657 C 99.078 339.567,98.344 339.347,97.708 339.167 L 96.552 338.840 96.436 337.017 C 96.372 336.014,96.194 333.619,96.040 331.693 C 95.886 329.768,95.629 326.533,95.469 324.503 C 95.309 322.474,95.092 319.749,94.986 318.448 C 94.879 317.148,94.663 314.423,94.505 312.394 C 94.206 308.560,93.872 304.311,93.375 298.013 C 93.215 295.984,92.955 292.663,92.796 290.634 C 92.638 288.605,92.384 285.369,92.232 283.444 C 91.889 279.113,91.483 273.903,91.112 269.063 C 90.957 267.034,90.744 264.395,90.640 263.198 C 90.536 262.001,90.449 260.745,90.448 260.407 L 90.445 259.792 115.299 259.792 L 140.153 259.792 140.372 261.731 C 140.492 262.798,140.680 264.735,140.789 266.036 C 141.023 268.840,141.404 273.211,141.808 277.720 C 141.969 279.515,142.226 282.410,142.379 284.153 C 142.533 285.896,142.786 288.728,142.941 290.445 C 143.097 292.162,143.327 294.863,143.452 296.447 C 143.578 298.031,143.737 299.420,143.806 299.532 C 143.907 299.694,148.705 301.073,154.967 302.739 C 155.331 302.836,156.097 303.045,156.670 303.203 C 157.242 303.362,159.626 304.003,161.968 304.629 C 166.940 305.958,168.188 306.296,169.347 306.627 C 169.816 306.761,172.966 307.612,176.348 308.518 C 179.730 309.425,185.307 310.924,188.742 311.851 C 192.176 312.777,195.284 313.614,195.648 313.710 C 196.012 313.806,196.777 314.026,197.348 314.198 C 197.918 314.370,198.833 314.558,199.382 314.614 L 200.378 314.717 200.378 274.956 L 200.378 235.194 144.102 235.194 L 87.826 235.194 87.718 234.674 C 87.659 234.387,87.483 232.663,87.327 230.842 C 87.171 229.021,86.913 226.083,86.752 224.314 C 86.592 222.545,86.333 219.650,86.178 217.881 C 86.022 216.112,85.773 213.302,85.624 211.637 C 85.475 209.972,85.223 207.162,85.066 205.393 C 84.908 203.623,84.647 200.728,84.486 198.959 C 84.325 197.190,84.070 194.338,83.919 192.621 C 83.768 190.904,83.556 188.562,83.448 187.417 C 83.339 186.272,83.127 183.931,82.975 182.214 C 82.824 180.497,82.568 177.644,82.407 175.875 C 82.036 171.810,81.705 168.113,80.703 156.859 C 80.541 155.038,80.286 152.185,80.137 150.520 C 79.987 148.855,79.736 146.045,79.578 144.276 C 79.421 142.507,79.165 139.655,79.011 137.938 C 78.856 136.220,78.600 133.368,78.443 131.599 C 78.285 129.830,78.067 127.446,77.959 126.301 C 77.851 125.156,77.639 122.815,77.488 121.097 C 77.337 119.380,77.081 116.528,76.920 114.759 C 76.639 111.674,76.377 108.771,75.771 101.987 C 75.618 100.270,75.409 97.673,75.308 96.216 C 75.207 94.759,75.038 92.545,74.933 91.296 C 74.828 90.047,74.686 87.727,74.617 86.140 L 74.492 83.254 137.435 83.254 L 200.378 83.254 200.378 58.120 C 200.378 44.297,200.435 32.930,200.505 32.860 C 200.574 32.791,237.318 32.734,282.157 32.734 L 363.684 32.734 363.580 33.633 M129.618 133.444 C 129.622 133.678,129.710 134.763,129.814 135.856 C 129.917 136.949,130.127 139.312,130.279 141.107 C 130.734 146.481,131.096 150.704,131.404 154.257 C 131.565 156.104,131.822 159.085,131.977 160.880 C 132.131 162.675,132.344 165.123,132.450 166.320 C 132.557 167.517,132.768 169.943,132.920 171.712 C 133.072 173.482,133.330 176.462,133.492 178.335 C 133.655 180.208,133.840 182.358,133.903 183.113 L 134.019 184.484 167.199 184.484 L 200.378 184.484 200.378 158.751 L 200.378 133.018 164.995 133.018 L 129.612 133.018 129.618 133.444 " stroke="none" fill="#e44c24" fill-rule="evenodd"></path></g></svg>