<svg id="svg" version="1.1" xmlns="http://www.w3.org/2000/svg" xmlns:xlink="http://www.w3.org/1999/xlink" width="400" height="246.15384615384616" viewBox="0, 0, 400,246.15384615384616"><g id="svgg"><path id="path0" d="M57.692 123.077 L 57.692 188.462 76.922 188.462 L 96.152 188.462 96.213 150.916 L 96.274 113.371 115.348 137.214 C 125.839 150.328,134.509 161.058,134.615 161.058 C 134.722 161.058,143.392 150.328,153.883 137.214 L 172.957 113.371 173.018 150.916 L 173.078 188.462 192.308 188.462 L 211.538 188.462 211.538 123.077 L 211.538 57.692 192.368 57.705 L 173.197 57.717 154.003 81.743 C 143.446 94.958,134.722 105.769,134.615 105.769 C 134.509 105.769,125.785 94.958,115.228 81.743 L 96.034 57.717 76.863 57.705 L 57.692 57.692 57.692 123.077 M276.923 90.383 L 276.923 123.074 257.830 123.136 L 238.736 123.197 267.385 156.656 C 283.142 175.058,296.088 190.114,296.154 190.114 C 296.220 190.114,309.166 175.058,324.923 156.656 L 353.571 123.197 334.478 123.136 L 315.385 123.074 315.385 90.383 L 315.385 57.692 296.154 57.692 L 276.923 57.692 276.923 90.383 " stroke="none" fill="#fcfcfc" fill-rule="evenodd"></path><path id="path1" d="M23.263 0.476 C 11.395 2.978,2.631 11.904,0.378 23.782 C -0.199 26.826,-0.199 219.328,0.378 222.372 C 2.665 234.428,11.725 243.489,23.782 245.776 C 26.833 246.355,373.167 246.355,376.218 245.776 C 388.275 243.489,397.335 234.428,399.622 222.372 C 400.199 219.328,400.199 26.826,399.622 23.782 C 397.335 11.725,388.275 2.665,376.218 0.378 C 372.874 -0.256,26.280 -0.160,23.263 0.476 M115.228 81.743 C 125.785 94.958,134.509 105.769,134.615 105.769 C 134.722 105.769,143.446 94.958,154.003 81.743 L 173.197 57.717 192.368 57.705 L 211.538 57.692 211.538 123.077 L 211.538 188.462 192.308 188.462 L 173.078 188.462 173.018 150.916 L 172.957 113.371 153.883 137.214 C 143.392 150.328,134.722 161.058,134.615 161.058 C 134.509 161.058,125.839 150.328,115.348 137.214 L 96.274 113.371 96.213 150.916 L 96.152 188.462 76.922 188.462 L 57.692 188.462 57.692 123.077 L 57.692 57.692 76.863 57.705 L 96.034 57.717 115.228 81.743 M315.385 90.383 L 315.385 123.074 334.478 123.136 L 353.571 123.197 324.923 156.656 C 309.166 175.058,296.220 190.114,296.154 190.114 C 296.088 190.114,283.142 175.058,267.385 156.656 L 238.736 123.197 257.830 123.136 L 276.923 123.074 276.923 90.383 L 276.923 57.692 296.154 57.692 L 315.385 57.692 315.385 90.383 " stroke="none" fill="#040404" fill-rule="evenodd"></path></g></svg>