<svg id="svg" version="1.1" xmlns="http://www.w3.org/2000/svg" xmlns:xlink="http://www.w3.org/1999/xlink" width="400" height="206.875" viewBox="0, 0, 400,206.875"><g id="svgg"><path id="path0" d="M255.096 0.343 C 254.669 0.396,254.320 0.526,254.320 0.633 C 254.320 0.740,254.202 0.828,254.058 0.828 C 253.010 0.828,250.779 2.812,249.729 4.678 L 249.043 5.898 249.043 8.918 C 249.043 10.862,249.127 12.042,249.278 12.229 C 249.407 12.389,249.577 12.822,249.656 13.192 C 249.735 13.562,249.878 13.864,249.974 13.864 C 250.070 13.864,250.210 14.144,250.285 14.485 C 250.360 14.827,250.497 15.106,250.589 15.106 C 250.681 15.106,250.815 15.339,250.887 15.623 C 250.958 15.908,251.108 16.141,251.220 16.141 C 251.331 16.141,251.423 16.283,251.423 16.458 C 251.423 16.632,251.562 16.828,251.733 16.894 C 251.904 16.959,252.043 17.101,252.043 17.210 C 252.043 17.450,253.288 19.077,253.647 19.307 C 253.789 19.398,253.906 19.568,253.906 19.685 C 253.906 19.802,254.185 20.177,254.527 20.518 C 254.868 20.860,255.147 21.229,255.147 21.340 C 255.147 21.450,255.380 21.756,255.665 22.020 C 255.949 22.284,256.182 22.591,256.182 22.702 C 256.182 22.814,256.368 23.074,256.596 23.280 C 256.824 23.486,257.010 23.780,257.010 23.933 C 257.010 24.086,257.080 24.212,257.165 24.212 C 257.250 24.213,257.553 24.562,257.837 24.988 C 258.332 25.730,258.440 25.873,259.027 26.575 C 259.170 26.745,259.286 26.974,259.286 27.085 C 259.286 27.195,259.404 27.409,259.547 27.559 C 259.691 27.709,259.924 28.065,260.066 28.350 C 260.208 28.634,260.504 29.163,260.724 29.526 C 260.944 29.888,261.187 30.517,261.263 30.925 C 261.340 31.332,261.478 31.712,261.571 31.770 C 261.664 31.827,261.804 32.385,261.882 33.009 C 261.960 33.633,262.096 34.144,262.183 34.144 C 262.271 34.144,262.406 34.563,262.483 35.075 C 262.560 35.587,262.710 36.006,262.817 36.006 C 262.923 36.006,263.011 36.216,263.012 36.472 C 263.013 36.728,263.149 37.197,263.315 37.515 C 263.481 37.833,263.677 38.415,263.750 38.809 C 263.824 39.202,263.957 39.524,264.045 39.524 C 264.133 39.524,264.268 39.943,264.345 40.455 C 264.422 40.967,264.564 41.386,264.661 41.386 C 264.758 41.386,264.900 41.759,264.977 42.214 C 265.054 42.669,265.191 43.042,265.282 43.042 C 265.373 43.042,265.509 43.368,265.584 43.766 C 265.659 44.165,265.797 44.490,265.891 44.490 C 265.985 44.490,266.122 44.863,266.194 45.318 C 266.267 45.773,266.419 46.146,266.531 46.146 C 266.644 46.146,266.736 46.285,266.736 46.454 C 266.736 46.806,269.060 51.367,269.426 51.733 C 269.483 51.790,269.760 52.279,270.042 52.819 C 270.324 53.360,270.621 53.802,270.701 53.802 C 270.781 53.802,270.912 54.009,270.992 54.261 C 271.072 54.513,271.684 55.266,272.351 55.933 C 273.018 56.600,273.564 57.279,273.564 57.440 C 273.564 57.602,273.658 57.734,273.771 57.734 C 273.885 57.734,273.978 57.874,273.978 58.044 C 273.978 58.215,273.893 58.355,273.788 58.355 C 273.683 58.355,273.536 58.634,273.461 58.976 C 273.386 59.317,273.243 59.596,273.144 59.596 C 273.045 59.596,272.901 60.155,272.824 60.838 C 272.746 61.521,272.613 62.080,272.527 62.080 C 272.441 62.080,272.306 62.684,272.227 63.423 C 272.148 64.161,272.000 64.817,271.899 64.880 C 271.797 64.942,271.653 65.456,271.578 66.020 C 271.503 66.584,271.370 67.046,271.282 67.046 C 271.194 67.046,271.057 67.605,270.978 68.288 C 270.898 68.971,270.758 69.529,270.666 69.529 C 270.574 69.529,270.432 70.437,270.350 71.547 C 270.268 72.656,270.107 73.624,269.993 73.697 C 269.710 73.878,269.711 84.953,269.995 85.306 C 270.110 85.449,270.270 86.381,270.351 87.377 C 270.432 88.373,270.569 89.188,270.657 89.188 C 270.745 89.188,270.871 89.715,270.937 90.358 C 271.004 91.002,271.145 91.584,271.251 91.652 C 271.358 91.719,271.512 92.263,271.593 92.861 C 271.674 93.458,271.815 93.947,271.905 93.947 C 271.996 93.947,272.131 94.273,272.206 94.671 C 272.280 95.070,272.419 95.396,272.513 95.396 C 272.607 95.396,272.743 95.768,272.816 96.223 C 272.889 96.679,273.033 97.051,273.137 97.051 C 273.240 97.051,273.386 97.331,273.461 97.672 C 273.536 98.013,273.676 98.293,273.771 98.293 C 273.867 98.293,274.007 98.572,274.082 98.914 C 274.157 99.255,274.298 99.534,274.395 99.534 C 274.492 99.534,274.635 99.737,274.714 99.984 C 274.792 100.231,274.940 100.534,275.042 100.657 C 275.868 101.649,276.048 101.892,276.048 102.016 C 276.048 102.299,278.972 105.122,279.265 105.122 C 279.430 105.122,279.565 105.213,279.565 105.325 C 279.565 105.436,279.822 105.590,280.135 105.667 C 280.447 105.743,280.770 105.908,280.851 106.033 C 281.054 106.344,285.530 106.340,285.729 106.029 C 285.810 105.902,286.071 105.738,286.308 105.664 C 286.871 105.488,288.257 104.253,288.257 103.926 C 288.257 103.787,288.342 103.673,288.447 103.673 C 288.552 103.673,288.702 103.370,288.781 103.001 C 288.860 102.631,289.014 102.218,289.122 102.084 C 289.230 101.949,289.371 101.297,289.436 100.635 C 289.501 99.973,289.626 99.338,289.714 99.224 C 289.802 99.110,289.941 98.063,290.023 96.896 C 290.105 95.729,290.247 94.775,290.338 94.775 C 290.430 94.775,290.569 94.030,290.649 93.120 C 290.787 91.535,291.070 90.996,291.301 91.878 C 291.360 92.106,291.484 92.292,291.575 92.292 C 291.667 92.292,291.803 92.571,291.878 92.913 C 291.953 93.254,292.093 93.533,292.188 93.533 C 292.284 93.533,292.424 93.813,292.499 94.154 C 292.574 94.496,292.721 94.775,292.826 94.775 C 292.930 94.775,293.017 94.891,293.017 95.034 C 293.020 95.691,296.161 101.397,296.520 101.397 C 296.607 101.397,296.762 101.575,296.864 101.793 C 297.273 102.660,304.184 109.881,304.605 109.881 C 304.691 109.881,305.128 110.230,305.577 110.657 C 306.025 111.084,306.754 111.712,307.197 112.054 C 307.639 112.395,309.087 113.699,310.414 114.951 C 313.994 118.330,315.779 119.412,315.779 118.204 C 315.779 117.862,314.539 116.503,314.228 116.503 C 314.023 116.503,310.398 112.841,310.398 112.634 C 310.398 112.536,310.142 112.226,309.829 111.945 C 309.516 111.663,309.027 111.084,308.743 110.658 C 308.458 110.232,308.156 109.883,308.070 109.882 C 307.985 109.882,307.915 109.756,307.915 109.603 C 307.915 109.450,307.729 109.156,307.501 108.950 C 307.274 108.744,307.087 108.493,307.087 108.392 C 307.087 108.291,306.971 108.069,306.829 107.899 C 306.686 107.729,306.477 107.477,306.363 107.339 C 306.249 107.201,305.703 106.389,305.149 105.535 C 304.595 104.682,303.966 103.731,303.752 103.423 C 303.538 103.114,303.363 102.765,303.363 102.647 C 303.363 102.528,303.271 102.431,303.160 102.431 C 303.048 102.431,302.898 102.199,302.827 101.914 C 302.755 101.630,302.614 101.397,302.512 101.397 C 302.411 101.397,302.328 101.262,302.328 101.097 C 302.328 100.932,302.210 100.722,302.065 100.631 C 301.920 100.540,301.691 100.233,301.555 99.948 C 301.014 98.815,300.007 97.142,299.741 96.935 C 299.585 96.814,299.396 96.465,299.319 96.159 C 299.242 95.853,299.106 95.603,299.017 95.603 C 298.928 95.603,298.796 95.367,298.724 95.080 C 298.652 94.792,298.316 94.107,297.977 93.557 C 297.639 93.007,297.362 92.450,297.362 92.321 C 297.362 92.191,297.276 92.085,297.171 92.085 C 297.066 92.085,296.919 91.805,296.844 91.464 C 296.769 91.123,296.630 90.843,296.534 90.843 C 296.438 90.843,296.298 90.564,296.223 90.222 C 296.148 89.881,296.009 89.602,295.913 89.602 C 295.817 89.602,295.678 89.322,295.603 88.981 C 295.528 88.639,295.389 88.360,295.294 88.360 C 295.199 88.360,295.059 87.988,294.982 87.532 C 294.905 87.077,294.757 86.705,294.653 86.705 C 294.549 86.705,294.461 86.588,294.458 86.446 C 294.454 86.304,294.271 85.815,294.051 85.360 C 293.831 84.904,293.648 84.415,293.644 84.273 C 293.640 84.131,293.545 84.014,293.432 84.014 C 293.320 84.014,293.168 83.642,293.096 83.187 C 293.023 82.732,292.886 82.359,292.792 82.359 C 292.698 82.359,292.560 82.033,292.485 81.635 C 292.410 81.236,292.279 80.911,292.193 80.911 C 292.108 80.911,291.980 80.491,291.910 79.978 C 291.685 78.338,290.389 77.268,289.969 78.376 C 289.893 78.575,289.570 79.017,289.252 79.359 C 288.933 79.700,288.672 80.056,288.671 80.150 C 288.671 80.245,288.391 80.601,288.050 80.942 C 287.708 81.284,287.429 81.686,287.429 81.835 C 287.429 81.985,287.289 82.161,287.118 82.227 C 286.948 82.292,286.808 82.489,286.808 82.663 C 286.808 82.837,286.717 82.980,286.605 82.980 C 286.493 82.980,286.344 83.213,286.272 83.497 C 286.201 83.782,286.067 84.014,285.974 84.014 C 285.882 84.014,285.745 84.294,285.670 84.635 C 285.595 84.977,285.454 85.256,285.356 85.256 C 285.258 85.256,285.115 85.675,285.038 86.187 C 284.962 86.699,284.816 87.118,284.715 87.118 C 284.614 87.118,284.530 87.328,284.529 87.584 C 284.527 87.840,284.391 88.422,284.227 88.877 C 284.063 89.333,283.925 90.056,283.920 90.484 C 283.915 90.912,283.821 91.424,283.710 91.622 C 283.600 91.820,283.416 92.959,283.302 94.154 C 282.972 97.626,282.690 99.996,282.597 100.089 C 282.450 100.237,281.428 99.913,281.428 99.719 C 281.428 99.617,281.302 99.534,281.148 99.534 C 280.759 99.534,279.850 98.658,279.679 98.118 C 279.601 97.873,279.451 97.672,279.345 97.672 C 279.238 97.672,279.152 97.529,279.152 97.355 C 279.152 97.181,279.018 96.987,278.854 96.924 C 278.690 96.861,278.495 96.532,278.420 96.192 C 278.346 95.853,278.155 95.325,277.995 95.020 C 277.836 94.714,277.705 94.348,277.704 94.206 C 277.704 94.064,277.610 93.947,277.496 93.947 C 277.382 93.947,277.286 93.738,277.282 93.482 C 277.278 93.226,277.095 92.644,276.875 92.188 C 276.655 91.733,276.472 91.157,276.468 90.907 C 276.465 90.658,276.373 90.399,276.264 90.332 C 276.156 90.265,276.004 89.654,275.927 88.975 C 275.850 88.295,275.714 87.739,275.626 87.739 C 275.537 87.739,275.405 86.924,275.333 85.929 C 275.260 84.933,275.112 83.956,275.004 83.759 C 274.756 83.309,274.740 73.940,274.986 73.788 C 275.085 73.727,275.231 72.838,275.312 71.813 C 275.392 70.787,275.535 69.901,275.630 69.842 C 275.724 69.784,275.866 69.270,275.944 68.702 C 276.022 68.133,276.163 67.620,276.256 67.563 C 276.349 67.505,276.488 67.086,276.565 66.631 C 276.642 66.176,276.790 65.804,276.894 65.804 C 276.997 65.804,277.085 65.595,277.089 65.339 C 277.093 65.083,277.276 64.501,277.496 64.046 C 277.716 63.590,277.899 63.008,277.903 62.752 C 277.907 62.496,277.997 62.287,278.104 62.287 C 278.211 62.287,278.364 61.844,278.443 61.304 C 278.523 60.763,278.688 60.257,278.810 60.178 C 279.117 59.981,279.124 55.493,278.817 55.296 C 278.690 55.214,278.521 54.938,278.441 54.682 C 278.361 54.426,278.209 54.216,278.103 54.216 C 277.997 54.216,277.910 54.109,277.910 53.978 C 277.910 53.847,277.375 53.213,276.720 52.569 C 275.510 51.379,273.978 49.314,273.978 48.873 C 273.978 48.739,273.903 48.629,273.812 48.629 C 273.512 48.629,271.250 43.915,270.535 41.800 C 270.323 41.174,270.092 40.616,270.020 40.559 C 269.949 40.502,269.824 40.059,269.743 39.576 C 269.662 39.092,269.511 38.696,269.408 38.696 C 269.304 38.696,269.219 38.417,269.219 38.076 C 269.219 37.734,269.136 37.455,269.035 37.455 C 268.935 37.455,268.789 37.036,268.712 36.524 C 268.636 36.011,268.494 35.592,268.398 35.592 C 268.302 35.592,268.159 35.127,268.081 34.558 C 268.002 33.989,267.860 33.523,267.764 33.523 C 267.667 33.523,267.526 33.104,267.449 32.592 C 267.372 32.080,267.233 31.661,267.139 31.661 C 267.045 31.661,266.905 31.242,266.828 30.729 C 266.751 30.217,266.616 29.798,266.528 29.798 C 266.440 29.798,266.307 29.472,266.232 29.074 C 266.157 28.676,266.007 28.350,265.899 28.350 C 265.790 28.350,265.701 28.257,265.701 28.145 C 265.701 27.798,264.805 25.867,264.644 25.867 C 264.561 25.867,264.431 25.587,264.356 25.246 C 264.281 24.904,264.136 24.625,264.033 24.625 C 263.930 24.625,263.790 24.399,263.720 24.123 C 263.651 23.846,263.463 23.570,263.303 23.508 C 263.142 23.447,263.011 23.254,263.011 23.079 C 263.011 22.905,262.924 22.763,262.818 22.763 C 262.712 22.763,262.560 22.557,262.480 22.307 C 262.401 22.056,262.231 21.741,262.104 21.608 C 261.977 21.474,261.733 21.156,261.562 20.900 C 261.392 20.645,261.136 20.314,260.993 20.165 C 260.851 20.017,260.735 19.800,260.735 19.684 C 260.735 19.567,260.618 19.398,260.476 19.307 C 260.334 19.216,259.989 18.815,259.709 18.417 C 259.101 17.551,258.927 17.330,258.251 16.573 C 257.967 16.254,257.641 15.852,257.527 15.679 C 257.413 15.507,256.924 14.800,256.441 14.109 C 255.957 13.418,255.561 12.754,255.561 12.634 C 255.561 12.514,255.476 12.416,255.371 12.416 C 255.266 12.416,255.119 12.137,255.044 11.795 C 254.969 11.454,254.822 11.174,254.717 11.174 C 254.612 11.174,254.523 10.965,254.518 10.709 C 254.513 10.453,254.383 9.893,254.231 9.465 C 254.078 9.037,254.023 8.643,254.110 8.590 C 254.196 8.536,254.324 8.206,254.394 7.856 C 254.650 6.572,257.569 5.272,258.136 6.189 C 258.200 6.292,258.717 6.440,259.286 6.518 C 259.855 6.597,260.321 6.737,260.321 6.830 C 260.321 6.923,260.693 7.062,261.148 7.139 C 261.604 7.216,261.976 7.342,261.976 7.419 C 261.976 7.597,263.534 8.277,263.943 8.277 C 264.113 8.277,264.252 8.363,264.252 8.468 C 264.252 8.573,264.532 8.720,264.873 8.795 C 265.215 8.870,265.494 9.017,265.494 9.121 C 265.494 9.226,265.600 9.312,265.730 9.312 C 265.964 9.312,267.778 10.147,267.977 10.346 C 268.034 10.403,268.546 10.683,269.115 10.967 C 269.684 11.252,270.224 11.601,270.316 11.743 C 270.407 11.886,270.616 12.002,270.781 12.002 C 270.946 12.002,271.081 12.095,271.081 12.209 C 271.081 12.323,271.216 12.416,271.382 12.416 C 271.547 12.416,271.999 12.742,272.385 13.140 C 272.772 13.539,273.156 13.864,273.239 13.864 C 273.322 13.864,273.669 14.144,274.010 14.485 C 274.352 14.827,274.724 15.106,274.837 15.106 C 274.950 15.106,275.182 15.246,275.353 15.416 C 275.572 15.636,276.108 15.727,277.183 15.727 C 278.052 15.727,278.734 15.819,278.775 15.942 C 278.819 16.073,280.146 16.201,282.155 16.269 C 283.974 16.330,285.649 16.459,285.877 16.557 C 286.105 16.654,286.826 16.793,287.481 16.866 C 288.135 16.939,288.670 17.079,288.670 17.178 C 288.670 17.276,289.089 17.420,289.602 17.497 C 290.114 17.573,290.533 17.713,290.533 17.807 C 290.533 17.901,290.952 18.041,291.464 18.117 C 291.976 18.194,292.395 18.332,292.395 18.424 C 292.395 18.516,292.675 18.652,293.016 18.727 C 293.357 18.802,293.637 18.945,293.637 19.045 C 293.637 19.144,293.963 19.287,294.361 19.362 C 294.759 19.437,295.085 19.573,295.085 19.665 C 295.085 19.757,295.365 19.894,295.706 19.969 C 296.048 20.044,296.327 20.184,296.327 20.279 C 296.327 20.375,296.606 20.515,296.948 20.590 C 297.289 20.665,297.569 20.802,297.569 20.894 C 297.569 20.987,297.801 21.121,298.086 21.192 C 298.370 21.263,298.603 21.406,298.603 21.508 C 298.603 21.611,298.883 21.756,299.224 21.831 C 299.565 21.906,299.845 22.053,299.845 22.158 C 299.845 22.263,299.984 22.349,300.155 22.349 C 300.326 22.349,300.466 22.436,300.466 22.542 C 300.466 22.648,300.668 22.799,300.915 22.877 C 301.163 22.956,301.465 23.105,301.588 23.210 C 301.710 23.314,302.556 23.879,303.466 24.466 C 304.377 25.053,305.153 25.608,305.191 25.700 C 305.228 25.791,305.349 25.867,305.458 25.867 C 305.717 25.867,306.937 26.725,307.149 27.056 C 307.240 27.199,307.450 27.315,307.615 27.315 C 307.780 27.315,307.916 27.385,307.917 27.470 C 307.917 27.556,308.261 27.858,308.680 28.143 C 309.487 28.691,309.967 29.076,311.191 30.159 C 311.609 30.529,312.012 30.831,312.087 30.832 C 312.161 30.832,312.654 31.252,313.181 31.764 C 313.708 32.276,314.213 32.695,314.304 32.695 C 314.533 32.695,320.745 38.943,320.745 39.173 C 320.745 39.237,321.257 39.826,321.883 40.483 C 322.509 41.140,323.021 41.744,323.021 41.826 C 323.021 41.908,323.301 42.255,323.642 42.596 C 323.983 42.938,324.263 43.297,324.263 43.394 C 324.263 43.491,324.530 43.805,324.856 44.091 C 325.182 44.377,325.512 44.809,325.588 45.049 C 325.665 45.290,325.863 45.539,326.030 45.603 C 326.196 45.667,326.332 45.862,326.332 46.036 C 326.332 46.210,326.403 46.353,326.490 46.353 C 326.577 46.353,326.878 46.725,327.160 47.181 C 327.441 47.636,327.743 48.008,327.830 48.008 C 327.916 48.008,327.988 48.151,327.988 48.325 C 327.988 48.499,328.119 48.692,328.279 48.754 C 328.440 48.816,328.628 49.092,328.697 49.368 C 328.766 49.645,328.915 49.871,329.026 49.871 C 329.138 49.871,329.229 50.006,329.229 50.171 C 329.229 50.336,329.346 50.545,329.490 50.636 C 329.633 50.727,329.934 51.151,330.158 51.578 C 330.382 52.005,330.637 52.354,330.725 52.354 C 330.813 52.354,330.885 52.487,330.885 52.649 C 330.885 52.812,331.001 53.070,331.143 53.222 C 331.286 53.375,331.633 53.940,331.915 54.479 C 332.197 55.017,332.490 55.458,332.565 55.458 C 332.640 55.458,332.766 55.713,332.844 56.025 C 332.923 56.337,333.052 56.639,333.131 56.697 C 333.349 56.857,334.816 59.881,334.816 60.171 C 334.816 60.310,334.901 60.424,335.005 60.424 C 335.109 60.424,335.257 60.797,335.334 61.252 C 335.411 61.707,335.553 62.080,335.650 62.080 C 335.746 62.080,335.888 62.499,335.965 63.011 C 336.042 63.523,336.183 63.942,336.279 63.942 C 336.375 63.942,336.514 64.268,336.589 64.666 C 336.664 65.065,336.808 65.391,336.909 65.391 C 337.010 65.391,337.096 65.507,337.100 65.649 C 337.103 65.792,337.287 66.280,337.506 66.736 C 337.726 67.191,337.909 67.726,337.913 67.926 C 337.917 68.125,338.006 68.288,338.111 68.288 C 338.216 68.288,338.363 68.567,338.438 68.908 C 338.513 69.250,338.652 69.529,338.748 69.529 C 338.844 69.529,338.983 69.809,339.058 70.150 C 339.133 70.491,339.273 70.771,339.369 70.771 C 339.465 70.771,339.604 71.050,339.679 71.392 C 339.754 71.733,339.901 72.012,340.006 72.012 C 340.111 72.012,340.197 72.149,340.197 72.316 C 340.197 72.483,340.662 73.594,341.231 74.786 C 341.800 75.978,342.266 77.052,342.266 77.173 C 342.266 77.294,342.359 77.393,342.473 77.393 C 342.587 77.393,342.683 77.509,342.687 77.651 C 342.691 77.794,342.874 78.282,343.094 78.738 C 343.314 79.193,343.497 79.682,343.500 79.824 C 343.504 79.966,343.601 80.083,343.714 80.083 C 343.828 80.083,343.921 80.185,343.921 80.310 C 343.921 80.576,344.333 81.551,345.180 83.290 C 345.512 83.973,345.784 84.648,345.784 84.790 C 345.784 84.933,345.873 85.049,345.981 85.049 C 346.090 85.049,346.240 85.375,346.315 85.773 C 346.389 86.172,346.526 86.498,346.618 86.498 C 346.710 86.498,346.847 86.777,346.922 87.118 C 346.997 87.460,347.134 87.739,347.226 87.739 C 347.319 87.739,347.456 87.983,347.530 88.282 C 347.605 88.580,347.778 88.949,347.915 89.102 C 348.498 89.755,348.639 89.970,348.786 90.436 C 348.872 90.706,349.070 91.055,349.225 91.211 C 349.381 91.366,349.509 91.617,349.509 91.767 C 349.509 91.917,349.648 92.094,349.819 92.160 C 349.990 92.225,350.129 92.421,350.129 92.596 C 350.129 92.770,350.221 92.913,350.332 92.913 C 350.444 92.913,350.588 93.123,350.653 93.381 C 350.771 93.851,351.906 94.775,352.367 94.775 C 352.502 94.775,352.613 94.861,352.613 94.965 C 352.613 95.070,352.892 95.217,353.233 95.292 C 353.575 95.367,353.854 95.514,353.854 95.619 C 353.854 95.724,353.983 95.810,354.141 95.810 C 354.299 95.810,354.694 95.949,355.020 96.119 C 355.346 96.289,355.817 96.428,356.066 96.429 C 356.316 96.430,356.572 96.515,356.637 96.619 C 356.701 96.723,357.149 96.873,357.632 96.953 C 358.115 97.033,358.603 97.170,358.717 97.258 C 358.831 97.345,359.250 97.485,359.648 97.569 C 360.047 97.652,360.466 97.791,360.579 97.879 C 360.693 97.966,361.089 98.103,361.459 98.182 C 361.829 98.261,362.131 98.406,362.131 98.504 C 362.131 98.601,362.550 98.744,363.063 98.821 C 363.575 98.898,363.994 99.043,363.994 99.144 C 363.994 99.245,364.157 99.328,364.356 99.329 C 364.555 99.329,364.968 99.460,365.273 99.620 C 365.578 99.779,366.114 99.972,366.463 100.049 C 366.812 100.125,367.098 100.266,367.098 100.362 C 367.098 100.458,367.369 100.596,367.701 100.669 C 368.033 100.742,368.356 100.935,368.419 101.099 C 368.482 101.263,368.676 101.397,368.850 101.397 C 369.024 101.397,369.167 101.480,369.167 101.581 C 369.167 101.683,369.400 101.824,369.684 101.896 C 369.969 101.967,370.202 102.117,370.202 102.228 C 370.202 102.340,370.303 102.431,370.428 102.431 C 370.552 102.431,370.867 102.594,371.128 102.794 C 371.389 102.993,371.808 103.295,372.060 103.466 C 372.311 103.637,372.708 103.939,372.943 104.139 C 373.177 104.338,373.485 104.501,373.626 104.501 C 373.767 104.501,373.936 104.640,374.001 104.811 C 374.067 104.982,374.223 105.122,374.349 105.122 C 374.474 105.122,374.699 105.238,374.847 105.380 C 374.996 105.523,375.326 105.779,375.582 105.949 C 375.838 106.120,376.156 106.364,376.290 106.491 C 376.423 106.618,376.729 106.785,376.969 106.861 C 377.210 106.937,377.458 107.136,377.522 107.302 C 377.586 107.469,377.781 107.605,377.955 107.605 C 378.130 107.605,378.272 107.696,378.272 107.808 C 378.272 107.919,378.505 108.069,378.789 108.141 C 379.074 108.212,379.307 108.353,379.307 108.455 C 379.307 108.556,379.449 108.639,379.624 108.639 C 379.798 108.639,379.991 108.771,380.053 108.931 C 380.114 109.092,380.391 109.280,380.667 109.349 C 380.943 109.418,381.169 109.566,381.169 109.678 C 381.169 109.790,381.266 109.881,381.384 109.881 C 381.658 109.881,382.772 110.670,383.356 111.278 C 383.602 111.534,383.909 111.743,384.038 111.743 C 384.167 111.743,384.273 111.852,384.273 111.986 C 384.273 112.119,384.427 112.398,384.616 112.607 C 384.946 112.972,384.818 112.985,380.891 112.985 C 378.654 112.985,376.824 113.064,376.824 113.160 C 376.824 113.257,375.832 113.397,374.620 113.471 C 373.409 113.545,372.314 113.690,372.189 113.793 C 372.063 113.896,371.425 114.046,370.771 114.127 C 370.116 114.208,369.581 114.344,369.581 114.429 C 369.581 114.514,369.181 114.639,368.692 114.706 C 368.204 114.773,367.528 114.971,367.192 115.147 C 366.856 115.322,366.417 115.466,366.218 115.467 C 366.019 115.468,365.856 115.551,365.856 115.652 C 365.856 115.753,365.437 115.898,364.925 115.975 C 364.413 116.052,363.994 116.190,363.994 116.282 C 363.994 116.373,363.669 116.501,363.272 116.566 C 361.869 116.794,360.879 118.961,361.892 119.587 C 362.006 119.657,362.163 119.970,362.241 120.281 C 362.319 120.593,362.466 120.848,362.568 120.848 C 362.669 120.848,362.752 121.014,362.752 121.215 C 362.752 121.607,364.113 123.802,364.427 123.918 C 364.530 123.956,364.615 124.100,364.615 124.238 C 364.615 124.376,364.890 124.718,365.227 124.997 C 365.563 125.276,365.843 125.612,365.847 125.744 C 365.862 126.138,367.943 128.146,369.167 128.947 C 369.452 129.133,369.917 129.480,370.202 129.719 C 370.913 130.315,371.025 130.399,371.908 130.988 C 372.334 131.273,372.683 131.575,372.684 131.661 C 372.684 131.746,372.810 131.816,372.964 131.816 C 373.208 131.816,373.434 131.967,374.460 132.821 C 374.582 132.923,374.904 133.077,375.174 133.163 C 375.445 133.249,375.794 133.446,375.949 133.602 C 376.105 133.758,376.412 133.885,376.631 133.885 C 376.851 133.885,377.031 133.961,377.031 134.053 C 377.031 134.226,378.942 135.127,379.309 135.127 C 379.421 135.127,379.514 135.212,379.514 135.317 C 379.514 135.422,379.793 135.569,380.135 135.644 C 380.476 135.719,380.755 135.859,380.755 135.954 C 380.755 136.050,381.035 136.190,381.376 136.265 C 381.718 136.340,381.997 136.487,381.997 136.592 C 381.997 136.696,382.099 136.782,382.224 136.782 C 382.478 136.782,383.792 137.329,384.273 137.635 C 384.444 137.743,384.840 137.942,385.153 138.077 C 385.466 138.211,385.722 138.384,385.722 138.461 C 385.722 138.537,385.954 138.658,386.239 138.730 C 386.524 138.801,386.756 138.951,386.756 139.062 C 386.756 139.174,386.882 139.265,387.035 139.265 C 387.281 139.265,387.561 139.455,388.558 140.296 C 388.696 140.412,388.905 140.507,389.024 140.507 C 389.142 140.507,389.240 140.598,389.240 140.709 C 389.240 140.819,389.496 141.043,389.809 141.206 C 390.122 141.369,390.610 141.696,390.895 141.932 C 391.656 142.564,391.763 142.646,392.490 143.159 C 393.318 143.743,394.067 144.362,394.912 145.163 C 396.548 146.714,397.433 146.931,397.238 145.734 C 397.169 145.308,397.017 144.928,396.901 144.889 C 396.784 144.850,396.689 144.728,396.689 144.617 C 396.689 143.906,395.632 142.367,394.100 140.845 C 393.134 139.885,392.344 139.040,392.344 138.968 C 392.344 138.895,391.971 138.448,391.516 137.974 C 391.061 137.500,390.688 137.043,390.688 136.959 C 390.688 136.759,386.540 132.644,386.338 132.644 C 386.254 132.644,385.813 132.294,385.358 131.868 C 384.045 130.637,383.169 129.953,382.906 129.953 C 382.772 129.953,382.608 129.814,382.543 129.643 C 382.477 129.472,382.281 129.333,382.107 129.333 C 381.933 129.333,381.790 129.241,381.790 129.130 C 381.790 129.018,381.564 128.870,381.288 128.801 C 381.011 128.731,380.735 128.543,380.673 128.383 C 380.612 128.222,380.419 128.091,380.244 128.091 C 380.070 128.091,379.928 128.008,379.928 127.907 C 379.928 127.805,379.695 127.664,379.410 127.592 C 379.126 127.521,378.893 127.378,378.893 127.276 C 378.893 127.173,378.614 127.028,378.272 126.953 C 377.931 126.878,377.651 126.733,377.651 126.630 C 377.651 126.527,377.419 126.385,377.134 126.314 C 376.849 126.242,376.617 126.101,376.617 125.999 C 376.617 125.898,376.474 125.815,376.300 125.815 C 376.125 125.815,375.929 125.675,375.864 125.504 C 375.798 125.334,375.656 125.194,375.548 125.194 C 374.993 125.194,371.177 121.639,370.944 120.906 C 370.825 120.529,370.939 120.483,372.310 120.356 C 373.132 120.279,373.856 120.146,373.918 120.060 C 374.026 119.909,374.971 119.659,377.289 119.171 C 377.887 119.045,378.521 118.869,378.699 118.779 C 378.877 118.690,379.948 118.554,381.079 118.478 C 382.210 118.402,383.321 118.258,383.549 118.159 C 383.777 118.059,384.684 117.917,385.565 117.844 C 386.446 117.770,387.218 117.627,387.281 117.526 C 387.343 117.425,387.856 117.281,388.420 117.206 C 388.985 117.132,389.446 116.996,389.446 116.905 C 389.446 116.814,389.959 116.676,390.585 116.597 C 391.211 116.519,391.723 116.373,391.723 116.272 C 391.723 116.171,391.862 116.089,392.033 116.089 C 392.250 116.089,392.344 115.871,392.344 115.365 C 392.344 114.966,392.257 114.640,392.151 114.640 C 392.044 114.640,391.903 114.468,391.836 114.257 C 391.769 114.046,391.439 113.603,391.103 113.274 C 390.767 112.944,390.490 112.592,390.487 112.491 C 390.484 112.391,390.248 112.092,389.964 111.829 C 389.679 111.565,389.446 111.248,389.446 111.124 C 389.446 110.751,385.855 107.328,383.965 105.900 C 383.625 105.642,383.196 105.292,383.012 105.122 C 382.828 104.951,382.377 104.578,382.011 104.294 C 380.877 103.413,380.456 103.075,380.135 102.785 C 379.964 102.631,379.360 102.186,378.792 101.796 C 378.225 101.406,377.636 100.970,377.484 100.828 C 377.332 100.685,377.117 100.569,377.006 100.569 C 376.895 100.569,376.599 100.353,376.348 100.088 C 376.097 99.823,375.729 99.547,375.530 99.474 C 375.331 99.400,375.168 99.244,375.168 99.127 C 375.168 99.010,375.043 98.914,374.889 98.914 C 374.736 98.914,374.415 98.751,374.175 98.551 C 373.244 97.777,372.801 97.465,372.634 97.465 C 372.470 97.465,372.217 97.283,371.554 96.689 C 371.396 96.547,371.173 96.430,371.059 96.430 C 370.945 96.430,370.729 96.314,370.579 96.171 C 370.428 96.029,369.934 95.726,369.481 95.499 C 369.027 95.271,368.532 94.969,368.379 94.827 C 368.227 94.684,367.923 94.568,367.704 94.568 C 367.484 94.568,367.305 94.482,367.305 94.378 C 367.305 94.273,367.025 94.126,366.684 94.051 C 366.342 93.976,366.063 93.839,366.063 93.746 C 366.063 93.654,365.836 93.521,365.559 93.452 C 365.281 93.382,364.420 93.038,363.645 92.688 C 362.869 92.338,361.941 91.919,361.583 91.758 C 361.224 91.596,360.828 91.464,360.703 91.464 C 360.578 91.464,360.476 91.372,360.476 91.260 C 360.476 91.147,360.103 90.996,359.648 90.923 C 359.193 90.850,358.820 90.713,358.820 90.619 C 358.820 90.525,358.495 90.387,358.096 90.312 C 357.698 90.238,357.372 90.104,357.372 90.015 C 357.372 89.926,357.162 89.801,356.905 89.736 C 356.444 89.621,354.892 87.485,354.890 86.963 C 354.889 86.821,354.803 86.705,354.698 86.705 C 354.594 86.705,354.446 86.425,354.371 86.084 C 354.296 85.742,354.157 85.463,354.061 85.463 C 353.965 85.463,353.826 85.184,353.751 84.842 C 353.676 84.501,353.539 84.221,353.447 84.221 C 353.355 84.221,353.218 83.895,353.144 83.497 C 353.069 83.099,352.926 82.773,352.827 82.773 C 352.727 82.773,352.584 82.494,352.509 82.152 C 352.434 81.811,352.294 81.531,352.199 81.531 C 352.103 81.531,351.963 81.252,351.888 80.911 C 351.813 80.569,351.674 80.290,351.578 80.290 C 351.482 80.290,351.342 80.010,351.267 79.669 C 351.192 79.327,351.053 79.048,350.957 79.048 C 350.861 79.048,350.722 78.769,350.647 78.427 C 350.572 78.086,350.425 77.807,350.320 77.807 C 350.215 77.807,350.129 77.691,350.129 77.551 C 350.129 77.410,349.582 76.176,348.914 74.809 C 348.245 73.441,347.391 71.671,347.015 70.874 C 346.639 70.078,346.262 69.378,346.177 69.320 C 346.093 69.262,345.955 68.942,345.872 68.610 C 345.788 68.277,345.595 67.766,345.443 67.474 C 345.290 67.182,345.165 66.826,345.164 66.684 C 345.164 66.542,345.070 66.425,344.956 66.425 C 344.842 66.425,344.746 66.309,344.742 66.167 C 344.738 66.024,344.555 65.535,344.335 65.080 C 344.115 64.625,343.932 64.089,343.928 63.890 C 343.925 63.691,343.839 63.528,343.737 63.528 C 343.636 63.528,343.492 63.202,343.418 62.804 C 343.343 62.406,343.201 62.080,343.102 62.080 C 343.004 62.080,342.860 61.707,342.783 61.252 C 342.706 60.797,342.569 60.424,342.478 60.424 C 342.387 60.424,342.251 60.098,342.176 59.700 C 342.101 59.302,341.960 58.976,341.861 58.976 C 341.762 58.976,341.619 58.603,341.542 58.148 C 341.465 57.693,341.327 57.320,341.236 57.320 C 341.145 57.320,341.009 56.994,340.935 56.596 C 340.860 56.198,340.717 55.872,340.618 55.872 C 340.518 55.872,340.375 55.592,340.300 55.251 C 340.225 54.909,340.085 54.630,339.990 54.630 C 339.894 54.630,339.754 54.351,339.679 54.009 C 339.604 53.668,339.457 53.389,339.352 53.389 C 339.248 53.389,339.162 53.255,339.162 53.093 C 339.162 52.930,339.046 52.674,338.903 52.524 C 338.761 52.373,338.417 51.831,338.139 51.319 C 337.861 50.807,337.511 50.265,337.363 50.115 C 337.214 49.964,337.093 49.716,337.093 49.563 C 337.093 49.410,337.023 49.253,336.937 49.215 C 336.711 49.115,335.851 47.852,335.851 47.620 C 335.851 47.511,335.781 47.391,335.696 47.353 C 335.460 47.248,334.609 45.985,334.609 45.740 C 334.609 45.622,334.540 45.524,334.454 45.523 C 334.369 45.522,333.940 44.964,333.500 44.282 C 333.061 43.600,332.642 43.039,332.569 43.036 C 332.496 43.033,332.208 42.661,331.929 42.209 C 331.650 41.756,331.348 41.386,331.257 41.386 C 331.166 41.386,331.092 41.280,331.092 41.150 C 331.092 41.021,330.857 40.671,330.570 40.374 C 329.461 39.225,328.608 38.217,328.608 38.056 C 328.608 37.963,328.096 37.370,327.470 36.740 C 326.844 36.109,326.332 35.536,326.332 35.468 C 326.332 35.213,321.565 30.365,320.521 29.559 C 320.176 29.292,319.441 28.655,318.889 28.143 C 317.967 27.289,316.976 26.455,315.936 25.660 C 315.712 25.489,315.265 25.101,314.940 24.797 C 314.616 24.494,314.169 24.188,313.946 24.117 C 313.723 24.046,313.488 23.852,313.424 23.686 C 313.361 23.519,313.200 23.383,313.067 23.383 C 312.934 23.383,312.610 23.151,312.346 22.866 C 312.082 22.581,311.784 22.349,311.682 22.349 C 311.580 22.349,311.227 22.116,310.896 21.831 C 310.565 21.546,309.783 20.964,309.157 20.538 C 308.531 20.111,307.988 19.692,307.950 19.607 C 307.912 19.521,307.792 19.452,307.683 19.452 C 307.450 19.452,306.188 18.592,306.087 18.365 C 306.049 18.280,305.941 18.210,305.847 18.210 C 305.752 18.210,305.180 17.884,304.575 17.486 C 303.970 17.087,303.357 16.762,303.212 16.762 C 303.067 16.762,302.949 16.690,302.949 16.602 C 302.949 16.514,302.530 16.214,302.018 15.934 C 301.505 15.654,301.086 15.361,301.086 15.282 C 301.086 15.203,300.807 15.078,300.466 15.003 C 300.124 14.928,299.845 14.782,299.845 14.680 C 299.845 14.577,299.612 14.435,299.327 14.363 C 299.043 14.292,298.810 14.155,298.810 14.058 C 298.810 13.962,298.484 13.822,298.086 13.747 C 297.688 13.673,297.362 13.533,297.362 13.437 C 297.362 13.341,297.012 13.198,296.586 13.120 C 296.159 13.041,295.753 12.890,295.684 12.784 C 295.615 12.678,295.173 12.540,294.701 12.476 C 294.230 12.413,293.844 12.293,293.844 12.208 C 293.844 12.124,293.382 11.994,292.818 11.919 C 292.253 11.844,291.741 11.701,291.679 11.602 C 291.618 11.502,291.078 11.354,290.481 11.274 C 289.883 11.194,289.288 11.042,289.158 10.937 C 289.027 10.832,287.980 10.688,286.830 10.618 C 285.680 10.548,284.739 10.421,284.739 10.336 C 284.739 10.250,283.505 10.147,281.997 10.106 C 279.210 10.031,278.379 9.801,277.848 8.955 C 277.757 8.810,277.583 8.691,277.462 8.691 C 277.340 8.691,276.894 8.342,276.470 7.915 C 275.699 7.138,275.180 6.740,274.599 6.480 C 274.428 6.404,274.242 6.283,274.185 6.210 C 273.991 5.964,271.545 4.553,271.313 4.553 C 271.185 4.553,271.081 4.467,271.081 4.362 C 271.081 4.257,270.802 4.110,270.460 4.035 C 270.119 3.960,269.840 3.821,269.840 3.725 C 269.840 3.629,269.560 3.489,269.219 3.414 C 268.877 3.339,268.598 3.192,268.598 3.088 C 268.598 2.983,268.482 2.896,268.339 2.896 C 268.197 2.895,267.831 2.764,267.526 2.605 C 267.220 2.446,266.685 2.253,266.336 2.176 C 265.987 2.099,265.701 1.956,265.701 1.859 C 265.701 1.761,265.282 1.618,264.770 1.541 C 264.258 1.464,263.839 1.330,263.839 1.242 C 263.839 1.154,263.396 1.016,262.856 0.935 C 262.315 0.855,261.761 0.697,261.624 0.585 C 261.359 0.367,256.396 0.183,255.096 0.343 M279.421 25.397 C 278.432 25.486,277.988 26.144,278.609 26.598 C 278.794 26.733,278.945 26.929,278.945 27.035 C 278.945 27.251,279.752 28.268,280.762 29.323 C 281.476 30.069,282.256 31.368,282.256 31.813 C 282.256 31.957,282.341 32.074,282.446 32.074 C 282.551 32.074,282.698 32.354,282.773 32.695 C 282.848 33.037,282.995 33.316,283.100 33.316 C 283.205 33.316,283.290 33.452,283.290 33.618 C 283.290 36.962,286.566 34.779,286.926 31.195 C 287.117 29.302,285.517 26.477,283.982 25.992 C 283.736 25.914,283.483 25.715,283.419 25.548 C 283.303 25.246,281.738 25.187,279.421 25.397 M11.174 126.616 C 11.174 126.715,10.525 126.860,9.731 126.938 C 8.937 127.016,8.239 127.157,8.181 127.252 C 8.123 127.346,7.657 127.485,7.147 127.562 C 6.636 127.638,6.170 127.778,6.112 127.873 C 6.053 127.967,5.679 128.105,5.279 128.180 C 4.879 128.255,4.553 128.406,4.553 128.514 C 4.553 128.623,4.412 128.712,4.240 128.712 C 4.068 128.712,3.768 128.898,3.573 129.126 C 3.378 129.353,3.140 129.540,3.043 129.540 C 2.799 129.540,2.276 130.086,2.276 130.342 C 2.276 130.459,2.160 130.628,2.017 130.719 C 1.567 131.007,0.828 132.763,0.828 133.546 C 0.828 133.960,0.735 134.299,0.621 134.299 C 0.484 134.299,0.414 143.542,0.414 161.614 L 0.414 188.929 7.346 188.929 L 14.278 188.929 14.302 163.735 C 14.316 149.878,14.369 138.704,14.421 138.903 C 14.473 139.102,14.592 139.265,14.684 139.265 C 14.777 139.265,14.914 139.591,14.989 139.990 C 15.064 140.388,15.214 140.714,15.322 140.714 C 15.431 140.714,15.523 140.830,15.527 140.973 C 15.531 141.115,15.714 141.604,15.934 142.059 C 16.154 142.514,16.337 143.050,16.341 143.249 C 16.344 143.448,16.433 143.611,16.538 143.611 C 16.643 143.611,16.790 143.890,16.865 144.232 C 16.940 144.573,17.080 144.853,17.175 144.853 C 17.271 144.853,17.412 145.138,17.489 145.487 C 17.566 145.836,17.759 146.372,17.918 146.677 C 18.077 146.982,18.208 147.349,18.209 147.491 C 18.209 147.633,18.303 147.750,18.417 147.750 C 18.531 147.750,18.627 147.866,18.631 148.008 C 18.635 148.151,18.818 148.639,19.038 149.095 C 19.258 149.550,19.441 150.039,19.445 150.181 C 19.448 150.323,19.545 150.440,19.659 150.440 C 19.772 150.440,19.865 150.542,19.865 150.667 C 19.865 150.894,20.172 151.648,20.919 153.256 C 21.136 153.724,21.314 154.213,21.314 154.342 C 21.314 154.472,21.407 154.578,21.521 154.578 C 21.635 154.578,21.728 154.708,21.728 154.868 C 21.728 155.027,22.007 155.720,22.349 156.408 C 22.690 157.096,22.969 157.804,22.969 157.981 C 22.969 158.158,23.055 158.303,23.160 158.303 C 23.265 158.303,23.412 158.583,23.487 158.924 C 23.562 159.265,23.709 159.545,23.814 159.545 C 23.918 159.545,24.005 159.661,24.005 159.803 C 24.006 159.946,24.137 160.312,24.296 160.617 C 24.456 160.923,24.649 161.458,24.725 161.807 C 24.802 162.156,24.943 162.442,25.039 162.442 C 25.135 162.442,25.274 162.721,25.349 163.063 C 25.424 163.404,25.561 163.683,25.653 163.683 C 25.745 163.683,25.882 164.009,25.956 164.408 C 26.031 164.806,26.174 165.132,26.273 165.132 C 26.373 165.132,26.516 165.411,26.591 165.753 C 26.666 166.094,26.801 166.374,26.891 166.374 C 26.981 166.374,27.115 166.746,27.188 167.201 C 27.260 167.656,27.405 168.029,27.508 168.029 C 27.611 168.029,27.757 168.308,27.832 168.650 C 27.907 168.991,28.044 169.271,28.136 169.271 C 28.228 169.271,28.365 169.596,28.440 169.995 C 28.514 170.393,28.664 170.719,28.773 170.719 C 28.882 170.719,28.974 170.835,28.978 170.978 C 28.981 171.120,29.164 171.609,29.384 172.064 C 29.604 172.519,29.787 173.055,29.791 173.254 C 29.795 173.453,29.884 173.616,29.989 173.616 C 30.094 173.616,30.241 173.895,30.316 174.237 C 30.391 174.578,30.530 174.858,30.626 174.858 C 30.722 174.858,30.863 175.143,30.939 175.492 C 31.016 175.842,31.209 176.377,31.368 176.682 C 31.528 176.988,31.659 177.354,31.659 177.496 C 31.660 177.638,31.754 177.755,31.868 177.755 C 31.981 177.755,32.078 177.871,32.082 178.013 C 32.085 178.156,32.268 178.645,32.488 179.100 C 32.708 179.555,32.891 180.044,32.895 180.186 C 32.899 180.329,32.988 180.445,33.093 180.445 C 33.197 180.445,33.345 180.724,33.420 181.066 C 33.495 181.407,33.642 181.686,33.746 181.686 C 33.851 181.686,33.941 181.896,33.946 182.152 C 33.951 182.408,34.183 182.990,34.461 183.445 C 34.739 183.901,35.054 184.469,35.160 184.709 C 35.448 185.361,37.662 187.688,37.994 187.688 C 38.153 187.688,38.282 187.779,38.282 187.891 C 38.282 188.002,38.515 188.152,38.800 188.223 C 39.084 188.295,39.317 188.429,39.317 188.521 C 39.317 188.614,39.620 188.754,39.990 188.833 C 40.360 188.912,40.777 189.069,40.917 189.182 C 41.057 189.295,42.151 189.437,43.348 189.498 C 44.546 189.559,45.525 189.689,45.525 189.787 C 45.525 190.017,46.916 190.018,47.059 189.787 C 47.119 189.690,48.160 189.559,49.374 189.497 C 50.587 189.436,51.637 189.294,51.708 189.183 C 51.779 189.072,52.139 188.915,52.509 188.835 C 52.879 188.755,53.182 188.604,53.182 188.499 C 53.182 188.394,53.373 188.308,53.608 188.308 C 54.194 188.308,56.912 185.616,57.539 184.415 C 57.817 183.882,58.114 183.414,58.200 183.376 C 58.285 183.339,58.358 183.199,58.362 183.066 C 58.366 182.933,58.549 182.452,58.769 181.997 C 58.989 181.542,59.172 181.006,59.176 180.807 C 59.179 180.608,59.268 180.445,59.373 180.445 C 59.478 180.445,59.625 180.166,59.700 179.824 C 59.775 179.483,59.918 179.203,60.017 179.203 C 60.117 179.203,60.260 178.877,60.334 178.479 C 60.409 178.081,60.546 177.755,60.638 177.755 C 60.730 177.755,60.867 177.475,60.942 177.134 C 61.017 176.793,61.155 176.513,61.250 176.513 C 61.345 176.513,61.485 176.141,61.562 175.685 C 61.639 175.230,61.780 174.858,61.874 174.858 C 61.969 174.858,62.108 174.578,62.183 174.237 C 62.258 173.895,62.405 173.616,62.510 173.616 C 62.615 173.616,62.700 173.518,62.700 173.398 C 62.700 173.200,63.006 172.456,63.854 170.584 C 64.016 170.226,64.149 169.830,64.149 169.705 C 64.149 169.580,64.232 169.477,64.333 169.477 C 64.434 169.477,64.578 169.152,64.653 168.753 C 64.727 168.355,64.877 168.029,64.986 168.029 C 65.095 168.029,65.184 167.913,65.185 167.770 C 65.186 167.628,65.317 167.262,65.476 166.957 C 65.635 166.651,65.828 166.116,65.905 165.767 C 65.982 165.418,66.123 165.132,66.218 165.132 C 66.314 165.132,66.454 164.853,66.529 164.511 C 66.604 164.170,66.747 163.890,66.846 163.890 C 66.946 163.890,67.088 163.564,67.163 163.166 C 67.238 162.768,67.374 162.442,67.466 162.442 C 67.559 162.442,67.695 162.162,67.770 161.821 C 67.845 161.480,67.984 161.200,68.079 161.200 C 68.174 161.200,68.314 160.828,68.391 160.372 C 68.468 159.917,68.608 159.545,68.703 159.545 C 68.798 159.545,68.937 159.265,69.012 158.924 C 69.087 158.583,69.234 158.303,69.339 158.303 C 69.444 158.303,69.529 158.217,69.529 158.111 C 69.529 158.005,69.816 157.283,70.167 156.507 C 70.517 155.731,70.936 154.802,71.098 154.444 C 71.259 154.085,71.392 153.689,71.392 153.564 C 71.392 153.439,71.485 153.337,71.599 153.337 C 71.712 153.337,71.809 153.220,71.813 153.078 C 71.816 152.936,71.999 152.447,72.219 151.992 C 72.439 151.536,72.622 151.001,72.626 150.802 C 72.630 150.603,72.719 150.440,72.824 150.440 C 72.928 150.440,73.076 150.160,73.151 149.819 C 73.226 149.477,73.368 149.198,73.468 149.198 C 73.568 149.198,73.710 148.872,73.785 148.474 C 73.860 148.076,74.004 147.750,74.105 147.750 C 74.206 147.750,74.292 147.633,74.296 147.491 C 74.300 147.349,74.483 146.860,74.703 146.405 C 74.922 145.949,75.106 145.414,75.109 145.215 C 75.113 145.016,75.202 144.853,75.307 144.853 C 75.412 144.853,75.559 144.573,75.634 144.232 C 75.709 143.890,75.856 143.611,75.961 143.611 C 76.065 143.611,76.151 143.513,76.151 143.393 C 76.151 143.273,76.344 142.737,76.580 142.203 C 76.816 141.668,77.149 140.905,77.321 140.507 C 78.266 138.314,78.211 136.865,78.216 163.735 L 78.220 188.929 85.153 188.929 L 92.085 188.929 92.085 161.407 C 92.085 145.910,92.006 133.885,91.905 133.885 C 91.805 133.885,91.663 133.420,91.587 132.850 C 91.512 132.281,91.360 131.816,91.250 131.816 C 91.140 131.816,91.050 131.695,91.050 131.548 C 91.050 130.891,88.871 128.712,88.215 128.712 C 88.067 128.712,87.946 128.623,87.946 128.514 C 87.946 128.406,87.619 128.255,87.220 128.180 C 86.820 128.105,86.447 127.970,86.391 127.879 C 86.335 127.788,85.893 127.647,85.410 127.566 C 84.927 127.486,84.481 127.340,84.419 127.243 C 84.358 127.147,83.636 127.005,82.816 126.929 C 81.995 126.852,81.324 126.710,81.324 126.613 C 81.324 126.515,79.881 126.436,78.117 126.436 C 76.353 126.436,74.909 126.518,74.909 126.619 C 74.909 126.719,74.397 126.866,73.771 126.944 C 73.145 127.022,72.633 127.162,72.633 127.255 C 72.633 127.348,72.307 127.485,71.909 127.560 C 71.511 127.635,71.185 127.775,71.185 127.871 C 71.185 127.967,70.952 128.105,70.667 128.176 C 70.383 128.247,70.150 128.397,70.150 128.509 C 70.150 128.621,70.034 128.712,69.891 128.713 C 69.637 128.715,67.482 130.868,66.801 131.802 C 66.215 132.606,64.563 136.114,64.563 136.555 C 64.563 136.680,64.470 136.782,64.356 136.782 C 64.242 136.782,64.149 136.880,64.149 137.000 C 64.149 137.190,63.890 137.835,63.114 139.576 C 62.339 141.317,62.080 141.962,62.080 142.151 C 62.080 142.271,61.987 142.369,61.873 142.369 C 61.759 142.369,61.665 142.486,61.665 142.628 C 61.664 142.770,61.533 143.137,61.374 143.442 C 61.214 143.747,61.021 144.283,60.945 144.632 C 60.868 144.981,60.727 145.266,60.631 145.266 C 60.535 145.266,60.396 145.546,60.321 145.887 C 60.246 146.229,60.109 146.508,60.017 146.508 C 59.925 146.508,59.788 146.834,59.714 147.232 C 59.639 147.631,59.489 147.957,59.380 147.957 C 59.272 147.957,59.182 148.073,59.181 148.215 C 59.181 148.357,59.050 148.724,58.890 149.029 C 58.731 149.334,58.538 149.870,58.461 150.219 C 58.385 150.568,58.244 150.854,58.148 150.854 C 58.052 150.854,57.913 151.133,57.838 151.474 C 57.763 151.816,57.615 152.095,57.511 152.095 C 57.406 152.095,57.317 152.258,57.313 152.457 C 57.309 152.656,57.126 153.192,56.906 153.647 C 56.686 154.102,56.503 154.591,56.500 154.734 C 56.496 154.876,56.410 154.992,56.309 154.992 C 56.207 154.992,56.064 155.318,55.989 155.717 C 55.914 156.115,55.771 156.441,55.672 156.441 C 55.572 156.441,55.429 156.720,55.354 157.062 C 55.279 157.403,55.140 157.682,55.046 157.682 C 54.951 157.682,54.810 158.055,54.734 158.510 C 54.657 158.965,54.516 159.338,54.421 159.338 C 54.327 159.338,54.188 159.617,54.113 159.959 C 54.038 160.300,53.891 160.579,53.786 160.579 C 53.681 160.579,53.595 160.674,53.595 160.791 C 53.595 160.907,53.325 161.582,52.995 162.291 C 52.033 164.356,51.733 165.076,51.733 165.318 C 51.733 165.443,51.650 165.546,51.549 165.546 C 51.447 165.546,51.307 165.773,51.237 166.050 C 51.168 166.328,50.824 167.189,50.474 167.964 C 50.124 168.740,49.705 169.667,49.544 170.026 C 49.382 170.385,49.250 170.780,49.250 170.906 C 49.250 171.031,49.177 171.133,49.087 171.133 C 48.998 171.133,48.698 171.785,48.422 172.581 C 48.146 173.378,47.847 174.030,47.757 174.030 C 47.668 174.030,47.591 174.146,47.587 174.289 C 47.584 174.431,47.400 174.920,47.181 175.375 C 46.961 175.830,46.778 176.319,46.774 176.461 C 46.770 176.604,46.681 176.720,46.576 176.720 C 46.471 176.720,46.324 176.999,46.249 177.341 C 46.115 177.951,45.739 178.211,45.725 177.703 C 45.721 177.561,45.538 177.072,45.318 176.617 C 45.098 176.161,44.915 175.673,44.911 175.530 C 44.907 175.388,44.819 175.272,44.716 175.272 C 44.612 175.272,44.464 174.899,44.387 174.444 C 44.310 173.989,44.162 173.616,44.058 173.616 C 43.955 173.616,43.866 173.500,43.863 173.357 C 43.859 173.215,43.676 172.726,43.456 172.271 C 43.236 171.816,43.053 171.327,43.049 171.185 C 43.045 171.042,42.949 170.926,42.835 170.926 C 42.721 170.926,42.625 170.763,42.621 170.564 C 42.617 170.365,42.434 169.829,42.214 169.374 C 41.994 168.919,41.811 168.430,41.807 168.288 C 41.803 168.145,41.707 168.029,41.593 168.029 C 41.480 168.029,41.386 167.884,41.386 167.707 C 41.386 167.417,41.133 166.775,40.233 164.790 C 40.071 164.432,39.938 164.036,39.938 163.911 C 39.938 163.786,39.845 163.683,39.731 163.683 C 39.617 163.683,39.524 163.539,39.524 163.362 C 39.524 163.185,39.351 162.649,39.140 162.172 C 38.928 161.694,38.626 161.001,38.468 160.631 C 38.311 160.261,38.118 159.959,38.041 159.959 C 37.964 159.959,37.839 159.673,37.762 159.324 C 37.685 158.975,37.492 158.439,37.333 158.134 C 37.174 157.829,37.043 157.462,37.042 157.320 C 37.041 157.178,36.958 157.062,36.857 157.062 C 36.756 157.062,36.612 156.736,36.537 156.337 C 36.462 155.939,36.312 155.613,36.204 155.613 C 36.095 155.613,36.006 155.497,36.005 155.354 C 36.004 155.212,35.873 154.846,35.714 154.541 C 35.555 154.235,35.362 153.700,35.285 153.351 C 35.208 153.002,35.067 152.716,34.972 152.716 C 34.876 152.716,34.735 152.430,34.658 152.081 C 34.581 151.732,34.388 151.197,34.229 150.891 C 34.070 150.586,33.939 150.220,33.938 150.078 C 33.937 149.935,33.854 149.819,33.753 149.819 C 33.652 149.819,33.508 149.493,33.433 149.095 C 33.358 148.696,33.216 148.370,33.116 148.370 C 33.017 148.370,32.872 148.085,32.796 147.736 C 32.719 147.387,32.526 146.851,32.367 146.546 C 32.207 146.240,32.076 145.874,32.076 145.732 C 32.075 145.590,31.992 145.473,31.891 145.473 C 31.789 145.473,31.646 145.147,31.571 144.749 C 31.496 144.351,31.346 144.025,31.237 144.025 C 31.129 144.025,31.039 143.908,31.039 143.766 C 31.038 143.624,30.907 143.258,30.748 142.952 C 30.588 142.647,30.395 142.112,30.319 141.763 C 30.242 141.413,30.104 141.128,30.012 141.128 C 29.920 141.128,29.783 140.802,29.708 140.404 C 29.634 140.005,29.484 139.679,29.375 139.679 C 29.266 139.679,29.177 139.563,29.176 139.421 C 29.175 139.278,29.045 138.912,28.885 138.607 C 28.726 138.301,28.533 137.766,28.456 137.417 C 28.380 137.068,28.239 136.782,28.143 136.782 C 28.047 136.782,27.906 136.497,27.829 136.147 C 27.753 135.798,27.560 135.263,27.400 134.958 C 27.241 134.652,27.110 134.286,27.109 134.144 C 27.109 134.002,27.022 133.885,26.918 133.885 C 26.813 133.885,26.666 133.606,26.591 133.264 C 26.516 132.923,26.391 132.644,26.314 132.644 C 26.237 132.644,26.052 132.367,25.903 132.030 C 25.561 131.257,23.071 128.712,22.658 128.712 C 22.488 128.712,22.349 128.621,22.349 128.509 C 22.349 128.397,22.116 128.247,21.831 128.176 C 21.547 128.105,21.314 127.971,21.314 127.878 C 21.314 127.786,21.035 127.649,20.693 127.574 C 20.352 127.499,20.072 127.356,20.072 127.257 C 20.072 127.158,19.514 127.014,18.831 126.936 C 18.148 126.859,17.589 126.715,17.589 126.616 C 17.589 126.517,16.146 126.436,14.382 126.436 C 12.618 126.436,11.174 126.517,11.174 126.616 M151.681 162.863 L 151.681 179.839 135.883 179.780 C 124.548 179.737,120.002 179.655,119.794 179.487 C 119.634 179.359,119.278 179.185,119.002 179.100 C 118.092 178.820,116.503 177.305,116.503 176.718 C 116.503 176.505,116.410 176.273,116.296 176.203 C 116.161 176.119,116.089 170.855,116.089 161.085 L 116.089 146.094 109.312 146.094 L 102.535 146.094 102.535 162.242 C 102.535 174.354,102.595 178.428,102.777 178.540 C 102.910 178.623,103.083 178.945,103.162 179.257 C 103.240 179.569,103.377 179.824,103.466 179.824 C 103.555 179.824,103.687 180.057,103.758 180.341 C 103.829 180.626,103.979 180.859,104.091 180.859 C 104.202 180.859,104.294 180.963,104.294 181.091 C 104.294 181.302,106.842 183.963,107.044 183.963 C 107.091 183.963,107.768 184.382,108.547 184.894 C 109.327 185.406,110.109 185.828,110.285 185.832 C 110.461 185.835,110.786 185.975,111.007 186.142 C 111.228 186.309,111.616 186.446,111.869 186.446 C 112.122 186.446,112.363 186.545,112.403 186.666 C 112.444 186.787,112.870 186.939,113.352 187.004 C 113.833 187.068,114.227 187.191,114.227 187.277 C 114.227 187.363,114.762 187.499,115.416 187.580 C 116.071 187.661,116.714 187.816,116.846 187.924 C 116.977 188.032,118.211 188.176,119.587 188.246 C 120.964 188.315,122.090 188.450,122.090 188.547 C 122.090 188.643,128.757 188.722,136.906 188.722 L 151.722 188.722 151.648 191.464 C 151.586 193.777,151.510 194.303,151.162 194.827 C 150.615 195.651,149.825 196.379,149.478 196.379 C 149.324 196.379,149.198 196.472,149.198 196.586 C 149.198 196.699,149.082 196.793,148.939 196.794 C 148.797 196.795,148.408 196.937,148.074 197.111 C 147.741 197.285,146.923 197.484,146.257 197.554 C 145.591 197.624,144.997 197.760,144.937 197.857 C 144.877 197.955,135.335 198.034,123.733 198.034 L 102.638 198.034 102.638 202.483 L 102.638 206.932 125.782 206.932 C 148.245 206.932,151.942 206.844,152.633 206.288 C 152.759 206.187,153.294 206.046,153.823 205.973 C 154.352 205.901,154.785 205.769,154.785 205.681 C 154.785 205.592,155.158 205.457,155.613 205.380 C 156.068 205.303,156.441 205.155,156.441 205.052 C 156.441 204.948,156.547 204.863,156.677 204.863 C 156.939 204.863,158.762 204.005,158.924 203.805 C 158.981 203.734,159.214 203.619,159.441 203.548 C 159.669 203.477,160.107 203.185,160.415 202.899 C 160.723 202.614,161.062 202.380,161.167 202.380 C 161.519 202.380,163.890 199.553,163.890 199.132 C 163.890 198.984,163.976 198.862,164.081 198.862 C 164.186 198.862,164.333 198.583,164.408 198.241 C 164.483 197.900,164.627 197.620,164.727 197.620 C 164.828 197.620,164.973 197.153,165.049 196.581 C 165.124 196.009,165.267 195.492,165.366 195.431 C 165.466 195.369,165.546 184.356,165.546 170.603 L 165.546 145.887 158.614 145.887 L 151.681 145.887 151.681 162.863 " stroke="none" fill="#04638c" fill-rule="evenodd"></path><path id="path1" d="M190.500 127.854 C 190.440 127.951,189.728 128.085,188.918 128.153 C 188.108 128.221,187.337 128.364,187.204 128.471 C 187.072 128.578,186.568 128.730,186.084 128.810 C 185.600 128.890,185.204 129.028,185.204 129.117 C 185.204 129.207,184.832 129.339,184.377 129.412 C 183.921 129.485,183.549 129.636,183.549 129.749 C 183.549 129.861,183.412 129.953,183.245 129.953 C 182.879 129.953,181.198 130.798,181.100 131.031 C 181.062 131.121,180.896 131.195,180.732 131.195 C 180.567 131.195,180.378 131.335,180.313 131.505 C 180.247 131.676,180.068 131.816,179.914 131.816 C 179.627 131.816,177.341 134.041,177.341 134.321 C 177.341 134.406,177.225 134.601,177.082 134.753 C 176.940 134.905,176.650 135.401,176.439 135.854 C 176.227 136.308,175.969 136.844,175.865 137.045 C 175.761 137.247,175.624 137.852,175.561 138.390 C 175.498 138.929,175.357 139.555,175.248 139.783 C 174.964 140.378,175.127 150.942,175.437 152.036 C 175.733 153.079,176.409 154.334,176.949 154.845 C 177.165 155.049,177.341 155.302,177.341 155.407 C 177.341 155.605,178.721 157.062,178.909 157.062 C 178.967 157.062,179.242 157.272,179.519 157.529 C 179.797 157.787,180.468 158.229,181.010 158.512 C 181.553 158.796,182.044 159.090,182.102 159.166 C 182.160 159.243,182.463 159.369,182.775 159.447 C 183.087 159.526,183.342 159.668,183.342 159.765 C 183.342 159.861,183.669 160.001,184.069 160.076 C 184.468 160.151,184.841 160.287,184.897 160.378 C 184.954 160.469,185.371 160.606,185.825 160.683 C 186.279 160.760,186.698 160.899,186.755 160.992 C 186.813 161.085,187.349 161.227,187.946 161.307 C 188.544 161.388,189.128 161.530,189.246 161.625 C 189.363 161.719,190.410 161.861,191.574 161.941 C 192.737 162.022,193.689 162.159,193.689 162.248 C 193.689 162.336,198.377 162.439,204.107 162.477 C 211.597 162.526,214.607 162.613,214.816 162.785 C 214.975 162.916,215.548 163.090,216.089 163.170 C 216.630 163.251,217.072 163.389,217.072 163.478 C 217.072 163.566,217.314 163.699,217.609 163.773 C 218.219 163.927,219.236 164.958,219.611 165.804 C 219.750 166.117,219.933 166.374,220.019 166.374 C 220.358 166.374,220.197 174.958,219.845 175.664 C 219.396 176.565,217.588 178.342,216.961 178.500 C 216.680 178.570,216.451 178.703,216.451 178.795 C 216.451 178.888,215.845 179.028,215.103 179.108 C 214.362 179.187,213.704 179.334,213.642 179.435 C 213.579 179.538,205.180 179.617,194.297 179.617 L 175.065 179.617 175.065 184.282 L 175.065 188.947 196.761 188.886 C 212.459 188.842,218.537 188.761,218.747 188.593 C 218.907 188.464,219.572 188.295,220.224 188.216 C 220.877 188.137,221.464 187.986,221.530 187.880 C 221.595 187.774,221.853 187.687,222.102 187.686 C 222.352 187.686,222.822 187.546,223.148 187.376 C 223.474 187.206,223.869 187.067,224.026 187.067 C 224.485 187.067,228.317 185.022,228.693 184.577 C 228.882 184.353,229.128 184.170,229.240 184.170 C 229.902 184.170,233.213 180.179,233.213 179.380 C 233.213 179.188,233.329 178.992,233.471 178.945 C 233.957 178.783,233.832 163.587,233.336 162.545 C 232.648 161.101,230.835 158.924,230.319 158.924 C 230.196 158.924,230.043 158.788,229.980 158.621 C 229.916 158.455,229.667 158.257,229.427 158.180 C 229.186 158.104,228.872 157.938,228.729 157.810 C 228.092 157.246,227.840 157.062,227.709 157.062 C 227.631 157.062,227.185 156.884,226.717 156.667 C 225.029 155.883,224.350 155.613,224.066 155.613 C 223.907 155.613,223.688 155.536,223.580 155.441 C 223.472 155.347,222.778 155.108,222.038 154.910 C 221.298 154.713,220.395 154.460,220.030 154.348 C 218.580 153.903,214.426 153.700,204.139 153.573 C 194.430 153.453,193.317 153.405,192.757 153.079 C 192.416 152.881,192.030 152.718,191.900 152.717 C 191.515 152.715,189.826 151.002,189.653 150.440 C 189.566 150.155,189.390 149.856,189.263 149.775 C 188.915 149.552,188.942 140.055,189.291 139.938 C 189.434 139.891,189.550 139.717,189.550 139.552 C 189.550 139.173,190.710 138.024,191.092 138.024 C 191.249 138.024,191.410 137.926,191.450 137.807 C 191.490 137.688,192.056 137.535,192.709 137.468 C 193.362 137.400,193.895 137.265,193.895 137.167 C 193.895 137.069,202.992 136.989,214.175 136.989 L 234.454 136.989 234.454 132.333 L 234.454 127.677 212.532 127.677 C 200.474 127.677,190.560 127.757,190.500 127.854 M258.994 127.854 C 258.934 127.951,258.119 128.094,257.183 128.172 C 256.247 128.251,255.382 128.392,255.262 128.487 C 255.142 128.582,254.601 128.724,254.060 128.802 C 253.519 128.880,252.820 129.078,252.508 129.241 C 252.196 129.404,251.730 129.538,251.474 129.538 C 251.218 129.539,251.009 129.622,251.009 129.723 C 251.009 129.825,250.683 129.969,250.285 130.043 C 249.886 130.118,249.560 130.261,249.560 130.360 C 249.560 130.460,249.281 130.603,248.939 130.678 C 248.598 130.753,248.319 130.898,248.319 131.001 C 248.319 131.103,248.093 131.244,247.816 131.313 C 247.540 131.383,247.264 131.571,247.202 131.731 C 247.140 131.891,246.983 132.023,246.852 132.023 C 246.388 132.023,243.352 135.380,243.352 135.893 C 243.352 136.041,243.267 136.161,243.162 136.161 C 243.057 136.161,242.907 136.464,242.828 136.834 C 242.748 137.204,242.593 137.619,242.482 137.757 C 242.371 137.895,242.229 138.571,242.167 139.258 C 242.104 139.945,241.973 140.507,241.875 140.507 C 241.643 140.507,241.641 175.834,241.874 175.977 C 241.971 176.037,242.111 176.662,242.184 177.365 C 242.258 178.068,242.400 178.746,242.501 178.872 C 242.601 178.997,242.748 179.402,242.828 179.772 C 242.907 180.142,243.047 180.445,243.139 180.445 C 243.232 180.445,243.366 180.678,243.437 180.962 C 243.509 181.247,243.658 181.480,243.770 181.480 C 243.882 181.480,243.973 181.587,243.973 181.717 C 243.973 181.848,244.276 182.256,244.646 182.623 C 245.016 182.991,245.478 183.466,245.673 183.679 C 246.721 184.821,248.291 185.876,250.078 186.639 C 250.647 186.882,251.255 187.159,251.429 187.255 C 251.604 187.350,252.070 187.497,252.464 187.582 C 252.859 187.666,253.275 187.807,253.389 187.895 C 253.502 187.983,254.014 188.117,254.527 188.193 C 255.039 188.269,255.644 188.418,255.872 188.523 C 257.173 189.123,277.508 189.710,278.194 189.167 C 278.617 188.832,286.745 188.651,286.945 188.972 C 287.040 189.125,287.352 189.398,287.638 189.579 C 287.924 189.760,288.825 190.549,289.640 191.333 C 291.553 193.172,293.986 195.383,294.772 195.999 C 295.112 196.265,295.730 196.831,296.145 197.258 L 296.899 198.034 304.787 198.034 C 312.537 198.034,312.675 198.027,312.675 197.620 C 312.675 197.393,312.595 197.206,312.497 197.206 C 312.400 197.206,311.620 196.531,310.764 195.706 C 309.015 194.020,306.365 191.614,305.548 190.972 C 305.251 190.738,304.466 190.020,303.804 189.376 C 303.142 188.732,302.120 187.798,301.533 187.301 C 300.309 186.264,300.210 185.914,301.086 185.722 C 301.428 185.647,301.707 185.522,301.707 185.445 C 301.707 185.368,301.986 185.182,302.326 185.032 C 303.304 184.599,305.689 182.105,306.221 180.959 C 306.484 180.392,306.788 179.763,306.897 179.563 C 307.006 179.362,307.153 178.637,307.225 177.953 C 307.296 177.268,307.434 176.658,307.531 176.598 C 307.763 176.455,307.762 140.300,307.530 140.300 C 307.432 140.300,307.299 139.781,307.233 139.148 C 307.168 138.514,307.026 137.885,306.918 137.751 C 306.810 137.616,306.657 137.204,306.578 136.834 C 306.498 136.464,306.358 136.161,306.266 136.161 C 306.173 136.161,306.039 135.929,305.968 135.644 C 305.896 135.360,305.747 135.127,305.635 135.127 C 305.523 135.127,305.432 135.022,305.432 134.894 C 305.432 134.551,302.976 132.191,302.018 131.613 C 301.562 131.338,301.142 131.046,301.084 130.964 C 301.026 130.881,300.724 130.750,300.412 130.672 C 300.100 130.593,299.845 130.447,299.845 130.347 C 299.845 130.247,299.472 130.106,299.017 130.033 C 298.562 129.960,298.189 129.824,298.189 129.729 C 298.189 129.635,297.862 129.497,297.463 129.422 C 297.063 129.347,296.689 129.210,296.632 129.117 C 296.574 129.024,296.015 128.884,295.390 128.806 C 294.764 128.727,294.206 128.590,294.151 128.499 C 294.095 128.409,293.257 128.269,292.288 128.188 C 291.319 128.108,290.476 127.960,290.414 127.859 C 290.269 127.624,259.140 127.619,258.994 127.854 M315.158 150.738 C 315.158 163.421,315.238 173.848,315.336 173.909 C 315.434 173.969,315.563 174.879,315.623 175.931 C 315.687 177.059,315.826 177.874,315.962 177.919 C 316.089 177.962,316.192 178.188,316.192 178.422 C 316.192 178.843,316.931 180.521,317.331 181.007 C 318.136 181.988,319.028 183.011,319.251 183.209 C 319.397 183.339,319.786 183.702,320.115 184.014 C 320.444 184.327,320.813 184.584,320.936 184.584 C 321.059 184.584,321.159 184.668,321.159 184.771 C 321.159 185.001,324.081 186.446,324.547 186.446 C 324.732 186.446,324.884 186.529,324.884 186.630 C 324.884 186.731,325.233 186.879,325.660 186.959 C 326.086 187.039,326.542 187.192,326.672 187.299 C 326.803 187.407,327.385 187.551,327.966 187.620 C 328.547 187.689,329.022 187.817,329.022 187.906 C 329.022 187.994,329.744 188.132,330.626 188.212 C 331.508 188.292,332.360 188.463,332.520 188.592 C 332.730 188.761,338.509 188.843,353.472 188.890 L 374.133 188.954 374.133 184.286 L 374.133 179.617 355.096 179.617 C 344.625 179.617,336.058 179.537,336.058 179.440 C 336.058 179.342,335.387 179.200,334.567 179.124 C 333.746 179.048,333.024 178.902,332.961 178.800 C 332.898 178.699,332.591 178.551,332.279 178.473 C 331.968 178.395,331.712 178.248,331.712 178.146 C 331.712 178.045,331.596 177.961,331.454 177.961 C 331.094 177.959,329.850 176.761,329.850 176.416 C 329.850 176.261,329.755 176.102,329.639 176.063 C 329.012 175.854,328.943 173.560,328.878 150.698 L 328.812 127.677 321.985 127.677 L 315.158 127.677 315.158 150.738 M289.084 137.401 C 289.824 137.552,290.476 137.742,290.533 137.822 C 290.590 137.902,290.862 138.039,291.138 138.125 C 291.706 138.302,291.769 138.348,292.929 139.418 C 293.753 140.178,294.465 141.387,294.465 142.026 C 294.465 142.202,294.558 142.403,294.671 142.473 C 294.932 142.634,294.959 173.956,294.699 174.117 C 294.600 174.178,294.459 174.602,294.386 175.060 C 294.313 175.518,294.161 175.892,294.048 175.892 C 293.936 175.892,293.844 176.017,293.844 176.169 C 293.844 176.420,291.944 178.376,291.700 178.376 C 291.643 178.376,291.035 177.840,290.350 177.186 C 288.803 175.708,286.757 173.852,285.685 172.953 C 285.238 172.578,284.310 171.736,283.623 171.081 L 282.374 169.891 274.451 169.891 C 268.752 169.891,266.529 169.956,266.529 170.123 C 266.529 170.372,267.203 171.047,269.710 173.306 C 270.594 174.102,272.076 175.476,273.003 176.358 C 273.931 177.240,274.762 177.962,274.851 177.962 C 274.940 177.962,275.399 178.357,275.869 178.841 L 276.725 179.721 276.024 179.792 C 274.110 179.986,262.813 179.709,262.566 179.462 C 262.424 179.320,262.127 179.203,261.906 179.203 C 261.496 179.203,259.787 178.439,259.361 178.065 C 259.231 177.951,258.882 177.682,258.585 177.467 C 258.288 177.252,258.044 176.949,258.044 176.795 C 258.044 176.640,257.953 176.513,257.842 176.513 C 257.730 176.513,257.580 176.280,257.509 175.996 C 257.437 175.711,257.302 175.479,257.207 175.479 C 257.113 175.479,256.977 175.036,256.905 174.496 C 256.833 173.955,256.686 173.326,256.577 173.099 C 256.455 172.844,256.405 167.000,256.446 157.889 C 256.514 142.792,256.578 141.534,257.321 140.713 C 257.491 140.525,257.631 140.309,257.631 140.234 C 257.631 140.024,258.322 139.265,258.513 139.265 C 258.673 139.265,258.921 139.087,259.579 138.500 C 259.732 138.363,260.124 138.186,260.451 138.106 C 260.778 138.026,261.100 137.876,261.168 137.773 C 261.235 137.671,261.820 137.532,262.467 137.465 C 263.114 137.398,263.694 137.263,263.755 137.163 C 263.945 136.857,287.509 137.078,289.084 137.401 M387.894 169.779 C 387.212 169.911,386.391 170.131,386.070 170.266 C 385.750 170.401,385.354 170.512,385.191 170.512 C 385.028 170.512,384.894 170.599,384.894 170.705 C 384.894 170.811,384.692 170.962,384.444 171.041 C 383.936 171.202,383.883 171.241,382.669 172.332 C 382.186 172.767,381.790 173.234,381.790 173.370 C 381.790 173.505,381.699 173.616,381.587 173.616 C 381.475 173.616,381.326 173.849,381.254 174.133 C 381.183 174.418,381.051 174.651,380.962 174.651 C 380.873 174.651,380.736 174.906,380.658 175.218 C 380.580 175.530,380.418 175.845,380.299 175.919 C 380.180 175.992,380.035 176.715,379.977 177.524 C 379.919 178.334,379.791 178.996,379.693 178.996 C 379.594 178.996,379.514 179.322,379.514 179.721 C 379.514 180.119,379.593 180.445,379.691 180.445 C 379.788 180.445,379.922 181.029,379.989 181.743 C 380.056 182.457,380.255 183.318,380.431 183.657 C 380.608 183.996,380.753 184.390,380.754 184.532 C 380.755 184.674,380.842 184.790,380.948 184.790 C 381.054 184.790,381.207 185.000,381.287 185.256 C 381.484 185.888,383.762 188.069,384.389 188.226 C 384.667 188.296,384.894 188.426,384.894 188.515 C 384.894 188.604,385.149 188.741,385.461 188.820 C 385.773 188.898,386.095 189.071,386.178 189.204 C 386.445 189.638,392.271 189.527,393.275 189.069 C 394.793 188.377,395.447 188.009,395.447 187.847 C 395.447 187.759,395.576 187.688,395.733 187.688 C 395.890 187.688,396.450 187.199,396.978 186.601 C 398.279 185.128,398.273 185.136,398.451 184.568 C 398.537 184.292,398.695 184.010,398.802 183.941 C 398.909 183.872,399.048 183.430,399.112 182.958 C 399.175 182.486,399.308 182.100,399.406 182.100 C 399.505 182.100,399.586 180.983,399.586 179.617 C 399.586 178.251,399.504 177.134,399.403 177.134 C 399.302 177.134,399.156 176.715,399.080 176.203 C 399.003 175.691,398.863 175.272,398.768 175.272 C 398.674 175.272,398.542 175.055,398.475 174.790 C 398.409 174.525,398.119 174.055,397.832 173.745 C 397.545 173.435,397.310 173.140,397.310 173.091 C 397.310 172.915,396.595 172.168,396.426 172.168 C 396.332 172.168,396.046 171.941,395.789 171.665 C 395.533 171.388,395.072 171.098,394.764 171.021 C 394.457 170.944,394.206 170.806,394.206 170.713 C 394.206 170.621,393.906 170.479,393.540 170.399 C 393.174 170.318,392.732 170.178,392.557 170.087 C 392.175 169.887,389.924 169.465,389.464 169.507 C 389.283 169.524,388.577 169.646,387.894 169.779 M391.674 172.565 C 391.871 172.669,392.428 172.947,392.911 173.182 C 393.933 173.678,395.755 175.435,395.974 176.134 C 396.056 176.400,396.228 176.683,396.355 176.764 C 396.965 177.154,396.634 181.910,395.908 183.201 C 394.792 185.184,394.877 185.189,393.495 183.060 C 392.820 182.020,392.130 181.032,391.963 180.863 C 391.694 180.594,391.732 180.542,392.281 180.430 C 395.824 179.705,395.256 174.299,391.613 174.067 C 390.876 174.020,390.274 173.903,390.274 173.806 C 390.274 173.709,389.227 173.603,387.946 173.571 L 385.618 173.513 386.446 173.141 C 386.901 172.936,387.413 172.686,387.584 172.584 C 387.997 172.338,391.217 172.323,391.674 172.565 M386.708 185.577 L 387.894 185.515 387.953 183.187 L 388.011 180.859 388.608 180.859 C 389.177 180.859,390.481 182.451,390.481 183.145 C 390.481 183.260,390.612 183.405,390.773 183.467 C 390.933 183.528,391.117 183.782,391.181 184.029 C 391.395 184.853,392.237 185.618,392.930 185.618 C 393.725 185.618,393.629 186.131,392.796 186.340 C 392.493 186.416,392.180 186.583,392.101 186.711 C 391.899 187.037,387.620 187.046,387.419 186.721 C 387.337 186.588,387.014 186.415,386.703 186.336 C 386.391 186.258,386.136 186.111,386.136 186.010 C 386.136 185.908,385.999 185.825,385.833 185.825 C 385.473 185.825,383.912 184.249,383.743 183.715 C 383.678 183.510,383.545 183.342,383.448 183.342 C 383.351 183.342,383.206 183.039,383.125 182.669 C 383.045 182.300,382.880 181.933,382.758 181.856 C 382.445 181.657,382.479 177.491,382.794 177.386 C 382.924 177.342,383.032 177.149,383.032 176.957 C 383.032 176.514,384.331 174.527,384.946 174.029 L 385.411 173.652 385.466 179.646 L 385.521 185.639 386.708 185.577 M391.277 176.334 C 392.831 177.305,391.541 178.583,389.007 178.583 L 387.998 178.583 387.998 177.207 L 387.998 175.832 389.427 175.952 C 390.214 176.018,391.046 176.190,391.277 176.334 " stroke="none" fill="#e48c04" fill-rule="evenodd"></path></g></svg>