<?xml version="1.0" encoding="UTF-8"?>
<!DOCTYPE svg PUBLIC "-//W3C//DTD SVG 1.1//EN" "http://www.w3.org/Graphics/SVG/1.1/DTD/svg11.dtd">
<svg xmlns="http://www.w3.org/2000/svg" version="1.1" width="5000px" height="2700px" style="shape-rendering:geometricPrecision; text-rendering:geometricPrecision; image-rendering:optimizeQuality; fill-rule:evenodd; clip-rule:evenodd" xmlns:xlink="http://www.w3.org/1999/xlink">
<g><path style="opacity:0.996" fill="#a6aacf" d="M 2448.5,69.5 C 2468.83,69.5 2489.17,69.5 2509.5,69.5C 2524.54,100.585 2538.21,132.251 2550.5,164.5C 2530.83,164.5 2511.17,164.5 2491.5,164.5C 2478.52,132.25 2464.19,100.584 2448.5,69.5 Z"/></g>
<g><path style="opacity:0.997" fill="#a1a5cb" d="M 2509.5,69.5 C 2540.51,69.4119 2571.51,69.7452 2602.5,70.5C 2602.39,71.1174 2602.06,71.6174 2601.5,72C 2615.36,102.892 2627.7,134.392 2638.5,166.5C 2609.16,165.929 2579.83,165.262 2550.5,164.5C 2538.21,132.251 2524.54,100.585 2509.5,69.5 Z"/></g>
<g><path style="opacity:0.998" fill="#adb1d4" d="M 2448.5,69.5 C 2464.19,100.584 2478.52,132.25 2491.5,164.5C 2202.01,164.771 1915.34,192.938 1631.5,249C 1424.89,290.204 1223.89,350.204 1028.5,429C 886.569,486.785 752.236,557.785 625.5,642C 600.396,659.277 575.729,677.111 551.5,695.5C 544.951,660.879 541.617,625.879 541.5,590.5C 661.514,506.123 789.18,433.956 924.5,374C 1102.56,295.867 1286.23,233.867 1475.5,188C 1743.8,123.672 2015.8,85.6721 2291.5,74C 2343.81,71.6825 2396.14,70.1825 2448.5,69.5 Z"/></g>
<g><path style="opacity:0.997" fill="#9b9fc6" d="M 2602.5,70.5 C 2632.85,71.0763 2663.19,72.0763 2693.5,73.5C 2693.39,74.1174 2693.06,74.6174 2692.5,75C 2705.08,105.665 2716.41,136.831 2726.5,168.5C 2724.6,169.466 2722.6,169.799 2720.5,169.5C 2693.09,168.969 2665.76,167.969 2638.5,166.5C 2627.7,134.392 2615.36,102.892 2601.5,72C 2602.06,71.6174 2602.39,71.1174 2602.5,70.5 Z"/></g>
<g><path style="opacity:0.996" fill="#969ac3" d="M 2693.5,73.5 C 2708.18,73.8817 2722.85,74.5484 2737.5,75.5C 2749.89,107.334 2760.89,139.668 2770.5,172.5C 2753.66,171.843 2736.99,170.843 2720.5,169.5C 2722.6,169.799 2724.6,169.466 2726.5,168.5C 2716.41,136.831 2705.08,105.665 2692.5,75C 2693.06,74.6174 2693.39,74.1174 2693.5,73.5 Z"/></g>
<g><path style="opacity:0.998" fill="#9296c0" d="M 2737.5,75.5 C 2767.51,77.0006 2797.51,78.6673 2827.5,80.5C 2839.11,112.344 2849.11,144.677 2857.5,177.5C 2854.17,177.5 2850.83,177.5 2847.5,177.5C 2821.83,175.791 2796.16,174.125 2770.5,172.5C 2760.89,139.668 2749.89,107.334 2737.5,75.5 Z"/></g>
<g><path style="opacity:0.997" fill="#8c90bc" d="M 2827.5,80.5 C 2857.58,82.7494 2887.58,85.416 2917.5,88.5C 2927.84,120.193 2937.17,152.193 2945.5,184.5C 2945.04,185.298 2944.38,185.631 2943.5,185.5C 2911.32,183.263 2879.32,180.596 2847.5,177.5C 2850.83,177.5 2854.17,177.5 2857.5,177.5C 2849.11,144.677 2839.11,112.344 2827.5,80.5 Z"/></g>
<g><path style="opacity:0.996" fill="#878bb8" d="M 2917.5,88.5 C 2938.05,89.791 2958.38,91.791 2978.5,94.5C 2977.9,94.7352 2977.57,95.2352 2977.5,96C 2987.49,127.48 2996.16,159.313 3003.5,191.5C 3002.5,191.5 3001.5,191.5 3000.5,191.5C 2981.3,189.969 2962.3,187.969 2943.5,185.5C 2944.38,185.631 2945.04,185.298 2945.5,184.5C 2937.17,152.193 2927.84,120.193 2917.5,88.5 Z"/></g>
<g><path style="opacity:0.996" fill="#8286b4" d="M 2978.5,94.5 C 3007.97,97.0334 3037.3,100.367 3066.5,104.5C 3075.76,136.857 3083.76,169.524 3090.5,202.5C 3060.28,199.473 3030.28,195.806 3000.5,191.5C 3001.5,191.5 3002.5,191.5 3003.5,191.5C 2996.16,159.313 2987.49,127.48 2977.5,96C 2977.57,95.2352 2977.9,94.7352 2978.5,94.5 Z"/></g>
<g><path style="opacity:0.996" fill="#7d82b1" d="M 3066.5,104.5 C 3081.71,105.942 3096.71,107.942 3111.5,110.5C 3119.8,143.02 3127.46,175.686 3134.5,208.5C 3119.81,206.592 3105.14,204.592 3090.5,202.5C 3083.76,169.524 3075.76,136.857 3066.5,104.5 Z"/></g>
<g><path style="opacity:0.997" fill="#797dad" d="M 3111.5,110.5 C 3141.1,113.919 3170.43,118.252 3199.5,123.5C 3207.93,156.228 3215.26,189.228 3221.5,222.5C 3208.8,219.641 3196.14,217.641 3183.5,216.5C 3167.04,213.818 3150.71,211.152 3134.5,208.5C 3127.46,175.686 3119.8,143.02 3111.5,110.5 Z"/></g>
<g><path style="opacity:0.997" fill="#7377a9" d="M 3199.5,123.5 C 3229.45,127.547 3259.12,132.547 3288.5,138.5C 3295.99,171.278 3302.32,204.278 3307.5,237.5C 3278.94,231.988 3250.27,226.988 3221.5,222.5C 3215.26,189.228 3207.93,156.228 3199.5,123.5 Z"/></g>
<g><path style="opacity:0.997" fill="#6d71a5" d="M 3288.5,138.5 C 3318.45,143.292 3348.12,148.958 3377.5,155.5C 3383.49,188.161 3389.16,221.161 3394.5,254.5C 3365.53,248.705 3336.53,243.038 3307.5,237.5C 3302.32,204.278 3295.99,171.278 3288.5,138.5 Z"/></g>
<g><path style="opacity:1" fill="#777bb3" d="M 2491.5,164.5 C 2511.17,164.5 2530.83,164.5 2550.5,164.5C 2579.83,165.262 2609.16,165.929 2638.5,166.5C 2665.76,167.969 2693.09,168.969 2720.5,169.5C 2736.99,170.843 2753.66,171.843 2770.5,172.5C 2796.16,174.125 2821.83,175.791 2847.5,177.5C 2879.32,180.596 2911.32,183.263 2943.5,185.5C 2962.3,187.969 2981.3,189.969 3000.5,191.5C 3030.28,195.806 3060.28,199.473 3090.5,202.5C 3105.14,204.592 3119.81,206.592 3134.5,208.5C 3150.71,211.152 3167.04,213.818 3183.5,216.5C 3196.14,217.641 3208.8,219.641 3221.5,222.5C 3250.27,226.988 3278.94,231.988 3307.5,237.5C 3336.53,243.038 3365.53,248.705 3394.5,254.5C 3428.32,261.635 3461.99,269.302 3495.5,277.5C 3524.19,284.505 3552.85,291.505 3581.5,298.5C 3600.29,304.203 3619.29,309.536 3638.5,314.5C 3666.74,322.979 3695.07,331.312 3723.5,339.5C 3751.73,348.797 3780.06,358.131 3808.5,367.5C 3822.75,372.696 3837.09,377.696 3851.5,382.5C 3995.1,433.799 4133.1,497.299 4265.5,573C 4371.03,633.852 4468.7,705.519 4558.5,788C 4623.94,848.908 4680.44,916.741 4728,991.5C 4773.8,1064.45 4805.8,1143.11 4824,1227.5C 4849,1363.49 4832.33,1494.16 4774,1619.5C 4732.1,1706.36 4678.1,1784.7 4612,1854.5C 4526.1,1943.79 4430.94,2020.96 4326.5,2086C 4199.15,2165.34 4065.15,2232.01 3924.5,2286C 3692.59,2374.39 3453.92,2437.72 3208.5,2476C 3045.51,2502.13 2881.51,2518.97 2716.5,2526.5C 2688.86,2528.05 2661.19,2529.05 2633.5,2529.5C 2589.51,2530.85 2545.51,2531.52 2501.5,2531.5C 2479.5,2531.5 2457.5,2531.5 2435.5,2531.5C 2390.48,2530.69 2345.48,2529.36 2300.5,2527.5C 2277.87,2525.92 2255.2,2524.92 2232.5,2524.5C 2180.97,2520.75 2129.3,2516.75 2077.5,2512.5C 2051.18,2509.84 2024.85,2507.17 1998.5,2504.5C 1938.5,2497.52 1878.5,2489.52 1818.5,2480.5C 1768.37,2472.48 1718.37,2463.82 1668.5,2454.5C 1586.27,2438.65 1504.6,2419.98 1423.5,2398.5C 1369.64,2384.28 1315.97,2368.95 1262.5,2352.5C 1121.46,2307.77 984.795,2252.61 852.5,2187C 808.139,2164.16 764.472,2140.32 721.5,2115.5C 625.505,2058.48 535.838,1992.65 452.5,1918C 426.91,1893.91 402.243,1869.08 378.5,1843.5C 307.461,1766.81 251.461,1680.14 210.5,1583.5C 180.959,1509.57 165.626,1432.9 164.5,1353.5C 164.319,1332.77 165.319,1312.1 167.5,1291.5C 171.355,1246.83 180.021,1203.17 193.5,1160.5C 205.713,1123.75 220.38,1088.08 237.5,1053.5C 254.028,1021.45 272.361,990.446 292.5,960.5C 314.561,928.424 338.561,897.758 364.5,868.5C 386.467,844.531 408.801,820.865 431.5,797.5C 454.895,776.1 478.562,755.1 502.5,734.5C 518.69,721.249 535.024,708.249 551.5,695.5C 575.729,677.111 600.396,659.277 625.5,642C 752.236,557.785 886.569,486.785 1028.5,429C 1223.89,350.204 1424.89,290.204 1631.5,249C 1915.34,192.938 2202.01,164.771 2491.5,164.5 Z"/></g>
<g><path style="opacity:0.997" fill="#666a9f" d="M 3377.5,155.5 C 3411.72,161.943 3445.72,169.276 3479.5,177.5C 3485.27,210.801 3490.61,244.134 3495.5,277.5C 3461.99,269.302 3428.32,261.635 3394.5,254.5C 3389.16,221.161 3383.49,188.161 3377.5,155.5 Z"/></g>
<g><path style="opacity:0.998" fill="#60649b" d="M 3479.5,177.5 C 3508.91,184.185 3538.24,191.185 3567.5,198.5C 3572.27,231.857 3576.93,265.19 3581.5,298.5C 3552.85,291.505 3524.19,284.505 3495.5,277.5C 3490.61,244.134 3485.27,210.801 3479.5,177.5 Z"/></g>
<g><path style="opacity:0.998" fill="#5b5f97" d="M 3567.5,198.5 C 3586.7,203.458 3605.7,208.792 3624.5,214.5C 3630.31,247.632 3634.98,280.965 3638.5,314.5C 3619.29,309.536 3600.29,304.203 3581.5,298.5C 3576.93,265.19 3572.27,231.857 3567.5,198.5 Z"/></g>
<g><path style="opacity:0.997" fill="#565a93" d="M 3624.5,214.5 C 3654.08,222.026 3683.41,230.359 3712.5,239.5C 3717.04,272.735 3720.71,306.069 3723.5,339.5C 3695.07,331.312 3666.74,322.979 3638.5,314.5C 3634.98,280.965 3630.31,247.632 3624.5,214.5 Z"/></g>
<g><path style="opacity:0.998" fill="#50548f" d="M 3712.5,239.5 C 3741.84,248.06 3770.84,257.393 3799.5,267.5C 3803.42,300.75 3806.42,334.083 3808.5,367.5C 3780.06,358.131 3751.73,348.797 3723.5,339.5C 3720.71,306.069 3717.04,272.735 3712.5,239.5 Z"/></g>
<g><path style="opacity:0.996" fill="#4c508c" d="M 3799.5,267.5 C 3814.53,271.731 3829.19,276.731 3843.5,282.5C 3842.88,282.917 3842.54,283.584 3842.5,284.5C 3846.38,317.084 3849.38,349.751 3851.5,382.5C 3837.09,377.696 3822.75,372.696 3808.5,367.5C 3806.42,334.083 3803.42,300.75 3799.5,267.5 Z"/></g>
<g><path style="opacity:0.997" fill="#484c89" d="M 3843.5,282.5 C 4020.36,342.711 4188.69,420.877 4348.5,517C 4449.17,578.529 4542.83,649.529 4629.5,730C 4700.11,796.887 4761.27,871.054 4813,952.5C 4860.48,1029.15 4894.48,1111.48 4915,1199.5C 4947.32,1355.58 4929.99,1505.91 4863,1650.5C 4826.66,1727.24 4781.33,1797.91 4727,1862.5C 4645,1957.53 4552.83,2040.7 4450.5,2112C 4325.46,2198.72 4192.46,2272.39 4051.5,2333C 3832.9,2426.2 3606.9,2495.86 3373.5,2542C 3094.25,2597.56 2812.25,2625.73 2527.5,2626.5C 2592.46,2596.52 2655.46,2563.19 2716.5,2526.5C 2881.51,2518.97 3045.51,2502.13 3208.5,2476C 3453.92,2437.72 3692.59,2374.39 3924.5,2286C 4065.15,2232.01 4199.15,2165.34 4326.5,2086C 4430.94,2020.96 4526.1,1943.79 4612,1854.5C 4678.1,1784.7 4732.1,1706.36 4774,1619.5C 4832.33,1494.16 4849,1363.49 4824,1227.5C 4805.8,1143.11 4773.8,1064.45 4728,991.5C 4680.44,916.741 4623.94,848.908 4558.5,788C 4468.7,705.519 4371.03,633.852 4265.5,573C 4133.1,497.299 3995.1,433.799 3851.5,382.5C 3849.38,349.751 3846.38,317.084 3842.5,284.5C 3842.54,283.584 3842.88,282.917 3843.5,282.5 Z"/></g>
<g><path style="opacity:1" fill="#fefefe" d="M 2548.5,727.5 C 2547.6,728.209 2547.26,729.209 2547.5,730.5C 2615.5,730.5 2683.5,730.5 2751.5,730.5C 2822.81,729.997 2892.81,739.163 2961.5,758C 3005.08,770.12 3044.41,790.12 3079.5,818C 3124.29,857.212 3151.79,906.379 3162,965.5C 3163.67,977.167 3165.33,988.833 3167,1000.5C 3182.08,922.441 3197.41,844.441 3213,766.5C 3219.84,747.658 3233.01,735.825 3252.5,731C 3447.5,730.333 3642.5,730.333 3837.5,731C 3909.21,732.908 3978.54,746.574 4045.5,772C 4177.15,827.415 4255.32,925.582 4280,1066.5C 4293.99,1192.53 4274.66,1313.2 4222,1428.5C 4163.67,1545.5 4077.84,1636.67 3964.5,1702C 3897.87,1736.76 3827.21,1758.43 3752.5,1767C 3709.64,1772.05 3666.64,1775.05 3623.5,1776C 3549.83,1776.5 3476.17,1776.67 3402.5,1776.5C 3383.27,1876.14 3364.1,1975.81 3345,2075.5C 3338.39,2098.11 3323.56,2111.61 3300.5,2116C 3201.83,2116.67 3103.17,2116.67 3004.5,2116C 2980.78,2110.28 2966.61,2095.44 2962,2071.5C 2961.33,2066.17 2961.33,2060.83 2962,2055.5C 2980.44,1960.49 2998.94,1865.49 3017.5,1770.5C 3017.17,1769.83 3016.83,1769.17 3016.5,1768.5C 3009.48,1771.9 3002.14,1774.4 2994.5,1776C 2896.5,1776.67 2798.5,1776.67 2700.5,1776C 2677.4,1771.56 2662.56,1758.06 2656,1735.5C 2654.7,1728.87 2654.36,1722.21 2655,1715.5C 2694.13,1516.64 2732.46,1317.64 2770,1118.5C 2771.44,1105.2 2771.78,1091.86 2771,1078.5C 2771.11,1064.86 2764.61,1056.36 2751.5,1053C 2733.21,1047.62 2714.54,1044.29 2695.5,1043C 2625.83,1042.5 2556.17,1042.33 2486.5,1042.5C 2442.25,1273.6 2397.41,1504.6 2352,1735.5C 2345.34,1758.49 2330.18,1771.99 2306.5,1776C 2210.17,1776.67 2113.83,1776.67 2017.5,1776C 1984.94,1768.38 1969.77,1747.88 1972,1714.5C 1987.25,1634.74 2002.58,1555.07 2018,1475.5C 1959.11,1573.06 1879.94,1649.56 1780.5,1705C 1717.16,1737.25 1650.16,1757.59 1579.5,1766C 1534.02,1771.85 1488.35,1775.19 1442.5,1776C 1369.83,1776.17 1297.16,1776.67 1224.5,1777.5C 1204.53,1879.53 1184.36,1981.53 1164,2083.5C 1155.56,2102.47 1141.06,2113.3 1120.5,2116C 1022.5,2116.67 924.5,2116.67 826.5,2116C 794.982,2107.12 780.815,2086.29 784,2053.5C 867.205,1625.14 950.539,1196.81 1034,768.5C 1040.77,748.726 1054.27,736.226 1074.5,731C 1268.83,730.333 1463.17,730.333 1657.5,731C 1725.86,732.763 1792.19,745.097 1856.5,768C 1972.85,811.677 2050.35,892.511 2089,1010.5C 2092.88,1025.12 2096.54,1039.79 2100,1054.5C 2140.72,847.241 2181.05,639.907 2221,432.5C 2226.74,408.762 2241.57,394.595 2265.5,390C 2362.5,389.333 2459.5,389.333 2556.5,390C 2579.1,393.879 2593.93,406.712 2601,428.5C 2602.45,435.444 2602.79,442.444 2602,449.5C 2583.84,542.12 2566.01,634.786 2548.5,727.5 Z"/></g>
<g><path style="opacity:1" fill="#000000" d="M 2484.5,780.5 C 2483.6,781.209 2483.26,782.209 2483.5,783.5C 2572.83,783.5 2662.17,783.5 2751.5,783.5C 2802.97,783.436 2853.97,788.27 2904.5,798C 2949.76,806.304 2991.76,822.637 3030.5,847C 3075.77,879.665 3102.6,923.832 3111,979.5C 3115.79,1017.87 3115.46,1056.21 3110,1094.5C 3070.41,1304.15 3029.91,1513.48 2988.5,1722.5C 2895.17,1722.5 2801.83,1722.5 2708.5,1722.5C 2708.5,1721.5 2708.5,1720.5 2708.5,1719.5C 2746.16,1525.21 2783.66,1330.88 2821,1136.5C 2824.23,1116.28 2825.23,1095.95 2824,1075.5C 2822.58,1056.88 2816.24,1040.22 2805,1025.5C 2791.28,1012.38 2775.11,1003.55 2756.5,999C 2735.18,993.668 2713.51,990.668 2691.5,990C 2608.83,989.5 2526.17,989.333 2443.5,989.5C 2395.78,1233.43 2348.45,1477.43 2301.5,1721.5C 2209.24,1722.5 2116.9,1722.83 2024.5,1722.5C 2107.17,1295.83 2189.83,869.167 2272.5,442.5C 2364.83,442.5 2457.17,442.5 2549.5,442.5C 2527.58,555.111 2505.91,667.777 2484.5,780.5 Z"/></g>
<g><path style="opacity:0.997" fill="#a6aacf" d="M 541.5,590.5 C 541.617,625.879 544.951,660.879 551.5,695.5C 535.024,708.249 518.69,721.249 502.5,734.5C 495.774,701.921 490.941,668.921 488,635.5C 487.764,633.881 486.931,632.881 485.5,632.5C 503.771,618.025 522.437,604.025 541.5,590.5 Z"/></g>
<g><path style="opacity:0.996" fill="#a1a5cb" d="M 485.5,632.5 C 486.931,632.881 487.764,633.881 488,635.5C 490.941,668.921 495.774,701.921 502.5,734.5C 478.562,755.1 454.895,776.1 431.5,797.5C 423.039,764.689 416.539,731.356 412,697.5C 411.583,696.244 410.75,695.577 409.5,695.5C 433.687,673.079 459.02,652.079 485.5,632.5 Z"/></g>
<g><path style="opacity:0.998" fill="#9b9fc6" d="M 409.5,695.5 C 410.75,695.577 411.583,696.244 412,697.5C 416.539,731.356 423.039,764.689 431.5,797.5C 408.801,820.865 386.467,844.531 364.5,868.5C 360.072,855.476 356.239,842.142 353,828.5C 347.952,806.412 343.118,784.412 338.5,762.5C 361.234,739.097 384.901,716.764 409.5,695.5 Z"/></g>
<g><path style="opacity:1" fill="#a3a6cb" d="M 2548.5,727.5 C 2615.99,729.166 2683.66,730.166 2751.5,730.5C 2683.5,730.5 2615.5,730.5 2547.5,730.5C 2547.26,729.209 2547.6,728.209 2548.5,727.5 Z"/></g>
<g><path style="opacity:1" fill="#666666" d="M 1641.5,783.5 C 1455.76,783.168 1270.1,783.501 1084.5,784.5C 1177,783.167 1269.83,782.5 1363,782.5C 1456,782.5 1548.83,782.833 1641.5,783.5 Z"/></g>
<g><path style="opacity:1" fill="#666666" d="M 2484.5,780.5 C 2573.33,782.166 2662.33,783.166 2751.5,783.5C 2662.17,783.5 2572.83,783.5 2483.5,783.5C 2483.26,782.209 2483.6,781.209 2484.5,780.5 Z"/></g>
<g><path style="opacity:1" fill="#000000" d="M 1641.5,783.5 C 1708.77,783.75 1774.1,794.917 1837.5,817C 1967.81,868.685 2039.64,964.518 2053,1104.5C 2058.1,1208.67 2039.43,1308.34 1997,1403.5C 1948.8,1501.38 1878.96,1580.21 1787.5,1640C 1733.89,1673.46 1675.89,1695.79 1613.5,1707C 1556.97,1717.08 1499.97,1722.41 1442.5,1723C 1355.17,1723.5 1267.83,1723.67 1180.5,1723.5C 1158.58,1836.79 1136.91,1950.12 1115.5,2063.5C 1022.16,2064.16 929.161,2063.5 836.5,2061.5C 919.01,1635.8 1001.68,1210.13 1084.5,784.5C 1270.1,783.501 1455.76,783.168 1641.5,783.5 Z"/></g>
<g><path style="opacity:1" fill="#000000" d="M 3263.5,782.5 C 3457.84,782.035 3652.17,782.535 3846.5,784C 3912.01,786.512 3975.01,800.179 4035.5,825C 4139.67,871.854 4203.17,951.354 4226,1063.5C 4241.3,1182.78 4223.96,1297.11 4174,1406.5C 4129.9,1494.27 4068.07,1567.11 3988.5,1625C 3920.72,1672.05 3845.72,1701.05 3763.5,1712C 3728.34,1717.16 3693.01,1720.49 3657.5,1722C 3558.17,1723.08 3458.84,1723.91 3359.5,1724.5C 3336.99,1837.4 3314.99,1950.4 3293.5,2063.5C 3200.5,2063.5 3107.5,2063.5 3014.5,2063.5C 3097.12,1636.39 3180.12,1209.39 3263.5,782.5 Z"/></g>
<g><path style="opacity:0.997" fill="#9498c1" d="M 338.5,762.5 C 343.118,784.412 347.952,806.412 353,828.5C 356.239,842.142 360.072,855.476 364.5,868.5C 338.561,897.758 314.561,928.424 292.5,960.5C 291.503,960.53 290.836,960.03 290.5,959C 278.842,923.531 268.508,887.698 259.5,851.5C 284.005,820.321 310.338,790.655 338.5,762.5 Z"/></g>
<g><path style="opacity:0.997" fill="#8e92bd" d="M 259.5,851.5 C 268.508,887.698 278.842,923.531 290.5,959C 290.836,960.03 291.503,960.53 292.5,960.5C 272.361,990.446 254.028,1021.45 237.5,1053.5C 222.009,1015.7 208.676,977.031 197.5,937.5C 216.262,907.414 236.928,878.747 259.5,851.5 Z"/></g>
<g><path style="opacity:0.997" fill="#888cb8" d="M 197.5,937.5 C 208.676,977.031 222.009,1015.7 237.5,1053.5C 220.38,1088.08 205.713,1123.75 193.5,1160.5C 174.509,1120.5 157.676,1079.5 143,1037.5C 142.617,1038.06 142.117,1038.39 141.5,1038.5C 157.366,1003.09 176.032,969.419 197.5,937.5 Z"/></g>
<g><path style="opacity:1" fill="#fefefe" d="M 1412.5,1520.5 C 1348.83,1520.5 1285.17,1520.5 1221.5,1520.5C 1221.5,1519.5 1221.5,1518.5 1221.5,1517.5C 1255.19,1340.38 1289.52,1163.38 1324.5,986.5C 1402.16,985.333 1479.83,985.167 1557.5,986C 1599.18,987.506 1639.51,995.506 1678.5,1010C 1717.57,1025.41 1743.07,1053.24 1755,1093.5C 1762.13,1121.74 1764.47,1150.41 1762,1179.5C 1757.49,1237.52 1744.49,1293.52 1723,1347.5C 1687.78,1432.54 1625.28,1485.37 1535.5,1506C 1495.04,1515.41 1454.04,1520.24 1412.5,1520.5 Z"/></g>
<g><path style="opacity:1" fill="#fefefe" d="M 3590.5,1520.5 C 3526.66,1520.83 3463,1520.5 3399.5,1519.5C 3433.58,1341.45 3467.91,1163.45 3502.5,985.5C 3579.5,985.333 3656.5,985.5 3733.5,986C 3776.94,987.288 3818.94,995.621 3859.5,1011C 3904.48,1030.66 3930.65,1064.83 3938,1113.5C 3944.8,1198.99 3930.8,1280.99 3896,1359.5C 3858.72,1439.77 3796.56,1488.93 3709.5,1507C 3670.3,1515.49 3630.64,1519.99 3590.5,1520.5 Z"/></g>
<g><path style="opacity:1" fill="#777bb3" d="M 1368.5,1037.5 C 1423.83,1037.33 1479.17,1037.5 1534.5,1038C 1572.25,1038.34 1609.25,1043.68 1645.5,1054C 1658.34,1058.42 1670.34,1064.42 1681.5,1072C 1696.81,1086.12 1705.65,1103.62 1708,1124.5C 1712.18,1194.76 1700.85,1262.43 1674,1327.5C 1660.4,1360.74 1640.24,1389.24 1613.5,1413C 1588.37,1432.06 1560.37,1445.39 1529.5,1453C 1490.08,1462.57 1450.08,1467.57 1409.5,1468C 1367.83,1468.5 1326.17,1468.67 1284.5,1468.5C 1311.99,1324.7 1339.99,1181.04 1368.5,1037.5 Z"/></g>
<g><path style="opacity:1" fill="#777bb3" d="M 3546.5,1037.5 C 3603.5,1037.33 3660.5,1037.5 3717.5,1038C 3752.54,1038.35 3786.88,1043.35 3820.5,1053C 3836.4,1057.45 3850.73,1064.78 3863.5,1075C 3872.11,1083.63 3878.28,1093.79 3882,1105.5C 3888.05,1126.77 3890.05,1148.44 3888,1170.5C 3884.4,1222.48 3873.4,1272.81 3855,1321.5C 3841.76,1355.51 3821.92,1385.01 3795.5,1410C 3772.35,1428.58 3746.35,1441.91 3717.5,1450C 3675.65,1461.64 3632.99,1467.64 3589.5,1468C 3547.5,1468.5 3505.5,1468.67 3463.5,1468.5C 3490.52,1324.71 3518.19,1181.05 3546.5,1037.5 Z"/></g>
<g><path style="opacity:0.997" fill="#8286b4" d="M 193.5,1160.5 C 180.021,1203.17 171.355,1246.83 167.5,1291.5C 166.624,1291.63 165.957,1291.3 165.5,1290.5C 140.898,1244.97 118.231,1198.63 97.5,1151.5C 109.046,1112.51 123.713,1074.85 141.5,1038.5C 142.117,1038.39 142.617,1038.06 143,1037.5C 157.676,1079.5 174.509,1120.5 193.5,1160.5 Z"/></g>
<g><path style="opacity:0.997" fill="#7d82b1" d="M 97.5,1151.5 C 118.231,1198.63 140.898,1244.97 165.5,1290.5C 165.957,1291.3 166.624,1291.63 167.5,1291.5C 165.319,1312.1 164.319,1332.77 164.5,1353.5C 164.666,1359.18 164.499,1364.84 164,1370.5C 133.991,1320.82 106.824,1269.49 82.5,1216.5C 86.3973,1194.58 91.3973,1172.91 97.5,1151.5 Z"/></g>
<g><path style="opacity:0.997" fill="#787cad" d="M 82.5,1216.5 C 106.824,1269.49 133.991,1320.82 164,1370.5C 164.499,1364.84 164.666,1359.18 164.5,1353.5C 165.626,1432.9 180.959,1509.57 210.5,1583.5C 158.768,1517.89 112.268,1448.55 71,1375.5C 70.7216,1376.42 70.2216,1377.08 69.5,1377.5C 67.5759,1323.17 71.9092,1269.51 82.5,1216.5 Z"/></g>
<g><path style="opacity:0.998" fill="#7478aa" d="M 210.5,1583.5 C 251.461,1680.14 307.461,1766.81 378.5,1843.5C 323.16,1794.66 271.326,1742.33 223,1686.5C 175.084,1630.62 130.584,1572.28 89.5,1511.5C 78.462,1467.57 71.7953,1422.9 69.5,1377.5C 70.2216,1377.08 70.7216,1376.42 71,1375.5C 112.268,1448.55 158.768,1517.89 210.5,1583.5 Z"/></g>
<g><path style="opacity:0.999" fill="#7175a7" d="M 89.5,1511.5 C 130.584,1572.28 175.084,1630.62 223,1686.5C 271.326,1742.33 323.16,1794.66 378.5,1843.5C 402.243,1869.08 426.91,1893.91 452.5,1918C 535.838,1992.65 625.505,2058.48 721.5,2115.5C 496.595,1997.16 305.095,1837.83 147,1637.5C 137.717,1624.55 128.05,1611.88 118,1599.5C 117.536,1600.09 117.369,1600.76 117.5,1601.5C 105.58,1572.4 96.2468,1542.4 89.5,1511.5 Z"/></g>
<g><path style="opacity:1" fill="#a5a5a5" d="M 1221.5,1517.5 C 1221.5,1518.5 1221.5,1519.5 1221.5,1520.5C 1285.17,1520.5 1348.83,1520.5 1412.5,1520.5C 1348.67,1521.5 1284.67,1521.83 1220.5,1521.5C 1220.23,1519.9 1220.57,1518.57 1221.5,1517.5 Z"/></g>
<g><path style="opacity:1" fill="#a5a5a5" d="M 3399.5,1519.5 C 3463,1520.5 3526.66,1520.83 3590.5,1520.5C 3526.67,1521.83 3462.67,1521.83 3398.5,1520.5C 3398.62,1519.89 3398.96,1519.56 3399.5,1519.5 Z"/></g>
<g><path style="opacity:0.998" fill="#6e72a5" d="M 721.5,2115.5 C 764.472,2140.32 808.139,2164.16 852.5,2187C 984.795,2252.61 1121.46,2307.77 1262.5,2352.5C 906.72,2293.74 594.72,2145.91 326.5,1909C 308.531,1892.7 290.865,1876.03 273.5,1859C 272.563,1858.31 271.897,1858.47 271.5,1859.5C 211.644,1788.68 163.144,1710.35 126,1624.5C 122.861,1616.91 120.028,1609.25 117.5,1601.5C 117.369,1600.76 117.536,1600.09 118,1599.5C 128.05,1611.88 137.717,1624.55 147,1637.5C 305.095,1837.83 496.595,1997.16 721.5,2115.5 Z"/></g>
<g><path style="opacity:1" fill="#333333" d="M 2301.5,1721.5 C 2255.67,1722.83 2209.5,1723.5 2163,1723.5C 2116.67,1723.5 2070.5,1723.17 2024.5,1722.5C 2116.9,1722.83 2209.24,1722.5 2301.5,1721.5 Z"/></g>
<g><path style="opacity:1" fill="#333333" d="M 2708.5,1719.5 C 2708.5,1720.5 2708.5,1721.5 2708.5,1722.5C 2801.83,1722.5 2895.17,1722.5 2988.5,1722.5C 2895,1723.5 2801.33,1723.83 2707.5,1723.5C 2707.23,1721.9 2707.57,1720.57 2708.5,1719.5 Z"/></g>
<g><path style="opacity:0.997" fill="#6b6fa3" d="M 1262.5,2352.5 C 1315.97,2368.95 1369.64,2384.28 1423.5,2398.5C 1121.43,2376.97 841.093,2288.14 582.5,2132C 580.975,2130.99 579.308,2130.49 577.5,2130.5C 488.459,2070.68 405.959,2002.34 330,1925.5C 309.92,1903.93 290.42,1881.93 271.5,1859.5C 271.897,1858.47 272.563,1858.31 273.5,1859C 290.865,1876.03 308.531,1892.7 326.5,1909C 594.72,2145.91 906.72,2293.74 1262.5,2352.5 Z"/></g>
<g><path style="opacity:1" fill="#999999" d="M 836.5,2061.5 C 929.161,2063.5 1022.16,2064.16 1115.5,2063.5C 1022.33,2064.5 929.001,2064.83 835.5,2064.5C 835.263,2063.21 835.596,2062.21 836.5,2061.5 Z"/></g>
<g><path style="opacity:0.995" fill="#686ca1" d="M 577.5,2130.5 C 579.308,2130.49 580.975,2130.99 582.5,2132C 841.093,2288.14 1121.43,2376.97 1423.5,2398.5C 1504.6,2419.98 1586.27,2438.65 1668.5,2454.5C 1509.08,2464.23 1350.91,2454.23 1194,2424.5C 1192.97,2424.84 1192.47,2425.5 1192.5,2426.5C 1023.13,2370.48 860.792,2298.64 705.5,2211C 661.594,2185.89 618.927,2159.05 577.5,2130.5 Z"/></g>
<g><path style="opacity:0.996" fill="#65699e" d="M 1668.5,2454.5 C 1718.37,2463.82 1768.37,2472.48 1818.5,2480.5C 1690.32,2498.76 1561.49,2503.76 1432,2495.5C 1430.62,2495.51 1429.45,2495.85 1428.5,2496.5C 1349.12,2475.65 1270.45,2452.32 1192.5,2426.5C 1192.47,2425.5 1192.97,2424.84 1194,2424.5C 1350.91,2454.23 1509.08,2464.23 1668.5,2454.5 Z"/></g>
<g><path style="opacity:0.997" fill="#61659b" d="M 1818.5,2480.5 C 1878.5,2489.52 1938.5,2497.52 1998.5,2504.5C 1891.53,2528.21 1783.53,2543.88 1674.5,2551.5C 1592.01,2535.47 1510.01,2517.14 1428.5,2496.5C 1429.45,2495.85 1430.62,2495.51 1432,2495.5C 1561.49,2503.76 1690.32,2498.76 1818.5,2480.5 Z"/></g>
<g><path style="opacity:0.997" fill="#5e6299" d="M 1998.5,2504.5 C 2024.85,2507.17 2051.18,2509.84 2077.5,2512.5C 1979.58,2538.95 1880.25,2557.95 1779.5,2569.5C 1744.44,2563.82 1709.44,2557.82 1674.5,2551.5C 1783.53,2543.88 1891.53,2528.21 1998.5,2504.5 Z"/></g>
<g><path style="opacity:0.996" fill="#5b5f97" d="M 2077.5,2512.5 C 2129.3,2516.75 2180.97,2520.75 2232.5,2524.5C 2169.48,2544.78 2105.81,2562.95 2041.5,2579C 2017.25,2584.72 1992.92,2590.05 1968.5,2595C 1969.42,2595.28 1970.08,2595.78 1970.5,2596.5C 1906.63,2588.9 1842.96,2579.9 1779.5,2569.5C 1880.25,2557.95 1979.58,2538.95 2077.5,2512.5 Z"/></g>
<g><path style="opacity:0.998" fill="#585c95" d="M 2232.5,2524.5 C 2255.2,2524.92 2277.87,2525.92 2300.5,2527.5C 2266.68,2540.72 2232.35,2552.89 2197.5,2564C 2149.35,2578.95 2101.02,2592.78 2052.5,2605.5C 2025.18,2602.5 1997.85,2599.5 1970.5,2596.5C 1970.08,2595.78 1969.42,2595.28 1968.5,2595C 1992.92,2590.05 2017.25,2584.72 2041.5,2579C 2105.81,2562.95 2169.48,2544.78 2232.5,2524.5 Z"/></g>
<g><path style="opacity:0.997" fill="#4c508c" d="M 2716.5,2526.5 C 2655.46,2563.19 2592.46,2596.52 2527.5,2626.5C 2494.5,2626.5 2461.5,2626.5 2428.5,2626.5C 2495.1,2597.1 2560.77,2565.27 2625.5,2531C 2628.36,2530.82 2631.03,2530.32 2633.5,2529.5C 2661.19,2529.05 2688.86,2528.05 2716.5,2526.5 Z"/></g>
<g><path style="opacity:0.996" fill="#555993" d="M 2300.5,2527.5 C 2345.48,2529.36 2390.48,2530.69 2435.5,2531.5C 2403.46,2546.58 2370.8,2560.41 2337.5,2573C 2296,2588.55 2254.33,2603.39 2212.5,2617.5C 2159.09,2614.57 2105.75,2610.57 2052.5,2605.5C 2101.02,2592.78 2149.35,2578.95 2197.5,2564C 2232.35,2552.89 2266.68,2540.72 2300.5,2527.5 Z"/></g>
<g><path style="opacity:0.996" fill="#4f538e" d="M 2633.5,2529.5 C 2631.03,2530.32 2628.36,2530.82 2625.5,2531C 2560.77,2565.27 2495.1,2597.1 2428.5,2626.5C 2381.11,2625.66 2333.77,2624 2286.5,2621.5C 2359.79,2595.4 2431.46,2565.4 2501.5,2531.5C 2545.51,2531.52 2589.51,2530.85 2633.5,2529.5 Z"/></g>
<g><path style="opacity:0.997" fill="#525690" d="M 2435.5,2531.5 C 2457.5,2531.5 2479.5,2531.5 2501.5,2531.5C 2431.46,2565.4 2359.79,2595.4 2286.5,2621.5C 2261.73,2620.97 2237.07,2619.64 2212.5,2617.5C 2254.33,2603.39 2296,2588.55 2337.5,2573C 2370.8,2560.41 2403.46,2546.58 2435.5,2531.5 Z"/></g>
</svg>
