<?xml version="1.0" standalone="no"?>
<!DOCTYPE svg PUBLIC "-//W3C//DTD SVG 20010904//EN"
 "http://www.w3.org/TR/2001/REC-SVG-20010904/DTD/svg10.dtd">
<svg version="1.0" xmlns="http://www.w3.org/2000/svg"
 width="2208.000000pt" height="1242.000000pt" viewBox="0 0 2208.000000 1242.000000"
 preserveAspectRatio="xMidYMid meet">

<g transform="translate(0.000000,1242.000000) scale(0.100000,-0.100000)"
fill="#000000" stroke="none">
<path d="M0 6215 l0 -6205 11040 0 11040 0 0 1348 c0 1152 -2 1349 -14 1349
-8 0 -12 -6 -10 -12 11 -28 -30 -38 -204 -51 -277 -21 -288 -21 -311 0 -12 11
-21 26 -21 34 0 9 -3 13 -6 9 -8 -7 -26 -95 -26 -119 1 -26 -46 -58 -85 -58
-51 0 -422 59 -444 71 -10 5 -22 21 -25 34 -10 42 57 454 79 482 24 30 45 30
285 -5 l192 -29 0 39 c0 47 35 88 76 88 15 0 119 7 231 16 185 14 206 14 228
0 26 -17 29 -31 43 -256 5 -79 10 1841 10 4668 l2 4802 -11040 0 -11040 0 0
-6205z m2590 3000 l0 -425 205 0 205 0 0 425 0 425 160 0 160 0 0 -1030 0
-1030 -160 0 -160 0 0 460 0 460 -205 0 -205 0 0 -460 0 -460 -155 0 -155 0 0
1030 0 1030 155 0 155 0 0 -425z m1823 418 c2 -6 -38 -1524 -42 -1565 -1 -5
-57 -8 -126 -8 l-125 0 0 98 c0 107 -25 1051 -35 1315 l-7 167 166 0 c90 0
166 -3 169 -7z m-563 -383 l0 -160 -149 0 c-127 0 -150 2 -155 16 -8 21 -8
289 1 297 3 4 73 7 155 7 l148 0 0 -160z m0 -1005 l0 -665 -150 0 -150 0 0
665 0 665 150 0 150 0 0 -665z m14065 476 c-3 -12 -14 -21 -23 -22 -14 0 -13
-2 3 -9 11 -5 16 -9 10 -10 -5 -1 -14 -3 -20 -5 -5 -1 -17 -3 -25 -4 -13 -1
-13 -2 0 -11 12 -7 10 -9 -6 -8 -13 1 -21 8 -19 18 1 8 10 14 19 12 11 -2 16
4 16 22 0 14 5 28 12 32 8 5 9 2 5 -9 -3 -10 -2 -17 3 -17 9 0 15 23 10 45 -1
6 4 5 10 -1 7 -7 9 -21 5 -33z m126 -4 c-10 -9 -11 -8 -5 6 3 10 9 15 12 12 3
-3 0 -11 -7 -18z m93 -4 c-4 -16 -12 -31 -18 -35 -7 -5 -5 -8 5 -8 9 0 22 14
30 32 7 17 15 26 17 19 4 -11 6 -10 13 0 6 10 9 11 9 2 0 -7 -9 -22 -20 -33
-11 -11 -15 -20 -10 -20 6 0 9 -5 8 -11 -2 -6 7 -15 20 -20 17 -7 26 -4 39 11
24 28 35 14 15 -20 -22 -38 -8 -49 24 -19 l27 24 -19 -29 -19 -29 29 18 c23
15 29 16 36 4 6 -9 3 -20 -7 -31 -21 -23 -11 -23 29 2 39 24 48 25 48 6 0 -8
-16 -26 -35 -42 -39 -30 -40 -45 -3 -20 14 9 27 13 30 10 4 -3 16 -1 27 6 17
8 21 8 19 -2 -2 -7 -10 -18 -18 -25 -18 -15 -6 -17 20 -3 17 9 18 8 3 -20 -8
-17 -24 -35 -35 -41 -28 -15 -15 -23 14 -9 18 9 17 6 -7 -14 l-30 -26 28 10
c37 13 36 14 31 -14 -3 -18 1 -25 19 -30 22 -6 22 -7 3 -21 -11 -9 -14 -15 -7
-15 9 0 7 -5 -4 -16 -22 -23 -12 -28 26 -15 18 6 34 9 36 7 3 -2 -5 -7 -16
-11 -21 -6 -29 -25 -11 -25 6 0 10 -7 10 -15 0 -8 -4 -15 -9 -15 -5 0 -12 -7
-15 -16 -5 -13 1 -14 42 -10 l47 6 -40 -15 -40 -15 53 6 c45 4 52 3 41 -9 -7
-7 -24 -11 -37 -9 -19 4 -23 2 -17 -8 6 -10 4 -12 -9 -7 -10 4 -15 3 -11 -3 3
-6 16 -10 28 -10 22 0 22 -1 -3 -20 -14 -11 -20 -20 -15 -20 6 -1 1 -5 -10
-10 -16 -7 -12 -9 23 -15 30 -5 39 -11 30 -16 -10 -7 -10 -9 2 -9 8 0 -3 -9
-25 -19 l-40 -19 35 -1 c44 -2 78 -20 40 -22 l-25 -1 25 -8 c23 -7 21 -8 -19
-15 -37 -7 -41 -9 -25 -19 19 -10 39 -16 62 -18 21 -2 13 -18 -10 -19 -22 0
-22 -1 -3 -9 16 -7 12 -9 -20 -10 l-40 -2 48 -16 c54 -18 63 -42 16 -42 -25 0
-29 -3 -20 -13 6 -8 8 -17 4 -20 -3 -4 1 -7 10 -7 10 0 17 -4 17 -10 0 -5 -12
-10 -26 -10 -22 0 -25 -2 -14 -15 10 -13 9 -15 -9 -15 -11 0 -21 -4 -21 -10 0
-5 8 -10 18 -10 10 0 22 -4 28 -9 5 -5 20 -12 34 -15 24 -7 24 -6 6 8 -13 11
-15 16 -6 16 7 0 10 3 7 6 -4 4 3 15 15 25 16 15 18 22 9 33 -9 11 -9 16 0 22
8 4 9 3 5 -4 -9 -14 3 -15 24 -2 12 7 10 11 -9 18 -17 6 -21 11 -12 16 9 6 8
12 -6 22 -10 8 -13 14 -8 13 6 -1 18 1 27 5 15 7 16 11 6 29 -15 27 -16 40 -4
49 12 8 17 40 5 32 -5 -3 -9 0 -9 6 0 6 -4 8 -10 5 -12 -7 -12 -3 -4 20 5 13
8 14 15 3 6 -9 9 -7 10 10 3 49 5 58 12 70 13 19 0 46 -33 70 -17 13 -30 30
-29 40 0 14 2 14 9 -3 8 -19 9 -19 9 3 1 13 5 21 10 18 5 -3 9 0 8 7 -1 37 4
46 23 42 11 -2 18 0 15 6 -4 5 5 9 19 9 14 0 26 4 26 9 0 11 -39 3 -57 -12 -9
-6 -13 -6 -13 2 0 7 -4 9 -10 6 -6 -4 -7 1 -3 11 4 11 8 13 11 6 5 -16 22 -15
18 1 -1 6 -1 9 1 5 3 -5 14 -8 24 -8 13 0 18 4 13 13 -4 6 2 4 13 -5 11 -10
25 -18 31 -18 6 0 9 8 6 18 -5 14 -4 14 6 -2 10 -14 9 -20 -1 -27 -10 -6 -7
-8 9 -6 13 2 28 10 33 18 7 11 9 11 9 1 0 -7 5 -10 12 -6 7 4 8 3 4 -5 -4 -6
-12 -9 -17 -6 -5 4 -9 3 -9 -2 0 -4 -23 -19 -51 -33 -74 -36 -47 -35 69 3 56
18 102 30 102 25 0 -4 -11 -10 -25 -14 -14 -3 -25 -10 -25 -15 0 -5 -3 -9 -7
-8 -15 2 -53 -13 -53 -21 0 -5 33 1 73 12 39 11 74 20 77 20 30 1 31 -5 5 -22
-16 -11 -39 -18 -50 -16 -20 5 -20 5 -1 -9 14 -10 22 -12 27 -4 3 6 8 10 10 9
2 -1 12 2 22 6 10 3 21 3 25 0 8 -9 -19 -27 -30 -20 -4 3 -8 0 -8 -6 0 -6 -4
-9 -9 -5 -5 3 -13 0 -16 -6 -4 -5 -13 -8 -21 -5 -8 3 -13 0 -11 -5 1 -6 -22
-20 -52 -30 -30 -11 -57 -23 -60 -28 -3 -5 -24 -16 -45 -25 -64 -27 -37 -27
68 0 54 14 100 23 103 20 2 -2 35 4 71 15 130 37 107 15 -31 -31 -54 -18 -97
-34 -94 -36 2 -2 54 10 116 27 62 16 116 28 118 25 3 -3 -35 -17 -83 -31 -49
-15 -114 -35 -144 -45 l-55 -19 50 4 c38 4 45 3 28 -5 -13 -5 -23 -11 -23 -14
0 -2 10 -2 23 0 12 2 -6 -6 -41 -17 -35 -12 -61 -23 -59 -26 3 -2 75 12 161
32 162 36 229 45 192 23 -11 -6 -74 -26 -140 -45 -67 -18 -106 -31 -88 -28 17
3 47 7 65 10 17 3 3 -4 -32 -14 -77 -24 -92 -36 -31 -25 25 5 60 8 78 7 18 -1
30 1 28 5 -4 7 103 6 110 -1 2 -2 -62 -18 -142 -37 -89 -20 -140 -37 -132 -42
9 -5 5 -8 -12 -9 -15 -1 -18 -3 -9 -6 9 -2 70 5 136 17 133 22 174 24 98 5
-60 -16 -29 -19 46 -5 35 7 56 7 63 0 7 -7 3 -10 -13 -10 -12 0 -20 -4 -17 -8
2 -4 -3 -9 -12 -10 -9 -1 -78 -15 -152 -32 -114 -25 -125 -29 -67 -24 37 3 67
3 67 1 0 -3 -34 -11 -75 -18 -133 -21 -73 -21 115 1 101 11 185 18 188 15 3
-3 -8 -6 -24 -6 l-29 -1 30 -9 c28 -8 27 -8 -7 -4 -21 2 -38 0 -38 -4 0 -5
-28 -12 -62 -15 -35 -4 -76 -10 -93 -14 l-30 -6 25 -7 c14 -4 72 -8 130 -9 58
-1 97 -4 87 -7 -9 -2 -15 -9 -12 -14 4 -5 -13 -9 -37 -10 -24 0 -86 -7 -138
-14 l-95 -13 125 3 125 3 -115 -12 c-63 -7 -99 -14 -80 -16 l35 -2 -30 -8
c-19 -5 19 -8 101 -9 99 -1 134 -4 143 -15 10 -12 -8 -15 -116 -21 -140 -8
-197 -23 -98 -26 l60 -2 -55 -7 c-75 -8 -35 -19 85 -23 77 -2 70 -3 -45 -6
-79 -2 -119 -6 -97 -10 21 -3 36 -10 35 -16 -2 -6 35 -15 82 -21 61 -8 76 -12
55 -16 -27 -5 -26 -5 10 -7 22 -1 60 -6 85 -11 37 -7 32 -8 -30 -4 -41 2 -108
6 -148 9 -107 6 -139 -10 -37 -20 44 -4 83 -11 86 -16 3 -5 25 -13 50 -18 38
-8 40 -9 14 -11 -19 -2 -5 -7 40 -15 99 -17 60 -18 -80 0 -151 19 -154 19
-129 0 10 -8 54 -22 96 -31 43 -10 76 -19 74 -21 -2 -2 -78 8 -170 22 -92 14
-174 25 -184 24 -30 -1 16 -15 115 -35 54 -10 87 -21 80 -26 -7 -4 -25 -6 -42
-4 -16 2 -22 1 -12 -1 9 -2 17 -8 17 -13 0 -4 19 -11 41 -15 31 -5 38 -10 28
-17 -9 -6 -3 -7 21 -3 24 4 30 3 21 -3 -10 -8 -6 -11 18 -17 39 -8 41 -29 2
-23 -42 6 -29 -8 15 -17 20 -3 34 -8 31 -11 -2 -3 -40 4 -83 14 -78 19 -177
23 -192 7 -4 -4 5 -5 20 -1 14 3 37 1 50 -4 21 -9 20 -10 -7 -5 -16 3 -36 1
-44 -4 -13 -8 9 -18 192 -86 33 -13 44 -21 35 -26 -10 -7 -10 -9 1 -9 8 0 12
-2 9 -5 -3 -3 -43 8 -88 25 -102 37 -118 33 -20 -6 38 -15 69 -29 67 -31 -2
-2 -34 8 -72 22 -95 36 -92 24 5 -15 121 -51 89 -47 -45 5 -65 25 -119 44
-121 42 -2 -2 50 -27 117 -56 66 -30 118 -55 116 -57 -2 -2 -48 14 -102 36
-54 22 -100 38 -102 37 -2 -2 68 -37 154 -76 173 -80 232 -115 85 -51 -104 45
-129 51 -62 15 100 -54 1 -20 -190 64 -63 28 -107 45 -98 38 10 -8 15 -16 12
-19 -2 -3 31 -24 76 -47 44 -23 80 -44 80 -47 0 -2 -18 5 -40 16 -22 11 -40
18 -40 15 0 -11 81 -45 92 -39 7 5 8 3 3 -6 -6 -10 -4 -12 9 -7 10 4 15 3 11
-3 -3 -5 21 -23 55 -40 33 -17 60 -32 60 -34 0 -11 -66 17 -165 69 -59 32
-105 53 -101 47 11 -18 4 -15 -81 30 -123 65 -74 31 127 -90 290 -174 293
-187 5 -24 -82 46 -153 86 -157 89 -5 2 -8 2 -8 -1 0 -3 27 -21 60 -42 33 -20
57 -40 54 -45 -3 -5 1 -6 9 -3 8 3 18 0 23 -7 5 -8 3 -10 -6 -4 -9 6 -11 4 -6
-4 5 -7 14 -10 22 -7 7 3 16 0 20 -6 5 -7 2 -8 -6 -3 -9 6 -11 4 -6 -4 5 -7
14 -10 22 -7 8 3 13 1 11 -4 -1 -5 7 -15 18 -24 20 -15 20 -15 -1 -11 -12 2
-41 15 -63 30 -23 14 -53 30 -67 35 -13 5 -49 26 -79 45 -31 19 -58 35 -60 35
-17 0 4 -21 65 -65 74 -52 95 -82 33 -45 l-38 23 45 -42 45 -42 -42 26 c-24
14 -43 23 -43 21 0 -3 36 -33 80 -67 44 -34 80 -63 80 -66 0 -2 -48 29 -107
70 -120 82 -133 90 -133 84 0 -3 32 -31 72 -63 40 -33 79 -65 88 -72 13 -11
13 -12 0 -10 -8 2 -61 38 -117 81 -57 43 -103 76 -103 73 0 -2 52 -48 115
-101 63 -54 115 -99 115 -102 0 -3 -118 87 -162 125 -10 8 -18 13 -18 9 0 -3
35 -36 79 -75 43 -38 96 -89 117 -113 30 -33 14 -23 -71 45 l-110 88 110 -106
c107 -103 132 -137 55 -76 -20 16 -39 27 -42 25 -3 -3 -27 14 -54 37 -88 76
-90 73 -9 -12 44 -47 68 -74 53 -61 -16 14 -31 21 -35 18 -4 -4 -23 7 -42 25
-19 18 -30 26 -24 18 12 -18 13 -51 1 -44 -5 3 -6 9 -4 13 3 4 -8 21 -24 36
-17 16 -30 25 -30 21 0 -5 -8 -2 -17 5 -12 9 -11 5 3 -11 28 -33 46 -55 90
-115 l36 -50 -46 45 c-64 62 -57 44 14 -37 107 -120 64 -89 -74 53 -138 142
-177 160 -70 32 32 -39 59 -76 60 -82 1 -28 -12 -25 -54 16 -48 44 -45 38 21
-47 l39 -50 -52 55 c-28 30 -55 55 -60 55 -4 0 -12 4 -17 9 -5 6 -2 6 7 1 13
-8 13 -7 1 8 -8 10 -16 15 -18 13 -3 -3 -36 31 -74 75 -84 97 -92 86 -11 -14
88 -110 124 -157 119 -157 -3 0 -37 38 -78 85 -40 47 -75 83 -78 80 -2 -3 15
-33 38 -67 23 -34 36 -56 28 -50 -7 7 -16 10 -19 7 -3 -3 -11 2 -19 12 -9 11
-10 14 -1 9 17 -10 15 9 -3 24 -13 11 -14 10 -8 -6 6 -17 5 -18 -13 -4 -17 13
-18 13 -8 0 63 -85 152 -208 159 -219 24 -41 -24 12 -97 106 -129 166 -138
172 -45 34 55 -83 39 -84 -23 -2 -63 86 -47 48 26 -56 100 -144 72 -131 -35
17 -52 71 -96 130 -98 130 -6 0 11 -29 95 -161 96 -152 94 -149 89 -149 -2 0
-43 56 -92 125 -48 69 -90 123 -93 121 -2 -3 6 -19 19 -37 13 -18 18 -29 11
-25 -16 10 -15 -5 2 -30 13 -18 13 -21 0 -21 -8 0 -12 2 -10 4 2 2 -5 14 -15
26 -40 47 -54 63 -47 52 22 -36 115 -226 102 -210 -8 11 -20 19 -25 17 -6 -1
-8 2 -4 8 8 13 -13 52 -25 45 -5 -3 -12 0 -16 6 -4 8 -3 9 4 5 23 -14 12 10
-15 35 -16 13 -38 38 -51 54 l-23 30 19 -35 c11 -19 36 -63 55 -97 63 -109 16
-70 -57 47 -37 61 -70 110 -72 110 -2 0 23 -54 56 -120 33 -66 58 -120 56
-120 -2 0 -25 36 -51 80 -73 124 -70 98 4 -44 23 -43 41 -85 41 -92 0 -8 5
-14 12 -14 9 0 9 -3 0 -12 -19 -19 -14 -32 6 -17 16 13 16 12 3 -4 -14 -18
-15 -18 -33 5 -10 13 -20 31 -24 41 -3 9 -10 17 -15 17 -5 0 -2 -15 6 -32 l16
-33 -21 25 c-17 21 -19 22 -14 5 3 -11 -10 6 -28 37 -19 31 -41 65 -50 75 -9
10 -25 36 -36 58 -25 47 -29 34 -7 -21 9 -24 10 -32 2 -21 -32 49 -38 53 -28
25 6 -15 22 -50 36 -78 14 -28 23 -55 20 -60 -3 -4 1 -15 9 -22 12 -13 11 -16
-3 -25 -16 -10 -17 -8 -13 13 3 17 0 24 -12 24 -8 0 -25 18 -36 41 -29 55 -37
42 -11 -16 30 -68 25 -69 -10 -2 -30 59 -46 76 -29 32 17 -46 -6 -26 -30 25
-29 62 -48 46 -25 -20 8 -23 13 -46 10 -50 -3 -4 2 -11 11 -14 12 -5 13 -8 2
-20 -9 -10 -15 -11 -20 -2 -5 7 -8 6 -8 -4 -1 -8 -10 2 -21 23 -11 20 -25 37
-32 37 -9 0 -9 -2 0 -8 6 -4 13 -16 15 -27 1 -11 8 -23 13 -27 6 -5 3 -8 -7
-8 -9 0 -24 16 -35 40 -20 44 -38 55 -23 14 13 -34 13 -39 -5 -24 -8 7 -13 16
-10 20 3 5 1 11 -4 14 -6 4 -8 -7 -6 -24 2 -16 3 -30 1 -30 -2 0 -15 32 -31
71 -30 77 -47 88 -22 14 10 -28 12 -43 5 -39 -11 7 -10 -4 7 -51 4 -13 1 -12
-9 5 l-15 25 -1 -24 c0 -27 -8 -25 -13 5 -2 10 -9 32 -15 47 -7 16 -12 35 -12
43 0 8 -4 14 -9 14 -10 0 -8 -80 1 -96 3 -5 2 -18 -3 -29 -6 -17 -8 -16 -9 10
l-2 30 -8 -30 c-7 -28 -8 -29 -9 -5 -1 14 -11 50 -22 80 l-19 55 4 -45 c3 -25
7 -70 10 -100 l6 -55 -15 64 c-8 36 -17 67 -20 69 -4 4 -9 -73 -7 -99 0 -3 -8
-10 -19 -17 -17 -11 -19 -9 -20 20 -1 18 -2 38 -4 43 -1 6 -3 35 -4 65 -2 30
-5 48 -8 40 -2 -8 -8 -24 -13 -35 -5 -11 -11 -36 -13 -55 -3 -29 -4 -27 -5 12
-1 26 -6 49 -11 52 -11 7 -24 -30 -23 -69 1 -19 -2 -25 -7 -16 -6 10 -10 9
-15 -5 -3 -9 -9 -15 -12 -12 -2 3 0 17 5 31 5 14 7 28 3 32 -4 3 -12 -9 -18
-27 -12 -33 -12 -32 -9 17 1 28 0 39 -3 25 l-5 -25 -7 25 c-8 24 -8 23 -9 -7
-1 -17 -6 -35 -12 -38 -7 -5 -9 13 -5 57 l5 63 -13 -50 c-10 -39 -15 -46 -21
-32 -6 15 -10 16 -17 5 -6 -9 -8 -3 -6 19 3 18 1 30 -4 27 -4 -3 -8 -14 -8
-24 0 -10 -7 -23 -16 -28 -8 -5 -17 -17 -19 -28 -2 -10 -4 -20 -5 -21 -2 -2
-3 -7 -4 -12 0 -5 -4 -13 -8 -17 -4 -3 -5 4 -2 17 6 28 13 169 8 169 -1 0 -11
-27 -20 -60 -17 -60 -38 -85 -28 -31 4 16 1 32 -5 35 -6 4 -11 0 -11 -9 0 -9
-4 -14 -9 -11 -5 4 -19 -20 -30 -51 -12 -32 -19 -45 -16 -30 4 17 2 26 -4 23
-5 -3 -3 14 4 37 20 65 1 81 -20 18 -23 -70 -31 -58 -10 14 21 74 14 81 -10
10 -11 -30 -23 -55 -28 -55 -4 0 -6 -4 -3 -9 3 -4 -1 -17 -9 -27 -12 -16 -12
-10 1 34 15 52 14 88 -2 40 -4 -13 -15 -29 -26 -36 -15 -11 -17 -17 -7 -28 10
-12 9 -13 -6 -8 -14 6 -16 4 -10 -7 6 -11 5 -11 -5 -2 -10 10 -8 26 14 84 29
78 30 103 1 39 -10 -22 -22 -37 -28 -33 -6 4 -8 -2 -5 -15 4 -12 3 -20 -1 -17
-4 2 -15 -11 -24 -30 -9 -19 -22 -35 -29 -34 -10 0 -10 2 0 6 6 2 10 8 7 13
-3 5 4 32 15 60 31 78 23 73 -21 -12 -46 -91 -59 -103 -23 -22 14 31 23 58 20
61 -2 2 -15 -21 -29 -51 -14 -31 -29 -56 -32 -56 -3 0 -1 9 5 21 18 32 4 34
-15 2 -9 -16 -14 -19 -11 -8 5 18 4 17 -14 -4 -27 -32 -26 -24 15 65 42 93 39
111 -4 25 -17 -34 -34 -61 -36 -61 -3 0 8 27 25 60 17 34 28 66 24 72 -4 6 -3
8 3 5 14 -9 24 16 13 32 -5 10 -9 9 -14 -4 -3 -9 -10 -14 -15 -11 -5 4 -28
-28 -51 -69 -23 -41 -43 -75 -45 -75 -6 0 54 132 67 147 6 8 8 16 5 19 -3 3
-13 -8 -22 -25 -16 -32 -32 -43 -21 -16 11 29 -3 14 -34 -37 -66 -109 -113
-136 -55 -32 41 73 31 80 -11 8 -46 -78 -36 -47 21 64 31 60 58 123 60 141 l4
33 -18 -24 c-9 -12 -39 -53 -65 -91 -69 -97 -76 -73 -9 31 78 120 46 88 -57
-57 -47 -66 -86 -116 -88 -111 -2 5 21 44 50 87 65 93 71 103 64 103 -2 0 -32
-38 -66 -85 -33 -46 -66 -87 -72 -91 -13 -8 -8 0 44 79 21 31 37 57 34 57 -3
0 -33 -36 -67 -80 -34 -44 -64 -80 -67 -80 -2 0 7 15 20 33 13 17 36 48 51 68
32 42 33 48 10 45 -10 -2 -18 -10 -18 -19 0 -9 -5 -17 -10 -18 -6 0 -19 -8
-29 -17 -10 -9 31 50 93 133 61 82 111 154 111 160 -1 5 -8 1 -18 -11 -20 -24
-100 -113 -89 -100 14 19 7 28 -10 15 -10 -7 -7 0 7 16 14 17 28 35 33 40 4 6
5 1 1 -10 -4 -11 -4 -17 0 -14 4 4 9 16 11 29 2 12 10 29 16 39 6 9 -18 -15
-54 -54 -37 -38 -66 -66 -67 -61 0 5 -10 1 -22 -10 l-23 -19 19 22 c10 13 24
20 30 16 6 -3 8 -2 3 2 -4 5 0 20 9 34 9 14 -24 -12 -72 -59 -171 -164 -188
-172 -64 -30 36 41 92 107 125 145 56 66 53 64 -50 -35 -61 -57 -110 -109
-110 -114 0 -5 -9 -10 -19 -12 -13 -2 -5 12 30 49 27 28 54 55 59 59 6 5 6 8
-1 8 -6 0 -19 -9 -29 -20 -10 -11 -33 -29 -52 -40 -26 -15 -14 3 57 83 82 93
118 146 71 103 -11 -10 -24 -15 -29 -12 -5 3 -18 -4 -28 -17 l-19 -22 23 19
c42 36 22 10 -35 -44 -36 -35 -43 -39 -18 -12 64 69 27 48 -54 -30 -98 -95
-72 -59 43 61 79 82 84 89 37 53 -29 -23 -58 -39 -63 -36 -5 3 -23 -6 -39 -22
-16 -15 -37 -29 -46 -30 -10 -2 32 44 92 101 61 57 103 102 95 101 -26 -4 -80
-39 -149 -94 l-66 -54 60 56 c33 30 55 56 50 56 -6 0 -18 -6 -25 -12 -8 -7 5
9 30 36 l45 49 -46 -36 c-25 -20 -50 -37 -54 -37 -5 0 -41 -25 -82 -55 -40
-31 -73 -53 -73 -51 0 3 30 30 68 62 37 31 87 79 112 107 41 47 42 49 13 29
-18 -13 -33 -20 -33 -17 0 3 -12 -2 -27 -13 -42 -28 -62 -36 -30 -12 15 12 24
27 21 32 -4 6 -2 8 4 4 6 -3 14 -2 17 4 4 6 3 10 -2 9 -21 -4 -34 2 -27 12 7
12 -63 -26 -131 -71 -64 -43 -72 -46 -58 -28 7 8 10 18 6 22 -4 3 -8 13 -9 22
-2 12 1 13 12 3 7 -6 11 -15 8 -20 -3 -5 -1 -9 5 -9 14 0 23 18 12 24 -13 8
-6 42 8 38 19 -4 72 38 64 50 -4 8 0 9 11 5 10 -4 15 -3 11 3 -3 5 12 21 35
36 22 15 40 29 40 31 0 3 -12 -3 -27 -13 -101 -64 -104 -67 -91 -77 9 -6 8 -7
-5 -3 -10 3 -36 -5 -60 -20 -45 -27 -33 -16 65 60 109 85 105 85 -28 0 -82
-53 -164 -98 -164 -90 0 2 16 14 35 26 19 12 34 27 32 33 -1 7 6 11 15 9 9 -1
20 3 24 9 4 8 3 9 -4 5 -7 -4 -12 -5 -12 -3 0 3 30 25 68 51 76 53 130 96 120
96 -4 0 -60 -32 -125 -71 -65 -39 -121 -73 -125 -76 -5 -2 -8 -2 -8 0 0 3 29
24 65 47 67 44 90 67 33 32 -174 -104 -167 -89 11 24 77 49 138 90 136 92 -2
2 -15 -4 -29 -13 -14 -9 -31 -13 -37 -9 -8 5 -9 3 -5 -5 5 -8 3 -12 -5 -10
-28 3 -40 -1 -33 -13 4 -7 3 -8 -4 -4 -6 4 -48 -12 -94 -34 -46 -22 -75 -34
-65 -28 55 38 42 34 -47 -12 -54 -29 -95 -47 -92 -41 9 14 -9 14 -37 0 -13 -7
-18 -7 -12 -1 6 6 89 54 185 108 96 53 180 101 185 106 6 6 -54 -22 -132 -61
-79 -39 -143 -69 -143 -67 0 3 46 30 103 60 103 56 129 78 36 31 -27 -14 -55
-23 -61 -19 -7 4 -8 3 -4 -4 4 -8 2 -10 -8 -6 -8 3 -29 -2 -46 -11 -18 -9 -34
-14 -37 -12 -2 3 5 8 16 12 12 3 19 11 16 16 -3 5 2 6 11 2 12 -4 15 -3 10 5
-5 8 -1 10 10 5 12 -4 15 -3 10 5 -5 8 -1 10 10 5 11 -4 15 -2 11 4 -4 5 5 15
18 21 14 7 25 17 25 24 0 10 -2 10 -8 1 -6 -10 -12 -9 -28 3 -17 14 -17 15 -1
10 11 -3 16 -2 12 4 -3 6 -1 10 6 10 7 0 10 3 7 6 -4 3 -16 0 -28 -6 -12 -6
-24 -10 -26 -7 -3 2 24 20 60 38 36 18 63 36 60 38 -3 3 23 20 58 38 35 17 59
32 53 32 -5 1 -75 -23 -155 -53 -149 -55 -211 -64 -105 -14 72 32 69 35 -10 8
-69 -24 -71 -24 -56 -6 7 8 23 17 37 20 14 4 22 11 18 17 -4 8 1 9 17 4 18 -5
21 -4 13 4 -11 12 -67 5 -60 -8 6 -10 -62 -6 -71 4 -5 4 0 5 10 2 9 -4 17 -2
17 3 0 4 14 11 30 15 17 4 27 11 24 17 -4 6 2 8 16 3 17 -5 21 -4 15 6 -6 9
-3 11 8 6 10 -3 17 -2 17 3 0 6 8 10 18 11 14 0 14 2 -3 9 -11 5 -27 9 -35 9
-10 0 -9 -3 4 -8 12 -4 -1 -7 -34 -7 l-52 0 98 33 c106 35 102 35 -49 3 -55
-12 -100 -20 -102 -18 -2 2 58 19 133 38 209 53 81 49 -188 -6 -20 -5 -22 -3
-10 5 13 9 12 11 -5 12 -11 1 12 9 50 18 96 24 166 52 162 65 -2 6 21 16 57
23 l61 12 -70 -4 c-72 -4 -69 -1 23 16 30 6 52 12 50 14 -2 2 -75 -3 -162 -11
-88 -8 -161 -12 -163 -10 -2 2 58 11 134 20 76 10 145 19 153 20 8 2 -41 4
-109 4 -68 1 -125 3 -127 5 -3 2 40 7 93 11 54 4 118 13 143 20 l45 13 -50 7
c-27 3 -126 10 -219 16 -93 5 -171 12 -174 15 -3 3 51 6 119 6 81 1 112 4 89
9 -33 7 -33 7 15 9 79 2 157 13 145 21 -6 3 -28 6 -50 6 -22 -1 -40 2 -40 7 0
4 -25 7 -56 7 -80 0 -58 20 24 22 50 1 57 3 27 6 -36 4 -37 6 -15 12 21 6 17
8 -25 15 -27 4 -66 11 -85 16 -30 7 -29 8 15 4 28 -2 82 -7 120 -9 l70 -5 -55
12 c-68 16 -46 28 28 16 74 -11 101 1 37 17 l-50 13 43 -2 c69 -4 29 14 -104
48 -104 26 -115 30 -89 38 22 5 63 0 150 -22 66 -16 121 -28 123 -26 2 2 -36
15 -85 30 -152 45 -253 79 -249 82 2 2 77 -17 166 -42 89 -25 164 -44 166 -42
3 2 -31 18 -73 34 -43 17 -87 34 -98 38 -11 5 -24 7 -28 6 -5 -1 -6 2 -3 7 3
5 -13 15 -35 22 -22 7 -36 17 -31 22 4 4 35 -1 67 -12 32 -11 60 -18 62 -16 3
2 -12 9 -32 16 -20 7 -35 14 -32 16 2 2 50 -12 108 -32 84 -28 201 -53 187
-38 -2 1 -72 32 -156 68 -85 36 -163 73 -175 82 -25 18 -23 18 88 -23 44 -17
89 -31 100 -31 11 0 46 -12 78 -26 106 -47 58 -17 -68 44 -69 32 -125 62 -125
65 0 2 28 -6 63 -19 108 -42 105 -41 80 -22 -12 9 -43 25 -69 36 -26 11 -44
23 -41 26 3 3 24 -5 48 -17 69 -35 205 -91 194 -80 -5 5 -53 33 -105 61 -141
77 -143 91 -2 21 67 -34 122 -58 122 -53 0 4 -40 30 -90 57 -49 27 -90 54 -90
59 0 4 8 2 18 -5 15 -13 16 -12 3 4 -10 13 -17 15 -27 6 -10 -8 -14 -8 -14 0
0 6 -6 11 -12 11 -7 0 -24 10 -38 21 -25 20 -25 20 17 0 48 -24 57 -26 48 -10
-4 6 12 1 35 -11 35 -18 44 -19 58 -8 15 12 16 11 4 -4 -11 -14 -10 -18 8 -28
15 -8 25 -9 33 -1 7 7 23 4 51 -10 l41 -21 -30 29 c-16 15 -33 27 -38 25 -5
-1 -6 2 -2 7 3 6 -8 17 -25 26 -33 17 -41 28 -12 18 15 -6 15 -5 3 11 -12 14
-8 13 22 -4 20 -12 42 -18 48 -14 7 4 9 3 6 -3 -3 -5 3 -17 14 -26 39 -34 17
5 -27 49 -46 45 -46 45 -10 23 31 -18 35 -19 30 -4 -6 14 -3 16 16 10 24 -8
23 0 -9 40 -9 11 -12 17 -7 13 5 -4 15 -3 23 4 10 8 12 8 8 -4 -4 -9 0 -15 10
-15 10 0 14 6 10 16 -5 12 -3 13 6 4 6 -6 9 -20 5 -30 -6 -15 -8 -15 -16 -3
-6 9 -10 10 -10 3 0 -23 19 -23 34 -1 9 12 16 18 16 13 0 -6 5 -3 10 5 7 11
10 11 10 2 0 -7 5 -10 10 -7 6 4 7 11 4 17 -4 6 -2 8 4 5 8 -6 10 -42 2 -42
-1 0 -3 -9 -5 -20 -2 -11 -9 -21 -15 -23 -7 -3 -5 -12 7 -25 10 -11 13 -17 7
-14 -7 4 -19 -4 -27 -16 -12 -19 -13 -24 -2 -24 8 0 12 4 9 8 -2 4 -1 10 4 13
5 3 8 -8 8 -25 0 -30 -10 -38 -20 -16 -3 6 -3 1 1 -13 3 -14 7 -39 8 -56 2
-30 30 -82 40 -76 3 1 4 0 3 -1 -2 -2 3 -11 11 -20 9 -11 10 -17 2 -17 -6 0
-11 -9 -11 -20 0 -16 -4 -18 -23 -11 -30 12 -52 -11 -37 -39 6 -11 8 -25 5
-30 -3 -6 0 -10 7 -10 9 0 9 -3 -2 -10 -14 -9 -13 -11 9 -14 5 0 13 -5 18 -10
5 -5 3 -6 -4 -2 -7 4 -13 4 -14 -1 0 -4 -2 -16 -4 -25 -2 -10 1 -20 6 -24 5
-3 9 -13 9 -23 0 -25 26 -47 33 -29 3 8 6 6 6 -5 1 -10 -6 -26 -15 -35 -14
-13 -14 -17 -2 -26 8 -6 13 -17 10 -25 -3 -8 0 -11 6 -7 12 7 11 -12 -2 -33
-6 -10 -5 -12 2 -7 8 4 16 -3 22 -19 14 -36 44 -66 69 -68 12 -1 20 -6 18 -11
-2 -5 6 -19 17 -30 19 -19 19 -20 0 -27 -10 -3 -22 -5 -26 -3 -4 3 -9 0 -13
-6 -3 -5 -1 -10 5 -10 6 0 8 -4 5 -10 -3 -5 1 -10 9 -10 9 0 16 -5 16 -10 0
-14 42 -30 55 -20 13 10 46 9 39 -1 -5 -8 -64 -24 -79 -21 -5 1 2 -8 16 -20
24 -21 30 -56 8 -42 -5 3 -9 -11 -9 -30 0 -27 4 -36 16 -36 14 0 15 2 3 18
-13 15 -12 16 3 4 9 -8 14 -20 11 -29 -5 -13 2 -15 40 -12 35 3 43 1 35 -8 -6
-7 -27 -14 -47 -14 -20 -1 -28 -3 -18 -6 9 -2 14 -9 10 -15 -4 -7 0 -9 10 -5
10 3 17 2 17 -4 0 -7 13 -8 33 -4 29 5 31 5 13 -9 -20 -17 -13 -38 12 -34 11
2 17 -4 17 -17 0 -13 -6 -19 -17 -17 -9 1 -19 -2 -23 -7 -3 -6 -13 -7 -23 -4
-12 4 -9 -2 8 -19 14 -13 28 -23 32 -21 4 2 10 -2 14 -8 4 -8 3 -9 -4 -5 -7 4
-12 2 -12 -4 0 -7 9 -14 21 -17 16 -4 17 -8 7 -14 -10 -7 -10 -9 0 -9 9 0 10
-5 2 -19 -11 -21 -14 -48 -4 -38 3 3 14 -2 25 -11 10 -9 31 -18 46 -20 15 -2
29 -7 31 -13 2 -5 10 -5 21 0 10 6 23 6 31 1 8 -5 18 -6 22 -4 4 3 8 0 8 -6 0
-6 5 -8 11 -4 7 4 6 -3 -2 -17 -24 -44 -21 -56 12 -57 17 0 33 -3 36 -6 7 -7
-19 -30 -37 -34 -21 -5 -35 -20 -27 -29 4 -4 20 -8 35 -9 45 -3 56 -8 79 -33
20 -22 23 -48 4 -37 -4 3 -8 -4 -8 -15 -1 -10 2 -19 8 -19 5 0 9 -9 9 -20 0
-14 7 -20 24 -20 13 0 29 -7 36 -15 7 -9 19 -14 27 -11 8 3 13 -2 13 -12 0
-14 70 -57 90 -54 3 0 6 -11 7 -25 1 -29 24 -48 35 -30 6 9 8 8 8 -2 0 -9 8
-11 26 -7 19 5 24 4 18 -6 -11 -17 -14 -38 -6 -37 22 3 42 -2 37 -10 -4 -8 25
-24 47 -26 4 0 17 -8 29 -18 11 -10 27 -16 35 -13 8 3 14 1 14 -5 0 -10 55 15
62 28 3 5 3 2 1 -5 -2 -8 8 -6 26 7 35 25 45 26 61 6 11 -13 10 -14 -6 -9 -14
5 -11 -1 11 -25 16 -17 34 -30 40 -27 5 2 18 -4 28 -12 16 -14 22 -13 65 9 26
13 52 22 58 21 7 -1 14 4 18 13 3 8 15 15 26 15 13 0 19 -4 14 -11 -3 -6 6 -3
22 7 15 11 25 13 21 7 -6 -9 -3 -11 7 -7 9 3 16 12 16 20 0 8 5 14 10 14 6 0
10 -4 10 -8 0 -13 41 -7 50 7 4 8 13 10 19 7 7 -5 11 2 11 18 0 14 6 31 14 38
14 13 1 39 -46 92 -19 21 -25 61 -8 51 6 -4 8 -11 5 -16 -4 -5 4 -7 17 -6 16
3 25 13 29 33 5 22 7 24 8 7 0 -12 6 -25 11 -28 7 -4 9 2 4 19 -5 19 -3 25 7
23 8 -2 11 -2 7 0 -5 3 -8 9 -8 15 0 7 5 7 13 -1 19 -15 27 -4 27 37 0 44 -11
36 -12 -8 l-1 -32 -19 23 c-14 19 -17 20 -11 5 4 -13 3 -17 -5 -12 -8 5 -10 1
-5 -11 5 -15 3 -16 -7 -6 -10 9 -17 10 -27 2 -10 -9 -13 -6 -14 12 0 22 -1 23
-9 4 -12 -28 -12 -37 0 -30 6 3 10 -1 10 -10 0 -11 -5 -15 -15 -12 -18 8 -26
-5 -27 -43 -1 -32 -12 -32 -21 0 -3 11 -1 18 3 15 7 -4 7 3 1 34 -1 2 -7 -2
-14 -8 -8 -6 -18 -7 -22 -3 -5 4 -1 -4 8 -18 22 -31 22 -50 1 -24 -13 16 -15
16 -10 2 3 -10 1 -20 -4 -23 -6 -4 -10 1 -10 10 0 9 -4 14 -9 11 -5 -3 -20 4
-35 15 -21 17 -27 18 -32 6 -3 -8 -4 -20 -2 -27 2 -7 -2 -14 -8 -17 -7 -2 -10
5 -7 22 3 15 1 25 -6 25 -7 0 -9 -4 -6 -10 4 -6 -1 -7 -11 -3 -14 5 -16 2 -11
-17 4 -17 3 -20 -6 -11 -14 14 -30 15 -22 1 3 -5 2 -10 -4 -10 -5 0 -11 6 -13
12 -8 24 -43 13 -60 -17 -15 -26 -16 -27 -15 -7 1 12 5 22 9 22 4 0 5 6 2 14
-6 15 -44 10 -56 -8 -4 -6 -8 0 -8 14 0 20 -2 22 -10 10 -9 -13 -10 -13 -10 0
0 11 -2 12 -8 3 -6 -10 -16 -7 -41 12 -25 18 -44 23 -72 21 -28 -2 -36 0 -32
10 3 8 -1 14 -10 14 -9 0 -34 18 -56 40 -22 22 -47 40 -55 40 -24 0 -46 11
-46 24 0 12 47 23 290 67 105 19 460 48 597 49 73 0 88 6 74 29 -6 10 -58 9
-262 -4 -286 -18 -327 -23 -594 -71 -104 -19 -200 -33 -212 -29 -15 3 -23 13
-23 28 -1 25 -24 72 -36 72 -5 0 -9 11 -10 24 -1 13 -10 30 -20 38 -10 8 -39
32 -63 55 l-45 41 23 41 c12 22 51 82 86 131 36 50 65 95 65 100 -1 16 -56
-53 -122 -150 -72 -107 -87 -120 -81 -67 6 54 56 132 151 233 46 49 80 89 75
89 -29 0 -167 -153 -216 -238 -21 -37 -26 -41 -32 -25 -5 10 -7 27 -6 37 4 28
58 110 125 189 31 37 53 67 47 67 -13 0 -116 -114 -149 -166 -46 -71 -53 -81
-48 -63 2 9 -5 24 -16 34 -13 11 -17 20 -10 24 7 4 8 12 2 21 -7 11 -10 12
-10 2 0 -7 -4 -11 -10 -7 -5 3 -6 13 -3 22 5 11 3 14 -6 8 -10 -6 -11 -3 -2
14 10 18 9 20 -6 14 -15 -5 -16 -3 -6 7 10 11 10 17 -2 29 -7 9 -18 45 -24 80
-6 34 -16 69 -22 77 -7 8 -9 17 -5 21 3 3 6 0 6 -8 0 -12 2 -12 9 0 6 9 9 5 9
-14 0 -14 4 -31 9 -36 6 -6 8 3 7 23 -2 31 -29 62 -45 52 -9 -5 -3 36 7 45 4
3 4 -2 1 -12 -5 -13 0 -20 16 -26 12 -5 25 -7 30 -4 12 7 -4 25 -18 19 -9 -3
-13 2 -12 14 1 15 4 17 16 7 12 -9 13 -9 7 1 -4 6 -3 12 1 12 5 0 15 -6 22
-12 11 -11 12 -10 6 1 -6 11 -4 13 11 7 10 -5 28 -11 39 -14 11 -3 45 -19 75
-36 44 -25 67 -31 115 -31 94 0 173 54 269 184 40 55 58 64 99 48 7 -3 18 -2
23 1 11 8 39 82 49 127 6 31 54 63 74 51 5 -4 13 -1 18 6 4 7 17 18 28 24 15
8 20 22 20 52 0 62 12 65 83 22 73 -45 85 -37 13 9 -36 24 -50 39 -53 60 -4
29 -4 29 38 26 24 -2 53 -9 65 -15 30 -17 67 2 75 37 19 90 71 153 159 195
132 62 269 17 320 -105 23 -56 22 -163 -3 -196 -26 -36 -77 -69 -126 -82 -47
-13 -187 -16 -261 -6 -35 5 -45 4 -34 -2 28 -18 198 -24 264 -11 33 7 74 13
90 15 17 1 46 11 65 23 43 26 140 52 193 52 21 0 36 4 33 8 -6 10 -113 -3
-166 -19 -19 -6 -55 -23 -80 -36 l-45 -26 41 36 c25 22 45 51 53 76 9 32 20
45 51 61 22 11 40 25 40 30 0 5 -16 0 -35 -12 -20 -11 -38 -19 -40 -17 -2 2
-6 21 -10 41 -7 34 -5 39 20 48 14 5 37 10 50 10 13 0 27 5 31 11 5 8 0 10
-17 6 -83 -20 -97 -19 -104 3 -4 12 -21 37 -37 56 -75 85 -193 103 -304 46
-74 -37 -140 -109 -154 -166 -6 -23 -13 -47 -15 -53 -7 -22 -51 -14 -80 15
-26 25 -28 25 -23 5 5 -20 4 -21 -35 -9 -26 7 -43 19 -48 34 -8 21 -6 22 51
22 33 0 60 4 60 10 0 6 -27 10 -60 10 -61 0 -81 14 -36 26 17 4 23 11 19 22
-4 9 -2 13 5 8 6 -3 13 -2 16 3 3 5 -2 12 -11 16 -16 5 -15 8 7 25 14 11 31
20 38 20 7 0 15 7 18 15 4 8 10 12 15 9 5 -3 9 0 9 6 0 6 4 9 9 6 5 -3 17 6
27 19 10 14 23 25 29 25 6 0 16 9 22 19 7 10 36 32 65 49 210 118 380 74 468
-122 15 -33 32 -72 39 -86 11 -25 11 -24 6 5 -10 52 -61 151 -101 195 -51 56
-123 90 -193 90 -37 0 -61 5 -74 18 -11 9 -17 11 -13 4 6 -10 0 -10 -22 2 -25
13 -30 22 -30 47 1 17 -5 34 -12 39 -8 5 -9 9 -1 14 6 4 15 5 20 1 6 -3 8 4 6
15 -4 23 5 26 24 8 9 -8 11 -8 8 -2 -4 7 0 15 9 18 8 3 12 10 9 16 -11 18 5
31 25 20 10 -6 20 -6 22 -1 2 5 10 -1 19 -13 16 -21 16 -22 -3 -23 -15 -2 -18
2 -13 15 4 12 3 14 -5 6 -14 -14 -2 -46 14 -37 6 4 22 9 36 11 14 2 27 7 28
13 6 17 21 -1 16 -19 -5 -15 -4 -15 6 1 6 9 15 15 19 13 4 -3 15 10 24 29 20
42 30 45 21 8z m-55 -27 c1 -5 -5 -3 -13 3 -10 8 -16 9 -21 1 -3 -5 -11 -10
-17 -10 -6 0 0 10 13 23 20 18 25 20 31 7 4 -8 7 -19 7 -24z m-289 -21 c0 -5
-5 -3 -10 5 -5 8 -10 20 -10 25 0 6 5 3 10 -5 5 -8 10 -19 10 -25z m417 10
c-12 -9 -13 -15 -5 -23 8 -8 5 -9 -12 -5 l-23 6 21 17 c12 10 18 21 14 25 -4
5 -1 5 7 0 12 -7 11 -10 -2 -20z m-624 -59 c4 -10 1 -13 -8 -9 -8 3 -12 9 -9
14 7 12 11 11 17 -5z m267 -21 c0 -8 -4 -15 -10 -15 -5 0 -7 7 -4 15 4 8 8 15
10 15 2 0 4 -7 4 -15z m-270 -16 c0 -6 -4 -7 -10 -4 -5 3 -10 11 -10 16 0 6 5
7 10 4 6 -3 10 -11 10 -16z m-219 -34 c5 3 6 -1 3 -10 -6 -15 -26 -17 -25 -2
1 4 2 15 2 25 1 16 2 16 6 -1 2 -9 9 -15 14 -12z m243 -14 c1 -16 0 -29 -3
-29 -22 2 -41 -4 -41 -12 0 -14 -97 -113 -113 -116 -6 -1 -24 -5 -38 -9 -17
-4 -30 -2 -34 6 -6 8 -4 10 5 4 9 -6 11 -4 5 4 -7 12 -30 10 -71 -6 -10 -3
-15 -2 -12 3 4 5 -12 8 -35 8 -23 -1 -45 3 -48 8 -4 6 -23 10 -43 10 -52 0
-92 35 -82 72 7 30 44 49 64 34 8 -7 12 -7 12 0 0 6 7 9 15 6 11 -5 12 -11 5
-25 -8 -14 -6 -20 9 -29 22 -11 71 -10 71 2 0 5 11 6 24 4 19 -3 24 -1 21 13
-5 28 11 49 27 33 9 -9 9 -12 -3 -12 -11 0 -15 -9 -14 -27 1 -16 -4 -35 -11
-43 -11 -13 -8 -15 19 -15 18 0 34 6 38 14 3 7 21 15 40 17 108 11 120 16 126
55 4 27 33 69 33 49 1 -11 3 -10 11 3 14 23 20 17 23 -22z m-311 -11 c-5 -21
-33 -28 -33 -9 0 5 5 7 10 4 6 -3 10 3 10 15 0 12 4 19 9 16 5 -3 7 -15 4 -26z
m97 -33 c0 -7 -9 -18 -21 -25 -21 -13 -21 -13 -3 12 22 29 24 31 24 13z m203
-18 c-4 -15 -8 -17 -14 -8 -8 14 -3 29 11 29 4 0 6 -9 3 -21z m-572 -177 c26
-11 74 -41 107 -67 55 -43 60 -49 51 -72 -11 -31 -11 -42 0 -24 8 12 12 12 25
2 9 -8 16 -20 16 -28 0 -13 -3 -13 -15 -3 -16 13 -16 13 -19 -40 -1 -8 -11
-16 -22 -18 -15 -2 -28 7 -42 30 -26 41 -71 77 -142 114 -70 35 -194 45 -254
20 -21 -9 -42 -13 -47 -10 -5 3 -8 0 -7 -7 2 -7 -9 -13 -24 -14 -15 -1 -25 2
-22 7 3 4 12 8 19 8 8 0 12 6 10 13 -3 6 -1 17 3 23 12 18 101 66 111 60 22
-14 71 -13 71 0 0 8 -9 14 -20 14 -24 0 -27 17 -3 22 38 7 161 -11 204 -30z
m1766 6 c-3 -8 -6 -5 -6 6 -1 11 2 17 5 13 3 -3 4 -12 1 -19z m-1902 -98 c27
-7 26 -8 -16 -9 -25 0 -61 -6 -80 -12 -35 -12 -116 -66 -111 -74 6 -13 1 -25
-10 -19 -8 5 -9 2 -5 -9 3 -9 2 -19 -3 -22 -5 -3 -7 -25 -5 -48 3 -34 2 -38
-7 -23 -8 15 -12 16 -19 5 -7 -11 -9 -11 -9 2 0 9 6 19 14 22 8 3 12 15 9 30
-3 17 2 32 16 46 12 12 18 21 14 21 -17 0 56 64 92 81 42 20 70 22 120 9z
m142 -62 c24 -16 57 -47 75 -69 17 -21 45 -43 61 -47 15 -4 36 -19 45 -34 15
-25 15 -28 -3 -47 -20 -23 -14 -27 15 -11 16 8 19 5 25 -18 7 -32 -13 -86 -34
-90 -12 -3 -12 0 -2 12 9 11 9 16 0 22 -7 4 -9 3 -6 -2 3 -5 -10 -21 -30 -34
-36 -25 -54 -55 -46 -77 3 -7 9 -10 14 -7 5 3 9 0 9 -6 0 -16 33 -8 48 13 7 9
17 17 23 17 15 0 -63 -119 -119 -181 -71 -77 -143 -113 -213 -107 -28 3 -58
13 -67 22 -10 10 -12 16 -4 16 7 0 12 -6 13 -12 0 -10 2 -10 6 0 4 10 8 10 19
1 22 -18 29 16 10 46 -14 21 -14 26 -1 39 20 19 19 23 -6 29 -16 4 -20 10 -14
24 4 10 8 24 8 31 0 16 12 15 26 -2 21 -25 162 -118 169 -111 4 3 -1 11 -11
16 -58 33 -217 165 -217 181 0 4 12 8 28 8 35 0 72 10 72 20 0 4 -22 5 -49 2
-27 -2 -65 1 -84 7 -34 12 -107 80 -107 101 0 6 14 -5 31 -24 53 -61 161 -75
239 -32 97 53 126 66 151 66 51 0 52 20 6 111 -41 79 -64 105 -143 156 -18 12
-18 12 1 6 11 -3 39 -19 62 -35z m52 -202 c-27 -13 -31 -4 -23 40 l7 37 18
-34 c17 -33 17 -34 -2 -43z m1868 68 c-3 -3 -12 -4 -19 -1 -8 3 -5 6 6 6 11 1
17 -2 13 -5z m-2308 -62 c0 -14 -2 -13 -9 3 -5 12 -9 14 -9 6 -1 -8 -4 -12 -7
-8 -9 9 6 28 17 22 5 -4 9 -14 8 -23z m-14 -20 c6 -4 18 -19 27 -33 13 -21 14
-26 2 -26 -8 0 -15 4 -15 9 -1 4 -2 12 -3 17 0 5 -5 13 -10 18 -5 5 -6 3 -2
-4 4 -7 2 -13 -4 -13 -7 0 -10 6 -7 14 3 8 1 17 -6 20 -7 2 -7 5 -2 5 6 0 15
-3 20 -7z m2552 2 c-3 -3 -12 -4 -19 -1 -8 3 -5 6 6 6 11 1 17 -2 13 -5z
m-540 -36 c-3 -8 -6 -5 -6 6 -1 11 2 17 5 13 3 -3 4 -12 1 -19z m-14237 -148
l0 -160 -155 0 -155 0 0 160 0 160 155 0 155 0 0 -160z m14763 123 c-7 -2 -19
-2 -25 0 -7 3 -2 5 12 5 14 0 19 -2 13 -5z m-2460 -43 c16 -16 24 -30 18 -30
-6 0 -20 9 -30 19 -11 11 -22 17 -25 14 -3 -4 -6 -1 -6 6 0 7 -4 10 -9 7 -5
-3 -14 1 -21 10 -25 30 41 7 73 -26z m-946 -16 c-3 -3 -12 -4 -19 -1 -8 3 -5
6 6 6 11 1 17 -2 13 -5z m56 -11 c-7 -2 -19 -2 -25 0 -7 3 -2 5 12 5 14 0 19
-2 13 -5z m-80 -30 c-7 -2 -19 -2 -25 0 -7 3 -2 5 12 5 14 0 19 -2 13 -5z
m3320 0 c-7 -2 -21 -2 -30 0 -10 3 -4 5 12 5 17 0 24 -2 18 -5z m-2736 -100
c-3 -3 -18 0 -34 6 l-28 11 28 -4 c15 -2 27 2 28 8 0 6 3 5 6 -2 3 -7 3 -16 0
-19z m2776 -210 c-13 -2 -35 -2 -50 0 -16 2 -5 4 22 4 28 0 40 -2 28 -4z
m-3300 -20 c-7 -2 -21 -2 -30 0 -10 3 -4 5 12 5 17 0 24 -2 18 -5z m-126 -139
c-3 -3 -12 -4 -19 -1 -8 3 -5 6 6 6 11 1 17 -2 13 -5z m3388 -44 c-3 -5 -14
-10 -23 -10 -15 0 -15 2 -2 10 20 13 33 13 25 0z m-3360 -50 c3 -6 -1 -7 -9
-4 -18 7 -21 14 -7 14 6 0 13 -4 16 -10z m3320 -50 c13 -5 14 -9 5 -9 -8 0
-24 4 -35 9 -13 5 -14 9 -5 9 8 0 24 -4 35 -9z m82 -26 c-3 -3 -12 -4 -19 -1
-8 3 -5 6 6 6 11 1 17 -2 13 -5z m-3229 -57 c9 -10 6 -13 -13 -12 -13 0 -27 4
-31 8 -5 4 0 5 10 1 14 -5 17 -4 12 4 -10 16 9 15 22 -1z m2998 -183 c18 -14
18 -14 -6 -3 -31 14 -36 19 -24 19 6 0 19 -7 30 -16z m-2966 -69 c0 -2 -10 -9
-22 -15 -22 -11 -22 -10 -4 4 21 17 26 19 26 11z m276 -60 c-1 -8 -6 -18 -11
-22 -4 -4 -5 -2 -1 5 8 13 -4 16 -20 5 -5 -5 -1 0 9 10 23 21 26 21 23 2z
m-56 -29 c0 -2 -8 -10 -17 -17 -16 -13 -17 -12 -4 4 13 16 21 21 21 13z m-143
-31 c0 -8 -4 -12 -9 -9 -5 3 -6 10 -3 15 9 13 12 11 12 -6z m2524 -142 c13
-16 12 -17 -3 -4 -10 7 -18 15 -18 17 0 8 8 3 21 -13z m129 -18 c13 -14 21
-25 18 -25 -2 0 -15 11 -28 25 -13 14 -21 25 -18 25 2 0 15 -11 28 -25z m-758
-15 c-2 -16 -8 -27 -13 -24 -5 3 -8 8 -6 12 2 4 7 15 10 25 10 26 14 20 9 -13z
m-160 -65 c7 7 58 -78 57 -95 -1 -8 -6 -3 -12 13 -6 15 -18 27 -26 27 -14 0
-14 1 -1 10 12 8 9 10 -12 10 -23 0 -28 -4 -28 -24 0 -14 -5 -28 -10 -31 -6
-4 -8 -10 -5 -15 3 -5 1 -12 -5 -15 -6 -4 -10 4 -8 22 1 16 -2 35 -7 42 -5 9
-4 12 2 8 6 -4 14 0 17 9 4 10 2 13 -7 8 -9 -6 -9 -5 0 7 7 9 11 26 8 40 l-4
24 18 -22 c10 -12 20 -20 23 -18z m-151 -22 c-1 -5 -7 -8 -13 -8 -8 0 -12 -11
-11 -25 1 -15 0 -18 -3 -7 -3 10 -11 14 -17 10 -7 -3 -4 3 6 14 9 11 14 23 10
28 -5 4 -2 5 5 1 7 -4 12 -2 13 6 0 10 2 10 6 1 2 -7 4 -16 4 -20z m262 -14
c-8 -8 -13 -7 -18 2 -5 8 -4 10 3 5 7 -4 12 -2 12 5 0 7 3 9 7 6 4 -4 2 -12
-4 -18z m-1403 -42 c0 -2 -12 -14 -27 -28 l-28 -24 24 28 c23 25 31 32 31 24z
m280 -37 c-6 -11 -13 -20 -16 -20 -2 0 0 9 6 20 6 11 13 20 16 20 2 0 0 -9 -6
-20z m1825 0 c10 -11 16 -20 13 -20 -3 0 -13 9 -23 20 -10 11 -16 20 -13 20 3
0 13 -9 23 -20z m-1094 -23 c-8 -8 -11 -7 -11 4 0 20 13 34 18 19 3 -7 -1 -17
-7 -23z m266 11 c-3 -8 -6 -5 -6 6 -1 11 2 17 5 13 3 -3 4 -12 1 -19z m-301
-14 c-4 -9 -9 -15 -11 -12 -3 3 -3 13 1 22 4 9 9 15 11 12 3 -3 3 -13 -1 -22z
m-596 -82 c0 -5 -7 -17 -15 -28 -14 -18 -14 -17 -4 9 12 27 19 34 19 19z
m-226 -20 c3 -5 -1 -9 -9 -9 -8 0 -12 4 -9 9 3 4 7 8 9 8 2 0 6 -4 9 -8z
m1966 -32 c17 -22 29 -40 27 -40 -3 0 -20 18 -37 40 -17 22 -29 40 -27 40 3 0
20 -18 37 -40z m-2130 26 c0 -2 -8 -10 -17 -17 -16 -13 -17 -12 -4 4 13 16 21
21 21 13z m311 -19 c-10 -9 -11 -8 -5 6 3 10 9 15 12 12 3 -3 0 -11 -7 -18z
m1168 -52 c0 -5 -6 1 -14 15 -8 14 -14 30 -14 35 0 6 6 -1 14 -15 8 -14 14
-29 14 -35z m-412 -82 c-2 -16 -4 -5 -4 22 0 28 2 40 4 28 2 -13 2 -35 0 -50z
m-197 33 c0 -3 -4 -8 -10 -11 -5 -3 -10 -1 -10 4 0 6 5 11 10 11 6 0 10 -2 10
-4z m-670 -16 c0 -5 -5 -10 -11 -10 -5 0 -7 5 -4 10 3 6 8 10 11 10 2 0 4 -4
4 -10z m553 -10 c-3 -12 -8 -19 -11 -16 -5 6 5 36 12 36 2 0 2 -9 -1 -20z
m164 -32 c-3 -8 -6 -5 -6 6 -1 11 2 17 5 13 3 -3 4 -12 1 -19z m463 7 c0 -8
-2 -15 -4 -15 -2 0 -6 7 -10 15 -3 8 -1 15 4 15 6 0 10 -7 10 -15z m-389 -32
c13 -16 12 -17 -3 -4 -10 7 -18 15 -18 17 0 8 8 3 21 -13z m76 -5 c-3 -8 -6
-5 -6 6 -1 11 2 17 5 13 3 -3 4 -12 1 -19z m63 -22 c0 -8 -4 -17 -8 -20 -4 -2
-8 4 -8 15 0 10 4 19 8 19 4 0 8 -6 8 -14z m203 -2573 c407 -143 616 -566 481
-973 -180 -542 -889 -695 -1281 -276 -399 426 -199 1114 367 1266 62 16 99 19
210 17 120 -3 144 -7 223 -34z"/>
<path d="M17936 8683 c6 -20 4 -24 -7 -18 -8 5 -10 4 -6 0 4 -5 14 -10 21 -11
18 -2 16 44 -2 51 -9 3 -10 -3 -6 -22z"/>
<path d="M18136 8647 c3 -10 9 -15 12 -12 3 3 0 11 -7 18 -10 9 -11 8 -5 -6z"/>
<path d="M17848 8427 c-61 -26 -168 -99 -207 -141 -34 -36 -14 -33 29 5 158
138 296 177 384 108 14 -11 26 -16 26 -10 0 5 -14 20 -32 32 -47 34 -127 36
-200 6z"/>
<path d="M17874 8276 c-28 -15 -60 -36 -70 -49 -26 -28 -87 -209 -78 -230 3
-9 25 -22 48 -28 22 -6 65 -17 95 -26 78 -22 160 -14 205 21 74 56 105 182 60
242 -68 93 -164 118 -260 70z m-61 -239 l26 -48 -32 6 c-45 10 -51 18 -37 60
7 20 13 35 14 33 2 -2 14 -25 29 -51z"/>
<path d="M16177 8271 c-10 -14 -10 -14 4 -4 9 7 18 10 21 7 3 -3 8 -1 12 4 9
16 -24 9 -37 -7z"/>
<path d="M17588 8223 c25 -35 82 -89 82 -79 0 13 -81 106 -92 106 -5 0 0 -12
10 -27z"/>
<path d="M18670 8090 c-9 -6 -10 -10 -3 -10 6 0 15 5 18 10 8 12 4 12 -15 0z"/>
<path d="M17560 7881 c0 -23 166 -184 239 -232 83 -54 196 -104 256 -113 31
-5 26 -2 -20 12 -146 45 -268 124 -389 253 -47 51 -86 86 -86 80z"/>
<path d="M18278 7853 c7 -3 16 -2 19 1 4 3 -2 6 -13 5 -11 0 -14 -3 -6 -6z"/>
<path d="M18197 7820 c-70 -44 -136 -76 -187 -91 -25 -7 -38 -14 -29 -16 26
-6 119 33 204 87 43 27 75 50 69 50 -6 0 -31 -14 -57 -30z"/>
<path d="M15878 7723 c7 -3 16 -2 19 1 4 3 -2 6 -13 5 -11 0 -14 -3 -6 -6z"/>
<path d="M18549 7663 l30 -28 -52 2 -52 2 48 -15 c26 -8 47 -19 47 -23 0 -10
-31 -8 -48 3 -7 4 -16 5 -19 2 -4 -3 0 -6 8 -6 11 0 11 -2 -1 -10 -12 -8 -12
-10 5 -10 21 -1 67 -30 48 -30 -7 0 -14 4 -18 10 -3 5 -13 6 -22 3 -15 -6 -14
-7 3 -14 18 -7 18 -8 -1 -9 l-20 -1 20 -9 c18 -8 18 -9 -5 -10 l-25 -1 23 -10
c13 -5 20 -13 17 -19 -3 -5 -1 -10 4 -10 12 0 15 12 11 44 -1 12 3 17 12 14
14 -6 18 17 20 96 0 30 -23 56 -50 56 -7 0 0 -12 17 -27z"/>
<path d="M17713 7533 c14 -27 34 -79 47 -118 23 -73 47 -115 34 -60 -18 77
-81 225 -96 225 -4 0 2 -21 15 -47z"/>
<path d="M17600 7524 c0 -14 -12 -40 -27 -58 -30 -35 -62 -102 -63 -128 0 -34
29 -18 41 21 6 22 29 61 50 86 39 48 44 60 33 89 -10 26 -34 19 -34 -10z"/>
<path d="M17244 7516 c-10 -41 4 -76 38 -94 50 -28 79 -56 81 -79 2 -32 37
-31 37 1 0 32 -34 72 -81 96 -32 17 -39 26 -39 49 0 16 -7 34 -15 41 -12 10
-15 7 -21 -14z"/>
<path d="M18113 7523 c9 -2 25 -2 35 0 9 3 1 5 -18 5 -19 0 -27 -2 -17 -5z"/>
<path d="M17860 7492 c0 -4 33 -24 73 -44 77 -38 177 -112 219 -163 14 -17 36
-50 48 -75 13 -25 25 -39 27 -33 11 33 -98 162 -187 223 -67 45 -180 103 -180
92z"/>
<path d="M16646 7472 c-3 -5 1 -9 9 -9 8 0 12 4 9 9 -3 4 -7 8 -9 8 -2 0 -6
-4 -9 -8z"/>
<path d="M18482 7463 c-7 -10 -11 -13 -8 -8 3 6 -4 12 -15 12 -17 2 -18 -1 -9
-12 12 -15 60 -17 60 -4 0 4 6 9 13 12 6 2 4 3 -5 2 -9 -2 -18 1 -20 6 -2 5
-9 1 -16 -8z"/>
<path d="M17891 7386 c2 -2 50 -38 105 -79 56 -41 109 -85 118 -98 12 -18 16
-19 16 -7 0 22 -205 188 -233 188 -6 0 -8 -2 -6 -4z"/>
<path d="M18451 7333 c16 -19 39 -16 38 5 0 10 -3 12 -6 5 -2 -7 -9 -13 -14
-13 -6 0 -8 4 -5 8 3 5 -1 9 -9 9 -11 0 -12 -4 -4 -14z"/>
<path d="M18495 7328 c-6 -13 -15 -22 -21 -21 -5 1 -10 -10 -11 -25 -2 -26 -2
-26 8 -4 5 13 13 20 19 17 12 -7 23 17 18 40 -2 12 -5 11 -13 -7z"/>
<path d="M19098 7343 c6 -2 18 -2 25 0 6 3 1 5 -13 5 -14 0 -19 -2 -12 -5z"/>
<path d="M17210 7334 c0 -4 15 -30 34 -58 63 -96 106 -204 106 -267 0 -15 5
-31 11 -35 17 -10 1 90 -27 164 -30 80 -124 228 -124 196z"/>
<path d="M18420 7309 c-13 -9 -13 -10 2 -6 9 3 19 1 22 -6 2 -7 5 -4 5 6 1 20
-7 21 -29 6z"/>
<path d="M15848 7303 c7 -3 16 -2 19 1 4 3 -2 6 -13 5 -11 0 -14 -3 -6 -6z"/>
<path d="M17140 7279 c0 -5 13 -27 29 -47 39 -49 88 -148 96 -194 4 -21 12
-38 17 -38 27 0 -29 139 -93 230 -43 62 -49 68 -49 49z"/>
<path d="M18382 7255 c9 -10 21 -16 28 -13 7 2 -1 10 -16 17 -27 12 -28 11
-12 -4z"/>
<path d="M16375 7250 c3 -5 8 -10 11 -10 2 0 4 5 4 10 0 6 -5 10 -11 10 -5 0
-7 -4 -4 -10z"/>
<path d="M17910 7256 c0 -2 46 -30 103 -61 56 -32 119 -71 140 -87 20 -16 37
-25 37 -19 0 13 -92 75 -191 130 -72 39 -89 46 -89 37z"/>
<path d="M17706 7153 c-3 -49 -2 -104 3 -123 7 -27 9 -6 10 88 1 67 -1 122 -3
122 -2 0 -7 -39 -10 -87z"/>
<path d="M18451 7224 c0 -11 3 -14 6 -6 3 7 2 16 -1 19 -3 4 -6 -2 -5 -13z"/>
<path d="M18393 7217 c3 -7 8 -11 13 -10 15 2 34 -46 22 -54 -7 -4 -8 -1 -3 7
6 10 4 12 -9 7 -10 -4 -27 -2 -39 5 -20 10 -21 10 -8 -5 7 -10 19 -17 27 -17
7 0 17 -8 23 -17 13 -23 24 -10 24 27 0 18 4 27 11 23 6 -4 3 3 -7 14 -21 24
-61 38 -54 20z"/>
<path d="M17440 7215 c0 -6 14 -50 30 -98 17 -49 30 -109 30 -133 0 -31 4 -43
11 -38 15 9 4 85 -25 172 -25 72 -45 115 -46 97z"/>
<path d="M17565 7138 c3 -47 9 -97 15 -110 11 -28 2 108 -11 162 -6 24 -7 9
-4 -52z"/>
<path d="M17617 7213 c-4 -3 -7 -30 -7 -59 0 -59 23 -129 46 -138 19 -7 18 0
-8 35 -18 24 -22 43 -22 99 0 39 -1 70 -1 70 -1 0 -5 -3 -8 -7z"/>
<path d="M17820 7192 c0 -35 133 -262 147 -249 3 3 -7 21 -21 39 -14 19 -48
76 -75 128 -28 52 -51 89 -51 82z"/>
<path d="M18002 7127 c58 -42 109 -81 113 -87 3 -5 11 -10 17 -10 20 0 -24 39
-113 100 -128 88 -142 86 -17 -3z"/>
<path d="M18357 7131 c3 -11 12 -22 22 -24 13 -4 13 -5 -2 -6 -10 0 -15 -6
-12 -11 4 -6 11 -8 16 -5 5 4 9 0 9 -7 0 -8 5 -6 11 5 6 9 14 15 20 12 5 -4 9
-2 9 3 0 14 -29 36 -37 28 -3 -3 -14 1 -24 10 -16 15 -17 14 -12 -5z"/>
<path d="M16992 7056 c-67 -71 -120 -151 -108 -164 7 -7 6 -8 38 48 14 25 54
76 88 113 34 37 60 70 58 73 -3 2 -37 -29 -76 -70z"/>
<path d="M17093 6989 c-70 -118 -80 -139 -64 -139 6 0 11 4 11 8 0 4 27 54 61
111 33 56 59 107 57 113 -2 6 -32 -36 -65 -93z"/>
<path d="M17760 7075 c0 -25 87 -161 97 -151 3 2 -6 20 -20 38 -14 18 -34 52
-46 76 -19 38 -31 52 -31 37z"/>
<path d="M18356 7054 c29 -23 45 -26 51 -8 2 5 -15 15 -38 21 l-42 11 29 -24z"/>
<path d="M18270 6969 l25 -20 -25 5 c-14 3 -19 3 -12 0 6 -3 10 -10 7 -15 -4
-5 0 -6 8 -3 8 3 20 -2 27 -11 19 -23 40 -19 37 8 -2 13 -17 29 -38 39 -46 23
-59 22 -29 -3z"/>
<path d="M15954 6954 c-18 -14 -18 -15 4 -4 12 6 22 13 22 15 0 8 -5 6 -26
-11z"/>
<path d="M18247 6884 c24 -14 40 -30 37 -36 -4 -6 -10 -6 -17 1 -13 13 -31 15
-23 3 3 -5 -1 -9 -9 -9 -8 0 -15 4 -15 9 0 4 -8 8 -17 8 -16 0 -16 -2 -3 -11
12 -9 11 -10 -7 -6 -38 8 -26 -8 22 -31 53 -25 59 -27 49 -9 -6 10 -4 10 7 0
20 -20 30 -15 25 12 -3 14 -1 25 4 25 21 0 -4 30 -41 49 -55 29 -63 25 -12 -5z"/>
<path d="M18274 6901 c9 -15 46 -20 53 -8 3 7 3 9 -1 5 -5 -4 -19 -3 -33 3
-13 5 -22 5 -19 0z"/>
<path d="M16713 6787 c0 -15 0 -27 1 -25 1 2 8 12 16 22 8 11 10 17 3 13 -6
-4 -13 -1 -16 5 -2 7 -4 0 -4 -15z"/>
<path d="M18120 6770 c0 -3 11 -13 25 -20 14 -7 23 -15 21 -17 -2 -3 -14 0
-25 7 -30 16 -26 -1 10 -38 17 -18 27 -32 21 -32 -20 0 -92 37 -85 44 4 4 -1
4 -11 0 -18 -7 -18 -8 0 -21 48 -35 58 -43 44 -37 -8 4 -4 -5 10 -21 l25 -28
-25 13 c-14 7 -34 20 -44 29 -12 10 -16 11 -11 2 6 -10 2 -11 -16 -6 -21 7
-22 6 -10 -9 9 -10 10 -16 2 -16 -6 0 -11 -5 -11 -11 0 -5 4 -8 9 -5 5 3 20
-3 32 -15 l24 -20 -25 12 c-25 12 -25 12 -6 -10 11 -11 14 -21 8 -21 -5 0 -22
14 -36 31 -14 17 -26 25 -26 18 0 -7 10 -24 23 -38 l22 -24 -28 19 c-21 14
-27 26 -24 46 2 15 0 25 -5 22 -4 -3 -8 -12 -8 -20 0 -8 -5 -12 -10 -9 -7 4
-7 12 0 25 16 30 11 38 -6 10 -14 -24 -15 -24 -11 -2 3 12 1 20 -3 17 -5 -3
-8 -19 -8 -36 1 -20 4 -26 9 -17 5 7 9 9 10 3 6 -42 5 -54 -4 -48 -6 4 -8 0
-4 -10 3 -10 2 -17 -2 -17 -5 0 -11 5 -13 11 -3 9 -10 8 -25 -2 -16 -10 -19
-17 -12 -30 7 -15 5 -17 -11 -14 -21 4 -21 -2 -3 -52 10 -27 -17 -12 -32 17
-9 17 -20 28 -25 25 -5 -3 3 -23 18 -44 20 -29 33 -38 52 -36 31 2 79 24 105
48 11 10 33 26 48 35 18 11 32 32 42 62 7 25 14 37 14 28 1 -24 22 -23 28 2 3
11 12 20 21 20 8 0 12 3 9 7 -4 3 0 17 9 31 13 19 13 26 4 32 -21 13 -4 39 22
33 18 -4 20 -3 8 6 -11 8 -12 11 -2 11 9 0 11 7 6 22 -6 20 -5 21 8 10 13 -10
17 -10 21 1 3 8 1 20 -4 28 -7 12 -9 12 -9 0 0 -12 -3 -12 -12 -3 -15 15 -28
15 -28 1 0 -5 5 -7 12 -3 7 4 8 3 4 -5 -4 -6 -13 -8 -19 -4 -21 13 -87 23 -87
13z"/>
<path d="M18075 6761 c-3 -5 -2 -12 3 -15 5 -3 9 1 9 9 0 17 -3 19 -12 6z"/>
<path d="M16034 6743 c2 -10 6 -17 10 -16 15 3 16 11 2 22 -12 10 -14 9 -12
-6z"/>
<path d="M18050 6670 c-9 -6 -10 -10 -3 -10 6 0 15 5 18 10 8 12 4 12 -15 0z"/>
<path d="M17811 6554 c0 -11 3 -14 6 -6 3 7 2 16 -1 19 -3 4 -6 -2 -5 -13z"/>
<path d="M17960 6559 c0 -5 5 -7 10 -4 6 3 10 8 10 11 0 2 -4 4 -10 4 -5 0
-10 -5 -10 -11z"/>
<path d="M16214 6528 l-19 -23 23 19 c21 18 27 26 19 26 -2 0 -12 -10 -23 -22z"/>
<path d="M18574 6416 c1 -8 5 -18 8 -22 4 -3 5 1 4 10 -1 8 -5 18 -8 22 -4 3
-5 -1 -4 -10z"/>
<path d="M16512 6321 c-21 -18 -27 -28 -17 -28 9 0 25 13 36 29 25 35 23 35
-19 -1z"/>
<path d="M17510 6115 c1 -5 1 -12 0 -15 -1 -3 -3 -17 -4 -32 -2 -22 1 -25 12
-15 9 7 10 13 3 15 -6 2 -11 8 -11 13 0 6 4 8 9 5 11 -7 8 20 -3 31 -4 4 -7 4
-6 -2z"/>
<path d="M18157 6090 c3 -11 9 -22 13 -25 5 -3 6 4 3 15 -3 11 -9 22 -13 25
-5 3 -6 -4 -3 -15z"/>
<path d="M17847 6080 c2 -9 11 -17 19 -17 9 0 11 4 4 12 -5 7 -8 14 -5 17 3 2
-1 5 -9 5 -7 0 -11 -7 -9 -17z"/>
<path d="M17800 6081 c0 -6 4 -13 10 -16 6 -3 7 1 4 9 -7 18 -14 21 -14 7z"/>
<path d="M17510 6019 c0 -5 5 -7 10 -4 6 3 10 8 10 11 0 2 -4 4 -10 4 -5 0
-10 -5 -10 -11z"/>
<path d="M16850 8280 c0 -5 6 -10 14 -10 8 0 18 5 21 10 3 6 -3 10 -14 10 -12
0 -21 -4 -21 -10z"/>
<path d="M17324 3360 c-130 -34 -262 -115 -354 -217 -61 -68 -143 -230 -161
-318 -19 -94 -15 -239 10 -330 56 -204 185 -357 376 -450 117 -56 177 -70 305
-69 126 0 203 19 320 76 69 34 102 58 175 132 73 73 99 107 133 176 102 209
101 433 -4 640 -90 178 -269 319 -464 364 -90 22 -247 20 -336 -4z m-223 -297
c11 -12 15 -79 19 -292 l5 -276 28 -57 c50 -102 158 -187 270 -212 l27 -6 0
306 0 306 -88 -109 c-53 -65 -96 -109 -108 -111 -27 -4 -54 22 -54 51 1 32
269 361 298 365 52 8 52 10 52 -414 l0 -393 53 15 c138 41 239 155 266 299 6
32 11 163 11 290 0 166 3 234 12 243 17 17 48 15 70 -5 16 -15 18 -36 18 -253
0 -130 -5 -263 -11 -295 -50 -273 -326 -449 -594 -380 -182 48 -325 206 -355
395 -5 36 -10 164 -10 285 0 184 3 224 16 243 18 26 56 29 75 5z"/>
<path d="M21754 3186 c-141 -13 -177 -26 -194 -72 -11 -28 6 -311 20 -350 18
-45 50 -56 167 -55 193 2 242 15 261 70 6 18 6 78 0 167 -17 257 -21 261 -254
240z m185 -50 c6 -7 16 -86 22 -175 15 -209 26 -196 -167 -206 -188 -9 -179
-16 -188 153 -4 70 -9 139 -12 153 -9 49 20 69 116 78 140 14 216 13 229 -3z"/>
<path d="M21817 3053 c-2 -5 -12 -41 -22 -81 -10 -41 -21 -70 -25 -65 -4 4
-20 38 -36 76 -19 45 -34 67 -46 67 -9 0 -19 -4 -22 -8 -2 -4 16 -54 41 -110
42 -91 49 -102 72 -102 25 0 28 6 54 108 15 59 27 110 27 115 0 4 -9 7 -19 7
-11 0 -22 -3 -24 -7z"/>
<path d="M21076 3064 c-14 -15 -26 -29 -26 -33 0 -3 -11 -75 -25 -160 -22
-139 -23 -157 -10 -185 8 -17 24 -37 34 -43 11 -7 84 -24 164 -38 216 -38 219
-36 253 196 13 89 21 172 18 185 -12 49 -48 67 -167 85 -166 26 -208 25 -241
-7z m222 -33 c79 -11 127 -23 133 -32 13 -21 11 -68 -11 -203 -24 -149 -26
-155 -56 -162 -26 -7 -267 32 -296 48 -24 12 -23 52 2 203 11 66 20 123 20
127 0 16 34 38 58 38 15 0 83 -9 150 -19z"/>
<path d="M21180 2920 c-31 -33 -45 -95 -31 -133 25 -65 108 -87 158 -42 28 25
28 25 8 41 -18 14 -21 13 -34 -5 -7 -12 -24 -21 -37 -21 -50 0 -70 60 -39 120
19 37 68 42 85 10 6 -11 21 -20 34 -20 19 0 23 4 19 20 -9 33 -52 60 -95 60
-31 0 -46 -6 -68 -30z"/>
<path d="M22021 2693 c7 -12 15 -20 18 -17 3 2 -3 12 -13 22 -17 16 -18 16 -5
-5z"/>
</g>
</svg>
